<svg version="1.1" id="Layer_1" xmlns="http://www.w3.org/2000/svg" xmlns:xlink="http://www.w3.org/1999/xlink" x="0px" y="0px"
	 width="100%" viewBox="0 0 512 512" enable-background="new 0 0 512 512" xml:space="preserve">
<path fill="#FFFFFF" opacity="1.000000" stroke="none" 
	d="
M85.000000,513.000000 
	C57.014908,513.000000 29.029814,513.000000 1.022360,513.000000 
	C1.022360,342.439117 1.022360,171.878204 1.022360,1.000000 
	C76.020599,1.000000 151.041641,1.000000 226.361145,1.371896 
	C225.005936,1.860494 223.309830,1.779542 221.705078,2.124022 
	C202.513580,6.243650 186.353958,15.436410 173.597870,30.925308 
	C158.522049,40.369522 145.227371,51.320625 133.738022,64.599510 
	C121.250473,79.032082 111.281883,94.822929 103.828209,112.399445 
	C94.946129,133.344269 91.868141,155.353516 91.157936,177.755539 
	C90.867561,186.914581 92.035294,196.162262 93.060631,205.311218 
	C94.843414,221.218811 96.196320,237.242752 99.235855,252.925964 
	C104.323021,279.174377 111.285324,305.028320 120.676079,330.097473 
	C127.713661,348.884735 135.623093,367.345367 142.936859,386.266815 
	C135.149826,389.385101 127.570282,392.188049 119.604904,395.019135 
	C113.802773,397.016113 108.386467,398.984985 102.590988,400.992188 
	C99.631073,402.039490 96.956116,402.859039 94.484955,404.088287 
	C79.139633,411.721558 67.797050,426.934570 67.151756,444.426483 
	C66.588051,459.706757 66.998856,475.024078 67.060669,490.324707 
	C67.067795,492.089935 67.489319,493.878876 67.902855,495.612885 
	C70.101265,504.831177 77.047478,509.418579 85.000000,513.000000 
z"/>
<path fill="#FFFFFF" opacity="1.000000" stroke="none" 
	d="
M276.000000,1.000001 
	C354.958527,1.000000 433.917023,1.000000 512.937744,1.000000 
	C512.937744,171.666656 512.937744,342.333344 512.937744,513.000000 
	C485.241547,513.000000 457.589447,513.000000 429.610413,512.666626 
	C440.601898,509.311157 447.502228,498.548859 447.105957,488.090057 
	C446.640228,475.796967 446.750671,463.466248 447.073059,451.163910 
	C447.353058,440.476959 445.123230,430.665436 439.239716,421.675262 
	C432.402802,411.228149 423.013519,404.346527 410.828613,400.640686 
	C405.088684,398.549438 399.548981,396.770233 393.822723,394.672607 
	C385.041412,391.221649 376.446655,388.089111 367.921753,384.594421 
	C368.672760,382.761841 369.257141,381.236938 370.049347,379.828979 
	C384.519012,354.113312 396.755157,327.345459 406.637299,299.575562 
	C414.583557,277.245667 421.698730,254.590195 424.994965,231.005630 
	C427.303986,214.484726 429.936554,197.922821 430.696198,181.300217 
	C431.254364,169.086792 429.358551,156.705261 427.937805,144.470459 
	C425.812744,126.170761 419.269470,109.094955 410.822723,92.966568 
	C399.827820,71.972717 384.908325,53.789165 366.334991,38.988285 
	C345.599670,22.464529 322.299011,10.843838 296.295044,5.030889 
	C289.565918,3.526657 282.766907,2.335156 276.000000,1.000001 
z"/>
<path fill="#64505A" opacity="1.000000" stroke="none" 
	d="
M275.531342,1.000001 
	C282.766907,2.335156 289.565918,3.526657 296.295044,5.030889 
	C322.299011,10.843838 345.599670,22.464529 366.334991,38.988285 
	C384.908325,53.789165 399.827820,71.972717 410.822723,92.966568 
	C419.269470,109.094955 425.812744,126.170761 427.937805,144.470459 
	C429.358551,156.705261 431.254364,169.086792 430.696198,181.300217 
	C429.936554,197.922821 427.303986,214.484726 424.994965,231.005630 
	C421.698730,254.590195 414.583557,277.245667 406.637299,299.575562 
	C396.755157,327.345459 384.519012,354.113312 370.049347,379.828979 
	C369.257141,381.236938 368.672760,382.761841 367.528839,384.631012 
	C351.954132,379.605011 336.386292,375.160522 321.888092,368.416504 
	C311.959045,363.797882 307.188446,353.869385 306.881714,342.530426 
	C306.688477,335.386139 306.679352,328.236847 306.720703,320.627777 
	C306.834503,314.420776 306.815247,308.675812 307.013000,302.661011 
	C321.078308,294.668823 333.284210,284.931274 342.511078,271.967133 
	C347.486725,264.976166 351.540527,257.329071 356.120422,250.427307 
	C356.156372,253.203217 355.949005,255.534531 356.031433,257.855560 
	C356.351440,266.864441 364.283844,273.985748 373.468811,273.243561 
	C385.294739,271.805481 391.567352,263.056641 388.286865,250.700470 
	C385.064392,238.562775 380.128632,226.879959 376.112366,214.702606 
	C376.983551,213.966858 377.686707,213.525497 378.390564,213.085358 
	C386.536591,207.991440 390.488312,199.650391 388.791168,191.132111 
	C387.018280,182.233658 380.186371,176.146118 370.436920,174.746353 
	C368.497711,174.467941 366.570770,174.103958 364.162781,173.699615 
	C364.162781,162.792511 364.274872,152.015045 364.140076,141.240677 
	C363.832825,116.681442 347.153412,97.044800 322.718750,92.408875 
	C321.076233,92.072495 319.749634,91.941872 318.423126,91.942322 
	C275.949890,91.956924 233.476639,91.984207 190.939667,91.651733 
	C190.701035,91.021210 190.578506,90.570114 190.343796,90.501221 
	C167.794846,83.882156 160.624466,59.164181 170.620697,39.478054 
	C172.008331,36.745304 172.855942,33.738346 173.953552,30.858334 
	C186.353958,15.436410 202.513580,6.243650 221.705078,2.124022 
	C223.309830,1.779542 225.005936,1.860494 226.829803,1.371896 
	C243.020889,1.000000 259.041779,1.000000 275.531342,1.000001 
z"/>
<path fill="#FF8250" opacity="1.000000" stroke="none" 
	d="
M411.028870,400.952728 
	C423.013519,404.346527 432.402802,411.228149 439.239716,421.675262 
	C445.123230,430.665436 447.353058,440.476959 447.073059,451.163910 
	C446.750671,463.466248 446.640228,475.796967 447.105957,488.090057 
	C447.502228,498.548859 440.601898,509.311157 429.141785,512.666626 
	C314.645782,513.000000 200.291550,513.000000 85.468658,513.000000 
	C77.047478,509.418579 70.101265,504.831177 67.902855,495.612885 
	C67.489319,493.878876 67.067795,492.089935 67.060669,490.324707 
	C66.998856,475.024078 66.588051,459.706757 67.151756,444.426483 
	C67.797050,426.934570 79.139633,411.721558 94.484955,404.088287 
	C96.956116,402.859039 99.631073,402.039490 102.740730,401.297180 
	C108.219994,407.581024 112.862816,413.886139 118.176659,419.563171 
	C136.223236,438.843292 157.326172,453.837280 181.633911,464.365143 
	C202.883682,473.568573 225.100067,478.750183 248.100311,479.782074 
	C259.795959,480.306763 271.641998,479.174866 283.324738,477.910736 
	C303.128906,475.767883 321.945953,469.729553 339.795349,461.011017 
	C368.524200,446.978424 392.370758,427.004913 411.028870,400.952728 
z"/>
<path fill="#E3AA75" opacity="1.000000" stroke="none" 
	d="
M306.587646,321.089783 
	C306.679352,328.236847 306.688477,335.386139 306.881714,342.530426 
	C307.188446,353.869385 311.959045,363.797882 321.888092,368.416504 
	C336.386292,375.160522 351.954132,379.605011 367.458984,384.993103 
	C376.446655,388.089111 385.041412,391.221649 393.703491,394.992126 
	C383.947601,409.250641 371.837006,420.596191 358.286652,430.346008 
	C333.238800,448.368530 305.433075,459.176025 274.555328,462.191681 
	C251.262421,464.466583 228.524246,462.389954 206.172119,455.609711 
	C182.911636,448.553894 162.010910,436.989441 143.885422,420.964478 
	C135.118622,413.213654 127.906654,403.704224 119.990723,394.990997 
	C127.570282,392.188049 135.149826,389.385101 143.332977,386.323059 
	C144.599228,386.045898 145.322311,386.196930 145.915741,385.984955 
	C160.321548,380.838959 175.000854,376.319885 189.018555,370.269226 
	C200.574387,365.281250 206.584671,355.338043 207.117020,342.568176 
	C207.415146,335.416656 207.347870,328.249908 207.780029,321.131287 
	C217.778763,323.960693 227.287140,327.928741 237.147308,329.229004 
	C248.666595,330.748047 260.646637,331.195984 272.143005,329.789337 
	C283.804749,328.362396 295.120392,324.106628 306.587646,321.089783 
z"/>
<path fill="#5A4650" opacity="1.000000" stroke="none" 
	d="
M207.445251,321.090027 
	C207.347870,328.249908 207.415146,335.416656 207.117020,342.568176 
	C206.584671,355.338043 200.574387,365.281250 189.018555,370.269226 
	C175.000854,376.319885 160.321548,380.838959 145.915741,385.984955 
	C145.322311,386.196930 144.599228,386.045898 143.540451,386.007690 
	C135.623093,367.345367 127.713661,348.884735 120.676079,330.097473 
	C111.285324,305.028320 104.323021,279.174377 99.235855,252.925964 
	C96.196320,237.242752 94.843414,221.218811 93.060631,205.311218 
	C92.035294,196.162262 90.867561,186.914581 91.157936,177.755539 
	C91.868141,155.353516 94.946129,133.344269 103.828209,112.399445 
	C111.281883,94.822929 121.250473,79.032082 133.738022,64.599510 
	C145.227371,51.320625 158.522049,40.369522 173.597870,30.925308 
	C172.855942,33.738346 172.008331,36.745304 170.620697,39.478054 
	C160.624466,59.164181 167.794846,83.882156 190.343796,90.501221 
	C190.578506,90.570114 190.701035,91.021210 190.600098,91.811539 
	C169.704697,97.412170 155.839157,109.701500 150.918900,130.653305 
	C149.349792,137.335083 149.502197,144.464188 149.258301,151.402374 
	C148.997711,158.815933 149.199585,166.245728 149.199585,173.522980 
	C146.216156,174.049469 143.939850,174.418716 141.676758,174.856277 
	C132.924408,176.548584 127.270599,182.031540 125.325058,190.382874 
	C123.378288,198.739441 126.083008,206.162918 133.077301,211.616272 
	C134.623047,212.821457 136.307373,213.848923 137.694458,215.219574 
	C133.472290,226.857880 128.749161,238.040405 125.673523,249.659058 
	C121.462418,265.567108 131.847488,273.819946 141.476227,273.385803 
	C153.395859,272.005951 158.954407,264.682556 157.165039,253.404800 
	C157.037613,252.601654 157.665497,251.678680 158.256470,250.985367 
	C169.090271,272.764679 184.201416,290.111664 205.439392,301.810150 
	C206.222687,302.241608 206.704407,303.220581 207.227600,304.407776 
	C207.234116,310.277466 207.339691,315.683746 207.445251,321.090027 
z"/>
<path fill="#DD7446" opacity="1.000000" stroke="none" 
	d="
M119.604904,395.019135 
	C127.906654,403.704224 135.118622,413.213654 143.885422,420.964478 
	C162.010910,436.989441 182.911636,448.553894 206.172119,455.609711 
	C228.524246,462.389954 251.262421,464.466583 274.555328,462.191681 
	C305.433075,459.176025 333.238800,448.368530 358.286652,430.346008 
	C371.837006,420.596191 383.947601,409.250641 393.890076,395.310547 
	C399.548981,396.770233 405.088684,398.549438 410.828613,400.640686 
	C392.370758,427.004913 368.524200,446.978424 339.795349,461.011017 
	C321.945953,469.729553 303.128906,475.767883 283.324738,477.910736 
	C271.641998,479.174866 259.795959,480.306763 248.100311,479.782074 
	C225.100067,478.750183 202.883682,473.568573 181.633911,464.365143 
	C157.326172,453.837280 136.223236,438.843292 118.176659,419.563171 
	C112.862816,413.886139 108.219994,407.581024 103.119896,401.258789 
	C108.386467,398.984985 113.802773,397.016113 119.604904,395.019135 
z"/>
<path fill="#F5B97D" opacity="1.000000" stroke="none" 
	d="
M356.010254,249.977997 
	C351.540527,257.329071 347.486725,264.976166 342.511078,271.967133 
	C333.284210,284.931274 321.078308,294.668823 306.664978,302.724243 
	C294.269257,308.475067 282.136292,312.864288 268.948059,313.581726 
	C268.530304,312.865204 268.247711,312.285583 267.855896,312.198761 
	C245.358658,307.213165 226.183014,296.585876 210.721298,279.287964 
	C193.112289,259.587799 183.300751,236.804703 183.045761,210.269379 
	C182.820160,186.793961 183.006210,163.314667 182.994522,139.837082 
	C182.990509,131.786652 186.117584,125.006523 191.392242,119.123344 
	C198.817429,110.841515 208.654922,108.148972 219.206665,108.073715 
	C248.011032,107.868286 276.817841,108.010918 305.623657,107.997963 
	C315.857880,107.993362 321.590881,102.923409 323.034729,92.675743 
	C347.153412,97.044800 363.832825,116.681442 364.140076,141.240677 
	C364.274872,152.015045 364.162781,162.792511 364.162781,173.699615 
	C366.570770,174.103958 368.497711,174.467941 370.436920,174.746353 
	C380.186371,176.146118 387.018280,182.233658 388.791168,191.132111 
	C390.488312,199.650391 386.536591,207.991440 378.390564,213.085358 
	C377.686707,213.525497 376.983551,213.966858 375.743713,214.700012 
	C374.469574,215.004379 373.731720,215.016388 372.637817,215.024231 
	C370.935333,215.334946 369.588867,215.649826 367.811829,215.916992 
	C366.134308,216.565643 363.913818,217.147446 363.815948,217.979019 
	C363.468781,220.929489 363.845856,223.965179 363.924011,227.335052 
	C361.570679,234.210709 359.241821,240.719925 356.666809,247.419479 
	C356.275330,248.422333 356.129944,249.234833 355.977051,250.024658 
	C355.969574,250.001984 356.010223,249.977982 356.010254,249.977997 
M226.012817,243.525742 
	C222.855713,249.076508 223.415070,251.404205 227.878021,255.645844 
	C233.613800,261.097107 240.757492,263.428833 248.151367,264.410828 
	C261.633514,266.201416 274.755768,265.157928 285.817474,255.809464 
	C290.494629,251.856735 291.270264,247.788025 288.192383,243.790070 
	C285.328827,240.070511 280.180939,239.720276 275.682281,242.939011 
	C264.884583,250.664490 249.054855,250.664902 238.403183,243.040619 
	C234.548477,240.281509 230.529465,239.596466 226.012817,243.525742 
M322.605011,160.731506 
	C323.695282,157.120438 322.748260,153.935150 319.651459,152.017441 
	C316.007111,149.760620 312.109924,147.778610 308.095581,146.288269 
	C303.631744,144.630997 298.757233,146.975845 297.299377,150.849152 
	C295.819702,154.780350 297.539246,159.025131 301.722900,161.307877 
	C304.483887,162.814346 307.306519,164.248383 310.216309,165.432922 
	C315.893036,167.743866 318.791992,166.708405 322.605011,160.731506 
M209.364166,145.897690 
	C204.090500,148.099350 198.523209,149.803131 193.646957,152.678696 
	C190.426895,154.577637 190.054596,158.539551 192.011932,162.028427 
	C193.857162,165.317490 196.679718,167.473953 200.568207,166.210144 
	C204.625809,164.891388 208.528076,163.046188 212.403030,161.228180 
	C215.961319,159.558746 217.477890,156.513367 216.969055,152.668411 
	C216.455261,148.786133 214.119751,146.496704 209.364166,145.897690 
M307.271332,199.857056 
	C314.996399,197.234924 318.093262,183.390884 312.244598,177.624756 
	C309.157166,174.580902 304.687500,174.245636 301.477417,177.114471 
	C296.672119,181.408905 297.963959,187.153931 298.486847,192.478241 
	C298.928986,196.980164 301.986816,199.414780 307.271332,199.857056 
M210.467285,199.195190 
	C215.699600,195.759125 217.394272,189.794067 215.467987,182.028732 
	C214.413696,177.778687 211.713684,175.422943 207.453400,175.160492 
	C203.644043,174.925812 199.876465,178.286591 199.313034,182.496506 
	C198.920761,185.427719 198.934250,188.460129 199.160019,191.417282 
	C199.610641,197.319458 203.547440,200.203339 210.467285,199.195190 
z"/>
<path fill="#E3AA75" opacity="1.000000" stroke="none" 
	d="
M322.718750,92.408875 
	C321.590881,102.923409 315.857880,107.993362 305.623657,107.997963 
	C276.817841,108.010918 248.011032,107.868286 219.206665,108.073715 
	C208.654922,108.148972 198.817429,110.841515 191.392242,119.123344 
	C186.117584,125.006523 182.990509,131.786652 182.994522,139.837082 
	C183.006210,163.314667 182.820160,186.793961 183.045761,210.269379 
	C183.300751,236.804703 193.112289,259.587799 210.721298,279.287964 
	C226.183014,296.585876 245.358658,307.213165 267.855896,312.198761 
	C268.247711,312.285583 268.530304,312.865204 268.564636,313.762665 
	C249.684341,316.807037 231.983643,313.391388 214.792984,306.419617 
	C212.368408,305.436279 209.818542,304.761810 207.326660,303.944397 
	C206.704407,303.220581 206.222687,302.241608 205.439392,301.810150 
	C184.201416,290.111664 169.090271,272.764679 158.197174,250.633850 
	C157.176605,248.658218 156.375259,247.255707 155.910156,245.749405 
	C154.185196,240.162582 152.570984,234.541565 150.946106,228.488953 
	C150.763260,225.275757 150.389908,222.507751 150.376755,219.738037 
	C150.360794,216.382355 148.629547,215.518387 145.305313,215.994873 
	C143.617218,215.980988 142.318390,215.950562 140.797729,215.666016 
	C139.693222,215.260681 138.810562,215.109451 137.927887,214.958221 
	C136.307373,213.848923 134.623047,212.821457 133.077301,211.616272 
	C126.083008,206.162918 123.378288,198.739441 125.325058,190.382874 
	C127.270599,182.031540 132.924408,176.548584 141.676758,174.856277 
	C143.939850,174.418716 146.216156,174.049469 149.199585,173.522980 
	C149.199585,166.245728 148.997711,158.815933 149.258301,151.402374 
	C149.502197,144.464188 149.349792,137.335083 150.918900,130.653305 
	C155.839157,109.701500 169.704697,97.412170 190.663834,92.169395 
	C233.476639,91.984207 275.949890,91.956924 318.423126,91.942322 
	C319.749634,91.941872 321.076233,92.072495 322.718750,92.408875 
z"/>
<path fill="#D19A6E" opacity="1.000000" stroke="none" 
	d="
M207.227600,304.407776 
	C209.818542,304.761810 212.368408,305.436279 214.792984,306.419617 
	C231.983643,313.391388 249.684341,316.807037 268.648834,314.129456 
	C282.136292,312.864288 294.269257,308.475067 306.447998,302.994080 
	C306.815247,308.675812 306.834503,314.420776 306.720703,320.627747 
	C295.120392,324.106628 283.804749,328.362396 272.143005,329.789337 
	C260.646637,331.195984 248.666595,330.748047 237.147308,329.229004 
	C227.287140,327.928741 217.778763,323.960693 207.780029,321.131287 
	C207.339691,315.683746 207.234116,310.277466 207.227600,304.407776 
z"/>
<path fill="#FDD065" opacity="1.000000" stroke="none" 
	d="
M368.242432,215.964722 
	C369.588867,215.649826 370.935333,215.334946 372.637512,215.489685 
	C373.017548,235.052719 373.041809,254.146133 373.066101,273.239532 
	C364.283844,273.985748 356.351440,266.864441 356.031433,257.855560 
	C355.949005,255.534531 356.156372,253.203217 356.120422,250.427307 
	C356.010223,249.977982 355.969574,250.001984 356.292358,249.915924 
	C356.714417,248.962952 356.813721,248.096039 356.912964,247.229126 
	C359.241821,240.719925 361.570679,234.210709 363.993835,226.978775 
	C365.472931,222.825607 366.857697,219.395172 368.242432,215.964722 
z"/>
<path fill="#FDDF7D" opacity="1.000000" stroke="none" 
	d="
M373.468811,273.243561 
	C373.041809,254.146133 373.017548,235.052719 372.993591,215.493866 
	C373.731720,215.016388 374.469574,215.004379 375.576050,214.994949 
	C380.128632,226.879959 385.064392,238.562775 388.286865,250.700470 
	C391.567352,263.056641 385.294739,271.805481 373.468811,273.243561 
z"/>
<path fill="#FEDF7C" opacity="1.000000" stroke="none" 
	d="
M141.019547,215.920135 
	C142.318390,215.950562 143.617218,215.980988 145.343979,216.380981 
	C147.486313,220.811508 149.200745,224.872452 150.915176,228.933395 
	C152.570984,234.541565 154.185196,240.162582 155.910156,245.749405 
	C156.375259,247.255707 157.176605,248.658218 157.882889,250.459900 
	C157.665497,251.678680 157.037613,252.601654 157.165039,253.404800 
	C158.954407,264.682556 153.395859,272.005951 141.461487,272.884949 
	C141.027710,253.561447 141.023621,234.740799 141.019547,215.920135 
z"/>
<path fill="#FDCF64" opacity="1.000000" stroke="none" 
	d="
M140.797729,215.666016 
	C141.023621,234.740799 141.027710,253.561447 141.046539,272.882935 
	C131.847488,273.819946 121.462418,265.567108 125.673523,249.659058 
	C128.749161,238.040405 133.472290,226.857880 137.694458,215.219574 
	C138.810562,215.109451 139.693222,215.260681 140.797729,215.666016 
z"/>
<path fill="#B7805F" opacity="1.000000" stroke="none" 
	d="
M226.282211,243.233597 
	C230.529465,239.596466 234.548477,240.281509 238.403183,243.040619 
	C249.054855,250.664902 264.884583,250.664490 275.682281,242.939011 
	C280.180939,239.720276 285.328827,240.070511 288.192383,243.790070 
	C291.270264,247.788025 290.494629,251.856735 285.817474,255.809464 
	C274.755768,265.157928 261.633514,266.201416 248.151367,264.410828 
	C240.757492,263.428833 233.613800,261.097107 227.878021,255.645844 
	C223.415070,251.404205 222.855713,249.076508 226.282211,243.233597 
z"/>
<path fill="#A27051" opacity="1.000000" stroke="none" 
	d="
M322.446533,161.088348 
	C318.791992,166.708405 315.893036,167.743866 310.216309,165.432922 
	C307.306519,164.248383 304.483887,162.814346 301.722900,161.307877 
	C297.539246,159.025131 295.819702,154.780350 297.299377,150.849152 
	C298.757233,146.975845 303.631744,144.630997 308.095581,146.288269 
	C312.109924,147.778610 316.007111,149.760620 319.651459,152.017441 
	C322.748260,153.935150 323.695282,157.120438 322.446533,161.088348 
z"/>
<path fill="#A27051" opacity="1.000000" stroke="none" 
	d="
M209.776917,145.914536 
	C214.119751,146.496704 216.455261,148.786133 216.969055,152.668411 
	C217.477890,156.513367 215.961319,159.558746 212.403030,161.228180 
	C208.528076,163.046188 204.625809,164.891388 200.568207,166.210144 
	C196.679718,167.473953 193.857162,165.317490 192.011932,162.028427 
	C190.054596,158.539551 190.426895,154.577637 193.646957,152.678696 
	C198.523209,149.803131 204.090500,148.099350 209.776917,145.914536 
z"/>
<path fill="#5F4A51" opacity="1.000000" stroke="none" 
	d="
M306.886169,199.883469 
	C301.986816,199.414780 298.928986,196.980164 298.486847,192.478241 
	C297.963959,187.153931 296.672119,181.408905 301.477417,177.114471 
	C304.687500,174.245636 309.157166,174.580902 312.244598,177.624756 
	C318.093262,183.390884 314.996399,197.234924 306.886169,199.883469 
z"/>
<path fill="#5F4A51" opacity="1.000000" stroke="none" 
	d="
M210.106232,199.327972 
	C203.547440,200.203339 199.610641,197.319458 199.160019,191.417282 
	C198.934250,188.460129 198.920761,185.427719 199.313034,182.496506 
	C199.876465,178.286591 203.644043,174.925812 207.453400,175.160492 
	C211.713684,175.422943 214.413696,177.778687 215.467987,182.028732 
	C217.394272,189.794067 215.699600,195.759125 210.106232,199.327972 
z"/>
<path fill="#6D575C" opacity="1.000000" stroke="none" 
	d="
M367.811829,215.916992 
	C366.857697,219.395172 365.472931,222.825607 364.018341,226.612305 
	C363.845856,223.965179 363.468781,220.929489 363.815948,217.979019 
	C363.913818,217.147446 366.134308,216.565643 367.811829,215.916992 
z"/>
<path fill="#64505A" opacity="1.000000" stroke="none" 
	d="
M356.666840,247.419479 
	C356.813721,248.096039 356.714417,248.962952 356.299866,249.938599 
	C356.129944,249.234833 356.275330,248.422333 356.666840,247.419479 
z"/>
<path fill="#644F53" opacity="1.000000" stroke="none" 
	d="
M150.946106,228.488953 
	C149.200745,224.872452 147.486313,220.811508 145.733231,216.364441 
	C148.629547,215.518387 150.360794,216.382355 150.376755,219.738037 
	C150.389908,222.507751 150.763260,225.275757 150.946106,228.488953 
z"/>
</svg>