<svg version="1.1" id="Layer_1" xmlns="http://www.w3.org/2000/svg" xmlns:xlink="http://www.w3.org/1999/xlink" x="0px" y="0px"
	 width="100%" viewBox="0 0 512 512" enable-background="new 0 0 512 512" xml:space="preserve">
<path fill="#FFFFFF" opacity="1.000000" stroke="none" 
	d="
M156.000000,1.000000 
	C274.944977,1.000000 393.889923,1.000000 512.917480,1.000000 
	C512.917480,171.666641 512.917480,342.333313 512.917480,513.000000 
	C488.580017,513.000000 464.257843,513.000000 439.670013,512.715210 
	C449.976044,509.204163 457.774048,498.643372 457.170227,487.260193 
	C456.448425,473.652832 457.019836,459.977844 456.976105,446.332336 
	C456.970337,444.527802 456.795166,442.693054 456.437500,440.925110 
	C452.225403,420.104462 439.507843,407.152771 419.441467,400.978027 
	C401.272308,395.387085 383.124542,389.726715 364.657593,383.938232 
	C353.788055,378.549774 348.866089,369.975891 348.965607,358.265442 
	C349.067291,346.299835 349.152008,334.328552 348.850281,322.369690 
	C348.787415,319.879303 346.998718,317.432526 345.762878,314.667175 
	C340.018005,313.902740 334.515625,313.436798 329.117859,312.641846 
	C337.071503,301.817871 343.347107,290.520630 346.059937,277.579529 
	C347.128815,272.480530 347.468262,267.228607 348.484253,261.995850 
	C351.552338,257.129761 355.063110,252.585510 356.836182,247.442215 
	C360.554291,236.656693 363.358215,225.556030 366.623535,214.287857 
	C384.431915,213.128860 390.468353,203.644714 390.724335,192.682358 
	C390.945587,183.206589 385.944092,174.407303 373.997131,171.483383 
	C375.334229,158.189407 376.675598,145.322800 378.001251,132.454575 
	C378.707367,125.600166 379.154907,118.709877 380.129456,111.894455 
	C381.762146,100.476616 381.945312,89.073448 379.339294,77.851738 
	C374.900146,58.736046 364.919434,43.111145 349.434021,30.791534 
	C335.066406,19.361198 318.799072,13.603633 300.695282,13.053520 
	C261.105530,11.850522 221.341156,15.895886 181.946609,9.762318 
	C173.058456,8.378468 164.636536,3.999970 156.000000,1.000000 
z"/>
<path fill="#FFFFFF" opacity="1.000000" stroke="none" 
	d="
M74.999992,513.000000 
	C50.348019,513.000000 25.696037,513.000000 1.022027,513.000000 
	C1.022027,342.449615 1.022027,171.899246 1.022027,1.000000 
	C50.353680,1.000000 99.708183,1.000000 149.399933,1.372021 
	C149.159363,2.855884 148.034790,3.997969 148.094345,5.074558 
	C148.427856,11.103967 148.686066,17.177553 149.672943,23.119297 
	C150.616226,28.798426 152.419189,34.334766 153.549210,40.102203 
	C152.869919,40.980198 152.605453,41.796112 152.083969,42.383999 
	C138.763229,57.400406 132.420578,75.103348 132.063324,95.005516 
	C131.972092,100.088570 132.606293,105.190521 133.013458,110.275284 
	C133.642212,118.127251 134.285110,125.979553 135.061600,133.817886 
	C136.320190,146.522552 137.691940,159.216034 138.655258,171.969330 
	C137.540237,172.352371 136.793930,172.700607 136.030273,173.005280 
	C120.820999,179.073395 118.479568,200.676590 132.677292,209.827454 
	C137.157471,212.715073 143.026199,213.448349 148.800262,215.345261 
	C150.798599,231.448486 155.003601,247.724838 164.932266,262.464722 
	C165.334106,264.296387 165.857574,265.698273 165.978271,267.134033 
	C166.936737,278.535919 170.863037,289.024414 176.118240,299.009857 
	C178.681808,303.880859 182.043060,308.332001 184.574707,312.984314 
	C178.735550,313.652191 173.364914,314.309021 167.662933,315.137665 
	C166.559067,317.742767 165.170059,320.163239 165.119263,322.611481 
	C164.881516,334.066772 164.797638,345.534821 165.069656,356.988586 
	C165.366669,369.495300 160.463867,378.660492 148.678635,384.199768 
	C129.550690,390.161743 110.786514,396.051056 92.002747,401.877197 
	C70.487778,408.550507 56.271233,428.521027 56.933495,450.541840 
	C57.303432,462.842560 57.259899,475.171173 56.898430,487.472412 
	C56.695240,494.387115 58.469189,500.482483 63.248768,505.142365 
	C66.566132,508.376678 71.041817,510.422943 74.999992,513.000000 
z"/>
<path fill="#F5DCB4" opacity="1.000000" stroke="none" 
	d="
M75.468651,513.000000 
	C71.041817,510.422943 66.566132,508.376678 63.248768,505.142365 
	C58.469189,500.482483 56.695240,494.387115 56.898430,487.472412 
	C57.259899,475.171173 57.303432,462.842560 56.933495,450.541840 
	C56.271233,428.521027 70.487778,408.550507 92.002747,401.877197 
	C110.786514,396.051056 129.550690,390.161743 148.672180,384.571411 
	C156.201706,405.702911 171.378143,419.562836 189.931976,429.822144 
	C216.510986,444.518921 245.273911,448.570984 275.243042,445.026917 
	C304.911407,441.518433 331.065247,430.656464 351.394073,408.022064 
	C357.615448,401.095093 362.853210,393.437622 364.967316,384.096985 
	C383.124542,389.726715 401.272308,395.387085 419.441467,400.978027 
	C439.507843,407.152771 452.225403,420.104462 456.437500,440.925110 
	C456.795166,442.693054 456.970337,444.527802 456.976105,446.332336 
	C457.019836,459.977844 456.448425,473.652832 457.170227,487.260193 
	C457.774048,498.643372 449.976044,509.204163 439.202148,512.715210 
	C317.979095,513.000000 196.958206,513.000000 75.468651,513.000000 
z"/>
<path fill="#6E5A64" opacity="1.000000" stroke="none" 
	d="
M153.844284,39.933868 
	C152.419189,34.334766 150.616226,28.798426 149.672943,23.119297 
	C148.686066,17.177553 148.427856,11.103967 148.094345,5.074558 
	C148.034790,3.997969 149.159363,2.855884 149.868591,1.372021 
	C151.714355,1.000000 153.428711,1.000000 155.571533,1.000000 
	C164.636536,3.999970 173.058456,8.378468 181.946609,9.762318 
	C221.341156,15.895886 261.105530,11.850522 300.695282,13.053520 
	C318.799072,13.603633 335.066406,19.361198 349.434021,30.791534 
	C364.919434,43.111145 374.900146,58.736046 379.339294,77.851738 
	C381.945312,89.073448 381.762146,100.476616 380.129456,111.894455 
	C379.154907,118.709877 378.707367,125.600166 378.001251,132.454575 
	C376.675598,145.322800 375.334229,158.189407 373.535156,171.519745 
	C371.404663,171.987747 369.726135,171.862869 368.074036,172.018509 
	C356.288483,173.128784 347.926361,163.980179 348.674622,152.736603 
	C349.303955,143.280380 348.887756,133.747986 348.782959,124.250984 
	C348.599426,107.620667 338.264343,96.760162 322.537292,96.951050 
	C315.435669,96.879105 308.799896,96.886963 302.164368,96.851158 
	C287.079407,96.769760 271.994568,96.666924 256.796143,96.227051 
	C251.507782,95.207108 246.286438,94.779587 241.166473,93.814339 
	C222.875900,90.366051 204.881638,85.900497 188.849091,75.903305 
	C175.716766,67.714577 164.638138,57.485394 157.557007,43.392212 
	C156.845093,41.975311 155.106445,41.074295 153.844284,39.933868 
z"/>
<path fill="#F5B97D" opacity="1.000000" stroke="none" 
	d="
M323.003235,97.011032 
	C338.264343,96.760162 348.599426,107.620667 348.782959,124.250984 
	C348.887756,133.747986 349.303955,143.280380 348.674622,152.736603 
	C347.926361,163.980179 356.288483,173.128784 368.074036,172.018509 
	C369.726135,171.862869 371.404663,171.987747 373.532898,171.946442 
	C385.944092,174.407303 390.945587,183.206589 390.724335,192.682358 
	C390.468353,203.644714 384.431915,213.128860 366.623535,214.287857 
	C363.358215,225.556030 360.554291,236.656693 356.836182,247.442215 
	C355.063110,252.585510 351.552338,257.129761 348.432922,261.527924 
	C348.026550,255.782486 347.991455,250.454376 348.010406,245.126465 
	C348.047455,234.706833 340.779907,225.285934 330.625092,223.024643 
	C327.269165,222.277328 323.764709,221.910614 320.323364,221.878113 
	C289.544067,221.587433 258.763733,221.410400 227.524658,221.124649 
	C222.371536,221.119110 217.677444,221.188843 212.517441,221.224640 
	C202.377731,221.550385 192.703918,221.910095 183.022034,221.807556 
	C182.689941,218.559479 182.059280,215.770187 182.090469,212.988327 
	C182.338104,190.903763 181.852310,168.760864 183.381760,146.760330 
	C184.243210,134.368668 192.378525,125.097717 203.372360,118.794090 
	C210.969696,114.437935 219.280075,113.124977 227.753677,113.067398 
	C254.205765,112.887642 280.659851,113.014641 307.113159,112.993256 
	C316.204590,112.985909 322.967804,106.140602 323.003235,97.011032 
M206.510590,164.002335 
	C210.272415,163.607651 214.141937,163.636078 217.769165,162.712646 
	C222.451813,161.520538 223.572647,157.701630 223.046722,153.280365 
	C222.586105,149.408127 220.279724,147.165344 216.497665,147.036575 
	C210.176132,146.821335 203.773666,146.446594 197.546555,147.243347 
	C195.054718,147.562164 192.259811,150.428085 190.895401,152.859833 
	C190.031326,154.399811 190.929504,157.697784 192.125290,159.475479 
	C195.304611,164.201950 200.479034,164.245010 206.510590,164.002335 
M311.364014,146.997665 
	C307.534546,146.997375 303.705048,146.995255 299.875580,146.997238 
	C294.282410,147.000137 290.462128,149.524567 290.162079,154.158539 
	C289.870087,158.668640 292.542206,162.406906 296.804932,162.779770 
	C303.912811,163.401505 311.191223,163.198380 318.266144,162.302505 
	C320.100067,162.070282 322.486542,158.112991 322.811981,155.629868 
	C323.661530,149.147766 320.635376,146.969711 311.364014,146.997665 
M313.986542,193.098679 
	C314.328522,189.007446 314.788330,184.921722 314.979889,180.823456 
	C315.177856,176.587143 312.988068,173.682175 308.884674,173.076736 
	C304.648132,172.451675 300.243042,172.780609 299.150330,178.233521 
	C298.477814,181.589401 297.518555,185.271118 298.280396,188.421448 
	C299.016724,191.466263 301.213257,195.049988 303.824921,196.520401 
	C306.994843,198.305145 310.999176,197.222656 313.986542,193.098679 
M204.252808,196.689148 
	C211.780350,197.577209 214.988510,194.735947 215.004974,187.174561 
	C215.010391,184.691315 215.703323,181.947845 214.869171,179.792770 
	C213.894226,177.273849 211.973923,174.050812 209.767303,173.360962 
	C207.248245,172.573441 202.951447,173.247391 201.201920,175.029022 
	C196.288834,180.032227 196.239212,192.666702 204.252808,196.689148 
z"/>
<path fill="#EBC9A0" opacity="1.000000" stroke="none" 
	d="
M364.657593,383.938232 
	C362.853210,393.437622 357.615448,401.095093 351.394073,408.022064 
	C331.065247,430.656464 304.911407,441.518433 275.243042,445.026917 
	C245.273911,448.570984 216.510986,444.518921 189.931976,429.822144 
	C171.378143,419.562836 156.201706,405.702911 149.027283,384.470825 
	C160.463867,378.660492 165.366669,369.495300 165.069656,356.988586 
	C164.797638,345.534821 164.881516,334.066772 165.119263,322.611481 
	C165.170059,320.163239 166.559067,317.742767 167.699524,315.490387 
	C168.257385,316.127136 168.367523,316.640533 168.648727,317.030609 
	C180.232391,333.099243 194.825516,345.460938 213.023743,353.552155 
	C237.503433,364.436218 262.534515,365.815674 288.155334,358.417847 
	C302.723419,354.211456 315.933380,347.143524 327.056946,337.027222 
	C334.174286,330.554352 339.742615,322.378204 346.005371,314.965637 
	C346.998718,317.432526 348.787415,319.879303 348.850281,322.369690 
	C349.152008,334.328552 349.067291,346.299835 348.965607,358.265442 
	C348.866089,369.975891 353.788055,378.549774 364.657593,383.938232 
z"/>
<path fill="#84737B" opacity="1.000000" stroke="none" 
	d="
M227.983704,221.199921 
	C258.763733,221.410400 289.544067,221.587433 320.323364,221.878113 
	C323.764709,221.910614 327.269165,222.277328 330.625092,223.024643 
	C340.779907,225.285934 348.047455,234.706833 348.010406,245.126465 
	C347.991455,250.454376 348.026550,255.782486 348.088531,261.578430 
	C347.468262,267.228607 347.128815,272.480530 346.059937,277.579529 
	C343.347107,290.520630 337.071503,301.817871 328.774506,312.688934 
	C323.902130,317.221252 319.674866,321.614868 315.014099,325.486633 
	C303.646179,334.930084 290.770569,341.399445 275.902374,343.847748 
	C274.091797,343.033936 272.532257,342.494171 270.958740,341.998932 
	C253.527695,336.512665 238.779465,326.703308 227.494781,312.527893 
	C213.188553,294.556946 206.763229,273.783508 206.750839,250.581589 
	C206.743713,237.243164 212.976212,226.457352 226.238098,222.014313 
	C227.011826,221.723999 227.497772,221.461960 227.983704,221.199921 
M264.318390,270.982544 
	C272.077484,269.676514 279.474640,267.485840 285.782166,262.482422 
	C290.276367,258.917419 291.511963,254.071198 288.771790,250.315750 
	C285.758240,246.185547 281.083527,245.718109 276.040649,248.981842 
	C263.321320,257.213715 250.602005,257.357819 237.882507,248.951065 
	C232.906250,245.662064 228.152374,246.219543 225.178360,250.380081 
	C222.523346,254.094330 223.698730,259.203949 228.307190,262.493103 
	C238.851242,270.018585 250.615067,272.776520 264.318390,270.982544 
z"/>
<path fill="#D2B496" opacity="1.000000" stroke="none" 
	d="
M276.146942,344.142456 
	C290.770569,341.399445 303.646179,334.930084 315.014099,325.486633 
	C319.674866,321.614868 323.902130,317.221252 328.669922,313.017944 
	C334.515625,313.436798 340.018005,313.902740 345.762878,314.667175 
	C339.742615,322.378204 334.174286,330.554352 327.056946,337.027222 
	C315.933380,347.143524 302.723419,354.211456 288.155334,358.417847 
	C262.534515,365.815674 237.503433,364.436218 213.023743,353.552155 
	C194.825516,345.460938 180.232391,333.099243 168.648727,317.030609 
	C168.367523,316.640533 168.257385,316.127136 168.030884,315.318542 
	C173.364914,314.309021 178.735550,313.652191 184.894867,313.087799 
	C200.890671,329.772919 218.926270,341.314423 241.469238,345.325073 
	C253.194016,347.411072 264.677826,347.193359 276.146942,344.142456 
z"/>
<path fill="#E3AA75" opacity="1.000000" stroke="none" 
	d="
M322.537292,96.951050 
	C322.967804,106.140602 316.204590,112.985909 307.113159,112.993256 
	C280.659851,113.014641 254.205765,112.887642 227.753677,113.067398 
	C219.280075,113.124977 210.969696,114.437935 203.372360,118.794090 
	C192.378525,125.097717 184.243210,134.368668 183.381760,146.760330 
	C181.852310,168.760864 182.338104,190.903763 182.090469,212.988327 
	C182.059280,215.770187 182.689941,218.559479 182.780121,222.037170 
	C173.953857,225.736572 167.959290,231.599106 166.273178,240.455917 
	C164.934326,247.488510 165.273270,254.840500 164.867294,262.050690 
	C155.003601,247.724838 150.798599,231.448486 148.800262,215.345261 
	C143.026199,213.448349 137.157471,212.715073 132.677292,209.827454 
	C118.479568,200.676590 120.820999,179.073395 136.030273,173.005280 
	C136.793930,172.700607 137.540237,172.352371 139.115356,172.002274 
	C141.435440,171.986572 142.934814,172.000549 144.434158,171.998276 
	C158.647385,171.976822 164.916428,165.758575 164.933716,151.664505 
	C164.946182,141.501907 164.773849,131.334061 165.068039,121.179688 
	C165.165466,117.816643 165.852158,114.190636 167.317734,111.198296 
	C172.269760,101.087608 180.663345,96.667053 191.954178,96.748543 
	C213.604462,96.904800 235.257690,96.654449 256.909698,96.572807 
	C271.994568,96.666924 287.079407,96.769760 302.164368,96.851158 
	C308.799896,96.886963 315.435669,96.879105 322.537292,96.951050 
z"/>
<path fill="#6E5A64" opacity="1.000000" stroke="none" 
	d="
M164.932266,262.464722 
	C165.273270,254.840500 164.934326,247.488510 166.273178,240.455917 
	C167.959290,231.599106 173.953857,225.736572 182.788208,222.499420 
	C192.703918,221.910095 202.377731,221.550385 212.848206,221.456665 
	C217.746689,221.829315 221.848495,221.935944 225.950317,222.042587 
	C212.976212,226.457352 206.743713,237.243164 206.750839,250.581589 
	C206.763229,273.783508 213.188553,294.556946 227.494781,312.527893 
	C238.779465,326.703308 253.527695,336.512665 270.958740,341.998932 
	C272.532257,342.494171 274.091797,343.033936 275.902374,343.847748 
	C264.677826,347.193359 253.194016,347.411072 241.469238,345.325073 
	C218.926270,341.314423 200.890671,329.772919 185.363403,313.076721 
	C182.043060,308.332001 178.681808,303.880859 176.118240,299.009857 
	C170.863037,289.024414 166.936737,278.535919 165.978271,267.134033 
	C165.857574,265.698273 165.334106,264.296387 164.932266,262.464722 
z"/>
<path fill="#5A4650" opacity="1.000000" stroke="none" 
	d="
M256.796143,96.227051 
	C235.257690,96.654449 213.604462,96.904800 191.954178,96.748543 
	C180.663345,96.667053 172.269760,101.087608 167.317734,111.198296 
	C165.852158,114.190636 165.165466,117.816643 165.068039,121.179688 
	C164.773849,131.334061 164.946182,141.501907 164.933716,151.664505 
	C164.916428,165.758575 158.647385,171.976822 144.434158,171.998276 
	C142.934814,172.000549 141.435440,171.986572 139.475983,171.947174 
	C137.691940,159.216034 136.320190,146.522552 135.061600,133.817886 
	C134.285110,125.979553 133.642212,118.127251 133.013458,110.275284 
	C132.606293,105.190521 131.972092,100.088570 132.063324,95.005516 
	C132.420578,75.103348 138.763229,57.400406 152.083969,42.383999 
	C152.605453,41.796112 152.869919,40.980198 153.549210,40.102203 
	C155.106445,41.074295 156.845093,41.975311 157.557007,43.392212 
	C164.638138,57.485394 175.716766,67.714577 188.849091,75.903305 
	C204.881638,85.900497 222.875900,90.366051 241.166473,93.814339 
	C246.286438,94.779587 251.507782,95.207108 256.796143,96.227051 
z"/>
<path fill="#6F5B64" opacity="1.000000" stroke="none" 
	d="
M206.037476,164.002350 
	C200.479034,164.245010 195.304611,164.201950 192.125290,159.475479 
	C190.929504,157.697784 190.031326,154.399811 190.895401,152.859833 
	C192.259811,150.428085 195.054718,147.562164 197.546555,147.243347 
	C203.773666,146.446594 210.176132,146.821335 216.497665,147.036575 
	C220.279724,147.165344 222.586105,149.408127 223.046722,153.280365 
	C223.572647,157.701630 222.451813,161.520538 217.769165,162.712646 
	C214.141937,163.636078 210.272415,163.607651 206.037476,164.002350 
z"/>
<path fill="#6F5B64" opacity="1.000000" stroke="none" 
	d="
M311.838684,146.997650 
	C320.635376,146.969711 323.661530,149.147766 322.811981,155.629868 
	C322.486542,158.112991 320.100067,162.070282 318.266144,162.302505 
	C311.191223,163.198380 303.912811,163.401505 296.804932,162.779770 
	C292.542206,162.406906 289.870087,158.668640 290.162079,154.158539 
	C290.462128,149.524567 294.282410,147.000137 299.875580,146.997238 
	C303.705048,146.995255 307.534546,146.997375 311.838684,146.997650 
z"/>
<path fill="#5B4750" opacity="1.000000" stroke="none" 
	d="
M313.771484,193.446152 
	C310.999176,197.222656 306.994843,198.305145 303.824921,196.520401 
	C301.213257,195.049988 299.016724,191.466263 298.280396,188.421448 
	C297.518555,185.271118 298.477814,181.589401 299.150330,178.233521 
	C300.243042,172.780609 304.648132,172.451675 308.884674,173.076736 
	C312.988068,173.682175 315.177856,176.587143 314.979889,180.823456 
	C314.788330,184.921722 314.328522,189.007446 313.771484,193.446152 
z"/>
<path fill="#5B4750" opacity="1.000000" stroke="none" 
	d="
M203.897827,196.516663 
	C196.239212,192.666702 196.288834,180.032227 201.201920,175.029022 
	C202.951447,173.247391 207.248245,172.573441 209.767303,173.360962 
	C211.973923,174.050812 213.894226,177.273849 214.869171,179.792770 
	C215.703323,181.947845 215.010391,184.691315 215.004974,187.174561 
	C214.988510,194.735947 211.780350,197.577209 203.897827,196.516663 
z"/>
<path fill="#9B7C71" opacity="1.000000" stroke="none" 
	d="
M226.238098,222.014313 
	C221.848495,221.935944 217.746689,221.829315 213.314117,221.490631 
	C217.677444,221.188843 222.371536,221.119110 227.524658,221.124664 
	C227.497772,221.461960 227.011826,221.723999 226.238098,222.014313 
z"/>
<path fill="#E2A975" opacity="1.000000" stroke="none" 
	d="
M263.881226,270.991791 
	C250.615067,272.776520 238.851242,270.018585 228.307190,262.493103 
	C223.698730,259.203949 222.523346,254.094330 225.178360,250.380081 
	C228.152374,246.219543 232.906250,245.662064 237.882507,248.951065 
	C250.602005,257.357819 263.321320,257.213715 276.040649,248.981842 
	C281.083527,245.718109 285.758240,246.185547 288.771790,250.315750 
	C291.511963,254.071198 290.276367,258.917419 285.782166,262.482422 
	C279.474640,267.485840 272.077484,269.676514 263.881226,270.991791 
z"/>
</svg>