<svg xmlns="http://www.w3.org/2000/svg" xmlns:xlink="http://www.w3.org/1999/xlink" width="1920" zoomAndPan="magnify" viewBox="0 0 1440 809.999993" height="1080" preserveAspectRatio="xMidYMid meet" version="1.0"><path fill="#ccf3e5" d="M 1065.660156 446.554688 C 1065.660156 492.382812 1041.125 533.785156 1001.640625 563.351562 C 980.085938 579.488281 960.707031 598.308594 943.183594 618.746094 C 905.472656 662.726562 840.820312 691.730469 767.398438 691.730469 C 678.355469 691.730469 602.214844 649.074219 571.375 588.78125 C 557.136719 560.945312 534.375 538.296875 506.113281 524.921875 C 443.144531 495.125 400.816406 439.609375 400.816406 376.039062 C 400.816406 280.992188 495.457031 203.9375 612.21875 203.9375 C 676.945312 203.9375 734.882812 227.625 773.660156 264.929688 C 788.917969 279.609375 809.863281 286.753906 830.957031 284.90625 C 838.839844 284.214844 846.855469 283.859375 854.976562 283.859375 C 971.332031 283.859375 1065.660156 356.699219 1065.660156 446.554688 Z M 1065.660156 446.554688 " fill-opacity="1" fill-rule="nonzero"/><path fill="#d4d4d4" d="M 623.660156 369.816406 C 601.828125 378.417969 586.960938 418.339844 587.210938 453.824219 C 587.210938 453.824219 625.832031 679.117188 625.832031 679.117188 C 625.832031 679.117188 662.324219 678.863281 662.324219 678.863281 C 650.195312 553.605469 638.339844 420.226562 623.660156 369.816406 Z M 623.660156 369.816406 " fill-opacity="1" fill-rule="nonzero"/><path stroke-linecap="round" transform="matrix(0.75, 0, 0, 0.75, 624.642743, 524.469018)" fill="none" stroke-linejoin="round" d="M -1.310115 -206.198284 C -30.419492 -194.729533 -50.24241 -141.505572 -49.909076 -94.187862 C -49.909076 -94.187862 1.585718 206.19757 1.585718 206.19757 C 1.585718 206.19757 50.24197 205.859029 50.24197 205.859029 C 34.070095 38.848603 18.262802 -138.989947 -1.310115 -206.198284 Z M -1.310115 -206.198284 " stroke="#231f1f" stroke-width="2" stroke-opacity="1" stroke-miterlimit="4"/><path stroke-linecap="round" transform="matrix(0.75, 0, 0, 0.75, 522.477748, 467.87174)" fill-opacity="1" fill="#d4d4d4" fill-rule="nonzero" stroke-linejoin="round" d="M 135.920301 -130.735244 C 110.4828 -146.370661 85.586965 -159.985245 61.758839 -169.589412 C 61.758839 -169.589412 -50.10575 -178.698788 -50.10575 -178.698788 C -79.777626 -167.422746 -108.605753 -153.724828 -135.918254 -135.672744 C -135.918254 -135.672744 -78.715126 168.056438 -78.715126 168.056438 C -3.657831 178.05123 56.441131 178.702272 94.409883 165.530396 C 94.409883 165.530396 135.920301 -130.735244 135.920301 -130.735244 Z M 135.920301 -130.735244 " stroke="#231f1f" stroke-width="2" stroke-opacity="1" stroke-miterlimit="4"/><path stroke-linecap="butt" transform="matrix(0.75, 0, 0, 0.75, 523.83298, 326.704456)" fill-opacity="1" fill="#ffffff" fill-rule="nonzero" stroke-linejoin="miter" d="M -37.67835 -57.486152 C -37.67835 -57.486152 -34.079392 -5.538233 -34.079392 -5.538233 C -34.079392 -5.538233 17.556028 57.487812 17.556028 57.487812 C 17.556028 57.487812 37.67582 19.899269 37.67582 19.899269 C 37.67582 19.899269 37.67582 -30.215317 37.67582 -30.215317 C 37.67582 -30.215317 -37.67835 -57.486152 -37.67835 -57.486152 Z M -37.67835 -57.486152 " stroke="#231f1f" stroke-width="2" stroke-opacity="1" stroke-miterlimit="10"/><path stroke-linecap="round" transform="matrix(0.75, 0, 0, 0.75, 523.83298, 306.26022)" fill-opacity="1" fill="#231f1f" fill-rule="nonzero" stroke-linejoin="round" d="M 36.118529 2.99679 C 36.118529 2.99679 36.118529 20.757208 36.118529 20.757208 C -2.449182 21.496791 -21.678349 5.048874 -36.11585 -21.498002 C -11.683557 -4.185502 10.649777 3.40304 36.118529 2.99679 Z M 36.118529 2.99679 " stroke="#231f1f" stroke-width="2" stroke-opacity="1" stroke-miterlimit="4"/><path stroke-linecap="round" transform="matrix(0.75, 0, 0, 0.75, 505.440749, 344.855979)" fill-opacity="1" fill="#d4d4d4" fill-rule="nonzero" stroke-linejoin="round" d="M 42.079004 33.28578 C 42.079004 33.28578 15.375877 18.478488 15.375877 18.478488 C 15.375877 18.478488 0.443585 39.738905 0.443585 39.738905 C 0.443585 39.738905 -42.077251 -17.209014 -42.077251 -17.209014 C -42.077251 -17.209014 -21.072041 -39.740265 -21.072041 -39.740265 C -21.072041 -39.740265 -10.249124 -39.740265 -10.249124 -39.740265 C -10.249124 -39.740265 -9.556416 -29.740265 -9.556416 -29.740265 C -9.556416 -29.740265 42.079004 33.28578 42.079004 33.28578 Z M 42.079004 33.28578 " stroke="#231f1f" stroke-width="2" stroke-opacity="1" stroke-miterlimit="4"/><path stroke-linecap="round" transform="matrix(0.75, 0, 0, 0.75, 552.898466, 352.25921)" fill-opacity="1" fill="#d4d4d4" fill-rule="nonzero" stroke-linejoin="round" d="M -21.197956 23.414804 C -21.197956 23.414804 -2.635455 11.64397 -2.635455 11.64397 C -2.635455 11.64397 17.906212 32.39918 17.906212 32.39918 C 17.906212 32.39918 21.197879 -15.439364 21.197879 -15.439364 C 21.197879 -15.439364 -1.078164 -32.397699 -1.078164 -32.397699 C -1.078164 -32.397699 -1.078164 -14.173739 -1.078164 -14.173739 C -1.078164 -14.173739 -21.197956 23.414804 -21.197956 23.414804 Z M -21.197956 23.414804 " stroke="#231f1f" stroke-width="2" stroke-opacity="1" stroke-miterlimit="4"/><path stroke-linecap="round" transform="matrix(0.75, 0, 0, 0.75, 534.372747, 375.086221)" fill-opacity="1" fill="#10c49f" fill-rule="nonzero" stroke-linejoin="round" d="M 17.518629 -15.911837 C 19.091546 -1.849337 17.555088 9.999622 12.805088 19.551706 C 12.805088 19.551706 -9.595955 19.551706 -9.595955 19.551706 C -16.059497 9.619414 -18.424081 -4.167045 -19.090747 -19.552462 C -19.090747 -19.552462 3.503004 -7.02642 3.503004 -7.02642 C 3.503004 -7.02642 17.518629 -15.911837 17.518629 -15.911837 Z M 17.518629 -15.911837 " stroke="#231f1f" stroke-width="2" stroke-opacity="1" stroke-miterlimit="4"/><path stroke-linecap="round" transform="matrix(0.75, 0, 0, 0.75, 537.284979, 486.126716)" fill-opacity="1" fill="#10c49f" fill-rule="nonzero" stroke-linejoin="round" d="M 8.922112 -128.502294 C 8.922112 -128.502294 25.817946 -22.955414 25.817946 -22.955414 C 21.151279 24.482089 12.109612 75.950841 1.89607 128.502927 C -9.728931 80.6123 -20.343515 30.596672 -25.817474 -30.168956 C -25.817474 -30.168956 -13.478931 -128.502294 -13.478931 -128.502294 C -13.478931 -128.502294 8.922112 -128.502294 8.922112 -128.502294 Z M 8.922112 -128.502294 " stroke="#231f1f" stroke-width="2" stroke-opacity="1" stroke-miterlimit="4"/><path stroke-linecap="round" transform="matrix(0.75, 0, 0, 0.75, 527.698516, 609.429709)" fill-opacity="1" fill="#231f1f" fill-rule="nonzero" stroke-linejoin="round" d="M 87.448859 -23.213572 C 87.448859 -23.213572 87.448859 7.031221 87.448859 7.031221 C 34.292606 23.213514 -24.639689 21.218722 -87.452192 7.031221 C -87.452192 7.031221 -85.67615 -20.68753 -85.67615 -20.68753 C -18.467813 -10.432321 40.256148 -10.09378 87.448859 -23.213572 Z M 87.448859 -23.213572 " stroke="#231f1f" stroke-width="2" stroke-opacity="1" stroke-miterlimit="4"/><path stroke-linecap="round" transform="matrix(0.75, 0, 0, 0.75, 526.749004, 656.417987)" fill-opacity="1" fill="#231f1f" fill-rule="nonzero" stroke-linejoin="round" d="M 88.714875 -55.619819 C 88.714875 -55.619819 97.57425 55.61977 97.57425 55.61977 C 97.57425 55.61977 -97.571593 55.61977 -97.571593 55.61977 C -97.571593 55.61977 -86.186176 -55.619819 -86.186176 -55.619819 C -86.186176 -55.619819 88.714875 -55.619819 88.714875 -55.619819 Z M 88.714875 -55.619819 " stroke="#231f1f" stroke-width="2" stroke-opacity="1" stroke-miterlimit="4"/><path stroke-linecap="round" transform="matrix(0.75, 0, 0, 0.75, 404.822242, 483.530996)" fill-opacity="1" fill="#d4d4d4" fill-rule="nonzero" stroke-linejoin="round" d="M 58.200555 -23.041329 C 58.200555 -23.041329 13.67972 115.667012 13.67972 115.667012 C -0.174447 156.026389 -65.747367 133.521179 -51.887992 93.156594 C -30.372366 -0.0621609 -5.559864 -82.04654 21.596387 -156.02571 C 52.919305 -128.468417 65.747431 -84.687165 58.200555 -23.041329 Z M 58.200555 -23.041329 " stroke="#231f1f" stroke-width="2" stroke-opacity="1" stroke-miterlimit="4"/><path fill="#231f1f" d="M 496.125 286.875 C 496.125 286.875 498.9375 292.875 498.9375 292.875 C 498.9375 292.875 518.25 306.1875 518.25 306.1875 C 518.25 306.1875 552.1875 312.5625 552.1875 312.5625 C 552.1875 312.5625 552.5625 296.8125 552.5625 296.8125 C 552.5625 296.8125 496.125 286.875 496.125 286.875 Z M 496.125 286.875 " fill-opacity="1" fill-rule="nonzero"/><path stroke-linecap="round" transform="matrix(0.75, 0, 0, 0.75, 589.430953, 211.063514)" fill-opacity="1" fill="#231f1f" fill-rule="nonzero" stroke-linejoin="round" d="M 6.88373 -30.57427 C 13.305606 -10.459686 9.191022 9.941357 -3.371479 30.571566 C -3.371479 30.571566 -13.303771 -27.44927 -13.303771 -27.44927 C -13.303771 -27.44927 6.88373 -30.57427 6.88373 -30.57427 Z M 6.88373 -30.57427 " stroke="#231f1f" stroke-width="2" stroke-opacity="1" stroke-miterlimit="4"/><path stroke-linecap="butt" transform="matrix(0.75, 0, 0, 0.75, 540.049491, 237.209247)" fill-opacity="1" fill="#ffffff" fill-rule="nonzero" stroke-linejoin="miter" d="M -62.534741 -13.398789 C -62.534741 -13.398789 -61.967033 24.377255 -61.967033 24.377255 C -61.967033 24.377255 -58.737866 69.747049 -58.737866 69.747049 C -28.743073 90.825175 2.986095 101.481425 37.855889 93.273092 C 45.319431 91.512675 51.314223 85.950175 53.66839 78.648091 C 64.022557 46.471006 65.194432 1.877254 57.439223 -54.784207 C 30.673597 -101.482126 -28.555573 -98.633168 -65.190991 -60.096708 C -65.190991 -60.096708 -62.534741 -13.398789 -62.534741 -13.398789 Z M -62.534741 -13.398789 " stroke="#231f1f" stroke-width="2" stroke-opacity="1" stroke-miterlimit="10"/><path stroke-linecap="butt" transform="matrix(0.75, 0, 0, 0.75, 483.007494, 237.318742)" fill-opacity="1" fill="#ffffff" fill-rule="nonzero" stroke-linejoin="miter" d="M 13.521259 -13.544782 C 6.182717 -25.695825 -14.197493 -17.721866 -7.994367 2.653135 C -1.384992 19.684386 6.286883 24.059386 14.193134 25.694803 C 14.193134 25.694803 13.521259 -13.544782 13.521259 -13.544782 Z M 13.521259 -13.544782 " stroke="#231f1f" stroke-width="2" stroke-opacity="1" stroke-miterlimit="10"/><path stroke-linecap="round" transform="matrix(0.75, 0, 0, 0.75, 492.640469, 206.472754)" fill-opacity="1" fill="#231f1f" fill-rule="nonzero" stroke-linejoin="round" d="M 17.9325 -35.31784 C 32.745001 -12.489714 20.802292 32.520705 1.349166 44.296747 C 1.349166 44.296747 0.677291 27.583205 0.677291 27.583205 C -4.244584 22.452996 -9.557085 19.374871 -16.35396 24.281121 C -30.838336 -3.604297 -32.744586 -26.84909 -18.937294 -44.297007 C -18.937294 -44.297007 17.9325 -35.31784 17.9325 -35.31784 Z M 17.9325 -35.31784 " stroke="#231f1f" stroke-width="2" stroke-opacity="1" stroke-miterlimit="4"/><path stroke-linecap="round" transform="matrix(0.75, 0, 0, 0.75, 543.691491, 167.931002)" fill-opacity="1" fill="#231f1f" fill-rule="nonzero" stroke-linejoin="round" d="M 64.734265 -37.204879 C 87.0051 -3.689253 75.489474 21.956582 53.578015 45.175333 C 35.046764 25.357624 2.260304 22.909707 -43.500115 36.258666 C -43.500115 36.258666 -87.005326 7.086789 -87.005326 7.086789 C -83.14595 -32.272588 -39.677198 -45.178838 -6.218863 -25.626754 C 29.926972 -10.595503 54.06239 -13.720503 64.734265 -37.204879 Z M 64.734265 -37.204879 " stroke="#231f1f" stroke-width="2" stroke-opacity="1" stroke-miterlimit="4"/><path stroke-linecap="round" transform="matrix(0.75, 0, 0, 0.75, 565.616978, 245.786259)" fill="none" stroke-linejoin="round" d="M -2.848679 -28.63168 C -1.827845 -7.517095 2.734655 10.389155 10.823197 25.092281 C 3.026321 27.889156 -4.145554 28.633948 -10.822638 27.748531 " stroke="#231f1f" stroke-width="2" stroke-opacity="1" stroke-miterlimit="4"/><path stroke-linecap="round" transform="matrix(0.75, 0, 0, 0.75, 533.535675, 223.306518)" fill="none" stroke-linejoin="round" d="M 10.442017 -3.669108 C 1.202433 -5.064941 -5.755901 -2.153483 -10.443401 5.065267 " stroke="#231f1f" stroke-width="2" stroke-opacity="1" stroke-miterlimit="4"/><path stroke-linecap="round" transform="matrix(0.75, 0, 0, 0.75, 576.129697, 222.414765)" fill="none" stroke-linejoin="round" d="M 8.259362 2.806355 C 4.061446 -0.818645 -1.032305 -2.808228 -8.256263 -0.860311 " stroke="#231f1f" stroke-width="2" stroke-opacity="1" stroke-miterlimit="4"/><path stroke-linecap="round" transform="matrix(0.75, 0, 0, 0.75, 538.186491, 238.312508)" fill-opacity="1" fill="#231f1f" fill-rule="nonzero" stroke-linejoin="round" d="M -4.238238 -0.0000106811 C -4.238238 4.645823 -2.342405 8.416656 0.00134514 8.416656 C 2.339887 8.416656 4.240929 4.645823 4.240929 -0.0000106811 C 4.240929 -4.645844 2.339887 -8.416678 0.00134514 -8.416678 C -2.342405 -8.416678 -4.238238 -4.645844 -4.238238 -0.0000106811 Z M -4.238238 -0.0000106811 " stroke="#231f1f" stroke-width="2" stroke-opacity="1" stroke-miterlimit="4"/><path stroke-linecap="round" transform="matrix(0.75, 0, 0, 0.75, 576.129697, 234.567767)" fill-opacity="1" fill="#231f1f" fill-rule="nonzero" stroke-linejoin="round" d="M -3.355221 -0.0018138 C -3.355221 3.779436 -1.855221 6.836728 -0.00105465 6.836728 C 1.853112 6.836728 3.353112 3.779436 3.353112 -0.0018138 C 3.353112 -3.777856 1.853112 -6.840356 -0.00105465 -6.840356 C -1.855221 -6.840356 -3.355221 -3.777856 -3.355221 -0.0018138 Z M -3.355221 -0.0018138 " stroke="#231f1f" stroke-width="2" stroke-opacity="1" stroke-miterlimit="4"/><path stroke-linecap="round" transform="matrix(0.75, 0, 0, 0.75, 541.841235, 280.977779)" fill="none" stroke-linejoin="round" d="M 15.378354 7.592129 C 3.60752 5.050462 -6.991439 0.566087 -15.376856 -7.595372 " stroke="#231f1f" stroke-width="2" stroke-opacity="1" stroke-miterlimit="4"/><path stroke-linecap="round" transform="matrix(0.75, 0, 0, 0.75, 883.391218, 312.228784)" fill-opacity="1" fill="#231f1f" fill-rule="nonzero" stroke-linejoin="round" d="M 24.514836 -102.357134 C -28.995583 -140.279011 -96.745587 -77.5238 -87.17267 -12.95088 C -101.104962 22.142872 -94.625795 59.252249 -77.844544 97.372043 C -31.9435 122.47621 74.056505 140.278295 101.103381 56.345999 C 95.301298 10.30433 89.332547 -34.122756 81.712755 -62.409216 C 75.50963 -90.695675 53.452337 -100.529009 24.514836 -102.357134 Z M 24.514836 -102.357134 " stroke="#231f1f" stroke-width="2" stroke-opacity="1" stroke-miterlimit="4"/><path stroke-linecap="round" transform="matrix(0.75, 0, 0, 0.75, 883.391218, 312.228784)" fill-opacity="1" fill="#231f1f" fill-rule="nonzero" stroke-linejoin="round" d="M 24.514836 -102.357134 C -28.995583 -140.279011 -96.745587 -77.5238 -87.17267 -12.95088 C -101.104962 22.142872 -94.625795 59.252249 -77.844544 97.372043 C -31.9435 122.47621 74.056505 140.278295 101.103381 56.345999 C 95.301298 10.30433 89.332547 -34.122756 81.712755 -62.409216 C 75.50963 -90.695675 53.452337 -100.529009 24.514836 -102.357134 Z M 24.514836 -102.357134 " stroke="#231f1f" stroke-width="2" stroke-opacity="1" stroke-miterlimit="4"/><path stroke-linecap="butt" transform="matrix(0.75, 0, 0, 0.75, 802.614686, 542.527505)" fill-opacity="1" fill="#d4d4d4" fill-rule="nonzero" stroke-linejoin="miter" d="M 4.706461 51.171663 C -6.361248 85.213331 -44.42375 72.843539 -33.361249 38.796662 C -33.361249 38.796662 3.987711 -85.213761 3.987711 -85.213761 C 3.987711 -85.213761 44.425213 -55.823134 44.425213 -55.823134 C 44.425213 -55.823134 4.706461 51.171663 4.706461 51.171663 Z M 4.706461 51.171663 " stroke="#231f1f" stroke-width="2" stroke-opacity="1" stroke-miterlimit="10"/><path stroke-linecap="round" transform="matrix(0.75, 0, 0, 0.75, 820.832965, 465.514485)" fill-opacity="1" fill="#10c49f" fill-rule="nonzero" stroke-linejoin="round" d="M 12.733131 -63.998483 C -10.011662 -40.545356 -27.376246 -7.784938 -40.454372 32.381731 C -40.454372 32.381731 20.332089 64.001524 20.332089 64.001524 C 20.332089 64.001524 33.576882 14.511938 33.576882 14.511938 C 40.451882 -25.253689 38.868549 -56.696399 12.733131 -63.998483 Z M 12.733131 -63.998483 " stroke="#231f1f" stroke-width="2" stroke-opacity="1" stroke-miterlimit="4"/><path fill="#231f1f" d="M 842.757812 588.160156 C 842.757812 588.160156 941.878906 586.210938 941.878906 586.210938 C 966.375 668.625 950.25 690.375 950.082031 708.035156 C 912.304688 718.5 874.257812 718.199219 836.308594 706.167969 C 811.6875 642 835.125 611.625 842.757812 588.160156 Z M 842.757812 588.160156 " fill-opacity="1" fill-rule="nonzero"/><path stroke-linecap="round" transform="matrix(0.75, 0, 0, 0.75, 893.183937, 728.760751)" fill="none" stroke-linejoin="round" d="M -67.234836 -187.46747 C -67.234836 -187.46747 64.926629 -190.066428 64.926629 -190.066428 C 102.088089 -67.181005 71.088087 -49.181004 75.614129 -26.884128 C 25.244335 -12.936211 -25.234834 -14.082044 -75.833795 -30.123712 C -90.411921 -66.681005 -103.911922 -98.181007 -67.234836 -187.46747 Z M -67.234836 -187.46747 " stroke="#231f1f" stroke-width="2" stroke-opacity="1" stroke-miterlimit="4"/><path stroke-linecap="round" transform="matrix(0.75, 0, 0, 0.75, 897.753009, 498.317227)" fill-opacity="1" fill="#10c49f" fill-rule="nonzero" stroke-linejoin="round" d="M -89.920683 -107.40735 C -71.530057 -118.574017 -52.373806 -125.922976 -32.01443 -127.204226 C -32.01443 -127.204226 -15.10818 -110.6261 -15.10818 -110.6261 C -15.10818 -110.6261 28.709531 -138.339643 28.709531 -138.339643 C 28.709531 -138.339643 101.69391 -107.40735 101.69391 -107.40735 C 76.6887 -32.032346 62.006408 42.853075 58.834533 117.19162 C 14.77203 138.342663 -29.280055 137.259329 -73.326932 119.790578 C -69.384224 77.363493 -67.931099 39.800991 -76.186308 21.228073 C -98.691517 4.936406 -101.696726 -26.120887 -84.936308 -72.136515 C -84.186308 -81.58964 -86.504016 -93.975057 -89.920683 -107.40735 Z M -89.920683 -107.40735 " stroke="#231f1f" stroke-width="2" stroke-opacity="1" stroke-miterlimit="4"/><path stroke-linecap="round" transform="matrix(0.75, 0, 0, 0.75, 896.514753, 378.886496)" fill-opacity="1" fill="#d4d4d4" fill-rule="nonzero" stroke-linejoin="round" d="M -30.363422 -19.192412 C -30.363422 -19.192412 -30.363422 32.036757 -30.363422 32.036757 C -30.363422 32.036757 -13.451963 48.620091 -13.451963 48.620091 C -13.451963 48.620091 30.360539 20.90134 30.360539 20.90134 C 30.360539 20.90134 29.943872 -48.619497 29.943872 -48.619497 C 29.943872 -48.619497 -30.363422 -19.192412 -30.363422 -19.192412 Z M -30.363422 -19.192412 " stroke="#231f1f" stroke-width="2" stroke-opacity="1" stroke-miterlimit="4"/><path stroke-linecap="round" transform="matrix(0.75, 0, 0, 0.75, 895.937961, 363.443263)" fill-opacity="1" fill="#231f1f" fill-rule="nonzero" stroke-linejoin="round" d="M -29.594366 5.612109 C -29.594366 5.612109 -29.594366 22.929818 -29.594366 22.929818 C -4.568323 23.341276 18.306678 4.955859 29.593137 -23.341018 C 12.483761 -7.882684 -10.39124 4.726692 -29.594366 5.612109 Z M -29.594366 5.612109 " stroke="#231f1f" stroke-width="2" stroke-opacity="1" stroke-miterlimit="4"/><path stroke-linecap="round" transform="matrix(0.75, 0, 0, 0.75, 869.90317, 347.631007)" fill="none" stroke-linejoin="round" d="M -13.813603 -0.784051 C -2.699019 6.351366 6.509315 4.497199 13.811398 -6.35176 " stroke="#231f1f" stroke-width="2" stroke-opacity="1" stroke-miterlimit="4"/><path stroke-linecap="round" transform="matrix(0.75, 0, 0, 0.75, 896.514753, 378.886496)" fill-opacity="1" fill="#d4d4d4" fill-rule="nonzero" stroke-linejoin="round" d="M -30.363422 -19.192412 C -30.363422 -19.192412 -30.363422 32.036757 -30.363422 32.036757 C -30.363422 32.036757 -13.451963 48.620091 -13.451963 48.620091 C -13.451963 48.620091 30.360539 20.90134 30.360539 20.90134 C 30.360539 20.90134 29.943872 -48.619497 29.943872 -48.619497 C 29.943872 -48.619497 -30.363422 -19.192412 -30.363422 -19.192412 Z M -30.363422 -19.192412 " stroke="#231f1f" stroke-width="2" stroke-opacity="1" stroke-miterlimit="4"/><path stroke-linecap="round" transform="matrix(0.75, 0, 0, 0.75, 895.937961, 363.443263)" fill-opacity="1" fill="#231f1f" fill-rule="nonzero" stroke-linejoin="round" d="M -29.594366 5.612109 C -29.594366 5.612109 -29.594366 22.929818 -29.594366 22.929818 C -4.568323 23.341276 18.306678 4.955859 29.593137 -23.341018 C 12.483761 -7.882684 -10.39124 4.726692 -29.594366 5.612109 Z M -29.594366 5.612109 " stroke="#231f1f" stroke-width="2" stroke-opacity="1" stroke-miterlimit="4"/><path stroke-linecap="round" transform="matrix(0.75, 0, 0, 0.75, 872.569474, 410.454743)" fill-opacity="1" fill="#10c49f" fill-rule="nonzero" stroke-linejoin="round" d="M 1.563618 -17.356325 C -14.0718 -10.908408 -18.472842 -3.564658 -15.108258 4.727009 C -13.050966 9.799926 -8.6968 13.560343 -3.577008 14.971801 C 5.058409 17.357218 12.115702 13.35201 18.469868 6.523884 C 18.469868 6.523884 1.563618 -10.054242 1.563618 -10.054242 C 1.563618 -10.054242 1.563618 -17.356325 1.563618 -17.356325 Z M 1.563618 -17.356325 " stroke="#231f1f" stroke-width="2" stroke-opacity="1" stroke-miterlimit="4"/><path stroke-linecap="round" transform="matrix(0.75, 0, 0, 0.75, 909.32024, 408.992999)" fill-opacity="1" fill="#10c49f" fill-rule="nonzero" stroke-linejoin="round" d="M -30.531156 8.478085 C -30.531156 8.478085 13.286555 -19.240667 13.286555 -19.240667 C 13.286555 -19.240667 13.286555 -24.870875 13.286555 -24.870875 C 30.531348 -10.568791 29.948014 3.092668 12.510513 16.14996 C -7.395738 24.873919 -20.817613 20.441627 -30.531156 8.478085 Z M -30.531156 8.478085 " stroke="#231f1f" stroke-width="2" stroke-opacity="1" stroke-miterlimit="4"/><path stroke-linecap="round" transform="matrix(0.75, 0, 0, 0.75, 880.231426, 517.120482)" fill="none" stroke-linejoin="round" d="M -42.792945 -3.337726 C -30.813778 0.698732 -17.912735 -2.525226 -5.714818 -5.70231 C -3.568985 -6.26481 -1.36586 -6.82731 0.826849 -6.54606 C 3.910182 -6.150226 6.587266 -4.150226 9.300808 -2.504393 C 19.436225 3.641441 31.279975 5.292483 42.790393 6.823733 " stroke="#231f1f" stroke-width="2" stroke-opacity="1" stroke-miterlimit="4"/><path stroke-linecap="butt" transform="matrix(0.75, 0, 0, 0.75, 976.358213, 545.944505)" fill-opacity="1" fill="#d4d4d4" fill-rule="nonzero" stroke-linejoin="miter" d="M -12.711993 49.120871 C -8.305743 84.646915 31.413009 79.72504 27.006759 44.198996 C 27.006759 44.198996 13.871342 -84.649969 13.871342 -84.649969 C 13.871342 -84.649969 -31.409911 -63.462468 -31.409911 -63.462468 C -31.409911 -63.462468 -12.711993 49.120871 -12.711993 49.120871 Z M -12.711993 49.120871 " stroke="#231f1f" stroke-width="2" stroke-opacity="1" stroke-miterlimit="10"/><path stroke-linecap="round" transform="matrix(0.75, 0, 0, 0.75, 973.489421, 464.351253)" fill-opacity="1" fill="#10c49f" fill-rule="nonzero" stroke-linejoin="round" d="M 0.71723 -62.119382 C 18.597439 -34.770422 29.430773 0.687913 34.649523 42.604582 C 34.649523 42.604582 -31.032772 62.120208 -31.032772 62.120208 C -31.032772 62.120208 -34.647355 11.016039 -34.647355 11.016039 C -33.855688 -29.332922 -26.329646 -59.90584 0.71723 -62.119382 Z M 0.71723 -62.119382 " stroke="#231f1f" stroke-width="2" stroke-opacity="1" stroke-miterlimit="4"/><path fill="#231f1f" d="M 919.125 338.625 C 919.125 338.625 873.375 354 873.375 354 C 873.375 354 874.3125 367.875 874.3125 367.875 C 874.3125 367.875 872.4375 374.8125 874.3125 373.6875 C 876.1875 372.5625 909 358.5 916.5 349.6875 C 924 340.875 919.125 338.625 919.125 338.625 Z M 919.125 338.625 " fill-opacity="1" fill-rule="nonzero"/><path stroke-linecap="round" transform="matrix(0.75, 0, 0, 0.75, 869.813938, 312.449243)" fill-opacity="1" fill="#d4d4d4" fill-rule="nonzero" stroke-linejoin="round" d="M -50.007129 -38.51566 C -67.866505 76.072888 7.883499 101.624972 65.367877 43.713511 C 65.367877 43.713511 67.867877 -9.062533 67.867877 -9.062533 C 67.867877 -9.062533 67.867877 -44.208369 67.867877 -44.208369 C 44.768918 -101.625038 -37.147753 -87.765662 -50.007129 -38.51566 Z M -50.007129 -38.51566 " stroke="#231f1f" stroke-width="2" stroke-opacity="1" stroke-miterlimit="4"/><path stroke-linecap="round" transform="matrix(0.75, 0, 0, 0.75, 928.955239, 315.858021)" fill-opacity="1" fill="#d4d4d4" fill-rule="nonzero" stroke-linejoin="round" d="M -10.987195 -13.60757 C 2.705514 -22.081529 10.705515 -20.638821 12.179473 -7.847153 C 12.643015 -3.821111 12.22114 0.277847 11.210723 4.199722 C 6.820098 21.324723 -2.674694 22.08514 -12.643445 21.324723 C -12.643445 21.324723 -10.987195 -13.60757 -10.987195 -13.60757 Z M -10.987195 -13.60757 " stroke="#231f1f" stroke-width="2" stroke-opacity="1" stroke-miterlimit="4"/><path stroke-linecap="round" transform="matrix(0.75, 0, 0, 0.75, 858.964475, 313.693509)" fill="none" stroke-linejoin="round" d="M 1.78695 -23.284055 C 0.531742 -3.091346 -2.582842 10.596155 -7.145342 19.221156 C -4.358884 22.856572 1.073408 23.283656 7.146325 22.934697 " stroke="#231f1f" stroke-width="2" stroke-opacity="1" stroke-miterlimit="4"/><path stroke-linecap="round" transform="matrix(0.75, 0, 0, 0.75, 885.80845, 293.423266)" fill="none" stroke-linejoin="round" d="M -11.145642 -2.939355 C -1.921683 -3.741438 5.156442 -0.918521 11.146026 3.742937 " stroke="#231f1f" stroke-width="2" stroke-opacity="1" stroke-miterlimit="4"/><path stroke-linecap="round" transform="matrix(0.75, 0, 0, 0.75, 847.377732, 293.12101)" fill="none" stroke-linejoin="round" d="M -8.305726 2.843862 C -2.764059 -1.426972 2.7724 -2.843639 8.30365 -1.421763 " stroke="#231f1f" stroke-width="2" stroke-opacity="1" stroke-miterlimit="4"/><path stroke-linecap="round" transform="matrix(0.75, 0, 0, 0.75, 881.243986, 310.476744)" fill-opacity="1" fill="#231f1f" fill-rule="nonzero" stroke-linejoin="round" d="M 3.570519 -0.00024144 C 3.570519 3.9633 1.971561 7.176842 -0.00239785 7.176842 C -1.971148 7.176842 -3.570106 3.9633 -3.570106 -0.00024144 C -3.570106 -3.963783 -1.971148 -7.177325 -0.00239785 -7.177325 C 1.971561 -7.177325 3.570519 -3.963783 3.570519 -0.00024144 Z M 3.570519 -0.00024144 " stroke="#231f1f" stroke-width="2" stroke-opacity="1" stroke-miterlimit="4"/><path stroke-linecap="round" transform="matrix(0.75, 0, 0, 0.75, 885.257242, 306.386256)" fill-opacity="1" fill="#231f1f" fill-rule="nonzero" stroke-linejoin="round" d="M -5.348198 -1.723341 C -1.259656 -1.535841 2.276803 -2.265008 5.34972 -3.749383 C 4.573678 -0.520216 1.657011 1.755826 -1.879447 3.750617 C -1.879447 3.750617 -5.348198 -1.723341 -5.348198 -1.723341 Z M -5.348198 -1.723341 " stroke="#231f1f" stroke-width="2" stroke-opacity="1" stroke-miterlimit="4"/><path stroke-linecap="round" transform="matrix(0.75, 0, 0, 0.75, 847.478172, 310.181256)" fill-opacity="1" fill="#231f1f" fill-rule="nonzero" stroke-linejoin="round" d="M -3.569854 -0.00209079 C -3.569854 3.961451 -1.970896 7.174993 -0.00214545 7.174993 C 1.971813 7.174993 3.570771 3.961451 3.570771 -0.00209079 C 3.570771 -3.965633 1.971813 -7.179174 -0.00214545 -7.179174 C -1.970896 -7.179174 -3.569854 -3.965633 -3.569854 -0.00209079 Z M -3.569854 -0.00209079 " stroke="#231f1f" stroke-width="2" stroke-opacity="1" stroke-miterlimit="4"/><path stroke-linecap="round" transform="matrix(0.75, 0, 0, 0.75, 843.46566, 306.090765)" fill-opacity="1" fill="#231f1f" fill-rule="nonzero" stroke-linejoin="round" d="M 5.353079 -1.725187 C 1.259329 -1.537687 -2.27713 -2.266854 -5.350047 -3.751229 C -4.574005 -0.522062 -1.662546 1.75398 1.87912 3.748771 C 1.87912 3.748771 5.353079 -1.725187 5.353079 -1.725187 Z M 5.353079 -1.725187 " stroke="#231f1f" stroke-width="2" stroke-opacity="1" stroke-miterlimit="4"/><path stroke-linecap="round" transform="matrix(0.75, 0, 0, 0.75, 876.779266, 268.284002)" fill-opacity="1" fill="#231f1f" fill-rule="nonzero" stroke-linejoin="round" d="M 16.653688 -14.524503 C 16.518271 18.678624 32.231813 40.308833 58.580773 54.157792 C 58.580773 54.157792 66.080774 -14.524503 66.080774 -14.524503 C -3.346313 -54.159922 -35.445273 -29.295337 -66.080691 -1.904711 C -66.080691 -1.904711 -59.294233 20.371332 -59.294233 20.371332 C -31.507773 17.412999 -5.533813 8.084873 16.653688 -14.524503 Z M 16.653688 -14.524503 " stroke="#231f1f" stroke-width="2" stroke-opacity="1" stroke-miterlimit="4"/><path stroke-linecap="round" transform="matrix(0.75, 0, 0, 0.75, 869.813938, 312.449243)" fill-opacity="1" fill="#d4d4d4" fill-rule="nonzero" stroke-linejoin="round" d="M -50.007129 -38.51566 C -67.866505 76.072888 7.883499 101.624972 65.367877 43.713511 C 65.367877 43.713511 67.867877 -9.062533 67.867877 -9.062533 C 67.867877 -9.062533 67.867877 -44.208369 67.867877 -44.208369 C 44.768918 -101.625038 -37.147753 -87.765662 -50.007129 -38.51566 Z M -50.007129 -38.51566 " stroke="#231f1f" stroke-width="2" stroke-opacity="1" stroke-miterlimit="4"/><path stroke-linecap="round" transform="matrix(0.75, 0, 0, 0.75, 928.955239, 315.858021)" fill-opacity="1" fill="#d4d4d4" fill-rule="nonzero" stroke-linejoin="round" d="M -10.987195 -13.60757 C 2.705514 -22.081529 10.705515 -20.638821 12.179473 -7.847153 C 12.643015 -3.821111 12.22114 0.277847 11.210723 4.199722 C 6.820098 21.324723 -2.674694 22.08514 -12.643445 21.324723 C -12.643445 21.324723 -10.987195 -13.60757 -10.987195 -13.60757 Z M -10.987195 -13.60757 " stroke="#231f1f" stroke-width="2" stroke-opacity="1" stroke-miterlimit="4"/><path stroke-linecap="round" transform="matrix(0.75, 0, 0, 0.75, 858.964475, 313.693509)" fill="none" stroke-linejoin="round" d="M 1.78695 -23.284055 C 0.531742 -3.091346 -2.582842 10.596155 -7.145342 19.221156 C -4.358884 22.856572 1.073408 23.283656 7.146325 22.934697 " stroke="#231f1f" stroke-width="2" stroke-opacity="1" stroke-miterlimit="4"/><path stroke-linecap="round" transform="matrix(0.75, 0, 0, 0.75, 876.779266, 268.284002)" fill-opacity="1" fill="#231f1f" fill-rule="nonzero" stroke-linejoin="round" d="M 16.653688 -14.524503 C 16.518271 18.678624 32.231813 40.308833 58.580773 54.157792 C 58.580773 54.157792 66.080774 -14.524503 66.080774 -14.524503 C -3.346313 -54.159922 -35.445273 -29.295337 -66.080691 -1.904711 C -66.080691 -1.904711 -59.294233 20.371332 -59.294233 20.371332 C -31.507773 17.412999 -5.533813 8.084873 16.653688 -14.524503 Z M 16.653688 -14.524503 " stroke="#231f1f" stroke-width="2" stroke-opacity="1" stroke-miterlimit="4"/><path stroke-linecap="round" transform="matrix(0.75, 0, 0, 0.75, 887.561962, 290.865766)" fill="none" stroke-linejoin="round" d="M -11.145116 -2.940813 C -1.921157 -3.742897 5.156968 -0.91998 11.146552 3.741479 " stroke="#231f1f" stroke-width="2" stroke-opacity="1" stroke-miterlimit="4"/><path stroke-linecap="round" transform="matrix(0.75, 0, 0, 0.75, 844.799148, 288.981773)" fill="none" stroke-linejoin="round" d="M -8.305114 2.847219 C -2.763447 -1.428823 2.773012 -2.84549 8.304262 -1.423615 " stroke="#231f1f" stroke-width="2" stroke-opacity="1" stroke-miterlimit="4"/><path stroke-linecap="round" transform="matrix(0.75, 0, 0, 0.75, 881.244634, 306.850493)" fill-opacity="1" fill="#231f1f" fill-rule="nonzero" stroke-linejoin="round" d="M 3.569655 0.00142658 C 3.569655 3.964968 1.970697 7.17851 0.00194648 7.17851 C -1.972012 7.17851 -3.57097 3.964968 -3.57097 0.00142658 C -3.57097 -3.962115 -1.972012 -7.175657 0.00194648 -7.175657 C 1.970697 -7.175657 3.569655 -3.962115 3.569655 0.00142658 Z M 3.569655 0.00142658 " stroke="#231f1f" stroke-width="2" stroke-opacity="1" stroke-miterlimit="4"/><path stroke-linecap="round" transform="matrix(0.75, 0, 0, 0.75, 885.257242, 302.760005)" fill-opacity="1" fill="#231f1f" fill-rule="nonzero" stroke-linejoin="round" d="M -5.348198 -1.721673 C -1.259656 -1.539381 2.276803 -2.26334 5.34972 -3.747715 C 4.573678 -0.518548 1.657011 1.752285 -1.879447 3.752285 C -1.879447 3.752285 -5.348198 -1.721673 -5.348198 -1.721673 Z M -5.348198 -1.721673 " stroke="#231f1f" stroke-width="2" stroke-opacity="1" stroke-miterlimit="4"/><path stroke-linecap="round" transform="matrix(0.75, 0, 0, 0.75, 847.47894, 305.568021)" fill-opacity="1" fill="#231f1f" fill-rule="nonzero" stroke-linejoin="round" d="M -3.570878 -0.00215357 C -3.570878 3.966597 -1.97192 7.17493 0.00203888 7.17493 C 1.970789 7.17493 3.569747 3.966597 3.569747 -0.00215357 C 3.569747 -3.965695 1.970789 -7.179237 0.00203888 -7.179237 C -1.97192 -7.179237 -3.570878 -3.965695 -3.570878 -0.00215357 Z M -3.570878 -0.00215357 " stroke="#231f1f" stroke-width="2" stroke-opacity="1" stroke-miterlimit="4"/><path stroke-linecap="round" transform="matrix(0.75, 0, 0, 0.75, 843.46566, 301.477505)" fill-opacity="1" fill="#231f1f" fill-rule="nonzero" stroke-linejoin="round" d="M 5.353079 -1.725215 C 1.259329 -1.537715 -2.27713 -2.266882 -5.350047 -3.751257 C -4.574005 -0.52209 -1.662546 1.753952 1.87912 3.748744 C 1.87912 3.748744 5.353079 -1.725215 5.353079 -1.725215 Z M 5.353079 -1.725215 " stroke="#231f1f" stroke-width="2" stroke-opacity="1" stroke-miterlimit="4"/><path stroke-linecap="round" transform="matrix(0.75, 0, 0, 0.75, 879.191962, 342.409515)" fill-opacity="1" fill="#231f1f" fill-rule="nonzero" stroke-linejoin="round" d="M 17.457593 -7.801228 C 18.348218 -4.676228 12.775301 5.459189 3.134676 8.193564 C -6.511158 10.927939 -16.573658 5.235231 -17.459075 2.11023 C -18.344492 -1.019978 -9.9122 -1.056436 -0.266366 -3.790812 C 9.374259 -6.525187 16.572177 -10.931437 17.457593 -7.801228 Z M 17.457593 -7.801228 " stroke="#231f1f" stroke-width="2" stroke-opacity="1" stroke-miterlimit="4"/><path stroke-linecap="round" transform="matrix(0.75, 0, 0, 0.75, 719.99997, 95.814018)" fill-opacity="1" fill="#ffffff" fill-rule="nonzero" stroke-linejoin="round" d="M 71.494835 -5.830149 C 71.494835 14.576102 62.942751 32.987562 49.234417 46.013604 C 39.250042 56.352146 31.281292 66.742772 30.182333 77.326105 C 30.182333 77.326105 -30.239545 77.326105 -30.239545 77.326105 C -31.395795 66.300063 -39.984337 55.482354 -50.557254 44.721937 C -50.604129 44.675062 -50.640588 44.638604 -50.687463 44.591729 C -63.546838 31.664645 -71.494755 13.841727 -71.494755 -5.830149 C -71.494755 -45.324942 -39.484337 -77.324944 0.00004 -77.324944 C 39.484417 -77.324944 71.494835 -45.324942 71.494835 -5.830149 Z M 71.494835 -5.830149 " stroke="#231f1f" stroke-width="2" stroke-opacity="1" stroke-miterlimit="4"/><path stroke-linecap="round" transform="matrix(0.75, 0, 0, 0.75, 720.073458, 119.041516)" fill="none" stroke-linejoin="round" d="M -10.191695 48.996731 C -8.519819 26.741521 -8.139611 4.382145 -9.066694 -17.893898 C -9.457319 -27.315773 -10.11357 -36.899107 -13.311486 -45.617858 C -14.472945 -48.784524 -16.811487 -52.30015 -19.900028 -51.690774 C -21.868778 -51.305358 -23.295862 -49.185566 -23.535445 -47.013691 C -23.775029 -44.847024 -23.035445 -42.685566 -21.993778 -40.836607 C -19.212528 -35.909524 -14.379195 -32.753274 -9.373986 -30.831398 C -4.196903 -28.836607 1.433306 -27.961607 6.876015 -28.98244 C 12.318723 -29.998065 17.558307 -33.008482 20.980182 -37.768899 C 22.563515 -39.966816 23.777057 -42.732441 23.349974 -45.472024 C 22.92289 -48.206399 20.282265 -50.565774 17.870807 -49.659524 C 16.902057 -49.294941 16.115598 -48.487649 15.474973 -47.612649 C 13.042682 -44.289732 12.32914 -39.893899 11.844765 -35.685565 C 8.474973 -6.524106 12.282265 23.074854 9.417681 52.298814 " stroke="#231f1f" stroke-width="2" stroke-opacity="1" stroke-miterlimit="4"/><path stroke-linecap="butt" transform="matrix(0.75, 0, 0, 0.75, 719.770506, 157.440758)" fill-opacity="1" fill="#10c49f" fill-rule="nonzero" stroke-linejoin="miter" d="M 31.420577 4.839406 C 31.420577 4.839406 -31.417968 4.839406 -31.417968 4.839406 C -31.417968 4.839406 -31.417968 -4.842887 -31.417968 -4.842887 C -31.417968 -4.842887 31.420577 -4.842887 31.420577 -4.842887 C 31.420577 -4.842887 31.420577 4.839406 31.420577 4.839406 Z M 31.420577 4.839406 " stroke="#231f1f" stroke-width="2" stroke-opacity="1" stroke-miterlimit="10"/><path stroke-linecap="butt" transform="matrix(0.75, 0, 0, 0.75, 719.770506, 171.313516)" fill-opacity="1" fill="#10c49f" fill-rule="nonzero" stroke-linejoin="miter" d="M 31.420577 4.842395 C 31.420577 4.842395 -31.417968 4.842395 -31.417968 4.842395 C -31.417968 4.842395 -31.417968 -4.839897 -31.417968 -4.839897 C -31.417968 -4.839897 31.420577 -4.839897 31.420577 -4.839897 C 31.420577 -4.839897 31.420577 4.842395 31.420577 4.842395 Z M 31.420577 4.842395 " stroke="#231f1f" stroke-width="2" stroke-opacity="1" stroke-miterlimit="10"/><path stroke-linecap="butt" transform="matrix(0.75, 0, 0, 0.75, 719.770506, 164.381277)" fill-opacity="1" fill="#10c49f" fill-rule="nonzero" stroke-linejoin="miter" d="M 33.363285 4.413505 C 33.363285 4.413505 -33.365885 4.413505 -33.365885 4.413505 C -33.365885 4.413505 -33.365885 -4.409412 -33.365885 -4.409412 C -33.365885 -4.409412 33.363285 -4.409412 33.363285 -4.409412 C 33.363285 -4.409412 33.363285 4.413505 33.363285 4.413505 Z M 33.363285 4.413505 " stroke="#231f1f" stroke-width="2" stroke-opacity="1" stroke-miterlimit="10"/><path stroke-linecap="butt" transform="matrix(0.75, 0, 0, 0.75, 719.770506, 178.572769)" fill-opacity="1" fill="#10c49f" fill-rule="nonzero" stroke-linejoin="miter" d="M 27.863285 4.835266 C 27.863285 4.835266 -27.860676 4.835266 -27.860676 4.835266 C -27.860676 4.835266 -27.860676 -4.836609 -27.860676 -4.836609 C -27.860676 -4.836609 27.863285 -4.836609 27.863285 -4.836609 C 27.863285 -4.836609 27.863285 4.835266 27.863285 4.835266 Z M 27.863285 4.835266 " stroke="#231f1f" stroke-width="2" stroke-opacity="1" stroke-miterlimit="10"/><path stroke-linecap="butt" transform="matrix(0.75, 0, 0, 0.75, 543.827979, 468.002276)" fill-opacity="1" fill="#ffffff" fill-rule="nonzero" stroke-linejoin="miter" d="M -48.999808 0.267798 C -39.275849 -12.940536 -26.656056 -24.482203 -12.687306 -35.247829 C -10.791472 -36.706162 -8.557097 -37.753037 -6.176889 -38.018662 C -2.312305 -38.445746 0.32832 -36.810329 1.958528 -33.466579 C 4.338737 -28.565537 2.92207 -22.643661 -1.041472 -18.904078 C -1.041472 -18.904078 -15.088348 -5.643661 -15.088348 -5.643661 C -7.682097 -6.768661 -0.755014 -8.982202 5.823112 -11.976994 C 14.312696 -15.841578 20.880404 -22.99262 24.427279 -31.622829 C 24.463738 -31.71137 24.500196 -31.794704 24.531446 -31.883245 C 27.854363 -39.971787 39.192905 -40.320746 42.994989 -32.450954 C 43.437697 -31.534287 43.849155 -30.581162 44.224155 -29.591578 C 49.000197 -16.961369 45.885614 -2.695744 37.026238 7.496965 C 29.724155 15.892799 20.104363 23.080299 6.948112 28.408424 C 6.948112 28.408424 -33.150848 40.319883 -33.150848 40.319883 C -33.150848 40.319883 -48.999808 0.267798 -48.999808 0.267798 Z M -48.999808 0.267798 " stroke="#231f1f" stroke-width="2" stroke-opacity="1" stroke-miterlimit="10"/><path fill="#d4d4d4" d="M 404.007812 583.953125 C 378.714844 602.292969 348.191406 560.199219 373.488281 541.859375 C 373.488281 541.859375 508.613281 461.726562 508.613281 461.726562 C 508.613281 461.726562 526.339844 498.949219 526.339844 498.949219 C 526.339844 498.949219 404.007812 583.953125 404.007812 583.953125 Z M 404.007812 583.953125 " fill-opacity="1" fill-rule="nonzero"/><path stroke-linecap="butt" transform="matrix(0.75, 0, 0, 0.75, 465.175471, 522.840042)" fill="none" stroke-linejoin="miter" d="M 57.917083 -81.484643 C 57.917083 -81.484643 81.55771 -31.854432 81.55771 -31.854432 C 81.55771 -31.854432 -81.556882 81.484115 -81.556882 81.484115 " stroke="#231f1f" stroke-width="2" stroke-opacity="1" stroke-miterlimit="10"/><path stroke-linecap="round" transform="matrix(0.75, 0, 0, 0.75, 379.958248, 572.264991)" fill="none" stroke-linejoin="round" d="M -16.392248 -35.217907 C -32.069332 1.683137 -0.449539 35.214388 32.066088 15.584179 " stroke="#231f1f" stroke-width="2" stroke-opacity="1" stroke-miterlimit="4"/><path stroke-linecap="round" transform="matrix(0.75, 0, 0, 0.75, 454.714495, 493.690531)" fill="none" stroke-linejoin="round" d="M -71.864122 42.615752 C -71.864122 42.615752 71.865051 -42.618627 71.865051 -42.618627 " stroke="#231f1f" stroke-width="2" stroke-opacity="1" stroke-miterlimit="4"/><path stroke-linecap="round" transform="matrix(0.75, 0, 0, 0.75, 722.93697, 480.827996)" fill-opacity="1" fill="#d4d4d4" fill-rule="nonzero" stroke-linejoin="round" d="M 31.922583 26.817882 C 29.83925 13.01059 25.183 -1.161286 19.328833 -15.505037 C 18.537166 -17.447745 17.386124 -19.255037 15.828833 -20.661287 C 13.323624 -22.921704 10.938207 -23.176912 8.651749 -21.770662 C 5.33404 -19.728995 4.068415 -15.510245 5.235082 -11.791495 C 5.235082 -11.791495 10.672582 5.541839 10.672582 5.541839 C 5.979874 1.005381 1.985082 -4.010245 -1.494085 -9.374828 C -5.97846 -16.296704 -8.004502 -24.426912 -7.431585 -32.010246 C -7.332627 -33.348788 -7.233669 -34.656079 -7.13471 -35.942538 C -6.72846 -41.364413 -12.145127 -45.515455 -17.181586 -43.452955 C -19.207627 -42.62483 -21.129503 -41.390455 -22.947211 -39.760246 C -29.244086 -34.119621 -31.92117 -25.463371 -30.629503 -17.103995 C -28.95242 -6.286286 -24.759711 4.994964 -16.337836 17.057465 C -16.337836 17.057465 7.073624 45.510591 7.073624 45.510591 " stroke="#231f1f" stroke-width="2" stroke-opacity="1" stroke-miterlimit="4"/><path fill="#d4d4d4" d="M 799.820312 572.847656 C 812.847656 588.085938 789.796875 607.792969 776.769531 592.554688 C 776.769531 592.554688 728.242188 514.960938 728.242188 514.960938 C 728.242188 514.960938 746.878906 500.945312 746.878906 500.945312 C 746.878906 500.945312 799.820312 572.847656 799.820312 572.847656 Z M 799.820312 572.847656 " fill-opacity="1" fill-rule="nonzero"/><path stroke-linecap="round" transform="matrix(0.75, 0, 0, 0.75, 765.33148, 526.006458)" fill="none" stroke-linejoin="round" d="M 24.604903 33.418475 C 24.604903 33.418475 -24.603433 -33.42007 -24.603433 -33.42007 " stroke="#231f1f" stroke-width="2" stroke-opacity="1" stroke-miterlimit="4"/><path stroke-linecap="round" transform="matrix(0.75, 0, 0, 0.75, 766.236064, 558.534016)" fill="none" stroke-linejoin="round" d="M 50.659209 36.022356 C 43.888376 53.371315 25.570666 58.095273 14.044624 45.360898 C 14.044624 45.360898 -50.658504 -58.097441 -50.658504 -58.097441 " stroke="#231f1f" stroke-width="2" stroke-opacity="1" stroke-miterlimit="4"/><path stroke-linecap="round" transform="matrix(0.75, 0, 0, 0.75, 1067.408857, 500.674507)" fill-opacity="1" fill="#d4d4d4" fill-rule="nonzero" stroke-linejoin="round" d="M -36.300352 19.793367 C -31.633685 6.631908 -24.378477 -6.399343 -15.909726 -19.368093 C -14.758684 -21.12851 -13.289934 -22.685802 -11.493059 -23.769135 C -8.602434 -25.513927 -6.211809 -25.310802 -4.237851 -23.498302 C -1.368059 -20.862885 -0.920142 -16.477468 -2.774309 -13.055593 C -2.774309 -13.055593 -11.404518 2.933991 -11.404518 2.933991 C -5.930559 -0.628509 -1.060767 -4.795176 3.371525 -9.404551 C 9.090275 -15.34726 12.621525 -22.946219 13.496525 -30.498302 C 13.652775 -31.831636 13.803817 -33.138927 13.954859 -34.414969 C 14.579859 -39.816011 20.689234 -42.862886 25.241318 -39.883719 C 27.074651 -38.685803 28.725693 -37.112886 30.204859 -35.170178 C 35.314235 -28.430594 36.303818 -19.425385 33.444443 -11.467051 C 29.751734 -1.159759 23.491317 9.121491 12.928817 19.366284 C 12.928817 19.366284 -15.451393 42.861076 -15.451393 42.861076 " stroke="#231f1f" stroke-width="2" stroke-opacity="1" stroke-miterlimit="4"/><path fill="#d4d4d4" d="M 974.558594 576.074219 C 958.878906 588.5625 977.769531 612.285156 993.449219 599.796875 C 993.449219 599.796875 1055.820312 532.820312 1055.820312 532.820312 C 1055.820312 532.820312 1040.183594 515.519531 1040.183594 515.519531 C 1040.183594 515.519531 974.558594 576.074219 974.558594 576.074219 Z M 974.558594 576.074219 " fill-opacity="1" fill-rule="nonzero"/><path stroke-linecap="round" transform="matrix(0.75, 0, 0, 0.75, 1017.308163, 536.627993)" fill="none" stroke-linejoin="round" d="M -30.499427 28.141844 C -30.499427 28.141844 30.500576 -28.139409 30.500576 -28.139409 " stroke="#231f1f" stroke-width="2" stroke-opacity="1" stroke-miterlimit="4"/><path stroke-linecap="round" transform="matrix(0.75, 0, 0, 0.75, 1011.820491, 570.178479)" fill="none" stroke-linejoin="round" d="M -58.666908 23.376612 C -55.307533 41.694321 -38.224199 49.808905 -24.495031 39.491196 C -24.495031 39.491196 58.666431 -49.810892 58.666431 -49.810892 " stroke="#231f1f" stroke-width="2" stroke-opacity="1" stroke-miterlimit="4"/><path stroke-linecap="round" transform="matrix(0.75, 0, 0, 0.75, 716.337738, 667.217218)" fill-opacity="1" fill="#d4d4d4" fill-rule="nonzero" stroke-linejoin="round" d="M 513.534083 50.689545 C 513.534083 50.689545 -513.533677 50.689545 -513.533677 50.689545 C -513.533677 50.689545 -415.861797 -50.690669 -415.861797 -50.690669 C -415.861797 -50.690669 440.476788 -50.690669 440.476788 -50.690669 C 440.476788 -50.690669 513.534083 50.689545 513.534083 50.689545 Z M 513.534083 50.689545 " stroke="#231f1f" stroke-width="2" stroke-opacity="1" stroke-miterlimit="4"/><path stroke-linecap="round" transform="matrix(0.75, 0, 0, 0.75, 518.162212, 670.804498)" fill-opacity="1" fill="#ffffff" fill-rule="nonzero" stroke-linejoin="round" d="M -88.851704 33.791921 C -88.851704 33.791921 -32.169409 -35.744541 -32.169409 -35.744541 C -32.169409 -35.744541 88.85143 -35.744541 88.85143 -35.744541 C 88.85143 -35.744541 50.554553 35.745046 50.554553 35.745046 C 50.554553 35.745046 -88.851704 33.791921 -88.851704 33.791921 Z M -88.851704 33.791921 " stroke="#231f1f" stroke-width="2" stroke-opacity="1" stroke-miterlimit="4"/><path stroke-linecap="round" transform="matrix(0.75, 0, 0, 0.75, 327.437978, 625.449013)" fill="none" stroke-linejoin="round" d="M 194.212914 78.854446 C 194.212914 78.854446 292.509794 78.854446 292.509794 78.854446 " stroke="#231f1f" stroke-width="2" stroke-opacity="1" stroke-miterlimit="4"/><path stroke-linecap="round" transform="matrix(0.75, 0, 0, 0.75, 327.437978, 625.449013)" fill="none" stroke-linejoin="round" d="M 208.50979 63.02632 C 208.50979 63.02632 306.811878 63.02632 306.811878 63.02632 " stroke="#231f1f" stroke-width="2" stroke-opacity="1" stroke-miterlimit="4"/><path stroke-linecap="round" transform="matrix(0.75, 0, 0, 0.75, 327.437978, 625.449013)" fill="none" stroke-linejoin="round" d="M 199.275415 70.687779 C 199.275415 70.687779 302.874378 70.687779 302.874378 70.687779 " stroke="#231f1f" stroke-width="2" stroke-opacity="1" stroke-miterlimit="4"/><path stroke-linecap="round" transform="matrix(0.75, 0, 0, 0.75, 529.811236, 657.208523)" fill-opacity="1" fill="#10c49f" fill-rule="nonzero" stroke-linejoin="round" d="M -42.722275 -9.699906 C -42.722275 -9.699906 -57.404567 9.701137 -57.404567 9.701137 C -57.404567 9.701137 44.46523 9.701137 44.46523 9.701137 C 44.46523 9.701137 57.40273 -9.699906 57.40273 -9.699906 C 57.40273 -9.699906 -42.722275 -9.699906 -42.722275 -9.699906 Z M -42.722275 -9.699906 " stroke="#231f1f" stroke-width="2" stroke-opacity="1" stroke-miterlimit="4"/><path stroke-linecap="round" transform="matrix(0.75, 0, 0, 0.75, 490.076958, 664.484987)" fill-opacity="1" fill="#ffffff" fill-rule="nonzero" stroke-linejoin="round" d="M -88.852615 33.796061 C -88.852615 33.796061 -32.17032 -35.745609 -32.17032 -35.745609 C -32.17032 -35.745609 88.850519 -35.745609 88.850519 -35.745609 C 88.850519 -35.745609 50.553642 35.743978 50.553642 35.743978 C 50.553642 35.743978 -88.852615 33.796061 -88.852615 33.796061 Z M -88.852615 33.796061 " stroke="#231f1f" stroke-width="2" stroke-opacity="1" stroke-miterlimit="4"/><path stroke-linecap="round" transform="matrix(0.75, 0, 0, 0.75, 327.437978, 625.449013)" fill="none" stroke-linejoin="round" d="M 156.764996 70.43257 C 156.764996 70.43257 255.067084 70.43257 255.067084 70.43257 " stroke="#231f1f" stroke-width="2" stroke-opacity="1" stroke-miterlimit="4"/><path stroke-linecap="round" transform="matrix(0.75, 0, 0, 0.75, 327.437978, 625.449013)" fill="none" stroke-linejoin="round" d="M 171.06708 54.599236 C 171.06708 54.599236 269.36396 54.599236 269.36396 54.599236 " stroke="#231f1f" stroke-width="2" stroke-opacity="1" stroke-miterlimit="4"/><path stroke-linecap="round" transform="matrix(0.75, 0, 0, 0.75, 327.437978, 625.449013)" fill="none" stroke-linejoin="round" d="M 161.832704 62.260695 C 161.832704 62.260695 265.42646 62.260695 265.42646 62.260695 " stroke="#231f1f" stroke-width="2" stroke-opacity="1" stroke-miterlimit="4"/><path stroke-linecap="round" transform="matrix(0.75, 0, 0, 0.75, 327.437978, 625.449013)" fill="none" stroke-linejoin="round" d="M 175.619164 43.880485 C 175.619164 43.880485 273.916043 43.880485 273.916043 43.880485 " stroke="#231f1f" stroke-width="2" stroke-opacity="1" stroke-miterlimit="4"/><path stroke-linecap="round" transform="matrix(0.75, 0, 0, 0.75, 327.437978, 625.449013)" fill="none" stroke-linejoin="round" d="M 189.916039 28.047151 C 189.916039 28.047151 288.212919 28.047151 288.212919 28.047151 " stroke="#231f1f" stroke-width="2" stroke-opacity="1" stroke-miterlimit="4"/><path stroke-linecap="round" transform="matrix(0.75, 0, 0, 0.75, 327.437978, 625.449013)" fill="none" stroke-linejoin="round" d="M 180.681664 35.70861 C 180.681664 35.70861 284.275419 35.70861 284.275419 35.70861 " stroke="#231f1f" stroke-width="2" stroke-opacity="1" stroke-miterlimit="4"/><path stroke-linecap="round" transform="matrix(0.75, 0, 0, 0.75, 812.896477, 667.644706)" fill-opacity="1" fill="#ffffff" fill-rule="nonzero" stroke-linejoin="round" d="M -252.252607 -31.531485 C -252.252607 -31.531485 245.106793 -31.531485 245.106793 -31.531485 C 245.106793 -31.531485 282.893253 31.531018 282.893253 31.531018 C 282.893253 31.531018 -282.893234 31.531018 -282.893234 31.531018 C -282.893234 31.531018 -252.252607 -31.531485 -252.252607 -31.531485 Z M -252.252607 -31.531485 " stroke="#231f1f" stroke-width="2" stroke-opacity="1" stroke-miterlimit="4"/><path fill="#ffffff" d="M 629.449219 649.929688 C 629.449219 649.929688 612.980469 684.589844 612.980469 684.589844 C 612.980469 684.589844 754.683594 684.589844 754.683594 684.589844 C 754.683594 684.589844 759.664062 649.929688 759.664062 649.929688 C 759.664062 649.929688 629.449219 649.929688 629.449219 649.929688 Z M 629.449219 649.929688 " fill-opacity="1" fill-rule="nonzero"/><path stroke-linecap="round" transform="matrix(0.75, 0, 0, 0.75, 630.73351, 651.963731)" fill="none" stroke-linejoin="round" d="M 4.287611 -2.712058 C 4.287611 -2.712058 -1.712389 -2.712058 -1.712389 -2.712058 C -1.712389 -2.712058 -4.290514 2.709817 -4.290514 2.709817 " stroke="#231f1f" stroke-width="2" stroke-opacity="1" stroke-miterlimit="4"/><path fill="#231f1f" d="M 623.992188 663.160156 L 620.84375 669.792969 L 619.71875 672.160156 C 619.628906 672.347656 619.488281 672.472656 619.292969 672.542969 C 619.097656 672.613281 618.90625 672.601562 618.71875 672.515625 C 618.53125 672.425781 618.40625 672.285156 618.335938 672.089844 C 618.265625 671.894531 618.277344 671.703125 618.363281 671.515625 L 619.488281 669.152344 L 622.640625 662.519531 C 622.726562 662.332031 622.871094 662.203125 623.066406 662.132812 C 623.261719 662.0625 623.453125 662.074219 623.636719 662.160156 C 623.824219 662.25 623.953125 662.394531 624.023438 662.589844 C 624.09375 662.78125 624.082031 662.972656 623.992188 663.160156 Z M 623.992188 663.160156 " fill-opacity="1" fill-rule="nonzero"/><path stroke-linecap="round" transform="matrix(0.75, 0, 0, 0.75, 615.231647, 682.559218)" fill="none" stroke-linejoin="round" d="M -0.423446 -2.709165 C -0.423446 -2.709165 -3.001572 2.707502 -3.001572 2.707502 C -3.001572 2.707502 2.998429 2.707502 2.998429 2.707502 " stroke="#231f1f" stroke-width="2" stroke-opacity="1" stroke-miterlimit="4"/><path fill="#231f1f" d="M 626.328125 683.839844 L 634.953125 683.839844 C 635.160156 683.839844 635.335938 683.914062 635.484375 684.0625 C 635.628906 684.207031 635.703125 684.382812 635.703125 684.589844 C 635.703125 684.796875 635.628906 684.976562 635.484375 685.121094 C 635.335938 685.269531 635.160156 685.339844 634.953125 685.339844 L 626.328125 685.339844 C 626.121094 685.339844 625.945312 685.269531 625.796875 685.121094 C 625.652344 684.976562 625.578125 684.796875 625.578125 684.589844 C 625.578125 684.382812 625.652344 684.207031 625.796875 684.0625 C 625.945312 683.914062 626.121094 683.839844 626.328125 683.839844 Z M 643.9375 683.839844 L 652.804688 683.839844 C 653.011719 683.839844 653.1875 683.914062 653.332031 684.0625 C 653.480469 684.207031 653.554688 684.382812 653.554688 684.589844 C 653.554688 684.796875 653.480469 684.976562 653.332031 685.121094 C 653.1875 685.269531 653.011719 685.339844 652.804688 685.339844 L 643.9375 685.339844 C 643.730469 685.339844 643.554688 685.269531 643.40625 685.121094 C 643.261719 684.976562 643.1875 684.796875 643.1875 684.589844 C 643.1875 684.382812 643.261719 684.207031 643.40625 684.0625 C 643.554688 683.914062 643.730469 683.839844 643.9375 683.839844 Z M 661.640625 683.839844 L 670.398438 683.839844 C 670.605469 683.839844 670.78125 683.914062 670.929688 684.0625 C 671.074219 684.207031 671.148438 684.382812 671.148438 684.589844 C 671.148438 684.796875 671.074219 684.976562 670.929688 685.121094 C 670.78125 685.269531 670.605469 685.339844 670.398438 685.339844 L 661.640625 685.339844 C 661.433594 685.339844 661.253906 685.269531 661.109375 685.121094 C 660.960938 684.976562 660.890625 684.796875 660.890625 684.589844 C 660.890625 684.382812 660.960938 684.207031 661.109375 684.0625 C 661.253906 683.914062 661.433594 683.839844 661.640625 683.839844 Z M 679.28125 683.839844 L 688.304688 683.839844 C 688.511719 683.839844 688.6875 683.914062 688.832031 684.0625 C 688.980469 684.207031 689.054688 684.382812 689.054688 684.589844 C 689.054688 684.796875 688.980469 684.976562 688.832031 685.121094 C 688.6875 685.269531 688.511719 685.339844 688.304688 685.339844 L 679.28125 685.339844 C 679.074219 685.339844 678.898438 685.269531 678.75 685.121094 C 678.605469 684.976562 678.53125 684.796875 678.53125 684.589844 C 678.53125 684.382812 678.605469 684.207031 678.75 684.0625 C 678.898438 683.914062 679.074219 683.839844 679.28125 683.839844 Z M 697.28125 683.839844 L 706.023438 683.839844 C 706.234375 683.839844 706.410156 683.914062 706.554688 684.0625 C 706.703125 684.207031 706.773438 684.382812 706.773438 684.589844 C 706.773438 684.796875 706.703125 684.976562 706.554688 685.121094 C 706.410156 685.269531 706.234375 685.339844 706.023438 685.339844 L 697.28125 685.339844 C 697.070312 685.339844 696.894531 685.269531 696.75 685.121094 C 696.601562 684.976562 696.53125 684.796875 696.53125 684.589844 C 696.53125 684.382812 696.601562 684.207031 696.75 684.0625 C 696.894531 683.914062 697.070312 683.839844 697.28125 683.839844 Z M 714.894531 683.839844 L 723.792969 683.839844 C 724 683.839844 724.175781 683.914062 724.320312 684.0625 C 724.46875 684.207031 724.542969 684.382812 724.542969 684.589844 C 724.542969 684.796875 724.46875 684.976562 724.320312 685.121094 C 724.175781 685.269531 724 685.339844 723.792969 685.339844 L 714.894531 685.339844 C 714.6875 685.339844 714.511719 685.269531 714.367188 685.121094 C 714.21875 684.976562 714.144531 684.796875 714.144531 684.589844 C 714.144531 684.382812 714.21875 684.207031 714.367188 684.0625 C 714.511719 683.914062 714.6875 683.839844 714.894531 683.839844 Z M 732.65625 683.839844 L 741.398438 683.839844 C 741.605469 683.839844 741.78125 683.914062 741.929688 684.0625 C 742.074219 684.207031 742.148438 684.382812 742.148438 684.589844 C 742.148438 684.796875 742.074219 684.976562 741.929688 685.121094 C 741.78125 685.269531 741.605469 685.339844 741.398438 685.339844 L 732.65625 685.339844 C 732.449219 685.339844 732.273438 685.269531 732.128906 685.121094 C 731.980469 684.976562 731.90625 684.796875 731.90625 684.589844 C 731.90625 684.382812 731.980469 684.207031 732.128906 684.0625 C 732.273438 683.914062 732.449219 683.839844 732.65625 683.839844 Z M 732.65625 683.839844 " fill-opacity="1" fill-rule="nonzero"/><path stroke-linecap="round" transform="matrix(0.75, 0, 0, 0.75, 752.753176, 682.36429)" fill="none" stroke-linejoin="round" d="M -3.42611 2.967406 C -3.42611 2.967406 2.57389 2.967406 2.57389 2.967406 C 2.57389 2.967406 3.428057 -2.970095 3.428057 -2.970095 " stroke="#231f1f" stroke-width="2" stroke-opacity="1" stroke-miterlimit="4"/><path fill="#231f1f" d="M 755.8125 671.445312 L 756.738281 665.007812 L 757.070312 662.714844 C 757.097656 662.507812 757.195312 662.34375 757.363281 662.21875 C 757.527344 662.097656 757.710938 662.046875 757.917969 662.078125 C 758.121094 662.109375 758.289062 662.207031 758.410156 662.371094 C 758.535156 662.535156 758.582031 662.722656 758.554688 662.925781 L 758.222656 665.222656 L 757.300781 671.660156 C 757.269531 671.863281 757.171875 672.027344 757.007812 672.152344 C 756.839844 672.277344 756.65625 672.324219 756.449219 672.296875 C 756.246094 672.265625 756.082031 672.167969 755.957031 672.003906 C 755.832031 671.835938 755.785156 671.652344 755.8125 671.445312 Z M 755.8125 671.445312 " fill-opacity="1" fill-rule="nonzero"/><path stroke-linecap="round" transform="matrix(0.75, 0, 0, 0.75, 757.4122, 652.158731)" fill="none" stroke-linejoin="round" d="M 2.148317 2.97065 C 2.148317 2.97065 3.002483 -2.96685 3.002483 -2.96685 C 3.002483 -2.96685 -2.997517 -2.96685 -2.997517 -2.96685 " stroke="#231f1f" stroke-width="2" stroke-opacity="1" stroke-miterlimit="4"/><path fill="#231f1f" d="M 745.839844 650.683594 L 736.59375 650.683594 C 736.386719 650.683594 736.210938 650.609375 736.066406 650.460938 C 735.917969 650.316406 735.84375 650.140625 735.84375 649.933594 C 735.84375 649.726562 735.917969 649.546875 736.066406 649.402344 C 736.210938 649.253906 736.386719 649.183594 736.59375 649.183594 L 745.839844 649.183594 C 746.046875 649.183594 746.222656 649.253906 746.367188 649.402344 C 746.515625 649.546875 746.589844 649.726562 746.589844 649.933594 C 746.589844 650.140625 746.515625 650.316406 746.367188 650.460938 C 746.222656 650.609375 746.046875 650.683594 745.839844 650.683594 Z M 727.292969 650.683594 L 717.957031 650.683594 C 717.75 650.683594 717.574219 650.609375 717.425781 650.460938 C 717.28125 650.316406 717.207031 650.140625 717.207031 649.933594 C 717.207031 649.726562 717.28125 649.546875 717.425781 649.402344 C 717.574219 649.253906 717.75 649.183594 717.957031 649.183594 L 727.292969 649.183594 C 727.5 649.183594 727.675781 649.253906 727.820312 649.402344 C 727.96875 649.546875 728.042969 649.726562 728.042969 649.933594 C 728.042969 650.140625 727.96875 650.316406 727.820312 650.460938 C 727.675781 650.609375 727.5 650.683594 727.292969 650.683594 Z M 708.652344 650.683594 L 699.347656 650.683594 C 699.140625 650.683594 698.964844 650.609375 698.816406 650.460938 C 698.671875 650.316406 698.597656 650.140625 698.597656 649.933594 C 698.597656 649.726562 698.671875 649.546875 698.816406 649.402344 C 698.964844 649.253906 699.140625 649.183594 699.347656 649.183594 L 708.652344 649.183594 C 708.859375 649.183594 709.035156 649.253906 709.179688 649.402344 C 709.328125 649.546875 709.402344 649.726562 709.402344 649.933594 C 709.402344 650.140625 709.328125 650.316406 709.179688 650.460938 C 709.035156 650.609375 708.859375 650.683594 708.652344 650.683594 Z M 689.84375 650.683594 L 680.410156 650.683594 C 680.203125 650.683594 680.023438 650.609375 679.878906 650.460938 C 679.730469 650.316406 679.660156 650.140625 679.660156 649.933594 C 679.660156 649.726562 679.730469 649.546875 679.878906 649.402344 C 680.023438 649.253906 680.203125 649.183594 680.410156 649.183594 L 689.84375 649.183594 C 690.050781 649.183594 690.230469 649.253906 690.375 649.402344 C 690.523438 649.546875 690.59375 649.726562 690.59375 649.933594 C 690.59375 650.140625 690.523438 650.316406 690.375 650.460938 C 690.230469 650.609375 690.050781 650.683594 689.84375 650.683594 Z M 671.199219 650.683594 L 661.839844 650.683594 C 661.632812 650.683594 661.457031 650.609375 661.308594 650.460938 C 661.164062 650.316406 661.089844 650.140625 661.089844 649.933594 C 661.089844 649.726562 661.164062 649.546875 661.308594 649.402344 C 661.457031 649.253906 661.632812 649.183594 661.839844 649.183594 L 671.199219 649.183594 C 671.40625 649.183594 671.585938 649.253906 671.730469 649.402344 C 671.878906 649.546875 671.949219 649.726562 671.949219 649.933594 C 671.949219 650.140625 671.878906 650.316406 671.730469 650.460938 C 671.585938 650.609375 671.40625 650.683594 671.199219 650.683594 Z M 652.429688 650.683594 L 643.265625 650.683594 C 643.058594 650.683594 642.882812 650.609375 642.734375 650.460938 C 642.589844 650.316406 642.515625 650.140625 642.515625 649.933594 C 642.515625 649.726562 642.589844 649.546875 642.734375 649.402344 C 642.882812 649.253906 643.058594 649.183594 643.265625 649.183594 L 652.429688 649.183594 C 652.636719 649.183594 652.8125 649.253906 652.960938 649.402344 C 653.105469 649.546875 653.179688 649.726562 653.179688 649.933594 C 653.179688 650.140625 653.105469 650.316406 652.960938 650.460938 C 652.8125 650.609375 652.636719 650.683594 652.429688 650.683594 Z M 652.429688 650.683594 " fill-opacity="1" fill-rule="nonzero"/><path stroke-linecap="round" transform="matrix(0.75, 0, 0, 0.75, 327.437978, 625.449013)" fill="none" stroke-linejoin="round" d="M 591.108768 42.344027 C 591.108768 42.344027 693.233773 42.344027 693.233773 42.344027 " stroke="#231f1f" stroke-width="2" stroke-opacity="1" stroke-miterlimit="4"/><path stroke-linecap="butt" transform="matrix(0.75, 0, 0, 0.75, 327.437978, 625.449013)" fill="none" stroke-linejoin="miter" d="M 591.108768 53.833611 C 591.108768 53.833611 693.233773 53.833611 693.233773 53.833611 " stroke="#231f1f" stroke-width="2" stroke-opacity="1" stroke-miterlimit="10"/><path stroke-linecap="butt" transform="matrix(0.75, 0, 0, 0.75, 327.437978, 625.449013)" fill="none" stroke-linejoin="miter" d="M 588.046268 68.474237 C 588.046268 68.474237 697.660856 68.474237 697.660856 68.474237 " stroke="#231f1f" stroke-width="2" stroke-opacity="1" stroke-miterlimit="10"/><path stroke-linecap="round" transform="matrix(0.75, 0, 0, 0.75, 683.83274, 667.739986)" fill-opacity="1" fill="#ffffff" fill-rule="nonzero" stroke-linejoin="round" d="M -66.21449 -14.043941 C -66.21449 -14.043941 -77.787407 14.044602 -77.787407 14.044602 C -77.787407 14.044602 -18.573862 14.044602 -18.573862 14.044602 C -18.573862 14.044602 -15.146779 -2.554357 -15.146779 -2.554357 C -15.146779 -2.554357 75.743851 -2.554357 75.743851 -2.554357 C 75.743851 -2.554357 77.785517 -14.043941 77.785517 -14.043941 " stroke="#231f1f" stroke-width="2" stroke-opacity="1" stroke-miterlimit="4"/><path stroke-linecap="butt" transform="matrix(0.75, 0, 0, 0.75, 716.338458, 717.509216)" fill-opacity="1" fill="#d4d4d4" fill-rule="nonzero" stroke-linejoin="round" d="M 513.533123 16.362713 C 513.533123 16.362713 -513.534637 16.362713 -513.534637 16.362713 C -513.534637 16.362713 -513.534637 -16.366455 -513.534637 -16.366455 C -513.534637 -16.366455 513.533123 -16.366455 513.533123 -16.366455 C 513.533123 -16.366455 513.533123 16.362713 513.533123 16.362713 Z M 513.533123 16.362713 " stroke="#231f1f" stroke-width="2" stroke-opacity="1" stroke-miterlimit="4"/><path stroke-linecap="round" transform="matrix(0.75, 0, 0, 0.75, 941.936215, 659.506451)" fill-opacity="1" fill="#ffffff" fill-rule="nonzero" stroke-linejoin="round" d="M 88.850676 33.793484 C 88.850676 33.793484 32.168382 -35.742978 32.168382 -35.742978 C 32.168382 -35.742978 -88.852458 -35.742978 -88.852458 -35.742978 C -88.852458 -35.742978 -50.555581 35.746609 -50.555581 35.746609 C -50.555581 35.746609 88.850676 33.793484 88.850676 33.793484 Z M 88.850676 33.793484 " stroke="#231f1f" stroke-width="2" stroke-opacity="1" stroke-miterlimit="4"/><path stroke-linecap="round" transform="matrix(0.75, 0, 0, 0.75, 327.437978, 625.449013)" fill="none" stroke-linejoin="round" d="M 879.416074 63.791945 C 879.416074 63.791945 781.119194 63.791945 781.119194 63.791945 " stroke="#231f1f" stroke-width="2" stroke-opacity="1" stroke-miterlimit="4"/><path stroke-linecap="round" transform="matrix(0.75, 0, 0, 0.75, 327.437978, 625.449013)" fill="none" stroke-linejoin="round" d="M 865.119198 47.963819 C 865.119198 47.963819 766.822318 47.963819 766.822318 47.963819 " stroke="#231f1f" stroke-width="2" stroke-opacity="1" stroke-miterlimit="4"/><path stroke-linecap="round" transform="matrix(0.75, 0, 0, 0.75, 327.437978, 625.449013)" fill="none" stroke-linejoin="round" d="M 874.353574 55.620069 C 874.353574 55.620069 770.75461 55.620069 770.75461 55.620069 " stroke="#231f1f" stroke-width="2" stroke-opacity="1" stroke-miterlimit="4"/><path stroke-linecap="round" transform="matrix(0.75, 0, 0, 0.75, 930.287239, 645.910476)" fill-opacity="1" fill="#10c49f" fill-rule="nonzero" stroke-linejoin="round" d="M 42.726391 -9.703551 C 42.726391 -9.703551 57.403475 9.7027 57.403475 9.7027 C 57.403475 9.7027 -44.466321 9.7027 -44.466321 9.7027 C -44.466321 9.7027 -57.403822 -9.703551 -57.403822 -9.703551 C -57.403822 -9.703551 42.726391 -9.703551 42.726391 -9.703551 Z M 42.726391 -9.703551 " stroke="#231f1f" stroke-width="2" stroke-opacity="1" stroke-miterlimit="4"/><path stroke-linecap="round" transform="matrix(0.75, 0, 0, 0.75, 1008.574419, 667.644706)" fill-opacity="1" fill="#ffffff" fill-rule="nonzero" stroke-linejoin="round" d="M 88.848695 33.791435 C 88.848695 33.791435 32.171609 -35.745027 32.171609 -35.745027 C 32.171609 -35.745027 -88.84923 -35.745027 -88.84923 -35.745027 C -88.84923 -35.745027 -50.552354 35.74456 -50.552354 35.74456 C -50.552354 35.74456 88.848695 33.791435 88.848695 33.791435 Z M 88.848695 33.791435 " stroke="#231f1f" stroke-width="2" stroke-opacity="1" stroke-miterlimit="4"/><path stroke-linecap="round" transform="matrix(0.75, 0, 0, 0.75, 327.437978, 625.449013)" fill="none" stroke-linejoin="round" d="M 968.265037 74.646112 C 968.265037 74.646112 869.968157 74.646112 869.968157 74.646112 " stroke="#231f1f" stroke-width="2" stroke-opacity="1" stroke-miterlimit="4"/><path stroke-linecap="round" transform="matrix(0.75, 0, 0, 0.75, 327.437978, 625.449013)" fill="none" stroke-linejoin="round" d="M 953.968161 58.812778 C 953.968161 58.812778 855.671281 58.812778 855.671281 58.812778 " stroke="#231f1f" stroke-width="2" stroke-opacity="1" stroke-miterlimit="4"/><path stroke-linecap="round" transform="matrix(0.75, 0, 0, 0.75, 327.437978, 625.449013)" fill="none" stroke-linejoin="round" d="M 963.202536 66.474237 C 963.202536 66.474237 859.608781 66.474237 859.608781 66.474237 " stroke="#231f1f" stroke-width="2" stroke-opacity="1" stroke-miterlimit="4"/><path stroke-linecap="round" transform="matrix(0.75, 0, 0, 0.75, 327.437978, 625.449013)" fill="none" stroke-linejoin="round" d="M 949.416077 48.088819 C 949.416077 48.088819 851.119197 48.088819 851.119197 48.088819 " stroke="#231f1f" stroke-width="2" stroke-opacity="1" stroke-miterlimit="4"/><path stroke-linecap="round" transform="matrix(0.75, 0, 0, 0.75, 327.437978, 625.449013)" fill="none" stroke-linejoin="round" d="M 935.119202 32.260693 C 935.119202 32.260693 836.822322 32.260693 836.822322 32.260693 " stroke="#231f1f" stroke-width="2" stroke-opacity="1" stroke-miterlimit="4"/><path stroke-linecap="round" transform="matrix(0.75, 0, 0, 0.75, 327.437978, 625.449013)" fill="none" stroke-linejoin="round" d="M 944.353577 39.922152 C 944.353577 39.922152 840.754614 39.922152 840.754614 39.922152 " stroke="#231f1f" stroke-width="2" stroke-opacity="1" stroke-miterlimit="4"/></svg>