<svg xmlns="http://www.w3.org/2000/svg" xmlns:xlink="http://www.w3.org/1999/xlink" width="1920" zoomAndPan="magnify" viewBox="0 0 1440 809.999993" height="1080" preserveAspectRatio="xMidYMid meet" version="1.0"><path fill="#ccf3e5" d="M 442.34375 659.035156 C 409.09375 627.5 395.933594 581.207031 401.648438 532.214844 C 404.769531 505.46875 404.445312 478.460938 401.675781 451.679688 C 395.710938 394.050781 419.152344 327.179688 469.671875 273.90625 C 530.945312 209.296875 614.289062 183.394531 679.257812 202.507812 C 709.253906 211.328125 741.351562 210.398438 770.5 199.09375 C 835.453125 173.90625 904.863281 181.390625 950.988281 225.132812 C 1019.957031 290.53125 1010.746094 412.230469 930.40625 496.953125 C 885.863281 543.921875 828.8125 569.660156 775.058594 572.128906 C 753.910156 573.101562 734.3125 583.382812 721.140625 599.960938 C 716.21875 606.15625 710.960938 612.214844 705.371094 618.109375 C 625.308594 702.539062 507.546875 720.863281 442.34375 659.035156 Z M 442.34375 659.035156 " fill-opacity="1" fill-rule="nonzero"/><path stroke-linecap="round" transform="matrix(0.75, 0, 0, 0.75, 380.867975, 62.970763)" fill="none" stroke-linejoin="round" d="M 440.426055 748.018187 C 440.426055 748.018187 440.426055 549.00776 440.426055 549.00776 " stroke="#231f1f" stroke-width="2" stroke-opacity="1" stroke-miterlimit="4"/><path stroke-linecap="round" transform="matrix(0.75, 0, 0, 0.75, 568.622978, 518.477226)" fill-opacity="1" fill="#ffffff" fill-rule="nonzero" stroke-linejoin="round" d="M -68.809807 68.806411 C -68.809807 68.806411 68.809992 -68.80818 68.809992 -68.80818 " stroke="#231f1f" stroke-width="2" stroke-opacity="1" stroke-miterlimit="4"/><path stroke-linecap="round" transform="matrix(0.75, 0, 0, 0.75, 380.867975, 62.970763)" fill="none" stroke-linejoin="round" d="M 81.957287 413.51817 C 81.957287 413.51817 281.108339 413.51817 281.108339 413.51817 " stroke="#231f1f" stroke-width="2" stroke-opacity="1" stroke-miterlimit="4"/><path stroke-linecap="round" transform="matrix(0.75, 0, 0, 0.75, 572.357209, 257.764519)" fill-opacity="1" fill="#02c37e" fill-rule="nonzero" stroke-linejoin="round" d="M -55.403365 -55.404778 C -55.403365 -55.404778 55.403932 55.402519 55.403932 55.402519 " stroke="#231f1f" stroke-width="2" stroke-opacity="1" stroke-miterlimit="4"/><path stroke-linecap="round" transform="matrix(0.75, 0, 0, 0.75, 380.867975, 62.970763)" fill="none" stroke-linejoin="round" d="M 440.426055 140.492114 C 440.426055 140.492114 440.426055 268.153579 440.426055 268.153579 " stroke="#231f1f" stroke-width="2" stroke-opacity="1" stroke-miterlimit="4"/><path stroke-linecap="round" transform="matrix(0.75, 0, 0, 0.75, 711.187482, 122.253009)" fill-opacity="1" fill="#ffffff" fill-rule="nonzero" stroke-linejoin="round" d="M 74.041694 0.00119627 C 74.041694 40.891823 40.89065 74.042867 0.0000234089 74.042867 C -40.890604 74.042867 -74.041647 40.891823 -74.041647 0.00119627 C -74.041647 -40.894639 -40.890604 -74.040474 0.0000234089 -74.040474 C 40.89065 -74.040474 74.041694 -40.894639 74.041694 0.00119627 Z M 74.041694 0.00119627 " stroke="#231f1f" stroke-width="2" stroke-opacity="1" stroke-miterlimit="4"/><path stroke-linecap="round" transform="matrix(0.75, 0, 0, 0.75, 711.187482, 385.174541)" fill-opacity="1" fill="#ffffff" fill-rule="nonzero" stroke-linejoin="round" d="M 181.786491 0.0016531 C 181.786491 100.397491 100.395862 181.788121 0.0000234089 181.788121 C -100.401023 181.788121 -181.786444 100.397491 -181.786444 0.0016531 C -181.786444 -100.399394 -100.401023 -181.784814 0.0000234089 -181.784814 C 100.395862 -181.784814 181.786491 -100.399394 181.786491 0.0016531 Z M 181.786491 0.0016531 " stroke="#231f1f" stroke-width="2" stroke-opacity="1" stroke-miterlimit="4"/><path stroke-linecap="round" transform="matrix(0.75, 0, 0, 0.75, 440.150264, 373.110733)" fill-opacity="1" fill="#ffffff" fill-rule="nonzero" stroke-linejoin="round" d="M 74.044443 -0.00181097 C 74.044443 40.894024 40.8934 74.045068 -0.00243544 74.045068 C -40.893062 74.045068 -74.044106 40.894024 -74.044106 -0.00181097 C -74.044106 -40.892438 -40.893062 -74.043481 -0.00243544 -74.043481 C 40.8934 -74.043481 74.044443 -40.892438 74.044443 -0.00181097 Z M 74.044443 -0.00181097 " stroke="#231f1f" stroke-width="2" stroke-opacity="1" stroke-miterlimit="4"/><path stroke-linecap="round" transform="matrix(0.75, 0, 0, 0.75, 514.755748, 195.557252)" fill-opacity="1" fill="#ffffff" fill-rule="nonzero" stroke-linejoin="round" d="M 57.242338 0.00178932 C 57.242338 31.611166 31.612129 57.241376 -0.0024561 57.241376 C -31.611833 57.241376 -57.242042 31.611166 -57.242042 0.00178932 C -57.242042 -31.612796 -31.611833 -57.237797 -0.0024561 -57.237797 C 31.612129 -57.237797 57.242338 -31.612796 57.242338 0.00178932 Z M 57.242338 0.00178932 " stroke="#231f1f" stroke-width="2" stroke-opacity="1" stroke-miterlimit="4"/><path stroke-linecap="round" transform="matrix(0.75, 0, 0, 0.75, 517.01698, 570.083247)" fill-opacity="1" fill="#ffffff" fill-rule="nonzero" stroke-linejoin="round" d="M 57.237779 -0.00162143 C 57.237779 31.612963 31.612778 57.237965 -0.00180695 57.237965 C -31.611184 57.237965 -57.241393 31.612963 -57.241393 -0.00162143 C -57.241393 -31.610998 -31.611184 -57.241208 -0.00180695 -57.241208 C 31.612778 -57.241208 57.237779 -31.610998 57.237779 -0.00162143 Z M 57.237779 -0.00162143 " stroke="#231f1f" stroke-width="2" stroke-opacity="1" stroke-miterlimit="4"/><path stroke-linecap="round" transform="matrix(0.75, 0, 0, 0.75, 711.187482, 623.985757)" fill-opacity="1" fill="#ffffff" fill-rule="nonzero" stroke-linejoin="round" d="M 74.041694 -0.00184214 C 74.041694 40.893993 40.89065 74.045037 0.0000234089 74.045037 C -40.890604 74.045037 -74.041647 40.893993 -74.041647 -0.00184214 C -74.041647 -40.892469 -40.890604 -74.043513 0.0000234089 -74.043513 C 40.89065 -74.043513 74.041694 -40.892469 74.041694 -0.00184214 Z M 74.041694 -0.00184214 " stroke="#231f1f" stroke-width="2" stroke-opacity="1" stroke-miterlimit="4"/><path stroke-linecap="round" transform="matrix(0.75, 0, 0, 0.75, 709.447483, 123.756767)" fill-opacity="1" fill="#231f1f" fill-rule="nonzero" stroke-linejoin="round" d="M 51.559609 38.26702 C 51.559609 38.26702 -51.560188 38.26702 -51.560188 38.26702 C -51.560188 38.26702 -51.560188 -38.269442 -51.560188 -38.269442 C -51.560188 -38.269442 51.559609 -38.269442 51.559609 -38.269442 C 51.559609 -38.269442 51.559609 38.26702 51.559609 38.26702 Z M 51.559609 38.26702 " stroke="#231f1f" stroke-width="2" stroke-opacity="1" stroke-miterlimit="4"/><path stroke-linecap="round" transform="matrix(0.75, 0, 0, 0.75, 712.925946, 120.887628)" fill-opacity="1" fill="#ffffff" fill-rule="nonzero" stroke-linejoin="round" d="M 51.557074 38.264415 C 51.557074 38.264415 -51.557514 38.264415 -51.557514 38.264415 C -51.557514 38.264415 -51.557514 -38.266839 -51.557514 -38.266839 C -51.557514 -38.266839 51.557074 -38.266839 51.557074 -38.266839 C 51.557074 -38.266839 51.557074 38.264415 51.557074 38.264415 Z M 51.557074 38.264415 " stroke="#231f1f" stroke-width="2" stroke-opacity="1" stroke-miterlimit="4"/><path stroke-linecap="round" transform="matrix(0.75, 0, 0, 0.75, 712.926714, 106.536372)" fill-opacity="1" fill="#02c37e" fill-rule="nonzero" stroke-linejoin="round" d="M -51.558538 -19.131831 C -51.558538 -19.131831 -0.00124414 19.133796 -0.00124414 19.133796 C -0.00124414 19.133796 51.55605 -19.131831 51.55605 -19.131831 C 51.55605 -19.131831 -51.558538 -19.131831 -51.558538 -19.131831 Z M -51.558538 -19.131831 " stroke="#231f1f" stroke-width="2" stroke-opacity="1" stroke-miterlimit="4"/><path stroke-linecap="round" transform="matrix(0.75, 0, 0, 0.75, 414.688521, 373.110001)" fill-opacity="1" fill="#02c37e" fill-rule="nonzero" stroke-linejoin="round" d="M 12.884056 41.285625 C 12.884056 41.285625 -12.881571 41.285625 -12.881571 41.285625 C -12.881571 41.285625 -12.881571 -41.287295 -12.881571 -41.287295 C -12.881571 -41.287295 12.884056 -41.287295 12.884056 -41.287295 C 12.884056 -41.287295 12.884056 41.285625 12.884056 41.285625 Z M 12.884056 41.285625 " stroke="#231f1f" stroke-width="2" stroke-opacity="1" stroke-miterlimit="4"/><path stroke-linecap="round" transform="matrix(0.75, 0, 0, 0.75, 440.149496, 379.798506)" fill-opacity="1" fill="#777777" fill-rule="nonzero" stroke-linejoin="round" d="M 12.884006 32.367619 C 12.884006 32.367619 -12.88162 32.367619 -12.88162 32.367619 C -12.88162 32.367619 -12.88162 -32.371968 -12.88162 -32.371968 C -12.88162 -32.371968 12.884006 -32.371968 12.884006 -32.371968 C 12.884006 -32.371968 12.884006 32.367619 12.884006 32.367619 Z M 12.884006 32.367619 " stroke="#231f1f" stroke-width="2" stroke-opacity="1" stroke-miterlimit="4"/><path stroke-linecap="round" transform="matrix(0.75, 0, 0, 0.75, 465.610495, 388.593017)" fill-opacity="1" fill="#02c37e" fill-rule="nonzero" stroke-linejoin="round" d="M 12.883924 20.641603 C 12.883924 20.641603 -12.881702 20.641603 -12.881702 20.641603 C -12.881702 20.641603 -12.881702 -20.644857 -12.881702 -20.644857 C -12.881702 -20.644857 12.883924 -20.644857 12.883924 -20.644857 C 12.883924 -20.644857 12.883924 20.641603 12.883924 20.641603 Z M 12.883924 20.641603 " stroke="#231f1f" stroke-width="2" stroke-opacity="1" stroke-miterlimit="4"/><path stroke-linecap="round" transform="matrix(0.75, 0, 0, 0.75, 514.755748, 194.595757)" fill-opacity="1" fill="#777777" fill-rule="nonzero" stroke-linejoin="round" d="M 46.117338 10.966075 C 46.117338 10.966075 46.117338 -10.966218 46.117338 -10.966218 C 46.117338 -10.966218 34.471504 -10.966218 34.471504 -10.966218 C 33.851712 -12.929759 33.065254 -14.820385 32.127754 -16.622468 C 32.127754 -16.622468 40.367338 -24.856843 40.367338 -24.856843 C 40.367338 -24.856843 24.85692 -40.362053 24.85692 -40.362053 C 24.85692 -40.362053 16.622545 -32.127677 16.622545 -32.127677 C 14.820461 -33.065177 12.929836 -33.851636 10.966294 -34.476636 C 10.966294 -34.476636 10.966294 -46.117261 10.966294 -46.117261 C 10.966294 -46.117261 -10.965998 -46.117261 -10.965998 -46.117261 C -10.965998 -46.117261 -10.965998 -34.476636 -10.965998 -34.476636 C -12.92954 -33.851636 -14.820165 -33.065177 -16.622249 -32.127677 C -16.622249 -32.127677 -24.856624 -40.362053 -24.856624 -40.362053 C -24.856624 -40.362053 -40.367041 -24.856843 -40.367041 -24.856843 C -40.367041 -24.856843 -32.127458 -16.622468 -32.127458 -16.622468 C -33.064958 -14.820385 -33.851416 -12.929759 -34.476416 -10.966218 C -34.476416 -10.966218 -46.117042 -10.966218 -46.117042 -10.966218 C -46.117042 -10.966218 -46.117042 10.966075 -46.117042 10.966075 C -46.117042 10.966075 -34.476416 10.966075 -34.476416 10.966075 C -33.851416 12.929617 -33.070166 14.820242 -32.127458 16.622325 C -32.127458 16.622325 -40.367041 24.856701 -40.367041 24.856701 C -40.367041 24.856701 -24.856624 40.36191 -24.856624 40.36191 C -24.856624 40.36191 -16.622249 32.127534 -16.622249 32.127534 C -14.820165 33.065035 -12.92954 33.851493 -10.965998 34.476493 C -10.965998 34.476493 -10.965998 46.117119 -10.965998 46.117119 C -10.965998 46.117119 10.966294 46.117119 10.966294 46.117119 C 10.966294 46.117119 10.966294 34.476493 10.966294 34.476493 C 12.929836 33.851493 14.820461 33.065035 16.622545 32.127534 C 16.622545 32.127534 24.85692 40.36191 24.85692 40.36191 C 24.85692 40.36191 40.367338 24.856701 40.367338 24.856701 C 40.367338 24.856701 32.127754 16.622325 32.127754 16.622325 C 33.070462 14.820242 33.851712 12.929617 34.471504 10.966075 C 34.471504 10.966075 46.117338 10.966075 46.117338 10.966075 Z M 16.372545 0.867116 C 16.16942 4.742116 14.622545 8.257742 12.190253 10.966075 C 11.799628 11.393158 11.393378 11.804617 10.966294 12.190033 C 8.257961 14.627534 4.737127 16.1692 0.862127 16.372325 C 0.575669 16.382742 0.289211 16.393159 -0.0024561 16.393159 C -0.288914 16.393159 -0.575373 16.382742 -0.861831 16.372325 C -4.736831 16.1692 -8.257665 14.627534 -10.965998 12.190033 C -11.393082 11.804617 -11.80454 11.393158 -12.189957 10.966075 C -14.622249 8.257742 -16.174332 4.742116 -16.372249 0.867116 C -16.387874 0.580658 -16.393082 0.2942 -16.393082 0.00253285 C -16.393082 -0.289134 -16.387874 -0.575592 -16.372249 -0.867259 C -16.174332 -4.742259 -14.622249 -8.257884 -12.189957 -10.966218 C -11.80454 -11.393301 -11.393082 -11.804759 -10.965998 -12.190176 C -8.257665 -14.622468 -4.736831 -16.169343 -0.861831 -16.372468 C -0.575373 -16.382885 -0.288914 -16.393301 -0.0024561 -16.393301 C 0.289211 -16.393301 0.575669 -16.382885 0.862127 -16.372468 C 4.737127 -16.169343 8.257961 -14.622468 10.966294 -12.190176 C 11.393378 -11.804759 11.799628 -11.393301 12.190253 -10.966218 C 14.622545 -8.257884 16.16942 -4.742259 16.372545 -0.867259 C 16.38817 -0.575592 16.393378 -0.289134 16.393378 0.00253285 C 16.393378 0.2942 16.38817 0.580658 16.372545 0.867116 Z M 16.372545 0.867116 " stroke="#231f1f" stroke-width="2" stroke-opacity="1" stroke-miterlimit="4"/><path stroke-linecap="round" transform="matrix(0.75, 0, 0, 0.75, 706.220947, 391.923751)" fill-opacity="1" fill="#02c37e" fill-rule="nonzero" stroke-linejoin="round" d="M -25.945639 56.747501 C -25.945639 56.747501 -25.945639 49.653751 -25.945639 49.653751 C -25.945639 27.002708 -24.169597 12.726665 -20.62793 6.815207 C -17.081055 0.903748 -7.716471 -7.653544 7.465821 -18.851461 C 15.429364 -24.70042 20.965822 -30.143128 24.080406 -35.184795 C 27.184572 -40.226462 28.747073 -46.476463 28.747073 -53.945213 C 28.747073 -63.153547 25.819989 -70.398339 19.97103 -75.690006 C 14.122072 -80.976464 7.028321 -83.622298 -1.305012 -83.622298 C -23.331055 -83.622298 -35.716472 -68.065005 -38.450848 -36.955629 C -38.450848 -36.955629 -89.596683 -44.236879 -89.596683 -44.236879 C -85.742517 -72.356672 -75.440433 -93.637923 -58.706057 -108.075424 C -41.971681 -122.507716 -21.528972 -129.726467 2.611655 -129.726467 C 27.252281 -129.726467 47.908532 -122.632716 64.580408 -108.450424 C 81.257492 -94.262923 89.596034 -76.278547 89.596034 -54.502505 C 89.596034 -27.497295 75.715825 -4.913961 47.971032 13.252707 C 35.898115 21.221457 28.585614 27.440208 26.038739 31.919375 C 23.486656 36.398542 22.210614 44.674584 22.210614 56.747501 C 22.210614 56.747501 -25.945639 56.747501 -25.945639 56.747501 Z M 31.543948 129.726671 C 31.543948 129.726671 -27.06543 129.726671 -27.06543 129.726671 C -27.06543 129.726671 -27.06543 73.356877 -27.06543 73.356877 C -27.06543 73.356877 31.543948 73.356877 31.543948 73.356877 C 31.543948 73.356877 31.543948 129.726671 31.543948 129.726671 Z M 31.543948 129.726671 " stroke="#231f1f" stroke-width="2" stroke-opacity="1" stroke-miterlimit="4"/><path stroke-linecap="round" transform="matrix(0.75, 0, 0, 0.75, 517.016932, 571.428735)" fill-opacity="1" fill="#02c37e" fill-rule="nonzero" stroke-linejoin="round" d="M 36.727426 -0.009147 C 36.727426 20.282521 20.279508 36.720022 -0.00174295 36.720022 C -20.277786 36.720022 -36.730911 20.282521 -36.730911 -0.009147 C -36.730911 -19.998731 -20.751744 -36.248732 -0.881951 -36.717482 C -0.881951 -36.717482 -0.881951 -0.009147 -0.881951 -0.009147 C -0.881951 -0.009147 36.727426 -0.009147 36.727426 -0.009147 Z M 36.727426 -0.009147 " stroke="#231f1f" stroke-width="2" stroke-opacity="1" stroke-miterlimit="4"/><path stroke-linecap="round" transform="matrix(0.75, 0, 0, 0.75, 535.416771, 552.576736)" fill-opacity="1" fill="#231f1f" fill-rule="nonzero" stroke-linejoin="round" d="M -18.805696 -18.362733 C -18.805696 -18.362733 -18.805696 18.366436 -18.805696 18.366436 C -18.805696 18.366436 18.803681 18.366436 18.803681 18.366436 C 18.413056 -2.539815 3.282847 -17.867941 -18.805696 -18.362733 Z M -18.805696 -18.362733 " stroke="#231f1f" stroke-width="2" stroke-opacity="1" stroke-miterlimit="4"/><path stroke-linecap="round" transform="matrix(0.75, 0, 0, 0.75, 711.187482, 713.321984)" fill-opacity="1" fill="#231f1f" fill-rule="nonzero" stroke-linejoin="round" d="M 431.161503 13.789439 C 431.161503 13.789439 -431.161457 13.789439 -431.161457 13.789439 C -431.161457 13.789439 -431.161457 -13.788688 -431.161457 -13.788688 C -431.161457 -13.788688 431.161503 -13.788688 431.161503 -13.788688 C 431.161503 -13.788688 431.161503 13.789439 431.161503 13.789439 Z M 431.161503 13.789439 " stroke="#231f1f" stroke-width="2" stroke-opacity="1" stroke-miterlimit="4"/><path stroke-linecap="round" transform="matrix(0.75, 0, 0, 0.75, 821.965453, 560.11048)" fill-opacity="1" fill="#ffffff" fill-rule="nonzero" stroke-linejoin="round" d="M 54.801274 -39.2671 C 54.801274 -39.2671 41.733565 131.3527 41.733565 131.3527 C 36.900231 181.248536 -44.151856 173.399577 -39.323731 123.503741 C -54.79769 81.561031 -38.854981 -66.64731 -23.271647 -181.246274 C 20.030439 -158.298356 46.618982 -111.767104 54.801274 -39.2671 Z M 54.801274 -39.2671 " stroke="#231f1f" stroke-width="2" stroke-opacity="1" stroke-miterlimit="4"/><path stroke-linecap="round" transform="matrix(0.75, 0, 0, 0.75, 924.403544, 539.348249)" fill-opacity="1" fill="#02c37e" fill-rule="nonzero" stroke-linejoin="round" d="M -159.694316 -153.604965 C -129.808898 -171.969549 -100.553688 -187.96955 -72.558895 -199.2508 C -72.558895 -199.2508 58.868195 -209.953926 58.868195 -209.953926 C 93.73278 -196.709133 127.602573 -180.610174 159.691116 -159.40184 C 159.691116 -159.40184 92.48278 197.452345 92.48278 197.452345 C 4.295275 209.191929 -66.314103 209.957554 -110.923481 194.478386 C -110.923481 194.478386 -159.694316 -153.604965 -159.694316 -153.604965 Z M -159.694316 -153.604965 " stroke="#231f1f" stroke-width="2" stroke-opacity="1" stroke-miterlimit="4"/><path stroke-linecap="butt" transform="matrix(0.75, 0, 0, 0.75, 922.811216, 373.491006)" fill-opacity="1" fill="#777777" fill-rule="nonzero" stroke-linejoin="miter" d="M 44.267339 -67.540095 C 44.267339 -67.540095 40.038173 -6.508842 40.038173 -6.508842 C 40.038173 -6.508842 -20.628497 67.538037 -20.628497 67.538037 C -20.628497 67.538037 -44.269123 23.376576 -44.269123 23.376576 C -44.269123 23.376576 -44.269123 -35.503635 -44.269123 -35.503635 C -44.269123 -35.503635 44.267339 -67.540095 44.267339 -67.540095 Z M 44.267339 -67.540095 " stroke="#231f1f" stroke-width="2" stroke-opacity="1" stroke-miterlimit="10"/><path stroke-linecap="round" transform="matrix(0.75, 0, 0, 0.75, 922.810496, 349.471498)" fill-opacity="1" fill="#231f1f" fill-rule="nonzero" stroke-linejoin="round" d="M -42.429622 3.51717 C -42.429622 3.51717 -42.429622 24.386963 -42.429622 24.386963 C 2.877672 25.256754 25.471424 5.933837 42.429758 -25.258873 C 13.721423 -4.92033 -12.512953 4.001545 -42.429622 3.51717 Z M -42.429622 3.51717 " stroke="#231f1f" stroke-width="2" stroke-opacity="1" stroke-miterlimit="4"/><path stroke-linecap="round" transform="matrix(0.75, 0, 0, 0.75, 944.420239, 394.816495)" fill-opacity="1" fill="#ffffff" fill-rule="nonzero" stroke-linejoin="round" d="M -49.440529 39.10405 C -49.440529 39.10405 -18.065528 21.708216 -18.065528 21.708216 C -18.065528 21.708216 -0.518652 46.687384 -0.518652 46.687384 C -0.518652 46.687384 49.439684 -20.21887 49.439684 -20.21887 C 49.439684 -20.21887 24.757391 -46.687621 24.757391 -46.687621 C 24.757391 -46.687621 12.038641 -46.687621 12.038641 -46.687621 C 12.038641 -46.687621 11.226141 -34.942829 11.226141 -34.942829 C 11.226141 -34.942829 -49.440529 39.10405 -49.440529 39.10405 Z M -49.440529 39.10405 " stroke="#231f1f" stroke-width="2" stroke-opacity="1" stroke-miterlimit="4"/><path stroke-linecap="round" transform="matrix(0.75, 0, 0, 0.75, 888.662242, 403.515)" fill-opacity="1" fill="#ffffff" fill-rule="nonzero" stroke-linejoin="round" d="M 24.903471 27.506043 C 24.903471 27.506043 3.101386 13.677918 3.101386 13.677918 C 3.101386 13.677918 -21.03924 38.063336 -21.03924 38.063336 C -21.03924 38.063336 -24.903823 -18.139792 -24.903823 -18.139792 C -24.903823 -18.139792 1.262845 -38.061668 1.262845 -38.061668 C 1.262845 -38.061668 1.262845 -16.655417 1.262845 -16.655417 C 1.262845 -16.655417 24.903471 27.506043 24.903471 27.506043 Z M 24.903471 27.506043 " stroke="#231f1f" stroke-width="2" stroke-opacity="1" stroke-miterlimit="4"/><path stroke-linecap="round" transform="matrix(0.75, 0, 0, 0.75, 918.26996, 705.664496)" fill-opacity="1" fill="#231f1f" fill-rule="nonzero" stroke-linejoin="round" d="M -102.745369 -27.276622 C -102.745369 -27.276622 -102.745369 8.259838 -102.745369 8.259838 C -40.29224 27.275464 28.952555 24.931714 102.744225 8.259838 C 102.744225 8.259838 100.660892 -24.302663 100.660892 -24.302663 C 21.697346 -12.255788 -47.297449 -11.859954 -102.745369 -27.276622 Z M -102.745369 -27.276622 " stroke="#231f1f" stroke-width="2" stroke-opacity="1" stroke-miterlimit="4"/><path stroke-linecap="round" transform="matrix(0.75, 0, 0, 0.75, 910.928984, 447.452997)" fill-opacity="1" fill="#ffffff" fill-rule="nonzero" stroke-linejoin="round" d="M -26.587606 -44.906082 C -26.587606 -44.906082 -2.092813 48.474131 -2.092813 48.474131 C -2.092813 48.474131 26.58948 -48.473791 26.58948 -48.473791 C 26.58948 -48.473791 -4.785521 -31.077957 -4.785521 -31.077957 C -4.785521 -31.077957 -26.587606 -44.906082 -26.587606 -44.906082 Z M -26.587606 -44.906082 " stroke="#231f1f" stroke-width="2" stroke-opacity="1" stroke-miterlimit="4"/><path stroke-linecap="round" transform="matrix(0.75, 0, 0, 0.75, 894.555657, 465.661509)" fill-opacity="1" fill="#ffffff" fill-rule="nonzero" stroke-linejoin="round" d="M -15.084627 -50.819514 C -15.084627 -50.819514 15.087249 50.815908 15.087249 50.815908 " stroke="#231f1f" stroke-width="2" stroke-opacity="1" stroke-miterlimit="4"/><path stroke-linecap="round" transform="matrix(0.75, 0, 0, 0.75, 928.25252, 460.971765)" fill-opacity="1" fill="#ffffff" fill-rule="nonzero" stroke-linejoin="round" d="M 11.777891 -38.545688 C 11.777891 -38.545688 -11.779402 38.542857 -11.779402 38.542857 " stroke="#231f1f" stroke-width="2" stroke-opacity="1" stroke-miterlimit="4"/><path stroke-linecap="round" transform="matrix(0.75, 0, 0, 0.75, 895.536057, 673.92673)" fill="none" stroke-linejoin="round" d="M -65.193913 -5.600224 C -24.584536 5.519568 19.212341 5.597693 65.19151 -1.89189 " stroke="#231f1f" stroke-width="2" stroke-opacity="1" stroke-miterlimit="4"/><path stroke-linecap="round" transform="matrix(0.75, 0, 0, 0.75, 1019.793699, 555.426736)" fill-opacity="1" fill="#ffffff" fill-rule="nonzero" stroke-linejoin="round" d="M -48.620768 -40.475233 C -48.620768 -40.475233 -39.902017 130.420608 -39.902017 130.420608 C -36.339517 180.420611 35.978195 156.967485 44.941737 120.13415 C 48.624029 7.816436 41.561529 -88.246069 33.035486 -180.423157 C -10.839516 -158.579406 -38.599934 -112.740862 -48.620768 -40.475233 Z M -48.620768 -40.475233 " stroke="#231f1f" stroke-width="2" stroke-opacity="1" stroke-miterlimit="4"/><path stroke-linecap="round" transform="matrix(0.75, 0, 0, 0.75, 888.065986, 629.441244)" fill-opacity="1" fill="#ffffff" fill-rule="nonzero" stroke-linejoin="round" d="M -133.770279 -20.51541 C -66.457776 -49.046662 1.729728 -70.676871 54.677647 -78.020621 C 74.64119 -80.786247 94.969316 -78.728955 114.037025 -72.202913 C 114.037025 -72.202913 130.724526 -66.494579 130.724526 -66.494579 C 130.724526 -66.494579 136.880776 -25.39041 136.880776 -25.39041 C 136.880776 -25.39041 88.760982 -27.827911 88.760982 -27.827911 C 88.760982 -27.827911 -72.879651 70.843969 -72.879651 70.843969 C -112.041111 80.786678 -136.879654 63.156469 -133.770279 -20.51541 Z M -133.770279 -20.51541 " stroke="#231f1f" stroke-width="2" stroke-opacity="1" stroke-miterlimit="4"/><path stroke-linecap="round" transform="matrix(0.75, 0, 0, 0.75, 941.933215, 622.539709)" fill-opacity="1" fill="#ffffff" fill-rule="nonzero" stroke-linejoin="round" d="M 149.755721 -18.448779 C 100.115094 -39.490447 68.078634 -61.318573 25.693215 -71.657115 C -16.655746 -81.985241 -73.567207 -87.099824 -114.921376 -73.323782 C -114.921376 -73.323782 -154.687003 -61.969615 -154.687003 -61.969615 C -154.687003 -61.969615 -150.463044 -31.834197 -150.463044 -31.834197 C -150.463044 -31.834197 -99.171375 -25.308155 -99.171375 -25.308155 C -79.535957 -22.808154 -60.650539 -16.183154 -43.759914 -5.870654 C -43.759914 -5.870654 92.255718 77.160601 92.255718 77.160601 C 131.417178 87.103309 154.688013 70.863725 149.755721 -18.448779 Z M 149.755721 -18.448779 " stroke="#231f1f" stroke-width="2" stroke-opacity="1" stroke-miterlimit="4"/><path fill="#ffffff" d="M 1009.003906 572.824219 C 1009.003906 572.824219 1011.441406 618.316406 1011.441406 618.316406 C 1011.441406 618.316406 1053.886719 628.808594 1053.886719 628.808594 C 1053.875 612.507812 1053.316406 595.582031 1052.261719 578.105469 C 1052.261719 578.105469 1009.003906 572.824219 1009.003906 572.824219 Z M 1009.003906 572.824219 " fill-opacity="1" fill-rule="nonzero"/><path fill="#ffffff" d="M 788.757812 600.953125 C 788.757812 600.953125 788.484375 616.558594 788.484375 616.558594 C 788.484375 616.558594 811.09375 609.3125 811.09375 609.3125 C 811.09375 609.3125 809.4375 592.457031 809.4375 592.457031 C 809.4375 592.457031 788.757812 600.953125 788.757812 600.953125 Z M 788.757812 600.953125 " fill-opacity="1" fill-rule="nonzero"/><path fill="#231f1f" d="M 840.542969 701.613281 C 840.542969 701.613281 840.179688 723.289062 840.179688 723.289062 C 840.179688 723.289062 891.148438 720.710938 890.132812 719.859375 C 889.117188 719.007812 889.800781 703.136719 889.800781 703.136719 C 889.800781 703.136719 840.542969 701.613281 840.542969 701.613281 Z M 840.542969 701.613281 " fill-opacity="1" fill-rule="nonzero"/><path fill="#231f1f" d="M 956.390625 319.75 C 956.390625 319.75 888.703125 335.648438 888.703125 335.648438 C 888.703125 335.648438 888.132812 344.167969 888.132812 344.167969 C 888.132812 344.167969 889.074219 357.070312 889.074219 357.070312 C 889.074219 357.070312 937.710938 351.5 948.660156 336.800781 C 959.605469 322.101562 955.183594 329.644531 955.183594 329.644531 C 955.183594 329.644531 956.390625 319.75 956.390625 319.75 Z M 956.390625 319.75 " fill-opacity="1" fill-rule="nonzero"/><path stroke-linecap="round" transform="matrix(0.75, 0, 0, 0.75, 846.952404, 241.257752)" fill-opacity="1" fill="#231f1f" fill-rule="nonzero" stroke-linejoin="round" d="M -6.004247 -35.390546 C -10.202164 -7.291586 -4.676122 14.531332 2.344712 35.385499 C 2.344712 35.385499 10.204087 -34.494713 10.204087 -34.494713 C 10.204087 -34.494713 -6.004247 -35.390546 -6.004247 -35.390546 Z M -6.004247 -35.390546 " stroke="#231f1f" stroke-width="2" stroke-opacity="1" stroke-miterlimit="4"/><path stroke-linecap="butt" transform="matrix(0.75, 0, 0, 0.75, 903.756633, 268.342478)" fill-opacity="1" fill="#777777" fill-rule="nonzero" stroke-linejoin="miter" d="M 73.475535 -15.743096 C 73.475535 -15.743096 72.80366 28.642323 72.80366 28.642323 C 72.80366 28.642323 69.011993 81.944409 69.011993 81.944409 C 33.772408 106.710035 -3.503636 119.230869 -44.477596 109.585035 C -53.24843 107.517327 -60.290097 100.986076 -63.050514 92.407951 C -75.217181 54.595449 -76.597389 2.204822 -67.482805 -64.36289 C -36.034887 -119.227476 33.54845 -115.883726 76.595327 -70.607682 C 76.595327 -70.607682 73.475535 -15.743096 73.475535 -15.743096 Z M 73.475535 -15.743096 " stroke="#231f1f" stroke-width="2" stroke-opacity="1" stroke-miterlimit="10"/><path stroke-linecap="butt" transform="matrix(0.75, 0, 0, 0.75, 970.775885, 268.470767)" fill-opacity="1" fill="#777777" fill-rule="nonzero" stroke-linejoin="miter" d="M -15.883473 -15.914149 C -7.263681 -30.190191 16.679029 -20.820399 9.39257 3.117102 C 1.626945 23.12752 -7.388681 28.268145 -16.67514 30.19002 C -16.67514 30.19002 -15.883473 -15.914149 -15.883473 -15.914149 Z M -15.883473 -15.914149 " stroke="#231f1f" stroke-width="2" stroke-opacity="1" stroke-miterlimit="10"/><path stroke-linecap="round" transform="matrix(0.75, 0, 0, 0.75, 873.718378, 278.419518)" fill="none" stroke-linejoin="round" d="M 3.344246 -33.637484 C 2.151537 -8.830191 -3.213046 12.20106 -12.713047 29.477102 C -3.551588 32.763561 4.870288 33.638561 12.714038 32.602103 " stroke="#231f1f" stroke-width="2" stroke-opacity="1" stroke-miterlimit="4"/><path stroke-linecap="round" transform="matrix(0.75, 0, 0, 0.75, 908.773377, 200.145756)" fill-opacity="1" fill="#231f1f" fill-rule="nonzero" stroke-linejoin="round" d="M 66.135501 75.18587 C 53.338626 67.27962 44.786542 49.659827 41.218833 20.659826 C 19.203207 29.675451 2.333415 25.206701 -10.036378 8.946284 C -25.734295 23.602534 -46.499921 29.263993 -70.812422 28.628576 C -91.07284 30.545243 -99.307215 20.680659 -96.531174 0.0400332 C -87.661381 -40.996427 -62.72388 -44.751636 -32.21867 -35.584969 C -19.671795 -75.189137 29.588624 -68.392262 32.552166 -35.584969 C 63.770918 -42.189136 80.948002 -35.465177 72.23446 -4.178717 C 92.474044 -2.19955 99.307378 8.722325 93.375086 28.159826 C 93.375086 28.159826 85.729252 70.49837 85.729252 70.49837 C 79.07821 68.951495 72.562585 70.852537 66.135501 75.18587 Z M 66.135501 75.18587 " stroke="#231f1f" stroke-width="2" stroke-opacity="1" stroke-miterlimit="4"/><path stroke-linecap="round" transform="matrix(0.75, 0, 0, 0.75, 916.373864, 252.725251)" fill="none" stroke-linejoin="round" d="M -12.269319 -4.310752 C -1.415152 -5.946169 6.76714 -2.529502 12.26714 5.949665 " stroke="#231f20" stroke-width="2" stroke-opacity="1" stroke-miterlimit="4"/><path stroke-linecap="round" transform="matrix(0.75, 0, 0, 0.75, 862.985171, 247.622264)" fill="none" stroke-linejoin="round" d="M -9.704187 3.300524 C -4.766686 -0.959893 1.212481 -3.298435 9.702064 -1.011976 " stroke="#231f1f" stroke-width="2" stroke-opacity="1" stroke-miterlimit="4"/><path stroke-linecap="round" transform="matrix(0.75, 0, 0, 0.75, 912.638168, 269.638511)" fill-opacity="1" fill="#231f1f" fill-rule="nonzero" stroke-linejoin="round" d="M 4.982443 -0.00238998 C 4.982443 5.461152 2.753276 9.888236 -0.00193274 9.888236 C -2.751933 9.888236 -4.9811 5.461152 -4.9811 -0.00238998 C -4.9811 -5.460724 -2.751933 -9.887807 -0.00193274 -9.887807 C 2.753276 -9.887807 4.982443 -5.460724 4.982443 -0.00238998 Z M 4.982443 -0.00238998 " stroke="#231f1f" stroke-width="2" stroke-opacity="1" stroke-miterlimit="4"/><path stroke-linecap="round" transform="matrix(0.75, 0, 0, 0.75, 861.368171, 265.239002)" fill-opacity="1" fill="#231f1f" fill-rule="nonzero" stroke-linejoin="round" d="M 3.941397 -0.000960808 C 3.941397 4.436539 2.175772 8.035498 -0.00131118 8.035498 C -2.173186 8.035498 -3.938811 4.436539 -3.938811 -0.000960808 C -3.938811 -4.438461 -2.173186 -8.03742 -0.00131118 -8.03742 C 2.175772 -8.03742 3.941397 -4.438461 3.941397 -0.000960808 Z M 3.941397 -0.000960808 " stroke="#231f1f" stroke-width="2" stroke-opacity="1" stroke-miterlimit="4"/><path stroke-linecap="butt" transform="matrix(0.75, 0, 0, 0.75, 901.847121, 323.130004)" fill-opacity="1" fill="#231f1f" fill-rule="nonzero" stroke-linejoin="miter" d="M -20.337829 -1.532713 C -8.42637 19.404788 20.339257 3.232912 17.104881 -19.402506 C 5.464256 -9.688964 -6.973245 -3.517089 -20.337829 -1.532713 Z M -20.337829 -1.532713 " stroke="#231f1f" stroke-width="2" stroke-opacity="1" stroke-miterlimit="10"/><path stroke-linecap="round" transform="matrix(0.75, 0, 0, 0.75, 684.473948, 614.353477)" fill-opacity="1" fill="#02c37e" fill-rule="nonzero" stroke-linejoin="round" d="M 13.456612 -0.00255279 C 13.456612 7.429739 7.43057 13.455781 0.00348628 13.455781 C -7.428806 13.455781 -13.454848 7.429739 -13.454848 -0.00255279 C -13.454848 -7.429636 -7.428806 -13.455678 0.00348628 -13.455678 C 7.43057 -13.455678 13.456612 -7.429636 13.456612 -0.00255279 Z M 13.456612 -0.00255279 " stroke="#231f1f" stroke-width="2" stroke-opacity="1" stroke-miterlimit="4"/><path stroke-linecap="round" transform="matrix(0.75, 0, 0, 0.75, 684.473948, 636.47178)" fill-opacity="1" fill="#02c37e" fill-rule="nonzero" stroke-linejoin="round" d="M 19.102446 13.876169 C 19.102446 13.876169 -19.100681 13.876169 -19.100681 13.876169 C -19.100681 13.876169 -19.100681 5.225127 -19.100681 5.225127 C -19.100681 -5.321749 -10.548598 -13.873832 0.00348628 -13.873832 C 10.550362 -13.873832 19.102446 -5.321749 19.102446 5.225127 C 19.102446 5.225127 19.102446 13.876169 19.102446 13.876169 Z M 19.102446 13.876169 " stroke="#231f1f" stroke-width="2" stroke-opacity="1" stroke-miterlimit="4"/><path stroke-linecap="round" transform="matrix(0.75, 0, 0, 0.75, 737.897897, 614.353477)" fill-opacity="1" fill="#02c37e" fill-rule="nonzero" stroke-linejoin="round" d="M 13.453846 -0.00255279 C 13.453846 7.429739 7.427804 13.455781 0.000720534 13.455781 C -7.431572 13.455781 -13.452405 7.429739 -13.452405 -0.00255279 C -13.452405 -7.429636 -7.431572 -13.455678 0.000720534 -13.455678 C 7.427804 -13.455678 13.453846 -7.429636 13.453846 -0.00255279 Z M 13.453846 -0.00255279 " stroke="#231f1f" stroke-width="2" stroke-opacity="1" stroke-miterlimit="4"/><path stroke-linecap="round" transform="matrix(0.75, 0, 0, 0.75, 737.897897, 636.47178)" fill-opacity="1" fill="#02c37e" fill-rule="nonzero" stroke-linejoin="round" d="M 19.09968 13.876169 C 19.09968 13.876169 -19.103447 13.876169 -19.103447 13.876169 C -19.103447 13.876169 -19.103447 5.225127 -19.103447 5.225127 C -19.103447 -5.321749 -10.551363 -13.873832 0.000720534 -13.873832 C 10.547596 -13.873832 19.09968 -5.321749 19.09968 5.225127 C 19.09968 5.225127 19.09968 13.876169 19.09968 13.876169 Z M 19.09968 13.876169 " stroke="#231f1f" stroke-width="2" stroke-opacity="1" stroke-miterlimit="4"/><path stroke-linecap="round" transform="matrix(0.6075, 0, 0, 0.6075, 711.186762, 613.076533)" fill-opacity="1" fill="#777777" fill-rule="nonzero" stroke-linejoin="round" d="M 17.542367 0.00262032 C 17.542367 9.686263 9.691287 17.543773 0.00121409 17.543773 C -9.688858 17.543773 -17.546369 9.686263 -17.546369 0.00262032 C -17.546369 -9.687452 -9.688858 -17.544963 0.00121409 -17.544963 C 9.691287 -17.544963 17.542367 -9.687452 17.542367 0.00262032 Z M 17.542367 0.00262032 " stroke="#231f1f" stroke-width="2" stroke-opacity="1" stroke-miterlimit="4"/><path stroke-linecap="round" transform="matrix(0.6075, 0, 0, 0.6075, 711.186762, 636.437916)" fill-opacity="1" fill="#777777" fill-rule="nonzero" stroke-linejoin="round" d="M 24.904765 18.093452 C 24.904765 18.093452 -24.908767 18.093452 -24.908767 18.093452 C -24.908767 18.093452 -24.908767 6.815159 -24.908767 6.815159 C -24.908767 -6.938699 -13.752645 -18.094821 0.00121409 -18.094821 C 13.755073 -18.094821 24.904765 -6.938699 24.904765 6.815159 C 24.904765 6.815159 24.904765 18.093452 24.904765 18.093452 Z M 24.904765 18.093452 " stroke="#231f1f" stroke-width="2" stroke-opacity="1" stroke-miterlimit="4"/></svg>