<svg xmlns="http://www.w3.org/2000/svg" xmlns:xlink="http://www.w3.org/1999/xlink" width="1920" zoomAndPan="magnify" viewBox="0 0 1440 809.999993" height="1080" preserveAspectRatio="xMidYMid meet" version="1.0"><path stroke-linecap="round" transform="matrix(0.693773, -0.652637, 0.652637, 0.693773, 964.340982, 113.793017)" fill-opacity="1" fill="#ffffff" fill-rule="nonzero" stroke-linejoin="round" d="M 73.510757 -16.329386 C 73.510757 -16.329386 58.290838 -47.667704 58.290838 -47.667704 C 58.290838 -47.667704 41.655348 -39.590135 41.655348 -39.590135 C 39.404078 -41.961291 36.96788 -44.117908 34.38207 -46.043658 C 34.38207 -46.043658 40.433755 -63.525705 40.433755 -63.525705 C 40.433755 -63.525705 7.513226 -74.928485 7.513226 -74.928485 C 7.513226 -74.928485 1.458732 -57.443451 1.458732 -57.443451 C -1.767289 -57.533469 -5.013971 -57.35014 -8.254607 -56.873971 C -8.254607 -56.873971 -16.332176 -73.509461 -16.332176 -73.509461 C -16.332176 -73.509461 -47.670672 -58.295339 -47.670672 -58.295339 C -47.670672 -58.295339 -39.587305 -41.660026 -39.587305 -41.660026 C -41.967069 -39.405591 -44.123686 -36.969394 -46.046272 -34.374977 C -46.046272 -34.374977 -63.531305 -40.429471 -63.531305 -40.429471 C -63.531305 -40.429471 -74.928288 -7.50912 -74.928288 -7.50912 C -74.928288 -7.50912 -57.446242 -1.457435 -57.446242 -1.457435 C -57.530463 1.768408 -57.341336 5.014913 -56.873952 8.252916 C -56.873952 8.252916 -73.509441 16.330485 -73.509441 16.330485 C -73.509441 16.330485 -58.292332 47.671791 -58.292332 47.671791 C -58.292332 47.671791 -41.654032 39.591234 -41.654032 39.591234 C -39.402762 41.96239 -36.969375 44.121995 -34.380754 46.044758 C -34.380754 46.044758 -40.435249 63.529791 -40.435249 63.529791 C -40.435249 63.529791 -7.514897 74.926774 -7.514897 74.926774 C -7.514897 74.926774 -1.463213 57.444728 -1.463213 57.444728 C 1.765795 57.537556 5.012299 57.34843 8.255922 56.875071 C 8.255922 56.875071 16.333492 73.51056 16.333492 73.51056 C 16.333492 73.51056 47.666191 58.296615 47.666191 58.296615 C 47.666191 58.296615 39.588621 41.661126 39.588621 41.661126 C 41.968384 39.406691 44.122014 36.967684 46.047587 34.376076 C 46.047587 34.376076 63.529634 40.427761 63.529634 40.427761 C 63.529634 40.427761 74.929604 7.510219 74.929604 7.510219 C 74.929604 7.510219 57.44457 1.455725 57.44457 1.455725 C 57.534588 -1.770296 57.342652 -5.013813 56.872457 -8.248829 C 56.872457 -8.248829 73.510757 -16.329386 73.510757 -16.329386 Z M 23.999272 -10.125405 C 26.401037 -4.442737 26.62794 1.654526 25.025108 7.212938 C 24.770606 8.093985 24.472184 8.961868 24.126854 9.813776 C 21.94918 15.169258 17.988987 19.821977 12.593682 22.798111 C 12.194087 23.013406 11.788518 23.223081 11.373988 23.424326 C 10.959457 23.625571 10.544573 23.815221 10.126524 23.996265 C 4.452463 26.394867 -1.65042 26.627743 -7.208655 25.030708 C -8.089702 24.776207 -8.957762 24.471987 -9.806683 24.129467 C -15.165151 21.948983 -19.817517 18.000384 -22.799625 12.59946 C -23.01492 12.199865 -23.224594 11.794295 -23.425839 11.379765 C -23.630072 10.962425 -23.816735 10.55035 -23.997956 10.126504 C -26.399722 4.443836 -26.626624 -1.653426 -25.029589 -7.211662 C -24.772278 -8.095696 -24.470868 -8.960768 -24.125538 -9.812677 C -21.947864 -15.168158 -17.987671 -19.820878 -12.592366 -22.797011 C -12.192771 -23.012306 -11.790189 -23.224791 -11.375659 -23.426036 C -10.961129 -23.627281 -10.543257 -23.814122 -10.128018 -23.992179 C -4.451147 -26.393767 1.651736 -26.626644 7.207161 -25.026622 C 8.088208 -24.77212 8.95609 -24.473698 9.807999 -24.128367 C 15.166467 -21.947884 19.818832 -17.999285 22.79813 -12.595373 C 23.019399 -12.190158 23.228897 -11.790386 23.430142 -11.375856 C 23.631387 -10.961325 23.818228 -10.543454 23.999272 -10.125405 Z M 23.999272 -10.125405 " stroke="#253237" stroke-width="2" stroke-opacity="1" stroke-miterlimit="4"/><path stroke-linecap="round" transform="matrix(0.628027, 0.716127, -0.716127, 0.628027, 428.410473, 556.553248)" fill-opacity="1" fill="#ffffff" fill-rule="nonzero" stroke-linejoin="round" d="M 114.681398 27.26788 C 114.681398 27.26788 114.681457 -27.268034 114.681457 -27.268034 C 114.681457 -27.268034 85.730668 -27.271103 85.730668 -27.271103 C 84.181758 -32.147736 82.222938 -36.849291 79.897754 -41.332124 C 79.897754 -41.332124 100.377421 -61.811104 100.377421 -61.811104 C 100.377421 -61.811104 61.817192 -100.373128 61.817192 -100.373128 C 61.817192 -100.373128 41.337526 -79.894148 41.337526 -79.894148 C 36.854503 -82.227433 32.154634 -84.189055 27.264103 -85.734233 C 27.264103 -85.734233 27.264089 -114.687726 27.264089 -114.687726 C 27.264089 -114.687726 -27.262955 -114.685461 -27.262955 -114.685461 C -27.262955 -114.685461 -27.26332 -85.737755 -27.26332 -85.737755 C -32.154232 -84.185002 -36.855786 -82.226183 -41.335157 -79.892508 C -41.335157 -79.892508 -61.81722 -100.374878 -61.81722 -100.374878 C -61.81722 -100.374878 -100.376161 -61.811945 -100.376161 -61.811945 C -100.376161 -61.811945 -79.897181 -41.332279 -79.897181 -41.332279 C -82.221975 -36.852719 -84.180514 -32.150146 -85.729154 -27.268106 C -85.729154 -27.268106 -114.679943 -27.271175 -114.679943 -27.271175 C -114.679943 -27.271175 -114.679623 27.270526 -114.679623 27.270526 C -114.679623 27.270526 -85.731917 27.270892 -85.731917 27.270892 C -84.179923 32.150228 -82.232678 36.852542 -79.899003 41.331912 C -79.899003 41.331912 -100.37867 61.810892 -100.37867 61.810892 C -100.37867 61.810892 -61.818441 100.372916 -61.818441 100.372916 C -61.818441 100.372916 -41.338775 79.893936 -41.338775 79.893936 C -36.855752 82.227222 -32.153179 84.185761 -27.265351 85.734021 C -27.265351 85.734021 -27.265338 114.687515 -27.265338 114.687515 C -27.265338 114.687515 27.264789 114.687953 27.264789 114.687953 C 27.264789 114.687953 27.264775 85.73446 27.264775 85.73446 C 32.152983 84.184791 36.854537 82.225971 41.336991 79.895 C 41.336991 79.895 61.815971 100.374667 61.815971 100.374667 C 61.815971 100.374667 100.380699 61.811355 100.380699 61.811355 C 100.380699 61.811355 79.901719 41.331688 79.901719 41.331688 C 82.232301 36.851749 84.179265 32.149934 85.730988 27.270598 C 85.730988 27.270598 114.681398 27.26788 114.681398 27.26788 Z M 40.71681 2.150922 C 40.218377 11.79407 36.362608 20.538419 30.311605 27.270322 C 29.34708 28.339051 28.332464 29.352942 27.265051 30.315076 C 20.533109 36.367991 11.77899 40.211127 2.146294 40.714614 C 1.436397 40.746612 0.722657 40.764332 -0.000712084 40.768152 C -0.721377 40.768889 -1.431985 40.745718 -2.146055 40.714055 C -11.780712 40.21216 -20.530089 36.368345 -27.265076 30.314638 C -28.330721 29.352817 -29.350399 28.33858 -30.312534 27.271168 C -36.362744 20.536142 -40.216696 11.794356 -40.717858 2.15279 C -40.750236 1.437105 -40.77066 0.726449 -40.771397 0.00578359 C -40.769429 -0.717965 -40.752046 -1.428193 -40.718059 -2.151134 C -40.213838 -11.794661 -36.363857 -20.538631 -30.312854 -27.270534 C -29.348329 -28.339263 -28.333713 -29.353153 -27.263596 -30.318371 C -20.534358 -36.368202 -11.780238 -40.211338 -2.147543 -40.714825 C -1.434562 -40.74412 -0.721202 -40.767627 -0.000536827 -40.768364 C 0.723212 -40.766396 1.436523 -40.746309 2.144806 -40.714267 C 11.779463 -40.212371 20.531923 -36.365852 27.263827 -30.31485 C 28.33526 -29.353408 29.34915 -28.338792 30.311285 -27.271379 C 36.364199 -20.539437 40.215447 -11.794568 40.719693 -2.150298 C 40.75245 -1.428825 40.772873 -0.718169 40.770906 0.00557953 C 40.771643 0.726245 40.751555 1.439556 40.71681 2.150922 Z M 40.71681 2.150922 " stroke="#253237" stroke-width="2" stroke-opacity="1" stroke-miterlimit="4"/><path stroke-linecap="round" transform="matrix(0.952418, 0.0124673, -0.0124673, 0.952418, 386.827487, 377.552989)" fill-opacity="1" fill="#ffffff" fill-rule="nonzero" stroke-linejoin="round" d="M 46.116803 10.964058 C 46.116803 10.964058 46.11683 -10.966137 46.11683 -10.966137 C 46.11683 -10.966137 34.47296 -10.965468 34.47296 -10.965468 C 33.852593 -12.92602 33.064956 -14.81876 32.130874 -16.619353 C 32.130874 -16.619353 40.365304 -24.856121 40.365304 -24.856121 C 40.365304 -24.856121 24.860006 -40.361522 24.860006 -40.361522 C 24.860006 -40.361522 16.621422 -32.128801 16.621422 -32.128801 C 14.820956 -33.06496 12.928107 -33.85226 10.963538 -34.478666 C 10.963538 -34.478666 10.962923 -46.118436 10.962923 -46.118436 C 10.962923 -46.118436 -10.963171 -46.118517 -10.963171 -46.118517 C -10.963171 -46.118517 -10.962556 -34.478747 -10.962556 -34.478747 C -12.931256 -33.854172 -14.819895 -33.066589 -16.624534 -32.128353 C -16.624534 -32.128353 -24.857202 -40.362837 -24.857202 -40.362837 C -24.857202 -40.362837 -40.366703 -24.857485 -40.366703 -24.857485 C -40.366703 -24.857485 -32.129881 -16.618954 -32.129881 -16.618954 C -33.066041 -14.818488 -33.853394 -12.92974 -34.4757 -10.965225 C -34.4757 -10.965225 -46.11547 -10.96461 -46.11547 -10.96461 C -46.11547 -10.96461 -46.115497 10.965585 -46.115497 10.965585 C -46.115497 10.965585 -34.475728 10.96497 -34.475728 10.96497 C -33.851206 12.929569 -33.067723 14.818262 -32.129541 16.6188 C -32.129541 16.6188 -40.363971 24.855569 -40.363971 24.855569 C -40.363971 24.855569 -24.858673 40.36097 -24.858673 40.36097 C -24.858673 40.36097 -16.624189 32.128302 -16.624189 32.128302 C -14.819623 33.064408 -12.930874 33.851761 -10.962259 34.474013 C -10.962259 34.474013 -10.965691 46.117937 -10.965691 46.117937 C -10.965691 46.117937 10.964504 46.117965 10.964504 46.117965 C 10.964504 46.117965 10.963835 34.474095 10.963835 34.474095 C 12.928488 33.853674 14.821228 33.066037 16.621767 32.127855 C 16.621767 32.127855 24.858535 40.362285 24.858535 40.362285 C 24.858535 40.362285 40.363936 24.856986 40.363936 24.856986 C 40.363936 24.856986 32.127114 16.618456 32.127114 16.618456 C 33.067374 14.817936 33.850627 12.929241 34.472932 10.964727 C 34.472932 10.964727 46.116803 10.964058 46.116803 10.964058 Z M 16.372499 0.866133 C 16.173083 4.744568 14.623646 8.259244 12.190024 10.965215 C 11.801939 11.396841 11.393029 11.804131 10.963347 12.191186 C 8.255482 14.625952 4.736172 16.169032 0.862998 16.371485 C 0.576056 16.383444 0.289061 16.391302 0.00195808 16.390959 C -0.289192 16.39477 -0.576402 16.386225 -0.863665 16.37358 C -4.738053 16.17001 -8.256777 14.624727 -10.962747 12.191104 C -11.394373 11.80302 -11.801663 11.39411 -12.188718 10.964428 C -14.623485 8.256563 -16.170612 4.741407 -16.373118 0.864132 C -16.385077 0.577191 -16.397036 0.290249 -16.396692 0.00314636 C -16.396403 -0.288057 -16.387858 -0.575267 -16.375267 -0.866631 C -16.171696 -4.741019 -14.622313 -8.259797 -12.188691 -10.965767 C -11.800552 -11.393292 -11.391696 -11.804683 -10.962014 -12.191738 C -8.25825 -14.626451 -4.73894 -16.169531 -0.861664 -16.372037 C -0.578824 -16.383942 -0.291828 -16.3918 -0.000625063 -16.391511 C 0.290578 -16.391221 0.577735 -16.386777 0.865052 -16.370032 C 4.735285 -16.170508 8.254009 -14.625225 10.96408 -12.191657 C 11.391605 -11.803518 11.802996 -11.394662 12.190051 -10.96498 C 14.620717 -8.257062 16.171945 -4.741959 16.374451 -0.864684 C 16.386463 -0.573642 16.394268 -0.290747 16.393978 0.00045586 C 16.393689 0.291659 16.385144 0.578869 16.372499 0.866133 Z M 16.372499 0.866133 " stroke="#253237" stroke-width="2" stroke-opacity="1" stroke-miterlimit="4"/><path stroke-linecap="round" transform="matrix(0.9525, 0, 0, 0.9525, 366.011239, 172.888312)" fill-opacity="1" fill="#ffffff" fill-rule="nonzero" stroke-linejoin="round" d="M 81.45556 -26.11716 C 87.4677 -3.668012 83.481479 19.105119 72.244602 37.469622 C 64.304969 51.786388 58.604509 65.561815 60.511498 77.528679 C 60.511498 77.528679 -5.954221 95.331337 -5.954221 95.331337 C -10.473578 83.540818 -23.104812 74.169919 -37.909603 65.446985 C -37.97522 65.410076 -38.028534 65.381369 -38.090049 65.344459 C -56.044447 54.911388 -70.03723 37.650068 -75.832013 16.012928 C -87.470793 -27.429496 -61.687492 -72.065325 -18.25327 -83.700004 C 25.180951 -95.330582 69.820881 -69.559583 81.45556 -26.11716 Z M 81.45556 -26.11716 " stroke="#253237" stroke-width="2" stroke-opacity="1" stroke-miterlimit="4"/><path stroke-linecap="round" transform="matrix(0.9525, 0, 0, 0.9525, 372.286305, 204.368448)" fill="none" stroke-linejoin="round" d="M 10.394956 59.246547 C 5.678748 34.271152 -0.493332 9.566426 -8.072073 -14.662578 C -11.274993 -24.907001 -14.822401 -35.25395 -20.91246 -43.907166 C -23.122926 -47.04857 -26.727749 -50.226884 -29.942973 -48.647979 C -31.997599 -47.639121 -32.944941 -44.887317 -32.571746 -42.430788 C -32.194449 -39.974259 -30.742677 -37.817106 -29.053045 -36.090564 C -24.54189 -31.485085 -18.295991 -29.442762 -12.222335 -28.798897 C -5.935426 -28.130426 0.511425 -28.831706 6.199582 -31.554803 C 11.887738 -34.2779 16.759786 -39.129442 19.12199 -45.375342 C 20.216971 -48.25838 20.737804 -51.65815 19.462378 -54.545289 C 18.18285 -57.428328 14.586229 -59.249194 12.199418 -57.539056 C 11.239772 -56.85008 10.616413 -55.734594 10.169398 -54.582199 C 8.475664 -50.21048 8.980094 -45.162087 9.685474 -40.396667 C 14.578027 -7.321698 27.47993 24.116952 32.942529 57.105799 " stroke="#253237" stroke-width="2" stroke-opacity="1" stroke-miterlimit="4"/><path stroke-linecap="butt" transform="matrix(0.9525, 0, 0, 0.9525, 393.06321, 260.364002)" fill-opacity="1" fill="#10c49f" fill-rule="nonzero" stroke-linejoin="miter" d="M 35.985969 -3.929563 C 35.985969 -3.929563 -33.133129 14.582577 -33.133129 14.582577 C -33.133129 14.582577 -35.987459 3.93215 -35.987459 3.93215 C -35.987459 3.93215 33.131639 -14.57999 33.131639 -14.57999 C 33.131639 -14.57999 35.985969 -3.929563 35.985969 -3.929563 Z M 35.985969 -3.929563 " stroke="#253237" stroke-width="2" stroke-opacity="1" stroke-miterlimit="10"/><path stroke-linecap="butt" transform="matrix(0.9525, 0, 0, 0.9525, 398.254323, 279.744498)" fill-opacity="1" fill="#10c49f" fill-rule="nonzero" stroke-linejoin="miter" d="M 35.986277 -3.931232 C 35.986277 -3.931232 -33.132821 14.580908 -33.132821 14.580908 C -33.132821 14.580908 -35.987152 3.930481 -35.987152 3.930481 C -35.987152 3.930481 33.131946 -14.581659 33.131946 -14.581659 C 33.131946 -14.581659 35.986277 -3.931232 35.986277 -3.931232 Z M 35.986277 -3.931232 " stroke="#253237" stroke-width="2" stroke-opacity="1" stroke-miterlimit="10"/><path stroke-linecap="butt" transform="matrix(0.9525, 0, 0, 0.9525, 395.66067, 270.059507)" fill-opacity="1" fill="#10c49f" fill-rule="nonzero" stroke-linejoin="miter" d="M 37.999791 -4.979634 C 37.999791 -4.979634 -35.400803 14.6808 -35.400803 14.6808 C -35.400803 14.6808 -38.000869 4.977716 -38.000869 4.977716 C -38.000869 4.977716 35.403826 -14.682718 35.403826 -14.682718 C 35.403826 -14.682718 37.999791 -4.979634 37.999791 -4.979634 Z M 37.999791 -4.979634 " stroke="#253237" stroke-width="2" stroke-opacity="1" stroke-miterlimit="10"/><path stroke-linecap="butt" transform="matrix(0.9525, 0, 0, 0.9525, 400.969908, 289.885786)" fill-opacity="1" fill="#10c49f" fill-rule="nonzero" stroke-linejoin="miter" d="M 32.073096 -2.890261 C 32.073096 -2.890261 -29.225299 13.530343 -29.225299 13.530343 C -29.225299 13.530343 -32.075529 2.888118 -32.075529 2.888118 C -32.075529 2.888118 29.222867 -13.528385 29.222867 -13.528385 C 29.222867 -13.528385 32.073096 -2.890261 32.073096 -2.890261 Z M 32.073096 -2.890261 " stroke="#253237" stroke-width="2" stroke-opacity="1" stroke-miterlimit="10"/><path stroke-linecap="round" transform="matrix(0.9525, 0, 0, 0.9525, 733.466561, 146.718718)" fill-opacity="1" fill="#253237" fill-rule="nonzero" stroke-linejoin="round" d="M 118.973761 37.114537 C 118.973761 37.114537 -118.973266 37.114537 -118.973266 37.114537 C -118.973266 37.114537 -118.973266 -37.11447 -118.973266 -37.11447 C -118.973266 -37.11447 118.973761 -37.11447 118.973761 -37.11447 C 118.973761 -37.11447 118.973761 37.114537 118.973761 37.114537 Z M 118.973761 37.114537 " stroke="#253237" stroke-width="2" stroke-opacity="1" stroke-miterlimit="4"/><path stroke-linecap="round" transform="matrix(0.9525, 0, 0, 0.9525, 717.041634, 425.221103)" fill-opacity="1" fill="#ffffff" fill-rule="nonzero" stroke-linejoin="round" d="M 234.901347 297.16372 C 234.901347 297.16372 -234.902646 297.16372 -234.902646 297.16372 C -234.902646 297.16372 -234.902646 -297.160457 -234.902646 -297.160457 C -234.902646 -297.160457 234.901347 -297.160457 234.901347 -297.160457 C 234.901347 -297.160457 234.901347 297.16372 234.901347 297.16372 Z M 234.901347 297.16372 " stroke="#253237" stroke-width="2" stroke-opacity="1" stroke-miterlimit="4"/><path stroke-linecap="round" transform="matrix(0.9525, 0, 0, 0.9525, 484.055382, 425.221103)" fill-opacity="1" fill="#d4d4d4" fill-rule="nonzero" stroke-linejoin="round" d="M -9.703813 297.16372 C -9.703813 297.16372 9.702355 297.16372 9.702355 297.16372 C 9.702355 297.16372 9.702355 -297.160457 9.702355 -297.160457 C 9.702355 -297.160457 -9.703813 -297.160457 -9.703813 -297.160457 C -9.703813 -297.160457 -9.703813 297.16372 -9.703813 297.16372 Z M -9.703813 297.16372 " stroke="#253237" stroke-width="2" stroke-opacity="1" stroke-miterlimit="4"/><path stroke-linecap="round" transform="matrix(0.9525, 0, 0, 0.9525, 720.906882, 421.037759)" fill-opacity="1" fill="#ffffff" fill-rule="nonzero" stroke-linejoin="round" d="M 213.947018 275.727268 C 213.947018 275.727268 -213.948345 275.727268 -213.948345 275.727268 C -213.948345 275.727268 -213.948345 -275.728632 -213.948345 -275.728632 C -213.948345 -275.728632 213.947018 -275.728632 213.947018 -275.728632 C 213.947018 -275.728632 213.947018 275.727268 213.947018 275.727268 Z M 213.947018 275.727268 " stroke="#253237" stroke-width="2" stroke-opacity="1" stroke-miterlimit="4"/><path stroke-linecap="round" transform="matrix(0.9525, 0, 0, 0.9525, 754.271032, 134.241913)" fill-opacity="1" fill="#10c49f" fill-rule="nonzero" stroke-linejoin="round" d="M 118.969887 -24.01136 C 118.969887 -24.01136 118.969887 50.213545 118.969887 50.213545 C 118.969887 50.213545 -118.968938 50.213545 -118.968938 50.213545 C -118.968938 50.213545 -118.968938 -24.01136 -118.968938 -24.01136 C -118.968938 -24.01136 -68.144624 -24.01136 -68.144624 -24.01136 C -68.0503 -31.204602 -64.851481 -37.704766 -59.729269 -42.433277 C -54.525037 -47.243809 -47.335896 -50.212969 -39.392162 -50.212969 C -39.392162 -50.212969 39.393111 -50.212969 39.393111 -50.212969 C 55.141143 -50.212969 67.93642 -38.520875 68.145573 -24.01136 C 68.145573 -24.01136 118.969887 -24.01136 118.969887 -24.01136 Z M 118.969887 -24.01136 " stroke="#253237" stroke-width="2" stroke-opacity="1" stroke-miterlimit="4"/><path stroke-linecap="round" transform="matrix(0.9525, 0, 0, 0.9525, 579.708265, 276.566344)" fill-opacity="1" fill="#ffffff" fill-rule="nonzero" stroke-linejoin="round" d="M 27.652085 27.653446 C 27.652085 27.653446 -27.650575 27.653446 -27.650575 27.653446 C -27.650575 27.653446 -27.650575 -27.653315 -27.650575 -27.653315 C -27.650575 -27.653315 27.652085 -27.653315 27.652085 -27.653315 C 27.652085 -27.653315 27.652085 27.653446 27.652085 27.653446 Z M 27.652085 27.653446 " stroke="#253237" stroke-width="2" stroke-opacity="1" stroke-miterlimit="4"/><path stroke-linecap="round" transform="matrix(0.9525, 0, 0, 0.9525, 579.708265, 359.727218)" fill-opacity="1" fill="#ffffff" fill-rule="nonzero" stroke-linejoin="round" d="M 27.652085 27.652693 C 27.652085 27.652693 -27.650575 27.652693 -27.650575 27.652693 C -27.650575 27.652693 -27.650575 -27.649968 -27.650575 -27.649968 C -27.650575 -27.649968 27.652085 -27.649968 27.652085 -27.649968 C 27.652085 -27.649968 27.652085 27.652693 27.652085 27.652693 Z M 27.652085 27.652693 " stroke="#253237" stroke-width="2" stroke-opacity="1" stroke-miterlimit="4"/><path stroke-linecap="round" transform="matrix(0.9525, 0, 0, 0.9525, 579.708265, 442.887118)" fill-opacity="1" fill="#ffffff" fill-rule="nonzero" stroke-linejoin="round" d="M 27.652085 27.652962 C 27.652085 27.652962 -27.650575 27.652962 -27.650575 27.652962 C -27.650575 27.652962 -27.650575 -27.6538 -27.650575 -27.6538 C -27.650575 -27.6538 27.652085 -27.6538 27.652085 -27.6538 C 27.652085 -27.6538 27.652085 27.652962 27.652085 27.652962 Z M 27.652085 27.652962 " stroke="#253237" stroke-width="2" stroke-opacity="1" stroke-miterlimit="4"/><path stroke-linecap="round" transform="matrix(0.9525, 0, 0, 0.9525, 579.708265, 526.048002)" fill-opacity="1" fill="#ffffff" fill-rule="nonzero" stroke-linejoin="round" d="M 27.652085 27.652198 C 27.652085 27.652198 -27.650575 27.652198 -27.650575 27.652198 C -27.650575 27.652198 -27.650575 -27.650462 -27.650575 -27.650462 C -27.650575 -27.650462 27.652085 -27.650462 27.652085 -27.650462 C 27.652085 -27.650462 27.652085 27.652198 27.652085 27.652198 Z M 27.652085 27.652198 " stroke="#253237" stroke-width="2" stroke-opacity="1" stroke-miterlimit="4"/><path stroke-linecap="round" transform="matrix(0.9525, 0, 0, 0.9525, 579.708265, 609.208885)" fill-opacity="1" fill="#ffffff" fill-rule="nonzero" stroke-linejoin="round" d="M 27.652085 27.651434 C 27.652085 27.651434 -27.650575 27.651434 -27.650575 27.651434 C -27.650575 27.651434 -27.650575 -27.651226 -27.650575 -27.651226 C -27.650575 -27.651226 27.652085 -27.651226 27.652085 -27.651226 C 27.652085 -27.651226 27.652085 27.651434 27.652085 27.651434 Z M 27.652085 27.651434 " stroke="#253237" stroke-width="2" stroke-opacity="1" stroke-miterlimit="4"/><path stroke-linecap="round" transform="matrix(0.9525, 0, 0, 0.9525, 754.6768, 266.308864)" fill-opacity="1" fill="#d4d4d4" fill-rule="nonzero" stroke-linejoin="round" d="M 131.827185 3.202636 C 131.827185 3.202636 -131.829324 3.202636 -131.829324 3.202636 C -133.145762 3.202636 -134.212035 2.132262 -134.212035 0.819926 C -134.212035 0.819926 -134.212035 -0.816393 -134.212035 -0.816393 C -134.212035 -2.13283 -133.145762 -3.199103 -131.829324 -3.199103 C -131.829324 -3.199103 131.827185 -3.199103 131.827185 -3.199103 C 133.143622 -3.199103 134.209895 -2.13283 134.209895 -0.816393 C 134.209895 -0.816393 134.209895 0.819926 134.209895 0.819926 C 134.209895 2.132262 133.143622 3.202636 131.827185 3.202636 Z M 131.827185 3.202636 " stroke="#253237" stroke-width="2" stroke-opacity="1" stroke-miterlimit="4"/><path stroke-linecap="round" transform="matrix(0.9525, 0, 0, 0.9525, 763.636024, 282.941432)" fill-opacity="1" fill="#d4d4d4" fill-rule="nonzero" stroke-linejoin="round" d="M 141.232692 3.202893 C 141.232692 3.202893 -141.231233 3.202893 -141.231233 3.202893 C -142.54767 3.202893 -143.618044 2.132519 -143.618044 0.816082 C -143.618044 0.816082 -143.618044 -0.816136 -143.618044 -0.816136 C -143.618044 -2.132573 -142.54767 -3.202947 -141.231233 -3.202947 C -141.231233 -3.202947 141.232692 -3.202947 141.232692 -3.202947 C 142.549129 -3.202947 143.615402 -2.132573 143.615402 -0.816136 C 143.615402 -0.816136 143.615402 0.816082 143.615402 0.816082 C 143.615402 2.132519 142.549129 3.202893 141.232692 3.202893 Z M 141.232692 3.202893 " stroke="#253237" stroke-width="2" stroke-opacity="1" stroke-miterlimit="4"/><path stroke-linecap="round" transform="matrix(0.9525, 0, 0, 0.9525, 754.6768, 351.410011)" fill-opacity="1" fill="#d4d4d4" fill-rule="nonzero" stroke-linejoin="round" d="M 131.827185 3.198971 C 131.827185 3.198971 -131.829324 3.198971 -131.829324 3.198971 C -133.145762 3.198971 -134.212035 2.132698 -134.212035 0.816261 C -134.212035 0.816261 -134.212035 -0.815957 -134.212035 -0.815957 C -134.212035 -2.132394 -133.145762 -3.202768 -131.829324 -3.202768 C -131.829324 -3.202768 131.827185 -3.202768 131.827185 -3.202768 C 133.143622 -3.202768 134.209895 -2.132394 134.209895 -0.815957 C 134.209895 -0.815957 134.209895 0.816261 134.209895 0.816261 C 134.209895 2.132698 133.143622 3.198971 131.827185 3.198971 Z M 131.827185 3.198971 " stroke="#253237" stroke-width="2" stroke-opacity="1" stroke-miterlimit="4"/><path stroke-linecap="round" transform="matrix(0.9525, 0, 0, 0.9525, 750.105784, 368.043517)" fill-opacity="1" fill="#d4d4d4" fill-rule="nonzero" stroke-linejoin="round" d="M 127.029695 3.202344 C 127.029695 3.202344 -127.030358 3.202344 -127.030358 3.202344 C -128.346795 3.202344 -129.408967 2.13197 -129.408967 0.819634 C -129.408967 0.819634 -129.408967 -0.816685 -129.408967 -0.816685 C -129.408967 -2.133122 -128.346795 -3.199395 -127.030358 -3.199395 C -127.030358 -3.199395 127.029695 -3.199395 127.029695 -3.199395 C 128.346132 -3.199395 129.412405 -2.133122 129.412405 -0.816685 C 129.412405 -0.816685 129.412405 0.819634 129.412405 0.819634 C 129.412405 2.13197 128.346132 3.202344 127.029695 3.202344 Z M 127.029695 3.202344 " stroke="#253237" stroke-width="2" stroke-opacity="1" stroke-miterlimit="4"/><path stroke-linecap="round" transform="matrix(0.9525, 0, 0, 0.9525, 754.6768, 434.570854)" fill-opacity="1" fill="#d4d4d4" fill-rule="nonzero" stroke-linejoin="round" d="M 131.827185 3.202351 C 131.827185 3.202351 -131.829324 3.202351 -131.829324 3.202351 C -133.145762 3.202351 -134.212035 2.131977 -134.212035 0.819641 C -134.212035 0.819641 -134.212035 -0.816678 -134.212035 -0.816678 C -134.212035 -2.133115 -133.145762 -3.199388 -131.829324 -3.199388 C -131.829324 -3.199388 131.827185 -3.199388 131.827185 -3.199388 C 133.143622 -3.199388 134.209895 -2.133115 134.209895 -0.816678 C 134.209895 -0.816678 134.209895 0.819641 134.209895 0.819641 C 134.209895 2.131977 133.143622 3.202351 131.827185 3.202351 Z M 131.827185 3.202351 " stroke="#253237" stroke-width="2" stroke-opacity="1" stroke-miterlimit="4"/><path stroke-linecap="round" transform="matrix(0.9525, 0, 0, 0.9525, 763.636024, 451.204365)" fill-opacity="1" fill="#d4d4d4" fill-rule="nonzero" stroke-linejoin="round" d="M 141.232692 3.201618 C 141.232692 3.201618 -141.231233 3.201618 -141.231233 3.201618 C -142.54767 3.201618 -143.618044 2.135345 -143.618044 0.818908 C -143.618044 0.818908 -143.618044 -0.817411 -143.618044 -0.817411 C -143.618044 -2.133848 -142.54767 -3.200121 -141.231233 -3.200121 C -141.231233 -3.200121 141.232692 -3.200121 141.232692 -3.200121 C 142.549129 -3.200121 143.615402 -2.133848 143.615402 -0.817411 C 143.615402 -0.817411 143.615402 0.818908 143.615402 0.818908 C 143.615402 2.135345 142.549129 3.201618 141.232692 3.201618 Z M 141.232692 3.201618 " stroke="#253237" stroke-width="2" stroke-opacity="1" stroke-miterlimit="4"/><path stroke-linecap="round" transform="matrix(0.9525, 0, 0, 0.9525, 760.794688, 517.731738)" fill-opacity="1" fill="#d4d4d4" fill-rule="nonzero" stroke-linejoin="round" d="M 138.252795 3.201588 C 138.252795 3.201588 -138.252304 3.201588 -138.252304 3.201588 C -139.568741 3.201588 -140.635014 2.135315 -140.635014 0.818878 C -140.635014 0.818878 -140.635014 -0.817441 -140.635014 -0.817441 C -140.635014 -2.133879 -139.568741 -3.200152 -138.252304 -3.200152 C -138.252304 -3.200152 138.252795 -3.200152 138.252795 -3.200152 C 139.565131 -3.200152 140.635505 -2.133879 140.635505 -0.817441 C 140.635505 -0.817441 140.635505 0.818878 140.635505 0.818878 C 140.635505 2.135315 139.565131 3.201588 138.252795 3.201588 Z M 138.252795 3.201588 " stroke="#253237" stroke-width="2" stroke-opacity="1" stroke-miterlimit="4"/><path stroke-linecap="round" transform="matrix(0.9525, 0, 0, 0.9525, 753.97672, 534.365273)" fill-opacity="1" fill="#d4d4d4" fill-rule="nonzero" stroke-linejoin="round" d="M 131.094001 3.200829 C 131.094001 3.200829 -131.090231 3.200829 -131.090231 3.200829 C -132.406668 3.200829 -133.477042 2.134556 -133.477042 0.818119 C -133.477042 0.818119 -133.477042 -0.8182 -133.477042 -0.8182 C -133.477042 -2.134637 -132.406668 -3.20091 -131.090231 -3.20091 C -131.090231 -3.20091 131.094001 -3.20091 131.094001 -3.20091 C 132.406337 -3.20091 133.476711 -2.134637 133.476711 -0.8182 C 133.476711 -0.8182 133.476711 0.818119 133.476711 0.818119 C 133.476711 2.134556 132.406337 3.200829 131.094001 3.200829 Z M 131.094001 3.200829 " stroke="#253237" stroke-width="2" stroke-opacity="1" stroke-miterlimit="4"/><path stroke-linecap="round" transform="matrix(0.9525, 0, 0, 0.9525, 754.6768, 600.892598)" fill-opacity="1" fill="#d4d4d4" fill-rule="nonzero" stroke-linejoin="round" d="M 131.827185 3.200849 C 131.827185 3.200849 -131.829324 3.200849 -131.829324 3.200849 C -133.145762 3.200849 -134.212035 2.134576 -134.212035 0.818139 C -134.212035 0.818139 -134.212035 -0.81818 -134.212035 -0.81818 C -134.212035 -2.134617 -133.145762 -3.20089 -131.829324 -3.20089 C -131.829324 -3.20089 131.827185 -3.20089 131.827185 -3.20089 C 133.143622 -3.20089 134.209895 -2.134617 134.209895 -0.81818 C 134.209895 -0.81818 134.209895 0.818139 134.209895 0.818139 C 134.209895 2.134576 133.143622 3.200849 131.827185 3.200849 Z M 131.827185 3.200849 " stroke="#253237" stroke-width="2" stroke-opacity="1" stroke-miterlimit="4"/><path stroke-linecap="round" transform="matrix(0.9525, 0, 0, 0.9525, 763.636024, 617.525149)" fill-opacity="1" fill="#d4d4d4" fill-rule="nonzero" stroke-linejoin="round" d="M 141.232692 3.201123 C 141.232692 3.201123 -141.231233 3.201123 -141.231233 3.201123 C -142.54767 3.201123 -143.618044 2.13485 -143.618044 0.818413 C -143.618044 0.818413 -143.618044 -0.817906 -143.618044 -0.817906 C -143.618044 -2.134343 -142.54767 -3.200616 -141.231233 -3.200616 C -141.231233 -3.200616 141.232692 -3.200616 141.232692 -3.200616 C 142.549129 -3.200616 143.615402 -2.134343 143.615402 -0.817906 C 143.615402 -0.817906 143.615402 0.818413 143.615402 0.818413 C 143.615402 2.13485 142.549129 3.201123 141.232692 3.201123 Z M 141.232692 3.201123 " stroke="#253237" stroke-width="2" stroke-opacity="1" stroke-miterlimit="4"/><path stroke-linecap="round" transform="matrix(0.9525, 0.000648045, -0.000648045, 0.9525, 952.687398, 270.72106)" fill-opacity="1" fill="#253237" fill-rule="nonzero" stroke-linejoin="round" d="M 13.229426 -55.236176 C -15.647694 -75.701278 -52.206028 -41.838635 -47.043703 -6.991417 C -54.560346 11.948248 -51.064928 31.975402 -42.008114 52.548313 C -17.236754 66.093635 39.967141 75.704488 54.560669 30.406655 C 51.431067 5.560517 48.211833 -18.416136 44.096296 -33.681548 C 40.751758 -48.943384 28.846898 -54.250246 13.229426 -55.236176 Z M 13.229426 -55.236176 " stroke="#253237" stroke-width="2" stroke-opacity="1" stroke-miterlimit="4"/><path stroke-linecap="round" transform="matrix(0.9525, 0.000648045, -0.000648045, 0.9525, 952.687398, 270.72106)" fill-opacity="1" fill="#253237" fill-rule="nonzero" stroke-linejoin="round" d="M 13.229426 -55.236176 C -15.647694 -75.701278 -52.206028 -41.838635 -47.043703 -6.991417 C -54.560346 11.948248 -51.064928 31.975402 -42.008114 52.548313 C -17.236754 66.093635 39.967141 75.704488 54.560669 30.406655 C 51.431067 5.560517 48.211833 -18.416136 44.096296 -33.681548 C 40.751758 -48.943384 28.846898 -54.250246 13.229426 -55.236176 Z M 13.229426 -55.236176 " stroke="#253237" stroke-width="2" stroke-opacity="1" stroke-miterlimit="4"/><path stroke-linecap="butt" transform="matrix(0.9525, 0, 0, 0.9525, 1016.389755, 430.917118)" fill-opacity="1" fill="#d4d4d4" fill-rule="nonzero" stroke-linejoin="miter" d="M -6.860143 26.510081 C -4.481534 45.678389 16.950553 43.025009 14.576045 23.8526 C 14.576045 23.8526 7.48533 -45.680704 7.48533 -45.680704 C 7.48533 -45.680704 -16.952828 -34.246976 -16.952828 -34.246976 C -16.952828 -34.246976 -6.860143 26.510081 -6.860143 26.510081 Z M -6.860143 26.510081 " stroke="#253237" stroke-width="2" stroke-opacity="1" stroke-miterlimit="10"/><path stroke-linecap="round" transform="matrix(0.9525, 0, 0, 0.9525, 1014.422883, 374.995842)" fill-opacity="1" fill="#10c49f" fill-rule="nonzero" stroke-linejoin="round" d="M 0.38444 -33.521719 C 10.034211 -18.76204 15.882308 0.369359 18.695629 22.994852 C 18.695629 22.994852 -16.749747 33.522248 -16.749747 33.522248 C -16.749747 33.522248 -18.697746 5.946787 -18.697746 5.946787 C -18.267135 -15.829789 -14.211197 -32.328313 0.38444 -33.521719 Z M 0.38444 -33.521719 " stroke="#253237" stroke-width="2" stroke-opacity="1" stroke-miterlimit="4"/><path stroke-linecap="round" transform="matrix(0.9525, 0, 0, 0.9525, 1078.7928, 399.889423)" fill-opacity="1" fill="#d4d4d4" fill-rule="nonzero" stroke-linejoin="round" d="M -19.590539 10.684497 C -17.072494 3.581479 -13.155991 -3.451822 -8.583321 -10.452315 C -7.964062 -11.399657 -7.172559 -12.240373 -6.204712 -12.826823 C -4.642211 -13.765963 -3.354482 -13.659336 -2.288209 -12.679185 C -0.738012 -11.260222 -0.49605 -8.893916 -1.496706 -7.044342 C -1.496706 -7.044342 -6.155499 1.584267 -6.155499 1.584267 C -3.202743 -0.339125 -0.57397 -2.586501 1.821043 -5.075838 C 4.905033 -8.282859 6.812021 -12.383909 7.283642 -16.456252 C 7.369764 -17.178037 7.451785 -17.883418 7.529705 -18.572394 C 7.870092 -21.488241 11.163236 -23.132762 13.619765 -21.52515 C 14.612219 -20.877184 15.502147 -20.028267 16.301851 -18.978398 C 19.057757 -15.344868 19.590893 -10.481022 18.048899 -6.187223 C 16.055788 -0.626199 12.676523 4.922522 6.976063 10.450737 C 6.976063 10.450737 -8.337258 23.131184 -8.337258 23.131184 " stroke="#253237" stroke-width="2" stroke-opacity="1" stroke-miterlimit="4"/><path fill="#d4d4d4" d="M 1015.15625 451.566406 C 1004.410156 460.125 1017.355469 476.382812 1028.105469 467.824219 C 1028.105469 467.824219 1070.851562 421.921875 1070.851562 421.921875 C 1070.851562 421.921875 1060.132812 410.066406 1060.132812 410.066406 C 1060.132812 410.066406 1015.15625 451.566406 1015.15625 451.566406 Z M 1015.15625 451.566406 " fill-opacity="1" fill-rule="nonzero"/><path stroke-linecap="round" transform="matrix(0.9525, 0, 0, 0.9525, 1044.455114, 424.531559)" fill="none" stroke-linejoin="round" d="M -16.459602 15.189965 C -16.459602 15.189965 16.459527 -15.186512 16.459527 -15.186512 " stroke="#253237" stroke-width="2" stroke-opacity="1" stroke-miterlimit="4"/><path stroke-linecap="round" transform="matrix(0.9525, 0, 0, 0.9525, 1040.693858, 447.525813)" fill="none" stroke-linejoin="round" d="M -31.658579 12.612336 C -29.850016 22.499967 -20.626755 26.879889 -13.216157 21.314764 C -13.216157 21.314764 31.661634 -26.880777 31.661634 -26.880777 " stroke="#253237" stroke-width="2" stroke-opacity="1" stroke-miterlimit="4"/><path stroke-linecap="round" transform="matrix(0.9525, 0, 0, 0.9525, 935.155687, 689.626041)" fill-opacity="1" fill="#d4d4d4" fill-rule="nonzero" stroke-linejoin="round" d="M -6.958891 57.762197 C -5.847507 55.559933 -3.325361 54.325517 0.0703087 42.89179 C 2.895932 33.377353 -7.775 -16.913824 -11.818635 -43.88643 C -11.818635 -43.890531 -11.818635 -43.890531 -11.818635 -43.890531 C -13.979889 -56.123964 -11.888353 -70.547357 -11.125558 -75.456314 C -1.25433 -74.968289 6.189075 -75.124129 16.072606 -75.456314 C 16.261254 -71.416779 16.98714 -59.380197 17.167587 -55.389876 C 17.286517 -52.687284 17.364437 -50.029803 17.430054 -47.380525 C 17.430054 -47.380525 17.446458 -47.380525 17.446458 -47.380525 C 17.446458 -47.380525 19.402659 -19.370353 16.068505 4.731519 C 11.151346 40.271219 15.978282 49.625714 16.154627 50.257275 C 16.154627 50.257275 14.588026 59.127847 10.860171 59.931653 C 0.587041 62.150321 -5.412795 75.454127 -11.818635 74.108983 C -18.224476 72.763838 -19.401477 70.992185 -19.401477 70.992185 C -19.401477 70.992185 -9.423622 62.646548 -6.958891 57.762197 Z M -6.958891 57.762197 " stroke="#253237" stroke-width="2" stroke-opacity="1" stroke-miterlimit="4"/><path stroke-linecap="round" transform="matrix(0.9525, 0, 0, 0.9525, 928.869151, 755.099934)" fill-opacity="1" fill="#253237" fill-rule="nonzero" stroke-linejoin="round" d="M -9.688742 4.098659 C -12.801439 3.762373 -4.451701 -5.432182 -5.021747 -5.026178 C -5.587692 -4.620174 -24.386906 10.799775 -25.674635 14.293869 C -26.146256 15.581599 -25.18661 17.947905 -21.417745 18.214473 C -17.644779 18.481041 -5.239103 14.597347 -1.67529 13.276809 C 1.884421 11.956271 14.179369 -4.468435 16.816344 -5.715154 C 19.45332 -6.965974 19.859324 9.864735 20.449875 10.045181 C 20.449875 10.045181 22.516804 8.568803 22.516804 8.568803 C 22.516804 8.568803 26.146233 -8.807346 22.754665 -18.481723 C 22.754665 -18.481723 19.994658 -17.952688 13.588818 -11.32129 C 6.772873 -4.263382 -5.353932 4.570279 -9.688742 4.098659 Z M -9.688742 4.098659 " stroke="#253237" stroke-width="2" stroke-opacity="1" stroke-miterlimit="4"/><path stroke-linecap="butt" transform="matrix(0.9525, 0, 0, 0.9525, 897.311865, 428.575342)" fill-opacity="1" fill="#d4d4d4" fill-rule="nonzero" stroke-linejoin="miter" d="M 2.539217 27.615291 C -3.431912 45.987996 -23.974072 39.311486 -18.002943 20.938782 C -18.002943 20.938782 2.149617 -45.986254 2.149617 -45.986254 C 2.149617 -45.986254 23.975405 -30.127494 23.975405 -30.127494 C 23.975405 -30.127494 2.539217 27.615291 2.539217 27.615291 Z M 2.539217 27.615291 " stroke="#253237" stroke-width="2" stroke-opacity="1" stroke-miterlimit="10"/><path stroke-linecap="round" transform="matrix(0.9525, 0, 0, 0.9525, 909.79724, 375.792541)" fill-opacity="1" fill="#10c49f" fill-rule="nonzero" stroke-linejoin="round" d="M 6.872976 -34.538595 C -5.401467 -21.878653 -14.772366 -4.203127 -21.830273 17.475023 C -21.830273 17.475023 10.974026 34.539493 10.974026 34.539493 C 10.974026 34.539493 18.118056 7.833455 18.118056 7.833455 C 21.829506 -13.62734 20.976487 -30.597486 6.872976 -34.538595 Z M 6.872976 -34.538595 " stroke="#253237" stroke-width="2" stroke-opacity="1" stroke-miterlimit="4"/><path stroke-linecap="round" transform="matrix(0.9525, 0, 0, 0.9525, 976.648445, 752.056686)" fill-opacity="1" fill="#253237" fill-rule="nonzero" stroke-linejoin="round" d="M -7.652567 -28.122999 C -7.652567 -28.122999 -11.876649 -23.156627 -11.101551 -16.726181 C -10.330553 -10.291633 -9.510343 -2.27408 -10.646334 2.876839 C -11.786426 8.031859 -10.187016 18.702791 -3.075796 23.410797 C 4.035425 28.122903 9.690773 25.018408 10.785754 18.284484 C 11.876633 11.55056 7.185032 0.473623 7.185032 0.473623 C 7.185032 0.473623 -7.652567 -28.122999 -7.652567 -28.122999 Z M -7.652567 -28.122999 " stroke="#253237" stroke-width="2" stroke-opacity="1" stroke-miterlimit="4"/><path stroke-linecap="round" transform="matrix(0.9525, 0, 0, 0.9525, 976.901861, 679.359994)" fill-opacity="1" fill="#d4d4d4" fill-rule="nonzero" stroke-linejoin="round" d="M 10.05218 -10.499338 C 6.627804 16.67422 0.258873 44.479339 5.799392 71.939971 C 6.283315 74.351388 6.861564 76.795614 6.615501 79.243941 C 6.373539 81.692268 5.110415 84.20211 2.916353 85.128948 C 0.623866 86.096796 -2.107433 85.05923 -3.821672 83.205555 C -5.53181 81.351881 -6.405333 78.837937 -7.024592 76.3486 C -10.403857 62.778225 -7.52492 48.481964 -7.56183 34.464575 C -7.619244 14.394036 -12.83578 -4.786575 -14.796082 -24.60695 C -16.760485 -44.472437 -15.390734 -64.887464 -14.463897 -84.777557 C -5.515406 -85.22047 3.675048 -86.098095 12.553821 -84.814466 C 12.553821 -84.814466 15.617305 -68.233921 15.834661 -66.400751 C 16.548244 -60.368107 16.761498 -54.253441 16.404707 -48.183887 C 15.666518 -35.487036 11.639287 -23.105966 10.05218 -10.499338 Z M 10.05218 -10.499338 " stroke="#253237" stroke-width="2" stroke-opacity="1" stroke-miterlimit="4"/><path stroke-linecap="round" transform="matrix(0.9525, 0, 0, 0.9525, 959.38443, 556.213168)" fill-opacity="1" fill="#253237" fill-rule="nonzero" stroke-linejoin="round" d="M -36.283688 -101.167045 C -36.283688 -101.167045 35.037674 -102.569604 35.037674 -102.569604 C 60.296041 -65.992339 49.050962 15.716983 39.729275 95.043595 C 12.547515 102.569022 -14.699862 101.949763 -42.004653 93.292446 C -53.499896 15.573446 -60.295336 -57.617994 -36.283688 -101.167045 Z M -36.283688 -101.167045 " stroke="#253237" stroke-width="2" stroke-opacity="1" stroke-miterlimit="4"/><path stroke-linecap="round" transform="matrix(0.9525, 0, 0, 0.9525, 962.515206, 398.27537)" fill-opacity="1" fill="#10c49f" fill-rule="nonzero" stroke-linejoin="round" d="M -48.527285 -57.96217 C -38.598643 -63.990714 -28.263997 -67.956429 -17.277284 -68.649506 C -17.277284 -68.649506 -8.152447 -59.696914 -8.152447 -59.696914 C -8.152447 -59.696914 15.494207 -74.657545 15.494207 -74.657545 C 15.494207 -74.657545 54.880692 -57.96217 54.880692 -57.96217 C 41.388237 -17.287955 33.465009 23.123792 31.75077 63.240264 C 7.972881 74.657587 -15.800906 74.071137 -39.570592 64.646924 C -37.442147 41.750762 -36.658847 21.479271 -41.112587 11.456305 C -53.259897 2.663653 -54.883913 -14.097338 -45.836997 -38.929197 C -45.430993 -44.035004 -46.681813 -50.715614 -48.527285 -57.96217 Z M -48.527285 -57.96217 " stroke="#253237" stroke-width="2" stroke-opacity="1" stroke-miterlimit="4"/><path stroke-linecap="round" transform="matrix(0.9525, 0, 0, 0.9525, 961.66659, 316.421313)" fill-opacity="1" fill="#d4d4d4" fill-rule="nonzero" stroke-linejoin="round" d="M -16.386348 -10.358662 C -16.386348 -10.358662 -16.386348 17.290617 -16.386348 17.290617 C -16.386348 17.290617 -7.261512 26.235007 -7.261512 26.235007 C -7.261512 26.235007 16.385143 11.278478 16.385143 11.278478 C 16.385143 11.278478 16.159585 -26.237928 16.159585 -26.237928 C 16.159585 -26.237928 -16.386348 -10.358662 -16.386348 -10.358662 Z M -16.386348 -10.358662 " stroke="#253237" stroke-width="2" stroke-opacity="1" stroke-miterlimit="4"/><path stroke-linecap="round" transform="matrix(0.9525, 0, 0, 0.9525, 961.66659, 316.421313)" fill-opacity="1" fill="#d4d4d4" fill-rule="nonzero" stroke-linejoin="round" d="M -16.386348 -10.358662 C -16.386348 -10.358662 -16.386348 17.290617 -16.386348 17.290617 C -16.386348 17.290617 -7.261512 26.235007 -7.261512 26.235007 C -7.261512 26.235007 16.385143 11.278478 16.385143 11.278478 C 16.385143 11.278478 16.159585 -26.237928 16.159585 -26.237928 C 16.159585 -26.237928 -16.386348 -10.358662 -16.386348 -10.358662 Z M -16.386348 -10.358662 " stroke="#253237" stroke-width="2" stroke-opacity="1" stroke-miterlimit="4"/><path stroke-linecap="round" transform="matrix(0.9525, 0, 0, 0.9525, 961.271334, 305.817456)" fill-opacity="1" fill="#253237" fill-rule="nonzero" stroke-linejoin="round" d="M -15.96728 3.029574 C -15.96728 3.029574 -15.672005 12.179017 -15.672005 12.179017 C -2.167247 12.400474 9.881638 2.672783 15.967596 -12.595427 C 6.736133 -4.257992 -5.608028 2.549751 -15.96728 3.029574 Z M -15.96728 3.029574 " stroke="#253237" stroke-width="2" stroke-opacity="1" stroke-miterlimit="4"/><path stroke-linecap="round" transform="matrix(0.9525, 0, 0, 0.9525, 945.255967, 338.057348)" fill-opacity="1" fill="#10c49f" fill-rule="nonzero" stroke-linejoin="round" d="M 0.846754 -9.36549 C -7.593207 -5.8878 -9.967715 -1.922084 -8.155051 2.552161 C -7.043666 5.287562 -4.693764 7.317581 -1.929657 8.080377 C 2.729136 9.364005 6.539012 7.206853 9.96749 3.520009 C 9.96749 3.520009 0.846754 -5.424381 0.846754 -5.424381 C 0.846754 -5.424381 0.846754 -9.36549 0.846754 -9.36549 Z M 0.846754 -9.36549 " stroke="#253237" stroke-width="2" stroke-opacity="1" stroke-miterlimit="4"/><path stroke-linecap="round" transform="matrix(0.9525, 0, 0, 0.9525, 970.443893, 337.055336)" fill-opacity="1" fill="#10c49f" fill-rule="nonzero" stroke-linejoin="round" d="M -16.476529 4.57199 C -16.476529 4.57199 7.170125 -10.384539 7.170125 -10.384539 C 7.170125 -10.384539 7.170125 -13.423418 7.170125 -13.423418 C 16.475408 -5.70114 16.163728 1.668447 6.751818 8.714051 C -3.992933 13.422056 -11.235387 11.031144 -16.476529 4.57199 Z M -16.476529 4.57199 " stroke="#253237" stroke-width="2" stroke-opacity="1" stroke-miterlimit="4"/><path stroke-linecap="round" transform="matrix(0.9525, 0, 0, 0.9525, 950.50707, 411.161711)" fill="none" stroke-linejoin="round" d="M -23.092234 -1.801994 C -16.628979 0.375664 -9.665396 -1.363181 -3.083211 -3.07742 C -1.926714 -3.380898 -0.73741 -3.684376 0.447794 -3.532637 C 2.11282 -3.315281 3.55639 -2.240806 5.020464 -1.350878 C 10.491265 1.966871 16.880701 2.856799 23.093792 3.685211 " stroke="#253237" stroke-width="2" stroke-opacity="1" stroke-miterlimit="4"/><path stroke-linecap="round" transform="matrix(0.935151, -0.180968, 0.180968, 0.935151, 988.80418, 450.126381)" fill-opacity="1" fill="#d4d4d4" fill-rule="nonzero" stroke-linejoin="round" d="M -172.288152 91.190668 C -172.288152 91.190668 128.873468 -147.556984 128.873468 -147.556984 C 128.873468 -147.556984 172.286823 -93.46624 172.286823 -93.46624 C 172.286823 -93.46624 -130.526303 147.555816 -130.526303 147.555816 C -130.526303 147.555816 -172.288152 91.190668 -172.288152 91.190668 Z M -172.288152 91.190668 " stroke="#253237" stroke-width="2" stroke-opacity="1" stroke-miterlimit="4"/><path stroke-linecap="round" transform="matrix(0.935151, -0.180968, 0.180968, 0.935151, 855.506555, 598.75223)" fill-opacity="1" fill="#ffffff" fill-rule="nonzero" stroke-linejoin="round" d="M -36.83928 35.412687 C -36.83928 35.412687 -7.251246 -30.904553 -7.251246 -30.904553 C -7.251246 -30.904553 -5.246918 -35.412282 -5.246918 -35.412282 C -5.246918 -35.412282 4.484394 -33.203287 4.484394 -33.203287 C 4.484394 -33.203287 5.408502 -24.444621 5.408502 -24.444621 C 5.408502 -24.444621 12.091214 -22.930011 12.091214 -22.930011 C 12.091214 -22.930011 13.057954 -13.139697 13.057954 -13.139697 C 13.057954 -13.139697 20.345259 -11.792133 20.345259 -11.792133 C 20.345259 -11.792133 20.712211 -1.838021 20.712211 -1.838021 C 20.712211 -1.838021 28.716982 -0.485283 28.716982 -0.485283 C 28.716982 -0.485283 28.165101 7.741302 28.165101 7.741302 C 28.165101 7.741302 36.838803 10.472453 36.838803 10.472453 C 36.838803 10.472453 36.518957 20.953646 36.518957 20.953646 C 36.518957 20.953646 -36.83928 35.412687 -36.83928 35.412687 Z M -36.83928 35.412687 " stroke="#253237" stroke-width="2" stroke-opacity="1" stroke-miterlimit="4"/><path stroke-linecap="round" transform="matrix(0.935151, -0.180968, 0.180968, 0.935151, 969.584549, 448.223541)" fill-opacity="1" fill="#d4d4d4" fill-rule="nonzero" stroke-linejoin="round" d="M 118.705366 -93.972444 C 118.705366 -93.972444 117.988004 -94.863151 117.988004 -94.863151 C 117.988004 -94.863151 -118.703814 94.864758 -118.703814 94.864758 " stroke="#253237" stroke-width="2" stroke-opacity="1" stroke-miterlimit="4"/><path stroke-linecap="round" transform="matrix(0.935151, -0.180968, 0.180968, 0.935151, 990.461332, 467.362868)" fill-opacity="1" fill="#d4d4d4" fill-rule="nonzero" stroke-linejoin="round" d="M 118.876019 -93.741707 C 118.876019 -93.741707 118.162683 -94.631634 118.162683 -94.631634 C 118.162683 -94.631634 -118.873854 94.632738 -118.873854 94.632738 " stroke="#253237" stroke-width="2" stroke-opacity="1" stroke-miterlimit="4"/><path stroke-linecap="round" transform="matrix(0.935151, -0.180968, 0.180968, 0.935151, 834.39366, 629.418684)" fill-opacity="1" fill="#253237" fill-rule="nonzero" stroke-linejoin="round" d="M -1.805591 -8.019398 C -1.805591 -8.019398 8.961574 4.486188 8.961574 4.486188 C 8.961574 4.486188 -8.961068 8.018721 -8.961068 8.018721 C -8.961068 8.018721 -1.805591 -8.019398 -1.805591 -8.019398 Z M -1.805591 -8.019398 " stroke="#253237" stroke-width="2" stroke-opacity="1" stroke-miterlimit="4"/><path stroke-linecap="round" transform="matrix(0.935151, -0.180968, 0.180968, 0.935151, 1083.804456, 384.537509)" fill-opacity="1" fill="#d4d4d4" fill-rule="nonzero" stroke-linejoin="round" d="M 11.567307 -0.132475 C 11.567307 -0.132475 6.438755 -10.49843 6.438755 -10.49843 C 5.528488 -12.399739 3.694015 -13.281061 1.7633 -14.11835 C -1.423904 -15.499546 -4.167485 -14.230131 -6.57786 -10.991463 C -9.02655 -7.705906 -10.205234 -3.644084 -10.204592 0.453809 C -10.204592 0.453809 -10.204794 15.499809 -10.204794 15.499809 " stroke="#253237" stroke-width="2" stroke-opacity="1" stroke-miterlimit="4"/><path stroke-linecap="round" transform="matrix(0.901051, 0.30881, -0.30881, 0.901051, 955.348326, 509.102346)" fill-opacity="1" fill="#d4d4d4" fill-rule="nonzero" stroke-linejoin="round" d="M -18.478342 -14.043454 C -10.837577 -14.581207 -2.696645 -13.786058 5.684289 -12.366523 C 6.81682 -12.173748 7.923834 -11.777142 8.863226 -11.110663 C 10.370177 -10.040439 10.793099 -8.793779 10.315879 -7.403359 C 9.620894 -5.383399 7.513033 -4.197121 5.383279 -4.377603 C 5.383279 -4.377603 -4.54648 -5.218634 -4.54648 -5.218634 C -1.556056 -3.247884 1.607108 -1.709164 4.894673 -0.490532 C 9.137184 1.085783 13.730458 1.193632 17.719929 -0.0175792 C 18.422343 -0.232301 19.114448 -0.439153 19.784496 -0.647117 C 22.643366 -1.514199 25.509044 0.889475 25.008581 3.831197 C 24.807154 5.014381 24.378728 6.192993 23.725855 7.361824 C 21.457927 11.407845 17.144432 13.874603 12.51575 14.182065 C 6.526063 14.578808 -0.0140064 13.685872 -7.477657 10.616717 C -7.477657 10.616717 -25.50898 1.493132 -25.50898 1.493132 " stroke="#253237" stroke-width="2" stroke-opacity="1" stroke-miterlimit="4"/><path fill="#d4d4d4" d="M 897.316406 448.574219 C 887.765625 438.390625 872.355469 452.835938 881.90625 463.023438 C 881.90625 463.023438 931.902344 502.570312 931.902344 502.570312 C 931.902344 502.570312 943.035156 490.742188 943.035156 490.742188 C 943.035156 490.742188 897.316406 448.574219 897.316406 448.574219 Z M 897.316406 448.574219 " fill-opacity="1" fill-rule="nonzero"/><path stroke-linecap="round" transform="matrix(0.901051, 0.30881, -0.30881, 0.901051, 922.295648, 471.613508)" fill="none" stroke-linejoin="round" d="M -27.110231 -11.938537 C -27.110231 -11.938537 27.108634 11.93858 27.108634 11.93858 " stroke="#253237" stroke-width="2" stroke-opacity="1" stroke-miterlimit="4"/><path stroke-linecap="round" transform="matrix(0.901051, 0.30881, -0.30881, 0.901051, 906.501057, 471.929516)" fill="none" stroke-linejoin="round" d="M -34.16287 -16.305615 C -34.060736 -8.493878 -35.65601 -5.116247 -27.461898 -0.472311 C -27.461898 -0.472311 35.656996 21.785194 35.656996 21.785194 " stroke="#253237" stroke-width="2" stroke-opacity="1" stroke-miterlimit="4"/><path fill="#253237" d="M 973.6875 291.75 C 973.6875 291.75 945.5625 299.25 945.5625 299.25 C 945.5625 299.25 945 313.6875 945 313.6875 C 945 313.6875 964.5 307.125 964.5 307.125 C 964.5 307.125 974.625 295.6875 974.625 295.6875 C 974.625 295.6875 973.6875 291.75 973.6875 291.75 Z M 973.6875 291.75 " fill-opacity="1" fill-rule="nonzero"/><path stroke-linecap="round" transform="matrix(0.9525, 0.000648045, -0.000648045, 0.9525, 943.382311, 270.865202)" fill-opacity="1" fill="#d4d4d4" fill-rule="nonzero" stroke-linejoin="round" d="M -26.986225 -20.784185 C -36.622633 41.053914 4.25372 54.842543 35.273312 23.591937 C 35.273312 23.591937 36.623684 -4.89078 36.623684 -4.89078 C 36.623684 -4.89078 36.623082 -23.858139 36.623082 -23.858139 C 24.159415 -54.8413 -20.048927 -47.363714 -26.986225 -20.784185 Z M -26.986225 -20.784185 " stroke="#253237" stroke-width="2" stroke-opacity="1" stroke-miterlimit="4"/><path stroke-linecap="round" transform="matrix(0.9525, 0.000648045, -0.000648045, 0.9525, 983.914421, 273.229283)" fill-opacity="1" fill="#d4d4d4" fill-rule="nonzero" stroke-linejoin="round" d="M -5.92729 -7.343806 C 1.463793 -11.917405 5.774528 -11.137037 6.570727 -4.23551 C 6.822369 -2.062124 6.594215 0.148497 6.050215 2.26501 C 3.681997 11.510389 -1.444041 11.91578 -6.820795 11.509333 C -6.820795 11.509333 -5.92729 -7.343806 -5.92729 -7.343806 Z M -5.92729 -7.343806 " stroke="#253237" stroke-width="2" stroke-opacity="1" stroke-miterlimit="4"/><path stroke-linecap="round" transform="matrix(0.9525, 0.000648045, -0.000648045, 0.9525, 948.177799, 240.599933)" fill-opacity="1" fill="#253237" fill-rule="nonzero" stroke-linejoin="round" d="M 8.986154 -7.837411 C 8.916324 10.080128 17.392933 21.750052 31.612264 29.228897 C 31.612264 29.228897 35.659387 -7.839154 35.659387 -7.839154 C -1.805962 -29.229351 -19.12787 -15.80713 -35.661454 -1.027997 C -35.661454 -1.027997 -31.999239 10.993792 -31.999239 10.993792 C -17.002783 9.396483 -2.984714 4.363158 8.986154 -7.837411 Z M 8.986154 -7.837411 " stroke="#253237" stroke-width="2" stroke-opacity="1" stroke-miterlimit="4"/><path stroke-linecap="round" transform="matrix(0.9525, 0.000648045, -0.000648045, 0.9525, 943.382311, 270.865202)" fill-opacity="1" fill="#d4d4d4" fill-rule="nonzero" stroke-linejoin="round" d="M -26.986225 -20.784185 C -36.622633 41.053914 4.25372 54.842543 35.273312 23.591937 C 35.273312 23.591937 36.623684 -4.89078 36.623684 -4.89078 C 36.623684 -4.89078 36.623082 -23.858139 36.623082 -23.858139 C 24.159415 -54.8413 -20.048927 -47.363714 -26.986225 -20.784185 Z M -26.986225 -20.784185 " stroke="#253237" stroke-width="2" stroke-opacity="1" stroke-miterlimit="4"/><path stroke-linecap="round" transform="matrix(0.9525, 0.000648045, -0.000648045, 0.9525, 983.914421, 273.229283)" fill-opacity="1" fill="#d4d4d4" fill-rule="nonzero" stroke-linejoin="round" d="M -5.92729 -7.343806 C 1.463793 -11.917405 5.774528 -11.137037 6.570727 -4.23551 C 6.822369 -2.062124 6.594215 0.148497 6.050215 2.26501 C 3.681997 11.510389 -1.444041 11.91578 -6.820795 11.509333 C -6.820795 11.509333 -5.92729 -7.343806 -5.92729 -7.343806 Z M -5.92729 -7.343806 " stroke="#253237" stroke-width="2" stroke-opacity="1" stroke-miterlimit="4"/><path stroke-linecap="round" transform="matrix(0.9525, 0.000648045, -0.000648045, 0.9525, 948.177799, 240.599933)" fill-opacity="1" fill="#253237" fill-rule="nonzero" stroke-linejoin="round" d="M 8.986154 -7.837411 C 8.916324 10.080128 17.392933 21.750052 31.612264 29.228897 C 31.612264 29.228897 35.659387 -7.839154 35.659387 -7.839154 C -1.805962 -29.229351 -19.12787 -15.80713 -35.661454 -1.027997 C -35.661454 -1.027997 -31.999239 10.993792 -31.999239 10.993792 C -17.002783 9.396483 -2.984714 4.363158 8.986154 -7.837411 Z M 8.986154 -7.837411 " stroke="#253237" stroke-width="2" stroke-opacity="1" stroke-miterlimit="4"/><path stroke-linecap="round" transform="matrix(0.9525, 0.000648045, -0.000648045, 0.9525, 935.946511, 271.713609)" fill="none" stroke-linejoin="round" d="M 0.962142 -12.564978 C 0.28468 -1.668025 -1.391725 5.719108 -3.853288 10.375476 C -2.350971 12.334756 0.577337 12.566523 3.853947 12.375646 " stroke="#253237" stroke-width="2" stroke-opacity="1" stroke-miterlimit="4"/><path stroke-linecap="round" transform="matrix(0.9525, 0.000648045, -0.000648045, 0.9525, 955.55679, 256.082117)" fill="none" stroke-linejoin="round" d="M -6.015428 -1.587205 C -1.037047 -2.021202 2.782067 -0.49821 6.01541 2.021737 " stroke="#253237" stroke-width="2" stroke-opacity="1" stroke-miterlimit="4"/><path stroke-linecap="round" transform="matrix(0.9525, 0.000648045, -0.000648045, 0.9525, 926.249264, 254.770584)" fill="none" stroke-linejoin="round" d="M -4.480631 1.535736 C -1.492534 -0.771087 1.496612 -1.535916 4.4827 -0.766951 " stroke="#253237" stroke-width="2" stroke-opacity="1" stroke-miterlimit="4"/><path stroke-linecap="round" transform="matrix(0.9525, 0.000648045, -0.000609605, 0.896001, 951.21927, 267.033844)" fill-opacity="1" fill="#253237" fill-rule="nonzero" stroke-linejoin="round" d="M 1.926948 0.0000706869 C 1.928318 2.140658 1.064104 3.872065 -0.00216873 3.872836 C -1.06434 3.873604 -1.926671 2.139087 -1.928041 -0.00150079 C -1.929408 -2.137729 -1.065198 -3.873495 -0.00302587 -3.874263 C 1.063247 -3.875034 1.929679 -2.14052 1.926948 0.0000706869 Z M 1.926948 0.0000706869 " stroke="#253237" stroke-width="2" stroke-opacity="1" stroke-miterlimit="4"/><path stroke-linecap="round" transform="matrix(0.9525, 0.000648045, -0.000609605, 0.896001, 953.971902, 264.355816)" fill-opacity="1" fill="#253237" fill-rule="nonzero" stroke-linejoin="round" d="M -2.886944 -0.931265 C -0.680513 -0.828229 1.226224 -1.221977 2.886635 -2.025354 C 2.469444 -0.281192 0.895426 0.945009 -1.014974 2.023224 C -1.014974 2.023224 -2.886944 -0.931265 -2.886944 -0.931265 Z M -2.886944 -0.931265 " stroke="#253237" stroke-width="2" stroke-opacity="1" stroke-miterlimit="4"/><path stroke-linecap="round" transform="matrix(0.9525, 0.000648045, -0.000609605, 0.896001, 928.07792, 266.139909)" fill-opacity="1" fill="#253237" fill-rule="nonzero" stroke-linejoin="round" d="M -1.92728 -0.00216662 C -1.92591 2.138421 -1.063579 3.872938 -0.00140713 3.87217 C 1.064866 3.871399 1.924978 2.139995 1.927709 -0.000595148 C 1.926342 -2.136823 1.064011 -3.87134 0.00183679 -3.874932 C -1.064436 -3.87416 -1.928647 -2.138394 -1.92728 -0.00216662 Z M -1.92728 -0.00216662 " stroke="#253237" stroke-width="2" stroke-opacity="1" stroke-miterlimit="4"/><path stroke-linecap="round" transform="matrix(0.9525, 0.000648045, -0.000609605, 0.896001, 925.329872, 263.471052)" fill-opacity="1" fill="#253237" fill-rule="nonzero" stroke-linejoin="round" d="M 2.888813 -0.928904 C 0.678409 -0.831393 -1.22883 -1.222382 -2.886167 -2.023359 C -2.470845 -0.279799 -0.895256 0.948483 1.016522 2.023934 C 1.016522 2.023934 2.888813 -0.928904 2.888813 -0.928904 Z M 2.888813 -0.928904 " stroke="#253237" stroke-width="2" stroke-opacity="1" stroke-miterlimit="4"/><path stroke-linecap="round" transform="matrix(0.9525, 0.000648045, -0.000648045, 0.9525, 949.79679, 291.404537)" fill-opacity="1" fill="#253237" fill-rule="nonzero" stroke-linejoin="round" d="M 9.421438 -4.21229 C 9.90241 -2.522984 6.895959 2.945762 1.69273 4.421579 C -3.5146 5.897399 -8.942381 2.825304 -9.423353 1.135998 C -9.900222 -0.549209 -5.348068 -0.56871 -0.144839 -2.044528 C 5.058388 -3.524446 8.944569 -5.897497 9.421438 -4.21229 Z M 9.421438 -4.21229 " stroke="#253237" stroke-width="2" stroke-opacity="1" stroke-miterlimit="4"/></svg>