<svg xmlns="http://www.w3.org/2000/svg" xmlns:xlink="http://www.w3.org/1999/xlink" width="1920" zoomAndPan="magnify" viewBox="0 0 1440 809.999993" height="1080" preserveAspectRatio="xMidYMid meet" version="1.0"><path stroke-linecap="round" transform="matrix(0.749936, 0.0098168, -0.0098168, 0.749936, 725.613546, 420.226487)" fill-opacity="1" fill="#ffffff" fill-rule="nonzero" stroke-linejoin="round" d="M 186.455366 44.339416 C 186.455366 44.339416 186.456161 -44.334862 186.456161 -44.334862 C 186.456161 -44.334862 139.384369 -44.338528 139.384369 -44.338528 C 136.863674 -52.269756 133.685259 -59.9111 129.90202 -67.200748 C 129.90202 -67.200748 163.203476 -100.493653 163.203476 -100.493653 C 163.203476 -100.493653 100.502413 -163.193954 100.502413 -163.193954 C 100.502413 -163.193954 67.206233 -129.895909 67.206233 -129.895909 C 59.921553 -133.691509 52.280296 -136.873015 44.329949 -139.394168 C 44.329949 -139.394168 44.328475 -186.460683 44.328475 -186.460683 C 44.328475 -186.460683 -44.324971 -186.461751 -44.324971 -186.461751 C -44.324971 -186.461751 -44.328705 -139.395167 -44.328705 -139.395167 C -52.275557 -136.874268 -59.922041 -133.690576 -67.206344 -129.89699 C -67.206344 -129.89699 -100.504389 -163.19317 -100.504389 -163.19317 C -100.504389 -163.19317 -163.19955 -100.497383 -163.19955 -100.497383 C -163.19955 -100.497383 -129.901505 -67.201203 -129.901505 -67.201203 C -133.681414 -59.911519 -136.868127 -52.270195 -139.384278 -44.335539 C -139.384278 -44.335539 -186.456 -44.333997 -186.456 -44.333997 C -186.456 -44.333997 -186.456863 44.335073 -186.456863 44.335073 C -186.456863 44.335073 -139.385072 44.338739 -139.385072 44.338739 C -136.864377 52.269967 -133.701585 59.911516 -129.902722 67.200959 C -129.902722 67.200959 -163.198903 100.499004 -163.198903 100.499004 C -163.198903 100.499004 -100.503116 163.194165 -100.503116 163.194165 C -100.503116 163.194165 -67.206935 129.896119 -67.206935 129.896119 C -59.922255 133.69172 -52.275791 136.873158 -44.325443 139.394311 C -44.325443 139.394311 -44.329109 186.466102 -44.329109 186.466102 C -44.329109 186.466102 44.329477 186.461893 44.329477 186.461893 C 44.329477 186.461893 44.328003 139.395378 44.328003 139.395378 C 52.280062 136.874411 59.921338 133.690787 67.205642 129.897201 C 67.205642 129.897201 100.503687 163.193381 100.503687 163.193381 C 100.503687 163.193381 163.198848 100.497594 163.198848 100.497594 C 163.198848 100.497594 129.90601 67.201345 129.90601 67.201345 C 133.701543 59.911457 136.867425 52.270405 139.383575 44.33575 C 139.383575 44.33575 186.455366 44.339416 186.455366 44.339416 Z M 66.202155 3.498459 C 65.386471 19.177146 59.11885 33.39061 49.282132 44.338011 C 47.716155 46.072198 46.065761 47.72415 44.330882 49.288659 C 33.380642 59.130748 19.148651 65.374858 3.49137 66.194451 C 2.330489 66.246108 1.17461 66.282074 0.0026313 66.281789 C -1.174556 66.281573 -2.331389 66.244628 -3.488426 66.19206 C -19.151489 65.376171 -33.380304 59.129586 -44.327704 49.292868 C -46.061892 47.726891 -47.713912 46.071289 -49.283629 44.336478 C -59.120441 33.391378 -65.385179 19.175284 -66.199836 3.497103 C -66.251426 2.341429 -66.287392 1.185551 -66.287175 0.00836409 C -66.28689 -1.163615 -66.255221 -2.325588 -66.202858 -3.498248 C -65.387174 -19.176936 -59.119553 -33.3904 -49.282834 -44.3378 C -47.716857 -46.071987 -46.066463 -47.723939 -44.326376 -49.288516 C -33.381344 -59.130537 -19.149422 -65.379855 -3.492073 -66.19424 C -2.331191 -66.245898 -1.175245 -66.276655 0.00194222 -66.276439 C 1.173853 -66.281362 2.330686 -66.244417 3.487655 -66.197057 C 19.150787 -65.37596 33.384809 -59.129444 44.32707 -49.287449 C 46.066465 -47.72154 47.718417 -46.071146 49.282926 -44.336267 C 59.119739 -33.391167 65.384476 -19.175073 66.204342 -3.496961 C 66.256136 -2.325663 66.286962 -1.164509 66.286677 0.00747049 C 66.28646 1.184658 66.254723 2.341422 66.202155 3.498459 Z M 66.202155 3.498459 " stroke="#253237" stroke-width="2" stroke-opacity="1" stroke-miterlimit="4"/><path stroke-linecap="round" transform="matrix(0.749936, 0.0098168, -0.0098168, 0.749936, 392.930055, 290.859029)" fill-opacity="1" fill="#ffffff" fill-rule="nonzero" stroke-linejoin="round" d="M 186.455165 44.334569 C 186.455165 44.334569 186.456028 -44.3345 186.456028 -44.3345 C 186.456028 -44.3345 139.384236 -44.338166 139.384236 -44.338166 C 136.863541 -52.269394 133.685126 -59.910738 129.907095 -67.200454 C 129.907095 -67.200454 163.203275 -100.498499 163.203275 -100.498499 C 163.203275 -100.498499 100.507488 -163.19366 100.507488 -163.19366 C 100.507488 -163.19366 67.2061 -129.895547 67.2061 -129.895547 C 59.92142 -133.691147 52.280163 -136.872653 44.329816 -139.393807 C 44.329816 -139.393807 44.328274 -186.465529 44.328274 -186.465529 C 44.328274 -186.465529 -44.325172 -186.466597 -44.325172 -186.466597 C -44.325172 -186.466597 -44.328838 -139.394806 -44.328838 -139.394806 C -52.27569 -136.873906 -59.922174 -133.690214 -67.206477 -129.896628 C -67.206477 -129.896628 -100.504522 -163.192808 -100.504522 -163.192808 C -100.504522 -163.192808 -163.199683 -100.497021 -163.199683 -100.497021 C -163.199683 -100.497021 -129.901638 -67.200841 -129.901638 -67.200841 C -133.681547 -59.911157 -136.863053 -52.269901 -139.384411 -44.335177 C -139.384411 -44.335177 -186.456133 -44.333635 -186.456133 -44.333635 C -186.456133 -44.333635 -186.451788 44.335367 -186.451788 44.335367 C -186.451788 44.335367 -139.385205 44.339101 -139.385205 44.339101 C -136.86451 52.270329 -133.69651 59.911809 -129.902924 67.196112 C -129.902924 67.196112 -163.199036 100.499365 -163.199036 100.499365 C -163.199036 100.499365 -100.503249 163.194526 -100.503249 163.194526 C -100.503249 163.194526 -67.207068 129.896481 -67.207068 129.896481 C -59.922388 133.692082 -52.275924 136.873519 -44.325576 139.394673 C -44.325576 139.394673 -44.329242 186.466464 -44.329242 186.466464 C -44.329242 186.466464 44.329344 186.462255 44.329344 186.462255 C 44.329344 186.462255 44.327802 139.390532 44.327802 139.390532 C 52.279929 136.874772 59.921205 133.691149 67.205509 129.897562 C 67.205509 129.897562 100.503554 163.193742 100.503554 163.193742 C 100.503554 163.193742 163.203923 100.497887 163.203923 100.497887 C 163.203923 100.497887 129.905809 67.196499 129.905809 67.196499 C 133.70141 59.911819 136.867292 52.270767 139.383442 44.336111 C 139.383442 44.336111 186.455165 44.334569 186.455165 44.334569 Z M 66.202022 3.498821 C 65.386338 19.177508 59.123925 33.390904 49.281999 44.338372 C 47.716022 46.07256 46.065628 47.724512 44.330749 49.289021 C 33.380509 59.131109 19.153726 65.375152 3.491237 66.194813 C 2.335564 66.246402 1.174477 66.282436 0.0024983 66.282151 C -1.174689 66.281934 -2.331521 66.24499 -3.488559 66.192421 C -19.151622 65.376533 -33.380437 59.129948 -44.327837 49.29323 C -46.062025 47.727253 -47.714045 46.071651 -49.278554 44.336772 C -59.120574 33.39174 -65.385312 19.175646 -66.199969 3.497465 C -66.251559 2.341791 -66.287593 1.180705 -66.287308 0.00872585 C -66.287091 -1.168461 -66.255354 -2.325226 -66.202991 -3.497887 C -65.387307 -19.176574 -59.119686 -33.390038 -49.282967 -44.337438 C -47.71699 -46.071625 -46.066596 -47.723577 -44.326509 -49.288154 C -33.381477 -59.130175 -19.149555 -65.379493 -3.486998 -66.193946 C -2.331324 -66.245536 -1.175446 -66.281502 0.00174105 -66.281285 C 1.17372 -66.281 2.330553 -66.244055 3.49273 -66.196763 C 19.150654 -65.375599 33.384676 -59.129082 44.326869 -49.292295 C 46.066264 -47.726386 47.718284 -46.070784 49.282793 -44.335905 C 59.119606 -33.390805 65.389551 -19.17478 66.204209 -3.496599 C 66.256003 -2.325301 66.286829 -1.164147 66.286544 0.00783226 C 66.291535 1.184951 66.25459 2.341784 66.202022 3.498821 Z M 66.202022 3.498821 " stroke="#253237" stroke-width="2" stroke-opacity="1" stroke-miterlimit="4"/><path stroke-linecap="butt" transform="matrix(0.75, 0, 0, 0.75, 680.354732, 123.429563)" fill-opacity="1" fill="#253237" fill-rule="nonzero" stroke-linejoin="miter" d="M 69.178069 63.96371 C 69.178069 63.96371 -69.176104 63.96371 -69.176104 63.96371 C -78.624022 63.96371 -86.280272 56.302252 -86.280272 46.854335 C -86.280272 46.854335 -86.280272 -46.854004 -86.280272 -46.854004 C -86.280272 -56.301921 -78.624022 -63.963379 -69.176104 -63.963379 C -69.176104 -63.963379 69.178069 -63.963379 69.178069 -63.963379 C 78.625986 -63.963379 86.282237 -56.301921 86.282237 -46.854004 C 86.282237 -46.854004 86.282237 46.854335 86.282237 46.854335 C 86.282237 56.302252 78.625986 63.96371 69.178069 63.96371 Z M 69.178069 63.96371 " stroke="#253237" stroke-width="2" stroke-opacity="1" stroke-miterlimit="10"/><path stroke-linecap="butt" transform="matrix(0.75, 0, 0, 0.75, 670.568708, 113.643566)" fill-opacity="1" fill="#ffffff" fill-rule="nonzero" stroke-linejoin="miter" d="M 69.174017 63.959623 C 69.174017 63.959623 -69.174948 63.959623 -69.174948 63.959623 C -78.622865 63.959623 -86.284324 56.303373 -86.284324 46.855456 C -86.284324 46.855456 -86.284324 -46.858091 -86.284324 -46.858091 C -86.284324 -56.3008 -78.622865 -63.962258 -69.174948 -63.962258 C -69.174948 -63.962258 69.174017 -63.962258 69.174017 -63.962258 C 78.621934 -63.962258 86.283393 -56.3008 86.283393 -46.858091 C 86.283393 -46.858091 86.283393 46.855456 86.283393 46.855456 C 86.283393 56.303373 78.621934 63.959623 69.174017 63.959623 Z M 69.174017 63.959623 " stroke="#253237" stroke-width="2" stroke-opacity="1" stroke-miterlimit="10"/><path stroke-linecap="round" transform="matrix(0.75, 0, 0, 0.75, 670.569524, 113.643566)" fill="none" stroke-linejoin="round" d="M 52.829178 36.016913 C 52.829178 36.016913 -53.920827 33.985663 -53.920827 33.985663 C -53.920827 33.985663 -52.827077 -36.019549 -52.827077 -36.019549 C -52.827077 -36.019549 53.922928 -33.98309 53.922928 -33.98309 C 53.922928 -33.98309 52.829178 36.016913 52.829178 36.016913 Z M 52.829178 36.016913 " stroke="#253237" stroke-width="2" stroke-opacity="1" stroke-miterlimit="4"/><path stroke-linecap="round" transform="matrix(0.75, 0, 0, 0.75, 670.978964, 100.136813)" fill="none" stroke-linejoin="round" d="M -53.372997 -18.010544 C -53.372997 -18.010544 -0.550078 18.010291 -0.550078 18.010291 C -0.550078 18.010291 53.3718 -15.974085 53.3718 -15.974085 " stroke="#253237" stroke-width="2" stroke-opacity="1" stroke-miterlimit="4"/><path stroke-linecap="round" transform="matrix(0.75, 0, 0, 0.75, 646.07071, 123.471561)" fill="none" stroke-linejoin="round" d="M -21.255739 20.88167 C -21.255739 20.88167 21.25468 -20.878749 21.25468 -20.878749 " stroke="#253237" stroke-width="2" stroke-opacity="1" stroke-miterlimit="4"/><path stroke-linecap="round" transform="matrix(0.75, 0, 0, 0.75, 694.745707, 124.398573)" fill="none" stroke-linejoin="round" d="M 20.594266 21.676904 C 20.594266 21.676904 -20.593236 -21.677265 -20.593236 -21.677265 " stroke="#253237" stroke-width="2" stroke-opacity="1" stroke-miterlimit="4"/><path stroke-linecap="butt" transform="matrix(0.75, 0, 0, 0.75, 900.092001, 203.969643)" fill-opacity="1" fill="#253237" fill-rule="nonzero" stroke-linejoin="miter" d="M 69.174211 63.962355 C 69.174211 63.962355 -69.174755 63.962355 -69.174755 63.962355 C -78.622672 63.962355 -86.284131 56.300896 -86.284131 46.858187 C -86.284131 46.858187 -86.284131 -46.855359 -86.284131 -46.855359 C -86.284131 -56.303276 -78.622672 -63.959527 -69.174755 -63.959527 C -69.174755 -63.959527 69.174211 -63.959527 69.174211 -63.959527 C 78.622128 -63.959527 86.283586 -56.303276 86.283586 -46.855359 C 86.283586 -46.855359 86.283586 46.858187 86.283586 46.858187 C 86.283586 56.300896 78.622128 63.962355 69.174211 63.962355 Z M 69.174211 63.962355 " stroke="#253237" stroke-width="2" stroke-opacity="1" stroke-miterlimit="10"/><path stroke-linecap="butt" transform="matrix(0.75, 0, 0, 0.75, 890.305977, 195.162373)" fill-opacity="1" fill="#ffffff" fill-rule="nonzero" stroke-linejoin="miter" d="M 69.175367 63.96059 C 69.175367 63.96059 -69.173598 63.96059 -69.173598 63.96059 C -78.621516 63.96059 -86.282974 56.304339 -86.282974 46.856422 C -86.282974 46.856422 -86.282974 -46.857124 -86.282974 -46.857124 C -86.282974 -56.305041 -78.621516 -63.961292 -69.173598 -63.961292 C -69.173598 -63.961292 69.175367 -63.961292 69.175367 -63.961292 C 78.623284 -63.961292 86.279534 -56.305041 86.279534 -46.857124 C 86.279534 -46.857124 86.279534 46.856422 86.279534 46.856422 C 86.279534 56.304339 78.623284 63.96059 69.175367 63.96059 Z M 69.175367 63.96059 " stroke="#253237" stroke-width="2" stroke-opacity="1" stroke-miterlimit="10"/><path fill="#253237" d="M 917.800781 202.035156 C 917.800781 202.035156 875.871094 202.035156 875.871094 202.035156 C 875.273438 202.035156 874.789062 201.554688 874.789062 200.964844 C 874.789062 200.371094 875.273438 199.894531 875.871094 199.894531 C 875.871094 199.894531 916.898438 199.894531 916.898438 199.894531 C 916.898438 199.894531 921.519531 174.007812 921.519531 174.007812 C 921.519531 174.007812 871.917969 174.007812 871.917969 174.007812 C 871.320312 174.007812 870.835938 173.53125 870.835938 172.9375 C 870.835938 172.347656 871.320312 171.867188 871.917969 171.867188 C 871.917969 171.867188 922.808594 171.867188 922.808594 171.867188 C 923.128906 171.867188 923.433594 172.007812 923.636719 172.25 C 923.84375 172.492188 923.929688 172.8125 923.875 173.125 C 923.875 173.125 918.867188 201.152344 918.867188 201.152344 C 918.773438 201.664062 918.324219 202.035156 917.800781 202.035156 Z M 917.800781 202.035156 " fill-opacity="1" fill-rule="nonzero"/><path fill="#253237" d="M 916.414062 211.839844 C 916.414062 211.839844 916.410156 211.839844 916.410156 211.839844 C 916.410156 211.839844 876.472656 211.703125 876.472656 211.703125 C 875.929688 211.703125 875.476562 211.300781 875.40625 210.769531 C 875.40625 210.769531 869.679688 166.546875 869.679688 166.546875 C 869.679688 166.546875 857.800781 166.546875 857.800781 166.546875 C 857.203125 166.546875 856.722656 166.070312 856.722656 165.476562 C 856.722656 164.886719 857.203125 164.40625 857.800781 164.40625 C 857.800781 164.40625 870.628906 164.40625 870.628906 164.40625 C 871.171875 164.40625 871.632812 164.808594 871.699219 165.339844 C 871.699219 165.339844 877.429688 209.566406 877.429688 209.566406 C 877.429688 209.566406 916.417969 209.699219 916.417969 209.699219 C 917.015625 209.699219 917.496094 210.179688 917.496094 210.773438 C 917.492188 211.363281 917.007812 211.839844 916.414062 211.839844 Z M 916.414062 211.839844 " fill-opacity="1" fill-rule="nonzero"/><path fill="#253237" d="M 882.992188 225.917969 C 879.65625 225.917969 876.941406 223.230469 876.941406 219.921875 C 876.941406 216.617188 879.65625 213.925781 882.992188 213.925781 C 886.328125 213.925781 889.046875 216.617188 889.046875 219.921875 C 889.046875 223.230469 886.328125 225.917969 882.992188 225.917969 Z M 882.992188 216.066406 C 880.847656 216.066406 879.101562 217.796875 879.101562 219.921875 C 879.101562 222.046875 880.847656 223.777344 882.992188 223.777344 C 885.140625 223.777344 886.882812 222.046875 886.882812 219.921875 C 886.882812 217.796875 885.140625 216.066406 882.992188 216.066406 Z M 882.992188 216.066406 " fill-opacity="1" fill-rule="nonzero"/><path fill="#253237" d="M 910.558594 225.917969 C 907.21875 225.917969 904.503906 223.230469 904.503906 219.921875 C 904.503906 216.617188 907.21875 213.925781 910.558594 213.925781 C 913.894531 213.925781 916.609375 216.617188 916.609375 219.921875 C 916.609375 223.230469 913.894531 225.917969 910.558594 225.917969 Z M 910.558594 216.066406 C 908.410156 216.066406 906.664062 217.796875 906.664062 219.921875 C 906.664062 222.046875 908.410156 223.777344 910.558594 223.777344 C 912.703125 223.777344 914.449219 222.046875 914.449219 219.921875 C 914.449219 217.796875 912.703125 216.066406 910.558594 216.066406 Z M 910.558594 216.066406 " fill-opacity="1" fill-rule="nonzero"/><path fill="#253237" d="M 888.816406 202.035156 C 888.25 202.035156 887.773438 201.597656 887.738281 201.03125 C 887.738281 201.03125 886.035156 173.910156 886.035156 173.910156 C 885.996094 173.316406 886.449219 172.808594 887.046875 172.773438 C 887.6875 172.753906 888.152344 173.1875 888.191406 173.773438 C 888.191406 173.773438 889.894531 200.898438 889.894531 200.898438 C 889.933594 201.488281 889.480469 201.996094 888.882812 202.03125 C 888.863281 202.03125 888.839844 202.035156 888.816406 202.035156 Z M 888.816406 202.035156 " fill-opacity="1" fill-rule="nonzero"/><path fill="#253237" d="M 904.148438 202.035156 C 904.128906 202.035156 904.109375 202.03125 904.085938 202.03125 C 903.492188 202 903.035156 201.496094 903.070312 200.90625 C 903.070312 200.90625 904.601562 173.78125 904.601562 173.78125 C 904.632812 173.195312 905.09375 172.753906 905.742188 172.773438 C 906.335938 172.804688 906.792969 173.308594 906.757812 173.902344 C 906.757812 173.902344 905.226562 201.023438 905.226562 201.023438 C 905.195312 201.59375 904.71875 202.035156 904.148438 202.035156 Z M 904.148438 202.035156 " fill-opacity="1" fill-rule="nonzero"/><path fill="#253237" d="M 873.46875 188.472656 C 872.875 188.472656 872.394531 188 872.386719 187.414062 C 872.382812 186.820312 872.863281 186.339844 873.457031 186.332031 C 873.457031 186.332031 920.292969 185.882812 920.292969 185.882812 C 920.984375 185.867188 921.378906 186.347656 921.386719 186.941406 C 921.390625 187.53125 920.914062 188.015625 920.316406 188.023438 C 920.316406 188.023438 873.480469 188.472656 873.480469 188.472656 C 873.480469 188.472656 873.46875 188.472656 873.46875 188.472656 Z M 873.46875 188.472656 " fill-opacity="1" fill-rule="nonzero"/><path stroke-linecap="butt" transform="matrix(0.75, 0, 0, 0.75, 1055.332921, 368.516339)" fill-opacity="1" fill="#253237" fill-rule="nonzero" stroke-linejoin="miter" d="M 69.1759 63.962593 C 69.1759 63.962593 -69.173065 63.962593 -69.173065 63.962593 C -78.620982 63.962593 -86.282441 56.301134 -86.282441 46.858425 C -86.282441 46.858425 -86.282441 -46.855121 -86.282441 -46.855121 C -86.282441 -56.303038 -78.620982 -63.964497 -69.173065 -63.964497 C -69.173065 -63.964497 69.1759 -63.964497 69.1759 -63.964497 C 78.623817 -63.964497 86.280068 -56.303038 86.280068 -46.855121 C 86.280068 -46.855121 86.280068 46.858425 86.280068 46.858425 C 86.280068 56.301134 78.623817 63.962593 69.1759 63.962593 Z M 69.1759 63.962593 " stroke="#253237" stroke-width="2" stroke-opacity="1" stroke-miterlimit="10"/><path stroke-linecap="butt" transform="matrix(0.75, 0, 0, 0.75, 1045.546946, 358.730335)" fill-opacity="1" fill="#ffffff" fill-rule="nonzero" stroke-linejoin="miter" d="M 69.176993 63.963724 C 69.176993 63.963724 -69.177181 63.963724 -69.177181 63.963724 C -78.625098 63.963724 -86.281349 56.302265 -86.281349 46.854348 C -86.281349 46.854348 -86.281349 -46.85399 -86.281349 -46.85399 C -86.281349 -56.301908 -78.625098 -63.963366 -69.177181 -63.963366 C -69.177181 -63.963366 69.176993 -63.963366 69.176993 -63.963366 C 78.62491 -63.963366 86.28116 -56.301908 86.28116 -46.85399 C 86.28116 -46.85399 86.28116 46.854348 86.28116 46.854348 C 86.28116 56.302265 78.62491 63.963724 69.176993 63.963724 Z M 69.176993 63.963724 " stroke="#253237" stroke-width="2" stroke-opacity="1" stroke-miterlimit="10"/><path stroke-linecap="round" transform="matrix(0.75, 0, 0, 0.75, 1045.546946, 358.730335)" fill="none" stroke-linejoin="round" d="M 41.3072 0.000178663 C 41.3072 22.81268 22.812407 41.307472 -0.0000941629 41.307472 C -22.812595 41.307472 -41.307388 22.81268 -41.307388 0.000178663 C -41.307388 -22.812322 -22.812595 -41.307115 -0.0000941629 -41.307115 C 22.812407 -41.307115 41.3072 -22.812322 41.3072 0.000178663 Z M 41.3072 0.000178663 " stroke="#253237" stroke-width="2" stroke-opacity="1" stroke-miterlimit="4"/><path stroke-linecap="round" transform="matrix(0.75, 0, 0, 0.75, 1045.457762, 358.730335)" fill="none" stroke-linejoin="round" d="M 0.441735 -41.307115 C 29.316736 -41.307115 29.316736 41.307472 0.441735 41.307472 C -29.313475 41.307472 -29.313475 -41.307115 0.441735 -41.307115 Z M 0.441735 -41.307115 " stroke="#253237" stroke-width="2" stroke-opacity="1" stroke-miterlimit="4"/><path stroke-linecap="round" transform="matrix(0.75, 0, 0, 0.75, 977.085533, 307.008842)" fill="none" stroke-linejoin="round" d="M 91.604711 27.654879 C 91.604711 27.654879 91.604711 110.269466 91.604711 110.269466 " stroke="#253237" stroke-width="2" stroke-opacity="1" stroke-miterlimit="4"/><path stroke-linecap="round" transform="matrix(0.75, 0, 0, 0.75, 977.085533, 307.008842)" fill="none" stroke-linejoin="round" d="M 49.9745 68.962172 C 49.9745 68.962172 132.594296 68.962172 132.594296 68.962172 " stroke="#253237" stroke-width="2" stroke-opacity="1" stroke-miterlimit="4"/><path stroke-linecap="round" transform="matrix(0.75, -0.00015363, 0.00015363, 0.75, 476.715342, 587.93291)" fill-opacity="1" fill="#10c49f" fill-rule="nonzero" stroke-linejoin="round" d="M 214.788998 -41.017593 C 214.788998 -41.017593 208.010027 176.694571 208.010027 176.694571 C 208.010027 176.694571 206.360382 220.725485 206.360382 220.725485 C 206.360382 220.725485 206.339383 221.532772 206.339383 221.532772 C 206.339383 221.532772 206.162466 220.725444 206.162466 220.725444 C 206.162466 220.725444 -158.775353 196.765272 -158.775353 196.765272 C -158.775353 196.765272 -175.401451 176.694157 -175.401451 176.694157 C -175.401451 176.694157 -205.539619 -64.145362 -205.539619 -64.145362 C -216.027658 -147.965223 -145.538626 -221.534121 -54.752163 -221.536357 C -54.752163 -221.536357 26.091591 -221.535422 26.091591 -221.535422 C 89.612427 -221.532827 145.63251 -192.4276 179.821314 -147.93622 C 202.898497 -117.90545 216.031534 -80.855883 214.788998 -41.017593 Z M 214.788998 -41.017593 " stroke="#253237" stroke-width="2" stroke-opacity="1" stroke-miterlimit="4"/><path stroke-linecap="round" transform="matrix(0.75, -0.00015363, 0.00015363, 0.75, 634.136926, 608.000677)" fill-opacity="1" fill="#d4d4d4" fill-rule="nonzero" stroke-linejoin="round" d="M 61.199586 193.923101 C 61.199586 193.923101 -3.529584 193.925467 -3.529584 193.925467 C -3.529584 193.925467 -3.550583 194.732754 -3.550583 194.732754 C -3.550583 194.732754 -3.727501 193.925426 -3.727501 193.925426 C -3.727501 193.925426 -14.942441 149.897085 -14.942441 149.897085 C -14.942441 149.897085 -59.279707 -59.752632 -59.279707 -59.752632 C -61.198227 -101.555111 -49.980432 -147.745524 -30.068652 -174.736238 C -23.269888 -183.953596 -15.461166 -190.936372 -6.809345 -194.736683 C 13.188787 -134.763833 33.551537 1.323678 53.969021 149.895576 C 56.382097 167.427321 58.791771 176.136149 61.199586 193.923101 Z M 61.199586 193.923101 " stroke="#253237" stroke-width="2" stroke-opacity="1" stroke-miterlimit="4"/><path stroke-linecap="round" transform="matrix(0.75, -0.00015363, 0.00015363, 0.75, 509.012381, 583.460031)" fill-opacity="1" fill="#d4d4d4" fill-rule="nonzero" stroke-linejoin="round" d="M 161.214607 -162.028276 C 130.348371 -179.393974 100.216025 -194.389731 71.530632 -204.682065 C 71.530632 -204.682065 -61.473421 -210.355144 -61.473421 -210.355144 C -96.12748 -195.633075 -129.667538 -178.072236 -161.213845 -155.422447 C -161.213845 -155.422447 -79.495379 201.948477 -79.495379 201.948477 C 9.924778 210.357419 81.190814 208.372017 125.584996 191.016527 C 125.584996 191.016527 161.214607 -162.028276 161.214607 -162.028276 Z M 161.214607 -162.028276 " stroke="#253237" stroke-width="2" stroke-opacity="1" stroke-miterlimit="4"/><path stroke-linecap="butt" transform="matrix(0.75, -0.00015363, 0.00015363, 0.75, 508.048037, 415.790279)" fill-opacity="1" fill="#ffffff" fill-rule="nonzero" stroke-linejoin="miter" d="M -46.430562 -66.870511 C -46.430562 -66.870511 -39.781682 -5.462896 -39.781682 -5.462896 C -39.781682 -5.462896 24.302463 66.867943 24.302463 66.867943 C 24.302463 66.867943 46.43157 21.398515 46.43157 21.398515 C 46.43157 21.398515 44.136446 -38.003 44.136446 -38.003 C 44.136446 -38.003 -46.430562 -66.870511 -46.430562 -66.870511 Z M -46.430562 -66.870511 " stroke="#253237" stroke-width="2" stroke-opacity="1" stroke-miterlimit="10"/><path stroke-linecap="round" transform="matrix(0.75, -0.00015363, 0.00015363, 0.75, 488.005878, 437.974102)" fill-opacity="1" fill="#d4d4d4" fill-rule="nonzero" stroke-linejoin="round" d="M 51.031401 37.294986 C 51.031401 37.294986 18.70141 20.970654 18.70141 20.970654 C 18.70141 20.970654 1.977358 46.852646 1.977358 46.852646 C 1.977358 46.852646 -51.030052 -18.694673 -51.030052 -18.694673 C -51.030052 -18.694673 -27.165009 -46.356453 -27.165009 -46.356453 C -27.165009 -46.356453 -14.331573 -46.853824 -14.331573 -46.853824 C -14.331573 -46.853824 -13.052744 -35.035853 -13.052744 -35.035853 C -13.052744 -35.035853 51.031401 37.294986 51.031401 37.294986 Z M 51.031401 37.294986 " stroke="#253237" stroke-width="2" stroke-opacity="1" stroke-miterlimit="4"/><path stroke-linecap="round" transform="matrix(0.75, -0.00015363, 0.00015363, 0.75, 544.456611, 444.105046)" fill-opacity="1" fill="#d4d4d4" fill-rule="nonzero" stroke-linejoin="round" d="M -24.234569 29.104976 C -24.234569 29.104976 -2.778412 14.307287 -2.778412 14.307287 C -2.778412 14.307287 22.524035 37.963513 22.524035 37.963513 C 22.524035 37.963513 24.233597 -18.885098 24.233597 -18.885098 C 24.233597 -18.885098 -2.93958 -37.963582 -2.93958 -37.963582 C -2.93958 -37.963582 -2.105462 -16.364451 -2.105462 -16.364451 C -2.105462 -16.364451 -24.234569 29.104976 -24.234569 29.104976 Z M -24.234569 29.104976 " stroke="#253237" stroke-width="2" stroke-opacity="1" stroke-miterlimit="4"/><path stroke-linecap="round" transform="matrix(0.75, -0.00015363, 0.00015363, 0.75, 523.04698, 472.796156)" fill-opacity="1" fill="#10c49f" fill-rule="nonzero" stroke-linejoin="round" d="M 20.524857 -20.322963 C 23.037082 -3.72349 21.752941 10.390831 16.563077 21.931436 C 16.563077 21.931436 -9.989218 22.957247 -9.989218 22.957247 C -18.101451 11.481626 -21.535626 -4.753453 -23.037105 -22.956887 C -23.037105 -22.956887 4.319442 -9.143991 4.319442 -9.143991 C 4.319442 -9.143991 20.524857 -20.322963 20.524857 -20.322963 Z M 20.524857 -20.322963 " stroke="#253237" stroke-width="2" stroke-opacity="1" stroke-miterlimit="4"/><path stroke-linecap="round" transform="matrix(0.75, -0.00015363, 0.00015363, 0.75, 531.067252, 603.593006)" fill-opacity="1" fill="#10c49f" fill-rule="nonzero" stroke-linejoin="round" d="M 5.905105 -152.466556 C 5.905105 -152.466556 30.765055 -28.13854 30.765055 -28.13854 C 27.409745 28.293067 19.053414 89.713233 9.353059 152.466458 C -6.625007 96.234015 -21.493172 37.4393 -30.76493 -34.328228 C -30.76493 -34.328228 -20.64719 -151.440745 -20.64719 -151.440745 C -20.64719 -151.440745 5.905105 -152.466556 5.905105 -152.466556 Z M 5.905105 -152.466556 " stroke="#253237" stroke-width="2" stroke-opacity="1" stroke-miterlimit="4"/><path stroke-linecap="round" transform="matrix(0.75, -0.00015363, 0.00015363, 0.75, 375.700125, 606.435109)" fill-opacity="1" fill="#d4d4d4" fill-rule="nonzero" stroke-linejoin="round" d="M 66.806918 -29.483129 C 66.806918 -29.483129 20.397822 136.955289 20.397822 136.955289 C 5.825391 185.431473 -72.924971 161.753882 -58.352541 113.282907 C -37.121372 1.808083 -11.471024 -96.504376 17.328443 -185.430772 C 55.717882 -154.204157 72.926123 -102.898546 66.806918 -29.483129 Z M 66.806918 -29.483129 " stroke="#253237" stroke-width="2" stroke-opacity="1" stroke-miterlimit="4"/><path stroke-linecap="round" transform="matrix(0.75, -0.00015363, 0.00015363, 0.75, 507.739373, 391.876553)" fill-opacity="1" fill="#253237" fill-rule="nonzero" stroke-linejoin="round" d="M 42.961881 1.011938 C 42.961881 1.011938 43.775277 22.064189 43.775277 22.064189 C -1.902351 24.711082 -25.445413 6.091676 -43.772438 -24.708955 C -14.021201 -5.312235 12.800083 2.66201 42.961881 1.011938 Z M 42.961881 1.011938 " stroke="#253237" stroke-width="2" stroke-opacity="1" stroke-miterlimit="4"/><path stroke-linecap="butt" transform="matrix(0.75, -0.00015363, 0.00015363, 0.75, 538.613835, 581.891007)" fill-opacity="1" fill="#ffffff" fill-rule="nonzero" stroke-linejoin="miter" d="M -57.683586 2.701217 C -46.758413 -13.400713 -32.333616 -27.658175 -16.268371 -41.055927 C -14.085707 -42.873188 -11.486473 -44.216406 -8.679095 -44.637706 C -4.121663 -45.324272 -0.913702 -43.505907 1.168835 -39.614855 C 4.219751 -33.916313 2.81205 -26.833268 -1.714938 -22.214403 C -1.714938 -22.214403 -17.759956 -5.858314 -17.759956 -5.858314 C -9.035654 -7.53361 -0.925677 -10.469449 6.736572 -14.327255 C 16.623006 -19.29398 24.07793 -28.073703 27.887349 -38.45834 C 27.92383 -38.567708 27.960309 -38.671867 28.001997 -38.776025 C 31.566493 -48.514879 44.98856 -49.449629 49.856476 -40.292382 C 50.423965 -39.224557 50.94978 -38.115074 51.439126 -36.958724 C 57.686106 -22.212652 54.646154 -5.155982 44.607138 7.326337 C 36.339405 17.616311 25.264653 26.572376 9.919485 33.491108 C 9.919485 33.491108 -37.062953 49.450235 -37.062953 49.450235 C -37.062953 49.450235 -57.683586 2.701217 -57.683586 2.701217 Z M -57.683586 2.701217 " stroke="#253237" stroke-width="2" stroke-opacity="1" stroke-miterlimit="10"/><path fill="#d4d4d4" d="M 378.523438 725.863281 C 349.386719 748.769531 311.273438 700.28125 340.40625 677.378906 C 340.40625 677.378906 496.875 576.179688 496.875 576.179688 C 496.875 576.179688 519.601562 619.480469 519.601562 619.480469 C 519.601562 619.480469 378.523438 725.863281 378.523438 725.863281 Z M 378.523438 725.863281 " fill-opacity="1" fill-rule="nonzero"/><path stroke-linecap="butt" transform="matrix(0.75, -0.00015363, 0.00015363, 0.75, 449.056976, 651.019547)" fill="none" stroke-linejoin="miter" d="M 63.777807 -99.77342 C 63.777807 -99.77342 94.068064 -42.032838 94.068064 -42.032838 C 94.068064 -42.032838 -94.06516 99.772382 -94.06516 99.772382 " stroke="#253237" stroke-width="2" stroke-opacity="1" stroke-miterlimit="10"/><path stroke-linecap="round" transform="matrix(0.75, -0.00015363, 0.00015363, 0.75, 349.774265, 713.407664)" fill="none" stroke-linejoin="round" d="M -21.435338 -41.37607 C -38.324653 3.078806 0.68313 41.373257 38.328828 16.615342 " stroke="#253237" stroke-width="2" stroke-opacity="1" stroke-miterlimit="4"/><path stroke-linecap="round" transform="matrix(0.75, -0.00015363, 0.00015363, 0.75, 434.463176, 616.545877)" fill="none" stroke-linejoin="round" d="M -83.227553 53.807202 C -83.227553 53.807202 83.22679 -53.80454 83.22679 -53.80454 " stroke="#253237" stroke-width="2" stroke-opacity="1" stroke-miterlimit="4"/><path stroke-linecap="round" transform="matrix(0.75, -0.00015363, 0.00015363, 0.75, 580.464001, 275.300397)" fill-opacity="1" fill="#253237" fill-rule="nonzero" stroke-linejoin="round" d="M 7.628387 -36.471885 C 16.160023 -12.928469 12.217531 11.440516 -1.725098 36.47412 C -1.725098 36.47412 -16.159021 -31.84134 -16.159021 -31.84134 C -16.159021 -31.84134 7.628387 -36.471885 7.628387 -36.471885 Z M 7.628387 -36.471885 " stroke="#253237" stroke-width="2" stroke-opacity="1" stroke-miterlimit="4"/><path stroke-linecap="butt" transform="matrix(0.75, -0.00015363, 0.00015363, 0.75, 523.037212, 308.045923)" fill-opacity="1" fill="#ffffff" fill-rule="nonzero" stroke-linejoin="miter" d="M -73.729403 -12.243001 C -73.729403 -12.243001 -71.321903 32.507495 -71.321903 32.507495 C -71.321903 32.507495 -65.416221 86.133707 -65.416221 86.133707 C -28.900221 109.734938 9.191241 120.914617 50.146689 109.584464 C 58.912812 107.159176 65.768384 100.295997 68.218097 91.530873 C 79.017673 52.9185 78.361845 0.00690449 66.573444 -66.792389 C 32.709529 -120.913911 -37.35943 -114.824097 -79.014965 -67.473253 C -79.014965 -67.473253 -73.729403 -12.243001 -73.729403 -12.243001 Z M -73.729403 -12.243001 " stroke="#253237" stroke-width="2" stroke-opacity="1" stroke-miterlimit="10"/><path stroke-linecap="butt" transform="matrix(0.75, -0.00015363, 0.00015363, 0.75, 456.325351, 311.030337)" fill-opacity="1" fill="#ffffff" fill-rule="nonzero" stroke-linejoin="miter" d="M 15.22056 -16.203999 C 5.968232 -30.268395 -17.820354 -19.887851 -9.533575 3.978431 C -0.923064 23.860404 8.372821 28.695642 17.820415 30.270494 C 17.820415 30.270494 15.22056 -16.203999 15.22056 -16.203999 Z M 15.22056 -16.203999 " stroke="#253237" stroke-width="2" stroke-opacity="1" stroke-miterlimit="10"/><path stroke-linecap="round" transform="matrix(0.75, -0.00015363, 0.00015363, 0.75, 465.509167, 274.679713)" fill-opacity="1" fill="#253237" fill-rule="nonzero" stroke-linejoin="round" d="M 20.538272 -43.08958 C 39.142243 -16.705559 27.042661 37.187798 4.534409 52.042564 C 4.534409 52.042564 2.965544 32.260991 2.965544 32.260991 C -3.106173 26.405581 -9.537767 22.998013 -17.372355 29.121408 C -35.813639 -3.262579 -39.141347 -30.726804 -23.57448 -52.041324 C -23.57448 -52.041324 20.538272 -43.08958 20.538272 -43.08958 Z M 20.538272 -43.08958 " stroke="#253237" stroke-width="2" stroke-opacity="1" stroke-miterlimit="4"/><path stroke-linecap="round" transform="matrix(0.75, -0.00015363, 0.00015363, 0.75, 524.975668, 226.105789)" fill-opacity="1" fill="#253237" fill-rule="nonzero" stroke-linejoin="round" d="M 74.943064 -46.745495 C 102.877844 -8.036646 90.397552 22.882674 65.495874 51.408825 C 42.620301 28.773929 3.651837 27.370114 -49.971629 45.291422 C -49.971629 45.291422 -102.876415 12.707666 -102.876415 12.707666 C -100.106406 -34.119893 -49.17057 -51.411544 -8.61771 -29.767819 C 34.910232 -13.607861 63.369553 -18.41974 74.943064 -46.745495 Z M 74.943064 -46.745495 " stroke="#253237" stroke-width="2" stroke-opacity="1" stroke-miterlimit="4"/><path stroke-linecap="butt" transform="matrix(0.75, -0.00015363, 0.00015363, 0.75, 484.387014, 338.822609)" fill="none" stroke-linejoin="miter" d="M -25.250501 -24.909278 C -15.010575 -1.151971 -0.550962 18.033284 25.249714 24.908361 " stroke="#253237" stroke-width="4" stroke-opacity="1" stroke-miterlimit="10"/><path stroke-linecap="butt" transform="matrix(0.75, -0.00015363, 0.00015363, 0.75, 504.661157, 357.693693)" fill-opacity="1" fill="#253237" fill-rule="nonzero" stroke-linejoin="miter" d="M 2.330517 7.237012 C 2.330517 7.237012 -6.393003 5.0946 -6.393003 5.0946 C -9.106409 4.432586 -10.678826 1.989555 -9.907511 -0.359245 C -9.907511 -0.359245 -8.641099 -4.202736 -8.641099 -4.202736 C -7.869785 -6.546328 -5.041382 -7.905124 -2.327977 -7.237902 C -2.327977 -7.237902 6.390335 -5.095491 6.390335 -5.095491 C 9.10374 -4.428268 10.681366 -1.990445 9.910051 0.358356 C 9.910051 0.358356 8.643639 4.201847 8.643639 4.201847 C 7.872326 6.545439 5.043922 7.904234 2.330517 7.237012 Z M 2.330517 7.237012 " stroke="#253237" stroke-width="2" stroke-opacity="1" stroke-miterlimit="10"/><path stroke-linecap="butt" transform="matrix(0.75, -0.00015363, 0.00015363, 0.75, 464.758927, 313.913882)" fill-opacity="1" fill="#10c49f" fill-rule="nonzero" stroke-linejoin="miter" d="M 29.98289 0.0011743 C 29.979499 16.558466 16.560082 29.982801 -0.00241846 29.979409 C -16.559711 29.981225 -29.984045 16.5566 -29.980654 -0.000691999 C -29.982471 -16.557985 -16.557845 -29.982319 -0.000552152 -29.984136 C 16.55674 -29.980744 29.981075 -16.561327 29.98289 0.0011743 Z M 29.98289 0.0011743 " stroke="#253237" stroke-width="2" stroke-opacity="1" stroke-miterlimit="10"/><path stroke-linecap="butt" transform="matrix(0.75, -0.00015363, 0.00015363, 0.75, 493.257629, 260.103055)" fill-opacity="1" fill="#10c49f" fill-rule="nonzero" stroke-linejoin="miter" d="M -50.669953 68.076176 C -44.085857 13.499397 -28.549177 -38.429715 24.761254 -79.168797 C 40.522163 -81.56661 43.599751 -78.946188 52.556081 -69.163103 C -7.250957 -44.993061 -22.912934 8.38915 -32.467523 71.47053 C -34.3498 81.569103 -52.557439 78.174748 -50.669953 68.076176 Z M -50.669953 68.076176 " stroke="#253237" stroke-width="2" stroke-opacity="1" stroke-miterlimit="10"/><path stroke-linecap="round" transform="matrix(0.75, -0.00015363, 0.00015363, 0.75, 555.397994, 317.732289)" fill="none" stroke-linejoin="round" d="M -5.898701 -33.967178 C -3.721528 -8.982356 2.508545 12.024129 12.765467 29.083523 C 3.650132 32.753531 -4.813658 33.965339 -12.761424 33.224128 " stroke="#253237" stroke-width="2" stroke-opacity="1" stroke-miterlimit="4"/><path stroke-linecap="round" transform="matrix(0.75, -0.00015363, 0.00015363, 0.75, 515.182372, 285.604546)" fill="none" stroke-linejoin="round" d="M 12.174536 -5.037943 C 1.159163 -6.269366 -6.956193 -2.500195 -12.17674 6.269569 " stroke="#253237" stroke-width="2" stroke-opacity="1" stroke-miterlimit="4"/><path stroke-linecap="round" transform="matrix(0.75, -0.00015363, 0.00015363, 0.75, 565.906394, 289.302925)" fill="none" stroke-linejoin="round" d="M 9.874171 3.113748 C 4.729178 -0.991473 -1.395386 -3.117727 -9.869886 -0.478838 " stroke="#253237" stroke-width="2" stroke-opacity="1" stroke-miterlimit="4"/><path stroke-linecap="round" transform="matrix(0.75, -0.00015363, 0.00015363, 0.75, 521.86462, 310.017924)" fill-opacity="1" fill="#253237" fill-rule="nonzero" stroke-linejoin="round" d="M -5.022658 0.193823 C -4.810245 5.704283 -2.389266 10.07978 0.386797 9.976182 C 3.162861 9.867375 5.23671 5.315716 5.024297 -0.194744 C 4.811884 -5.705204 2.390905 -10.080701 -0.385158 -9.977103 C -3.161222 -9.868296 -5.240279 -5.316638 -5.022658 0.193823 Z M -5.022658 0.193823 " stroke="#253237" stroke-width="2" stroke-opacity="1" stroke-miterlimit="4"/><path stroke-linecap="round" transform="matrix(0.75, -0.00015363, 0.00015363, 0.75, 566.432858, 303.831041)" fill-opacity="1" fill="#253237" fill-rule="nonzero" stroke-linejoin="round" d="M -3.973008 0.151549 C -3.802051 4.63075 -1.880904 8.188436 0.311821 8.105552 C 2.509755 8.022669 4.145929 4.325087 3.974971 -0.154115 C 3.804013 -4.628109 1.882868 -8.191002 -0.315066 -8.108119 C -2.507793 -8.020027 -4.149175 -4.322446 -3.973008 0.151549 Z M -3.973008 0.151549 " stroke="#253237" stroke-width="2" stroke-opacity="1" stroke-miterlimit="4"/><path stroke-linecap="round" transform="matrix(0.75, -0.00015363, 0.00015363, 0.75, 531.178971, 365.41925)" fill="none" stroke-linejoin="round" d="M 14.817775 4.339869 C 3.896012 3.790757 -6.223298 1.434517 -14.821073 -4.343286 " stroke="#253237" stroke-width="2" stroke-opacity="1" stroke-miterlimit="4"/><path stroke-linecap="round" transform="matrix(0.75, 0, 0, 0.75, 1085.200272, 640.505196)" fill-opacity="1" fill="#ffffff" fill-rule="nonzero" stroke-linejoin="round" d="M 7.717347 -86.527765 C 8.165263 -89.553807 10.623597 -91.881932 13.670472 -92.157974 C 17.951722 -92.543391 21.456931 -88.814224 20.811097 -84.564224 C 20.811097 -84.564224 -8.209738 92.539952 -8.209738 92.539952 C -8.209738 92.539952 -21.459738 92.539952 -21.459738 92.539952 C -21.459738 92.539952 7.717347 -86.527765 7.717347 -86.527765 Z M 7.717347 -86.527765 " stroke="#253237" stroke-width="2" stroke-opacity="1" stroke-miterlimit="4"/><path stroke-linecap="round" transform="matrix(0.75, 0, 0, 0.75, 1052.252761, 532.491737)" fill-opacity="1" fill="#ffffff" fill-rule="nonzero" stroke-linejoin="round" d="M 61.996321 59.662062 C 61.996321 59.662062 -57.623476 -71.744195 -57.623476 -71.744195 C -57.623476 -71.744195 -58.493268 -70.301486 -58.493268 -70.301486 C -58.493268 -70.301486 -64.295352 -60.702528 -64.295352 -60.702528 C -64.295352 -60.702528 52.178613 68.552687 52.178613 68.552687 C 55.058821 71.745396 60.162988 71.391229 62.574446 67.839145 C 64.293197 65.302687 64.053613 61.927687 61.996321 59.662062 Z M 61.996321 59.662062 " stroke="#253237" stroke-width="2" stroke-opacity="1" stroke-miterlimit="4"/><path stroke-linecap="round" transform="matrix(0.75, 0, 0, 0.75, 1070.56776, 715.13096)" fill-opacity="1" fill="#d4d4d4" fill-rule="nonzero" stroke-linejoin="round" d="M -54.454933 8.663929 C -54.454933 8.663929 54.451322 8.663929 54.451322 8.663929 C 54.451322 8.663929 40.55028 -8.664197 4.29507 -8.664197 C -29.480974 -8.664197 -49.595558 1.268095 -54.454933 8.663929 Z M -54.454933 8.663929 " stroke="#253237" stroke-width="2" stroke-opacity="1" stroke-miterlimit="4"/><path stroke-linecap="round" transform="matrix(0.75, 0, 0, 0.75, 1008.935115, 457.975485)" fill-opacity="1" fill="#d4d4d4" fill-rule="nonzero" stroke-linejoin="round" d="M 0.820888 6.777479 C 0.820888 6.777479 6.357346 -1.529813 6.357346 -1.529813 C 6.357346 -1.529813 -0.481196 -6.774605 -0.481196 -6.774605 C -0.481196 -6.774605 -6.356196 1.579562 -6.356196 1.579562 C -6.356196 1.579562 0.820888 6.777479 0.820888 6.777479 Z M 0.820888 6.777479 " stroke="#253237" stroke-width="2" stroke-opacity="1" stroke-miterlimit="4"/><path stroke-linecap="round" transform="matrix(0.75, 0, 0, 0.75, 978.176861, 496.340203)" fill-opacity="1" fill="#ffffff" fill-rule="nonzero" stroke-linejoin="round" d="M 51.206896 -39.365064 C 51.206896 -39.365064 27.368353 -56.646315 27.368353 -56.646315 C 27.368353 -56.646315 4.477727 -29.125481 4.477727 -29.125481 C -35.204566 -22.724439 -51.209776 2.239104 -51.209776 2.239104 C -51.209776 2.239104 19.842311 56.650565 19.842311 56.650565 C 44.165229 29.765147 32.644395 -8.641104 32.644395 -8.641104 C 32.644395 -8.641104 51.206896 -39.365064 51.206896 -39.365064 Z M 51.206896 -39.365064 " stroke="#253237" stroke-width="2" stroke-opacity="1" stroke-miterlimit="4"/><path stroke-linecap="round" transform="matrix(0.75, 0, 0, 0.75, 992.098324, 482.177228)" fill="none" stroke-linejoin="round" d="M -14.084225 -10.241513 C -14.084225 -10.241513 14.082443 10.242864 14.082443 10.242864 " stroke="#253237" stroke-width="2" stroke-opacity="1" stroke-miterlimit="4"/><path stroke-linecap="round" transform="matrix(0.75, 0, 0, 0.75, 605.273064, 714.944216)" fill-opacity="1" fill="#ffffff" fill-rule="nonzero" stroke-linejoin="round" d="M 110.307796 11.027504 C 110.307796 11.027504 -110.306799 11.027504 -110.306799 11.027504 C -110.306799 11.027504 -110.306799 -11.029789 -110.306799 -11.029789 C -110.306799 -11.029789 110.307796 -11.029789 110.307796 -11.029789 C 110.307796 -11.029789 110.307796 11.027504 110.307796 11.027504 Z M 110.307796 11.027504 " stroke="#253237" stroke-width="2" stroke-opacity="1" stroke-miterlimit="4"/><path stroke-linecap="round" transform="matrix(0.75, 0, 0, 0.75, 744.280337, 540.326945)" fill-opacity="1" fill="#ffffff" fill-rule="nonzero" stroke-linejoin="round" d="M -245.097753 160.928665 C -245.097753 160.928665 245.09498 160.928665 245.09498 160.928665 C 245.09498 160.928665 245.09498 -160.930726 245.09498 -160.930726 C 245.09498 -160.930726 -245.097753 -160.930726 -245.097753 -160.930726 C -245.097753 -160.930726 -245.097753 160.928665 -245.097753 160.928665 Z M -245.097753 160.928665 " stroke="#253237" stroke-width="2" stroke-opacity="1" stroke-miterlimit="4"/><path stroke-linecap="round" transform="matrix(0.75, 0, 0, 0.75, 553.894322, 540.327761)" fill-opacity="1" fill="#ffffff" fill-rule="nonzero" stroke-linejoin="round" d="M 8.750279 -160.931814 C 8.750279 -160.931814 -8.749722 -160.931814 -8.749722 -160.931814 C -8.749722 -160.931814 -8.749722 160.927577 -8.749722 160.927577 C -8.749722 160.927577 8.750279 160.927577 8.750279 160.927577 C 8.750279 160.927577 8.750279 -160.931814 8.750279 -160.931814 Z M 8.750279 -160.931814 " stroke="#253237" stroke-width="2" stroke-opacity="1" stroke-miterlimit="4"/><path stroke-linecap="round" transform="matrix(0.75, 0, 0, 0.75, 773.138823, 656.183963)" fill-opacity="1" fill="#ffffff" fill-rule="nonzero" stroke-linejoin="round" d="M -86.84656 -83.823413 C -86.84656 -83.823413 30.554487 -83.823413 30.554487 -83.823413 C 30.554487 -83.823413 86.851365 83.822429 86.851365 83.822429 C 86.851365 83.822429 -56.643434 83.822429 -56.643434 83.822429 C -56.643434 83.822429 -86.84656 -83.823413 -86.84656 -83.823413 Z M -86.84656 -83.823413 " stroke="#253237" stroke-width="2" stroke-opacity="1" stroke-miterlimit="4"/><path stroke-linecap="round" transform="matrix(0.75, 0, 0, 0.75, 712.250058, 656.183963)" fill-opacity="1" fill="#ffffff" fill-rule="nonzero" stroke-linejoin="round" d="M -5.661536 -83.823413 C -5.661536 -83.823413 -24.541746 -83.823413 -24.541746 -83.823413 C -24.541746 -83.823413 2.229089 83.822429 2.229089 83.822429 C 2.229089 83.822429 24.54159 83.822429 24.54159 83.822429 C 24.54159 83.822429 -5.661536 -83.823413 -5.661536 -83.823413 Z M -5.661536 -83.823413 " stroke="#253237" stroke-width="2" stroke-opacity="1" stroke-miterlimit="4"/><path stroke-linecap="round" transform="matrix(0.75, 0, 0, 0.75, 731.921033, 740.348959)" fill-opacity="1" fill="#253237" fill-rule="nonzero" stroke-linejoin="round" d="M -609.6187 26.51389 C -609.6187 26.51389 609.615736 26.51389 609.615736 26.51389 C 609.615736 26.51389 609.615736 -26.512155 609.615736 -26.512155 C 609.615736 -26.512155 -609.6187 -26.512155 -609.6187 -26.512155 C -609.6187 -26.512155 -609.6187 26.51389 -609.6187 26.51389 Z M -609.6187 26.51389 " stroke="#253237" stroke-width="2" stroke-opacity="1" stroke-miterlimit="4"/><path stroke-linecap="round" transform="matrix(0.75, 0, 0, 0.75, 1131.163317, 740.346727)" fill-opacity="1" fill="#253237" fill-rule="nonzero" stroke-linejoin="round" d="M 77.292664 26.516866 C 77.292664 26.516866 -77.295885 26.516866 -77.295885 26.516866 C -77.295885 26.516866 -77.295885 -26.519595 -77.295885 -26.519595 C -77.295885 -26.519595 77.292664 -26.519595 77.292664 -26.519595 C 77.292664 -26.519595 77.292664 26.516866 77.292664 26.516866 Z M 77.292664 26.516866 " stroke="#253237" stroke-width="2" stroke-opacity="1" stroke-miterlimit="4"/></svg>