<svg xmlns="http://www.w3.org/2000/svg" xmlns:xlink="http://www.w3.org/1999/xlink" width="1080" zoomAndPan="magnify" viewBox="0 0 810 809.999993" height="1080" preserveAspectRatio="xMidYMid meet" version="1.0"><defs><clipPath id="4aabfed753"><path d="M 103.78125 40 L 666 40 L 666 810 L 103.78125 810 Z M 103.78125 40 " clip-rule="nonzero"/></clipPath><clipPath id="6d93c8f307"><path d="M 144 0 L 706.03125 0 L 706.03125 770 L 144 770 Z M 144 0 " clip-rule="nonzero"/></clipPath></defs><g clip-path="url(#4aabfed753)"><path fill="#8a9f80" d="M 619.210938 809.886719 L 152.066406 809.886719 C 134.253906 809.886719 119.8125 795.449219 119.8125 777.636719 L 119.8125 743.925781 C 119.8125 726.109375 134.253906 711.671875 152.066406 711.671875 L 175.945312 711.671875 C 176.246094 709.984375 176.691406 708.304688 177.277344 706.652344 C 199.476562 643.769531 217.679688 579.035156 231.371094 514.230469 C 232.320312 509.734375 234.210938 505.578125 236.828125 501.96875 C 235.792969 497.570312 235.675781 492.921875 236.589844 488.320312 C 237.859375 481.933594 239.109375 475.257812 240.417969 467.902344 C 244.859375 443.167969 248.699219 418.140625 251.867188 393.347656 L 167.46875 358.566406 C 159.824219 355.414062 153.972656 349.585938 150.636719 342.542969 L 143.25 342.542969 C 121.484375 342.542969 103.773438 324.832031 103.773438 303.066406 C 103.773438 299.597656 104.226562 296.238281 105.066406 293.03125 C 104.226562 289.828125 103.773438 286.46875 103.773438 283.003906 C 103.773438 279.535156 104.226562 276.171875 105.066406 272.96875 C 104.226562 269.761719 103.773438 266.398438 103.773438 262.929688 C 103.773438 241.167969 121.484375 223.457031 143.25 223.457031 L 191.410156 223.457031 C 213.179688 223.457031 230.886719 241.167969 230.886719 262.929688 C 230.886719 266.398438 230.433594 269.761719 229.589844 272.96875 C 230.433594 276.171875 230.886719 279.535156 230.886719 283.003906 C 230.886719 286.46875 230.433594 289.828125 229.59375 293.03125 C 229.890625 294.167969 230.128906 295.320312 230.328125 296.488281 L 261.167969 296.488281 C 261.53125 290.773438 261.867188 285.070312 262.164062 279.386719 C 262.382812 275.238281 263.394531 271.238281 265.082031 267.570312 C 263.710938 263.730469 263.039062 259.609375 263.210938 255.398438 C 263.519531 247.703125 263.757812 239.808594 263.933594 231.757812 L 170.789062 196.140625 C 162.785156 193.078125 156.621094 187.109375 153.160156 179.804688 L 143.25 179.804688 C 121.484375 179.804688 103.773438 162.09375 103.773438 140.332031 C 103.773438 136.863281 104.226562 133.5 105.066406 130.296875 C 104.226562 127.089844 103.773438 123.726562 103.773438 120.261719 C 103.773438 116.792969 104.226562 113.433594 105.066406 110.230469 C 104.226562 107.019531 103.773438 103.660156 103.773438 100.195312 C 103.773438 78.425781 121.484375 60.714844 143.25 60.714844 L 191.410156 60.714844 C 213.179688 60.714844 230.886719 78.425781 230.886719 100.195312 C 230.886719 103.660156 230.433594 107.019531 229.589844 110.230469 C 230.433594 113.433594 230.886719 116.792969 230.886719 120.261719 C 230.886719 123.726562 230.433594 127.089844 229.589844 130.296875 C 229.890625 131.429688 230.132812 132.585938 230.328125 133.757812 L 279.878906 133.757812 C 281.054688 131.984375 282.398438 130.300781 283.945312 128.757812 L 362.828125 49.871094 C 368.878906 43.824219 377.085938 40.425781 385.636719 40.425781 C 394.191406 40.425781 402.394531 43.824219 408.441406 49.871094 L 487.328125 128.757812 C 488.871094 130.300781 490.21875 131.984375 491.390625 133.757812 L 539.351562 133.757812 C 539.550781 132.585938 539.792969 131.429688 540.089844 130.296875 C 539.25 127.089844 538.792969 123.726562 538.792969 120.261719 C 538.792969 116.792969 539.25 113.433594 540.089844 110.230469 C 539.25 107.019531 538.792969 103.660156 538.792969 100.195312 C 538.792969 78.425781 556.503906 60.714844 578.273438 60.714844 L 626.433594 60.714844 C 648.203125 60.714844 665.910156 78.425781 665.910156 100.195312 C 665.910156 103.660156 665.457031 107.019531 664.617188 110.230469 C 665.457031 113.433594 665.910156 116.792969 665.910156 120.261719 C 665.910156 123.726562 665.457031 127.089844 664.617188 130.296875 C 665.457031 133.5 665.910156 136.863281 665.910156 140.332031 C 665.910156 162.09375 648.203125 179.804688 626.433594 179.804688 L 616.523438 179.804688 C 613.070312 187.105469 606.898438 193.074219 598.898438 196.136719 L 507.320312 231.167969 C 507.492188 239.703125 507.726562 247.742188 508.023438 255.453125 C 508.179688 259.628906 507.519531 263.710938 506.160156 267.515625 C 507.875 271.214844 508.898438 275.25 509.109375 279.445312 C 509.394531 285.101562 509.722656 290.804688 510.082031 296.539062 L 539.351562 296.539062 C 539.550781 295.359375 539.792969 294.199219 540.089844 293.054688 C 539.25 289.847656 538.792969 286.484375 538.792969 283.019531 C 538.792969 279.550781 539.25 276.191406 540.089844 272.988281 C 539.25 269.777344 538.792969 266.417969 538.792969 262.953125 C 538.792969 241.183594 556.503906 223.472656 578.273438 223.472656 L 626.433594 223.472656 C 648.203125 223.472656 665.910156 241.183594 665.910156 262.953125 C 665.910156 266.417969 665.457031 269.777344 664.617188 272.988281 C 665.457031 276.191406 665.910156 279.550781 665.910156 283.019531 C 665.910156 286.484375 665.457031 289.847656 664.617188 293.054688 C 665.457031 296.257812 665.910156 299.621094 665.910156 303.089844 C 665.910156 324.859375 648.203125 342.5625 626.433594 342.5625 L 619.0625 342.5625 C 615.71875 349.628906 609.855469 355.46875 602.191406 358.617188 L 519.285156 392.714844 C 523.339844 424.503906 528.480469 456.664062 534.617188 488.441406 C 535.5 492.996094 535.371094 497.585938 534.34375 501.9375 C 536.988281 505.566406 538.894531 509.746094 539.851562 514.265625 C 553.566406 579.042969 571.785156 643.765625 593.996094 706.644531 C 594.578125 708.300781 595.027344 709.984375 595.328125 711.671875 L 619.210938 711.671875 C 637.023438 711.671875 651.464844 726.109375 651.464844 743.925781 L 651.464844 777.636719 C 651.464844 795.449219 637.023438 809.886719 619.210938 809.886719 " fill-opacity="1" fill-rule="nonzero"/></g><g clip-path="url(#6d93c8f307)"><path fill="#14b497" d="M 704.933594 69.914062 C 705.773438 66.703125 706.226562 63.34375 706.226562 59.878906 C 706.226562 38.109375 688.515625 20.398438 666.75 20.398438 L 618.589844 20.398438 C 596.820312 20.398438 579.109375 38.109375 579.109375 59.878906 C 579.109375 63.34375 579.566406 66.703125 580.40625 69.914062 C 579.566406 73.117188 579.109375 76.476562 579.109375 79.945312 C 579.109375 83.410156 579.566406 86.773438 580.40625 89.980469 C 580.109375 91.113281 579.867188 92.269531 579.667969 93.441406 L 531.707031 93.441406 C 530.535156 91.667969 529.1875 89.984375 527.644531 88.441406 L 448.757812 9.554688 C 442.710938 3.507812 434.507812 0.109375 425.953125 0.109375 C 417.402344 0.109375 409.195312 3.507812 403.144531 9.554688 L 324.261719 88.441406 C 322.714844 89.984375 321.371094 91.667969 320.195312 93.441406 L 270.644531 93.441406 C 270.449219 92.269531 270.207031 91.113281 269.90625 89.980469 C 270.75 86.773438 271.199219 83.410156 271.199219 79.945312 C 271.199219 76.476562 270.75 73.117188 269.90625 69.914062 C 270.75 66.703125 271.199219 63.34375 271.199219 59.878906 C 271.199219 38.109375 253.496094 20.398438 231.726562 20.398438 L 183.566406 20.398438 C 161.796875 20.398438 144.089844 38.109375 144.089844 59.878906 C 144.089844 63.34375 144.542969 66.703125 145.382812 69.914062 C 144.542969 73.117188 144.089844 76.476562 144.089844 79.945312 C 144.089844 83.410156 144.542969 86.773438 145.382812 89.980469 C 144.542969 93.183594 144.089844 96.546875 144.089844 100.015625 C 144.089844 121.78125 161.796875 139.488281 183.566406 139.488281 L 193.476562 139.488281 C 196.9375 146.792969 203.101562 152.761719 211.105469 155.824219 L 304.25 191.441406 C 304.074219 199.492188 303.835938 207.386719 303.527344 215.082031 C 303.355469 219.292969 304.023438 223.414062 305.398438 227.253906 C 303.710938 230.921875 302.699219 234.921875 302.480469 239.070312 C 302.183594 244.753906 301.847656 250.457031 301.484375 256.171875 L 270.644531 256.171875 C 270.445312 255.003906 270.207031 253.851562 269.910156 252.714844 C 270.75 249.511719 271.199219 246.152344 271.199219 242.6875 C 271.199219 239.21875 270.75 235.855469 269.90625 232.652344 C 270.75 229.445312 271.199219 226.082031 271.199219 222.613281 C 271.199219 200.851562 253.496094 183.140625 231.726562 183.140625 L 183.566406 183.140625 C 161.796875 183.140625 144.089844 200.851562 144.089844 222.613281 C 144.089844 226.082031 144.542969 229.445312 145.382812 232.652344 C 144.542969 235.855469 144.089844 239.21875 144.089844 242.6875 C 144.089844 246.152344 144.542969 249.511719 145.382812 252.714844 C 144.542969 255.921875 144.089844 259.28125 144.089844 262.75 C 144.089844 284.515625 161.796875 302.226562 183.566406 302.226562 L 190.953125 302.226562 C 194.289062 309.273438 200.140625 315.097656 207.785156 318.25 L 292.183594 353.03125 C 289.015625 377.824219 285.175781 402.855469 280.734375 427.585938 C 279.425781 434.941406 278.175781 441.617188 276.90625 448.003906 C 275.992188 452.605469 276.109375 457.253906 277.144531 461.652344 C 274.527344 465.261719 272.636719 469.421875 271.6875 473.914062 C 257.996094 538.71875 239.792969 603.453125 217.59375 666.335938 C 217.007812 667.992188 216.5625 669.667969 216.261719 671.355469 L 192.382812 671.355469 C 174.570312 671.355469 160.128906 685.796875 160.128906 703.609375 L 160.128906 737.320312 C 160.128906 755.132812 174.570312 769.574219 192.382812 769.574219 L 659.527344 769.574219 C 677.339844 769.574219 691.78125 755.132812 691.78125 737.320312 L 691.78125 703.609375 C 691.78125 685.796875 677.339844 671.355469 659.527344 671.355469 L 635.644531 671.355469 C 635.339844 669.667969 634.894531 667.984375 634.3125 666.328125 C 612.101562 603.449219 593.882812 538.726562 580.167969 473.953125 C 579.210938 469.429688 577.304688 465.25 574.660156 461.621094 C 575.6875 457.269531 575.816406 452.683594 574.933594 448.125 C 568.796875 416.347656 563.65625 384.191406 559.601562 352.398438 L 642.507812 318.300781 C 650.171875 315.152344 656.035156 309.3125 659.378906 302.246094 L 666.75 302.246094 C 688.515625 302.246094 706.226562 284.542969 706.226562 262.773438 C 706.226562 259.304688 705.773438 255.941406 704.933594 252.738281 C 705.773438 249.53125 706.226562 246.167969 706.226562 242.707031 C 706.226562 239.234375 705.773438 235.875 704.933594 232.671875 C 705.773438 229.464844 706.226562 226.101562 706.226562 222.636719 C 706.226562 200.867188 688.515625 183.15625 666.75 183.15625 L 618.589844 183.15625 C 596.820312 183.15625 579.109375 200.867188 579.109375 222.636719 C 579.109375 226.101562 579.566406 229.464844 580.40625 232.671875 C 579.566406 235.875 579.109375 239.234375 579.109375 242.707031 C 579.109375 246.167969 579.566406 249.53125 580.40625 252.738281 C 580.109375 253.882812 579.867188 255.042969 579.667969 256.222656 L 550.402344 256.222656 C 550.039062 250.488281 549.710938 244.785156 549.425781 239.128906 C 549.214844 234.933594 548.191406 230.898438 546.476562 227.199219 C 547.835938 223.394531 548.496094 219.3125 548.339844 215.136719 C 548.042969 207.425781 547.808594 199.386719 547.636719 190.851562 L 639.214844 155.820312 C 647.214844 152.757812 653.386719 146.789062 656.839844 139.488281 L 666.75 139.488281 C 688.515625 139.488281 706.226562 121.78125 706.226562 100.015625 C 706.226562 96.546875 705.773438 93.183594 704.933594 89.980469 C 705.773438 86.773438 706.226562 83.410156 706.226562 79.945312 C 706.226562 76.476562 705.773438 73.117188 704.933594 69.914062 " fill-opacity="1" fill-rule="nonzero"/></g><path fill="#fdfcd3" d="M 192.382812 737.320312 L 659.527344 737.320312 L 659.527344 703.609375 L 192.382812 703.609375 L 192.382812 737.320312 " fill-opacity="1" fill-rule="nonzero"/><path fill="#fdfcd3" d="M 425.953125 32.363281 L 347.066406 111.25 L 504.835938 111.25 Z M 425.953125 32.363281 " fill-opacity="1" fill-rule="nonzero"/><path fill="#fdfcd3" d="M 440.546875 173.328125 L 516.109375 216.382812 C 515.578125 202.609375 515.289062 188.832031 515.144531 175.058594 L 515.144531 174.964844 C 515.144531 174.289062 515.09375 173.570312 515.144531 172.894531 L 515.144531 172.699219 C 515.046875 168.125 515.046875 163.597656 515.046875 159.023438 L 515.046875 130.894531 L 440.546875 173.328125 " fill-opacity="1" fill-rule="nonzero"/><path fill="#fdfcd3" d="M 336.859375 130.894531 L 336.859375 159.023438 C 336.859375 178.140625 336.519531 197.257812 335.75 216.382812 L 411.363281 173.328125 L 336.859375 130.894531 " fill-opacity="1" fill-rule="nonzero"/><path fill="#fdfcd3" d="M 496.601562 221.871094 L 425.953125 181.65625 L 355.300781 221.871094 Z M 496.601562 221.871094 " fill-opacity="1" fill-rule="nonzero"/><path fill="#fdfcd3" d="M 523.765625 323.773438 C 520.828125 296.179688 518.613281 268.539062 517.214844 240.746094 L 441.460938 280.527344 L 523.765625 323.773438 " fill-opacity="1" fill-rule="nonzero"/><path fill="#fdfcd3" d="M 503.203125 329.3125 L 425.953125 288.71875 L 348.707031 329.3125 Z M 503.203125 329.3125 " fill-opacity="1" fill-rule="nonzero"/><path fill="#fdfcd3" d="M 334.691406 240.746094 C 333.246094 268.488281 331.03125 296.226562 328.09375 323.824219 L 410.445312 280.527344 L 334.691406 240.746094 " fill-opacity="1" fill-rule="nonzero"/><path fill="#fdfcd3" d="M 543.265625 454.238281 C 536.476562 419.082031 530.894531 383.734375 526.554688 348.191406 L 440.691406 396.496094 L 543.265625 454.238281 " fill-opacity="1" fill-rule="nonzero"/><path fill="#fdfcd3" d="M 308.542969 454.289062 L 411.214844 396.496094 L 325.300781 348.144531 C 321.835938 376.65625 317.546875 405.066406 312.488281 433.242188 C 311.238281 440.273438 309.9375 447.253906 308.542969 454.289062 " fill-opacity="1" fill-rule="nonzero"/><path fill="#fdfcd3" d="M 525.980469 461.078125 L 425.953125 404.78125 L 325.925781 461.078125 Z M 525.980469 461.078125 " fill-opacity="1" fill-rule="nonzero"/><path fill="#fdfcd3" d="M 548.617188 480.628906 L 438.425781 559.132812 L 603.902344 677.070312 C 581.121094 612.585938 562.679688 547.042969 548.617188 480.628906 " fill-opacity="1" fill-rule="nonzero"/><path fill="#fdfcd3" d="M 509.941406 627.855469 L 425.953125 567.992188 L 341.960938 627.855469 C 368.5 617.550781 396.914062 612.105469 425.953125 612.105469 C 454.996094 612.105469 483.40625 617.550781 509.941406 627.855469 " fill-opacity="1" fill-rule="nonzero"/><path fill="#fdfcd3" d="M 303.242188 480.582031 C 289.179688 547.140625 270.636719 612.972656 248.003906 677.070312 L 413.527344 559.132812 L 303.242188 480.582031 " fill-opacity="1" fill-rule="nonzero"/><path fill="#fdfcd3" d="M 425.953125 550.269531 L 530.894531 475.527344 L 321.015625 475.527344 Z M 425.953125 550.269531 " fill-opacity="1" fill-rule="nonzero"/><path fill="#fdfcd3" d="M 425.953125 388.210938 L 504.933594 343.761719 L 346.972656 343.761719 Z M 425.953125 388.210938 " fill-opacity="1" fill-rule="nonzero"/><path fill="#fdfcd3" d="M 494.582031 236.320312 L 357.328125 236.320312 L 425.953125 272.390625 Z M 494.582031 236.320312 " fill-opacity="1" fill-rule="nonzero"/><path fill="#fdfcd3" d="M 356.941406 125.695312 L 425.953125 164.992188 L 494.964844 125.695312 Z M 356.941406 125.695312 " fill-opacity="1" fill-rule="nonzero"/><path fill="#fdfcd3" d="M 529.492188 125.695312 L 529.492188 163.261719 L 627.691406 125.695312 Z M 529.492188 125.695312 " fill-opacity="1" fill-rule="nonzero"/><path fill="#fdfcd3" d="M 322.359375 163.839844 C 322.410156 162.25 322.410156 160.609375 322.410156 159.023438 L 322.410156 125.695312 L 222.625 125.695312 L 322.359375 163.839844 " fill-opacity="1" fill-rule="nonzero"/><path fill="#fdfcd3" d="M 666.75 92.789062 L 618.589844 92.789062 C 614.597656 92.789062 611.363281 96.023438 611.363281 100.015625 C 611.363281 104 614.597656 107.238281 618.589844 107.238281 L 666.75 107.238281 C 670.738281 107.238281 673.976562 104 673.976562 100.015625 C 673.976562 96.023438 670.738281 92.789062 666.75 92.789062 " fill-opacity="1" fill-rule="nonzero"/><path fill="#fdfcd3" d="M 666.75 72.722656 L 618.589844 72.722656 C 614.597656 72.722656 611.363281 75.957031 611.363281 79.945312 C 611.363281 83.933594 614.597656 87.167969 618.589844 87.167969 L 666.75 87.167969 C 670.738281 87.167969 673.976562 83.933594 673.976562 79.945312 C 673.976562 75.957031 670.738281 72.722656 666.75 72.722656 " fill-opacity="1" fill-rule="nonzero"/><path fill="#fdfcd3" d="M 618.589844 67.101562 L 666.75 67.101562 C 670.738281 67.101562 673.976562 63.867188 673.976562 59.878906 C 673.976562 55.886719 670.738281 52.652344 666.75 52.652344 L 618.589844 52.652344 C 614.597656 52.652344 611.363281 55.886719 611.363281 59.878906 C 611.363281 63.867188 614.597656 67.101562 618.589844 67.101562 " fill-opacity="1" fill-rule="nonzero"/><path fill="#fdfcd3" d="M 534.9375 288.476562 C 535.949219 301.089844 537.203125 313.613281 538.546875 326.1875 L 630.242188 288.476562 L 534.9375 288.476562 " fill-opacity="1" fill-rule="nonzero"/><path fill="#fdfcd3" d="M 666.75 255.546875 L 618.589844 255.546875 C 614.597656 255.546875 611.363281 258.785156 611.363281 262.773438 C 611.363281 266.761719 614.597656 269.996094 618.589844 269.996094 L 666.75 269.996094 C 670.738281 269.996094 673.976562 266.761719 673.976562 262.773438 C 673.976562 258.785156 670.738281 255.546875 666.75 255.546875 " fill-opacity="1" fill-rule="nonzero"/><path fill="#fdfcd3" d="M 666.75 235.480469 L 618.589844 235.480469 C 614.597656 235.480469 611.363281 238.71875 611.363281 242.707031 C 611.363281 246.691406 614.597656 249.925781 618.589844 249.925781 L 666.75 249.925781 C 670.738281 249.925781 673.976562 246.691406 673.976562 242.707031 C 673.976562 238.71875 670.738281 235.480469 666.75 235.480469 " fill-opacity="1" fill-rule="nonzero"/><path fill="#fdfcd3" d="M 666.75 215.410156 L 618.589844 215.410156 C 614.597656 215.410156 611.363281 218.652344 611.363281 222.636719 C 611.363281 226.625 614.597656 229.859375 618.589844 229.859375 L 666.75 229.859375 C 670.738281 229.859375 673.976562 226.625 673.976562 222.636719 C 673.976562 218.652344 670.738281 215.410156 666.75 215.410156 " fill-opacity="1" fill-rule="nonzero"/><path fill="#fdfcd3" d="M 316.921875 288.425781 L 220.074219 288.425781 L 313.214844 326.8125 C 314.609375 314.046875 315.859375 301.238281 316.921875 288.425781 " fill-opacity="1" fill-rule="nonzero"/><path fill="#fdfcd3" d="M 238.949219 262.75 C 238.949219 258.757812 235.71875 255.523438 231.726562 255.523438 L 183.566406 255.523438 C 179.578125 255.523438 176.339844 258.757812 176.339844 262.75 C 176.339844 266.738281 179.578125 269.972656 183.566406 269.972656 L 231.726562 269.972656 C 235.71875 269.972656 238.949219 266.738281 238.949219 262.75 " fill-opacity="1" fill-rule="nonzero"/><path fill="#fdfcd3" d="M 183.566406 249.910156 L 231.726562 249.910156 C 235.71875 249.910156 238.949219 246.675781 238.949219 242.6875 C 238.949219 238.695312 235.71875 235.460938 231.726562 235.460938 L 183.566406 235.460938 C 179.578125 235.460938 176.339844 238.695312 176.339844 242.6875 C 176.339844 246.675781 179.578125 249.910156 183.566406 249.910156 " fill-opacity="1" fill-rule="nonzero"/><path fill="#fdfcd3" d="M 183.566406 229.839844 L 231.726562 229.839844 C 235.71875 229.839844 238.949219 226.605469 238.949219 222.613281 C 238.949219 218.628906 235.71875 215.394531 231.726562 215.394531 L 183.566406 215.394531 C 179.578125 215.394531 176.339844 218.628906 176.339844 222.613281 C 176.339844 226.605469 179.578125 229.839844 183.566406 229.839844 " fill-opacity="1" fill-rule="nonzero"/><path fill="#fdfcd3" d="M 183.566406 107.238281 L 231.726562 107.238281 C 235.71875 107.238281 238.949219 104 238.949219 100.015625 C 238.949219 96.023438 235.71875 92.789062 231.726562 92.789062 L 183.566406 92.789062 C 179.578125 92.789062 176.339844 96.023438 176.339844 100.015625 C 176.339844 104 179.578125 107.238281 183.566406 107.238281 " fill-opacity="1" fill-rule="nonzero"/><path fill="#fdfcd3" d="M 183.566406 87.167969 L 231.726562 87.167969 C 235.71875 87.167969 238.949219 83.933594 238.949219 79.945312 C 238.949219 75.957031 235.71875 72.722656 231.726562 72.722656 L 183.566406 72.722656 C 179.578125 72.722656 176.339844 75.957031 176.339844 79.945312 C 176.339844 83.933594 179.578125 87.167969 183.566406 87.167969 " fill-opacity="1" fill-rule="nonzero"/><path fill="#fdfcd3" d="M 183.566406 67.101562 L 231.726562 67.101562 C 235.71875 67.101562 238.949219 63.867188 238.949219 59.878906 C 238.949219 55.886719 235.71875 52.652344 231.726562 52.652344 L 183.566406 52.652344 C 179.578125 52.652344 176.339844 55.886719 176.339844 59.878906 C 176.339844 63.867188 179.578125 67.101562 183.566406 67.101562 " fill-opacity="1" fill-rule="nonzero"/></svg>