<svg xmlns="http://www.w3.org/2000/svg" xmlns:xlink="http://www.w3.org/1999/xlink" width="500" zoomAndPan="magnify" viewBox="0 0 375 374.999991" height="500" preserveAspectRatio="xMidYMid meet" version="1.0"><path fill="#e9f1dc" d="M 37.636719 111.738281 C 30.429688 127.59375 20.6875 160.898438 24.976562 198.648438 C 30.476562 247.085938 56.78125 282.320312 83.261719 303.777344 C 171.144531 374.980469 332.027344 328.980469 353.328125 261.910156 C 357.195312 249.738281 356.109375 238.003906 354.773438 223.5625 C 350.519531 177.632812 332.449219 160.605469 317.382812 111.835938 C 303.671875 67.453125 315.761719 64.78125 302.945312 45.050781 C 275.132812 2.25 194.804688 0.0273438 139.5625 20.546875 C 118.347656 28.429688 64 53.722656 37.636719 111.738281 " fill-opacity="1" fill-rule="nonzero"/><path fill="#95c251" d="M 270.578125 72.375 C 264.242188 72.636719 258.894531 67.714844 258.632812 61.378906 C 258.371094 55.046875 263.292969 49.699219 269.628906 49.433594 C 275.960938 49.171875 281.3125 54.09375 281.574219 60.429688 C 281.835938 66.765625 276.914062 72.113281 270.578125 72.375 Z M 293.246094 62.179688 L 293.058594 57.722656 L 288.269531 56.847656 C 288.042969 55.824219 287.734375 54.832031 287.347656 53.882812 L 290.78125 50.4375 L 288.394531 46.671875 L 283.808594 48.308594 C 283.105469 47.546875 282.34375 46.847656 281.523438 46.210938 L 282.777344 41.5 L 278.828125 39.433594 L 275.679688 43.140625 C 274.699219 42.832031 273.683594 42.609375 272.644531 42.464844 L 271.378906 37.765625 L 266.921875 37.949219 L 266.046875 42.738281 C 265.023438 42.96875 264.03125 43.277344 263.082031 43.664062 L 259.636719 40.226562 L 255.867188 42.613281 L 257.507812 47.203125 C 256.746094 47.90625 256.042969 48.667969 255.40625 49.484375 L 250.699219 48.230469 L 248.632812 52.179688 L 252.339844 55.332031 C 252.03125 56.3125 251.804688 57.324219 251.664062 58.363281 L 246.960938 59.632812 L 247.148438 64.085938 L 251.9375 64.960938 C 252.164062 65.984375 252.472656 66.976562 252.863281 67.929688 L 249.425781 71.375 L 251.8125 75.136719 L 256.402344 73.5 C 257.101562 74.265625 257.867188 74.96875 258.683594 75.601562 L 257.429688 80.308594 L 261.378906 82.378906 L 264.53125 78.671875 C 265.511719 78.976562 266.523438 79.203125 267.5625 79.34375 L 268.832031 84.046875 L 273.285156 83.863281 L 274.160156 79.070312 C 275.183594 78.84375 276.175781 78.535156 277.125 78.148438 L 280.570312 81.582031 L 284.335938 79.195312 L 282.699219 74.609375 C 283.460938 73.90625 284.164062 73.140625 284.800781 72.324219 L 289.507812 73.578125 L 291.574219 69.628906 L 287.867188 66.480469 C 288.175781 65.5 288.398438 64.484375 288.542969 63.445312 L 293.246094 62.179688 " fill-opacity="1" fill-rule="nonzero"/><path fill="#1d5f31" d="M 268.90625 48.824219 C 268.753906 48.824219 268.601562 48.824219 268.449219 48.832031 C 265.546875 48.953125 262.863281 50.195312 260.898438 52.335938 C 258.929688 54.472656 257.910156 57.246094 258.03125 60.152344 C 258.152344 63.054688 259.394531 65.734375 261.53125 67.703125 C 263.671875 69.671875 266.449219 70.6875 269.347656 70.566406 C 275.34375 70.324219 280.015625 65.242188 279.769531 59.25 C 279.527344 53.410156 274.695312 48.824219 268.90625 48.824219 Z M 268.886719 71.78125 C 265.847656 71.78125 262.964844 70.660156 260.714844 68.589844 C 258.34375 66.402344 256.960938 63.425781 256.828125 60.199219 C 256.695312 56.976562 257.824219 53.894531 260.011719 51.519531 C 262.195312 49.144531 265.171875 47.761719 268.402344 47.628906 C 275.0625 47.355469 280.695312 52.542969 280.972656 59.199219 C 281.246094 65.855469 276.054688 71.496094 269.402344 71.769531 C 269.226562 71.777344 269.054688 71.78125 268.886719 71.78125 Z M 263.328125 76.863281 C 263.386719 76.863281 263.445312 76.871094 263.507812 76.890625 C 264.445312 77.1875 265.433594 77.40625 266.4375 77.542969 C 266.679688 77.574219 266.878906 77.75 266.941406 77.980469 L 268.082031 82.21875 L 271.574219 82.078125 L 272.363281 77.757812 C 272.410156 77.519531 272.589844 77.332031 272.824219 77.277344 C 273.816406 77.058594 274.785156 76.757812 275.695312 76.386719 C 275.921875 76.296875 276.175781 76.347656 276.347656 76.515625 L 279.453125 79.613281 L 282.40625 77.742188 L 280.929688 73.605469 C 280.847656 73.378906 280.910156 73.125 281.089844 72.960938 C 281.820312 72.285156 282.507812 71.542969 283.121094 70.753906 C 283.269531 70.558594 283.519531 70.476562 283.753906 70.539062 L 287.992188 71.667969 L 289.617188 68.570312 L 286.273438 65.734375 C 286.089844 65.578125 286.019531 65.324219 286.089844 65.09375 C 286.382812 64.152344 286.605469 63.164062 286.742188 62.160156 C 286.777344 61.921875 286.949219 61.722656 287.179688 61.660156 L 291.421875 60.515625 L 291.277344 57.023438 L 286.957031 56.238281 C 286.71875 56.191406 286.53125 56.011719 286.476562 55.773438 C 286.257812 54.78125 285.957031 53.816406 285.585938 52.902344 C 285.496094 52.679688 285.546875 52.421875 285.714844 52.253906 L 288.8125 49.148438 L 286.9375 46.195312 L 282.804688 47.671875 C 282.578125 47.753906 282.324219 47.691406 282.160156 47.511719 C 281.480469 46.777344 280.738281 46.09375 279.949219 45.480469 C 279.761719 45.328125 279.675781 45.082031 279.738281 44.847656 L 280.867188 40.605469 L 277.769531 38.984375 L 274.933594 42.324219 C 274.773438 42.507812 274.523438 42.582031 274.292969 42.507812 C 273.351562 42.214844 272.363281 41.996094 271.359375 41.859375 C 271.117188 41.824219 270.921875 41.652344 270.859375 41.417969 L 269.71875 37.179688 L 266.222656 37.324219 L 265.433594 41.644531 C 265.390625 41.878906 265.210938 42.070312 264.972656 42.121094 C 263.980469 42.339844 263.015625 42.644531 262.101562 43.015625 C 261.878906 43.105469 261.625 43.054688 261.449219 42.882812 L 258.347656 39.789062 L 255.394531 41.660156 L 256.871094 45.792969 C 256.953125 46.023438 256.890625 46.277344 256.710938 46.441406 C 255.976562 47.117188 255.292969 47.859375 254.675781 48.648438 C 254.527344 48.839844 254.28125 48.921875 254.046875 48.863281 L 249.804688 47.730469 L 248.183594 50.832031 L 251.523438 53.667969 C 251.707031 53.824219 251.78125 54.078125 251.710938 54.308594 C 251.414062 55.25 251.191406 56.238281 251.058594 57.242188 C 251.027344 57.480469 250.851562 57.675781 250.617188 57.738281 L 246.378906 58.882812 L 246.523438 62.375 L 250.839844 63.164062 C 251.082031 63.207031 251.269531 63.390625 251.320312 63.625 C 251.539062 64.617188 251.839844 65.582031 252.214844 66.5 C 252.304688 66.722656 252.253906 66.976562 252.082031 67.148438 L 248.988281 70.253906 L 250.859375 73.207031 L 254.992188 71.730469 C 255.222656 71.648438 255.476562 71.710938 255.640625 71.886719 C 256.316406 72.625 257.058594 73.308594 257.847656 73.921875 C 258.039062 74.070312 258.125 74.320312 258.0625 74.550781 L 256.933594 78.792969 L 260.03125 80.417969 L 262.867188 77.078125 C 262.980469 76.9375 263.152344 76.863281 263.328125 76.863281 Z M 267.625 83.445312 C 267.355469 83.445312 267.113281 83.261719 267.046875 83 L 265.878906 78.679688 C 265.078125 78.550781 264.292969 78.375 263.53125 78.152344 L 260.636719 81.5625 C 260.453125 81.777344 260.144531 81.839844 259.898438 81.707031 L 255.949219 79.636719 C 255.699219 79.507812 255.574219 79.222656 255.644531 78.949219 L 256.796875 74.625 C 256.175781 74.121094 255.582031 73.574219 255.027344 72.996094 L 250.8125 74.503906 C 250.546875 74.597656 250.25 74.496094 250.101562 74.257812 L 247.714844 70.488281 C 247.5625 70.253906 247.597656 69.941406 247.796875 69.742188 L 250.953125 66.578125 C 250.667969 65.835938 250.429688 65.066406 250.238281 64.277344 L 245.835938 63.472656 C 245.558594 63.425781 245.351562 63.1875 245.34375 62.90625 L 245.15625 58.449219 C 245.144531 58.171875 245.328125 57.917969 245.601562 57.84375 L 249.921875 56.679688 C 250.046875 55.878906 250.222656 55.09375 250.445312 54.332031 L 247.039062 51.4375 C 246.824219 51.253906 246.761719 50.949219 246.894531 50.699219 L 248.960938 46.746094 C 249.09375 46.5 249.378906 46.375 249.648438 46.445312 L 253.976562 47.597656 C 254.480469 46.976562 255.027344 46.382812 255.605469 45.828125 L 254.101562 41.613281 C 254.003906 41.347656 254.105469 41.054688 254.34375 40.902344 L 258.109375 38.515625 C 258.347656 38.363281 258.65625 38.398438 258.859375 38.597656 L 262.023438 41.753906 C 262.765625 41.46875 263.535156 41.230469 264.320312 41.039062 L 265.125 36.636719 C 265.175781 36.359375 265.410156 36.152344 265.691406 36.140625 L 270.148438 35.957031 C 270.429688 35.945312 270.683594 36.128906 270.753906 36.402344 L 271.917969 40.722656 C 272.71875 40.851562 273.507812 41.023438 274.269531 41.246094 L 277.164062 37.839844 C 277.34375 37.625 277.652344 37.5625 277.902344 37.695312 L 281.851562 39.761719 C 282.101562 39.890625 282.226562 40.179688 282.15625 40.453125 L 281 44.777344 C 281.625 45.28125 282.214844 45.828125 282.769531 46.40625 L 286.984375 44.898438 C 287.253906 44.804688 287.546875 44.90625 287.699219 45.144531 L 290.085938 48.910156 C 290.234375 49.148438 290.203125 49.457031 290.003906 49.65625 L 286.847656 52.824219 C 287.128906 53.5625 287.371094 54.335938 287.5625 55.125 L 291.964844 55.925781 C 292.238281 55.976562 292.445312 56.210938 292.457031 56.496094 L 292.644531 60.949219 C 292.652344 61.230469 292.46875 61.480469 292.199219 61.554688 L 287.875 62.71875 C 287.75 63.519531 287.578125 64.308594 287.351562 65.070312 L 290.761719 67.964844 C 290.976562 68.144531 291.035156 68.453125 290.90625 68.703125 L 288.835938 72.652344 C 288.707031 72.902344 288.421875 73.027344 288.148438 72.953125 L 283.820312 71.800781 C 283.320312 72.425781 282.769531 73.015625 282.195312 73.570312 L 283.699219 77.789062 C 283.796875 78.054688 283.695312 78.347656 283.453125 78.5 L 279.691406 80.886719 C 279.453125 81.039062 279.144531 81.003906 278.945312 80.804688 L 275.777344 77.648438 C 275.035156 77.929688 274.265625 78.171875 273.476562 78.363281 L 272.671875 82.765625 C 272.621094 83.042969 272.390625 83.246094 272.105469 83.257812 L 267.652344 83.445312 C 267.640625 83.445312 267.632812 83.445312 267.625 83.445312 " fill-opacity="1" fill-rule="nonzero"/><path fill="#95c251" d="M 216.898438 56.101562 C 207.960938 57.484375 199.59375 51.363281 198.210938 42.429688 C 196.824219 33.492188 202.945312 25.125 211.878906 23.738281 C 220.816406 22.355469 229.1875 28.476562 230.570312 37.410156 C 231.957031 46.347656 225.835938 54.714844 216.898438 56.101562 Z M 247.390625 38.023438 L 246.417969 31.734375 L 239.488281 31.261719 C 239 29.847656 238.40625 28.492188 237.703125 27.207031 L 242.023438 21.773438 L 238.03125 16.820312 L 231.796875 19.875 C 230.679688 18.90625 229.484375 18.03125 228.222656 17.261719 L 229.246094 10.390625 L 223.316406 8.089844 L 219.445312 13.847656 C 218.007812 13.570312 216.535156 13.414062 215.042969 13.378906 L 212.492188 6.917969 L 206.207031 7.894531 L 205.734375 14.824219 C 204.316406 15.308594 202.960938 15.90625 201.675781 16.605469 L 196.246094 12.289062 L 191.289062 16.273438 L 194.347656 22.515625 C 193.378906 23.632812 192.503906 24.828125 191.734375 26.085938 L 184.859375 25.0625 L 182.5625 30.992188 L 188.320312 34.863281 C 188.042969 36.300781 187.886719 37.773438 187.847656 39.269531 L 181.386719 41.816406 L 182.363281 48.101562 L 189.292969 48.578125 C 189.777344 49.992188 190.375 51.347656 191.074219 52.632812 L 186.757812 58.066406 L 190.746094 63.019531 L 196.984375 59.964844 C 198.101562 60.933594 199.296875 61.804688 200.554688 62.574219 L 199.53125 69.449219 L 205.460938 71.75 L 209.332031 65.988281 C 210.769531 66.269531 212.242188 66.425781 213.738281 66.457031 L 216.285156 72.921875 L 222.574219 71.945312 L 223.046875 65.015625 C 224.460938 64.53125 225.816406 63.933594 227.101562 63.234375 L 232.535156 67.550781 L 237.488281 63.5625 L 234.433594 57.324219 C 235.402344 56.207031 236.277344 55.011719 237.046875 53.753906 L 243.917969 54.777344 L 246.21875 48.847656 L 240.460938 44.976562 C 240.738281 43.539062 240.894531 42.0625 240.929688 40.570312 L 247.390625 38.023438 " fill-opacity="1" fill-rule="nonzero"/><path fill="#1d5f31" d="M 212.6875 24.542969 C 211.875 24.542969 211.054688 24.605469 210.234375 24.734375 C 206.074219 25.378906 202.410156 27.609375 199.921875 31.007812 C 197.4375 34.410156 196.421875 38.574219 197.066406 42.738281 C 198.398438 51.332031 206.472656 57.238281 215.070312 55.90625 C 223.660156 54.574219 229.570312 46.496094 228.238281 37.902344 C 227.59375 33.738281 225.363281 30.078125 221.964844 27.589844 C 219.234375 25.59375 216.007812 24.542969 212.6875 24.542969 Z M 215.160156 56.5 L 215.164062 56.5 Z M 212.640625 57.296875 C 204.421875 57.296875 197.175781 51.292969 195.878906 42.921875 C 195.183594 38.4375 196.273438 33.957031 198.953125 30.296875 C 201.628906 26.640625 205.570312 24.238281 210.050781 23.546875 C 214.53125 22.851562 219.015625 23.941406 222.675781 26.621094 C 226.332031 29.296875 228.730469 33.238281 229.425781 37.71875 C 230.863281 46.96875 224.503906 55.660156 215.253906 57.097656 C 214.375 57.230469 213.503906 57.296875 212.640625 57.296875 Z M 207.59375 65.789062 C 207.632812 65.789062 207.671875 65.792969 207.710938 65.796875 C 209.101562 66.070312 210.550781 66.222656 212.015625 66.257812 C 212.257812 66.265625 212.472656 66.414062 212.5625 66.640625 L 214.933594 72.652344 L 220.265625 71.828125 L 220.707031 65.375 C 220.726562 65.132812 220.882812 64.925781 221.113281 64.847656 C 222.496094 64.371094 223.832031 63.785156 225.078125 63.105469 C 225.289062 62.992188 225.550781 63.011719 225.738281 63.164062 L 230.796875 67.179688 L 235 63.796875 L 232.15625 57.988281 C 232.050781 57.773438 232.082031 57.511719 232.242188 57.332031 C 233.1875 56.242188 234.046875 55.070312 234.792969 53.839844 C 234.921875 53.632812 235.160156 53.523438 235.394531 53.558594 L 241.796875 54.511719 L 243.746094 49.476562 L 238.386719 45.875 C 238.183594 45.742188 238.085938 45.5 238.128906 45.261719 C 238.402344 43.867188 238.554688 42.417969 238.589844 40.957031 C 238.59375 40.714844 238.746094 40.5 238.96875 40.410156 L 244.984375 38.039062 L 244.160156 32.703125 L 237.707031 32.261719 C 237.464844 32.246094 237.257812 32.085938 237.179688 31.859375 C 236.703125 30.476562 236.117188 29.140625 235.441406 27.894531 C 235.324219 27.683594 235.34375 27.421875 235.496094 27.234375 L 239.511719 22.175781 L 236.128906 17.96875 L 230.320312 20.816406 C 230.105469 20.921875 229.84375 20.890625 229.664062 20.730469 C 228.574219 19.789062 227.402344 18.925781 226.167969 18.175781 C 225.964844 18.050781 225.855469 17.8125 225.890625 17.574219 L 226.84375 11.175781 L 221.8125 9.226562 L 218.207031 14.585938 C 218.074219 14.785156 217.832031 14.886719 217.59375 14.839844 C 216.199219 14.570312 214.75 14.417969 213.289062 14.382812 C 213.046875 14.375 212.832031 14.226562 212.742188 14 L 210.371094 7.988281 L 205.035156 8.8125 L 204.597656 15.265625 C 204.578125 15.507812 204.421875 15.714844 204.191406 15.792969 C 202.808594 16.265625 201.476562 16.855469 200.226562 17.53125 C 200.015625 17.648438 199.753906 17.628906 199.5625 17.476562 L 194.511719 13.460938 L 190.304688 16.84375 L 193.148438 22.652344 C 193.253906 22.867188 193.222656 23.125 193.0625 23.308594 C 192.117188 24.398438 191.257812 25.574219 190.507812 26.800781 C 190.382812 27.007812 190.140625 27.117188 189.90625 27.082031 L 183.507812 26.128906 L 181.558594 31.160156 L 186.917969 34.765625 C 187.117188 34.898438 187.21875 35.140625 187.171875 35.378906 C 186.902344 36.773438 186.746094 38.222656 186.714844 39.683594 C 186.707031 39.925781 186.558594 40.140625 186.332031 40.230469 L 180.316406 42.601562 L 181.144531 47.9375 L 187.597656 48.375 C 187.839844 48.394531 188.046875 48.550781 188.125 48.78125 C 188.601562 50.167969 189.1875 51.5 189.867188 52.746094 C 189.980469 52.957031 189.960938 53.21875 189.808594 53.40625 L 185.792969 58.464844 L 189.175781 62.667969 L 194.984375 59.824219 C 195.199219 59.71875 195.457031 59.75 195.640625 59.910156 C 196.730469 60.851562 197.90625 61.710938 199.132812 62.464844 C 199.339844 62.589844 199.449219 62.828125 199.414062 63.066406 L 198.460938 69.464844 L 203.496094 71.414062 L 207.097656 66.054688 C 207.210938 65.886719 207.398438 65.789062 207.59375 65.789062 Z M 214.550781 73.925781 C 214.304688 73.925781 214.082031 73.777344 213.988281 73.542969 L 211.589844 67.449219 C 210.328125 67.402344 209.082031 67.269531 207.875 67.054688 L 204.226562 72.484375 C 204.066406 72.71875 203.769531 72.8125 203.507812 72.710938 L 197.578125 70.410156 C 197.316406 70.308594 197.160156 70.039062 197.199219 69.761719 L 198.167969 63.28125 C 197.117188 62.617188 196.105469 61.878906 195.15625 61.078125 L 189.273438 63.960938 C 189.019531 64.085938 188.714844 64.019531 188.539062 63.796875 L 184.550781 58.84375 C 184.375 58.621094 184.375 58.3125 184.550781 58.089844 L 188.621094 52.96875 C 188.050781 51.882812 187.546875 50.734375 187.117188 49.550781 L 180.582031 49.101562 C 180.304688 49.085938 180.074219 48.875 180.03125 48.597656 L 179.054688 42.308594 C 179.011719 42.03125 179.167969 41.761719 179.429688 41.660156 L 185.523438 39.257812 C 185.570312 38 185.703125 36.753906 185.917969 35.542969 L 180.488281 31.894531 C 180.253906 31.738281 180.160156 31.4375 180.261719 31.175781 L 182.5625 25.246094 C 182.664062 24.984375 182.933594 24.828125 183.210938 24.867188 L 189.691406 25.835938 C 190.355469 24.785156 191.09375 23.777344 191.894531 22.824219 L 189.011719 16.941406 C 188.886719 16.6875 188.953125 16.382812 189.175781 16.207031 L 194.128906 12.21875 C 194.347656 12.042969 194.660156 12.042969 194.882812 12.21875 L 200.003906 16.289062 C 201.09375 15.714844 202.238281 15.214844 203.421875 14.785156 L 203.867188 8.25 C 203.886719 7.96875 204.097656 7.742188 204.375 7.695312 L 210.660156 6.722656 C 210.941406 6.679688 211.207031 6.835938 211.3125 7.097656 L 213.71875 13.191406 C 214.972656 13.238281 216.21875 13.371094 217.429688 13.589844 L 221.078125 8.15625 C 221.234375 7.921875 221.535156 7.828125 221.796875 7.933594 L 227.726562 10.230469 C 227.988281 10.332031 228.144531 10.601562 228.105469 10.878906 L 227.136719 17.363281 C 228.1875 18.023438 229.199219 18.761719 230.144531 19.5625 L 236.03125 16.679688 C 236.285156 16.554688 236.589844 16.621094 236.765625 16.84375 L 240.753906 21.796875 C 240.929688 22.015625 240.929688 22.328125 240.753906 22.550781 L 236.683594 27.671875 C 237.257812 28.761719 237.757812 29.90625 238.183594 31.09375 L 244.71875 31.535156 C 245.003906 31.554688 245.230469 31.765625 245.273438 32.042969 L 246.25 38.332031 C 246.292969 38.609375 246.136719 38.878906 245.875 38.980469 L 239.78125 41.382812 C 239.734375 42.644531 239.601562 43.886719 239.386719 45.097656 L 244.816406 48.75 C 245.046875 48.902344 245.144531 49.203125 245.042969 49.464844 L 242.742188 55.394531 C 242.640625 55.65625 242.375 55.8125 242.09375 55.773438 L 235.613281 54.804688 C 234.949219 55.855469 234.210938 56.867188 233.410156 57.816406 L 236.292969 63.699219 C 236.414062 63.953125 236.351562 64.257812 236.128906 64.433594 L 231.175781 68.417969 C 230.953125 68.597656 230.644531 68.597656 230.425781 68.421875 L 225.300781 64.351562 C 224.210938 64.921875 223.066406 65.425781 221.882812 65.855469 L 221.4375 72.390625 C 221.417969 72.667969 221.203125 72.898438 220.925781 72.941406 L 214.640625 73.917969 C 214.609375 73.921875 214.582031 73.925781 214.550781 73.925781 " fill-opacity="1" fill-rule="nonzero"/><path fill="#000000" d="M 200.394531 325.292969 C 179.625 325.292969 163.808594 321.214844 153.121094 317.085938 C 152.808594 316.96875 152.65625 316.617188 152.777344 316.308594 C 152.894531 316 153.242188 315.84375 153.554688 315.964844 C 168.570312 321.765625 193.828125 327.464844 228.863281 321.667969 C 229.191406 321.613281 229.5 321.835938 229.554688 322.164062 C 229.609375 322.492188 229.386719 322.800781 229.058594 322.855469 C 218.644531 324.578125 209.085938 325.292969 200.394531 325.292969 " fill-opacity="1" fill-rule="nonzero"/><path fill="#000000" d="M 201.152344 332.714844 C 172.5625 332.714844 152.296875 325.921875 139.800781 319.761719 C 139.5 319.617188 139.378906 319.253906 139.527344 318.957031 C 139.671875 318.660156 140.035156 318.535156 140.332031 318.683594 C 154.546875 325.6875 178.917969 333.519531 214.316406 331.042969 C 214.640625 331.019531 214.933594 331.269531 214.957031 331.601562 C 214.980469 331.933594 214.730469 332.21875 214.402344 332.242188 C 209.800781 332.566406 205.386719 332.714844 201.152344 332.714844 " fill-opacity="1" fill-rule="nonzero"/><path fill="#000000" d="M 98.230469 55.527344 C 98.179688 55.527344 98.128906 55.523438 98.078125 55.507812 C 97.757812 55.421875 97.566406 55.09375 97.652344 54.769531 L 98.441406 51.761719 C 98.527344 51.441406 98.855469 51.25 99.175781 51.335938 C 99.5 51.421875 99.691406 51.75 99.605469 52.070312 L 98.8125 55.078125 C 98.742188 55.347656 98.5 55.527344 98.230469 55.527344 " fill-opacity="1" fill-rule="nonzero"/><path fill="#000000" d="M 96.386719 62.535156 C 96.335938 62.535156 96.285156 62.53125 96.230469 62.515625 C 95.910156 62.433594 95.71875 62.101562 95.800781 61.78125 L 96.59375 58.773438 C 96.679688 58.453125 97.011719 58.257812 97.332031 58.34375 C 97.652344 58.429688 97.84375 58.757812 97.757812 59.078125 L 96.964844 62.085938 C 96.894531 62.359375 96.652344 62.535156 96.386719 62.535156 " fill-opacity="1" fill-rule="nonzero"/><path fill="#000000" d="M 95.707031 57 C 95.65625 57 95.601562 56.992188 95.550781 56.980469 L 92.542969 56.1875 C 92.222656 56.101562 92.03125 55.773438 92.117188 55.453125 C 92.199219 55.128906 92.53125 54.9375 92.851562 55.023438 L 95.859375 55.816406 C 96.179688 55.902344 96.371094 56.230469 96.285156 56.550781 C 96.214844 56.820312 95.972656 57 95.707031 57 " fill-opacity="1" fill-rule="nonzero"/><path fill="#000000" d="M 102.714844 58.84375 C 102.664062 58.84375 102.613281 58.839844 102.558594 58.828125 L 99.550781 58.035156 C 99.230469 57.949219 99.039062 57.621094 99.121094 57.296875 C 99.207031 56.976562 99.535156 56.785156 99.859375 56.867188 L 102.867188 57.660156 C 103.1875 57.746094 103.378906 58.074219 103.296875 58.398438 C 103.222656 58.667969 102.980469 58.84375 102.714844 58.84375 " fill-opacity="1" fill-rule="nonzero"/><path fill="#000000" d="M 255.960938 317.277344 C 255.910156 317.277344 255.855469 317.273438 255.804688 317.257812 C 255.484375 317.175781 255.292969 316.84375 255.375 316.523438 L 256.171875 313.515625 C 256.253906 313.195312 256.582031 313 256.90625 313.085938 C 257.226562 313.171875 257.417969 313.5 257.332031 313.820312 L 256.542969 316.828125 C 256.46875 317.101562 256.226562 317.277344 255.960938 317.277344 " fill-opacity="1" fill-rule="nonzero"/><path fill="#000000" d="M 254.113281 324.285156 C 254.0625 324.285156 254.011719 324.277344 253.957031 324.265625 C 253.636719 324.179688 253.445312 323.851562 253.53125 323.53125 L 254.324219 320.523438 C 254.410156 320.199219 254.738281 320.007812 255.058594 320.09375 C 255.378906 320.179688 255.570312 320.507812 255.488281 320.828125 L 254.695312 323.835938 C 254.621094 324.109375 254.378906 324.285156 254.113281 324.285156 " fill-opacity="1" fill-rule="nonzero"/><path fill="#000000" d="M 253.433594 318.753906 C 253.382812 318.753906 253.332031 318.746094 253.28125 318.730469 L 250.273438 317.9375 C 249.949219 317.855469 249.757812 317.527344 249.84375 317.203125 C 249.925781 316.882812 250.257812 316.691406 250.578125 316.773438 L 253.585938 317.566406 C 253.90625 317.652344 254.097656 317.980469 254.011719 318.304688 C 253.941406 318.570312 253.699219 318.753906 253.433594 318.753906 " fill-opacity="1" fill-rule="nonzero"/><path fill="#000000" d="M 260.441406 320.597656 C 260.390625 320.597656 260.339844 320.589844 260.289062 320.578125 L 257.28125 319.785156 C 256.957031 319.699219 256.765625 319.371094 256.851562 319.050781 C 256.933594 318.726562 257.261719 318.539062 257.585938 318.621094 L 260.59375 319.414062 C 260.914062 319.5 261.109375 319.828125 261.023438 320.148438 C 260.953125 320.417969 260.707031 320.597656 260.441406 320.597656 " fill-opacity="1" fill-rule="nonzero"/><path fill="#000000" d="M 113.558594 41.152344 C 113.3125 41.152344 113.066406 41.1875 112.824219 41.25 C 112.09375 41.445312 111.484375 41.914062 111.109375 42.566406 C 110.328125 43.914062 110.792969 45.644531 112.140625 46.425781 C 112.796875 46.804688 113.558594 46.902344 114.285156 46.707031 C 115.015625 46.511719 115.625 46.046875 116 45.394531 C 116.78125 44.042969 116.316406 42.3125 114.964844 41.535156 C 114.53125 41.28125 114.046875 41.152344 113.558594 41.152344 Z M 113.546875 48.007812 C 112.851562 48.007812 112.160156 47.828125 111.539062 47.46875 C 109.617188 46.355469 108.953125 43.890625 110.066406 41.964844 C 110.605469 41.03125 111.472656 40.367188 112.511719 40.089844 C 113.550781 39.8125 114.636719 39.953125 115.570312 40.492188 C 117.492188 41.601562 118.152344 44.074219 117.042969 45.996094 C 116.503906 46.925781 115.636719 47.59375 114.597656 47.871094 C 114.25 47.964844 113.898438 48.007812 113.546875 48.007812 " fill-opacity="1" fill-rule="nonzero"/><path fill="#95c251" d="M 159.941406 30.96875 C 161.6875 31.691406 162.515625 33.699219 161.792969 35.445312 C 161.066406 37.191406 159.0625 38.023438 157.3125 37.296875 C 155.566406 36.574219 154.738281 34.566406 155.460938 32.820312 C 156.1875 31.070312 158.191406 30.242188 159.941406 30.96875 " fill-opacity="1" fill-rule="nonzero"/><path fill="#000000" d="M 49.0625 124.140625 C 48.984375 124.140625 48.90625 124.125 48.828125 124.09375 C 48.523438 123.960938 48.378906 123.609375 48.511719 123.300781 C 56.15625 105.328125 67.351562 89.597656 80.882812 77.800781 C 81.132812 77.582031 81.511719 77.609375 81.730469 77.859375 C 81.949219 78.109375 81.921875 78.492188 81.671875 78.707031 C 68.277344 90.382812 57.195312 105.96875 49.617188 123.773438 C 49.519531 124.003906 49.296875 124.140625 49.0625 124.140625 " fill-opacity="1" fill-rule="nonzero"/><path fill="#000000" d="M 47.667969 113.339844 C 47.585938 113.339844 47.5 113.320312 47.417969 113.285156 C 47.117188 113.148438 46.980469 112.792969 47.121094 112.488281 C 54.570312 96.019531 64.628906 82.015625 77.015625 70.875 C 78.519531 69.523438 80.0625 68.210938 81.605469 66.972656 C 81.867188 66.761719 82.246094 66.804688 82.453125 67.0625 C 82.660156 67.320312 82.621094 67.699219 82.359375 67.90625 C 80.832031 69.136719 79.304688 70.433594 77.820312 71.769531 C 65.558594 82.800781 55.597656 96.667969 48.214844 112.984375 C 48.117188 113.207031 47.898438 113.339844 47.667969 113.339844 " fill-opacity="1" fill-rule="nonzero"/><path fill="#1d5f31" d="M 147.523438 203.183594 C 142.671875 202.5625 139.035156 198.410156 139.035156 193.496094 L 138.402344 59.285156 L 140.785156 54.113281 C 140.785156 54.113281 145.109375 51.214844 147.375 49.917969 C 148.742188 49.140625 150.363281 48.777344 152.058594 48.992188 L 344.75 73.683594 C 349.601562 74.308594 353.238281 78.457031 353.238281 83.375 L 353.238281 216.417969 C 353.007812 224.578125 342.089844 229.496094 342.089844 229.496094 L 147.523438 203.183594 " fill-opacity="1" fill-rule="nonzero"/><path fill="#ffffff" d="M 337.832031 230.324219 L 143.972656 205.480469 C 139.089844 204.855469 135.433594 200.683594 135.433594 195.738281 L 135.433594 61.886719 C 135.433594 57.289062 139.453125 53.734375 143.992188 54.316406 L 337.847656 79.15625 C 342.730469 79.78125 346.390625 83.957031 346.390625 88.902344 L 346.390625 222.75 C 346.390625 227.351562 342.371094 230.90625 337.832031 230.324219 " fill-opacity="1" fill-rule="nonzero"/><path fill="#95c251" d="M 330.890625 224.019531 L 150.917969 200.957031 C 146.382812 200.375 142.988281 196.5 142.988281 191.910156 L 142.988281 67.648438 C 142.988281 63.378906 146.71875 60.078125 150.933594 60.617188 L 330.90625 83.679688 C 335.4375 84.261719 338.835938 88.136719 338.835938 92.726562 L 338.835938 216.988281 C 338.835938 221.257812 335.105469 224.558594 330.890625 224.019531 " fill-opacity="1" fill-rule="nonzero"/><path fill="#000000" d="M 338.789062 230.988281 C 338.445312 230.988281 338.097656 230.964844 337.753906 230.921875 L 143.898438 206.078125 C 138.730469 205.414062 134.832031 200.972656 134.832031 195.738281 L 134.761719 191 C 134.757812 190.671875 135.023438 190.394531 135.355469 190.390625 C 135.6875 190.382812 135.960938 190.652344 135.964844 190.984375 L 136.035156 195.726562 C 136.035156 200.367188 139.480469 204.296875 144.050781 204.886719 L 337.90625 229.726562 C 339.890625 229.980469 341.894531 229.367188 343.398438 228.042969 C 344.917969 226.707031 345.785156 224.777344 345.785156 222.75 L 345.785156 198.214844 C 345.785156 197.882812 346.058594 197.609375 346.390625 197.609375 C 346.722656 197.609375 346.992188 197.882812 346.992188 198.214844 L 346.992188 222.75 C 346.992188 225.125 345.96875 227.378906 344.195312 228.945312 C 342.691406 230.269531 340.765625 230.988281 338.789062 230.988281 " fill-opacity="1" fill-rule="nonzero"/><path fill="#000000" d="M 346.390625 134.636719 C 346.058594 134.636719 345.785156 134.363281 345.785156 134.035156 L 345.785156 88.902344 C 345.785156 84.273438 342.34375 80.339844 337.769531 79.753906 L 143.914062 54.910156 C 141.933594 54.65625 139.929688 55.269531 138.421875 56.597656 C 136.90625 57.933594 136.035156 59.859375 136.035156 61.886719 L 135.566406 128.421875 C 135.566406 128.753906 135.28125 129.011719 134.960938 129.019531 C 134.628906 129.015625 134.363281 128.746094 134.363281 128.414062 L 134.832031 61.882812 C 134.832031 59.515625 135.851562 57.257812 137.628906 55.691406 C 139.394531 54.140625 141.738281 53.421875 144.066406 53.71875 L 337.925781 78.558594 C 343.09375 79.222656 346.992188 83.667969 346.992188 88.902344 L 346.992188 134.035156 C 346.992188 134.363281 346.722656 134.636719 346.390625 134.636719 " fill-opacity="1" fill-rule="nonzero"/><path fill="#95c251" d="M 224.832031 305.597656 L 26.65625 279.917969 C 25.105469 279.71875 24.230469 278.414062 24.25 277.109375 C 24.265625 276.207031 24.335938 269.867188 24.335938 269.867188 L 129.121094 209.675781 C 134.371094 206.660156 141.164062 205.5 147.160156 206.269531 L 342.835938 231.632812 C 344.015625 231.785156 345.023438 232.554688 345.492188 233.652344 L 345.804688 234.394531 C 345.804688 234.394531 345.640625 239.679688 345.703125 240.914062 C 345.757812 241.878906 345.328125 242.878906 344.320312 243.453125 L 242.164062 302.144531 C 236.914062 305.15625 230.828125 306.371094 224.832031 305.597656 " fill-opacity="1" fill-rule="nonzero"/><path fill="#ffffff" d="M 224.832031 298.542969 L 27.367188 272.910156 C 24.746094 272.574219 24.054688 269.082031 26.347656 267.765625 L 127.957031 209.449219 C 133.207031 206.4375 139.289062 205.226562 145.289062 206 L 342.757812 231.628906 C 345.378906 231.964844 346.066406 235.460938 343.773438 236.777344 L 242.164062 295.089844 C 236.917969 298.101562 230.832031 299.316406 224.832031 298.542969 " fill-opacity="1" fill-rule="nonzero"/><path fill="#e9f1dc" d="M 263.496094 266.175781 L 92.265625 243.789062 C 89.898438 243.480469 89.273438 240.328125 91.347656 239.136719 L 131.609375 216.265625 C 136.351562 213.542969 141.84375 212.449219 147.261719 213.144531 L 318.492188 235.535156 C 320.859375 235.839844 321.484375 238.996094 319.410156 240.183594 L 279.148438 263.058594 C 274.40625 265.777344 268.910156 266.875 263.496094 266.175781 " fill-opacity="1" fill-rule="nonzero"/><path fill="#e9f1dc" d="M 163.011719 279.316406 L 115.355469 273.128906 C 114.722656 273.050781 114.554688 272.207031 115.109375 271.886719 L 138.136719 259.234375 C 139.402344 258.507812 140.871094 258.214844 142.320312 258.402344 L 189.976562 264.585938 C 190.609375 264.667969 190.777344 265.511719 190.222656 265.828125 L 167.195312 278.484375 C 165.925781 279.210938 164.460938 279.503906 163.011719 279.316406 " fill-opacity="1" fill-rule="nonzero"/><path fill="#000000" d="M 228.320312 299.371094 C 227.132812 299.371094 225.941406 299.292969 224.757812 299.140625 L 101.359375 283.449219 C 101.027344 283.40625 100.792969 283.105469 100.835938 282.773438 C 100.878906 282.445312 101.179688 282.210938 101.507812 282.253906 L 224.910156 297.949219 C 230.738281 298.695312 236.761719 297.496094 241.863281 294.570312 L 343.472656 236.257812 C 344.464844 235.6875 344.664062 234.691406 344.515625 233.949219 C 344.367188 233.210938 343.808594 232.371094 342.679688 232.226562 L 145.210938 206.59375 C 139.382812 205.84375 133.359375 207.042969 128.257812 209.972656 L 103.324219 224.007812 C 103.035156 224.171875 102.667969 224.070312 102.507812 223.777344 C 102.34375 223.488281 102.445312 223.121094 102.734375 222.957031 L 127.660156 208.925781 C 132.988281 205.871094 139.277344 204.617188 145.363281 205.402344 L 342.832031 231.03125 C 344.285156 231.21875 345.410156 232.273438 345.695312 233.714844 C 345.984375 235.160156 345.347656 236.566406 344.070312 237.300781 L 242.460938 295.613281 C 238.171875 298.074219 233.253906 299.371094 228.320312 299.371094 " fill-opacity="1" fill-rule="nonzero"/><path fill="#000000" d="M 41.15625 275.429688 C 41.128906 275.429688 41.101562 275.429688 41.070312 275.425781 L 27.28125 273.507812 C 25.835938 273.320312 24.710938 272.269531 24.425781 270.828125 C 24.136719 269.382812 24.773438 267.972656 26.050781 267.242188 L 42.046875 257.863281 C 42.335938 257.695312 42.703125 257.789062 42.871094 258.078125 C 43.039062 258.363281 42.945312 258.730469 42.65625 258.902344 L 26.652344 268.285156 C 25.652344 268.859375 25.457031 269.851562 25.605469 270.59375 C 25.75 271.328125 26.3125 272.167969 27.441406 272.316406 L 41.238281 274.230469 C 41.566406 274.277344 41.796875 274.582031 41.75 274.910156 C 41.710938 275.210938 41.453125 275.429688 41.15625 275.429688 " fill-opacity="1" fill-rule="nonzero"/><path fill="#000000" d="M 274.847656 237.292969 C 274.824219 237.292969 274.800781 237.289062 274.773438 237.285156 L 203.144531 228.539062 C 202.816406 228.496094 202.582031 228.199219 202.621094 227.867188 C 202.660156 227.539062 202.964844 227.300781 203.289062 227.34375 L 274.921875 236.09375 C 275.25 236.132812 275.488281 236.433594 275.445312 236.761719 C 275.40625 237.070312 275.148438 237.292969 274.847656 237.292969 " fill-opacity="1" fill-rule="nonzero"/><path fill="#000000" d="M 243.535156 244.347656 C 243.507812 244.347656 243.484375 244.347656 243.457031 244.34375 L 222.664062 241.804688 C 222.332031 241.761719 222.097656 241.464844 222.136719 241.132812 C 222.179688 240.804688 222.476562 240.570312 222.808594 240.609375 L 243.605469 243.148438 C 243.933594 243.191406 244.167969 243.488281 244.128906 243.820312 C 244.089844 244.125 243.832031 244.347656 243.535156 244.347656 " fill-opacity="1" fill-rule="nonzero"/><path fill="#95c251" d="M 169.375 245.621094 C 169.351562 245.621094 169.324219 245.617188 169.300781 245.613281 L 148.503906 243.074219 C 148.175781 243.035156 147.941406 242.734375 147.980469 242.40625 C 148.019531 242.074219 148.324219 241.839844 148.648438 241.878906 L 169.445312 244.417969 C 169.773438 244.460938 170.011719 244.761719 169.96875 245.089844 C 169.933594 245.394531 169.671875 245.621094 169.375 245.621094 " fill-opacity="1" fill-rule="nonzero"/><path fill="#e9f1dc" d="M 282.410156 91.398438 C 282.34375 91.398438 282.273438 91.394531 282.207031 91.386719 L 234.242188 85.238281 C 233.359375 85.125 232.738281 84.324219 232.851562 83.445312 C 232.964844 82.566406 233.765625 81.945312 234.648438 82.058594 L 282.613281 88.203125 C 283.492188 88.316406 284.113281 89.121094 284 90 C 283.894531 90.808594 283.207031 91.398438 282.410156 91.398438 " fill-opacity="1" fill-rule="nonzero"/><path fill="#e9f1dc" d="M 288.800781 109.878906 C 288.730469 109.878906 288.664062 109.875 288.59375 109.863281 L 261.835938 106.433594 C 260.957031 106.324219 260.335938 105.519531 260.445312 104.640625 C 260.558594 103.761719 261.359375 103.140625 262.242188 103.253906 L 289.003906 106.679688 C 289.882812 106.796875 290.503906 107.597656 290.390625 108.476562 C 290.285156 109.289062 289.597656 109.878906 288.800781 109.878906 " fill-opacity="1" fill-rule="nonzero"/><path fill="#e9f1dc" d="M 288.800781 121.53125 C 288.730469 121.53125 288.664062 121.527344 288.59375 121.519531 L 224.246094 113.273438 C 223.367188 113.160156 222.746094 112.355469 222.859375 111.476562 C 222.96875 110.597656 223.773438 109.976562 224.65625 110.089844 L 289.003906 118.335938 C 289.882812 118.449219 290.503906 119.253906 290.390625 120.132812 C 290.285156 120.941406 289.597656 121.53125 288.800781 121.53125 " fill-opacity="1" fill-rule="nonzero"/><path fill="#e9f1dc" d="M 288.800781 133.1875 C 288.730469 133.1875 288.664062 133.183594 288.59375 133.171875 L 238.96875 126.816406 C 238.089844 126.703125 237.46875 125.898438 237.582031 125.019531 C 237.695312 124.140625 238.492188 123.519531 239.375 123.632812 L 289.003906 129.992188 C 289.882812 130.105469 290.503906 130.90625 290.390625 131.785156 C 290.285156 132.59375 289.597656 133.1875 288.800781 133.1875 " fill-opacity="1" fill-rule="nonzero"/><path fill="#e9f1dc" d="M 288.003906 144.394531 C 287.933594 144.394531 287.867188 144.390625 287.796875 144.382812 L 223.449219 136.136719 C 222.570312 136.023438 221.949219 135.21875 222.0625 134.339844 C 222.171875 133.460938 222.976562 132.839844 223.855469 132.953125 L 288.207031 141.199219 C 289.082031 141.308594 289.707031 142.113281 289.59375 142.996094 C 289.488281 143.804688 288.800781 144.394531 288.003906 144.394531 " fill-opacity="1" fill-rule="nonzero"/><path fill="#e9f1dc" d="M 288.003906 156.050781 C 287.933594 156.050781 287.867188 156.042969 287.796875 156.035156 L 238.167969 149.675781 C 237.289062 149.566406 236.667969 148.761719 236.78125 147.878906 C 236.894531 147.003906 237.695312 146.378906 238.578125 146.496094 L 288.207031 152.851562 C 289.082031 152.964844 289.707031 153.769531 289.59375 154.648438 C 289.488281 155.457031 288.800781 156.050781 288.003906 156.050781 " fill-opacity="1" fill-rule="nonzero"/><path fill="#e9f1dc" d="M 212.382812 202.136719 L 151.285156 195.394531 C 149.269531 195.171875 147.738281 193.457031 147.738281 191.417969 L 147.738281 71.507812 C 147.738281 69.125 149.796875 67.269531 152.15625 67.53125 L 213.253906 74.273438 C 215.273438 74.496094 216.800781 76.210938 216.800781 78.25 L 216.800781 198.160156 C 216.800781 200.542969 214.742188 202.398438 212.382812 202.136719 " fill-opacity="1" fill-rule="nonzero"/><path fill="#ffffff" d="M 162.496094 95.394531 C 162.496094 85.1875 170.722656 76.914062 180.867188 76.914062 C 191.015625 76.914062 199.246094 85.1875 199.246094 95.394531 C 199.246094 105.597656 191.015625 113.871094 180.867188 113.871094 C 170.722656 113.871094 162.496094 105.597656 162.496094 95.394531 " fill-opacity="1" fill-rule="nonzero"/><path fill="#000000" d="M 180.871094 114.472656 C 170.40625 114.472656 161.894531 105.910156 161.894531 95.390625 C 161.894531 93.140625 162.28125 90.9375 163.039062 88.84375 C 163.152344 88.53125 163.496094 88.371094 163.8125 88.484375 C 164.125 88.597656 164.285156 88.941406 164.171875 89.253906 C 163.460938 91.21875 163.097656 93.28125 163.097656 95.390625 C 163.097656 105.25 171.070312 113.269531 180.871094 113.269531 C 190.671875 113.269531 198.644531 105.25 198.644531 95.390625 C 198.644531 85.53125 190.671875 77.511719 180.871094 77.511719 C 175.539062 77.511719 170.53125 79.890625 167.140625 84.039062 C 166.929688 84.296875 166.550781 84.335938 166.292969 84.125 C 166.035156 83.914062 165.996094 83.535156 166.207031 83.277344 C 169.828125 78.847656 175.175781 76.308594 180.871094 76.308594 C 191.335938 76.308594 199.847656 84.871094 199.847656 95.390625 C 199.847656 105.910156 191.335938 114.472656 180.871094 114.472656 " fill-opacity="1" fill-rule="nonzero"/><path fill="#95c251" d="M 168.265625 108.828125 C 171.554688 111.953125 175.988281 113.871094 180.871094 113.871094 C 185.75 113.871094 190.1875 111.953125 193.476562 108.828125 C 189.667969 107.644531 185.390625 106.976562 180.871094 106.976562 C 176.347656 106.976562 172.074219 107.644531 168.265625 108.828125 " fill-opacity="1" fill-rule="nonzero"/><path fill="#ffffff" d="M 180.980469 110.101562 C 179.378906 110.101562 178.078125 108.792969 178.078125 107.183594 L 178.078125 92.3125 L 183.878906 92.3125 L 183.878906 107.183594 C 183.878906 108.792969 182.582031 110.101562 180.980469 110.101562 " fill-opacity="1" fill-rule="nonzero"/><path fill="#000000" d="M 192.207031 97.738281 C 191.84375 93.117188 193.871094 90.238281 189.328125 85.015625 C 184.625 79.613281 180.589844 83.238281 180.589844 83.238281 C 180.589844 83.238281 177.226562 80.425781 172.8125 86.300781 C 168.917969 91.484375 173.90625 96.125 172.226562 99.351562 C 170.550781 102.578125 164.863281 104.339844 164.863281 104.339844 C 164.863281 104.339844 166.6875 108.003906 168.949219 109.621094 L 192.9375 109.621094 C 192.9375 109.621094 197.898438 104.191406 197.898438 102.652344 C 197.898438 102.652344 192.574219 102.359375 192.207031 97.738281 " fill-opacity="1" fill-rule="nonzero"/><path fill="#95c251" d="M 168.265625 108.828125 C 171.554688 111.953125 175.988281 113.871094 180.871094 113.871094 C 185.75 113.871094 190.1875 111.953125 193.476562 108.828125 C 189.667969 107.644531 185.390625 106.976562 180.871094 106.976562 C 176.347656 106.976562 172.074219 107.644531 168.265625 108.828125 " fill-opacity="1" fill-rule="nonzero"/><path fill="#000000" d="M 169.46875 109.101562 C 172.667969 111.796875 176.675781 113.269531 180.871094 113.269531 C 185.066406 113.269531 189.074219 111.796875 192.269531 109.101562 C 188.675781 108.089844 184.847656 107.578125 180.871094 107.578125 C 176.894531 107.578125 173.066406 108.089844 169.46875 109.101562 Z M 180.871094 114.472656 C 176.011719 114.472656 171.390625 112.625 167.851562 109.269531 L 167.105469 108.5625 L 168.085938 108.253906 C 172.089844 107.007812 176.390625 106.375 180.871094 106.375 C 185.347656 106.375 189.648438 107.007812 193.65625 108.253906 L 194.632812 108.5625 L 193.890625 109.269531 C 190.351562 112.625 185.726562 114.472656 180.871094 114.472656 " fill-opacity="1" fill-rule="nonzero"/><path fill="#ffffff" d="M 181.265625 87.472656 L 181.0625 87.472656 L 175.160156 93.4375 L 175.160156 96.710938 C 175.160156 98.894531 176.332031 100.800781 178.082031 101.832031 L 178.082031 107.183594 C 178.082031 108.796875 179.378906 110.101562 180.980469 110.101562 C 182.582031 110.101562 183.878906 108.796875 183.878906 107.183594 L 183.878906 101.933594 C 185.722656 100.925781 186.972656 98.964844 186.972656 96.710938 L 186.972656 93.210938 C 186.972656 90.039062 184.414062 87.472656 181.265625 87.472656 " fill-opacity="1" fill-rule="nonzero"/><path fill="#000000" d="M 180.980469 110.703125 C 179.050781 110.703125 177.476562 109.125 177.476562 107.183594 L 177.476562 101.996094 C 177.476562 101.664062 177.75 101.394531 178.078125 101.394531 C 178.414062 101.394531 178.679688 101.664062 178.679688 101.996094 L 178.679688 107.183594 C 178.679688 108.460938 179.714844 109.5 180.980469 109.5 C 182.25 109.5 183.28125 108.460938 183.28125 107.183594 L 183.28125 102.085938 C 183.28125 101.753906 183.546875 101.484375 183.882812 101.484375 C 184.214844 101.484375 184.480469 101.753906 184.480469 102.085938 L 184.480469 107.183594 C 184.480469 109.125 182.914062 110.703125 180.980469 110.703125 " fill-opacity="1" fill-rule="nonzero"/><path fill="#000000" d="M 181.066406 103.253906 C 180.734375 103.253906 180.464844 102.984375 180.464844 102.652344 C 180.464844 102.320312 180.734375 102.050781 181.066406 102.050781 C 183.988281 102.050781 186.371094 99.65625 186.371094 96.710938 L 186.371094 93.210938 C 186.371094 90.457031 184.234375 88.207031 181.503906 88.078125 L 175.757812 93.789062 L 175.757812 96.710938 C 175.757812 98.800781 176.980469 100.707031 178.867188 101.570312 C 179.171875 101.710938 179.304688 102.066406 179.167969 102.371094 C 179.027344 102.671875 178.671875 102.804688 178.367188 102.667969 C 176.050781 101.605469 174.558594 99.269531 174.558594 96.710938 L 174.558594 93.539062 C 174.558594 93.378906 174.621094 93.226562 174.734375 93.113281 L 180.835938 87.046875 C 180.949219 86.933594 181.101562 86.871094 181.261719 86.871094 C 181.355469 86.871094 181.449219 86.871094 181.542969 86.875 C 184.925781 87.023438 187.574219 89.808594 187.574219 93.210938 L 187.574219 96.710938 C 187.574219 100.320312 184.652344 103.253906 181.066406 103.253906 " fill-opacity="1" fill-rule="nonzero"/><path fill="#95c251" d="M 195.125 132.765625 C 195.070312 132.765625 195.019531 132.761719 194.964844 132.753906 L 160.304688 129.308594 C 159.421875 129.222656 158.777344 128.433594 158.867188 127.550781 C 158.953125 126.671875 159.742188 126.027344 160.621094 126.113281 L 195.28125 129.5625 C 196.164062 129.648438 196.808594 130.4375 196.71875 131.316406 C 196.636719 132.144531 195.941406 132.765625 195.125 132.765625 " fill-opacity="1" fill-rule="nonzero"/><path fill="#95c251" d="M 193.292969 143.285156 C 193.234375 143.285156 193.175781 143.28125 193.117188 143.273438 L 158.453125 139.527344 C 157.574219 139.433594 156.9375 138.640625 157.03125 137.761719 C 157.125 136.878906 157.917969 136.242188 158.796875 136.339844 L 193.460938 140.085938 C 194.34375 140.179688 194.980469 140.96875 194.886719 141.851562 C 194.796875 142.675781 194.101562 143.285156 193.292969 143.285156 " fill-opacity="1" fill-rule="nonzero"/><path fill="#95c251" d="M 184.617188 158.898438 C 184.558594 158.898438 184.496094 158.894531 184.441406 158.890625 L 159.238281 156.144531 C 158.355469 156.050781 157.722656 155.257812 157.816406 154.375 C 157.910156 153.496094 158.707031 152.859375 159.585938 152.957031 L 184.785156 155.699219 C 185.667969 155.796875 186.304688 156.589844 186.207031 157.46875 C 186.117188 158.292969 185.421875 158.898438 184.617188 158.898438 " fill-opacity="1" fill-rule="nonzero"/><path fill="#95c251" d="M 202.832031 171.21875 C 202.773438 171.21875 202.71875 171.21875 202.660156 171.210938 L 157.402344 166.371094 C 156.523438 166.273438 155.886719 165.484375 155.980469 164.601562 C 156.074219 163.722656 156.871094 163.085938 157.746094 163.179688 L 203.003906 168.019531 C 203.882812 168.113281 204.519531 168.90625 204.425781 169.785156 C 204.335938 170.609375 203.640625 171.21875 202.832031 171.21875 " fill-opacity="1" fill-rule="nonzero"/><path fill="#95c251" d="M 194.773438 181.078125 C 194.71875 181.078125 194.664062 181.074219 194.605469 181.066406 L 158.542969 177.269531 C 157.660156 177.175781 157.019531 176.386719 157.113281 175.503906 C 157.207031 174.625 157.996094 173.984375 158.878906 174.078125 L 194.941406 177.878906 C 195.820312 177.96875 196.460938 178.761719 196.367188 179.640625 C 196.28125 180.464844 195.585938 181.078125 194.773438 181.078125 " fill-opacity="1" fill-rule="nonzero"/><path fill="#95c251" d="M 201.433594 192.34375 C 201.375 192.34375 201.316406 192.339844 201.253906 192.332031 L 156.699219 187.492188 C 155.820312 187.394531 155.183594 186.605469 155.28125 185.722656 C 155.375 184.839844 156.160156 184.203125 157.046875 184.300781 L 201.601562 189.144531 C 202.484375 189.238281 203.121094 190.03125 203.023438 190.910156 C 202.933594 191.734375 202.242188 192.34375 201.433594 192.34375 " fill-opacity="1" fill-rule="nonzero"/><path fill="#ffffff" d="M 332.128906 104.339844 C 333.8125 113.359375 327.941406 122.046875 319.019531 123.75 C 310.09375 125.449219 301.496094 119.515625 299.8125 110.496094 C 298.132812 101.476562 304.003906 92.789062 312.925781 91.089844 C 321.851562 89.390625 330.449219 95.324219 332.128906 104.339844 " fill-opacity="1" fill-rule="nonzero"/><path fill="#000000" d="M 316.003906 91.398438 C 315.019531 91.398438 314.027344 91.492188 313.039062 91.683594 C 304.457031 93.316406 298.785156 101.707031 300.40625 110.386719 C 301.195312 114.621094 303.574219 118.277344 307.105469 120.691406 C 310.585938 123.066406 314.777344 123.941406 318.90625 123.15625 C 327.488281 121.523438 333.15625 113.128906 331.539062 104.453125 C 330.75 100.21875 328.371094 96.558594 324.835938 94.144531 C 322.191406 92.339844 319.128906 91.398438 316.003906 91.398438 Z M 315.941406 124.640625 C 312.570312 124.640625 309.277344 123.632812 306.429688 121.683594 C 302.628906 119.089844 300.074219 115.15625 299.222656 110.605469 C 297.484375 101.277344 303.582031 92.257812 312.816406 90.5 C 317.257812 89.652344 321.769531 90.59375 325.515625 93.15625 C 329.3125 95.746094 331.871094 99.679688 332.722656 104.230469 C 334.460938 113.558594 328.363281 122.582031 319.128906 124.339844 C 318.066406 124.539062 317 124.640625 315.941406 124.640625 " fill-opacity="1" fill-rule="nonzero"/><path fill="#000000" d="M 316 93.84375 C 315.164062 93.84375 314.324219 93.925781 313.488281 94.085938 C 306.214844 95.472656 301.414062 102.578125 302.789062 109.929688 C 303.457031 113.519531 305.472656 116.621094 308.464844 118.660156 C 311.410156 120.675781 314.960938 121.417969 318.457031 120.753906 C 325.730469 119.363281 330.53125 112.253906 329.160156 104.902344 C 328.492188 101.316406 326.472656 98.214844 323.484375 96.175781 C 321.242188 94.640625 318.652344 93.84375 316 93.84375 Z M 315.945312 122.195312 C 313.054688 122.195312 310.230469 121.324219 307.785156 119.65625 C 304.527344 117.433594 302.332031 114.058594 301.605469 110.152344 C 300.113281 102.148438 305.34375 94.410156 313.265625 92.902344 C 317.078125 92.175781 320.949219 92.984375 324.160156 95.179688 C 327.417969 97.402344 329.617188 100.78125 330.34375 104.683594 C 331.835938 112.6875 326.605469 120.425781 318.683594 121.933594 C 317.769531 122.109375 316.855469 122.195312 315.945312 122.195312 " fill-opacity="1" fill-rule="nonzero"/><path fill="#000000" d="M 321.726562 114.574219 C 321.558594 114.574219 321.390625 114.503906 321.273438 114.367188 L 315.519531 107.816406 C 315.421875 107.699219 315.367188 107.550781 315.371094 107.398438 L 315.574219 100.71875 C 315.582031 100.390625 315.847656 100.132812 316.175781 100.132812 C 316.179688 100.132812 316.1875 100.132812 316.195312 100.132812 C 316.527344 100.144531 316.785156 100.421875 316.777344 100.753906 L 316.582031 107.199219 L 322.175781 113.574219 C 322.398438 113.824219 322.371094 114.203125 322.125 114.421875 C 322.007812 114.523438 321.867188 114.574219 321.726562 114.574219 " fill-opacity="1" fill-rule="nonzero"/><path fill="#e9f1dc" d="M 314.710938 96.199219 C 314.804688 96.6875 314.484375 97.160156 314 97.253906 C 313.511719 97.347656 313.042969 97.023438 312.953125 96.53125 C 312.863281 96.042969 313.183594 95.566406 313.667969 95.476562 C 314.152344 95.386719 314.621094 95.707031 314.710938 96.199219 " fill-opacity="1" fill-rule="nonzero"/><path fill="#e9f1dc" d="M 309.332031 98.335938 C 309.652344 98.714844 309.613281 99.289062 309.238281 99.613281 C 308.859375 99.9375 308.292969 99.894531 307.972656 99.515625 C 307.652344 99.136719 307.691406 98.566406 308.066406 98.242188 C 308.445312 97.914062 309.007812 97.957031 309.332031 98.335938 " fill-opacity="1" fill-rule="nonzero"/><path fill="#e9f1dc" d="M 305.726562 102.910156 C 306.195312 103.074219 306.441406 103.589844 306.277344 104.0625 C 306.113281 104.53125 305.601562 104.78125 305.136719 104.617188 C 304.667969 104.449219 304.425781 103.933594 304.585938 103.464844 C 304.75 102.992188 305.261719 102.742188 305.726562 102.910156 " fill-opacity="1" fill-rule="nonzero"/><path fill="#e9f1dc" d="M 304.871094 108.691406 C 305.355469 108.597656 305.824219 108.921875 305.917969 109.414062 C 306.007812 109.902344 305.6875 110.375 305.203125 110.46875 C 304.714844 110.5625 304.246094 110.238281 304.15625 109.746094 C 304.0625 109.257812 304.382812 108.78125 304.871094 108.691406 " fill-opacity="1" fill-rule="nonzero"/><path fill="#e9f1dc" d="M 306.988281 114.128906 C 307.363281 113.804688 307.929688 113.847656 308.25 114.226562 C 308.574219 114.605469 308.53125 115.175781 308.15625 115.5 C 307.777344 115.828125 307.214844 115.785156 306.894531 115.40625 C 306.570312 115.027344 306.613281 114.457031 306.988281 114.128906 " fill-opacity="1" fill-rule="nonzero"/><path fill="#e9f1dc" d="M 311.511719 117.773438 C 311.675781 117.300781 312.183594 117.050781 312.652344 117.21875 C 313.121094 117.382812 313.367188 117.898438 313.203125 118.371094 C 313.039062 118.84375 312.527344 119.089844 312.0625 118.925781 C 311.59375 118.761719 311.347656 118.242188 311.511719 117.773438 " fill-opacity="1" fill-rule="nonzero"/><path fill="#e9f1dc" d="M 317.230469 118.640625 C 317.140625 118.148438 317.460938 117.675781 317.945312 117.582031 C 318.429688 117.492188 318.902344 117.8125 318.992188 118.304688 C 319.082031 118.796875 318.761719 119.269531 318.277344 119.363281 C 317.792969 119.453125 317.324219 119.128906 317.230469 118.640625 " fill-opacity="1" fill-rule="nonzero"/><path fill="#e9f1dc" d="M 322.613281 116.5 C 322.292969 116.121094 322.332031 115.550781 322.707031 115.226562 C 323.085938 114.902344 323.652344 114.941406 323.972656 115.320312 C 324.292969 115.699219 324.25 116.273438 323.875 116.597656 C 323.503906 116.925781 322.9375 116.878906 322.613281 116.5 " fill-opacity="1" fill-rule="nonzero"/><path fill="#e9f1dc" d="M 326.21875 111.929688 C 325.753906 111.761719 325.507812 111.246094 325.671875 110.773438 C 325.832031 110.300781 326.347656 110.054688 326.8125 110.21875 C 327.277344 110.382812 327.523438 110.902344 327.363281 111.371094 C 327.195312 111.84375 326.683594 112.09375 326.21875 111.929688 " fill-opacity="1" fill-rule="nonzero"/><path fill="#e9f1dc" d="M 327.078125 106.144531 C 326.59375 106.238281 326.125 105.914062 326.03125 105.425781 C 325.941406 104.929688 326.261719 104.460938 326.746094 104.367188 C 327.230469 104.273438 327.699219 104.597656 327.792969 105.089844 C 327.882812 105.578125 327.5625 106.054688 327.078125 106.144531 " fill-opacity="1" fill-rule="nonzero"/><path fill="#e9f1dc" d="M 324.960938 100.707031 C 324.585938 101.03125 324.019531 100.988281 323.695312 100.609375 C 323.375 100.230469 323.417969 99.660156 323.792969 99.332031 C 324.167969 99.007812 324.734375 99.050781 325.054688 99.429688 C 325.378906 99.808594 325.332031 100.378906 324.960938 100.707031 " fill-opacity="1" fill-rule="nonzero"/><path fill="#e9f1dc" d="M 320.433594 97.0625 C 320.273438 97.535156 319.761719 97.78125 319.292969 97.617188 C 318.828125 97.453125 318.582031 96.933594 318.746094 96.464844 C 318.910156 95.996094 319.417969 95.742188 319.886719 95.910156 C 320.355469 96.074219 320.597656 96.589844 320.433594 97.0625 " fill-opacity="1" fill-rule="nonzero"/><path fill="#e9f1dc" d="M 264.605469 170.449219 C 264.605469 170.449219 264.605469 170.453125 264.605469 170.453125 L 253.171875 179.242188 C 253.886719 180.296875 254.015625 181.710938 254.011719 183.085938 C 254.011719 185.296875 252.914062 187.253906 251.242188 188.433594 L 259.15625 200.953125 C 259.746094 200.738281 260.671875 200.378906 260.75 200.3125 C 265.648438 196.3125 268.6875 189.945312 268.691406 183.097656 C 268.695312 178.535156 268.609375 173.289062 266.199219 169.8125 C 266.199219 169.8125 265.269531 170.183594 264.605469 170.449219 " fill-opacity="1" fill-rule="nonzero"/><path fill="#ffffff" d="M 252.769531 177.140625 L 253.9375 176.605469 L 264.492188 168.207031 C 261.691406 164.347656 257.851562 160.695312 253.152344 159.402344 C 253.152344 159.402344 252.476562 159.792969 251.980469 159.9375 L 249.078125 174.523438 C 250.601562 174.925781 251.902344 175.871094 252.769531 177.140625 " fill-opacity="1" fill-rule="nonzero"/><path fill="#ffffff" d="M 256.570312 201.425781 L 256.105469 200.710938 L 248.878906 189.214844 C 247.78125 189.960938 245.941406 190.363281 244.5 190.363281 C 240.761719 190.359375 237.660156 187.007812 237.664062 183.367188 C 237.667969 179.726562 240.003906 176.273438 243.742188 176.277344 C 244.335938 176.277344 245.566406 176.039062 246.113281 176.175781 L 250.136719 162.433594 C 250.140625 162.4375 249.203125 162.242188 249.203125 162.242188 C 247.671875 161.914062 246.082031 161.742188 244.445312 161.738281 C 232.183594 161.730469 222.234375 171.410156 222.222656 183.355469 C 222.214844 195.304688 232.148438 204.996094 244.414062 205.007812 C 248.914062 205.011719 253.101562 203.710938 256.601562 201.46875 L 256.570312 201.425781 " fill-opacity="1" fill-rule="nonzero"/><path fill="#e9f1dc" d="M 253.9375 176.609375 L 265.664062 167.671875 C 262.671875 163.550781 258.261719 160.550781 253.148438 159.402344 L 250.25 173.992188 C 251.769531 174.390625 253.070312 175.335938 253.9375 176.609375 " fill-opacity="1" fill-rule="nonzero"/><path fill="#1d5f31" d="M 257.128906 201.382812 L 256.683594 200.675781 L 249.21875 188.859375 C 248.167969 189.601562 246.890625 190.039062 245.511719 190.035156 C 241.9375 190.035156 239.039062 187.105469 239.042969 183.503906 C 239.046875 179.898438 241.945312 176.976562 245.523438 176.980469 C 246.089844 176.980469 246.640625 177.054688 247.164062 177.195312 L 250.066406 162.605469 C 250.070312 162.609375 250.074219 162.609375 250.078125 162.609375 L 250.082031 162.585938 C 248.617188 162.261719 247.09375 162.089844 245.535156 162.089844 C 233.800781 162.078125 224.285156 171.660156 224.273438 183.492188 C 224.261719 195.320312 233.769531 204.917969 245.5 204.929688 C 249.808594 204.933594 253.8125 203.640625 257.164062 201.425781 C 257.164062 201.425781 257.132812 201.382812 257.128906 201.382812 " fill-opacity="1" fill-rule="nonzero"/><path fill="#ffffff" d="M 266.199219 169.808594 C 266.199219 169.808594 266.199219 169.808594 266.199219 169.8125 L 254.472656 178.746094 C 255.1875 179.796875 255.609375 181.070312 255.609375 182.441406 C 255.609375 184.660156 254.757812 187.09375 253.082031 188.273438 L 260.75 200.3125 C 266.492188 196.484375 270.277344 189.917969 270.285156 182.457031 C 270.289062 177.726562 268.769531 173.355469 266.199219 169.808594 " fill-opacity="1" fill-rule="nonzero"/><path fill="#ffffff" d="M 353.640625 194.28125 L 277.800781 184.441406 C 276.703125 184.300781 275.882812 183.363281 275.882812 182.25 L 275.882812 133.949219 C 275.882812 132.613281 277.046875 131.585938 278.363281 131.757812 L 354.203125 141.597656 C 355.296875 141.738281 356.121094 142.675781 356.121094 143.785156 L 356.121094 192.089844 C 356.121094 193.421875 354.957031 194.453125 353.640625 194.28125 " fill-opacity="1" fill-rule="nonzero"/><path fill="#000000" d="M 353.71875 193.683594 C 354.171875 193.742188 354.628906 193.601562 354.972656 193.300781 C 355.316406 192.996094 355.519531 192.550781 355.519531 192.089844 L 355.519531 143.789062 C 355.519531 142.980469 354.921875 142.292969 354.125 142.191406 L 278.285156 132.355469 C 277.835938 132.292969 277.375 132.433594 277.03125 132.738281 C 276.683594 133.042969 276.484375 133.484375 276.484375 133.949219 L 276.484375 182.25 C 276.484375 183.058594 277.082031 183.742188 277.878906 183.847656 Z M 353.921875 194.902344 C 353.800781 194.902344 353.683594 194.894531 353.5625 194.875 L 277.722656 185.039062 C 276.332031 184.859375 275.28125 183.660156 275.28125 182.25 L 275.28125 133.949219 C 275.28125 133.136719 275.628906 132.371094 276.238281 131.832031 C 276.839844 131.304688 277.644531 131.058594 278.441406 131.160156 L 354.28125 141 C 355.671875 141.179688 356.722656 142.378906 356.722656 143.789062 L 356.722656 192.089844 C 356.722656 192.898438 356.375 193.667969 355.765625 194.203125 C 355.253906 194.65625 354.59375 194.902344 353.921875 194.902344 " fill-opacity="1" fill-rule="nonzero"/><path fill="#e9f1dc" d="M 348.285156 151.691406 C 348.214844 151.691406 348.144531 151.6875 348.074219 151.679688 L 287.714844 143.65625 C 286.835938 143.542969 286.21875 142.738281 286.335938 141.859375 C 286.453125 140.980469 287.261719 140.359375 288.136719 140.476562 L 348.496094 148.5 C 349.375 148.613281 349.992188 149.417969 349.875 150.296875 C 349.769531 151.105469 349.078125 151.691406 348.285156 151.691406 " fill-opacity="1" fill-rule="nonzero"/><path fill="#e9f1dc" d="M 331.035156 160.996094 C 330.960938 160.996094 330.890625 160.992188 330.820312 160.984375 L 287.714844 155.257812 C 286.835938 155.140625 286.214844 154.335938 286.332031 153.457031 C 286.453125 152.578125 287.261719 151.960938 288.132812 152.078125 L 331.242188 157.804688 C 332.121094 157.917969 332.738281 158.726562 332.625 159.605469 C 332.515625 160.410156 331.828125 160.996094 331.035156 160.996094 " fill-opacity="1" fill-rule="nonzero"/><path fill="#e9f1dc" d="M 348.285156 174.621094 C 348.214844 174.621094 348.144531 174.617188 348.074219 174.605469 L 287.714844 166.589844 C 286.835938 166.472656 286.21875 165.664062 286.335938 164.785156 C 286.449219 163.910156 287.257812 163.289062 288.132812 163.40625 L 348.496094 171.425781 C 349.375 171.542969 349.992188 172.347656 349.875 173.226562 C 349.769531 174.035156 349.078125 174.621094 348.285156 174.621094 " fill-opacity="1" fill-rule="nonzero"/><path fill="#e9f1dc" d="M 348.285156 185.953125 C 348.214844 185.953125 348.144531 185.949219 348.074219 185.9375 L 287.714844 177.917969 C 286.835938 177.804688 286.21875 176.996094 286.335938 176.121094 C 286.453125 175.238281 287.261719 174.621094 288.136719 174.738281 L 348.496094 182.757812 C 349.375 182.875 349.992188 183.679688 349.875 184.558594 C 349.769531 185.367188 349.078125 185.953125 348.285156 185.953125 " fill-opacity="1" fill-rule="nonzero"/><path fill="#e9f1dc" d="M 284 141.121094 C 284 142.300781 283.046875 143.257812 281.871094 143.257812 C 280.695312 143.257812 279.742188 142.300781 279.742188 141.121094 C 279.742188 139.9375 280.695312 138.980469 281.871094 138.980469 C 283.046875 138.980469 284 139.9375 284 141.121094 " fill-opacity="1" fill-rule="nonzero"/><path fill="#e9f1dc" d="M 284 152.886719 C 284 154.066406 283.046875 155.023438 281.871094 155.023438 C 280.695312 155.023438 279.742188 154.066406 279.742188 152.886719 C 279.742188 151.703125 280.695312 150.746094 281.871094 150.746094 C 283.046875 150.746094 284 151.703125 284 152.886719 " fill-opacity="1" fill-rule="nonzero"/><path fill="#e9f1dc" d="M 283.867188 164.386719 C 283.867188 165.566406 282.910156 166.527344 281.734375 166.527344 C 280.5625 166.527344 279.609375 165.566406 279.609375 164.386719 C 279.609375 163.203125 280.5625 162.246094 281.734375 162.246094 C 282.910156 162.246094 283.867188 163.203125 283.867188 164.386719 " fill-opacity="1" fill-rule="nonzero"/><path fill="#e9f1dc" d="M 283.867188 176.148438 C 283.867188 177.332031 282.910156 178.289062 281.734375 178.289062 C 280.5625 178.289062 279.609375 177.332031 279.609375 176.148438 C 279.609375 174.96875 280.5625 174.011719 281.734375 174.011719 C 282.910156 174.011719 283.867188 174.96875 283.867188 176.148438 " fill-opacity="1" fill-rule="nonzero"/><path fill="#1d5f31" d="M 293.03125 305.3125 L 321.378906 305.3125 C 321.378906 305.3125 325.269531 328.953125 308.347656 330.839844 C 291.425781 332.726562 293.03125 305.3125 293.03125 305.3125 " fill-opacity="1" fill-rule="nonzero"/><path fill="#1d5f31" d="M 301.53125 299.53125 C 299.507812 299.589844 295.1875 299.660156 291.125 296.886719 C 289.621094 295.863281 285.492188 293.050781 285.878906 289.351562 C 286.207031 286.179688 289.761719 283.257812 294.585938 282.734375 C 288.863281 283.414062 284.257812 279.125 284.25 274.691406 C 284.246094 271.296875 286.9375 267.925781 290.917969 266.8125 C 284.75 262.148438 281.511719 254.636719 282.535156 247.183594 C 283.53125 239.933594 288.554688 232.796875 296.132812 230.589844 C 297.085938 230.3125 305.320312 228.058594 311.25 233.113281 C 316.230469 237.351562 316.285156 243.933594 316.324219 248.421875 C 316.390625 256.402344 313.1875 262.46875 311.25 265.511719 C 311.65625 265.484375 315.75 264.136719 319.574219 267.535156 C 323.476562 271 323.664062 278.960938 321.765625 282.113281 C 319.777344 285.410156 314.984375 284.710938 314.128906 284.953125 C 317.714844 288.117188 317.59375 290.753906 317.550781 291.253906 C 317.148438 296.402344 307.808594 299.351562 301.53125 299.53125 " fill-opacity="1" fill-rule="nonzero"/><path fill="#ffffff" d="M 303.578125 303.277344 C 303.550781 303.277344 303.523438 303.277344 303.5 303.273438 C 303.167969 303.230469 302.9375 302.925781 302.984375 302.597656 C 306.59375 275.933594 298.15625 245.855469 298.070312 245.550781 C 297.980469 245.234375 298.167969 244.898438 298.488281 244.808594 C 298.804688 244.71875 299.136719 244.902344 299.230469 245.222656 C 299.316406 245.527344 307.820312 275.847656 304.175781 302.757812 C 304.132812 303.0625 303.875 303.277344 303.578125 303.277344 " fill-opacity="1" fill-rule="nonzero"/><path fill="#95c251" d="M 307.664062 300.765625 C 307.019531 299.1875 304.230469 291.914062 307.847656 285.785156 C 308.589844 284.523438 311.078125 280.308594 314.691406 280.605469 C 317.382812 280.832031 319.078125 283.429688 319.453125 284.03125 C 318.367188 280.078125 320.316406 276.074219 323.566406 274.691406 C 327.40625 273.054688 332.507812 275.316406 333.921875 280.054688 C 334.871094 279.785156 337.433594 279.199219 340.023438 280.421875 C 343.429688 282.03125 345.484375 286.105469 345.015625 290.59375 C 343.59375 295.40625 339.199219 298.355469 335.03125 297.804688 C 330.5 297.210938 328.339844 292.765625 328.191406 292.445312 C 328.894531 293.550781 329.933594 295.613281 329.296875 297.621094 C 328.230469 300.988281 322.933594 302.660156 319.128906 301.6875 C 315.59375 300.789062 314.570312 297.917969 311.730469 298.175781 C 309.855469 298.34375 308.46875 299.753906 307.664062 300.765625 " fill-opacity="1" fill-rule="nonzero"/><path fill="#e9f1dc" d="M 307.375 302.972656 C 307.34375 302.972656 307.308594 302.96875 307.273438 302.964844 C 306.941406 302.90625 306.726562 302.59375 306.785156 302.265625 C 306.863281 301.808594 308.898438 290.945312 319.042969 287.085938 C 326.335938 284.316406 332.875 287.085938 334.707031 288 C 335.003906 288.148438 335.125 288.507812 334.976562 288.804688 C 334.828125 289.105469 334.464844 289.222656 334.167969 289.074219 C 332.445312 288.21875 326.304688 285.613281 319.46875 288.210938 C 309.957031 291.828125 308.046875 302.042969 307.96875 302.476562 C 307.914062 302.769531 307.664062 302.972656 307.375 302.972656 " fill-opacity="1" fill-rule="nonzero"/><path fill="#ffffff" d="M 76.035156 137.324219 L 76.175781 145.796875 C 76.304688 146.851562 77.0625 147.722656 78.089844 147.988281 L 78.519531 148.234375 C 79.222656 148.414062 79.585938 148.5625 80.023438 150.164062 C 74.640625 151.851562 69.464844 151.492188 64.570312 148.367188 C 64.363281 147.910156 64.429688 147.375 65.113281 147.320312 L 65.847656 147.140625 C 66.863281 146.914062 67.644531 146.101562 67.828125 145.074219 L 68.761719 134.25 L 76.035156 137.324219 " fill-opacity="1" fill-rule="nonzero"/><path fill="#000000" d="M 65.070312 147.972656 C 69.402344 150.671875 74.054688 151.261719 79.273438 149.757812 C 79.007812 148.980469 78.804688 148.929688 78.371094 148.816406 C 78.320312 148.804688 78.269531 148.785156 78.222656 148.757812 L 77.859375 148.546875 C 76.625 148.195312 75.734375 147.152344 75.578125 145.871094 C 75.578125 145.851562 75.574219 145.828125 75.574219 145.808594 L 75.441406 137.726562 L 69.289062 135.125 L 68.425781 145.128906 C 68.425781 145.144531 68.421875 145.164062 68.421875 145.183594 C 68.191406 146.449219 67.234375 147.449219 65.980469 147.730469 L 65.253906 147.902344 C 65.222656 147.910156 65.191406 147.917969 65.164062 147.917969 C 65.117188 147.921875 65.085938 147.929688 65.070312 147.933594 C 65.070312 147.945312 65.070312 147.957031 65.070312 147.972656 Z M 73.910156 151.753906 C 70.484375 151.753906 67.253906 150.792969 64.246094 148.875 C 64.148438 148.8125 64.074219 148.722656 64.023438 148.617188 C 63.8125 148.152344 63.8125 147.675781 64.027344 147.3125 C 64.136719 147.117188 64.414062 146.789062 65.011719 146.722656 L 65.707031 146.558594 C 66.488281 146.382812 67.082031 145.773438 67.230469 144.992188 L 68.164062 134.195312 C 68.179688 134.003906 68.289062 133.832031 68.453125 133.734375 C 68.617188 133.636719 68.820312 133.621094 68.996094 133.695312 L 76.269531 136.769531 C 76.492188 136.863281 76.632812 137.078125 76.636719 137.316406 L 76.777344 145.753906 C 76.886719 146.554688 77.460938 147.203125 78.242188 147.40625 C 78.292969 147.421875 78.34375 147.441406 78.390625 147.46875 L 78.75 147.671875 C 79.675781 147.921875 80.148438 148.332031 80.601562 150.003906 C 80.6875 150.316406 80.511719 150.640625 80.203125 150.738281 C 78.042969 151.414062 75.941406 151.753906 73.910156 151.753906 " fill-opacity="1" fill-rule="nonzero"/><path fill="#000000" d="M 80.261719 120.949219 C 78.15625 120.71875 79.8125 123.234375 72.386719 120.511719 C 69.34375 119.390625 70.710938 123.136719 69.914062 122.863281 C 66.976562 121.851562 65.835938 122.789062 65.117188 123.269531 C 64.289062 123.824219 63.425781 125.207031 63.539062 126.535156 C 63.6875 128.289062 65.976562 128.9375 67.066406 132.6875 C 67.832031 135.320312 67.53125 136.878906 68.554688 137.308594 C 69.585938 137.746094 70.4375 136.378906 71.601562 136.773438 C 73.109375 137.277344 72.671875 139.894531 74.105469 141.066406 C 75.011719 141.804688 77.179688 142.238281 80.769531 140.722656 C 81.351562 140.476562 81.675781 139.847656 81.539062 139.234375 C 81.363281 138.441406 81.136719 137.445312 80.839844 136.511719 C 79.429688 132.058594 77.914062 130.992188 78.539062 129.886719 C 79.496094 128.199219 82.742188 129.363281 83.363281 127.96875 C 84.007812 126.515625 83.144531 121.265625 80.261719 120.949219 " fill-opacity="1" fill-rule="nonzero"/><path fill="#ffffff" d="M 72.832031 130.777344 C 73.089844 131.320312 73.308594 131.882812 73.488281 132.457031 C 73.828125 133.535156 74.421875 135.375 74.832031 136.382812 C 75.339844 137.628906 78.976562 136.667969 80.105469 136.332031 C 80.289062 136.28125 80.386719 136.082031 80.320312 135.902344 L 79.988281 134.832031 L 80.875 134.65625 C 80.984375 134.617188 81.082031 134.558594 81.15625 134.472656 C 81.339844 134.261719 81.355469 133.964844 81.21875 133.742188 C 80.511719 132.578125 79.25 130.660156 78.695312 128.339844 C 78.636719 128.101562 78.449219 127.917969 78.207031 127.875 C 77.386719 127.722656 75.425781 127.542969 73.449219 128.742188 C 72.753906 129.164062 72.480469 130.039062 72.832031 130.777344 " fill-opacity="1" fill-rule="nonzero"/><path fill="#000000" d="M 79.75 136.085938 C 79.75 136.09375 79.753906 136.101562 79.757812 136.113281 Z M 76.964844 128.371094 C 76.089844 128.371094 74.925781 128.550781 73.761719 129.257812 C 73.324219 129.519531 73.160156 130.0625 73.375 130.519531 C 73.644531 131.085938 73.875 131.679688 74.0625 132.277344 C 74.382812 133.300781 74.984375 135.164062 75.386719 136.152344 C 75.527344 136.496094 77.085938 136.5625 79.671875 135.832031 L 79.21875 134.371094 L 80.707031 134.054688 L 80.507812 133.734375 C 79.761719 132.519531 78.636719 130.6875 78.109375 128.480469 C 77.855469 128.429688 77.453125 128.371094 76.964844 128.371094 Z M 76.433594 137.609375 C 75.269531 137.609375 74.546875 137.277344 74.273438 136.609375 C 73.875 135.628906 73.3125 133.90625 72.914062 132.636719 C 72.742188 132.09375 72.53125 131.550781 72.285156 131.035156 C 71.804688 130.019531 72.171875 128.8125 73.136719 128.226562 C 75.3125 126.910156 77.488281 127.128906 78.320312 127.285156 C 78.789062 127.371094 79.167969 127.730469 79.28125 128.199219 C 79.761719 130.222656 80.828125 131.957031 81.535156 133.101562 L 81.734375 133.429688 C 82.011719 133.886719 81.960938 134.460938 81.609375 134.867188 C 81.472656 135.027344 81.289062 135.148438 81.074219 135.222656 L 80.992188 135.242188 L 80.761719 135.289062 L 80.894531 135.726562 C 80.976562 135.9375 80.960938 136.207031 80.84375 136.4375 C 80.730469 136.664062 80.523438 136.835938 80.277344 136.910156 C 78.691406 137.375 77.40625 137.609375 76.433594 137.609375 " fill-opacity="1" fill-rule="nonzero"/><path fill="#ffffff" d="M 72.160156 134.765625 C 69.953125 135.53125 69.203125 133.472656 69.691406 132.25 C 69.898438 131.734375 70.609375 131.679688 70.90625 132.152344 L 72.300781 134.378906 C 72.386719 134.519531 72.320312 134.707031 72.160156 134.765625 " fill-opacity="1" fill-rule="nonzero"/><path fill="#ffffff" d="M 49.828125 299.378906 L 50.308594 308.195312 L 56.203125 309.1875 L 56.730469 298.789062 L 49.828125 299.378906 " fill-opacity="1" fill-rule="nonzero"/><path fill="#000000" d="M 50.882812 307.683594 L 55.636719 308.484375 L 56.09375 299.449219 L 50.460938 299.925781 Z M 56.203125 309.792969 C 56.171875 309.792969 56.136719 309.789062 56.105469 309.78125 L 50.207031 308.789062 C 49.929688 308.742188 49.722656 308.507812 49.707031 308.226562 L 49.226562 299.410156 C 49.210938 299.085938 49.453125 298.804688 49.777344 298.777344 L 56.675781 298.1875 C 56.851562 298.175781 57.023438 298.234375 57.148438 298.355469 C 57.273438 298.476562 57.339844 298.644531 57.328125 298.820312 L 56.804688 309.21875 C 56.796875 309.390625 56.714844 309.550781 56.582031 309.660156 C 56.472656 309.746094 56.339844 309.792969 56.203125 309.792969 " fill-opacity="1" fill-rule="nonzero"/><path fill="#1d5f31" d="M 56.367188 324.507812 C 53.878906 324.730469 49.808594 324.832031 45.085938 323.933594 C 43.535156 323.640625 42.578125 322.074219 43.03125 320.5625 C 44.292969 316.359375 46.507812 308.375 49.792969 304.785156 L 50.460938 306.851562 L 51.621094 304.996094 C 51.78125 304.742188 52.050781 304.578125 52.351562 304.554688 L 54.691406 304.375 C 55.183594 304.339844 55.617188 304.683594 55.695312 305.167969 L 55.976562 306.949219 L 56.90625 304.679688 L 58.765625 321.652344 C 58.882812 323.097656 57.816406 324.375 56.367188 324.507812 " fill-opacity="1" fill-rule="nonzero"/><path fill="#000000" d="M 49.558594 306.015625 C 46.941406 309.527344 45.050781 315.898438 43.878906 319.828125 L 43.609375 320.738281 C 43.441406 321.300781 43.515625 321.886719 43.820312 322.386719 C 44.121094 322.882812 44.625 323.234375 45.199219 323.34375 C 49.8125 324.21875 53.789062 324.132812 56.316406 323.90625 C 57.425781 323.808594 58.253906 322.816406 58.164062 321.699219 L 56.566406 307.101562 L 56.535156 307.175781 C 56.433594 307.425781 56.175781 307.578125 55.90625 307.546875 C 55.640625 307.515625 55.425781 307.308594 55.382812 307.042969 L 55.101562 305.261719 C 55.074219 305.089844 54.910156 304.960938 54.738281 304.976562 L 52.394531 305.15625 C 52.289062 305.164062 52.1875 305.222656 52.132812 305.3125 L 50.972656 307.171875 C 50.847656 307.371094 50.621094 307.480469 50.386719 307.453125 C 50.15625 307.421875 49.960938 307.261719 49.890625 307.039062 Z M 56.367188 324.507812 L 56.371094 324.507812 Z M 52.84375 325.261719 C 50.605469 325.261719 47.914062 325.082031 44.972656 324.523438 C 44.066406 324.351562 43.269531 323.800781 42.789062 323.011719 C 42.3125 322.226562 42.191406 321.269531 42.457031 320.390625 L 42.726562 319.484375 C 44.023438 315.121094 46.195312 307.824219 49.351562 304.378906 C 49.496094 304.21875 49.714844 304.152344 49.921875 304.195312 C 50.132812 304.242188 50.300781 304.394531 50.367188 304.601562 L 50.636719 305.4375 L 51.109375 304.675781 C 51.371094 304.261719 51.816406 303.992188 52.304688 303.953125 L 54.648438 303.777344 C 55.335938 303.722656 55.976562 304.152344 56.210938 304.78125 L 56.347656 304.449219 C 56.453125 304.195312 56.71875 304.042969 56.988281 304.082031 C 57.261719 304.121094 57.472656 304.339844 57.503906 304.613281 L 59.363281 321.585938 C 59.507812 323.378906 58.1875 324.949219 56.421875 325.105469 C 55.429688 325.195312 54.222656 325.261719 52.84375 325.261719 " fill-opacity="1" fill-rule="nonzero"/><path fill="#000000" d="M 51.007812 322.359375 C 49.039062 322.359375 46.785156 322.160156 44.5625 321.53125 C 44.242188 321.445312 44.054688 321.109375 44.144531 320.792969 C 44.234375 320.472656 44.570312 320.285156 44.886719 320.375 C 50.5625 321.972656 56.671875 320.59375 56.734375 320.578125 C 57.058594 320.503906 57.382812 320.707031 57.457031 321.027344 C 57.53125 321.351562 57.328125 321.675781 57.003906 321.753906 C 56.839844 321.789062 54.332031 322.359375 51.007812 322.359375 " fill-opacity="1" fill-rule="nonzero"/><path fill="#000000" d="M 54.101562 315.828125 C 54.097656 315.828125 54.09375 315.828125 54.089844 315.824219 L 48.523438 315.730469 C 48.191406 315.722656 47.925781 315.449219 47.929688 315.117188 C 47.9375 314.789062 48.207031 314.527344 48.53125 314.527344 C 48.535156 314.527344 48.539062 314.527344 48.542969 314.527344 L 54.113281 314.621094 C 54.445312 314.628906 54.710938 314.902344 54.703125 315.234375 C 54.699219 315.566406 54.429688 315.828125 54.101562 315.828125 " fill-opacity="1" fill-rule="nonzero"/><path fill="#ffffff" d="M 77.84375 296.109375 L 78.089844 308.953125 L 85.226562 309.3125 L 86.203125 296.527344 L 77.84375 296.109375 " fill-opacity="1" fill-rule="nonzero"/><path fill="#000000" d="M 78.679688 308.378906 L 84.671875 308.683594 L 85.554688 297.097656 L 78.460938 296.738281 Z M 85.226562 309.914062 C 85.214844 309.914062 85.207031 309.914062 85.195312 309.914062 L 78.058594 309.554688 C 77.742188 309.539062 77.492188 309.28125 77.488281 308.964844 L 77.246094 296.117188 C 77.242188 295.953125 77.308594 295.792969 77.425781 295.675781 C 77.546875 295.558594 77.710938 295.5 77.875 295.507812 L 86.234375 295.929688 C 86.394531 295.9375 86.546875 296.007812 86.65625 296.132812 C 86.761719 296.253906 86.816406 296.414062 86.804688 296.574219 L 85.824219 309.359375 C 85.800781 309.675781 85.539062 309.914062 85.226562 309.914062 " fill-opacity="1" fill-rule="nonzero"/><path fill="#1d5f31" d="M 75.859375 316.085938 C 75.78125 317.296875 76.554688 318.402344 77.71875 318.734375 C 81.777344 319.898438 90.910156 322.488281 93.527344 323.015625 C 96.921875 323.695312 101.179688 322.859375 103.089844 320.949219 C 105 319.039062 99.382812 313.964844 96.691406 312.085938 C 92.691406 309.292969 88.984375 303.988281 87.332031 303.675781 C 85.679688 303.363281 82.332031 308.03125 82.332031 308.03125 L 77.363281 305.644531 C 77.363281 305.644531 76.261719 309.949219 75.859375 316.085938 " fill-opacity="1" fill-rule="nonzero"/><path fill="#000000" d="M 75.859375 316.085938 L 75.863281 316.085938 Z M 77.78125 306.511719 C 77.460938 307.976562 76.757812 311.550781 76.460938 316.125 C 76.398438 317.046875 77 317.902344 77.886719 318.15625 C 81.753906 319.265625 91.035156 321.898438 93.644531 322.421875 C 96.914062 323.082031 100.960938 322.230469 102.664062 320.523438 C 102.769531 320.421875 102.90625 320.238281 102.871094 319.859375 C 102.703125 317.964844 98.976562 314.414062 96.347656 312.582031 C 94.304688 311.152344 92.394531 309.148438 90.710938 307.378906 C 89.308594 305.910156 87.859375 304.390625 87.21875 304.269531 C 86.464844 304.125 84.332031 306.277344 82.820312 308.382812 C 82.652344 308.621094 82.335938 308.699219 82.074219 308.574219 Z M 95.976562 323.851562 C 95.109375 323.851562 94.238281 323.769531 93.410156 323.605469 C 90.757812 323.070312 81.4375 320.425781 77.554688 319.3125 C 76.128906 318.90625 75.164062 317.53125 75.257812 316.046875 C 75.660156 309.921875 76.734375 305.671875 76.78125 305.496094 C 76.824219 305.320312 76.945312 305.175781 77.109375 305.097656 C 77.273438 305.023438 77.464844 305.023438 77.625 305.101562 L 82.144531 307.273438 C 83.230469 305.816406 85.75 302.761719 87.445312 303.085938 C 88.414062 303.269531 89.589844 304.460938 91.582031 306.550781 C 93.226562 308.277344 95.09375 310.234375 97.035156 311.59375 C 98.78125 312.8125 103.820312 316.925781 104.070312 319.753906 C 104.128906 320.394531 103.933594 320.953125 103.515625 321.375 C 101.976562 322.914062 98.964844 323.851562 95.976562 323.851562 " fill-opacity="1" fill-rule="nonzero"/><path fill="#000000" d="M 96.296875 321.496094 C 88.699219 321.496094 78.070312 316.566406 77.492188 316.296875 C 77.191406 316.15625 77.058594 315.796875 77.203125 315.496094 C 77.34375 315.195312 77.699219 315.066406 78 315.207031 C 78.179688 315.289062 95.734375 323.433594 101.167969 319.003906 C 101.421875 318.792969 101.804688 318.832031 102.011719 319.089844 C 102.222656 319.347656 102.183594 319.726562 101.925781 319.9375 C 100.546875 321.058594 98.554688 321.496094 96.296875 321.496094 " fill-opacity="1" fill-rule="nonzero"/><path fill="#000000" d="M 87.839844 313.328125 C 87.664062 313.328125 87.492188 313.253906 87.371094 313.105469 C 87.164062 312.847656 87.199219 312.472656 87.457031 312.261719 L 91.253906 309.167969 C 91.511719 308.960938 91.890625 308.996094 92.101562 309.257812 C 92.308594 309.515625 92.273438 309.890625 92.015625 310.101562 L 88.21875 313.195312 C 88.105469 313.285156 87.972656 313.328125 87.839844 313.328125 " fill-opacity="1" fill-rule="nonzero"/><path fill="#1d5f31" d="M 54.589844 210.613281 C 54.589844 210.613281 48.019531 251.058594 46.164062 264.816406 C 44.3125 278.570312 47.054688 300.972656 47.054688 300.972656 L 58.101562 300.945312 C 58.101562 300.945312 60.21875 273.988281 61.414062 266.53125 C 61.414062 266.53125 66.578125 256.601562 68.417969 247.605469 C 70.253906 238.609375 75.671875 224.527344 75.671875 224.527344 C 75.671875 224.527344 75.882812 296.1875 75.96875 301.820312 C 75.96875 301.820312 84.585938 302.640625 87.78125 300.847656 C 87.78125 300.847656 94.585938 275.066406 94.511719 260.847656 C 94.4375 246.632812 94.285156 211.050781 94.285156 211.050781 L 54.589844 210.613281 " fill-opacity="1" fill-rule="nonzero"/><path fill="#000000" d="M 76.5625 301.265625 C 78.417969 301.402344 84.582031 301.734375 87.269531 300.4375 C 87.972656 297.710938 93.976562 274.074219 93.910156 260.851562 C 93.84375 247.714844 93.703125 216.339844 93.683594 211.644531 L 55.101562 211.21875 C 54.335938 215.957031 48.480469 252.140625 46.761719 264.894531 C 45.097656 277.25 47.195312 296.898438 47.589844 300.367188 L 57.546875 300.347656 C 57.855469 296.457031 59.730469 273.238281 60.820312 266.433594 C 60.832031 266.371094 60.851562 266.308594 60.878906 266.253906 C 60.933594 266.152344 66.027344 256.292969 67.828125 247.484375 C 69.652344 238.542969 75.058594 224.453125 75.113281 224.3125 C 75.214844 224.042969 75.5 223.886719 75.78125 223.9375 C 76.066406 223.992188 76.273438 224.238281 76.273438 224.527344 C 76.277344 225.222656 76.476562 292.695312 76.5625 301.265625 Z M 80.3125 302.613281 C 77.984375 302.613281 76.078125 302.4375 75.910156 302.417969 C 75.605469 302.390625 75.371094 302.136719 75.367188 301.832031 C 75.292969 296.957031 75.125 242.03125 75.082031 227.851562 C 73.386719 232.507812 70.292969 241.425781 69.003906 247.726562 C 67.265625 256.25 62.511719 265.707031 61.992188 266.722656 C 60.8125 274.199219 58.722656 300.726562 58.703125 300.996094 C 58.675781 301.308594 58.417969 301.550781 58.101562 301.550781 L 47.058594 301.574219 C 47.058594 301.574219 47.058594 301.574219 47.054688 301.574219 C 46.753906 301.574219 46.496094 301.347656 46.460938 301.046875 C 46.429688 300.820312 43.726562 278.410156 45.570312 264.734375 C 47.402344 251.128906 53.929688 210.921875 53.996094 210.515625 C 54.042969 210.222656 54.296875 210.011719 54.589844 210.011719 C 54.59375 210.011719 54.59375 210.011719 54.597656 210.011719 L 94.289062 210.449219 C 94.617188 210.453125 94.882812 210.71875 94.882812 211.046875 C 94.882812 211.046875 95.039062 246.628906 95.113281 260.84375 C 95.1875 274.980469 88.433594 300.742188 88.363281 301 C 88.324219 301.160156 88.21875 301.292969 88.078125 301.375 C 86.292969 302.375 83.019531 302.613281 80.3125 302.613281 " fill-opacity="1" fill-rule="nonzero"/><path fill="#ffffff" d="M 59.386719 267.027344 C 59.375 267.027344 59.367188 267.027344 59.355469 267.027344 L 55.988281 266.855469 C 55.65625 266.839844 55.402344 266.558594 55.417969 266.226562 C 55.433594 265.894531 55.71875 265.636719 56.050781 265.65625 L 59.417969 265.824219 C 59.75 265.84375 60.003906 266.125 59.988281 266.457031 C 59.972656 266.777344 59.703125 267.027344 59.386719 267.027344 " fill-opacity="1" fill-rule="nonzero"/><path fill="#ffffff" d="M 82.324219 289.023438 C 82.3125 289.023438 82.296875 289.023438 82.285156 289.023438 C 81.953125 288.996094 81.699219 288.710938 81.722656 288.378906 C 82.183594 281.707031 90.070312 270.175781 90.40625 269.683594 C 90.59375 269.410156 90.96875 269.339844 91.242188 269.53125 C 91.515625 269.71875 91.585938 270.09375 91.398438 270.367188 C 91.316406 270.484375 83.359375 282.121094 82.925781 288.460938 C 82.902344 288.78125 82.640625 289.023438 82.324219 289.023438 " fill-opacity="1" fill-rule="nonzero"/><path fill="#000000" d="M 86.976562 151.828125 C 96.191406 168.9375 91.78125 190.597656 114.644531 170.941406 C 115.265625 170.40625 116.84375 170.953125 117.050781 171.742188 L 119.457031 175.753906 C 119.457031 175.753906 81.753906 230.910156 87.769531 180.570312 L 86.976562 151.828125 " fill-opacity="1" fill-rule="nonzero"/><path fill="#000000" d="M 54.777344 212.324219 C 59.507812 213.9375 64.203125 216.570312 71.867188 215.207031 L 75.679688 211.195312 L 79.085938 214.804688 C 84.1875 216.789062 89.957031 216.75 96.136719 215.207031 L 91.007812 171.464844 L 89.25 158.113281 C 87.914062 150.492188 84.597656 148.132812 77.644531 147.519531 C 75.96875 147.371094 74.929688 154.214844 72.9375 154.101562 C 70.828125 153.980469 67.746094 146.898438 65.316406 146.84375 C 62.082031 146.765625 58.578125 146.761719 54.84375 146.863281 C 49.847656 147 45.386719 148.511719 41.882812 152.078125 C 37.015625 157.035156 52.1875 176.480469 52.1875 176.480469 C 52.1875 176.480469 55.6875 195.480469 54.777344 212.324219 " fill-opacity="1" fill-rule="nonzero"/><path fill="#ffffff" d="M 64.382812 149.183594 C 66.035156 157.609375 68.699219 166.046875 72.269531 174.492188 C 75.625 166.695312 78.070312 158.90625 79.261719 151.121094 C 79.53125 149.347656 78.238281 147.726562 76.449219 147.609375 C 73.347656 150.855469 69.933594 150.144531 66.328125 146.964844 C 65.109375 146.890625 64.148438 147.984375 64.382812 149.183594 " fill-opacity="1" fill-rule="nonzero"/><path fill="#000000" d="M 66.105469 147.570312 C 65.78125 147.59375 65.484375 147.746094 65.265625 147.996094 C 65.003906 148.289062 64.898438 148.679688 64.972656 149.070312 C 66.496094 156.828125 68.949219 164.855469 72.273438 172.9375 C 75.503906 165.199219 77.597656 158.019531 78.667969 151.027344 C 78.773438 150.335938 78.589844 149.65625 78.152344 149.113281 C 77.773438 148.644531 77.257812 148.339844 76.671875 148.242188 C 73.648438 151.230469 70.09375 151.003906 66.105469 147.570312 Z M 72.269531 175.09375 C 72.269531 175.09375 72.269531 175.09375 72.265625 175.09375 C 72.027344 175.09375 71.808594 174.949219 71.714844 174.726562 C 68.078125 166.117188 65.414062 157.566406 63.792969 149.300781 C 63.644531 148.542969 63.851562 147.777344 64.359375 147.199219 C 64.867188 146.621094 65.59375 146.316406 66.367188 146.367188 C 66.5 146.375 66.628906 146.425781 66.726562 146.515625 C 70.40625 149.757812 73.355469 149.976562 76.015625 147.195312 C 76.136719 147.066406 76.304688 147 76.488281 147.011719 C 77.503906 147.074219 78.453125 147.566406 79.089844 148.359375 C 79.730469 149.15625 80.011719 150.195312 79.855469 151.210938 C 78.710938 158.699219 76.410156 166.390625 72.820312 174.730469 C 72.726562 174.949219 72.507812 175.09375 72.269531 175.09375 " fill-opacity="1" fill-rule="nonzero"/><path fill="#1d5f31" d="M 73.988281 157.113281 L 75.578125 164.460938 L 72.769531 174.5625 L 69.863281 166.570312 L 71.570312 157.160156 L 69.371094 152.859375 L 71.882812 149.953125 L 73.722656 149.902344 L 75.9375 152.988281 L 73.988281 157.113281 " fill-opacity="1" fill-rule="nonzero"/><path fill="#ffffff" d="M 66.195312 156.914062 C 64.449219 153.828125 63.023438 149.839844 64.953125 147.320312 L 67.597656 144.464844 C 67.597656 144.464844 69.035156 148.800781 72.527344 149.921875 L 66.195312 156.914062 " fill-opacity="1" fill-rule="nonzero"/><path fill="#000000" d="M 65.414062 147.710938 C 63.746094 149.921875 65.097656 153.523438 66.320312 155.882812 L 71.503906 150.15625 C 69.277344 149.066406 67.980469 146.828125 67.398438 145.566406 Z M 66.195312 157.515625 C 66.175781 157.515625 66.152344 157.515625 66.128906 157.511719 C 65.9375 157.492188 65.769531 157.378906 65.671875 157.210938 C 63.917969 154.109375 62.289062 149.808594 64.476562 146.957031 C 64.488281 146.941406 64.5 146.925781 64.511719 146.914062 L 67.15625 144.058594 C 67.300781 143.902344 67.519531 143.835938 67.726562 143.878906 C 67.933594 143.921875 68.101562 144.074219 68.171875 144.277344 C 68.183594 144.316406 69.558594 148.335938 72.710938 149.347656 C 72.90625 149.410156 73.058594 149.570312 73.109375 149.765625 C 73.164062 149.964844 73.113281 150.175781 72.976562 150.324219 L 66.640625 157.320312 C 66.527344 157.445312 66.367188 157.515625 66.195312 157.515625 " fill-opacity="1" fill-rule="nonzero"/><path fill="#ffffff" d="M 73.160156 149.859375 C 75.550781 148.621094 75.96875 144.777344 75.96875 144.777344 C 75.96875 144.777344 78.726562 146.832031 79.332031 149.863281 C 80.21875 154.316406 78.417969 157.3125 78.417969 157.3125 L 73.160156 149.859375 " fill-opacity="1" fill-rule="nonzero"/><path fill="#000000" d="M 74.015625 150.03125 L 78.304688 156.105469 C 78.738281 154.953125 79.292969 152.757812 78.742188 149.980469 C 78.382812 148.179688 77.171875 146.730469 76.367188 145.933594 C 76.082031 147.117188 75.429688 148.96875 74.015625 150.03125 Z M 78.417969 157.914062 C 78.222656 157.914062 78.039062 157.820312 77.925781 157.65625 L 72.667969 150.207031 C 72.570312 150.066406 72.535156 149.886719 72.578125 149.71875 C 72.617188 149.550781 72.730469 149.40625 72.882812 149.324219 C 74.964844 148.25 75.367188 144.75 75.371094 144.714844 C 75.394531 144.5 75.53125 144.3125 75.730469 144.226562 C 75.925781 144.140625 76.15625 144.167969 76.328125 144.296875 C 76.449219 144.386719 79.28125 146.523438 79.921875 149.746094 C 80.84375 154.371094 79.011719 157.488281 78.933594 157.621094 C 78.828125 157.796875 78.640625 157.902344 78.4375 157.910156 C 78.429688 157.914062 78.425781 157.914062 78.417969 157.914062 " fill-opacity="1" fill-rule="nonzero"/><path fill="#1d5f31" d="M 30.679688 211.636719 L 31.613281 214.390625 C 32.601562 217.136719 37.007812 216.1875 43.425781 213.792969 L 134.902344 179.660156 L 133.441406 169.164062 L 39.855469 203.84375 C 33.4375 206.242188 29.691406 208.890625 30.679688 211.636719 " fill-opacity="1" fill-rule="nonzero"/><path fill="#000000" d="M 132.949219 169.988281 L 40.0625 204.410156 C 35.503906 206.113281 30.269531 208.710938 31.246094 211.433594 C 31.246094 211.4375 31.246094 211.441406 31.25 211.441406 L 32.183594 214.195312 C 32.351562 214.660156 32.636719 214.976562 33.082031 215.1875 C 35.011719 216.082031 39.511719 214.609375 43.214844 213.226562 L 134.238281 179.265625 Z M 34.632812 216.667969 C 33.804688 216.667969 33.132812 216.535156 32.578125 216.277344 C 31.839844 215.933594 31.328125 215.371094 31.046875 214.59375 L 30.109375 211.835938 C 29.066406 208.910156 32.273438 206.03125 39.644531 203.28125 L 133.230469 168.597656 C 133.402344 168.539062 133.59375 168.554688 133.75 168.648438 C 133.90625 168.742188 134.011719 168.902344 134.035156 169.082031 L 135.496094 179.578125 C 135.535156 179.855469 135.375 180.125 135.113281 180.222656 L 43.636719 214.355469 C 39.429688 215.925781 36.59375 216.667969 34.632812 216.667969 " fill-opacity="1" fill-rule="nonzero"/><path fill="#1d5f31" d="M 142.148438 142.078125 C 153.292969 125.195312 175.882812 120.453125 192.613281 131.488281 C 209.339844 142.527344 213.867188 165.164062 202.726562 182.046875 C 191.582031 198.933594 168.988281 203.675781 152.261719 192.640625 C 135.535156 181.601562 131.007812 158.964844 142.148438 142.078125 Z M 137.550781 139.046875 C 124.71875 158.496094 129.933594 184.570312 149.199219 197.28125 C 168.464844 209.992188 194.488281 204.53125 207.324219 185.082031 C 220.15625 165.632812 214.941406 139.558594 195.675781 126.847656 C 176.40625 114.132812 150.382812 119.597656 137.550781 139.046875 " fill-opacity="1" fill-rule="nonzero"/><path fill="#000000" d="M 142.652344 142.410156 C 131.710938 158.992188 136.171875 181.300781 152.59375 192.136719 C 158.585938 196.089844 165.355469 197.980469 172.066406 197.980469 C 183.753906 197.980469 195.273438 192.25 202.222656 181.71875 C 213.164062 165.136719 208.707031 142.828125 192.28125 131.988281 C 175.855469 121.15625 153.59375 125.828125 142.652344 142.410156 Z M 172.066406 199.183594 C 165.125 199.183594 158.128906 197.230469 151.933594 193.140625 C 134.953125 181.9375 130.339844 158.882812 141.648438 141.746094 C 152.953125 124.613281 175.964844 119.785156 192.941406 130.988281 C 209.921875 142.1875 214.535156 165.246094 203.226562 182.378906 C 196.046875 193.261719 184.144531 199.183594 172.066406 199.183594 Z M 137.550781 139.046875 L 137.554688 139.046875 Z M 172.882812 120.578125 C 170.042969 120.578125 167.175781 120.875 164.324219 121.472656 C 153.503906 123.746094 144.171875 130.105469 138.054688 139.375 C 131.933594 148.648438 129.757812 159.730469 131.929688 170.570312 C 134.097656 181.410156 140.347656 190.71875 149.53125 196.777344 C 158.71875 202.839844 169.730469 204.925781 180.550781 202.652344 C 191.371094 200.382812 200.703125 194.023438 206.820312 184.75 C 212.941406 175.476562 215.113281 164.398438 212.945312 153.558594 C 210.777344 142.714844 204.527344 133.40625 195.34375 127.347656 C 188.582031 122.886719 180.824219 120.578125 172.882812 120.578125 Z M 171.988281 204.753906 C 163.8125 204.753906 155.832031 202.375 148.871094 197.78125 C 139.414062 191.546875 132.980469 181.964844 130.746094 170.808594 C 128.515625 159.652344 130.753906 148.253906 137.050781 138.714844 C 143.34375 129.171875 152.941406 122.632812 164.074219 120.296875 C 175.214844 117.957031 186.550781 120.105469 196.003906 126.34375 C 205.460938 132.582031 211.894531 142.164062 214.125 153.320312 C 216.359375 164.476562 214.121094 175.875 207.824219 185.414062 C 201.53125 194.953125 191.933594 201.496094 180.796875 203.832031 C 177.863281 204.445312 174.914062 204.753906 171.988281 204.753906 " fill-opacity="1" fill-rule="nonzero"/><path fill="#000000" d="M 42.386719 151.625 L 52.347656 176.964844 C 48.089844 187.695312 49.824219 197.40625 59.132812 210.089844 L 55.222656 217.210938 C 17.816406 204.175781 25.371094 170.746094 42.386719 151.625 " fill-opacity="1" fill-rule="nonzero"/><path fill="#ffffff" d="M 63.277344 212.359375 C 60.730469 211.089844 58.613281 209.46875 56.851562 207.628906 C 54.644531 209.878906 52.667969 212.316406 50.890625 214.898438 C 56.644531 217.773438 61.914062 218.582031 63.851562 218.050781 C 69.410156 216.523438 76.046875 216.820312 76.046875 216.820312 C 72.765625 211.183594 63.277344 212.359375 63.277344 212.359375 " fill-opacity="1" fill-rule="nonzero"/><path fill="#000000" d="M 51.785156 214.667969 C 57.304688 217.292969 62.113281 217.90625 63.691406 217.46875 C 67.917969 216.308594 72.699219 216.179688 74.875 216.195312 C 71.359375 212.023438 63.4375 212.945312 63.351562 212.957031 C 63.234375 212.972656 63.117188 212.949219 63.011719 212.898438 C 60.726562 211.761719 58.660156 210.28125 56.855469 208.492188 C 55.0625 210.363281 53.363281 212.4375 51.785156 214.667969 Z M 62.40625 218.804688 C 59.71875 218.804688 55.277344 217.761719 50.621094 215.4375 C 50.464844 215.359375 50.351562 215.21875 50.308594 215.050781 C 50.265625 214.882812 50.296875 214.703125 50.394531 214.558594 C 52.242188 211.871094 54.273438 209.398438 56.425781 207.207031 C 56.539062 207.089844 56.703125 207.023438 56.855469 207.027344 C 57.019531 207.027344 57.175781 207.09375 57.289062 207.210938 C 59.054688 209.0625 61.105469 210.585938 63.390625 211.742188 C 64.800781 211.601562 73.34375 210.984375 76.570312 216.519531 C 76.679688 216.707031 76.675781 216.945312 76.5625 217.132812 C 76.449219 217.320312 76.242188 217.433594 76.023438 217.421875 C 75.957031 217.417969 69.410156 217.144531 64.011719 218.632812 C 63.589844 218.746094 63.046875 218.804688 62.40625 218.804688 " fill-opacity="1" fill-rule="nonzero"/><path fill="#ffffff" d="M 115.808594 177.902344 C 119.179688 177.445312 125.351562 175.628906 121.859375 168.394531 C 121.523438 167.703125 120.679688 167.421875 119.984375 167.757812 C 117.851562 168.792969 114.523438 172.367188 113.859375 175.855469 C 113.636719 177.015625 114.636719 178.058594 115.808594 177.902344 " fill-opacity="1" fill-rule="nonzero"/><path fill="#000000" d="M 120.601562 168.214844 C 120.480469 168.214844 120.359375 168.242188 120.25 168.296875 C 118.253906 169.269531 115.082031 172.65625 114.449219 175.96875 C 114.382812 176.328125 114.488281 176.6875 114.742188 176.953125 C 115 177.226562 115.359375 177.355469 115.726562 177.304688 C 117.511719 177.0625 120.679688 176.335938 121.835938 174.183594 C 122.585938 172.785156 122.414062 170.925781 121.316406 168.65625 C 121.226562 168.472656 121.066406 168.332031 120.867188 168.261719 C 120.78125 168.230469 120.691406 168.214844 120.601562 168.214844 Z M 115.578125 178.519531 C 114.9375 178.519531 114.316406 178.253906 113.871094 177.78125 C 113.347656 177.230469 113.125 176.488281 113.269531 175.742188 C 113.996094 171.917969 117.546875 168.273438 119.722656 167.214844 C 120.207031 166.980469 120.753906 166.949219 121.261719 167.125 C 121.765625 167.300781 122.171875 167.65625 122.402344 168.132812 C 123.671875 170.769531 123.839844 172.996094 122.894531 174.753906 C 121.554688 177.246094 118.347656 178.164062 115.890625 178.496094 C 115.785156 178.511719 115.683594 178.519531 115.578125 178.519531 " fill-opacity="1" fill-rule="nonzero"/></svg>