<svg xmlns="http://www.w3.org/2000/svg" xmlns:xlink="http://www.w3.org/1999/xlink" width="500" zoomAndPan="magnify" viewBox="0 0 375 374.999991" height="500" preserveAspectRatio="xMidYMid meet" version="1.0"><path fill="#14b497" d="M 337.984375 148.960938 C 330.566406 145.070312 328.363281 140.414062 328.734375 137.609375 C 328.894531 136.332031 329.570312 135.410156 330.488281 135.207031 C 330.625 135.175781 330.78125 135.15625 330.941406 135.15625 C 332.351562 135.15625 334.601562 136.417969 336.976562 140.074219 C 339.417969 143.859375 340.753906 147.226562 340.96875 150.144531 C 340.03125 149.898438 339.035156 149.511719 337.984375 148.960938 Z M 328.445312 154.273438 C 329.972656 155.414062 331.667969 156.480469 333.527344 157.457031 C 334.625 158.03125 335.734375 158.511719 336.84375 158.898438 C 335.609375 159.902344 334.214844 160.738281 332.808594 161.4375 C 331.429688 159.003906 329.980469 156.605469 328.445312 154.273438 Z M 284.019531 315.5625 L 280.992188 353.308594 C 280.992188 353.308594 277.117188 356.332031 270.128906 356.332031 C 266.554688 356.332031 262.160156 355.539062 257.054688 353.140625 L 250.941406 331.433594 C 241.179688 334.257812 230.902344 335.839844 220.246094 335.839844 C 220.246094 335.839844 204.617188 336.09375 189.90625 336.09375 C 175.191406 336.09375 161.890625 335.839844 161.890625 335.839844 C 151.847656 335.839844 142.148438 334.390625 132.886719 331.875 L 126.929688 353.140625 C 122.113281 355.214844 117.957031 355.925781 114.523438 355.925781 C 107.0625 355.925781 103.003906 352.578125 103.003906 352.578125 L 100.960938 317.542969 C 79.277344 303.238281 62.953125 281.539062 55.523438 256.011719 L 33.292969 249.140625 C 33.292969 249.140625 27.542969 231.839844 29.226562 211.585938 L 54.378906 198.355469 C 61.035156 171.421875 77.425781 148.320312 99.75 133.167969 L 88.429688 92.851562 C 88.429688 92.851562 93.648438 90.820312 100.917969 90.820312 C 111.65625 90.820312 126.867188 95.253906 136.367188 117.179688 C 141.261719 116.027344 146.277344 115.203125 151.382812 114.691406 C 152.128906 123.542969 156.230469 131.433594 162.40625 137.128906 C 156.820312 137.476562 153.429688 137.828125 153 137.875 C 149.621094 138.246094 147.175781 141.273438 147.539062 144.648438 C 147.902344 148.039062 151 150.445312 154.3125 150.109375 C 154.652344 150.066406 188.460938 146.546875 226.75 150.9375 C 226.984375 150.964844 227.222656 150.976562 227.460938 150.976562 C 230.539062 150.976562 233.207031 148.664062 233.558594 145.523438 C 233.953125 142.152344 231.523438 139.101562 228.152344 138.714844 C 221.625 137.964844 215.257812 137.441406 209.160156 137.082031 C 215.441406 131.265625 219.546875 123.167969 220.152344 114.101562 C 220.1875 114.109375 220.246094 114.117188 220.246094 114.117188 C 281.460938 114.117188 331.109375 163.765625 331.109375 224.96875 C 331.109375 262.4375 312.46875 295.5 284.019531 315.5625 Z M 199.660156 94.488281 C 200.914062 95.496094 202.050781 96.640625 203.058594 97.894531 C 203.109375 97.957031 203.160156 98.023438 203.210938 98.085938 C 203.628906 98.625 204.03125 99.179688 204.398438 99.757812 C 204.511719 99.921875 204.609375 100.097656 204.710938 100.265625 C 205.007812 100.753906 205.289062 101.246094 205.546875 101.753906 C 205.660156 101.976562 205.769531 102.207031 205.875 102.433594 C 206.097656 102.90625 206.300781 103.390625 206.492188 103.882812 C 206.589844 104.140625 206.6875 104.402344 206.777344 104.664062 C 206.941406 105.148438 207.082031 105.648438 207.214844 106.144531 C 207.285156 106.421875 207.367188 106.6875 207.425781 106.96875 C 207.546875 107.5 207.632812 108.046875 207.710938 108.59375 C 207.75 108.84375 207.800781 109.089844 207.824219 109.34375 C 207.914062 110.144531 207.96875 110.957031 207.96875 111.785156 C 207.96875 112.253906 207.925781 112.707031 207.898438 113.171875 C 207.175781 124.769531 197.539062 133.996094 185.757812 133.996094 C 174.234375 133.996094 164.746094 125.183594 163.648438 113.953125 C 163.582031 113.238281 163.539062 112.515625 163.539062 111.785156 C 163.539062 110.976562 163.585938 110.179688 163.671875 109.394531 C 163.699219 109.15625 163.746094 108.929688 163.78125 108.695312 C 163.855469 108.148438 163.941406 107.597656 164.058594 107.066406 C 164.109375 106.8125 164.183594 106.570312 164.246094 106.320312 C 164.378906 105.808594 164.511719 105.300781 164.679688 104.808594 C 164.757812 104.574219 164.84375 104.347656 164.929688 104.117188 C 165.117188 103.613281 165.316406 103.117188 165.535156 102.632812 C 165.628906 102.429688 165.726562 102.234375 165.824219 102.039062 C 166.074219 101.527344 166.339844 101.03125 166.625 100.542969 C 166.722656 100.382812 166.816406 100.230469 166.910156 100.074219 C 167.238281 99.554688 167.578125 99.050781 167.949219 98.5625 C 168.03125 98.453125 168.109375 98.339844 168.191406 98.234375 C 168.601562 97.703125 169.039062 97.191406 169.492188 96.699219 C 169.550781 96.644531 169.601562 96.578125 169.65625 96.523438 C 170.175781 95.976562 170.71875 95.453125 171.292969 94.960938 C 175.183594 91.613281 180.234375 89.574219 185.757812 89.574219 C 191.019531 89.574219 195.851562 91.421875 199.660156 94.488281 Z M 348.546875 159.5625 C 352.46875 158.636719 356.097656 156.507812 359.027344 153.253906 C 365.167969 146.429688 366.117188 137.070312 361.378906 129.964844 C 359.898438 127.761719 356.921875 127.183594 354.730469 128.636719 C 352.523438 130.109375 351.925781 133.085938 353.394531 135.292969 C 356.007812 139.210938 354.527344 143.914062 351.890625 146.832031 C 351.585938 147.167969 351.097656 147.671875 350.433594 148.191406 C 349.867188 144.011719 348.070312 139.554688 345.027344 134.863281 C 340.519531 127.890625 334.265625 124.53125 328.382812 125.84375 C 323.511719 126.941406 319.914062 131.070312 319.210938 136.359375 C 318.949219 138.378906 319.101562 140.390625 319.628906 142.355469 C 296.132812 114.144531 260.898438 96.042969 221.484375 95.667969 C 220.3125 95.527344 218.480469 95.339844 215.984375 95.15625 C 210.101562 84.503906 198.765625 77.273438 185.757812 77.273438 C 172.460938 77.273438 160.910156 84.84375 155.148438 95.890625 C 152.117188 96.058594 149.082031 96.300781 146.015625 96.691406 C 135.117188 81.070312 119.253906 72.367188 100.921875 72.367188 C 90.699219 72.367188 83.140625 75.109375 81.730469 75.65625 C 72.886719 79.105469 68.097656 88.699219 70.664062 97.839844 L 78.59375 126.082031 C 59.984375 141.78125 46.191406 162.40625 38.785156 185.707031 L 20.636719 195.25 C 15.054688 198.1875 11.355469 203.773438 10.835938 210.058594 C 8.898438 233.402344 15.070312 252.820312 15.78125 254.957031 C 17.660156 260.613281 22.152344 265.007812 27.84375 266.769531 L 41.050781 270.851562 C 49.519531 293.179688 64.082031 312.792969 83.054688 327.417969 L 84.578125 353.652344 C 84.882812 358.769531 87.296875 363.539062 91.253906 366.804688 C 93.40625 368.582031 101.445312 374.382812 114.523438 374.382812 C 120.992188 374.382812 127.625 372.9375 134.234375 370.089844 C 139.347656 367.882812 143.195312 363.484375 144.695312 358.121094 L 146.054688 353.273438 C 151.355469 353.953125 156.644531 354.292969 161.882812 354.292969 C 161.773438 354.292969 175.132812 354.546875 189.90625 354.546875 C 204.761719 354.546875 220.546875 354.292969 220.546875 354.292969 C 220.550781 354.292969 220.5625 354.292969 220.566406 354.292969 C 226.269531 354.292969 232.0625 353.878906 237.863281 353.0625 L 239.292969 358.144531 C 240.746094 363.300781 244.367188 367.570312 249.214844 369.84375 C 256.195312 373.125 263.230469 374.785156 270.128906 374.785156 C 282.5 374.785156 290.253906 369.484375 292.339844 367.863281 C 296.417969 364.6875 298.972656 359.941406 299.386719 354.785156 L 301.753906 325.261719 C 331.84375 300.785156 349.5625 263.917969 349.5625 224.96875 C 349.5625 205.296875 345.128906 186.640625 337.238281 169.933594 C 341.445312 167.804688 345.980469 164.519531 348.546875 159.5625 " fill-opacity="1" fill-rule="nonzero"/><path fill="#14b497" d="M 91.746094 166.722656 C 86.183594 166.722656 81.820312 172.257812 81.820312 179.328125 C 81.820312 186.398438 86.183594 191.933594 91.746094 191.933594 C 97.308594 191.933594 101.675781 186.398438 101.675781 179.328125 C 101.675781 172.257812 97.308594 166.722656 91.746094 166.722656 " fill-opacity="1" fill-rule="nonzero"/><path fill="#14b497" d="M 171.570312 231.1875 C 169.871094 229.542969 168.671875 227.785156 168.015625 225.996094 C 167.28125 223.957031 166.828125 221.925781 166.660156 219.964844 C 166.320312 213.789062 168.265625 208.585938 172.609375 204.058594 C 176.160156 200.363281 181.210938 198.03125 187.667969 197.113281 L 187.667969 239.109375 C 184.3125 238.429688 181.507812 237.527344 179.28125 236.40625 C 176.078125 234.78125 173.480469 233.015625 171.570312 231.1875 Z M 215.679688 287.878906 C 214.367188 289.496094 212.421875 290.996094 209.914062 292.351562 C 208.308594 293.214844 206.273438 293.878906 203.839844 294.332031 L 203.839844 256.097656 C 208.660156 257.609375 212.296875 259.757812 214.683594 262.496094 C 217.839844 266.117188 219.34375 271.683594 219.1875 279.0625 L 219.1875 279.160156 C 219.1875 279.652344 219.070312 280.816406 218.371094 283.050781 C 217.863281 284.675781 216.980469 286.253906 215.679688 287.878906 Z M 228.128906 256.667969 C 225.777344 253.0625 222.328125 249.8125 217.90625 247.015625 C 214.222656 244.636719 209.597656 242.816406 203.839844 241.5 L 203.839844 198.570312 C 204.9375 199.023438 205.941406 199.5625 206.871094 200.199219 C 209.222656 201.785156 211.222656 203.597656 212.839844 205.59375 C 214.378906 207.480469 215.554688 209.601562 216.3125 211.878906 C 217.125 214.378906 217.625 216.734375 217.804688 219.066406 C 218.371094 223.957031 221.910156 225.757812 225.335938 225.4375 C 226.976562 225.226562 230.910156 224.144531 232.121094 217.617188 C 231.882812 207.785156 228.707031 199.773438 222.691406 193.804688 C 217.625 188.804688 211.304688 185.519531 203.839844 184 L 203.839844 177.59375 C 203.839844 174.429688 202.347656 172.5 200.980469 171.351562 C 197.644531 168.730469 193.1875 168.792969 190.101562 171.605469 C 188.992188 172.65625 187.667969 174.550781 187.667969 177.59375 L 187.667969 183.097656 C 183.191406 183.558594 178.953125 184.53125 175.027344 186 C 169.882812 187.929688 165.464844 190.628906 161.878906 194.042969 C 158.316406 197.433594 155.601562 201.457031 153.78125 206.015625 C 151.953125 210.660156 151.261719 215.589844 151.746094 220.742188 C 152.773438 230.167969 156.746094 237.894531 163.527344 243.710938 C 169.542969 248.832031 177.550781 252.082031 187.667969 253.414062 L 187.667969 294.589844 C 180.445312 293.828125 174.734375 291.886719 170.640625 288.8125 C 165.789062 285.125 162.851562 280.765625 161.71875 275.839844 C 161.3125 273.003906 159.152344 269.910156 154.324219 269.734375 C 151.417969 269.578125 149.597656 270.820312 148.703125 271.878906 C 147.824219 272.929688 146.882812 274.777344 147.484375 277.527344 C 149.335938 287.539062 154.515625 295.300781 162.871094 300.609375 C 169.839844 305.015625 178.160156 307.664062 187.667969 308.527344 L 187.667969 313.558594 C 187.667969 316.6875 189.027344 318.582031 190.214844 319.65625 C 191.761719 321.023438 193.628906 321.738281 195.609375 321.738281 C 197.484375 321.738281 199.269531 321.105469 201.011719 319.785156 C 202.84375 318.308594 203.839844 316.101562 203.839844 313.558594 L 203.839844 308.355469 C 212.988281 307.082031 219.988281 303.824219 224.714844 298.636719 C 229.960938 292.828125 232.867188 286.375 233.320312 279.605469 C 233.691406 276.085938 233.5 272.375 232.742188 268.265625 C 231.972656 264.132812 230.421875 260.238281 228.128906 256.667969 " fill-opacity="1" fill-rule="nonzero"/><path fill="#14b497" d="M 231.65625 39.957031 C 235.886719 39.957031 239.335938 43.398438 239.335938 47.632812 C 239.335938 51.863281 235.886719 55.308594 231.65625 55.308594 C 227.429688 55.308594 223.980469 51.863281 223.980469 47.632812 C 223.980469 43.398438 227.429688 39.957031 231.65625 39.957031 Z M 231.65625 67.609375 C 242.671875 67.609375 251.636719 58.648438 251.636719 47.632812 C 251.636719 36.617188 242.671875 27.652344 231.65625 27.652344 C 220.644531 27.652344 211.675781 36.617188 211.675781 47.632812 C 211.675781 58.648438 220.644531 67.609375 231.65625 67.609375 " fill-opacity="1" fill-rule="nonzero"/><path fill="#14b497" d="M 168.503906 12.519531 C 176.578125 12.519531 183.136719 19.078125 183.136719 27.132812 C 183.136719 35.203125 176.578125 41.765625 168.503906 41.765625 C 160.441406 41.765625 153.882812 35.203125 153.882812 27.132812 C 153.882812 19.078125 160.441406 12.519531 168.503906 12.519531 Z M 168.503906 54.070312 C 183.351562 54.070312 195.4375 41.984375 195.4375 27.132812 C 195.4375 12.292969 183.351562 0.214844 168.503906 0.214844 C 153.65625 0.214844 141.578125 12.292969 141.578125 27.132812 C 141.578125 41.984375 153.65625 54.070312 168.503906 54.070312 " fill-opacity="1" fill-rule="nonzero"/></svg>