<svg xmlns="http://www.w3.org/2000/svg" xmlns:xlink="http://www.w3.org/1999/xlink" width="500" zoomAndPan="magnify" viewBox="0 0 375 374.999991" height="500" preserveAspectRatio="xMidYMid meet" version="1.0"><defs><clipPath id="6a838ab4f6"><path d="M 118 286 L 257 286 L 257 319.828125 L 118 319.828125 Z M 118 286 " clip-rule="nonzero"/></clipPath><clipPath id="6e84cd5b36"><path d="M 38 55.078125 L 337 55.078125 L 337 151 L 38 151 Z M 38 55.078125 " clip-rule="nonzero"/></clipPath><clipPath id="f22f95095d"><path d="M 178 171.304688 L 182 171.304688 L 182 188 L 178 188 Z M 178 171.304688 " clip-rule="nonzero"/></clipPath><clipPath id="49d82cccda"><path d="M 147.03125 208 L 163 208 L 163 215 L 147.03125 215 Z M 147.03125 208 " clip-rule="nonzero"/></clipPath></defs><g clip-path="url(#6a838ab4f6)"><path fill="#14b497" d="M 253.496094 314.78125 C 246.792969 309.546875 238.53125 306.707031 230.027344 306.707031 L 210.574219 306.707031 C 207.378906 306.707031 204.789062 304.105469 204.808594 300.902344 C 204.8125 300.167969 204.183594 299.582031 203.453125 299.582031 L 199.71875 299.582031 L 197.78125 286.851562 C 195.28125 287.691406 187.511719 289.5 187.511719 289.5 C 187.511719 289.5 179.734375 287.695312 177.234375 286.855469 L 175.292969 299.585938 L 171.5625 299.585938 C 170.828125 299.585938 170.203125 300.167969 170.207031 300.90625 C 170.226562 304.109375 167.636719 306.714844 164.441406 306.714844 L 144.988281 306.714844 C 136.480469 306.714844 128.222656 309.550781 121.519531 314.785156 L 119.09375 316.675781 C 117.722656 317.742188 118.480469 319.945312 120.214844 319.945312 L 254.8125 319.945312 C 256.554688 319.945312 257.308594 317.746094 255.9375 316.675781 Z M 253.496094 314.78125 " fill-opacity="1" fill-rule="nonzero"/></g><path fill="#bbbdbf" d="M 48.71875 250.378906 C 47.597656 250.378906 46.683594 249.464844 46.683594 248.34375 L 46.683594 143.582031 C 46.683594 142.457031 47.597656 141.546875 48.71875 141.546875 C 49.839844 141.546875 50.753906 142.457031 50.753906 143.582031 L 50.753906 248.34375 C 50.753906 249.464844 49.839844 250.378906 48.71875 250.378906 Z M 48.71875 250.378906 " fill-opacity="1" fill-rule="nonzero"/><path fill="#bbbdbf" d="M 17.503906 244.953125 C 17.296875 244.953125 17.089844 244.921875 16.878906 244.851562 C 15.808594 244.507812 15.21875 243.359375 15.5625 242.292969 L 46.777344 144.90625 C 47.121094 143.835938 48.265625 143.246094 49.335938 143.589844 C 50.410156 143.933594 50.996094 145.082031 50.652344 146.148438 L 19.4375 243.535156 C 19.164062 244.398438 18.359375 244.953125 17.503906 244.953125 Z M 17.503906 244.953125 " fill-opacity="1" fill-rule="nonzero"/><path fill="#bbbdbf" d="M 79.9375 244.65625 C 79.074219 244.65625 78.277344 244.109375 77.996094 243.242188 L 46.777344 145.855469 C 46.433594 144.78125 47.023438 143.640625 48.09375 143.296875 C 49.167969 142.953125 50.308594 143.539062 50.652344 144.613281 L 81.875 242 C 82.21875 243.070312 81.628906 244.214844 80.558594 244.558594 C 80.351562 244.621094 80.144531 244.65625 79.9375 244.65625 Z M 79.9375 244.65625 " fill-opacity="1" fill-rule="nonzero"/><path fill="#14b497" d="M 94.074219 244.183594 C 81.695312 250.183594 65.988281 253.769531 48.886719 253.769531 C 31.789062 253.769531 16.082031 250.179688 3.699219 244.183594 C 1.859375 243.292969 -0.0117188 245.40625 1.140625 247.09375 C 6.472656 254.902344 14.28125 261.28125 23.617188 265.441406 C 22.292969 266.214844 21.554688 267.058594 21.554688 267.953125 C 21.554688 271.554688 33.621094 274.472656 48.503906 274.472656 C 63.386719 274.472656 75.453125 271.554688 75.453125 267.953125 C 75.453125 267.140625 74.835938 266.367188 73.722656 265.648438 C 83.253906 261.492188 91.214844 255.027344 96.632812 247.09375 C 97.785156 245.40625 95.914062 243.296875 94.074219 244.183594 Z M 94.074219 244.183594 " fill-opacity="1" fill-rule="nonzero"/><path fill="#bbbdbf" d="M 326.28125 250.378906 C 325.160156 250.378906 324.246094 249.464844 324.246094 248.34375 L 324.246094 143.582031 C 324.246094 142.457031 325.160156 141.546875 326.28125 141.546875 C 327.402344 141.546875 328.316406 142.457031 328.316406 143.582031 L 328.316406 248.34375 C 328.316406 249.464844 327.402344 250.378906 326.28125 250.378906 Z M 326.28125 250.378906 " fill-opacity="1" fill-rule="nonzero"/><path fill="#bbbdbf" d="M 357.496094 244.953125 C 356.632812 244.953125 355.835938 244.402344 355.554688 243.535156 L 324.335938 146.148438 C 323.992188 145.078125 324.582031 143.933594 325.652344 143.589844 C 326.726562 143.242188 327.867188 143.835938 328.210938 144.90625 L 359.4375 242.292969 C 359.78125 243.367188 359.191406 244.507812 358.121094 244.851562 C 357.914062 244.921875 357.707031 244.953125 357.496094 244.953125 Z M 357.496094 244.953125 " fill-opacity="1" fill-rule="nonzero"/><path fill="#bbbdbf" d="M 295.0625 244.65625 C 294.855469 244.65625 294.648438 244.628906 294.4375 244.558594 C 293.367188 244.214844 292.777344 243.066406 293.121094 242 L 324.339844 144.613281 C 324.6875 143.539062 325.828125 142.953125 326.902344 143.296875 C 327.972656 143.640625 328.5625 144.789062 328.21875 145.855469 L 297.003906 243.242188 C 296.726562 244.105469 295.925781 244.65625 295.0625 244.65625 Z M 295.0625 244.65625 " fill-opacity="1" fill-rule="nonzero"/><path fill="#14b497" d="M 371.300781 244.183594 C 358.917969 250.183594 343.210938 253.769531 326.113281 253.769531 C 309.019531 253.769531 293.304688 250.179688 280.925781 244.183594 C 279.085938 243.292969 277.214844 245.40625 278.367188 247.09375 C 283.699219 254.902344 291.503906 261.28125 300.84375 265.441406 C 299.511719 266.214844 298.777344 267.058594 298.777344 267.953125 C 298.777344 271.554688 310.84375 274.472656 325.726562 274.472656 C 340.613281 274.472656 352.679688 271.554688 352.679688 267.953125 C 352.679688 267.140625 352.066406 266.367188 350.949219 265.648438 C 360.480469 261.492188 368.441406 255.027344 373.859375 247.09375 C 375.003906 245.40625 373.140625 243.296875 371.300781 244.183594 Z M 371.300781 244.183594 " fill-opacity="1" fill-rule="nonzero"/><g clip-path="url(#6e84cd5b36)"><path fill="#14b497" d="M 326.28125 130.941406 C 321.859375 130.941406 318.117188 133.863281 316.875 137.882812 C 272.964844 142.886719 250.269531 135.609375 228.285156 128.550781 C 217.691406 125.148438 207.5625 121.917969 195.652344 120.28125 C 198.164062 111.164062 202.089844 108.667969 202.089844 99.382812 C 202.089844 86.828125 191.53125 79.828125 191.570312 71.558594 C 191.609375 63.289062 191.570312 60.710938 191.570312 60.710938 C 191.570312 60.0625 191.355469 59.242188 191.027344 58.371094 C 189.792969 55.113281 185.195312 55.113281 183.96875 58.371094 C 183.640625 59.242188 183.425781 60.054688 183.425781 60.710938 C 183.425781 60.710938 183.386719 63.28125 183.425781 71.558594 C 183.464844 79.828125 172.90625 86.828125 172.90625 99.382812 C 172.90625 108.664062 176.832031 111.15625 179.34375 120.28125 C 167.433594 121.914062 157.308594 125.148438 146.707031 128.550781 C 124.71875 135.605469 102.03125 142.882812 58.121094 137.882812 C 56.882812 133.863281 53.140625 130.941406 48.71875 130.941406 C 43.28125 130.941406 38.875 135.34375 38.875 140.78125 C 38.875 146.21875 43.28125 150.625 48.71875 150.625 C 53.265625 150.625 57.082031 147.535156 58.210938 143.339844 C 68.132812 145.003906 77.039062 146.628906 85.144531 146.628906 C 113.863281 146.628906 132.351562 141.714844 149.203125 136.308594 C 159.636719 132.960938 169.609375 132.707031 181.183594 132.074219 C 181.304688 133.917969 181.378906 135.929688 181.394531 138.128906 C 185.160156 136.382812 187.496094 135.300781 187.496094 135.300781 C 187.496094 135.300781 189.828125 136.382812 193.601562 138.128906 C 193.617188 135.921875 193.691406 133.917969 193.808594 132.074219 C 205.390625 132.707031 215.359375 132.957031 225.792969 136.308594 C 242.648438 141.714844 261.132812 146.628906 289.847656 146.628906 C 297.949219 146.628906 306.863281 145.003906 316.785156 143.339844 C 317.910156 147.53125 321.726562 150.625 326.277344 150.625 C 331.714844 150.625 336.117188 146.21875 336.117188 140.78125 C 336.125 135.34375 331.714844 130.941406 326.28125 130.941406 Z M 326.28125 130.941406 " fill-opacity="1" fill-rule="nonzero"/></g><path fill="#14b497" d="M 249.230469 167.542969 C 249.230469 167.542969 207.542969 152.046875 187.5 139.972656 L 187.5 139.96875 C 187.5 139.96875 187.5 139.96875 187.496094 139.96875 L 187.496094 139.972656 C 167.453125 152.046875 125.761719 167.542969 125.761719 167.542969 C 125.761719 167.542969 111.277344 268.699219 187.496094 284.59375 C 187.496094 284.59375 187.496094 284.59375 187.5 284.59375 C 187.5 284.59375 187.503906 284.59375 187.503906 284.59375 C 263.722656 268.699219 249.230469 167.542969 249.230469 167.542969 Z M 237.859375 216.875 C 231.019531 247.660156 214.085938 266.421875 187.5 272.671875 C 160.914062 266.421875 143.980469 247.660156 137.140625 216.875 C 133.191406 199.078125 134.710938 183.933594 135.371094 175.738281 C 135.371094 175.738281 166.585938 165.171875 187.5 154.105469 C 208.414062 165.171875 239.628906 175.738281 239.628906 175.738281 C 240.285156 183.933594 241.808594 199.070312 237.859375 216.875 Z M 237.859375 216.875 " fill-opacity="1" fill-rule="nonzero"/><path fill="#bbbdbf" d="M 187.5 163.113281 C 203.257812 170.996094 222.5625 178.183594 231.917969 181.507812 C 232.589844 191.035156 232.746094 202.355469 229.902344 215.171875 C 223.957031 241.949219 209.695312 258.515625 187.503906 264.433594 C 165.3125 258.519531 151.050781 241.949219 145.105469 215.171875 C 142.257812 202.355469 142.417969 191.035156 143.089844 181.507812 C 152.4375 178.183594 171.742188 170.996094 187.5 163.113281 M 187.5 159.695312 C 170.402344 168.410156 148.308594 176.445312 140.1875 179.300781 C 139.519531 187.75 138.78125 200.808594 142.117188 215.84375 C 148.402344 244.140625 163.667969 261.546875 187.5 267.597656 C 211.332031 261.546875 226.597656 244.144531 232.882812 215.84375 C 236.21875 200.808594 235.480469 187.75 234.8125 179.300781 C 226.691406 176.441406 204.597656 168.410156 187.5 159.695312 Z M 187.5 159.695312 " fill-opacity="1" fill-rule="nonzero"/><path fill="#ffd013" d="M 176.082031 185.089844 C 182.789062 182.113281 205.789062 188.714844 210.496094 196.679688 C 215.203125 204.648438 215.574219 210.089844 212.671875 218.066406 C 209.773438 226.039062 202.5625 231.828125 195.300781 232.914062 C 188.042969 233.996094 177.535156 236.171875 171.007812 228.203125 C 164.484375 220.238281 161.949219 219.503906 161.59375 216.246094 C 161.234375 212.988281 159.417969 202.847656 164.125 195.597656 C 168.832031 188.347656 169.558594 187.992188 176.082031 185.089844 Z M 176.082031 185.089844 " fill-opacity="1" fill-rule="nonzero"/><path fill="#14b497" d="M 209.777344 202.28125 C 208.925781 198.710938 206.398438 195.601562 203.273438 193.726562 C 199.316406 191.355469 194.542969 190.75 189.996094 190.957031 C 186.085938 191.132812 182.195312 191.835938 178.589844 193.390625 C 171.992188 196.242188 166.929688 202.472656 167.472656 209.9375 C 167.617188 211.828125 168.128906 213.6875 169.105469 215.304688 C 170.261719 217.195312 171.910156 218.554688 173.6875 219.820312 C 177.164062 222.269531 181.664062 226.179688 180.382812 230.808594 C 180.207031 230.777344 180.03125 230.746094 179.839844 230.710938 C 178.574219 230.488281 178.140625 232.699219 179.421875 232.972656 C 183.140625 233.757812 186.96875 234.109375 190.761719 233.804688 C 191.402344 233.757812 192.203125 233.324219 192.140625 232.539062 C 191.789062 228.324219 193.292969 224.097656 196.464844 221.246094 C 198.132812 219.757812 200.085938 218.652344 201.925781 217.386719 C 203.625 216.214844 205.179688 214.917969 206.507812 213.347656 C 209.167969 210.320312 210.722656 206.300781 209.777344 202.28125 Z M 204.332031 211.90625 C 201.238281 215.367188 196.65625 216.953125 193.582031 220.414062 C 190.890625 223.441406 189.515625 227.300781 189.515625 231.289062 C 186.726562 231.449219 183.972656 231.351562 181.199219 230.953125 C 182.195312 228.199219 181.425781 225.089844 179.792969 222.640625 C 178.667969 220.957031 177.179688 219.660156 175.609375 218.410156 C 174.089844 217.210938 172.453125 216.023438 171.445312 214.308594 C 168.003906 208.496094 171.191406 201.128906 176.347656 197.589844 C 179.359375 195.523438 182.945312 194.433594 186.519531 193.886719 C 190.636719 193.261719 195.089844 193.261719 199.078125 194.625 C 202.488281 195.792969 205.597656 198.230469 206.894531 201.6875 C 208.253906 205.339844 206.828125 209.121094 204.332031 211.90625 Z M 204.332031 211.90625 " fill-opacity="1" fill-rule="nonzero"/><path fill="#14b497" d="M 191.484375 214.183594 C 190.058594 213.972656 189.304688 215.144531 188.808594 216.28125 C 188.792969 216.265625 188.792969 216.265625 188.777344 216.25 C 190.042969 213.925781 190.796875 210.707031 189.066406 208.59375 C 188.730469 208.175781 188.121094 208.207031 187.734375 208.511719 C 186.613281 209.394531 186.4375 210.882812 186.308594 212.226562 C 186.183594 213.476562 186.214844 214.773438 186.695312 215.929688 C 186.535156 216.167969 186.375 216.394531 186.183594 216.601562 C 185.667969 214.582031 184.324219 212.484375 182 213.527344 C 179.886719 214.488281 179.664062 217.59375 181.457031 218.957031 C 182.433594 219.691406 183.523438 219.867188 184.582031 219.660156 C 184.691406 222.496094 184.242188 225.21875 183.621094 227.972656 C 183.460938 228.644531 184.339844 228.917969 184.628906 228.292969 C 184.660156 228.230469 184.675781 228.183594 184.707031 228.117188 C 184.902344 228.855469 186.132812 229.09375 186.390625 228.183594 C 186.949219 226.117188 187.574219 224.066406 188.25 222.03125 C 188.570312 221.085938 188.890625 220.140625 189.226562 219.195312 C 189.320312 218.921875 189.417969 218.636719 189.515625 218.347656 C 189.738281 218.378906 189.960938 218.394531 190.203125 218.378906 C 191.339844 218.300781 192.460938 217.59375 192.796875 216.472656 C 193.101562 215.496094 192.605469 214.34375 191.484375 214.183594 Z M 188.105469 211.316406 C 188.167969 211.941406 188.089844 212.597656 187.914062 213.238281 C 187.929688 213.046875 187.929688 212.851562 187.960938 212.660156 C 187.992188 212.277344 188.007812 211.78125 188.105469 211.316406 Z M 182.480469 216.265625 C 182.707031 215.398438 183.378906 215.351562 183.859375 216.089844 C 184.164062 216.554688 184.324219 217.097656 184.4375 217.660156 C 184.324219 217.675781 184.195312 217.691406 184.066406 217.691406 C 183.21875 217.738281 182.226562 217.257812 182.480469 216.265625 Z M 186.132812 223.296875 C 186.375 221.839844 186.46875 220.347656 186.453125 218.90625 C 187 218.554688 187.496094 218.105469 187.894531 217.609375 C 187.976562 217.691406 188.074219 217.753906 188.152344 217.820312 C 187.429688 219.613281 186.757812 221.453125 186.132812 223.296875 Z M 191.277344 216.234375 C 191.117188 216.632812 190.507812 216.855469 190.074219 216.855469 C 190.171875 216.648438 190.265625 216.457031 190.363281 216.265625 C 190.476562 215.992188 190.652344 215.769531 190.90625 215.59375 C 191.402344 215.65625 191.53125 215.863281 191.277344 216.234375 Z M 191.277344 216.234375 " fill-opacity="1" fill-rule="nonzero"/><path fill="#14b497" d="M 190.234375 235.886719 C 189.386719 235.535156 188.394531 235.566406 187.480469 235.519531 C 186.46875 235.46875 185.460938 235.453125 184.453125 235.503906 C 182.660156 235.582031 180.671875 235.613281 178.992188 236.253906 C 178.109375 236.589844 178.605469 237.746094 179.328125 237.855469 C 181.089844 238.113281 182.945312 237.90625 184.742188 238.03125 C 185.605469 238.097656 186.488281 238.160156 187.351562 238.273438 C 188.28125 238.386719 189.160156 238.609375 190.105469 238.480469 C 191.546875 238.289062 191.339844 236.351562 190.234375 235.886719 Z M 190.234375 235.886719 " fill-opacity="1" fill-rule="nonzero"/><path fill="#14b497" d="M 187.800781 239.828125 C 186.628906 239.234375 184.964844 239.472656 183.699219 239.472656 C 182.195312 239.472656 180.71875 239.585938 179.230469 239.792969 C 178.316406 239.921875 178.605469 241.125 179.359375 241.269531 C 180.433594 241.460938 181.488281 241.636719 182.5625 241.796875 C 182.210938 242.390625 182.035156 243.078125 182.144531 243.703125 C 182.578125 246.042969 185.492188 246.972656 187.382812 245.722656 C 189.195312 244.488281 190.15625 240.996094 187.800781 239.828125 Z M 185.171875 243.191406 C 184.613281 243.109375 185.253906 242.644531 185.605469 242.550781 C 185.828125 242.484375 185.988281 242.375 186.117188 242.230469 C 186.167969 242.230469 186.199219 242.214844 186.183594 242.199219 C 186.4375 242.757812 185.574219 243.253906 185.171875 243.191406 Z M 185.171875 243.191406 " fill-opacity="1" fill-rule="nonzero"/><g clip-path="url(#f22f95095d)"><path fill="#14b497" d="M 179.4375 186.457031 C 179.664062 187.65625 181.441406 187.464844 181.519531 186.28125 C 181.695312 183.941406 181.265625 181.472656 181.089844 179.136719 C 180.914062 176.828125 180.816406 174.507812 180.496094 172.214844 C 180.367188 171.304688 178.910156 171.429688 178.894531 172.34375 C 178.828125 174.714844 179.007812 177.101562 179.085938 179.472656 C 179.167969 181.761719 179.023438 184.195312 179.4375 186.457031 Z M 179.4375 186.457031 " fill-opacity="1" fill-rule="nonzero"/></g><path fill="#14b497" d="M 163.484375 195.28125 C 162.429688 194.6875 161.402344 194.0625 160.394531 193.390625 C 158.40625 192.078125 156.515625 190.605469 154.738281 189.019531 C 153.761719 188.136719 152.191406 189.46875 153.167969 190.410156 C 154.980469 192.15625 156.886719 193.777344 158.9375 195.21875 C 159.914062 195.921875 160.921875 196.578125 161.964844 197.203125 C 163.019531 197.84375 164.15625 198.691406 165.40625 198.789062 C 166.351562 198.871094 166.863281 197.667969 166.257812 196.996094 C 165.550781 196.195312 164.414062 195.808594 163.484375 195.28125 Z M 163.484375 195.28125 " fill-opacity="1" fill-rule="nonzero"/><g clip-path="url(#49d82cccda)"><path fill="#14b497" d="M 161.835938 210.996094 C 162.972656 210.675781 162.890625 208.976562 161.660156 208.914062 C 159.304688 208.769531 156.757812 209.488281 154.484375 210.082031 C 153.347656 210.386719 152.242188 210.707031 151.136719 211.089844 C 150.015625 211.476562 148.8125 211.8125 147.851562 212.515625 C 147.066406 213.09375 147.851562 214.117188 148.621094 214.023438 C 149.695312 213.894531 150.734375 213.414062 151.777344 213.09375 C 152.898438 212.757812 154.019531 212.453125 155.15625 212.195312 C 157.335938 211.699219 159.65625 211.601562 161.835938 210.996094 Z M 161.835938 210.996094 " fill-opacity="1" fill-rule="nonzero"/></g><path fill="#14b497" d="M 201.910156 187.578125 C 203.929688 184.019531 206.316406 180.832031 209.390625 178.125 C 210.640625 177.019531 208.910156 175.082031 207.679688 176.1875 C 204.457031 179.101562 201.800781 182.691406 200.199219 186.742188 C 199.8125 187.753906 201.367188 188.523438 201.910156 187.578125 Z M 201.910156 187.578125 " fill-opacity="1" fill-rule="nonzero"/><path fill="#14b497" d="M 226.578125 200.597656 C 224.222656 200.519531 221.820312 201.351562 219.644531 202.152344 C 217.386719 202.984375 215.320312 204.125 213.394531 205.546875 C 212.546875 206.171875 213.507812 207.535156 214.421875 207.054688 C 216.34375 206.011719 218.363281 205.085938 220.445312 204.378906 C 222.527344 203.675781 224.6875 203.449219 226.769531 202.808594 C 227.925781 202.457031 227.910156 200.648438 226.578125 200.597656 Z M 226.578125 200.597656 " fill-opacity="1" fill-rule="nonzero"/><path fill="#14b497" d="M 162.78125 223.375 C 159.992188 226.179688 157.476562 229.222656 155.285156 232.492188 C 154.339844 233.882812 156.597656 235.359375 157.460938 233.933594 C 159.382812 230.695312 161.578125 227.636719 164.0625 224.816406 C 164.863281 223.921875 163.675781 222.480469 162.78125 223.375 Z M 162.78125 223.375 " fill-opacity="1" fill-rule="nonzero"/><path fill="#14b497" d="M 219.933594 231.371094 C 218.234375 230.039062 216.296875 228.964844 214.46875 227.8125 C 212.660156 226.660156 210.832031 225.347656 208.894531 224.402344 C 208.109375 224.015625 206.957031 224.996094 207.773438 225.699219 C 209.40625 227.125 211.296875 228.292969 213.074219 229.527344 C 214.902344 230.792969 216.710938 232.21875 218.648438 233.308594 C 219.964844 234.027344 221.117188 232.28125 219.933594 231.371094 Z M 219.933594 231.371094 " fill-opacity="1" fill-rule="nonzero"/></svg>