<svg xmlns="http://www.w3.org/2000/svg" xmlns:xlink="http://www.w3.org/1999/xlink" width="500" zoomAndPan="magnify" viewBox="0 0 375 374.999991" height="500" preserveAspectRatio="xMidYMid meet" version="1.0"><defs><clipPath id="63f29eb37f"><path d="M 345 274.214844 L 374.933594 274.214844 L 374.933594 304 L 345 304 Z M 345 274.214844 " clip-rule="nonzero"/></clipPath><clipPath id="ad67a34ae6"><path d="M 345.199219 275.871094 L 374.933594 275.871094 L 374.933594 304 L 345.199219 304 Z M 345.199219 275.871094 " clip-rule="nonzero"/></clipPath><clipPath id="a9c77184b6"><path d="M 162 315.605469 L 245 315.605469 L 245 368.859375 L 162 368.859375 Z M 162 315.605469 " clip-rule="nonzero"/></clipPath></defs><path fill="#14b497" d="M 184.203125 32.976562 C 183.964844 32.976562 183.734375 32.988281 183.507812 33.007812 C 185.441406 33.253906 186.933594 34.902344 186.933594 36.902344 C 186.933594 38.902344 185.4375 40.554688 183.5 40.800781 C 183.730469 40.820312 183.960938 40.828125 184.203125 40.828125 C 186.371094 40.828125 188.128906 39.070312 188.128906 36.902344 C 188.128906 34.734375 186.371094 32.976562 184.203125 32.976562 " fill-opacity="1" fill-rule="nonzero"/><path fill="#14b497" d="M 178.859375 34.59375 C 178.859375 34.59375 181.195312 32.855469 183.878906 33.601562 C 183.878906 33.601562 184.824219 34.046875 185.46875 34.992188 C 185.46875 34.992188 182.664062 33.054688 178.859375 34.59375 Z M 178.933594 38.640625 C 178.136719 38.640625 177.496094 37.84375 177.496094 36.855469 C 177.496094 35.863281 178.136719 35.066406 178.933594 35.066406 C 179.730469 35.066406 180.375 35.863281 180.375 36.855469 C 180.375 37.84375 179.730469 38.640625 178.933594 38.640625 Z M 182.515625 32.976562 C 179.480469 32.976562 177.046875 34.734375 177.046875 36.902344 C 177.046875 39.070312 179.382812 40.828125 182.515625 40.828125 C 184.679688 40.828125 186.4375 39.070312 186.4375 36.902344 C 186.4375 34.734375 184.679688 32.976562 182.515625 32.976562 " fill-opacity="1" fill-rule="nonzero"/><path fill="#14b497" d="M 179.238281 36.855469 C 179.238281 37.4375 178.90625 37.914062 178.503906 37.914062 C 178.097656 37.914062 177.765625 37.4375 177.765625 36.855469 C 177.765625 36.269531 178.097656 35.792969 178.503906 35.792969 C 178.90625 35.792969 179.238281 36.269531 179.238281 36.855469 " fill-opacity="1" fill-rule="nonzero"/><path fill="#14b497" d="M 193.726562 31.480469 C 193.722656 31.484375 193.679688 31.535156 193.597656 31.636719 C 193.308594 31.984375 192.523438 32.871094 191.492188 33.660156 C 190.460938 34.453125 189.1875 35.128906 187.957031 35.121094 C 187.808594 35.121094 187.660156 35.109375 187.511719 35.089844 C 187.367188 34.902344 187.066406 34.527344 186.71875 34.136719 C 186.476562 33.863281 186.207031 33.585938 185.945312 33.363281 C 185.867188 33.296875 185.789062 33.234375 185.714844 33.179688 L 213.210938 7.0625 Z M 214.027344 6.226562 C 213.914062 6.074219 213.714844 6 213.578125 6.003906 C 213.386719 6.011719 213.269531 6.074219 213.175781 6.121094 C 213.085938 6.167969 213.027344 6.214844 213.015625 6.226562 L 213 6.234375 L 184.535156 33.269531 L 184.847656 33.386719 L 184.992188 33.464844 L 185.105469 33.542969 C 185.105469 33.542969 185.144531 33.558594 185.226562 33.609375 L 185.257812 33.644531 C 185.554688 33.816406 185.960938 34.28125 186.339844 34.722656 L 186.386719 34.796875 C 186.582031 35.019531 186.695312 35.257812 186.816406 35.410156 C 186.9375 35.566406 187.007812 35.660156 187.007812 35.660156 L 187.097656 35.777344 L 187.242188 35.804688 C 187.480469 35.847656 187.71875 35.867188 187.957031 35.867188 C 189.671875 35.859375 191.242188 34.855469 192.398438 33.886719 C 193.554688 32.914062 194.300781 31.953125 194.308594 31.9375 L 214.121094 7.121094 L 214.136719 7.019531 C 214.152344 6.910156 214.160156 6.808594 214.160156 6.714844 C 214.160156 6.542969 214.132812 6.378906 214.027344 6.226562 " fill-opacity="1" fill-rule="nonzero"/><path fill="#14b497" d="M 186.488281 34.019531 L 213.765625 6.59375 L 194.460938 31.1875 C 194.460938 31.1875 190.886719 35.957031 187.308594 35.4375 L 186.488281 34.019531 " fill-opacity="1" fill-rule="nonzero"/><path fill="#14b497" d="M 141.164062 23.351562 L 141.109375 23.167969 C 141.105469 23.148438 141.074219 23.039062 141.070312 22.882812 C 141.074219 22.765625 141.085938 22.601562 141.199219 22.4375 C 141.316406 22.269531 141.550781 22.164062 141.765625 22.167969 C 141.851562 22.171875 141.871094 22.179688 141.953125 22.191406 C 142.027344 22.203125 142.132812 22.222656 142.257812 22.242188 C 142.511719 22.285156 142.871094 22.347656 143.320312 22.429688 C 144.214844 22.589844 145.46875 22.820312 146.960938 23.097656 C 149.945312 23.648438 153.882812 24.386719 157.804688 25.121094 C 165.648438 26.59375 173.441406 28.066406 173.441406 28.066406 C 173.566406 28.085938 174.644531 28.28125 175.972656 29.007812 C 177.367188 29.773438 179.039062 31.136719 180.117188 33.496094 L 179.441406 33.804688 C 177.566406 29.707031 173.78125 28.890625 173.347656 28.804688 C 173.320312 28.800781 173.3125 28.800781 173.3125 28.800781 L 173.308594 28.800781 L 173.300781 28.796875 C 173.296875 28.796875 171.832031 28.519531 169.53125 28.085938 C 167.226562 27.652344 164.089844 27.058594 160.746094 26.433594 C 154.066406 25.175781 146.574219 23.773438 143.339844 23.1875 C 143.050781 23.136719 142.792969 23.089844 142.578125 23.050781 L 177.589844 35.160156 L 177.59375 35.160156 L 177.347656 35.863281 L 141.164062 23.351562 " fill-opacity="1" fill-rule="nonzero"/><path fill="#14b497" d="M 178.515625 34.542969 L 141.988281 22.769531 L 173.441406 28.429688 C 173.441406 28.429688 178.960938 29.921875 179.703125 33.871094 L 178.515625 34.542969 " fill-opacity="1" fill-rule="nonzero"/><path fill="#14b497" d="M 178.445312 79.605469 C 178.136719 79.59375 177.929688 79.410156 177.695312 79.121094 C 177.636719 79.039062 177.628906 78.996094 177.613281 78.949219 C 177.59375 78.902344 177.585938 78.859375 177.574219 78.808594 C 177.558594 78.714844 177.542969 78.597656 177.527344 78.457031 C 177.5 78.175781 177.46875 77.796875 177.441406 77.328125 C 177.390625 76.390625 177.347656 75.097656 177.304688 73.5625 C 177.222656 70.496094 177.164062 66.472656 177.125 62.472656 C 177.042969 54.667969 177.023438 46.949219 177.023438 46.558594 C 177.019531 46.527344 177.015625 46.433594 177.015625 46.285156 C 177.015625 45.769531 177.070312 44.613281 177.519531 43.324219 C 177.964844 42.039062 178.816406 40.605469 180.398438 39.597656 L 180.800781 40.222656 C 179.390625 41.125 178.632812 42.394531 178.222656 43.570312 C 177.816406 44.746094 177.761719 45.824219 177.761719 46.285156 C 177.761719 46.441406 177.765625 46.515625 177.765625 46.519531 L 177.765625 46.542969 C 177.765625 46.546875 177.769531 48.226562 177.78125 50.828125 C 177.796875 53.433594 177.820312 56.949219 177.851562 60.613281 C 177.917969 67.9375 178.042969 75.871094 178.25 78.175781 C 178.269531 78.433594 178.300781 78.628906 178.316406 78.699219 C 178.320312 78.703125 178.324219 78.710938 178.324219 78.714844 L 182.984375 39.863281 L 182.988281 39.863281 L 183.726562 39.953125 L 179.027344 79.113281 L 179.019531 79.144531 C 179.011719 79.167969 178.992188 79.246094 178.917969 79.351562 C 178.851562 79.449219 178.6875 79.605469 178.445312 79.605469 " fill-opacity="1" fill-rule="nonzero"/><path fill="#14b497" d="M 181.792969 40.28125 L 178.136719 79.113281 L 177.617188 75.015625 L 177.246094 46.09375 C 177.246094 46.09375 177.542969 41.25 180.523438 39.984375 L 181.792969 40.28125 " fill-opacity="1" fill-rule="nonzero"/><path fill="#14b497" d="M 201.792969 33.574219 L 193.199219 33.574219 C 193.199219 33.574219 192.960938 33.855469 192.535156 34.238281 L 201.363281 34.238281 C 201.363281 34.238281 202.554688 34.238281 203.003906 34.785156 L 191.855469 34.785156 C 191.550781 35.007812 191.199219 35.238281 190.804688 35.445312 L 203.046875 35.464844 C 203.046875 35.464844 202.953125 36.300781 202.601562 36.6875 L 188.480469 36.6875 C 188.523438 37.632812 188.316406 39.746094 185.742188 40.726562 L 188.261719 40.726562 L 188.261719 40.699219 C 188.261719 40.613281 188.296875 40.535156 188.335938 40.492188 C 188.375 40.441406 188.410156 40.417969 188.441406 40.394531 C 188.507812 40.355469 188.570312 40.332031 188.636719 40.3125 C 188.773438 40.273438 188.9375 40.238281 189.140625 40.214844 C 189.539062 40.160156 190.078125 40.132812 190.671875 40.132812 C 191.507812 40.132812 192.222656 40.1875 192.628906 40.289062 C 192.769531 40.335938 192.863281 40.335938 193.011719 40.492188 C 193.046875 40.535156 193.082031 40.609375 193.085938 40.695312 L 193.085938 40.726562 L 199.007812 40.726562 C 199.007812 40.726562 201.691406 40.480469 203.332031 36.953125 C 204.972656 33.425781 201.792969 33.574219 201.792969 33.574219 " fill-opacity="1" fill-rule="nonzero"/><path fill="#14b497" d="M 189.21875 41.089844 L 189.746094 41.050781 L 188.828125 150.953125 L 193.855469 151.050781 L 192.785156 40.703125 C 192.785156 40.554688 191.839844 40.429688 190.671875 40.429688 C 189.503906 40.429688 188.5625 40.554688 188.5625 40.703125 L 186.667969 150.910156 L 187.617188 150.925781 L 189.21875 41.089844 " fill-opacity="1" fill-rule="nonzero"/><path fill="#14b497" d="M 38.125 310.402344 C 38.242188 310.605469 38.367188 310.800781 38.5 310.988281 C 37.742188 309.191406 38.425781 307.070312 40.15625 306.070312 C 41.890625 305.074219 44.066406 305.542969 45.25 307.101562 C 45.148438 306.894531 45.042969 306.683594 44.921875 306.476562 C 43.839844 304.601562 41.4375 303.957031 39.558594 305.039062 C 37.683594 306.125 37.039062 308.523438 38.125 310.402344 " fill-opacity="1" fill-rule="nonzero"/><path fill="#14b497" d="M 42.191406 314.21875 C 42.191406 314.21875 39.519531 313.070312 38.824219 310.371094 C 38.824219 310.371094 38.738281 309.332031 39.234375 308.300781 C 39.234375 308.300781 38.960938 311.699219 42.191406 314.21875 Z M 45.664062 312.132812 C 46.058594 312.820312 45.691406 313.78125 44.835938 314.273438 C 43.976562 314.765625 42.960938 314.609375 42.566406 313.917969 C 42.167969 313.230469 42.539062 312.269531 43.390625 311.777344 C 44.25 311.285156 45.265625 311.441406 45.664062 312.132812 Z M 38.96875 311.867188 C 40.484375 314.488281 43.222656 315.71875 45.101562 314.632812 C 46.976562 313.550781 47.335938 310.648438 45.765625 307.941406 C 44.683594 306.0625 42.285156 305.417969 40.40625 306.5 C 38.527344 307.589844 37.886719 309.988281 38.96875 311.867188 " fill-opacity="1" fill-rule="nonzero"/><path fill="#14b497" d="M 43.960938 312.761719 C 44.46875 312.46875 45.042969 312.515625 45.25 312.867188 C 45.453125 313.222656 45.207031 313.742188 44.699219 314.035156 C 44.191406 314.332031 43.613281 314.28125 43.410156 313.929688 C 43.207031 313.578125 43.453125 313.054688 43.960938 312.761719 " fill-opacity="1" fill-rule="nonzero"/><path fill="#14b497" d="M 32.066406 302.90625 C 32.066406 302.90625 32.136719 302.914062 32.261719 302.9375 C 32.710938 303.015625 33.871094 303.25 35.070312 303.75 C 36.269531 304.246094 37.492188 305.011719 38.101562 306.078125 C 38.175781 306.207031 38.246094 306.339844 38.300781 306.480469 C 38.207031 306.695312 38.03125 307.148438 37.871094 307.644531 C 37.753906 307.992188 37.644531 308.359375 37.585938 308.699219 C 37.570312 308.800781 37.550781 308.898438 37.542969 308.992188 L 1.175781 298.238281 Z M 0.046875 297.953125 C -0.0351562 298.125 0.00390625 298.332031 0.078125 298.445312 C 0.175781 298.613281 0.292969 298.683594 0.378906 298.738281 C 0.464844 298.792969 0.535156 298.820312 0.546875 298.824219 L 0.5625 298.832031 L 38.210938 309.96875 L 38.15625 309.636719 L 38.152344 309.472656 L 38.160156 309.335938 C 38.160156 309.335938 38.15625 309.292969 38.15625 309.203125 L 38.171875 309.148438 C 38.171875 308.808594 38.371094 308.226562 38.566406 307.679688 L 38.605469 307.597656 C 38.703125 307.320312 38.851562 307.101562 38.921875 306.921875 C 38.996094 306.738281 39.042969 306.628906 39.042969 306.628906 L 39.101562 306.496094 L 39.054688 306.355469 C 38.96875 306.128906 38.867188 305.910156 38.75 305.707031 C 37.886719 304.222656 36.230469 303.367188 34.8125 302.851562 C 33.394531 302.335938 32.1875 302.171875 32.171875 302.167969 L 0.769531 297.421875 L 0.679688 297.457031 C 0.574219 297.5 0.480469 297.542969 0.402344 297.585938 C 0.253906 297.675781 0.121094 297.78125 0.046875 297.953125 " fill-opacity="1" fill-rule="nonzero"/><path fill="#14b497" d="M 37.886719 307.902344 L 0.492188 297.992188 L 31.445312 302.410156 C 31.445312 302.410156 37.363281 303.121094 38.699219 306.480469 L 37.886719 307.902344 " fill-opacity="1" fill-rule="nonzero"/><path fill="#14b497" d="M 51.308594 352.488281 L 51.171875 352.625 C 51.160156 352.640625 51.082031 352.722656 50.941406 352.804688 C 50.84375 352.859375 50.695312 352.925781 50.496094 352.910156 C 50.292969 352.898438 50.082031 352.746094 49.984375 352.554688 C 49.945312 352.484375 49.9375 352.460938 49.90625 352.382812 C 49.878906 352.3125 49.84375 352.214844 49.796875 352.09375 C 49.707031 351.851562 49.585938 351.511719 49.429688 351.082031 C 49.121094 350.222656 48.691406 349.023438 48.1875 347.59375 C 47.171875 344.734375 45.84375 340.957031 44.519531 337.191406 C 41.871094 329.660156 39.25 322.179688 39.25 322.179688 C 39.203125 322.058594 38.835938 321.027344 38.800781 319.515625 C 38.765625 317.925781 39.109375 315.796875 40.613281 313.679688 L 41.21875 314.109375 C 38.609375 317.785156 39.789062 321.46875 39.9375 321.886719 C 39.945312 321.914062 39.949219 321.921875 39.949219 321.921875 L 39.953125 321.925781 L 39.953125 321.933594 C 39.953125 321.9375 40.445312 323.34375 41.222656 325.554688 C 42 327.765625 43.054688 330.78125 44.179688 333.984375 C 46.433594 340.398438 48.96875 347.589844 50.078125 350.6875 C 50.175781 350.957031 50.265625 351.203125 50.339844 351.414062 L 43.316406 315.039062 L 43.316406 315.035156 L 44.050781 314.894531 L 51.308594 352.488281 " fill-opacity="1" fill-rule="nonzero"/><path fill="#14b497" d="M 42.324219 314.546875 L 50.386719 352.0625 L 39.5625 321.992188 C 39.5625 321.992188 38.097656 316.472656 41.148438 313.847656 L 42.324219 314.546875 " fill-opacity="1" fill-rule="nonzero"/><path fill="#14b497" d="M 81.382812 292.074219 C 81.527344 292.347656 81.472656 292.621094 81.335938 292.964844 C 81.296875 293.054688 81.261719 293.089844 81.230469 293.125 C 81.199219 293.160156 81.164062 293.191406 81.128906 293.222656 C 81.054688 293.285156 80.960938 293.359375 80.847656 293.445312 C 80.621094 293.609375 80.304688 293.824219 79.914062 294.082031 C 79.128906 294.59375 78.027344 295.28125 76.722656 296.082031 C 74.101562 297.6875 70.648438 299.75 67.203125 301.785156 C 60.488281 305.757812 53.8125 309.632812 53.476562 309.828125 C 53.453125 309.84375 53.371094 309.898438 53.242188 309.972656 C 52.796875 310.230469 51.765625 310.761719 50.425781 311.015625 C 49.085938 311.273438 47.421875 311.25 45.757812 310.386719 L 46.097656 309.726562 C 47.585938 310.496094 49.0625 310.519531 50.285156 310.285156 C 51.507812 310.050781 52.46875 309.558594 52.867188 309.328125 C 53.003906 309.25 53.066406 309.203125 53.066406 309.203125 L 53.085938 309.191406 C 53.09375 309.1875 54.546875 308.347656 56.792969 307.035156 C 59.039062 305.722656 62.078125 303.945312 65.234375 302.085938 C 71.542969 298.363281 78.351562 294.292969 80.242188 292.960938 C 80.457031 292.808594 80.613281 292.6875 80.664062 292.640625 C 80.667969 292.632812 80.667969 292.628906 80.667969 292.621094 L 44.695312 308.011719 L 44.695312 308.007812 L 44.402344 307.324219 L 80.667969 291.8125 L 80.695312 291.808594 C 80.71875 291.800781 80.800781 291.78125 80.925781 291.792969 C 81.046875 291.796875 81.261719 291.863281 81.382812 292.074219 " fill-opacity="1" fill-rule="nonzero"/><path fill="#14b497" d="M 45.65625 308.835938 L 81.109375 292.582031 L 77.820312 295.085938 L 52.960938 309.867188 C 52.960938 309.867188 48.617188 312.03125 46.03125 310.085938 L 45.65625 308.835938 " fill-opacity="1" fill-rule="nonzero"/><path fill="#14b497" d="M 29.847656 294.871094 L 34.144531 302.3125 C 34.144531 302.3125 34.507812 302.375 35.050781 302.554688 L 30.636719 294.910156 C 30.636719 294.910156 30.039062 293.878906 30.289062 293.214844 L 35.859375 302.867188 C 36.207031 303.023438 36.582031 303.214844 36.957031 303.449219 L 30.851562 292.839844 C 30.851562 292.839844 31.625 292.503906 32.136719 292.617188 L 39.195312 304.84375 C 39.992188 304.328125 41.925781 303.453125 44.066406 305.191406 L 42.808594 303.011719 L 42.777344 303.027344 C 42.703125 303.070312 42.621094 303.074219 42.566406 303.066406 C 42.503906 303.058594 42.464844 303.039062 42.429688 303.023438 C 42.359375 302.984375 42.308594 302.941406 42.257812 302.894531 C 42.152344 302.796875 42.042969 302.667969 41.921875 302.507812 C 41.675781 302.1875 41.382812 301.734375 41.082031 301.222656 C 40.667969 300.492188 40.359375 299.851562 40.242188 299.449219 C 40.214844 299.308594 40.164062 299.21875 40.226562 299.019531 C 40.246094 298.964844 40.292969 298.894531 40.367188 298.851562 L 40.367188 298.855469 L 40.394531 298.835938 L 37.433594 293.703125 C 37.433594 293.703125 35.878906 291.503906 32 291.847656 C 28.125 292.191406 29.847656 294.871094 29.847656 294.871094 " fill-opacity="1" fill-rule="nonzero"/><path fill="#14b497" d="M 42.640625 302 L 42.347656 301.566406 L 137.980469 247.40625 L 135.550781 243.007812 L 40.523438 299.105469 C 40.390625 299.179688 40.757812 300.0625 41.34375 301.070312 C 41.925781 302.085938 42.503906 302.839844 42.636719 302.765625 L 139.019531 249.296875 L 138.566406 248.46875 L 42.640625 302 " fill-opacity="1" fill-rule="nonzero"/><path fill="#14b497" d="M 344.25 307.359375 C 344.367188 307.15625 344.472656 306.949219 344.566406 306.742188 C 343.390625 308.292969 341.214844 308.761719 339.484375 307.761719 C 337.75 306.761719 337.070312 304.640625 337.828125 302.839844 C 337.695312 303.03125 337.570312 303.230469 337.449219 303.4375 C 336.367188 305.3125 337.011719 307.714844 338.886719 308.796875 C 340.765625 309.878906 343.164062 309.238281 344.25 307.359375 " fill-opacity="1" fill-rule="nonzero"/><path fill="#14b497" d="M 345.523438 301.925781 C 345.523438 301.925781 345.863281 304.820312 343.871094 306.769531 C 343.871094 306.769531 343.011719 307.363281 341.875 307.453125 C 341.875 307.453125 344.957031 305.992188 345.523438 301.925781 Z M 341.976562 299.964844 C 342.375 299.277344 343.390625 299.117188 344.246094 299.613281 C 345.101562 300.105469 345.472656 301.066406 345.074219 301.753906 C 344.679688 302.441406 343.664062 302.601562 342.804688 302.105469 C 341.953125 301.617188 341.582031 300.65625 341.976562 299.964844 Z M 345.09375 305.898438 C 346.609375 303.269531 346.304688 300.285156 344.429688 299.199219 C 342.550781 298.117188 339.859375 299.261719 338.292969 301.972656 C 337.210938 303.851562 337.855469 306.25 339.730469 307.332031 C 341.609375 308.414062 344.011719 307.777344 345.09375 305.898438 " fill-opacity="1" fill-rule="nonzero"/><path fill="#14b497" d="M 343.375 301.125 C 342.867188 300.828125 342.617188 300.308594 342.820312 299.957031 C 343.027344 299.605469 343.601562 299.554688 344.113281 299.851562 C 344.621094 300.140625 344.867188 300.664062 344.660156 301.015625 C 344.457031 301.371094 343.882812 301.417969 343.375 301.125 " fill-opacity="1" fill-rule="nonzero"/><path fill="#14b497" d="M 340.789062 316.355469 C 340.785156 316.351562 340.761719 316.289062 340.71875 316.171875 C 340.558594 315.742188 340.183594 314.621094 340.015625 313.335938 C 339.84375 312.042969 339.894531 310.601562 340.515625 309.542969 C 340.589844 309.410156 340.671875 309.285156 340.761719 309.167969 C 341 309.136719 341.476562 309.070312 341.988281 308.960938 C 342.347656 308.882812 342.722656 308.792969 343.046875 308.679688 C 343.140625 308.640625 343.234375 308.605469 343.320312 308.566406 L 352.1875 345.441406 Z M 352.507812 346.5625 C 352.695312 346.546875 352.859375 346.40625 352.921875 346.289062 C 353.011719 346.121094 353.019531 345.984375 353.019531 345.882812 C 353.023438 345.773438 353.015625 345.703125 353.011719 345.691406 L 353.011719 345.675781 L 343.832031 307.5 L 343.570312 307.714844 L 343.433594 307.800781 L 343.308594 307.859375 C 343.308594 307.863281 343.273438 307.886719 343.191406 307.929688 L 343.140625 307.941406 C 342.84375 308.113281 342.242188 308.230469 341.671875 308.339844 L 341.582031 308.34375 C 341.292969 308.398438 341.027344 308.378906 340.832031 308.40625 C 340.640625 308.433594 340.523438 308.453125 340.523438 308.453125 L 340.378906 308.46875 L 340.285156 308.582031 C 340.125 308.765625 339.988281 308.960938 339.871094 309.167969 C 339.019531 310.65625 339.101562 312.515625 339.363281 314.003906 C 339.628906 315.492188 340.089844 316.621094 340.097656 316.632812 L 351.683594 346.199219 L 351.761719 346.261719 C 351.851562 346.332031 351.929688 346.386719 352.011719 346.433594 C 352.167969 346.519531 352.320312 346.578125 352.507812 346.5625 " fill-opacity="1" fill-rule="nonzero"/><path fill="#14b497" d="M 342.203125 308.816406 L 352.320312 346.15625 L 340.667969 317.140625 C 340.667969 317.140625 338.328125 311.65625 340.566406 308.820312 L 342.203125 308.816406 " fill-opacity="1" fill-rule="nonzero"/><g clip-path="url(#63f29eb37f)"><path fill="#14b497" d="M 374.105469 274.898438 L 374.292969 274.949219 C 374.3125 274.953125 374.421875 274.980469 374.558594 275.058594 C 374.660156 275.117188 374.789062 275.207031 374.878906 275.390625 C 374.96875 275.574219 374.941406 275.832031 374.828125 276.015625 C 374.785156 276.085938 374.765625 276.097656 374.714844 276.167969 C 374.667969 276.226562 374.601562 276.300781 374.519531 276.402344 C 374.351562 276.601562 374.121094 276.882812 373.824219 277.230469 C 373.242188 277.925781 372.414062 278.894531 371.425781 280.050781 C 369.457031 282.359375 366.851562 285.398438 364.25 288.429688 C 359.054688 294.484375 353.886719 300.492188 353.886719 300.492188 C 353.804688 300.59375 353.09375 301.429688 351.800781 302.21875 C 350.445312 303.042969 348.429688 303.808594 345.84375 303.566406 L 345.917969 302.824219 C 350.398438 303.25 353 300.382812 353.289062 300.046875 C 353.308594 300.027344 353.3125 300.019531 353.3125 300.019531 L 353.320312 300.007812 C 353.324219 300.003906 354.292969 298.875 355.820312 297.101562 C 357.351562 295.324219 359.429688 292.902344 361.644531 290.320312 C 366.070312 285.164062 371.03125 279.378906 373.160156 276.863281 C 373.347656 276.640625 373.511719 276.445312 373.65625 276.273438 L 345.667969 300.546875 L 345.664062 300.546875 L 345.175781 299.980469 L 374.105469 274.898438 " fill-opacity="1" fill-rule="nonzero"/></g><g clip-path="url(#ad67a34ae6)"><path fill="#14b497" d="M 345.738281 301.652344 L 374.199219 275.910156 L 353.566406 300.316406 C 353.566406 300.316406 349.519531 304.347656 345.722656 303.019531 L 345.738281 301.652344 " fill-opacity="1" fill-rule="nonzero"/></g><path fill="#14b497" d="M 306.746094 279.0625 C 306.914062 278.800781 307.175781 278.710938 307.542969 278.652344 C 307.640625 278.644531 307.683594 278.65625 307.734375 278.667969 C 307.78125 278.679688 307.824219 278.6875 307.871094 278.707031 C 307.964844 278.742188 308.070312 278.78125 308.199219 278.839844 C 308.457031 278.953125 308.800781 279.117188 309.222656 279.332031 C 310.058594 279.753906 311.199219 280.363281 312.550781 281.09375 C 315.25 282.558594 318.761719 284.519531 322.25 286.484375 C 329.042969 290.3125 335.738281 294.160156 336.078125 294.347656 C 336.105469 294.367188 336.191406 294.40625 336.320312 294.480469 C 336.765625 294.742188 337.734375 295.363281 338.632812 296.398438 C 339.519531 297.429688 340.339844 298.882812 340.417969 300.757812 L 339.675781 300.789062 C 339.601562 299.117188 338.878906 297.828125 338.066406 296.886719 C 337.253906 295.945312 336.34375 295.359375 335.945312 295.128906 C 335.8125 295.050781 335.742188 295.015625 335.742188 295.015625 L 335.730469 295.007812 L 335.722656 295.007812 C 335.71875 295.003906 334.257812 294.164062 332 292.875 C 329.738281 291.585938 326.683594 289.84375 323.492188 288.039062 C 317.113281 284.4375 310.183594 280.578125 308.082031 279.605469 C 307.851562 279.492188 307.664062 279.421875 307.59375 279.398438 C 307.589844 279.402344 307.585938 279.402344 307.582031 279.402344 L 338.894531 302.863281 L 338.445312 303.457031 L 306.878906 279.8125 L 306.859375 279.789062 C 306.84375 279.773438 306.785156 279.714844 306.730469 279.597656 C 306.675781 279.492188 306.625 279.269531 306.746094 279.0625 " fill-opacity="1" fill-rule="nonzero"/><path fill="#14b497" d="M 339.128906 301.621094 L 307.324219 279.042969 L 311.136719 280.640625 L 336.367188 294.777344 C 336.367188 294.777344 340.414062 297.457031 340.023438 300.675781 L 339.128906 301.621094 " fill-opacity="1" fill-rule="nonzero"/><path fill="#14b497" d="M 334.9375 322.292969 L 339.234375 314.851562 C 339.234375 314.851562 339.109375 314.507812 338.992188 313.945312 L 334.574219 321.59375 C 334.574219 321.59375 333.980469 322.625 333.28125 322.738281 L 338.859375 313.085938 C 338.816406 312.710938 338.796875 312.289062 338.8125 311.847656 L 332.675781 322.4375 C 332.675781 322.4375 331.996094 321.9375 331.839844 321.4375 L 338.898438 309.207031 C 338.054688 308.777344 336.332031 307.542969 336.765625 304.820312 L 335.507812 307 L 335.535156 307.015625 C 335.609375 307.0625 335.65625 307.128906 335.675781 307.183594 C 335.699219 307.238281 335.703125 307.285156 335.703125 307.324219 C 335.707031 307.402344 335.695312 307.464844 335.683594 307.53125 C 335.648438 307.671875 335.589844 307.832031 335.515625 308.019531 C 335.359375 308.390625 335.117188 308.871094 334.820312 309.386719 C 334.398438 310.109375 333.992188 310.703125 333.707031 311 C 333.597656 311.101562 333.542969 311.183594 333.339844 311.230469 C 333.28125 311.238281 333.203125 311.234375 333.128906 311.195312 L 333.09375 311.175781 L 330.132812 316.308594 C 330.132812 316.308594 329.007812 318.757812 331.242188 321.9375 C 333.476562 325.125 334.9375 322.292969 334.9375 322.292969 " fill-opacity="1" fill-rule="nonzero"/><path fill="#14b497" d="M 334.714844 307.648438 L 334.484375 308.121094 L 239.769531 252.378906 L 237.167969 256.679688 L 333.265625 310.933594 C 333.398438 311.007812 333.976562 310.25 334.5625 309.238281 C 335.144531 308.226562 335.511719 307.34375 335.382812 307.269531 L 240.882812 250.53125 L 240.394531 251.339844 L 334.714844 307.648438 " fill-opacity="1" fill-rule="nonzero"/><path fill="#14b497" d="M 73.039062 231.664062 C 73.039062 231.664062 75.167969 225.105469 70.105469 223.117188 C 70.105469 223.117188 65.589844 214.5625 60.613281 223.191406 C 60.613281 223.191406 55.898438 220.675781 56.027344 226.648438 C 56.027344 226.648438 51.171875 225.632812 52.292969 230.945312 C 52.292969 230.945312 43.855469 230.117188 47.765625 238.460938 C 47.765625 238.460938 43.574219 240.589844 45.101562 245.699219 C 46.628906 250.808594 50.054688 252.011719 50.054688 252.011719 C 50.054688 252.011719 47.800781 254.746094 50.253906 258.875 C 52.707031 262.996094 56.574219 260.9375 56.574219 260.9375 C 56.574219 260.9375 59.351562 267.136719 66.148438 262.878906 C 66.148438 262.878906 67.167969 266.625 70.773438 267.109375 C 74.386719 267.59375 78.429688 263.683594 75.894531 255.960938 C 75.894531 255.960938 77.71875 249.578125 73.230469 248.148438 C 73.230469 248.148438 74.117188 243.773438 71.667969 239.648438 C 71.667969 239.648438 76.472656 236.148438 73.039062 231.664062 " fill-opacity="1" fill-rule="nonzero"/><path fill="#14b497" d="M 73.449219 234.6875 C 73.449219 234.6875 76.015625 239.355469 81.367188 238.960938 C 86.71875 238.570312 94.433594 235.980469 94.433594 235.980469 L 95.785156 241.582031 C 95.785156 241.582031 84.21875 240.679688 80.359375 245.457031 C 76.5 250.230469 74.855469 252.101562 74.855469 252.101562 L 73.367188 250.949219 C 73.367188 250.949219 78.46875 247.492188 77.734375 244.539062 C 76.996094 241.578125 71.277344 243.976562 71.277344 243.976562 L 70.414062 241.496094 C 70.414062 241.496094 76.898438 241.65625 76.359375 239.90625 C 75.820312 238.152344 71.542969 237.183594 71.542969 237.183594 L 73.449219 234.6875 " fill-opacity="1" fill-rule="nonzero"/><path fill="#14b497" d="M 258.519531 313.472656 C 258.519531 313.472656 251.777344 314.910156 252.582031 320.285156 C 252.582031 320.285156 247.4375 328.476562 257.394531 328.46875 C 257.394531 328.46875 257.578125 333.808594 262.6875 330.714844 C 262.6875 330.714844 264.230469 335.421875 268.269531 331.800781 C 268.269531 331.800781 271.773438 339.519531 277.046875 331.964844 C 277.046875 331.964844 280.984375 334.527344 284.644531 330.652344 C 288.304688 326.769531 287.636719 323.207031 287.636719 323.207031 C 287.636719 323.207031 291.132812 323.785156 293.476562 319.601562 C 295.820312 315.414062 292.105469 313.09375 292.105469 313.09375 C 292.105469 313.09375 296.089844 307.589844 289 303.832031 C 289 303.832031 291.738281 301.078125 290.347656 297.710938 C 288.964844 294.339844 283.558594 292.792969 278.132812 298.851562 C 278.132812 298.851562 271.695312 300.460938 272.699219 305.066406 C 272.699219 305.066406 268.46875 306.480469 266.121094 310.667969 C 266.121094 310.667969 260.6875 308.257812 258.519531 313.472656 " fill-opacity="1" fill-rule="nonzero"/><path fill="#14b497" d="M 260.9375 311.605469 C 260.9375 311.605469 263.691406 307.046875 260.675781 302.613281 C 257.664062 298.175781 251.566406 292.785156 251.566406 292.785156 L 255.738281 288.816406 C 255.738281 288.816406 260.742188 299.28125 266.804688 300.238281 C 272.871094 301.195312 275.3125 301.679688 275.3125 301.679688 L 275.058594 303.546875 C 275.058594 303.546875 269.519531 300.855469 267.324219 302.96875 C 265.128906 305.089844 270.066406 308.84375 270.066406 308.84375 L 268.347656 310.828125 C 268.347656 310.828125 265.246094 305.132812 264 306.476562 C 262.75 307.820312 264.050781 312.007812 264.050781 312.007812 L 260.9375 311.605469 " fill-opacity="1" fill-rule="nonzero"/><path fill="#14b497" d="M 233.972656 110.714844 C 233.972656 110.714844 238.589844 115.835938 242.84375 112.449219 C 242.84375 112.449219 252.507812 112.8125 247.523438 104.191406 C 247.523438 104.191406 252.058594 101.367188 246.824219 98.488281 C 246.824219 98.488281 250.128906 94.792969 244.972656 93.105469 C 244.972656 93.105469 249.902344 86.214844 240.726562 85.425781 C 240.726562 85.425781 240.976562 80.734375 235.789062 79.503906 C 230.597656 78.269531 227.847656 80.632812 227.847656 80.632812 C 227.847656 80.632812 226.601562 77.3125 221.800781 77.378906 C 217.007812 77.441406 216.855469 81.816406 216.855469 81.816406 C 216.855469 81.816406 210.09375 81.121094 210.382812 89.140625 C 210.382812 89.140625 206.632812 88.144531 204.410156 91.03125 C 202.183594 93.914062 203.546875 99.371094 211.507812 101.039062 C 211.507812 101.039062 216.121094 105.8125 219.605469 102.640625 C 219.605469 102.640625 222.945312 105.597656 227.746094 105.535156 C 227.746094 105.535156 228.375 111.449219 233.972656 110.714844 " fill-opacity="1" fill-rule="nonzero"/><path fill="#14b497" d="M 231.148438 109.558594 C 231.148438 109.558594 225.824219 109.449219 223.488281 114.277344 C 221.152344 119.105469 219.535156 127.082031 219.535156 127.082031 L 214.011719 125.453125 C 214.011719 125.453125 220.574219 115.886719 218.367188 110.15625 C 216.167969 104.425781 215.363281 102.070312 215.363281 102.070312 L 217.109375 101.359375 C 217.109375 101.359375 217.546875 107.5 220.476562 108.34375 C 223.40625 109.183594 224.191406 103.035156 224.191406 103.035156 L 226.769531 103.523438 C 226.769531 103.523438 223.386719 109.0625 225.175781 109.46875 C 226.964844 109.878906 229.941406 106.660156 229.941406 106.660156 L 231.148438 109.558594 " fill-opacity="1" fill-rule="nonzero"/><path fill="#14b497" d="M 80.234375 118.476562 L 85.03125 122.375 C 85.445312 122.058594 85.785156 121.636719 86.007812 121.128906 C 86.71875 119.519531 85.984375 117.644531 84.375 116.9375 C 82.800781 116.25 80.96875 116.9375 80.234375 118.476562 " fill-opacity="1" fill-rule="nonzero"/><path fill="#14b497" d="M 84.441406 121.253906 L 84.644531 119.21875 L 151.648438 125.5 L 151.441406 127.535156 L 84.441406 121.253906 " fill-opacity="1" fill-rule="nonzero"/><path fill="#14b497" d="M 64.875 181.132812 L 65.082031 179.097656 L 105.273438 183.183594 L 105.066406 185.21875 L 64.875 181.132812 " fill-opacity="1" fill-rule="nonzero"/><path fill="#14b497" d="M 115.222656 161.59375 L 104.894531 152.820312 L 106.210938 151.257812 L 116.539062 160.035156 L 115.957031 160.523438 L 115.222656 161.59375 " fill-opacity="1" fill-rule="nonzero"/><path fill="#14b497" d="M 91.457031 216.273438 L 81.121094 204.589844 L 82.652344 203.230469 L 92.988281 214.914062 L 91.894531 215.90625 L 91.457031 216.273438 " fill-opacity="1" fill-rule="nonzero"/><path fill="#ffffff" d="M 73.867188 116.296875 L 54.027344 180.769531 L 78.199219 211.339844 L 108.980469 143.976562 L 73.867188 116.296875 " fill-opacity="1" fill-rule="nonzero"/><path fill="#14b497" d="M 93.136719 147.703125 L 86.105469 141.578125 L 83.480469 148.523438 L 90.398438 154.582031 Z M 75.339844 142.980469 L 69.53125 137.898438 L 67.523438 144.074219 L 73.0625 149.273438 Z M 91.351562 155.414062 L 97.875 161.128906 L 100.742188 154.335938 L 94.085938 148.535156 Z M 85.59375 139.550781 L 88.394531 132.132812 L 82.347656 127.117188 L 79.707031 134.417969 Z M 88.160156 163.4375 L 94.421875 169.3125 L 97.386719 162.289062 L 90.882812 156.59375 Z M 78.304688 134.78125 L 72.261719 129.515625 L 69.933594 136.667969 L 75.773438 141.78125 Z M 76.742188 142.625 L 82.523438 147.6875 L 85.144531 140.742188 L 79.273438 135.625 Z M 93.601562 146.53125 L 96.613281 138.953125 L 89.363281 132.9375 L 86.554688 140.390625 Z M 78.742188 133.578125 L 81.371094 126.304688 L 75.019531 121.039062 L 72.664062 128.28125 Z M 61.777344 180.476562 L 57.398438 175.195312 L 55.777344 180.171875 L 59.957031 185.519531 Z M 94.554688 147.359375 L 101.230469 153.179688 L 104.480469 145.472656 L 97.582031 139.75 Z M 84.96875 171.453125 L 91.011719 177.402344 L 93.929688 170.488281 L 87.6875 164.628906 Z M 81.585938 179.960938 L 87.320312 186.148438 L 90.511719 178.585938 L 84.492188 172.65625 Z M 78.503906 187.710938 L 83.996094 194.035156 L 86.8125 187.351562 L 81.101562 181.1875 Z M 75.53125 195.179688 L 80.820312 201.558594 L 83.480469 195.257812 L 78.007812 188.957031 Z M 77.902344 208.480469 L 80.300781 202.796875 L 75.03125 196.445312 L 72.824219 201.984375 Z M 89.929688 155.757812 L 83.03125 149.71875 L 80.546875 156.296875 L 87.222656 162.5625 Z M 86.753906 163.753906 L 80.089844 157.503906 L 77.574219 164.164062 L 84.050781 170.542969 Z M 74.011719 150.164062 L 79.605469 155.414062 L 82.074219 148.878906 L 76.304688 143.828125 Z M 83.570312 171.746094 L 77.117188 165.386719 L 74.496094 172.316406 L 80.6875 178.992188 Z M 68.386719 165.722656 L 73.589844 171.339844 L 76.183594 164.46875 L 70.769531 159.132812 Z M 71.214844 157.894531 L 76.648438 163.246094 L 79.148438 156.617188 L 73.570312 151.382812 Z M 65.742188 173.019531 L 70.773438 178.808594 L 73.121094 172.582031 L 67.929688 166.984375 Z M 62.660156 181.539062 L 60.820312 186.625 L 65.539062 192.660156 L 67.523438 187.402344 Z M 67.015625 165.996094 L 62.113281 160.710938 L 60.1875 166.621094 L 64.847656 171.988281 Z M 69.832031 158.210938 L 64.601562 153.054688 L 62.53125 159.410156 L 67.472656 164.734375 Z M 64.386719 173.273438 L 59.757812 167.941406 L 57.832031 173.855469 L 62.246094 179.175781 Z M 80.199219 180.21875 L 74.027344 173.558594 L 71.660156 179.828125 L 77.625 186.695312 Z M 77.128906 187.941406 L 71.183594 181.097656 L 68.886719 187.171875 L 74.664062 194.136719 Z M 68.402344 188.457031 L 66.398438 193.761719 L 71.972656 200.898438 L 74.164062 195.398438 Z M 70.292969 180.074219 L 65.28125 174.304688 L 63.132812 180.242188 L 68.011719 186.117188 Z M 72.625 150.496094 L 67.113281 145.328125 L 65.011719 151.789062 L 70.28125 156.976562 L 72.625 150.496094 " fill-opacity="1" fill-rule="nonzero"/><path fill="#14b497" d="M 78.265625 210.617188 L 54.71875 180.609375 L 74.234375 117.917969 L 107.0625 144.953125 Z M 77.882812 212.066406 L 79.300781 211.289062 L 109.613281 144.789062 L 109.589844 144.765625 L 109.628906 144.753906 L 110.175781 143.507812 L 75.023438 115.074219 L 73.359375 114.992188 L 53.542969 181.023438 L 77.882812 212.066406 " fill-opacity="1" fill-rule="nonzero"/><path fill="#14b497" d="M 162.390625 361.3125 L 163.363281 355.207031 C 162.886719 355.007812 162.351562 354.921875 161.800781 354.984375 C 160.054688 355.175781 158.792969 356.75 158.988281 358.496094 C 159.175781 360.203125 160.6875 361.441406 162.390625 361.3125 " fill-opacity="1" fill-rule="nonzero"/><path fill="#14b497" d="M 162.691406 356.28125 L 160.828125 357.121094 L 132.765625 295.953125 L 134.628906 295.113281 L 162.691406 356.28125 " fill-opacity="1" fill-rule="nonzero"/><path fill="#14b497" d="M 224.332031 343.28125 L 222.464844 344.121094 L 205.90625 307.273438 L 207.773438 306.433594 L 224.332031 343.28125 " fill-opacity="1" fill-rule="nonzero"/><path fill="#14b497" d="M 182.238281 309.449219 L 179.800781 322.785156 L 177.789062 322.425781 L 180.222656 309.089844 L 180.9375 309.355469 L 182.238281 309.449219 " fill-opacity="1" fill-rule="nonzero"/><path fill="#14b497" d="M 241.472656 302.695312 L 236.519531 317.484375 L 234.578125 316.839844 L 239.53125 302.046875 L 240.9375 302.5 L 241.472656 302.695312 " fill-opacity="1" fill-rule="nonzero"/><path fill="#ffffff" d="M 163.6875 367.914062 L 229.441406 352.859375 L 243.828125 316.640625 L 170.101562 323.664062 L 163.6875 367.914062 " fill-opacity="1" fill-rule="nonzero"/><path fill="#14b497" d="M 181.253906 335.527344 L 179.460938 344.675781 L 186.789062 343.476562 L 188.578125 334.457031 Z M 186.0625 353.296875 L 184.5625 360.867188 L 190.914062 359.519531 L 192.644531 352.117188 Z M 188.824219 333.214844 L 190.507812 324.707031 L 183.191406 325.621094 L 181.496094 334.285156 Z M 177.960938 346.128906 L 170.136719 347.414062 L 168.816406 355.160156 L 176.460938 353.796875 Z M 197.367188 331.964844 L 199.320312 323.605469 L 191.753906 324.550781 L 190.074219 333.035156 Z M 177.476562 354.828125 L 175.933594 362.695312 L 183.289062 361.132812 L 184.800781 353.523438 Z M 185.050781 352.265625 L 186.542969 344.722656 L 179.214844 345.921875 L 177.722656 353.570312 Z M 180 335.707031 L 171.929688 336.886719 L 170.347656 346.171875 L 178.207031 344.882812 Z M 176.214844 355.050781 L 168.601562 356.410156 L 167.214844 364.546875 L 174.664062 362.964844 Z M 225.3125 346.292969 L 222.929688 352.730469 L 228.046875 351.644531 L 230.589844 345.355469 Z M 180.242188 334.464844 L 181.945312 325.777344 L 173.648438 326.820312 L 172.140625 335.648438 Z M 205.898438 330.722656 L 208.035156 322.515625 L 200.582031 323.445312 L 198.632812 331.78125 Z M 214.960938 329.398438 L 217.449219 321.335938 L 209.304688 322.355469 L 207.179688 330.535156 Z M 223.210938 328.191406 L 225.941406 320.273438 L 218.746094 321.175781 L 216.265625 329.207031 Z M 231.167969 327.03125 L 234.042969 319.261719 L 227.261719 320.109375 L 224.539062 328 Z M 241.5 318.328125 L 235.378906 319.097656 L 232.511719 326.835938 L 238.410156 325.972656 Z M 189.828125 334.273438 L 188.046875 343.269531 L 194.984375 342.128906 L 197.070312 333.214844 Z M 198.339844 333.03125 L 196.261719 341.917969 L 203.285156 340.769531 L 205.574219 331.972656 Z M 192.941406 350.855469 L 194.691406 343.386719 L 187.796875 344.519531 L 186.308594 352.042969 Z M 206.851562 331.785156 L 204.574219 340.558594 L 211.882812 339.359375 L 214.570312 330.660156 Z M 209.226562 347.949219 L 211.492188 340.632812 L 204.242188 341.824219 L 202.328125 349.183594 Z M 201.039062 349.410156 L 202.957031 342.03125 L 195.964844 343.175781 L 194.21875 350.628906 Z M 216.867188 346.589844 L 219.367188 339.34375 L 212.804688 340.417969 L 210.550781 347.714844 Z M 225.789062 345 L 231.117188 344.046875 L 233.984375 336.941406 L 228.433594 337.855469 Z M 210.152344 349 L 208.023438 355.890625 L 214.105469 354.597656 L 216.425781 347.878906 Z M 202 350.453125 L 200.152344 357.5625 L 206.6875 356.171875 L 208.832031 349.234375 Z M 217.765625 347.640625 L 215.46875 354.3125 L 221.550781 353.019531 L 223.949219 346.539062 Z M 215.878906 330.46875 L 213.199219 339.144531 L 219.8125 338.058594 L 222.777344 329.460938 Z M 224.101562 329.269531 L 221.144531 337.839844 L 227.554688 336.792969 L 230.695312 328.304688 Z M 228.910156 336.566406 L 234.503906 335.648438 L 237.894531 327.25 L 232.039062 328.109375 Z M 220.703125 339.121094 L 218.214844 346.351562 L 224.429688 345.242188 L 227.078125 338.078125 Z M 193.925781 351.890625 L 192.203125 359.246094 L 198.847656 357.835938 L 200.710938 350.683594 L 193.925781 351.890625 " fill-opacity="1" fill-rule="nonzero"/><g clip-path="url(#a9c77184b6)"><path fill="#14b497" d="M 243.171875 316.941406 L 228.957031 352.339844 L 164.90625 366.785156 L 171.902344 324.839844 Z M 244.617188 316.554688 L 243.234375 315.710938 L 170.488281 322.707031 L 170.480469 322.746094 L 170.449219 322.714844 L 169.097656 322.863281 L 162.042969 367.527344 L 162.808594 369.007812 L 229.898438 353.152344 L 244.617188 316.554688 " fill-opacity="1" fill-rule="nonzero"/></g><path fill="#14b497" d="M 331.417969 169.570312 L 325.640625 171.777344 C 325.707031 172.292969 325.898438 172.796875 326.230469 173.246094 C 327.269531 174.660156 329.261719 174.964844 330.675781 173.925781 C 332.0625 172.90625 332.378906 170.980469 331.417969 169.570312 " fill-opacity="1" fill-rule="nonzero"/><path fill="#14b497" d="M 326.910156 171.824219 L 328.566406 173.015625 L 289.625 227.90625 L 287.964844 226.707031 L 326.910156 171.824219 " fill-opacity="1" fill-rule="nonzero"/><path fill="#14b497" d="M 284.832031 124.941406 L 286.492188 126.136719 L 262.855469 158.902344 L 261.199219 157.707031 L 284.832031 124.941406 " fill-opacity="1" fill-rule="nonzero"/><path fill="#14b497" d="M 276.582031 178.308594 L 289.347656 173.753906 L 290.039062 175.679688 L 277.273438 180.234375 L 277.144531 179.484375 L 276.582031 178.308594 " fill-opacity="1" fill-rule="nonzero"/><path fill="#14b497" d="M 241.109375 130.390625 L 256.394531 127.28125 L 256.808594 129.289062 L 241.519531 132.390625 L 241.207031 130.953125 L 241.109375 130.390625 " fill-opacity="1" fill-rule="nonzero"/><path fill="#ffffff" d="M 336.484375 165.140625 L 290.574219 115.730469 L 252.015625 121.378906 L 294.960938 181.714844 L 336.484375 165.140625 " fill-opacity="1" fill-rule="nonzero"/><path fill="#14b497" d="M 299.652344 166.128906 L 308.472656 163.101562 L 303.769531 157.355469 L 295.0625 160.316406 Z M 312.640625 153.078125 L 319.945312 150.589844 L 315.601562 145.761719 L 308.328125 147.960938 Z M 293.867188 160.726562 L 285.65625 163.523438 L 290.105469 169.402344 L 298.457031 166.535156 Z M 310.480469 163.675781 L 315.507812 169.808594 L 322.875 167.082031 L 317.871094 161.140625 Z M 288.515625 153.949219 L 280.292969 156.4375 L 284.898438 162.519531 L 293.082031 159.734375 Z M 318.257812 159.75 L 325.84375 157.144531 L 320.8125 151.554688 L 313.464844 154.058594 Z M 312.25 154.472656 L 304.976562 156.949219 L 309.675781 162.6875 L 317.046875 160.164062 Z M 300.433594 167.117188 L 305.492188 173.519531 L 314.324219 170.25 L 309.277344 164.089844 Z M 319.082031 160.726562 L 324.0625 166.640625 L 331.804688 163.773438 L 326.707031 158.109375 Z M 286.949219 122.585938 L 293.710938 121.433594 L 290.214844 117.539062 L 283.496094 118.488281 Z M 299.242188 167.527344 L 290.867188 170.402344 L 295.914062 177.066406 L 304.316406 173.953125 Z M 283.167969 147.1875 L 274.996094 149.441406 L 279.527344 155.425781 L 287.71875 152.945312 Z M 277.492188 139.996094 L 269.265625 141.875 L 274.21875 148.414062 L 282.367188 146.167969 Z M 272.320312 133.457031 L 264.101562 135.050781 L 268.476562 140.828125 L 276.675781 138.964844 Z M 267.339844 127.148438 L 259.171875 128.539062 L 263.300781 133.988281 L 271.492188 132.402344 Z M 254.636719 122.550781 L 258.363281 127.46875 L 266.5 126.078125 L 262.800781 121.402344 Z M 294.28125 159.328125 L 302.960938 156.371094 L 298.507812 150.929688 L 289.742188 153.582031 Z M 288.949219 152.578125 L 297.691406 149.929688 L 293.179688 144.425781 L 284.414062 146.839844 Z M 307.082031 148.335938 L 299.742188 150.558594 L 304.167969 155.960938 L 311.425781 153.492188 Z M 283.613281 145.824219 L 292.351562 143.414062 L 287.660156 137.683594 L 278.78125 139.707031 Z M 296.425781 135.6875 L 288.960938 137.386719 L 293.609375 143.066406 L 300.941406 141.046875 Z M 301.785156 142.046875 L 294.4375 144.074219 L 298.925781 149.558594 L 306.25 147.34375 Z M 291.425781 129.75 L 283.898438 131.207031 L 288.113281 136.355469 L 295.5625 134.660156 Z M 285.585938 122.820312 L 282.101562 118.683594 L 274.515625 119.75 L 278.078125 124.101562 Z M 296.867188 134.363281 L 303.902344 132.757812 L 299.746094 128.136719 L 292.765625 129.492188 Z M 302.207031 140.695312 L 309.285156 138.742188 L 304.816406 133.777344 L 297.734375 135.390625 Z M 291.886719 128.445312 L 298.816406 127.101562 L 294.65625 122.480469 L 287.839844 123.644531 Z M 277.960938 138.667969 L 286.816406 136.652344 L 282.570312 131.46875 L 273.640625 133.199219 Z M 272.808594 132.144531 L 281.710938 130.417969 L 277.597656 125.394531 L 268.675781 126.917969 Z M 276.726562 124.332031 L 273.132812 119.945312 L 264.167969 121.210938 L 267.835938 125.851562 Z M 283.042969 130.160156 L 290.546875 128.707031 L 286.480469 123.878906 L 278.949219 125.160156 Z M 307.492188 146.96875 L 314.722656 144.785156 L 310.179688 139.734375 L 303.050781 141.699219 L 307.492188 146.96875 " fill-opacity="1" fill-rule="nonzero"/><path fill="#14b497" d="M 252.601562 121.796875 L 290.367188 116.40625 L 334.898438 164.652344 L 295.070312 179.566406 Z M 251.542969 120.738281 L 251.5 122.355469 L 293.9375 181.855469 L 293.972656 181.84375 L 293.957031 181.886719 L 294.765625 182.984375 L 336.96875 166.757812 L 337.871094 165.359375 L 290.59375 115.183594 L 251.542969 120.738281 " fill-opacity="1" fill-rule="nonzero"/><path fill="#14b497" d="M 290.910156 217.1875 C 290.910156 272.453125 246.113281 317.257812 190.84375 317.257812 C 135.582031 317.257812 90.777344 272.453125 90.777344 217.1875 C 90.777344 161.929688 135.582031 117.121094 190.84375 117.121094 C 246.113281 117.121094 290.910156 161.929688 290.910156 217.1875 " fill-opacity="1" fill-rule="nonzero"/><path fill="#ffffff" d="M 254.308594 264.65625 C 246.703125 269.578125 252.089844 270.917969 249.398438 273.605469 C 246.703125 276.28125 244.484375 285.671875 250.742188 278.070312 C 256.996094 270.472656 260.570312 258.402344 260.570312 258.402344 C 256.996094 258.402344 261.902344 259.746094 254.308594 264.65625 " fill-opacity="1" fill-rule="nonzero"/><path fill="#ffffff" d="M 165.289062 130.035156 C 172.644531 127.941406 177.808594 125.886719 181.246094 124.285156 C 172.222656 125.328125 163.578125 127.621094 155.496094 131.011719 C 148.652344 135.066406 148.359375 136.410156 148.359375 136.410156 C 148.359375 136.410156 149.359375 134.570312 165.289062 130.035156 " fill-opacity="1" fill-rule="nonzero"/><path fill="#ffffff" d="M 173.835938 146.128906 C 180.371094 146.460938 180.542969 144.953125 180.542969 144.953125 C 180.371094 142.605469 179.210938 141.941406 177.527344 140.429688 C 175.847656 138.917969 178.03125 138.417969 178.03125 138.417969 C 173.992188 137.746094 175.675781 140.761719 176.347656 141.941406 C 177.023438 143.113281 173.835938 146.128906 173.835938 146.128906 " fill-opacity="1" fill-rule="nonzero"/><path fill="#ffffff" d="M 168.296875 145.121094 C 172.335938 146.296875 173.164062 142.269531 173.164062 142.269531 C 174.335938 140.089844 164.285156 143.949219 168.296875 145.121094 " fill-opacity="1" fill-rule="nonzero"/><path fill="#ffffff" d="M 113.265625 253.496094 C 115.269531 246.328125 113.929688 244.09375 113.929688 244.09375 L 111.023438 243.652344 C 109.460938 237.382812 102.980469 236.277344 102.980469 236.277344 C 102.527344 230.910156 99.179688 230.464844 99.179688 230.464844 C 101.269531 224.488281 98.609375 219.8125 96.953125 217.671875 C 96.945312 218.105469 96.917969 218.535156 96.917969 218.96875 C 96.917969 238.601562 102.886719 256.875 113.101562 272.0625 C 113.914062 270.6875 115.5 271.144531 115.5 271.144531 C 114.15625 269.347656 111.234375 260.640625 113.265625 253.496094 " fill-opacity="1" fill-rule="nonzero"/><path fill="#ffffff" d="M 228.320312 160.046875 C 227.863281 159.828125 226.140625 158.039062 222.621094 159.535156 C 219.109375 161.050781 212.902344 158.867188 219.277344 152.332031 C 219.277344 152.332031 222.121094 151.324219 223.132812 154.355469 C 223.132812 154.355469 223.292969 151.324219 228.320312 150.65625 C 228.320312 150.65625 225.980469 151.996094 226.816406 153.679688 C 226.980469 154 227.070312 154.210938 227.105469 154.355469 C 229.371094 155.039062 237.066406 157.535156 235.199219 159.535156 C 233.019531 161.894531 230.507812 161.050781 228.320312 160.046875 Z M 183.222656 231.578125 C 183.222656 231.578125 192.167969 227.988281 190.832031 238.722656 C 189.484375 249.457031 191.277344 245.441406 193.957031 249.457031 C 196.636719 253.496094 200.214844 257.953125 195.734375 268.679688 C 191.277344 279.414062 202.457031 280.304688 203.34375 291.484375 C 204.242188 302.65625 213.183594 295.511719 215.851562 295.511719 C 218.546875 295.511719 229.722656 289.246094 230.621094 284.328125 C 231.519531 279.414062 231.519531 282.988281 231.519531 282.988281 C 231.519531 282.988281 237.316406 280.753906 235.527344 274.949219 C 235.527344 274.949219 248.042969 266.449219 247.15625 261.539062 C 246.265625 256.617188 239.109375 248.574219 252.527344 236.492188 C 265.933594 224.421875 261.902344 217.257812 262.359375 212.804688 L 253.417969 215.933594 C 253.417969 215.933594 243.578125 200.730469 240 198.046875 C 236.429688 195.359375 233.75 183.738281 230.621094 180.613281 C 230.621094 180.613281 244.484375 191.339844 252.972656 211.011719 C 252.972656 211.011719 268.617188 203.414062 267.726562 192.234375 C 266.835938 181.054688 259.699219 190.886719 256.996094 187.316406 C 254.308594 183.738281 248.503906 177.480469 252.089844 177.480469 C 255.648438 177.480469 261.023438 186.421875 270.851562 184.628906 C 270.851562 184.628906 282.03125 190.886719 284.722656 211.011719 C 284.722656 211.011719 285.398438 204.074219 284.296875 194.101562 C 275.777344 162.640625 251.546875 137.570312 220.566406 127.921875 C 218.445312 129.835938 215.625 132.21875 213.632812 133.214844 C 213.632812 133.214844 211.84375 130.53125 206.019531 129.644531 C 200.214844 128.746094 197.972656 126.960938 192.617188 131.867188 C 187.246094 136.792969 187.246094 134.117188 187.246094 134.117188 C 187.246094 134.117188 186.800781 138.585938 192.167969 136.792969 C 192.167969 136.792969 192.167969 141.265625 197.53125 139.925781 C 202.890625 138.585938 193.507812 135.902344 199.769531 132.765625 C 206.019531 129.644531 200.65625 131.867188 202.890625 135.902344 C 205.132812 139.925781 212.28125 141.265625 202.003906 142.605469 C 191.722656 143.949219 191.722656 140.375 184.117188 145.292969 C 176.519531 150.203125 173.386719 149.316406 173.386719 149.316406 C 173.386719 149.316406 182.328125 160.046875 164.890625 156.917969 C 164.890625 156.917969 162.65625 158.253906 163.097656 165.40625 C 163.550781 172.558594 163.550781 166.753906 163.550781 166.753906 C 163.550781 166.753906 163.550781 165.40625 168.476562 167.648438 C 173.386719 169.882812 174.277344 161.828125 178.308594 160.046875 C 182.328125 158.253906 179.210938 157.367188 190.382812 155.128906 C 190.382812 155.128906 193.507812 160.046875 198.429688 161.828125 C 203.34375 163.617188 199.769531 164.960938 199.769531 164.960938 C 199.769531 164.960938 202.457031 166.300781 202.890625 162.277344 C 202.890625 162.277344 189.484375 153.78125 196.191406 154.230469 C 202.890625 154.679688 205.585938 162.71875 212.28125 167.648438 C 212.28125 167.648438 208.710938 157.804688 215.851562 161.828125 C 223.023438 165.855469 223.023438 164.960938 231.964844 167.203125 C 231.964844 167.203125 236.882812 179.714844 224.800781 177.027344 C 212.738281 174.347656 214.070312 174.347656 211.402344 175.695312 C 208.699219 177.027344 211.402344 182.402344 202.457031 177.929688 C 193.507812 173.457031 188.589844 172.113281 191.277344 168.992188 C 191.277344 168.992188 184.5625 165.40625 179.65625 168.542969 C 174.726562 171.671875 170.269531 172.113281 166.246094 170.777344 C 166.246094 170.777344 158.640625 173.011719 157.292969 178.828125 C 155.957031 184.628906 144.777344 185.980469 142.097656 199.386719 C 139.414062 212.804688 142.539062 220.851562 154.160156 230.6875 C 154.160156 230.6875 163.550781 228.4375 167.582031 230.6875 C 167.582031 230.6875 174.726562 223.519531 183.222656 231.578125 " fill-opacity="1" fill-rule="nonzero"/><path fill="#14b497" d="M 127.316406 88.371094 C 127.316406 88.371094 127.296875 88.375 127.296875 88.375 C 125.046875 89.351562 124.007812 91.976562 124.980469 94.226562 C 124.988281 94.242188 125 94.257812 125.007812 94.273438 C 124.796875 94.316406 124.585938 94.375 124.386719 94.457031 C 123.601562 94.796875 123.019531 95.46875 122.75 96.273438 C 122.652344 96.304688 122.546875 96.339844 122.546875 96.339844 C 122.320312 96.4375 122.109375 96.570312 121.910156 96.71875 C 121.554688 96.734375 121.207031 96.800781 120.878906 96.941406 C 119.917969 97.359375 119.261719 98.246094 119.128906 99.265625 C 118.585938 99.429688 118.039062 99.628906 117.476562 99.875 C 117.003906 100.078125 112.894531 101.910156 113.558594 103.441406 C 114.222656 104.976562 118.371094 103.230469 118.839844 103.03125 C 119.871094 102.585938 120.800781 102.058594 121.5 101.542969 C 122.421875 102.503906 123.855469 102.8125 125.117188 102.269531 C 126.09375 101.847656 126.78125 100.964844 126.992188 99.957031 C 129.597656 101.519531 132.820312 101.765625 135.640625 100.546875 C 136.984375 99.964844 138.167969 99.0625 139.105469 97.949219 C 140.457031 98.445312 141.949219 98.417969 143.269531 97.84375 C 144.933594 97.125 146.105469 95.679688 146.496094 93.929688 C 147.226562 93.917969 147.949219 93.769531 148.617188 93.480469 C 150.246094 92.777344 151.410156 91.347656 151.804688 89.621094 C 153.261719 89.304688 155 88.726562 156.765625 87.960938 C 159.660156 86.710938 164.355469 84.128906 163.609375 82.40625 C 162.863281 80.6875 157.769531 82.34375 154.875 83.597656 C 154.070312 83.945312 153.3125 84.320312 152.582031 84.707031 C 152.542969 84.585938 152.507812 84.464844 152.460938 84.347656 C 151.746094 82.699219 150.011719 81.75 148.269531 81.960938 C 148.203125 81.675781 148.117188 81.394531 148 81.125 C 146.890625 78.5625 143.902344 77.378906 141.339844 78.488281 C 140.839844 78.703125 140.386719 78.996094 139.984375 79.355469 C 137.65625 77.589844 134.511719 77.175781 131.8125 78.34375 C 127.949219 80.015625 126.023438 84.425781 127.316406 88.371094 " fill-opacity="1" fill-rule="nonzero"/><path fill="#14b497" d="M 116.726562 82.214844 C 116.726562 82.214844 116.742188 82.210938 116.742188 82.210938 C 118.320312 81.527344 120.15625 82.253906 120.839844 83.828125 C 120.839844 83.839844 120.84375 83.851562 120.851562 83.863281 C 120.972656 83.777344 121.101562 83.695312 121.242188 83.636719 C 121.792969 83.398438 122.410156 83.421875 122.949219 83.667969 C 123.015625 83.636719 123.082031 83.597656 123.082031 83.597656 C 123.242188 83.527344 123.410156 83.488281 123.582031 83.453125 C 123.761719 83.28125 123.957031 83.132812 124.1875 83.035156 C 124.859375 82.742188 125.628906 82.832031 126.210938 83.253906 C 126.558594 83.058594 126.921875 82.871094 127.316406 82.699219 C 127.644531 82.558594 130.550781 81.339844 131.015625 82.414062 C 131.476562 83.488281 128.601562 84.765625 128.273438 84.910156 C 127.550781 85.222656 126.835938 85.445312 126.238281 85.554688 C 126.289062 86.488281 125.761719 87.367188 124.878906 87.75 C 124.195312 88.046875 123.414062 87.976562 122.796875 87.597656 C 122.347656 89.679688 120.933594 91.445312 118.960938 92.296875 C 118.019531 92.707031 116.992188 92.875 115.972656 92.820312 C 115.582031 93.75 114.847656 94.496094 113.925781 94.898438 C 112.761719 95.402344 111.460938 95.308594 110.378906 94.671875 C 110.023438 95.035156 109.605469 95.335938 109.140625 95.535156 C 107.996094 96.03125 106.710938 95.941406 105.640625 95.316406 C 104.777344 95.90625 103.652344 96.519531 102.417969 97.054688 C 100.390625 97.929688 96.824219 99.09375 96.304688 97.886719 C 95.78125 96.679688 99.070312 94.875 101.09375 94 C 101.65625 93.757812 102.210938 93.546875 102.757812 93.359375 C 102.714844 93.28125 102.667969 93.203125 102.632812 93.125 C 102.136719 91.972656 102.476562 90.628906 103.421875 89.84375 C 103.308594 89.667969 103.207031 89.492188 103.125 89.308594 C 102.34375 87.507812 103.175781 85.417969 104.972656 84.640625 C 105.320312 84.488281 105.683594 84.398438 106.058594 84.367188 C 106.273438 82.332031 107.566406 80.527344 109.460938 79.710938 C 112.164062 78.539062 115.335938 79.664062 116.726562 82.214844 " fill-opacity="1" fill-rule="nonzero"/><path fill="#14b497" d="M 114.648438 334.445312 C 114.648438 334.445312 114.664062 334.460938 114.664062 334.460938 C 116.632812 335.925781 119.425781 335.511719 120.886719 333.542969 C 120.898438 333.523438 120.90625 333.507812 120.914062 333.496094 C 121.058594 333.65625 121.214844 333.808594 121.386719 333.9375 C 122.074219 334.449219 122.945312 334.617188 123.773438 334.449219 C 123.851562 334.519531 123.9375 334.59375 123.9375 334.59375 C 124.132812 334.738281 124.351562 334.859375 124.582031 334.953125 C 124.773438 335.253906 125.003906 335.523438 125.292969 335.738281 C 126.132812 336.359375 127.226562 336.484375 128.179688 336.089844 C 128.59375 336.472656 129.039062 336.851562 129.53125 337.21875 C 129.945312 337.523438 133.585938 340.167969 134.578125 338.824219 C 135.578125 337.484375 131.992188 334.761719 131.582031 334.457031 C 130.679688 333.789062 129.761719 333.246094 128.964844 332.894531 C 129.335938 331.621094 128.886719 330.21875 127.789062 329.40625 C 126.929688 328.765625 125.820312 328.613281 124.839844 328.9375 C 124.894531 325.898438 123.496094 322.980469 121.03125 321.148438 C 119.855469 320.277344 118.484375 319.703125 117.046875 319.449219 C 116.804688 318.03125 116.03125 316.753906 114.875 315.890625 C 113.421875 314.8125 111.582031 314.519531 109.871094 315.058594 C 109.496094 314.429688 109.007812 313.878906 108.425781 313.449219 C 107 312.386719 105.179688 312.09375 103.488281 312.617188 C 102.480469 311.511719 101.113281 310.292969 99.570312 309.148438 C 97.039062 307.269531 92.457031 304.488281 91.335938 305.996094 C 90.21875 307.507812 94.207031 311.085938 96.734375 312.964844 C 97.441406 313.484375 98.144531 313.957031 98.84375 314.398438 C 98.753906 314.492188 98.667969 314.582031 98.59375 314.6875 C 97.519531 316.128906 97.566406 318.105469 98.621094 319.507812 C 98.40625 319.707031 98.207031 319.921875 98.03125 320.152344 C 96.367188 322.398438 96.835938 325.582031 99.078125 327.246094 C 99.515625 327.570312 99.996094 327.816406 100.507812 327.984375 C 100.144531 330.878906 101.355469 333.8125 103.714844 335.566406 C 107.097656 338.074219 111.878906 337.542969 114.648438 334.445312 " fill-opacity="1" fill-rule="nonzero"/><path fill="#14b497" d="M 114.613281 346.691406 C 114.609375 346.691406 114.601562 346.6875 114.601562 346.6875 C 113.21875 345.660156 112.933594 343.707031 113.953125 342.328125 C 113.964844 342.320312 113.972656 342.3125 113.980469 342.296875 C 113.839844 342.238281 113.707031 342.164062 113.585938 342.074219 C 113.105469 341.71875 112.816406 341.167969 112.761719 340.578125 C 112.699219 340.539062 112.632812 340.5 112.632812 340.5 C 112.492188 340.398438 112.371094 340.273438 112.257812 340.140625 C 112.015625 340.074219 111.789062 339.972656 111.589844 339.824219 C 111 339.382812 110.699219 338.675781 110.769531 337.957031 C 110.429688 337.761719 110.082031 337.539062 109.738281 337.28125 C 109.449219 337.070312 106.941406 335.164062 107.636719 334.222656 C 108.335938 333.285156 110.886719 335.136719 111.171875 335.347656 C 111.804688 335.816406 112.355469 336.324219 112.75 336.789062 C 113.53125 336.28125 114.558594 336.292969 115.328125 336.867188 C 115.929688 337.3125 116.257812 338.023438 116.238281 338.746094 C 118.265625 338.09375 120.503906 338.441406 122.230469 339.722656 C 123.050781 340.332031 123.714844 341.132812 124.175781 342.046875 C 125.175781 341.917969 126.191406 342.183594 127 342.78125 C 128.015625 343.535156 128.585938 344.707031 128.574219 345.964844 C 129.066406 346.089844 129.535156 346.304688 129.945312 346.605469 C 130.945312 347.347656 131.507812 348.507812 131.5 349.746094 C 132.445312 350.199219 133.535156 350.867188 134.617188 351.667969 C 136.390625 352.980469 139.179688 355.492188 138.398438 356.546875 C 137.613281 357.601562 134.40625 355.65625 132.632812 354.339844 C 132.144531 353.976562 131.683594 353.601562 131.246094 353.222656 C 131.203125 353.296875 131.160156 353.375 131.109375 353.445312 C 130.359375 354.457031 129.027344 354.828125 127.871094 354.40625 C 127.777344 354.589844 127.675781 354.765625 127.554688 354.933594 C 126.390625 356.5 124.164062 356.832031 122.59375 355.664062 C 122.285156 355.4375 122.023438 355.167969 121.808594 354.859375 C 119.9375 355.6875 117.730469 355.46875 116.078125 354.242188 C 113.707031 352.488281 113.101562 349.175781 114.613281 346.691406 " fill-opacity="1" fill-rule="nonzero"/><path fill="#14b497" d="M 325.875 236.886719 C 325.875 236.882812 325.878906 236.867188 325.878906 236.867188 C 326.160156 234.429688 324.40625 232.21875 321.972656 231.9375 C 321.953125 231.9375 321.933594 231.9375 321.917969 231.933594 C 321.988281 231.730469 322.042969 231.519531 322.066406 231.304688 C 322.164062 230.457031 321.875 229.617188 321.316406 228.980469 C 321.335938 228.878906 321.355469 228.769531 321.355469 228.769531 C 321.386719 228.523438 321.375 228.277344 321.347656 228.03125 C 321.511719 227.714844 321.628906 227.378906 321.671875 227.023438 C 321.789062 225.984375 321.351562 224.976562 320.53125 224.347656 C 320.660156 223.796875 320.761719 223.222656 320.832031 222.609375 C 320.890625 222.101562 321.359375 217.628906 319.703125 217.4375 C 318.039062 217.246094 317.476562 221.707031 317.417969 222.214844 C 317.289062 223.332031 317.28125 224.398438 317.375 225.265625 C 316.082031 225.582031 315.09375 226.667969 314.9375 228.03125 C 314.816406 229.089844 315.234375 230.125 316.003906 230.816406 C 313.347656 232.289062 311.519531 234.957031 311.167969 238.007812 C 311 239.460938 311.191406 240.9375 311.683594 242.308594 C 310.578125 243.230469 309.859375 244.535156 309.691406 245.96875 C 309.484375 247.765625 310.148438 249.503906 311.46875 250.71875 C 311.117188 251.355469 310.882812 252.054688 310.800781 252.773438 C 310.59375 254.539062 311.25 256.261719 312.546875 257.464844 C 312.09375 258.890625 311.722656 260.683594 311.503906 262.59375 C 311.140625 265.726562 311.027344 271.082031 312.890625 271.300781 C 314.757812 271.511719 315.867188 266.273438 316.226562 263.136719 C 316.328125 262.269531 316.382812 261.425781 316.414062 260.601562 C 316.539062 260.628906 316.660156 260.65625 316.789062 260.675781 C 318.574219 260.878906 320.261719 259.851562 320.949219 258.234375 C 321.230469 258.324219 321.515625 258.390625 321.804688 258.421875 C 324.582031 258.742188 327.101562 256.746094 327.421875 253.972656 C 327.484375 253.429688 327.457031 252.890625 327.34375 252.363281 C 330.039062 251.230469 331.972656 248.714844 332.308594 245.792969 C 332.792969 241.609375 329.9375 237.742188 325.875 236.886719 " fill-opacity="1" fill-rule="nonzero"/><path fill="#14b497" d="M 336.496094 230.796875 C 336.496094 230.796875 336.496094 230.808594 336.496094 230.808594 C 336.300781 232.515625 334.753906 233.746094 333.046875 233.546875 C 333.035156 233.542969 333.019531 233.539062 333.011719 233.539062 C 333.023438 233.6875 333.03125 233.839844 333.011719 233.992188 C 332.941406 234.589844 332.613281 235.113281 332.128906 235.457031 C 332.125 235.53125 332.125 235.605469 332.125 235.605469 C 332.105469 235.777344 332.058594 235.945312 332 236.113281 C 332.058594 236.355469 332.085938 236.601562 332.058594 236.84375 C 331.972656 237.574219 331.515625 238.195312 330.855469 238.492188 C 330.855469 238.882812 330.835938 239.292969 330.78125 239.71875 C 330.746094 240.078125 330.351562 243.199219 329.1875 243.066406 C 328.023438 242.933594 328.351562 239.800781 328.394531 239.445312 C 328.484375 238.667969 328.644531 237.933594 328.847656 237.359375 C 328.019531 236.9375 327.519531 236.039062 327.628906 235.085938 C 327.714844 234.347656 328.167969 233.707031 328.800781 233.359375 C 327.226562 231.933594 326.40625 229.820312 326.652344 227.6875 C 326.769531 226.667969 327.136719 225.691406 327.691406 224.839844 C 327.082031 224.035156 326.800781 223.023438 326.914062 222.027344 C 327.0625 220.765625 327.792969 219.6875 328.886719 219.070312 C 328.746094 218.582031 328.699219 218.066406 328.753906 217.5625 C 328.902344 216.324219 329.621094 215.253906 330.699219 214.644531 C 330.613281 213.597656 330.652344 212.316406 330.800781 210.980469 C 331.058594 208.789062 331.832031 205.121094 333.140625 205.273438 C 334.445312 205.421875 334.363281 209.171875 334.109375 211.363281 C 334.039062 211.972656 333.941406 212.558594 333.832031 213.125 C 333.921875 213.125 334.011719 213.125 334.097656 213.132812 C 335.347656 213.277344 336.335938 214.246094 336.546875 215.457031 C 336.753906 215.445312 336.960938 215.445312 337.160156 215.46875 C 339.101562 215.691406 340.503906 217.457031 340.277344 219.398438 C 340.234375 219.773438 340.132812 220.140625 339.96875 220.484375 C 341.625 221.683594 342.539062 223.707031 342.304688 225.75 C 341.964844 228.679688 339.402344 230.863281 336.496094 230.796875 " fill-opacity="1" fill-rule="nonzero"/></svg>