<svg xmlns="http://www.w3.org/2000/svg" xmlns:xlink="http://www.w3.org/1999/xlink" width="500" zoomAndPan="magnify" viewBox="0 0 375 374.999991" height="500" preserveAspectRatio="xMidYMid meet" version="1.0"><defs><clipPath id="3f0a24e2ef"><path d="M 98 137.835938 L 110.558594 137.835938 L 110.558594 174.773438 L 98 174.773438 Z M 98 137.835938 " clip-rule="nonzero"/></clipPath><clipPath id="1feafddaf9"><path d="M 102.976562 152.101562 C 102.074219 174.523438 101.175781 174.824219 100.574219 174.75 C 99.976562 174.675781 99.226562 174.074219 98.925781 173.25 C 98.25 171.523438 99 167.773438 99.675781 163.949219 C 100.875 157.574219 104.550781 141.824219 106.800781 138.976562 C 107.398438 138.148438 108.074219 137.773438 108.675781 137.851562 C 109.273438 137.925781 110.324219 139.125 110.476562 139.726562 C 110.550781 140.101562 110.324219 140.625 110.023438 140.925781 C 109.726562 141.300781 108.976562 141.75 108.449219 141.675781 C 107.925781 141.675781 107.175781 141.226562 106.875 140.773438 C 106.574219 140.324219 106.574219 139.425781 106.800781 138.976562 C 107.023438 138.523438 107.699219 138 108.226562 137.851562 C 108.75 137.773438 109.574219 138.074219 109.949219 138.449219 C 110.25 138.824219 110.550781 139.648438 110.398438 140.175781 C 110.324219 140.699219 109.726562 141.375 109.273438 141.523438 C 108.75 141.75 107.851562 141.675781 107.476562 141.375 C 106.949219 141 106.5 139.949219 106.648438 139.425781 C 106.800781 138.75 108 137.851562 108.675781 137.851562 C 109.199219 137.851562 109.875 138.375 110.175781 138.824219 C 110.398438 139.199219 110.476562 139.425781 110.398438 140.175781 C 110.25 143.25 104.925781 158.550781 103.648438 164.699219 C 102.976562 168.449219 103.574219 172.199219 102.601562 173.699219 C 102.074219 174.375 101.175781 174.824219 100.574219 174.75 C 99.976562 174.675781 99.300781 174.148438 98.925781 173.25 C 97.574219 170.324219 97.949219 155.25 98.699219 152.101562 C 98.925781 151.199219 99.226562 150.75 99.601562 150.375 C 100.050781 150.074219 100.648438 149.925781 101.101562 150.074219 C 101.699219 150.226562 102.976562 152.175781 102.976562 152.175781 " clip-rule="nonzero"/></clipPath><clipPath id="c9cffa53aa"><path d="M 75.140625 91 L 79 91 L 79 98 L 75.140625 98 Z M 75.140625 91 " clip-rule="nonzero"/></clipPath><clipPath id="44e41a80d8"><path d="M 75.148438 94.875 C 75.523438 94.351562 75.226562 93.375 75.226562 92.851562 C 75.300781 92.398438 75.523438 92.101562 75.601562 91.648438 C 75.601562 91.273438 75.523438 90.898438 75.601562 90.449219 C 75.75 89.851562 76.273438 89.023438 76.5 88.199219 C 76.726562 87.449219 76.875 86.476562 77.101562 85.875 C 77.324219 85.5 77.625 85.273438 77.773438 84.898438 C 78 84.523438 78 84.148438 78.226562 83.773438 C 78.601562 83.175781 79.273438 82.574219 79.800781 81.898438 C 80.25 81.300781 80.699219 80.398438 81.148438 79.875 C 81.449219 79.574219 81.824219 79.425781 82.050781 79.125 C 82.351562 78.898438 82.5 78.523438 82.875 78.226562 C 83.25 77.925781 83.925781 78 84.375 77.324219 C 85.648438 75.375 83.550781 66.148438 86.625 62.476562 C 90.449219 57.75 101.773438 55.199219 109.050781 54.226562 C 115.5 53.324219 122.625 52.726562 127.949219 55.800781 C 134.101562 59.324219 140.324219 69.523438 142.351562 76.648438 C 144.148438 82.800781 142.050781 89.175781 141.675781 95.398438 C 141.375 101.699219 141 107.925781 140.324219 114.226562 C 139.726562 120.675781 138.523438 127.050781 137.699219 133.648438 C 136.800781 140.398438 135.898438 147.601562 135.074219 154.351562 C 134.324219 160.726562 133.5 166.726562 132.976562 173.023438 C 132.449219 179.476562 134.773438 187.574219 131.925781 192.75 C 129.226562 197.773438 122.398438 201.675781 116.699219 203.625 C 110.699219 205.726562 102.449219 206.851562 96.675781 204.675781 C 90.824219 202.5 83.398438 195.375 81.898438 190.425781 C 80.699219 186.449219 84.75 178.574219 84.601562 178.125 C 84.449219 177.976562 82.875 176.625 82.800781 176.550781 C 82.800781 176.550781 81.898438 175.273438 81.523438 174.675781 C 81.074219 174 80.175781 172.726562 80.175781 172.726562 C 80.175781 172.648438 79.574219 171.226562 79.351562 170.476562 C 79.050781 169.800781 78.523438 168.375 78.523438 168.300781 C 78.523438 168.300781 78.300781 166.800781 78.226562 165.976562 C 78.148438 165.226562 77.925781 163.726562 77.925781 163.648438 C 77.925781 163.648438 78 162.449219 78.074219 161.25 C 78.148438 157.949219 78.300781 147.976562 78.375 141.75 C 78.449219 136.125 78.226562 129.300781 78.449219 125.550781 C 78.523438 123.523438 78.601562 122.476562 78.976562 120.976562 C 79.351562 119.476562 79.875 118.050781 80.625 116.699219 C 81.300781 115.351562 82.648438 113.550781 83.175781 112.949219 C 83.398438 112.726562 83.699219 112.648438 83.699219 112.5 C 83.699219 112.351562 83.324219 112.351562 83.101562 112.199219 C 82.875 111.976562 82.648438 111.601562 82.351562 111.300781 C 81.898438 110.851562 80.625 109.726562 80.625 109.726562 C 80.625 109.726562 79.648438 108.148438 79.199219 107.625 C 78.898438 107.25 78.601562 107.023438 78.449219 106.726562 C 78.300781 106.5 78.300781 106.351562 78.148438 106.125 C 78 105.824219 77.625 105.300781 77.625 105.300781 C 77.625 105.226562 77.023438 103.574219 76.648438 102.75 C 76.351562 101.925781 75.75 100.273438 75.75 100.273438 C 75.75 100.199219 75.75 100.125 75.75 100.125 C 75.75 100.125 75.675781 100.050781 75.675781 100.050781 C 75.675781 99.976562 75.675781 99.824219 75.675781 99.601562 C 75.601562 99.148438 75.523438 98.101562 75.449219 97.574219 C 75.375 97.199219 75.375 96.675781 75.375 96.675781 C 75.375 96.601562 75.148438 94.875 75.148438 94.875 C 75.375 97.050781 75.300781 97.648438 75.300781 97.648438 C 75.226562 97.648438 75.148438 94.875 75.148438 94.875 " clip-rule="nonzero"/></clipPath><clipPath id="d2fea2beeb"><path d="M 81.0625 93.125 L 120.097656 93.125 L 120.097656 205.597656 L 81.0625 205.597656 Z M 81.0625 93.125 " clip-rule="nonzero"/></clipPath><clipPath id="8d628570c9"><path d="M 119.476562 112.050781 C 119.175781 168.898438 120.523438 179.773438 119.851562 186.449219 C 119.398438 190.273438 118.648438 193.050781 117.675781 195.226562 C 116.925781 196.875 116.324219 197.773438 115.050781 198.976562 C 113.324219 200.773438 110.398438 203.101562 107.625 204.148438 C 104.925781 205.199219 101.550781 205.574219 98.625 205.199219 C 95.773438 204.898438 92.324219 203.324219 90.226562 202.050781 C 88.726562 201.148438 87.898438 200.398438 86.773438 198.976562 C 85.273438 197.101562 83.324219 193.351562 82.574219 191.023438 C 82.050781 189.300781 81.300781 188.25 82.050781 186.449219 C 83.925781 182.023438 99.976562 168.824219 105.226562 168.074219 C 107.625 167.773438 109.199219 169.351562 110.925781 170.398438 C 112.574219 171.523438 114.226562 172.875 115.5 174.449219 C 116.773438 176.023438 117.824219 177.824219 118.574219 179.699219 C 119.324219 181.574219 119.699219 183.675781 119.773438 185.699219 C 119.925781 187.726562 119.625 189.824219 119.101562 191.773438 C 118.5 193.726562 117.601562 195.675781 116.398438 197.324219 C 115.273438 198.976562 113.773438 200.476562 112.125 201.675781 C 110.550781 202.875 108.601562 203.851562 106.726562 204.449219 C 104.773438 205.050781 102.675781 205.425781 100.648438 205.351562 C 98.699219 205.351562 96.523438 204.976562 94.648438 204.300781 C 92.773438 203.625 90.898438 202.574219 89.324219 201.375 C 87.75 200.101562 86.25 198.523438 85.125 196.875 C 84.074219 195.148438 83.175781 193.199219 82.648438 191.25 C 82.125 189.375 81.976562 187.199219 82.125 185.175781 C 82.199219 183.226562 82.726562 181.125 83.476562 179.25 C 84.226562 177.375 85.351562 175.574219 86.699219 174.074219 C 88.050781 172.574219 89.699219 171.148438 91.425781 170.175781 C 93.148438 169.125 95.175781 168.375 97.125 168 C 99.074219 167.550781 101.25 167.476562 103.199219 167.699219 C 105.226562 168 107.25 168.601562 109.125 169.425781 C 110.925781 170.324219 112.648438 171.523438 114.074219 172.949219 C 115.574219 174.375 116.851562 176.101562 117.75 177.898438 C 118.648438 179.625 119.324219 181.726562 119.625 183.675781 C 119.925781 185.699219 119.851562 187.800781 119.550781 189.824219 C 119.175781 191.773438 118.5 193.800781 117.523438 195.523438 C 116.550781 197.324219 115.199219 198.976562 113.699219 200.398438 C 112.273438 201.75 110.476562 202.875 108.601562 203.699219 C 106.800781 204.523438 103.125 205.949219 102.75 205.273438 C 101.925781 203.925781 118.425781 185.773438 119.851562 186.449219 C 120.675781 186.898438 119.023438 192.675781 117.675781 195.226562 C 116.324219 197.851562 113.625 200.476562 111.675781 202.050781 C 110.324219 203.101562 109.273438 203.625 107.625 204.148438 C 105.300781 204.898438 101.101562 205.351562 98.625 205.199219 C 96.898438 205.125 95.851562 204.824219 94.273438 204.148438 C 92.023438 203.101562 88.5 200.773438 86.773438 198.976562 C 85.574219 197.773438 84.898438 196.574219 84.226562 195.226562 C 83.476562 193.949219 82.949219 192.75 82.574219 191.023438 C 81.976562 188.324219 82.050781 185.476562 81.824219 180.449219 C 81.375 167.550781 80.398438 123.976562 81.824219 112.050781 C 82.351562 107.699219 82.949219 105.523438 84 103.273438 C 84.675781 101.699219 85.574219 100.726562 86.550781 99.601562 C 87.523438 98.476562 88.425781 97.425781 89.925781 96.523438 C 92.023438 95.25 95.925781 93.824219 98.398438 93.375 C 100.050781 93.074219 101.175781 93.074219 102.898438 93.375 C 105.300781 93.824219 108.898438 94.875 111.300781 96.523438 C 113.699219 98.25 115.949219 100.726562 117.300781 103.273438 C 118.648438 105.898438 119.476562 112.050781 119.476562 112.050781 " clip-rule="nonzero"/></clipPath><clipPath id="34cca1b94a"><path d="M 82.03125 117.601562 L 138.824219 117.601562 L 138.824219 205.59375 L 82.03125 205.59375 Z M 82.03125 117.601562 " clip-rule="nonzero"/></clipPath><clipPath id="2d4a3975d3"><path d="M 100.425781 167.550781 C 107.476562 169.050781 97.351562 183.75 95.324219 183.226562 C 93.300781 182.625 94.125 170.699219 94.425781 163.574219 C 94.800781 155.101562 96.976562 141.675781 98.175781 135.675781 C 98.773438 132.824219 99.074219 131.324219 99.976562 129.375 C 100.949219 127.425781 102.226562 125.476562 103.726562 123.898438 C 105.226562 122.324219 107.023438 120.976562 108.976562 119.925781 C 110.925781 118.949219 113.101562 118.199219 115.199219 117.898438 C 117.375 117.523438 119.699219 117.523438 121.800781 117.898438 C 123.976562 118.273438 126.148438 119.023438 128.023438 120.074219 C 129.976562 121.050781 131.773438 122.476562 133.273438 124.050781 C 134.773438 125.625 136.050781 127.574219 136.949219 129.523438 C 137.851562 131.476562 138.449219 133.726562 138.675781 135.898438 C 138.898438 138 138.75 140.324219 138.300781 142.425781 C 137.851562 144.523438 136.949219 146.699219 135.824219 148.574219 C 134.699219 150.375 133.199219 152.175781 131.550781 153.523438 C 129.898438 154.949219 127.875 156.148438 125.925781 156.898438 C 123.898438 157.726562 121.648438 158.175781 119.476562 158.324219 C 117.300781 158.398438 114.976562 158.175781 112.875 157.574219 C 110.851562 156.976562 108.75 156 106.949219 154.800781 C 105.148438 153.601562 103.5 151.949219 102.148438 150.226562 C 100.875 148.5 99.824219 146.476562 99.148438 144.375 C 98.398438 142.351562 98.101562 140.101562 98.101562 137.925781 C 98.101562 135.75 98.476562 133.425781 99.148438 131.398438 C 99.898438 129.375 100.949219 127.351562 102.300781 125.625 C 103.574219 123.898438 105.300781 122.324219 107.101562 121.125 C 108.898438 119.851562 111 118.949219 113.101562 118.351562 C 115.199219 117.75 117.449219 117.523438 119.625 117.675781 C 121.800781 117.824219 124.050781 118.273438 126.074219 119.101562 C 128.101562 119.925781 130.050781 121.125 131.699219 122.550781 C 133.351562 123.898438 134.851562 125.699219 135.898438 127.574219 C 137.023438 129.449219 137.851562 131.550781 138.375 133.726562 C 138.824219 135.824219 138.898438 137.476562 138.675781 140.25 C 138.300781 145.125 135.148438 153.523438 134.324219 160.199219 C 133.5 166.800781 134.773438 173.625 133.726562 180.074219 C 132.75 186.449219 132.300781 194.398438 128.25 198.601562 C 123.898438 203.101562 112.5 204.523438 107.625 205.351562 C 105.074219 205.726562 103.800781 205.574219 101.550781 205.351562 C 98.925781 205.125 95.398438 204.75 92.699219 203.476562 C 90.074219 202.199219 87.523438 200.023438 85.800781 197.699219 C 84.074219 195.300781 82.800781 192.226562 82.351562 189.300781 C 81.898438 186.449219 82.199219 183.074219 83.175781 180.300781 C 84.074219 177.523438 86.398438 174.523438 88.050781 172.726562 C 89.25 171.449219 90.148438 170.773438 91.726562 170.023438 C 93.976562 168.898438 100.425781 167.550781 100.425781 167.550781 " clip-rule="nonzero"/></clipPath><clipPath id="e4f7430aeb"><path d="M 73.210938 51.6875 L 133 51.6875 L 133 169 L 73.210938 169 Z M 73.210938 51.6875 " clip-rule="nonzero"/></clipPath><clipPath id="0b92c9a7a2"><path d="M 93.75 150 C 92.398438 69.300781 92.476562 68.625 92.851562 67.050781 C 93.226562 65.550781 93.824219 63.976562 94.574219 62.550781 C 95.324219 61.125 96.226562 59.773438 97.273438 58.574219 C 98.324219 57.375 99.601562 56.25 100.875 55.351562 C 102.226562 54.449219 103.648438 53.699219 105.148438 53.101562 C 106.648438 52.574219 108.226562 52.125 109.800781 51.976562 C 111.449219 51.75 113.101562 51.75 114.675781 51.898438 C 116.25 52.125 117.824219 52.5 119.324219 53.101562 C 120.824219 53.625 122.324219 54.375 123.601562 55.273438 C 124.949219 56.175781 126.226562 57.300781 127.273438 58.5 C 128.324219 59.699219 129.226562 61.050781 129.976562 62.476562 C 130.726562 63.898438 131.324219 65.398438 131.699219 66.976562 C 132.148438 68.550781 132.75 69.75 132.300781 71.773438 C 131.324219 75.976562 125.625 84.898438 120.675781 89.773438 C 115.648438 94.5 106.574219 98.699219 102.449219 100.574219 C 100.5 101.476562 99.375 101.851562 97.800781 102.148438 C 96.226562 102.449219 94.574219 102.601562 92.925781 102.523438 C 91.273438 102.449219 89.625 102.226562 88.050781 101.773438 C 86.550781 101.324219 84.976562 100.648438 83.550781 99.824219 C 82.199219 99.074219 80.851562 98.023438 79.648438 96.898438 C 78.449219 95.773438 77.398438 94.5 76.574219 93.148438 C 75.675781 91.726562 74.925781 90.226562 74.398438 88.726562 C 73.949219 87.148438 73.574219 85.5 73.425781 83.851562 C 73.351562 82.273438 73.351562 80.625 73.648438 78.976562 C 73.875 77.398438 74.398438 75.75 75 74.25 C 75.601562 72.75 76.5 71.324219 77.476562 70.050781 C 78.449219 68.699219 79.574219 67.5 80.851562 66.523438 C 82.125 65.476562 82.949219 63.976562 84.976562 63.898438 C 90.148438 63.523438 110.101562 72.449219 113.398438 77.101562 C 114.898438 79.199219 114.148438 81.523438 114 83.625 C 113.851562 85.800781 113.324219 88.050781 112.5 90.074219 C 111.675781 92.023438 110.398438 93.976562 108.976562 95.625 C 107.550781 97.273438 105.824219 98.699219 103.949219 99.824219 C 102.074219 100.875 99.898438 101.699219 97.800781 102.148438 C 95.625 102.601562 93.375 102.675781 91.199219 102.375 C 89.023438 102.148438 86.851562 101.476562 84.898438 100.574219 C 82.949219 99.601562 81.074219 98.25 79.5 96.75 C 77.925781 95.25 76.574219 93.375 75.601562 91.5 C 74.625 89.550781 73.949219 87.375 73.574219 85.199219 C 73.273438 83.023438 73.351562 80.773438 73.726562 78.601562 C 74.101562 76.5 74.851562 74.324219 75.898438 72.449219 C 76.949219 70.5 78.375 68.699219 79.949219 67.273438 C 81.601562 65.773438 83.476562 64.5 85.5 63.675781 C 87.449219 62.773438 89.699219 62.175781 91.875 61.949219 C 93.976562 61.800781 96.300781 61.949219 98.398438 62.476562 C 100.5 62.925781 102.675781 63.824219 104.476562 64.949219 C 106.351562 66.148438 108.074219 67.648438 109.425781 69.300781 C 110.773438 70.949219 111.976562 72.976562 112.726562 75 C 113.476562 77.023438 113.925781 79.273438 114.074219 81.449219 C 114.148438 83.625 113.851562 85.875 113.25 87.976562 C 112.648438 90.074219 111.601562 92.101562 110.398438 93.898438 C 109.125 95.699219 107.476562 97.351562 105.75 98.625 C 104.023438 99.898438 102 100.949219 99.898438 101.625 C 97.875 102.226562 95.550781 102.601562 93.375 102.601562 C 91.199219 102.523438 88.949219 102.148438 86.925781 101.398438 C 84.898438 100.648438 82.875 99.523438 81.148438 98.25 C 79.425781 96.898438 76.273438 94.050781 76.726562 93.375 C 77.550781 92.023438 102.449219 99 102.449219 100.574219 C 102.449219 101.25 99.375 101.851562 97.800781 102.148438 C 96.226562 102.449219 94.574219 102.601562 92.925781 102.523438 C 91.273438 102.449219 89.625 102.226562 88.050781 101.773438 C 86.550781 101.324219 84.976562 100.648438 83.550781 99.824219 C 82.199219 99.074219 80.851562 98.023438 79.648438 96.898438 C 78.449219 95.773438 77.398438 94.5 76.574219 93.148438 C 75.675781 91.726562 74.925781 90.226562 74.398438 88.726562 C 73.949219 87.148438 73.574219 85.5 73.425781 83.925781 C 73.351562 82.273438 73.351562 80.625 73.648438 78.976562 C 73.875 77.398438 74.398438 75.75 75 74.25 C 75.601562 72.75 76.5 71.324219 77.476562 70.050781 C 78.449219 68.699219 79.050781 67.875 80.851562 66.523438 C 84.976562 63.300781 102.300781 52.5 103.726562 54 C 105 55.351562 93.226562 72.226562 92.25 71.851562 C 91.800781 71.699219 92.476562 68.625 92.851562 67.050781 C 93.226562 65.550781 93.824219 63.976562 94.574219 62.550781 C 95.324219 61.125 96.226562 59.773438 97.273438 58.574219 C 98.324219 57.375 99.601562 56.25 100.875 55.351562 C 102.226562 54.449219 103.648438 53.699219 105.148438 53.101562 C 106.648438 52.574219 108.226562 52.125 109.800781 51.976562 C 111.449219 51.75 113.101562 51.75 114.675781 51.898438 C 116.25 52.125 117.824219 52.5 119.324219 53.101562 C 120.824219 53.625 122.324219 54.375 123.601562 55.273438 C 124.949219 56.175781 126.148438 57.300781 127.273438 58.5 C 128.324219 59.699219 129.226562 61.050781 129.976562 62.476562 C 130.726562 63.898438 131.324219 65.398438 131.699219 66.976562 C 132.148438 68.550781 132.148438 69.148438 132.300781 71.773438 C 132.898438 82.125 133.425781 136.949219 131.773438 150 C 131.25 154.425781 130.949219 156.226562 129.601562 158.851562 C 128.25 161.476562 125.550781 164.101562 123.601562 165.675781 C 122.175781 166.726562 121.199219 167.25 119.476562 167.773438 C 117.148438 168.523438 112.949219 169.050781 110.476562 168.898438 C 108.675781 168.75 107.625 168.523438 105.976562 167.773438 C 103.726562 166.800781 100.273438 164.398438 98.550781 162.601562 C 97.273438 161.398438 96.601562 160.425781 95.925781 158.851562 C 94.875 156.601562 93.75 150 93.75 150 " clip-rule="nonzero"/></clipPath><clipPath id="989fc02e1b"><path d="M 59 69 L 142 69 L 142 153 L 59 153 Z M 59 69 " clip-rule="nonzero"/></clipPath><clipPath id="471f586476"><path d="M 41.675781 120.585938 L 132.6875 58.363281 L 167.820312 109.753906 L 76.804688 171.976562 Z M 41.675781 120.585938 " clip-rule="nonzero"/></clipPath><clipPath id="a7b6b21fe2"><path d="M 41.675781 120.585938 L 132.6875 58.363281 L 167.820312 109.753906 L 76.804688 171.976562 Z M 41.675781 120.585938 " clip-rule="nonzero"/></clipPath><clipPath id="210a001191"><path d="M 64 77 L 137 77 L 137 150 L 64 150 Z M 64 77 " clip-rule="nonzero"/></clipPath><clipPath id="c3ae2df135"><path d="M 41.675781 120.585938 L 132.6875 58.363281 L 167.820312 109.753906 L 76.804688 171.976562 Z M 41.675781 120.585938 " clip-rule="nonzero"/></clipPath><clipPath id="bd0f106be8"><path d="M 41.675781 120.585938 L 132.6875 58.363281 L 167.820312 109.753906 L 76.804688 171.976562 Z M 41.675781 120.585938 " clip-rule="nonzero"/></clipPath><clipPath id="cdd3cefba9"><path d="M 59 68 L 143 68 L 143 153 L 59 153 Z M 59 68 " clip-rule="nonzero"/></clipPath><clipPath id="b5b4c4b596"><path d="M 41.675781 120.585938 L 132.6875 58.363281 L 167.820312 109.753906 L 76.804688 171.976562 Z M 41.675781 120.585938 " clip-rule="nonzero"/></clipPath><clipPath id="50de5b47bb"><path d="M 41.675781 120.585938 L 132.6875 58.363281 L 167.820312 109.753906 L 76.804688 171.976562 Z M 41.675781 120.585938 " clip-rule="nonzero"/></clipPath></defs><path fill="#e9f1dc" d="M 294.585938 111.511719 C 261.695312 72.960938 274.832031 52.832031 251.425781 34.007812 C 215.414062 5.046875 140.296875 17.308594 93.460938 45.652344 C 36.097656 80.367188 0.101562 151.945312 22.871094 223.300781 C 47.121094 299.292969 129.082031 347.011719 207.542969 344.933594 C 277.605469 343.078125 351.238281 301.339844 365.148438 242.410156 C 366.65625 236.023438 374.074219 201.40625 354.910156 168.515625 C 339.070312 141.328125 320.65625 142.0625 294.585938 111.511719 " fill-opacity="1" fill-rule="nonzero"/><path fill="#1d5f31" d="M 358.875 241.5625 C 358.828125 241.5625 358.78125 241.558594 358.730469 241.546875 C 358.386719 241.46875 358.175781 241.125 358.253906 240.78125 C 361.59375 226.417969 361.285156 211.738281 357.367188 198.324219 C 357.273438 197.988281 357.46875 197.636719 357.804688 197.535156 C 358.140625 197.4375 358.496094 197.632812 358.59375 197.96875 C 362.570312 211.589844 362.882812 226.492188 359.496094 241.070312 C 359.425781 241.367188 359.167969 241.5625 358.875 241.5625 " fill-opacity="1" fill-rule="nonzero"/><path fill="#000000" d="M 21.628906 186.324219 C 21.289062 186.324219 21.007812 186.054688 20.992188 185.714844 C 20.148438 165.367188 23.839844 145.101562 31.972656 125.476562 C 39.945312 106.230469 51.78125 88.546875 67.148438 72.914062 C 67.394531 72.664062 67.796875 72.65625 68.050781 72.90625 C 68.300781 73.152344 68.304688 73.554688 68.058594 73.804688 C 37.300781 105.089844 20.609375 145.863281 22.265625 185.660156 C 22.28125 186.011719 22.007812 186.308594 21.65625 186.324219 C 21.644531 186.324219 21.636719 186.324219 21.628906 186.324219 " fill-opacity="1" fill-rule="nonzero"/><path fill="#000000" d="M 33.796875 212.558594 C 33.511719 212.558594 33.253906 212.367188 33.179688 212.082031 C 22.289062 170.3125 33.542969 125.773438 64.050781 89.878906 C 64.28125 89.609375 64.683594 89.578125 64.949219 89.808594 C 65.21875 90.035156 65.25 90.4375 65.023438 90.707031 C 34.785156 126.277344 23.628906 170.398438 34.414062 211.761719 C 34.503906 212.101562 34.296875 212.449219 33.957031 212.539062 C 33.902344 212.554688 33.847656 212.558594 33.796875 212.558594 " fill-opacity="1" fill-rule="nonzero"/><path fill="#000000" d="M 72.480469 67.617188 L 73.4375 71.078125 L 75.726562 68.386719 C 74.9375 68.183594 73.753906 67.886719 72.480469 67.617188 Z M 73.144531 73.042969 C 73.097656 73.042969 73.054688 73.039062 73.007812 73.027344 C 72.777344 72.980469 72.59375 72.804688 72.53125 72.578125 L 70.972656 66.960938 C 70.917969 66.746094 70.972656 66.519531 71.121094 66.355469 C 71.269531 66.195312 71.492188 66.121094 71.707031 66.164062 C 74.375 66.671875 77.007812 67.414062 77.035156 67.421875 C 77.246094 67.480469 77.410156 67.640625 77.472656 67.847656 C 77.535156 68.054688 77.488281 68.28125 77.347656 68.445312 L 73.628906 72.820312 C 73.507812 72.960938 73.328125 73.042969 73.144531 73.042969 " fill-opacity="1" fill-rule="nonzero"/><path fill="#000000" d="M 214.472656 28.105469 C 214.429688 28.105469 214.386719 28.101562 214.347656 28.089844 C 198.46875 24.863281 182.050781 24.527344 165.546875 27.089844 C 165.203125 27.140625 164.875 26.90625 164.820312 26.558594 C 164.765625 26.210938 165.003906 25.882812 165.351562 25.832031 C 182.003906 23.246094 198.574219 23.585938 214.601562 26.84375 C 214.945312 26.914062 215.167969 27.25 215.097656 27.59375 C 215.039062 27.894531 214.773438 28.105469 214.472656 28.105469 " fill-opacity="1" fill-rule="nonzero"/><path fill="#000000" d="M 151.378906 29.988281 C 151.097656 29.988281 150.835938 29.796875 150.761719 29.507812 C 150.675781 29.164062 150.882812 28.820312 151.222656 28.734375 C 153.40625 28.171875 155.628906 27.660156 157.828125 27.199219 C 158.171875 27.128906 158.507812 27.347656 158.582031 27.691406 C 158.652344 28.039062 158.433594 28.375 158.085938 28.449219 C 155.90625 28.902344 153.703125 29.414062 151.539062 29.96875 C 151.484375 29.980469 151.429688 29.988281 151.378906 29.988281 " fill-opacity="1" fill-rule="nonzero"/><path fill="#000000" d="M 143.25 42.003906 C 142.988281 42.003906 142.742188 41.84375 142.648438 41.582031 C 142.53125 41.25 142.703125 40.882812 143.03125 40.765625 C 162.671875 33.714844 182.671875 31.269531 202.476562 33.492188 C 202.828125 33.535156 203.078125 33.851562 203.039062 34.199219 C 203 34.546875 202.6875 34.796875 202.335938 34.761719 C 182.726562 32.558594 162.917969 34.980469 143.464844 41.964844 C 143.394531 41.992188 143.320312 42.003906 143.25 42.003906 " fill-opacity="1" fill-rule="nonzero"/><path fill="#000000" d="M 221.984375 28.945312 C 221.679688 28.945312 221.371094 29.003906 221.078125 29.136719 C 220.53125 29.378906 220.109375 29.820312 219.894531 30.382812 C 219.679688 30.941406 219.699219 31.546875 219.941406 32.097656 C 220.183594 32.644531 220.625 33.0625 221.183594 33.277344 C 221.746094 33.492188 222.351562 33.476562 222.898438 33.234375 C 224.03125 32.730469 224.542969 31.402344 224.039062 30.273438 C 223.667969 29.441406 222.84375 28.945312 221.984375 28.945312 Z M 221.988281 34.703125 C 221.566406 34.703125 221.136719 34.625 220.726562 34.46875 C 219.851562 34.132812 219.160156 33.472656 218.777344 32.617188 C 218.394531 31.757812 218.367188 30.800781 218.707031 29.925781 C 219.042969 29.046875 219.699219 28.355469 220.558594 27.972656 C 222.328125 27.183594 224.414062 27.984375 225.203125 29.757812 C 225.992188 31.527344 225.191406 33.609375 223.417969 34.398438 C 222.960938 34.601562 222.476562 34.703125 221.988281 34.703125 " fill-opacity="1" fill-rule="nonzero"/><path fill="#000000" d="M 156.246094 91.796875 C 155.894531 91.796875 155.609375 91.511719 155.609375 91.160156 L 155.609375 87.863281 C 155.609375 87.511719 155.894531 87.226562 156.246094 87.226562 C 156.597656 87.226562 156.882812 87.511719 156.882812 87.863281 L 156.882812 91.160156 C 156.882812 91.511719 156.597656 91.796875 156.246094 91.796875 " fill-opacity="1" fill-rule="nonzero"/><path fill="#000000" d="M 156.246094 99.472656 C 155.894531 99.472656 155.609375 99.1875 155.609375 98.835938 L 155.609375 95.539062 C 155.609375 95.1875 155.894531 94.902344 156.246094 94.902344 C 156.597656 94.902344 156.882812 95.1875 156.882812 95.539062 L 156.882812 98.835938 C 156.882812 99.1875 156.597656 99.472656 156.246094 99.472656 " fill-opacity="1" fill-rule="nonzero"/><path fill="#000000" d="M 154.054688 93.988281 L 150.761719 93.988281 C 150.410156 93.988281 150.125 93.703125 150.125 93.347656 C 150.125 92.996094 150.410156 92.710938 150.761719 92.710938 L 154.054688 92.710938 C 154.40625 92.710938 154.691406 92.996094 154.691406 93.347656 C 154.691406 93.703125 154.40625 93.988281 154.054688 93.988281 " fill-opacity="1" fill-rule="nonzero"/><path fill="#000000" d="M 161.730469 93.988281 L 158.4375 93.988281 C 158.085938 93.988281 157.800781 93.703125 157.800781 93.347656 C 157.800781 92.996094 158.085938 92.710938 158.4375 92.710938 L 161.730469 92.710938 C 162.085938 92.710938 162.367188 92.996094 162.367188 93.347656 C 162.367188 93.703125 162.085938 93.988281 161.730469 93.988281 " fill-opacity="1" fill-rule="nonzero"/><path fill="#000000" d="M 61.953125 197.132812 C 61.601562 197.132812 61.316406 196.847656 61.316406 196.492188 L 61.316406 193.199219 C 61.316406 192.847656 61.601562 192.5625 61.953125 192.5625 C 62.304688 192.5625 62.589844 192.847656 62.589844 193.199219 L 62.589844 196.492188 C 62.589844 196.847656 62.304688 197.132812 61.953125 197.132812 " fill-opacity="1" fill-rule="nonzero"/><path fill="#000000" d="M 61.953125 204.804688 C 61.601562 204.804688 61.316406 204.519531 61.316406 204.171875 L 61.316406 200.875 C 61.316406 200.523438 61.601562 200.234375 61.953125 200.234375 C 62.304688 200.234375 62.589844 200.523438 62.589844 200.875 L 62.589844 204.171875 C 62.589844 204.519531 62.304688 204.804688 61.953125 204.804688 " fill-opacity="1" fill-rule="nonzero"/><path fill="#000000" d="M 59.765625 199.320312 L 56.46875 199.320312 C 56.117188 199.320312 55.832031 199.035156 55.832031 198.683594 C 55.832031 198.332031 56.117188 198.046875 56.46875 198.046875 L 59.765625 198.046875 C 60.117188 198.046875 60.402344 198.332031 60.402344 198.683594 C 60.402344 199.035156 60.117188 199.320312 59.765625 199.320312 " fill-opacity="1" fill-rule="nonzero"/><path fill="#000000" d="M 67.441406 199.320312 L 64.144531 199.320312 C 63.792969 199.320312 63.507812 199.035156 63.507812 198.683594 C 63.507812 198.332031 63.792969 198.046875 64.144531 198.046875 L 67.441406 198.046875 C 67.792969 198.046875 68.078125 198.332031 68.078125 198.683594 C 68.078125 199.035156 67.792969 199.320312 67.441406 199.320312 " fill-opacity="1" fill-rule="nonzero"/><path fill="#000000" d="M 271.386719 205.824219 C 271.035156 205.824219 270.75 205.539062 270.75 205.1875 L 270.75 201.890625 C 270.75 201.539062 271.035156 201.253906 271.386719 201.253906 C 271.738281 201.253906 272.023438 201.539062 272.023438 201.890625 L 272.023438 205.1875 C 272.023438 205.539062 271.738281 205.824219 271.386719 205.824219 " fill-opacity="1" fill-rule="nonzero"/><path fill="#000000" d="M 271.386719 213.5 C 271.035156 213.5 270.75 213.214844 270.75 212.859375 L 270.75 209.570312 C 270.75 209.214844 271.035156 208.929688 271.386719 208.929688 C 271.738281 208.929688 272.023438 209.214844 272.023438 209.570312 L 272.023438 212.859375 C 272.023438 213.214844 271.738281 213.5 271.386719 213.5 " fill-opacity="1" fill-rule="nonzero"/><path fill="#000000" d="M 269.195312 208.015625 L 265.902344 208.015625 C 265.550781 208.015625 265.265625 207.730469 265.265625 207.375 C 265.265625 207.027344 265.550781 206.742188 265.902344 206.742188 L 269.195312 206.742188 C 269.546875 206.742188 269.835938 207.027344 269.835938 207.375 C 269.835938 207.730469 269.546875 208.015625 269.195312 208.015625 " fill-opacity="1" fill-rule="nonzero"/><path fill="#000000" d="M 276.871094 208.015625 L 273.578125 208.015625 C 273.226562 208.015625 272.941406 207.730469 272.941406 207.375 C 272.941406 207.023438 273.226562 206.738281 273.578125 206.738281 L 276.871094 206.738281 C 277.222656 206.738281 277.507812 207.023438 277.507812 207.375 C 277.507812 207.730469 277.222656 208.015625 276.871094 208.015625 " fill-opacity="1" fill-rule="nonzero"/><path fill="#1d5f31" d="M 37.3125 345.175781 C 37.3125 345.175781 35.859375 258.453125 94.136719 225.707031 C 115.699219 213.597656 141.503906 211.953125 166.636719 213.027344 C 184.320312 213.785156 201.488281 213.253906 217.421875 222.785156 C 240.054688 236.328125 259.457031 259.667969 271.460938 295.464844 L 282.355469 360.5 L 37.3125 345.175781 " fill-opacity="1" fill-rule="nonzero"/><path fill="#1d5f31" d="M 135.144531 356.65625 C 65.6875 355.667969 44.828125 363.585938 38.847656 352.414062 C 31.152344 338.039062 53.390625 301.945312 81.890625 294.949219 C 88.992188 293.207031 98.335938 292.8125 174.113281 332.972656 C 200.691406 347.058594 208.152344 351.671875 207.273438 355.152344 C 205.75 361.199219 180.71875 357.308594 135.144531 356.65625 " fill-opacity="1" fill-rule="nonzero"/><path fill="#ffffff" d="M 118.804688 301.269531 C 118.753906 301.269531 118.703125 301.261719 118.652344 301.25 C 118.308594 301.164062 118.101562 300.816406 118.1875 300.476562 C 124.074219 277.039062 140.996094 257.777344 141.164062 257.582031 C 141.398438 257.320312 141.800781 257.296875 142.066406 257.53125 C 142.328125 257.761719 142.351562 258.164062 142.121094 258.429688 C 141.949219 258.617188 125.234375 277.65625 119.425781 300.785156 C 119.351562 301.074219 119.089844 301.269531 118.804688 301.269531 " fill-opacity="1" fill-rule="nonzero"/><path fill="#ffffff" d="M 174.113281 332.972656 C 158.441406 324.667969 145.617188 318.101562 135.058594 312.917969 C 124.851562 319.71875 112.542969 332.914062 113.941406 356.617188 C 120.453125 356.546875 127.503906 356.550781 135.144531 356.65625 C 180.71875 357.308594 205.75 361.199219 207.273438 355.152344 C 208.152344 351.671875 200.691406 347.058594 174.113281 332.972656 " fill-opacity="1" fill-rule="nonzero"/><path fill="#000000" d="M 122.867188 355.933594 C 126.949219 355.933594 131.058594 355.964844 135.152344 356.019531 C 149.554688 356.226562 162.058594 356.761719 172.105469 357.191406 C 193.078125 358.089844 205.742188 358.632812 206.65625 354.996094 C 207.421875 351.960938 198.71875 346.734375 173.816406 333.535156 C 158.96875 325.667969 145.945312 318.976562 135.109375 313.652344 C 125.007812 320.484375 113.425781 333.320312 114.546875 355.976562 C 117.300781 355.949219 120.078125 355.933594 122.867188 355.933594 Z M 192.890625 359.125 C 187.457031 359.125 180.53125 358.828125 172.050781 358.464844 C 162.011719 358.035156 149.515625 357.5 135.132812 357.296875 C 128.042969 357.195312 120.917969 357.179688 113.949219 357.253906 C 113.605469 357.261719 113.324219 356.996094 113.304688 356.65625 C 111.898438 332.792969 124.167969 319.410156 134.707031 312.386719 C 134.894531 312.261719 135.136719 312.246094 135.339844 312.347656 C 146.253906 317.703125 159.402344 324.457031 174.414062 332.410156 C 201.660156 346.851562 208.894531 351.328125 207.894531 355.308594 C 207.152344 358.242188 202.242188 359.125 192.890625 359.125 " fill-opacity="1" fill-rule="nonzero"/><path fill="#ffffff" d="M 132.773438 312.4375 C 132.664062 312.4375 132.550781 312.40625 132.449219 312.347656 C 132.34375 312.285156 121.46875 305.886719 109.300781 300.902344 C 108.976562 300.765625 108.820312 300.394531 108.953125 300.066406 C 109.089844 299.742188 109.460938 299.585938 109.785156 299.722656 C 122.039062 304.742188 132.988281 311.1875 133.097656 311.25 C 133.402344 311.429688 133.503906 311.820312 133.324219 312.121094 C 133.207031 312.324219 132.992188 312.4375 132.773438 312.4375 " fill-opacity="1" fill-rule="nonzero"/><path fill="#ffffff" d="M 116.425781 300.292969 C 116.1875 300.292969 115.964844 300.164062 115.851562 299.9375 C 111.230469 290.574219 114.859375 278.742188 115.019531 278.242188 C 115.125 277.90625 115.480469 277.71875 115.816406 277.824219 C 116.152344 277.929688 116.339844 278.289062 116.234375 278.625 C 116.195312 278.742188 112.601562 290.476562 116.996094 299.375 C 117.152344 299.691406 117.019531 300.074219 116.707031 300.226562 C 116.617188 300.273438 116.519531 300.292969 116.425781 300.292969 " fill-opacity="1" fill-rule="nonzero"/><path fill="#ffffff" d="M 160.679688 164.199219 L 147.433594 207.195312 C 147.433594 207.195312 115.191406 212.394531 100.148438 223.675781 C 100.148438 223.675781 125.371094 213.8125 140.6875 224.386719 C 156.003906 234.957031 194.367188 238.941406 216.417969 225.234375 C 216.417969 225.234375 186 212.132812 185.765625 211.296875 C 185.378906 209.90625 186.980469 205.972656 186.980469 205.972656 C 186.980469 205.972656 190.554688 208.171875 195.34375 209.441406 C 198.925781 210.390625 201.832031 207.816406 203.414062 204.453125 C 207.019531 196.785156 209.40625 186.636719 209.40625 186.636719 L 215.050781 185.234375 C 214.355469 176.863281 212.386719 172.789062 213.921875 165.113281 C 215.183594 158.804688 219.953125 157.652344 219.953125 142.695312 L 178.96875 127.699219 L 160.691406 146.671875 C 160.691406 146.671875 158.851562 143.230469 154.253906 144.699219 C 149.660156 146.171875 148.917969 166.28125 153.921875 167.210938 C 157.359375 167.851562 160.679688 164.199219 160.679688 164.199219 " fill-opacity="1" fill-rule="nonzero"/><path fill="#000000" d="M 122.476562 218.820312 C 128.847656 218.820312 135.539062 220.054688 141.050781 223.859375 C 148.605469 229.074219 162.015625 232.683594 176.054688 233.277344 C 191.335938 233.925781 205.109375 231.109375 215.027344 225.328125 C 212.617188 224.285156 206.75 221.742188 200.921875 219.160156 C 185.378906 212.28125 185.273438 211.90625 185.148438 211.46875 C 184.726562 209.945312 186.109375 206.421875 186.390625 205.730469 C 186.464844 205.558594 186.605469 205.425781 186.785156 205.367188 C 186.960938 205.308594 187.15625 205.332031 187.316406 205.429688 C 187.351562 205.453125 190.871094 207.597656 195.503906 208.824219 C 199.753906 209.949219 202.191406 205.554688 202.839844 204.179688 C 206.375 196.660156 208.765625 186.59375 208.785156 186.492188 C 208.839844 186.257812 209.023438 186.078125 209.253906 186.019531 L 214.367188 184.746094 C 214.144531 182.289062 213.804688 180.167969 213.507812 178.28125 C 212.828125 173.992188 212.238281 170.289062 213.296875 164.988281 C 213.746094 162.75 214.617188 161.132812 215.539062 159.421875 C 217.28125 156.183594 219.253906 152.523438 219.3125 143.140625 L 179.140625 128.4375 L 161.148438 147.113281 C 161.007812 147.257812 160.804688 147.328125 160.605469 147.300781 C 160.402344 147.273438 160.226562 147.152344 160.128906 146.972656 C 160.066406 146.851562 158.457031 144.023438 154.449219 145.304688 C 152.324219 145.988281 150.765625 152.554688 151.175781 159.082031 C 151.449219 163.367188 152.570312 166.3125 154.039062 166.585938 C 157.082031 167.148438 160.179688 163.804688 160.210938 163.773438 C 160.410156 163.550781 160.738281 163.5 160.996094 163.648438 C 161.257812 163.792969 161.378906 164.101562 161.289062 164.386719 L 148.042969 207.382812 C 147.972656 207.613281 147.773438 207.785156 147.535156 207.824219 C 147.242188 207.871094 120.324219 212.296875 104.5 221.566406 C 108.738281 220.34375 115.410156 218.820312 122.476562 218.820312 Z M 180.4375 234.660156 C 164.234375 234.660156 148.59375 230.617188 140.324219 224.910156 C 125.46875 214.652344 100.628906 224.171875 100.378906 224.265625 C 100.085938 224.386719 99.746094 224.265625 99.589844 223.984375 C 99.4375 223.707031 99.511719 223.355469 99.765625 223.164062 C 113.863281 212.59375 143.203125 207.273438 146.941406 206.632812 L 159.410156 166.152344 C 158.023438 167.167969 155.964844 168.242188 153.804688 167.839844 C 150.746094 167.269531 150.058594 161.582031 149.90625 159.164062 C 149.5625 153.730469 150.648438 145.1875 154.0625 144.09375 C 157.738281 142.917969 159.867188 144.644531 160.757812 145.683594 L 178.511719 127.253906 C 178.683594 127.074219 178.949219 127.011719 179.1875 127.101562 L 220.171875 142.097656 C 220.421875 142.191406 220.589844 142.429688 220.589844 142.695312 C 220.589844 152.730469 218.414062 156.773438 216.660156 160.023438 C 215.746094 161.71875 214.957031 163.1875 214.546875 165.238281 C 213.53125 170.316406 214.074219 173.742188 214.765625 178.082031 C 215.089844 180.128906 215.457031 182.445312 215.683594 185.179688 C 215.710938 185.492188 215.507812 185.777344 215.203125 185.851562 L 209.933594 187.164062 C 209.460938 189.085938 207.191406 197.917969 203.992188 204.722656 C 202.011719 208.925781 198.636719 210.972656 195.179688 210.054688 C 191.503906 209.085938 188.566406 207.59375 187.308594 206.894531 C 186.78125 208.328125 186.257812 210.164062 186.347656 210.972656 C 188.144531 212.199219 205.300781 219.75 216.671875 224.648438 C 216.886719 224.742188 217.035156 224.949219 217.054688 225.1875 C 217.070312 225.425781 216.957031 225.648438 216.753906 225.773438 C 206.585938 232.097656 193.335938 234.660156 180.4375 234.660156 " fill-opacity="1" fill-rule="nonzero"/><path fill="#000000" d="M 160.679688 147.429688 C 160.679688 147.429688 166.96875 147.125 166.851562 152.640625 C 166.738281 158.152344 163.316406 167.625 168.90625 171.046875 C 174.5 174.472656 177.921875 159.414062 177.921875 154.960938 C 177.921875 150.507812 182.367188 138.421875 190.984375 139.5 C 200.496094 140.691406 205.375 147.445312 219.949219 146.039062 C 222.148438 145.828125 230.167969 145.054688 232.476562 139.921875 C 234.097656 136.308594 232.140625 132.207031 231.292969 130.496094 C 229.9375 127.75 225.59375 120.707031 204.203125 114.242188 C 189 109.648438 181.398438 107.351562 175.183594 110.222656 C 164.710938 115.054688 159.308594 130.175781 160.679688 147.429688 " fill-opacity="1" fill-rule="nonzero"/><path fill="#ffffff" d="M 186.980469 205.972656 L 176.105469 199.378906 C 173.902344 198.042969 172.292969 195.921875 171.597656 193.445312 L 169.601562 186.34375 L 186.980469 205.972656 " fill-opacity="1" fill-rule="nonzero"/><path fill="#000000" d="M 186.980469 206.609375 C 186.871094 206.609375 186.757812 206.578125 186.652344 206.519531 L 175.773438 199.921875 C 173.425781 198.496094 171.726562 196.261719 170.980469 193.617188 L 168.988281 186.519531 C 168.890625 186.179688 169.089844 185.828125 169.425781 185.730469 C 169.765625 185.636719 170.117188 185.835938 170.210938 186.175781 L 172.210938 193.273438 C 172.863281 195.601562 174.367188 197.578125 176.433594 198.832031 L 187.3125 205.425781 C 187.613281 205.609375 187.710938 206 187.527344 206.300781 C 187.40625 206.5 187.199219 206.609375 186.980469 206.609375 " fill-opacity="1" fill-rule="nonzero"/><path fill="#1d5f31" d="M 197.089844 190.21875 C 197.046875 190.21875 197.011719 190.214844 196.96875 190.207031 L 177.207031 186.480469 C 167.609375 184.671875 160.789062 176.273438 160.984375 166.507812 L 161.167969 157.421875 C 161.175781 157.070312 161.46875 156.785156 161.820312 156.796875 C 162.167969 156.804688 162.449219 157.097656 162.441406 157.449219 L 162.257812 166.535156 C 162.074219 175.671875 168.460938 183.535156 177.441406 185.230469 L 197.207031 188.957031 C 197.550781 189.019531 197.777344 189.355469 197.714844 189.699219 C 197.65625 190.003906 197.390625 190.21875 197.089844 190.21875 " fill-opacity="1" fill-rule="nonzero"/><path fill="#1d5f31" d="M 163.238281 144.953125 C 163.199219 144.953125 163.164062 144.949219 163.125 144.945312 C 162.777344 144.878906 162.546875 144.550781 162.609375 144.203125 C 162.75 143.425781 166.195312 125.039062 179.386719 116.214844 C 185.84375 111.894531 193.535156 110.65625 202.25 112.542969 C 202.59375 112.617188 202.8125 112.957031 202.738281 113.300781 C 202.664062 113.644531 202.328125 113.863281 201.980469 113.789062 C 193.617188 111.980469 186.253906 113.152344 180.097656 117.269531 C 167.347656 125.800781 163.898438 144.246094 163.867188 144.429688 C 163.808594 144.738281 163.542969 144.953125 163.238281 144.953125 " fill-opacity="1" fill-rule="nonzero"/><path fill="#1d5f31" d="M 203.65625 192.8125 C 205.285156 190.40625 204.621094 187.109375 202.167969 185.453125 C 199.714844 183.792969 196.410156 184.402344 194.78125 186.808594 C 193.152344 189.21875 193.816406 192.515625 196.269531 194.171875 C 198.722656 195.832031 202.027344 195.222656 203.65625 192.8125 " fill-opacity="1" fill-rule="nonzero"/><path fill="#1d5f31" d="M 174.863281 159.667969 C 177.191406 151.855469 173.269531 143.789062 166.101562 141.652344 C 165.316406 141.421875 162.355469 140.855469 161.5625 140.777344 C 155.144531 140.15625 150.988281 144.984375 148.917969 151.941406 C 146.679688 159.441406 148.417969 167.085938 155.046875 169.578125 C 155.320312 169.683594 157.324219 170.179688 157.617188 170.226562 C 165.632812 171.578125 172.535156 167.480469 174.863281 159.667969 " fill-opacity="1" fill-rule="nonzero"/><path fill="#95c251" d="M 171.738281 158.886719 C 173.914062 151.027344 169.835938 143.039062 162.628906 141.046875 C 155.421875 139.054688 147.820312 143.808594 145.644531 151.667969 C 143.472656 159.523438 147.550781 167.511719 154.757812 169.503906 C 161.964844 171.5 169.566406 166.742188 171.738281 158.886719 " fill-opacity="1" fill-rule="nonzero"/><path fill="#000000" d="M 305.140625 352.285156 L 218.863281 352.285156 L 282.820312 253.914062 C 284.820312 250.84375 288.304688 248.980469 292.046875 248.980469 L 362.066406 248.980469 C 366.515625 248.980469 369.214844 253.738281 366.84375 257.390625 L 305.140625 352.285156 " fill-opacity="1" fill-rule="nonzero"/><path fill="#e9f1dc" d="M 323.542969 283.472656 C 320.742188 287.785156 314.710938 291.277344 310.078125 291.277344 C 305.445312 291.277344 303.960938 287.785156 306.761719 283.472656 C 309.566406 279.160156 315.59375 275.667969 320.230469 275.667969 C 324.863281 275.667969 326.347656 279.160156 323.542969 283.472656 " fill-opacity="1" fill-rule="nonzero"/><path fill="#000000" d="M 302.671875 360.5 L 146.75 360.5 C 145.21875 360.5 143.972656 359.257812 143.972656 357.722656 L 143.972656 351.582031 L 305.449219 351.582031 L 305.449219 357.722656 C 305.449219 359.257812 304.207031 360.5 302.671875 360.5 " fill-opacity="1" fill-rule="nonzero"/><path fill="#ffffff" d="M 300.652344 353.011719 L 226.554688 353.011719 C 226.203125 353.011719 225.917969 352.726562 225.917969 352.375 C 225.917969 352.023438 226.203125 351.738281 226.554688 351.738281 L 300.652344 351.738281 C 301 351.738281 301.289062 352.023438 301.289062 352.375 C 301.289062 352.726562 301 353.011719 300.652344 353.011719 " fill-opacity="1" fill-rule="nonzero"/><path fill="#95c251" d="M 214.554688 108.582031 C 213.820312 99.105469 214.550781 85.609375 222.683594 74.335938 C 245.175781 43.171875 310.824219 47.742188 323.582031 73.175781 C 330.054688 86.085938 323.046875 104.660156 312.585938 114.882812 C 297.117188 130 271.019531 129.859375 255.09375 120.769531 C 239.925781 112.117188 235.214844 96.058594 225.585938 97.554688 C 220.230469 98.382812 216.664062 104.125 214.554688 108.582031 " fill-opacity="1" fill-rule="nonzero"/><path fill="#ffffff" d="M 301.277344 82.949219 L 246 82.949219 C 245.648438 82.949219 245.363281 82.664062 245.363281 82.3125 C 245.363281 81.960938 245.648438 81.675781 246 81.675781 L 301.277344 81.675781 C 301.628906 81.675781 301.914062 81.960938 301.914062 82.3125 C 301.914062 82.664062 301.628906 82.949219 301.277344 82.949219 " fill-opacity="1" fill-rule="nonzero"/><path fill="#ffffff" d="M 286.574219 92.664062 L 258.761719 92.664062 C 258.410156 92.664062 258.125 92.378906 258.125 92.027344 C 258.125 91.671875 258.410156 91.390625 258.761719 91.390625 L 286.574219 91.390625 C 286.925781 91.390625 287.207031 91.671875 287.207031 92.027344 C 287.207031 92.378906 286.925781 92.664062 286.574219 92.664062 " fill-opacity="1" fill-rule="nonzero"/><path fill="#ffffff" d="M 357.46875 175.824219 C 358.835938 173.902344 374.253906 151.433594 364.570312 125.808594 C 357.769531 107.820312 340.480469 93.242188 320.398438 92.457031 C 317.015625 92.324219 295.652344 91.492188 284.1875 108.554688 C 276.46875 120.046875 275.621094 136.101562 283.125 147.78125 C 292.042969 161.667969 309.078125 163.644531 311.605469 163.898438 C 329.296875 165.679688 339.046875 154.332031 348.695312 159.808594 C 354.597656 163.160156 356.632812 170.644531 357.46875 175.824219 " fill-opacity="1" fill-rule="nonzero"/><path fill="#000000" d="M 342.910156 157.667969 C 344.980469 157.667969 346.996094 158.113281 349.007812 159.253906 C 353.414062 161.757812 356.371094 166.765625 357.820312 174.164062 C 361.382812 168.625 372.515625 148.628906 363.972656 126.03125 C 356.808594 107.070312 339.289062 93.832031 320.375 93.09375 C 313.035156 92.808594 294.882812 93.777344 284.714844 108.910156 C 276.949219 120.46875 276.519531 136.316406 283.660156 147.441406 C 292.164062 160.675781 308.484375 162.945312 311.667969 163.261719 C 320.09375 164.113281 326.632812 161.953125 332.398438 160.050781 C 336.160156 158.808594 339.605469 157.667969 342.910156 157.667969 Z M 357.46875 176.460938 C 357.417969 176.460938 357.371094 176.457031 357.320312 176.445312 C 357.070312 176.386719 356.878906 176.183594 356.835938 175.925781 C 355.578125 168.070312 352.730469 162.835938 348.378906 160.363281 C 343.644531 157.675781 338.859375 159.257812 332.800781 161.257812 C 326.910156 163.203125 320.242188 165.40625 311.539062 164.53125 C 306.921875 164.066406 291.1875 161.511719 282.589844 148.128906 C 275.175781 136.589844 275.617188 120.167969 283.660156 108.199219 C 294.183594 92.53125 312.875 91.527344 320.425781 91.820312 C 330.171875 92.203125 339.65625 95.78125 347.859375 102.175781 C 355.59375 108.210938 361.746094 116.523438 365.167969 125.582031 C 374.890625 151.304688 359.746094 173.722656 357.984375 176.195312 C 357.863281 176.363281 357.667969 176.460938 357.46875 176.460938 " fill-opacity="1" fill-rule="nonzero"/><path fill="#000000" d="M 347.746094 125.101562 L 297.175781 125.101562 C 296.824219 125.101562 296.539062 124.8125 296.539062 124.460938 C 296.539062 124.109375 296.824219 123.824219 297.175781 123.824219 L 347.746094 123.824219 C 348.097656 123.824219 348.382812 124.109375 348.382812 124.460938 C 348.382812 124.8125 348.097656 125.101562 347.746094 125.101562 " fill-opacity="1" fill-rule="nonzero"/><path fill="#000000" d="M 331.132812 131.691406 L 313.039062 131.691406 C 312.6875 131.691406 312.402344 131.40625 312.402344 131.050781 C 312.402344 130.699219 312.6875 130.414062 313.039062 130.414062 L 331.132812 130.414062 C 331.484375 130.414062 331.769531 130.699219 331.769531 131.050781 C 331.769531 131.40625 331.484375 131.691406 331.132812 131.691406 " fill-opacity="1" fill-rule="nonzero"/><path fill="#ffffff" d="M 120.585938 188.714844 L 102.210938 188.714844 C 101.375 188.714844 100.699219 188.042969 100.699219 187.207031 L 100.699219 69.285156 C 100.699219 68.449219 101.375 67.777344 102.210938 67.777344 L 120.585938 67.777344 C 121.417969 67.777344 122.09375 68.449219 122.09375 69.285156 L 122.09375 187.207031 C 122.09375 188.042969 121.417969 188.714844 120.585938 188.714844 " fill-opacity="1" fill-rule="nonzero"/><path fill="#ffffff" d="M 132.136719 180.28125 C 132.136719 191.492188 123.046875 200.582031 111.832031 200.582031 C 100.621094 200.582031 91.53125 191.492188 91.53125 180.28125 C 91.53125 169.066406 100.621094 159.976562 111.832031 159.976562 C 123.046875 159.976562 132.136719 169.066406 132.136719 180.28125 " fill-opacity="1" fill-rule="nonzero"/><path fill="#e9f1dc" d="M 119.464844 151.660156 L 102.582031 151.660156 L 102.582031 72.835938 L 119.464844 72.835938 L 119.464844 151.660156 " fill-opacity="1" fill-rule="nonzero"/><path fill="#1d5f31" d="M 119.542969 171.765625 L 102.660156 171.765625 L 102.660156 147.769531 L 119.542969 147.769531 L 119.542969 171.765625 " fill-opacity="1" fill-rule="nonzero"/><path fill="#1d5f31" d="M 130.605469 180.351562 C 130.605469 190.640625 122.261719 198.980469 111.972656 198.980469 C 101.683594 198.980469 93.34375 190.640625 93.34375 180.351562 C 93.34375 170.0625 101.683594 161.722656 111.972656 161.722656 C 122.261719 161.722656 130.605469 170.0625 130.605469 180.351562 " fill-opacity="1" fill-rule="nonzero"/><path fill="#1d5f31" d="M 98.558594 162.953125 L 85.476562 162.953125 L 85.476562 161.273438 L 98.558594 161.273438 L 98.558594 162.953125 " fill-opacity="1" fill-rule="nonzero"/><path fill="#1d5f31" d="M 98.390625 146.011719 L 85.308594 146.011719 L 85.308594 144.390625 L 98.390625 144.390625 L 98.390625 146.011719 " fill-opacity="1" fill-rule="nonzero"/><path fill="#1d5f31" d="M 98.222656 158.59375 L 88.664062 158.59375 L 88.664062 156.804688 L 98.222656 156.804688 L 98.222656 158.59375 " fill-opacity="1" fill-rule="nonzero"/><path fill="#1d5f31" d="M 98.222656 154.402344 L 88.664062 154.402344 L 88.664062 152.890625 L 98.222656 152.890625 L 98.222656 154.402344 " fill-opacity="1" fill-rule="nonzero"/><path fill="#1d5f31" d="M 98.390625 150.210938 L 88.832031 150.210938 L 88.832031 148.417969 L 98.390625 148.417969 L 98.390625 150.210938 " fill-opacity="1" fill-rule="nonzero"/><path fill="#1d5f31" d="M 98.722656 128.910156 L 85.644531 128.910156 L 85.644531 127.289062 L 98.722656 127.289062 L 98.722656 128.910156 " fill-opacity="1" fill-rule="nonzero"/><path fill="#1d5f31" d="M 98.558594 141.488281 L 89 141.488281 L 89 139.699219 L 98.558594 139.699219 L 98.558594 141.488281 " fill-opacity="1" fill-rule="nonzero"/><path fill="#1d5f31" d="M 98.554688 137.296875 L 89 137.296875 L 89 135.785156 L 98.554688 135.785156 L 98.554688 137.296875 " fill-opacity="1" fill-rule="nonzero"/><path fill="#1d5f31" d="M 98.722656 133.105469 L 89.164062 133.105469 L 89.164062 131.316406 L 98.722656 131.316406 L 98.722656 133.105469 " fill-opacity="1" fill-rule="nonzero"/><path fill="#1d5f31" d="M 99.058594 111.636719 L 85.976562 111.636719 L 85.976562 110.015625 L 99.058594 110.015625 L 99.058594 111.636719 " fill-opacity="1" fill-rule="nonzero"/><path fill="#1d5f31" d="M 98.890625 124.214844 L 89.332031 124.214844 L 89.332031 122.425781 L 98.890625 122.425781 L 98.890625 124.214844 " fill-opacity="1" fill-rule="nonzero"/><path fill="#1d5f31" d="M 98.890625 120.023438 L 89.335938 120.023438 L 89.335938 118.511719 L 98.890625 118.511719 L 98.890625 120.023438 " fill-opacity="1" fill-rule="nonzero"/><path fill="#1d5f31" d="M 99.058594 115.832031 L 89.5 115.832031 L 89.5 114.039062 L 99.058594 114.039062 L 99.058594 115.832031 " fill-opacity="1" fill-rule="nonzero"/><path fill="#1d5f31" d="M 99.058594 95.035156 L 85.976562 95.035156 L 85.976562 93.414062 L 99.058594 93.414062 L 99.058594 95.035156 " fill-opacity="1" fill-rule="nonzero"/><path fill="#1d5f31" d="M 98.890625 107.613281 L 89.335938 107.613281 L 89.335938 105.820312 L 98.890625 105.820312 L 98.890625 107.613281 " fill-opacity="1" fill-rule="nonzero"/><path fill="#1d5f31" d="M 98.890625 103.421875 L 89.332031 103.421875 L 89.332031 101.910156 L 98.890625 101.910156 L 98.890625 103.421875 " fill-opacity="1" fill-rule="nonzero"/><path fill="#1d5f31" d="M 99.058594 99.226562 L 89.5 99.226562 L 89.5 97.4375 L 99.058594 97.4375 L 99.058594 99.226562 " fill-opacity="1" fill-rule="nonzero"/><path fill="#1d5f31" d="M 98.890625 78.933594 L 85.8125 78.933594 L 85.8125 77.3125 L 98.890625 77.3125 L 98.890625 78.933594 " fill-opacity="1" fill-rule="nonzero"/><path fill="#1d5f31" d="M 98.722656 91.515625 L 89.164062 91.515625 L 89.164062 89.722656 L 98.722656 89.722656 L 98.722656 91.515625 " fill-opacity="1" fill-rule="nonzero"/><path fill="#1d5f31" d="M 98.722656 87.320312 L 89.164062 87.320312 L 89.164062 85.808594 L 98.722656 85.808594 L 98.722656 87.320312 " fill-opacity="1" fill-rule="nonzero"/><path fill="#1d5f31" d="M 98.890625 83.128906 L 89.332031 83.128906 L 89.332031 81.339844 L 98.890625 81.339844 L 98.890625 83.128906 " fill-opacity="1" fill-rule="nonzero"/><path fill="#e9f1dc" d="M 46.042969 337.457031 C 46.042969 337.457031 25.433594 292.289062 37.253906 233.730469 C 37.253906 233.730469 69.191406 260.496094 57.679688 337.457031 L 46.042969 337.457031 " fill-opacity="1" fill-rule="nonzero"/><path fill="#000000" d="M 46.457031 336.824219 L 57.128906 336.824219 C 62.914062 297.574219 57.125 271.800781 51.234375 257.070312 C 46.03125 244.0625 39.839844 237.15625 37.65625 234.980469 C 31.863281 264.644531 34.539062 290.683594 37.832031 307.386719 C 41.082031 323.878906 45.550781 334.722656 46.457031 336.824219 Z M 57.679688 338.097656 L 46.042969 338.097656 C 45.792969 338.097656 45.566406 337.949219 45.460938 337.722656 C 45.410156 337.609375 40.238281 326.148438 36.589844 307.675781 C 33.226562 290.640625 30.503906 263.957031 36.628906 233.605469 C 36.675781 233.382812 36.832031 233.207031 37.042969 233.128906 C 37.253906 233.058594 37.492188 233.097656 37.664062 233.242188 C 37.996094 233.519531 45.84375 240.222656 52.375 256.496094 C 58.378906 271.453125 64.277344 297.65625 58.308594 337.550781 C 58.261719 337.863281 57.996094 338.097656 57.679688 338.097656 " fill-opacity="1" fill-rule="nonzero"/><path fill="#ffffff" d="M 51.082031 333.386719 C 51.070312 333.386719 51.058594 333.386719 51.046875 333.386719 C 50.695312 333.367188 50.425781 333.066406 50.445312 332.714844 C 52.023438 303.839844 39 242.203125 38.871094 241.582031 C 38.796875 241.238281 39.015625 240.902344 39.359375 240.828125 C 39.703125 240.753906 40.042969 240.972656 40.117188 241.316406 C 40.25 241.9375 53.304688 303.738281 51.714844 332.785156 C 51.699219 333.125 51.417969 333.386719 51.082031 333.386719 " fill-opacity="1" fill-rule="nonzero"/><path fill="#ffffff" d="M 66.773438 264.019531 C 66.773438 264.019531 40.222656 311.992188 56.195312 332.75 L 64.734375 332.75 C 64.734375 332.75 81.808594 295.25 66.773438 264.019531 " fill-opacity="1" fill-rule="nonzero"/><path fill="#000000" d="M 56.507812 332.113281 L 64.320312 332.113281 C 65.121094 330.246094 68.691406 321.542969 70.773438 309.949219 C 72.878906 298.222656 73.839844 281.109375 66.734375 265.445312 C 62.933594 272.71875 42.683594 313.542969 56.507812 332.113281 Z M 64.734375 333.386719 L 56.195312 333.386719 C 55.996094 333.386719 55.808594 333.292969 55.6875 333.136719 C 48.929688 324.351562 48.660156 309.976562 54.886719 290.40625 C 59.492188 275.925781 66.148438 263.832031 66.214844 263.714844 C 66.332031 263.503906 66.558594 263.382812 66.789062 263.382812 C 67.027344 263.390625 67.242188 263.53125 67.347656 263.742188 C 75.1875 280.03125 74.214844 298 72.019531 310.207031 C 69.644531 323.414062 65.359375 332.917969 65.316406 333.015625 C 65.210938 333.242188 64.984375 333.386719 64.734375 333.386719 " fill-opacity="1" fill-rule="nonzero"/><path fill="#000000" d="M 60.183594 334.65625 C 59.839844 334.65625 59.558594 334.386719 59.546875 334.042969 C 58.777344 314.242188 66.070312 264.429688 66.140625 263.929688 C 66.195312 263.578125 66.515625 263.339844 66.867188 263.390625 C 67.214844 263.441406 67.453125 263.765625 67.402344 264.113281 C 67.328125 264.613281 60.054688 314.308594 60.820312 333.996094 C 60.832031 334.347656 60.558594 334.644531 60.207031 334.65625 C 60.199219 334.65625 60.191406 334.65625 60.183594 334.65625 " fill-opacity="1" fill-rule="nonzero"/><path fill="#ffffff" d="M 16.082031 281.902344 C 16.082031 281.902344 38.699219 289.621094 46.890625 335.308594 L 37.992188 335.308594 C 37.992188 335.308594 19.425781 310.214844 16.082031 281.902344 " fill-opacity="1" fill-rule="nonzero"/><path fill="#000000" d="M 38.320312 334.667969 L 46.125 334.667969 C 41.898438 311.753906 33.957031 298.8125 28.011719 291.980469 C 23.113281 286.347656 18.734375 283.835938 16.851562 282.933594 C 20.28125 308.785156 36.394531 331.980469 38.320312 334.667969 Z M 46.890625 335.945312 L 37.992188 335.945312 C 37.789062 335.945312 37.601562 335.847656 37.480469 335.683594 C 37.292969 335.433594 18.777344 310.132812 15.449219 281.980469 C 15.421875 281.761719 15.511719 281.546875 15.679688 281.410156 C 15.851562 281.269531 16.082031 281.230469 16.289062 281.300781 C 16.523438 281.382812 22.179688 283.371094 28.894531 291.054688 C 35.039062 298.085938 43.261719 311.449219 47.515625 335.195312 C 47.550781 335.378906 47.5 335.570312 47.378906 335.714844 C 47.257812 335.859375 47.078125 335.945312 46.890625 335.945312 " fill-opacity="1" fill-rule="nonzero"/><path fill="#000000" d="M 42.027344 334.65625 C 41.71875 334.65625 41.449219 334.4375 41.398438 334.125 C 38.035156 313.792969 23.46875 293.304688 23.324219 293.101562 C 23.117188 292.816406 23.183594 292.414062 23.46875 292.210938 C 23.757812 292.003906 24.152344 292.070312 24.359375 292.359375 C 24.507812 292.5625 39.242188 313.289062 42.65625 333.917969 C 42.710938 334.261719 42.476562 334.589844 42.132812 334.648438 C 42.097656 334.652344 42.0625 334.65625 42.027344 334.65625 " fill-opacity="1" fill-rule="nonzero"/><path fill="#95c251" d="M 24.808594 331.679688 L 80.609375 331.679688 L 81.859375 358.074219 C 82.167969 364.546875 77.003906 369.960938 70.523438 369.960938 L 38.65625 369.960938 C 30.988281 369.960938 24.777344 363.742188 24.785156 356.078125 L 24.808594 331.679688 " fill-opacity="1" fill-rule="nonzero"/><g clip-path="url(#3f0a24e2ef)"><g clip-path="url(#1feafddaf9)"><path fill="#e9f1dc" d="M 95.699219 134.851562 L 113.476562 134.851562 L 113.476562 177.761719 L 95.699219 177.761719 Z M 95.699219 134.851562 " fill-opacity="1" fill-rule="nonzero"/></g></g><g clip-path="url(#c9cffa53aa)"><g clip-path="url(#44e41a80d8)"><path fill="#e9f1dc" d="M 72.148438 91.875 L 78.226562 91.875 L 78.226562 97.949219 L 72.148438 97.949219 Z M 72.148438 91.875 " fill-opacity="1" fill-rule="nonzero"/></g></g><g clip-path="url(#d2fea2beeb)"><g clip-path="url(#8d628570c9)"><path fill="#e9f1dc" d="M 78.824219 90.375 L 122.851562 90.375 L 122.851562 208.347656 L 78.824219 208.347656 Z M 78.824219 90.375 " fill-opacity="1" fill-rule="nonzero"/></g></g><g clip-path="url(#34cca1b94a)"><g clip-path="url(#2d4a3975d3)"><path fill="#e9f1dc" d="M 79.351562 114.675781 L 141.75 114.675781 L 141.75 208.519531 L 79.351562 208.519531 Z M 79.351562 114.675781 " fill-opacity="1" fill-rule="nonzero"/></g></g><g clip-path="url(#e4f7430aeb)"><g clip-path="url(#0b92c9a7a2)"><path fill="#e9f1dc" d="M 70.425781 48.898438 L 135.300781 48.898438 L 135.300781 171.808594 L 70.425781 171.808594 Z M 70.425781 48.898438 " fill-opacity="1" fill-rule="nonzero"/></g></g><g clip-path="url(#989fc02e1b)"><g clip-path="url(#471f586476)"><g clip-path="url(#a7b6b21fe2)"><path fill="#1d5f31" d="M 84.25 144.105469 C 81.074219 141.347656 77.539062 131.222656 72.675781 132.023438 C 70.492188 132.382812 67.402344 135.777344 69.132812 140.066406 C 70.007812 142.242188 74.160156 143.03125 76.59375 144.074219 C 79.945312 145.515625 79.519531 151.125 72.425781 151.976562 C 65.328125 152.832031 58.953125 145.003906 59.988281 136.910156 C 61.609375 126.074219 72.859375 118.902344 82.683594 125.363281 C 87.308594 128.410156 88 134.5 89.875 136.386719 C 91.316406 137.980469 96.695312 137.035156 96.160156 141.515625 C 95.378906 148.070312 86.554688 146.277344 84.25 144.105469 Z M 100.9375 141.390625 C 98.257812 143.839844 97.570312 148.347656 103.949219 150.308594 C 107.070312 150.9375 110.398438 147.308594 109.753906 144.3125 C 108.039062 138.570312 103.546875 139.007812 100.9375 141.390625 Z M 80.132812 98.980469 C 75.453125 105.660156 77.449219 115.554688 84.128906 118.101562 C 90.808594 120.648438 93.796875 115.882812 91.496094 113.050781 C 89.828125 110.992188 86.519531 108.363281 86.757812 106.027344 C 87.222656 101.425781 91.539062 99.863281 93.636719 100.558594 C 98.316406 102.113281 96.734375 112.722656 98.261719 116.636719 C 99.289062 119.632812 106.265625 125.324219 110.003906 119.890625 C 112.566406 116.171875 107.367188 114.503906 106.832031 112.421875 C 106.050781 109.882812 108.273438 104.167969 105.59375 99.320312 C 99.90625 89.03125 86.609375 90.140625 80.132812 98.980469 Z M 114.296875 122 C 110.78125 122.921875 108.074219 126.589844 112.808594 131.296875 C 115.28125 133.304688 119.914062 131.640625 120.738281 128.6875 C 121.894531 122.808594 117.714844 121.105469 114.296875 122 Z M 121.039062 70.386719 C 113.316406 73.023438 109.09375 82.191406 112.988281 88.1875 C 116.878906 94.183594 122.101562 92.097656 121.917969 88.453125 C 121.785156 85.804688 120.664062 81.730469 122.230469 79.988281 C 125.320312 76.546875 129.730469 77.828125 131.011719 79.625 C 133.875 83.640625 126.339844 91.277344 125.265625 95.335938 C 124.328125 98.367188 126.605469 107.074219 132.832031 104.890625 C 137.089844 103.398438 133.875 98.984375 134.671875 96.988281 C 135.539062 94.476562 140.703125 91.175781 141.398438 85.679688 C 142.875 74.015625 131.480469 67.070312 121.039062 70.386719 Z M 128.371094 115.757812 C 129.179688 118.835938 133.902344 120.226562 136.308594 118.328125 C 140.710938 114.261719 138.339844 110.417969 135.050781 109.125 C 131.667969 107.796875 127.320312 109.164062 128.371094 115.757812 Z M 128.371094 115.757812 " fill-opacity="1" fill-rule="nonzero"/></g></g></g><g clip-path="url(#210a001191)"><g clip-path="url(#c3ae2df135)"><g clip-path="url(#bd0f106be8)"><path fill="#f4f0d2" d="M 64.640625 144.097656 C 65.019531 145.84375 66.390625 147.183594 67.835938 148.160156 C 68.996094 148.945312 71.15625 149.945312 72.335938 148.75 C 72.519531 148.5625 72.492188 148.171875 72.273438 148.023438 C 71.207031 147.28125 69.757812 147.417969 68.605469 146.660156 C 67.355469 145.839844 66.484375 144.578125 65.402344 143.578125 C 65.019531 143.222656 64.550781 143.675781 64.640625 144.097656 Z M 82.101562 134.035156 C 82.730469 134.554688 83.269531 135.164062 83.839844 135.75 C 84.289062 136.214844 84.871094 136.804688 85.4375 137.121094 C 85.585938 137.207031 85.800781 137.0625 85.773438 136.894531 C 85.507812 135.289062 83.894531 134.050781 82.585938 133.289062 C 82.136719 133.027344 81.714844 133.71875 82.101562 134.035156 Z M 102.679688 144.550781 C 102.839844 144.828125 102.714844 144.652344 103.011719 144.402344 C 103.320312 144.144531 103.675781 143.972656 104.050781 143.839844 C 104.894531 143.546875 105.707031 143.679688 106.15625 144.488281 C 106.609375 145.296875 107.792969 144.480469 107.34375 143.675781 C 106.511719 142.191406 104.78125 142.007812 103.3125 142.582031 C 102.269531 142.988281 100.769531 144.09375 101.496094 145.363281 C 101.953125 146.167969 103.136719 145.351562 102.679688 144.550781 Z M 80.910156 107.492188 C 80.277344 109.953125 82.179688 115.894531 85.527344 115.214844 C 85.871094 115.144531 85.945312 114.6875 85.785156 114.433594 C 85.496094 113.976562 85.167969 113.738281 84.730469 113.421875 C 83.980469 112.875 83.457031 112.097656 83.050781 111.277344 C 82.457031 110.070312 82.265625 108.6875 81.832031 107.421875 C 81.667969 106.949219 81.027344 107.042969 80.910156 107.492188 Z M 101.035156 106.703125 C 101.351562 107.453125 101.542969 108.242188 101.773438 109.019531 C 101.957031 109.644531 102.199219 110.453125 102.554688 111 C 102.644531 111.136719 102.90625 111.140625 102.960938 110.96875 C 103.472656 109.429688 102.640625 107.589844 101.832031 106.304688 C 101.566406 105.878906 100.839844 106.234375 101.035156 106.703125 Z M 114.371094 125.640625 C 114.375 125.773438 114.261719 125.839844 114.347656 125.773438 C 114.464844 125.6875 114.625 125.660156 114.761719 125.621094 C 115.121094 125.527344 115.527344 125.5625 115.886719 125.613281 C 116.753906 125.742188 117.445312 126.214844 117.46875 127.140625 C 117.496094 128.070312 118.929688 127.960938 118.90625 127.039062 C 118.859375 125.335938 117.449219 124.339844 115.867188 124.164062 C 114.789062 124.042969 112.886719 124.289062 112.9375 125.742188 C 112.96875 126.671875 114.402344 126.5625 114.371094 125.640625 Z M 116.703125 77.675781 C 115.300781 78.75 114.699219 80.5 114.414062 82.203125 C 114.191406 83.550781 114.195312 86.285156 115.875 86.691406 C 116.160156 86.761719 116.417969 86.542969 116.480469 86.28125 C 116.609375 85.722656 116.390625 85.253906 116.222656 84.71875 C 115.960938 83.886719 115.992188 83.027344 116.121094 82.175781 C 116.335938 80.777344 117.054688 79.503906 117.441406 78.15625 C 117.558594 77.757812 117.019531 77.433594 116.703125 77.675781 Z M 133.351562 89.003906 C 133.167969 89.78125 132.863281 90.519531 132.589844 91.269531 C 132.359375 91.898438 132.085938 92.679688 132.054688 93.34375 C 132.046875 93.527344 132.289062 93.613281 132.425781 93.523438 C 132.953125 93.160156 133.40625 92.359375 133.667969 91.78125 C 134.035156 90.96875 134.175781 90.050781 134.234375 89.171875 C 134.273438 88.601562 133.488281 88.425781 133.351562 89.003906 Z M 132.902344 112.191406 C 133.023438 112.019531 132.898438 112.199219 132.851562 112.203125 C 132.964844 112.191406 133.101562 112.253906 133.203125 112.289062 C 133.539062 112.421875 133.828125 112.644531 134.097656 112.878906 C 134.722656 113.425781 135.160156 114.308594 134.644531 115.066406 C 134.128906 115.824219 135.21875 116.761719 135.742188 115.996094 C 136.714844 114.570312 136.292969 113.078125 135.152344 111.898438 C 134.445312 111.167969 132.617188 110.101562 131.804688 111.261719 C 131.28125 112.015625 132.371094 112.953125 132.902344 112.191406 Z M 132.902344 112.191406 " fill-opacity="1" fill-rule="nonzero"/></g></g></g><g clip-path="url(#cdd3cefba9)"><g clip-path="url(#b5b4c4b596)"><g clip-path="url(#50de5b47bb)"><path fill="#1b1b19" d="M 96.125 138.554688 C 95.035156 137.050781 92.722656 136.914062 91.121094 136.332031 C 89.148438 135.613281 88.460938 131.945312 87.597656 130.257812 C 86.230469 127.582031 84.503906 125.558594 81.894531 124.050781 C 78.101562 121.863281 73.507812 121.691406 69.476562 123.273438 C 63.101562 125.769531 58.953125 132.777344 59.183594 139.496094 C 59.421875 146.386719 65.226562 153.335938 72.476562 152.695312 C 72.480469 152.695312 72.480469 152.695312 72.484375 152.691406 C 75.949219 152.164062 80.242188 150.039062 79.136719 145.835938 C 78.71875 144.234375 77.175781 143.507812 75.769531 142.988281 C 72.503906 141.785156 68.847656 140.988281 69.429688 136.640625 C 69.730469 134.394531 71.964844 132.074219 74.320312 132.925781 C 76.472656 133.703125 77.945312 136.269531 79.125 138.074219 C 81.203125 141.25 82.761719 144.800781 86.546875 146.148438 C 89.984375 147.375 94.425781 147.121094 96.324219 143.601562 C 97.15625 142.058594 97.152344 139.972656 96.125 138.554688 Z M 88.496094 145.183594 C 83.785156 144.398438 82.078125 139.886719 79.691406 136.324219 C 77.976562 133.773438 75.261719 130.3125 71.765625 131.542969 C 68.425781 132.714844 66.941406 137.460938 68.535156 140.472656 C 69.875 142.996094 73.289062 143.601562 75.738281 144.503906 C 77.355469 145.101562 78.296875 146.394531 77.703125 148.140625 C 76.980469 150.257812 74.304688 150.964844 72.375 151.261719 C 66.539062 151.777344 62.289062 146.921875 60.9375 141.671875 C 59.535156 136.226562 62.265625 130.253906 66.421875 126.757812 C 70.492188 123.335938 75.980469 122.804688 80.726562 125.0625 C 84.046875 126.640625 85.78125 129.558594 87.1875 132.800781 C 87.914062 134.484375 88.511719 136.449219 90.140625 137.464844 C 92.023438 138.632812 95.210938 137.972656 95.476562 140.90625 C 95.84375 144.921875 91.410156 145.671875 88.496094 145.183594 Z M 100.535156 140.796875 C 100.511719 140.816406 100.496094 140.835938 100.476562 140.859375 C 100.445312 140.878906 100.417969 140.898438 100.390625 140.925781 C 98.28125 142.964844 97.34375 146.347656 99.628906 148.660156 C 102.34375 151.40625 106.019531 151.890625 108.8125 149.132812 C 111.445312 146.535156 110.699219 142.761719 108.261719 140.332031 C 106.070312 138.144531 102.628906 138.980469 100.535156 140.796875 Z M 107.988281 147.894531 C 106.039062 150.40625 103.042969 149.746094 100.875 147.882812 C 98.839844 146.136719 99.828125 143.5 101.4375 141.90625 C 102.890625 140.683594 104.726562 140 106.550781 140.863281 C 109.242188 142.140625 109.664062 145.738281 107.988281 147.894531 Z M 78.5 100.308594 C 75.136719 106.539062 76.894531 115.859375 83.820312 118.753906 C 83.832031 118.757812 83.839844 118.757812 83.851562 118.761719 C 87.140625 119.890625 91.949219 120.046875 92.925781 115.8125 C 93.253906 114.390625 92.492188 113.0625 91.582031 112.050781 C 89.089844 109.289062 85.832031 106.628906 88.832031 102.875 C 90.648438 100.597656 94.011719 100.503906 95.34375 103.1875 C 96.460938 105.441406 96.492188 108.273438 96.675781 110.734375 C 96.957031 114.457031 97.1875 117.515625 100.015625 120.179688 C 102.398438 122.421875 105.980469 123.804688 108.972656 121.960938 C 110.414062 121.074219 111.355469 119.398438 111.421875 117.738281 C 111.496094 115.972656 109.589844 114.53125 108.460938 113.476562 C 106.785156 111.910156 107.445312 109.503906 107.597656 107.453125 C 107.773438 105.015625 107.660156 102.636719 106.847656 100.316406 C 105.359375 96.066406 101.359375 92.921875 97.148438 91.722656 C 89.957031 89.671875 81.925781 93.960938 78.5 100.308594 Z M 104.664062 99.144531 C 106.308594 101.734375 106.359375 104.800781 106.140625 107.753906 C 106.015625 109.464844 105.65625 111.328125 106.273438 112.980469 C 106.910156 114.695312 109.007812 115.496094 109.820312 117.136719 C 110.597656 118.703125 108.824219 120.503906 107.539062 121.125 C 106.367188 121.691406 104.992188 121.402344 103.839844 120.960938 C 99.386719 119.25 98.480469 115.484375 98.15625 111.21875 C 97.90625 107.988281 98.058594 102.152344 94.707031 100.273438 C 91.476562 98.464844 87.210938 101.128906 86.339844 104.472656 C 85.472656 107.824219 87.613281 109.90625 89.785156 112.207031 C 91.003906 113.492188 92.210938 114.894531 91.046875 116.660156 C 89.648438 118.789062 86.390625 118.128906 84.4375 117.453125 C 79.035156 115.199219 77.503906 108.945312 78.753906 103.660156 C 80.082031 98.035156 85.488281 93.941406 90.972656 92.90625 C 96.523438 91.859375 101.699219 94.472656 104.664062 99.144531 Z M 114.0625 121.320312 C 111.53125 122.050781 109.523438 123.949219 109.5625 126.707031 C 109.609375 130.15625 112.890625 133.152344 116.238281 132.847656 C 120.109375 132.5 122.015625 129.199219 121.558594 125.597656 C 121.078125 121.859375 117.316406 120.574219 114.0625 121.320312 Z M 120.191406 126.230469 C 120.589844 129.371094 118.175781 131.632812 115.109375 131.445312 C 112.804688 131.304688 110.851562 128.324219 111 126.132812 C 111.128906 124.265625 112.910156 123.148438 114.527344 122.679688 C 117.304688 122.042969 119.808594 123.257812 120.191406 126.230469 Z M 122.035156 69.363281 C 113.984375 71.148438 107.824219 81.019531 112.394531 88.59375 C 112.398438 88.601562 112.402344 88.609375 112.410156 88.617188 C 114.28125 91.324219 117.53125 93.933594 120.859375 91.992188 C 124.34375 89.960938 121.691406 84.464844 122.289062 81.417969 C 122.941406 78.074219 128.550781 77.757812 130.417969 80.03125 C 131.878906 81.8125 130.230469 84.789062 129.355469 86.449219 C 127.699219 89.601562 124.605469 92.78125 124.359375 96.484375 C 124.164062 99.464844 125.40625 103.382812 128.035156 105.0625 C 130.675781 106.753906 135.164062 105.964844 135.769531 102.492188 C 136.039062 100.964844 135.363281 99.394531 135.257812 97.878906 C 135.125 96.027344 137.96875 93.765625 139.015625 92.453125 C 142.101562 88.585938 142.953125 83.914062 141.566406 79.171875 C 139.160156 70.941406 129.753906 67.65625 122.035156 69.363281 Z M 140.070312 87.941406 C 139.191406 90.304688 137.371094 92.210938 135.761719 94.089844 C 134.777344 95.238281 133.84375 96.414062 133.824219 97.976562 C 133.800781 99.726562 135.046875 101.726562 133.933594 103.355469 C 132.105469 106.027344 128.441406 104.007812 127.179688 102.058594 C 124.726562 98.257812 126.011719 94.738281 128.144531 91.265625 C 129.886719 88.421875 133.09375 84.425781 132.277344 80.8125 C 131.492188 77.34375 126.929688 76.261719 124.03125 77.753906 C 119.960938 79.84375 120.632812 83.4375 121.101562 87.378906 C 121.304688 89.070312 121.070312 90.542969 119.277344 91.144531 C 116.917969 91.945312 114.726562 89.445312 113.582031 87.78125 C 110.269531 82.289062 113.59375 75.695312 118.441406 72.429688 C 123.269531 69.183594 130.242188 69.742188 134.988281 72.800781 C 139.902344 75.96875 142.105469 82.449219 140.070312 87.941406 Z M 128.359375 110.292969 C 126.386719 113.800781 127.574219 118.183594 131.433594 119.558594 C 135.046875 120.847656 138.246094 118.480469 139.28125 115.03125 C 140.148438 112.132812 137.851562 109.527344 135.359375 108.476562 C 132.917969 107.589844 129.773438 107.773438 128.359375 110.292969 Z M 137.988281 113.550781 C 138.117188 114.703125 137.511719 115.800781 136.851562 116.691406 C 135.710938 118.234375 134.195312 118.675781 132.355469 118.332031 C 128.992188 117.703125 128.207031 113.996094 129.476562 111.230469 C 130.402344 109.210938 132.929688 109.117188 134.742188 109.777344 C 136.382812 110.46875 137.777344 111.695312 137.988281 113.550781 Z M 137.988281 113.550781 " fill-opacity="1" fill-rule="nonzero"/></g></g></g></svg>