<svg xmlns="http://www.w3.org/2000/svg" xmlns:xlink="http://www.w3.org/1999/xlink" width="500" zoomAndPan="magnify" viewBox="0 0 375 374.999991" height="500" preserveAspectRatio="xMidYMid meet" version="1.0"><path fill="#14b497" d="M 213.714844 209.601562 C 227.859375 209.601562 239.367188 198.09375 239.367188 183.949219 C 239.367188 169.800781 227.859375 158.292969 213.714844 158.292969 L 162.40625 158.292969 C 148.257812 158.292969 136.75 169.800781 136.75 183.949219 C 136.75 198.09375 148.257812 209.601562 162.40625 209.601562 Z M 213.714844 209.601562 " fill-opacity="1" fill-rule="nonzero"/><path fill="#14b497" d="M 288.394531 269.800781 C 288.273438 265.9375 285.167969 262.832031 281.304688 262.707031 C 254.546875 261.84375 228.964844 274.199219 213.886719 294.957031 L 213.886719 270.605469 C 222.382812 267.546875 228.546875 259.417969 228.546875 249.917969 L 228.546875 237.683594 C 251.523438 232.574219 268.859375 212.074219 268.859375 187.617188 L 268.859375 136.308594 C 268.859375 132.261719 265.402344 128.972656 261.355469 128.972656 L 246.871094 128.972656 L 246.871094 92.328125 C 246.871094 80.203125 237.003906 70.339844 224.878906 70.339844 C 212.753906 70.339844 202.890625 80.203125 202.890625 92.328125 L 202.890625 128.972656 L 173.574219 128.972656 L 173.574219 92.328125 C 173.574219 80.203125 163.707031 70.339844 151.582031 70.339844 C 139.457031 70.339844 129.59375 80.203125 129.59375 92.328125 L 129.59375 128.972656 L 114.761719 128.972656 C 110.714844 128.972656 107.605469 132.257812 107.605469 136.308594 L 107.605469 187.617188 C 107.605469 212.191406 124.847656 232.773438 147.917969 237.761719 L 147.917969 249.917969 C 147.917969 259.53125 154.011719 267.714844 162.578125 270.695312 L 162.578125 296.882812 C 146.652344 274.050781 120.378906 261.855469 93.695312 262.707031 C 89.832031 262.832031 86.726562 265.9375 86.601562 269.800781 C 85.910156 291.476562 94.679688 313.074219 110.664062 329.0625 C 124.554688 342.949219 143.164062 351.207031 162.578125 352.382812 L 162.578125 367.195312 C 162.578125 371.242188 165.6875 374.519531 169.734375 374.519531 L 206.382812 374.519531 C 210.429688 374.519531 213.886719 371.242188 213.886719 367.195312 L 213.886719 352.371094 C 233.058594 351.15625 250.316406 343.074219 264.332031 329.0625 C 280.320312 313.074219 289.089844 291.476562 288.394531 269.800781 Z M 206.382812 257.246094 L 169.734375 257.246094 C 165.691406 257.246094 162.578125 253.960938 162.578125 249.917969 L 162.578125 238.921875 L 213.886719 238.921875 L 213.886719 249.917969 C 213.886719 253.960938 210.425781 257.246094 206.382812 257.246094 Z M 217.550781 92.328125 C 217.550781 88.289062 220.839844 85 224.878906 85 C 228.921875 85 232.210938 88.289062 232.210938 92.328125 L 232.210938 128.972656 L 217.550781 128.972656 Z M 144.253906 92.328125 C 144.253906 88.289062 147.542969 85 151.582031 85 C 155.625 85 158.914062 88.289062 158.914062 92.328125 L 158.914062 128.972656 L 144.253906 128.972656 Z M 122.265625 187.613281 L 122.265625 143.632812 C 162.539062 143.632812 214.019531 143.632812 254.199219 143.632812 L 254.199219 187.613281 C 254.199219 207.824219 237.585938 224.261719 217.378906 224.261719 L 158.738281 224.261719 C 138.53125 224.261719 122.265625 207.824219 122.265625 187.613281 Z M 177.238281 359.859375 L 177.238281 271.902344 C 185.210938 271.902344 191.886719 271.902344 199.226562 271.902344 C 199.191406 282.917969 198.9375 350.914062 199.226562 359.859375 Z M 177.238281 359.859375 " fill-opacity="1" fill-rule="nonzero"/><path fill="#14b497" d="M 142.746094 28.894531 C 170.445312 11.40625 205.261719 10.730469 233.613281 27.132812 C 237.117188 29.160156 241.597656 27.960938 243.628906 24.457031 C 245.65625 20.953125 244.457031 16.46875 240.953125 14.441406 C 224.835938 5.117188 206.425781 0.375 187.742188 0.71875 C 168.988281 1.0625 150.722656 6.519531 134.921875 16.5 C 131.5 18.660156 130.476562 23.1875 132.636719 26.609375 C 134.800781 30.039062 139.332031 31.050781 142.746094 28.894531 Z M 142.746094 28.894531 " fill-opacity="1" fill-rule="nonzero"/><path fill="#14b497" d="M 151.160156 40.980469 C 147.738281 43.144531 146.714844 47.667969 148.878906 51.09375 C 151.042969 54.523438 155.574219 55.535156 158.988281 53.375 C 176.785156 42.140625 199.15625 41.707031 217.371094 52.242188 C 220.875 54.269531 225.359375 53.074219 227.386719 49.570312 C 229.414062 46.066406 228.21875 41.582031 224.710938 39.554688 C 201.761719 26.277344 173.582031 26.824219 151.160156 40.980469 Z M 151.160156 40.980469 " fill-opacity="1" fill-rule="nonzero"/></svg>