<svg xmlns="http://www.w3.org/2000/svg" xmlns:xlink="http://www.w3.org/1999/xlink" width="500" zoomAndPan="magnify" viewBox="0 0 375 374.999991" height="500" preserveAspectRatio="xMidYMid meet" version="1.0"><path fill="#14b497" d="M 190.414062 144.417969 C 179.308594 144.417969 170.304688 135.410156 170.304688 124.304688 C 170.304688 113.191406 179.308594 104.191406 190.414062 104.191406 C 201.523438 104.191406 210.53125 113.191406 210.53125 124.304688 C 210.53125 135.410156 201.523438 144.417969 190.414062 144.417969 Z M 244.359375 73.164062 L 136.476562 73.164062 C 131.429688 73.164062 127.335938 77.261719 127.335938 82.308594 L 144.703125 166.300781 C 144.703125 171.351562 148.796875 175.445312 153.847656 175.445312 L 227.902344 175.445312 C 232.953125 175.445312 237.046875 171.351562 237.046875 166.300781 L 253.5 82.308594 C 253.5 77.261719 249.40625 73.164062 244.359375 73.164062 " fill-opacity="1" fill-rule="nonzero"/><path fill="#14b497" d="M 204.867188 124.304688 C 204.867188 132.28125 198.398438 138.757812 190.414062 138.757812 C 182.433594 138.757812 175.96875 132.28125 175.96875 124.304688 C 175.96875 116.324219 182.433594 109.855469 190.414062 109.855469 C 198.398438 109.855469 204.867188 116.324219 204.867188 124.304688 " fill-opacity="1" fill-rule="nonzero"/><path fill="#14b497" d="M 231.5625 181.050781 C 231.5625 183.066406 229.921875 184.703125 227.902344 184.703125 L 152.476562 184.703125 C 150.457031 184.703125 148.820312 183.066406 148.820312 181.050781 C 148.820312 179.027344 150.457031 177.390625 152.476562 177.390625 L 227.902344 177.390625 C 229.921875 177.390625 231.5625 179.027344 231.5625 181.050781 " fill-opacity="1" fill-rule="nonzero"/><path fill="#14b497" d="M 227.21875 190.652344 C 227.21875 192.671875 225.578125 194.304688 223.558594 194.304688 L 156.816406 194.304688 C 154.800781 194.304688 153.164062 192.671875 153.164062 190.652344 C 153.164062 188.628906 154.800781 186.988281 156.816406 186.988281 L 223.558594 186.988281 C 225.578125 186.988281 227.21875 188.628906 227.21875 190.652344 " fill-opacity="1" fill-rule="nonzero"/><path fill="#14b497" d="M 204.867188 206.71875 L 175.96875 206.71875 L 169.390625 197.351562 L 210.988281 197.351562 L 204.867188 206.71875 " fill-opacity="1" fill-rule="nonzero"/><path fill="#14b497" d="M 184.128906 374.988281 L 196.246094 374.988281 L 196.246094 203.519531 L 184.128906 203.519531 Z M 184.128906 374.988281 " fill-opacity="1" fill-rule="nonzero"/><path fill="#14b497" d="M 171.21875 70.730469 L 171.21875 8.253906 C 171.21875 3.707031 167.53125 0.015625 162.980469 0.015625 C 158.425781 0.015625 154.738281 3.707031 154.738281 8.253906 L 154.738281 70.730469 L 171.21875 70.730469 " fill-opacity="1" fill-rule="nonzero"/><path fill="#14b497" d="M 226.101562 70.730469 L 226.101562 8.253906 C 226.101562 3.707031 222.410156 0.015625 217.855469 0.015625 C 213.308594 0.015625 209.617188 3.707031 209.617188 8.253906 L 209.617188 70.730469 L 226.101562 70.730469 " fill-opacity="1" fill-rule="nonzero"/><path fill="#14b497" d="M 289.09375 285.113281 C 254.539062 319.667969 196.277344 317.429688 196.277344 317.429688 C 196.277344 317.429688 194.039062 259.164062 228.59375 224.605469 C 263.148438 190.050781 321.414062 192.292969 321.414062 192.292969 C 321.414062 192.292969 323.652344 250.558594 289.09375 285.113281 " fill-opacity="1" fill-rule="nonzero"/><path fill="#14b497" d="M 289.09375 285.113281 C 254.539062 319.667969 196.277344 317.429688 196.277344 317.429688 C 196.277344 317.429688 194.039062 259.164062 228.59375 224.605469 C 263.148438 190.050781 321.414062 192.292969 321.414062 192.292969 C 321.414062 192.292969 323.652344 250.558594 289.09375 285.113281 " fill-opacity="1" fill-rule="nonzero"/><path fill="#ffde5a" d="M 257.921875 297.207031 C 254.644531 297.203125 251.699219 296.027344 249.445312 293.085938 C 240.140625 280.921875 247.402344 260.21875 254.859375 249.199219 C 268.078125 229.65625 284.570312 214.578125 305.898438 204.433594 C 310.933594 202.039062 316.53125 199.242188 316.535156 198.46875 C 316.480469 209.3125 314.476562 252.855469 287.203125 280.132812 C 282.035156 285.300781 268.324219 297.207031 257.921875 297.207031 " fill-opacity="1" fill-rule="nonzero"/><path fill="#d3d2d2" d="M 228.683594 224.519531 C 228.683594 224.515625 228.683594 224.519531 228.6875 224.515625 C 228.683594 224.519531 228.683594 224.515625 228.683594 224.519531 M 228.847656 224.355469 C 228.855469 224.347656 228.863281 224.339844 228.871094 224.332031 C 228.863281 224.339844 228.855469 224.347656 228.847656 224.355469 M 228.9375 224.265625 C 228.957031 224.246094 228.976562 224.234375 228.992188 224.214844 C 228.976562 224.234375 228.957031 224.246094 228.9375 224.265625 M 229 224.203125 C 229.019531 224.183594 229.039062 224.164062 229.0625 224.144531 C 229.039062 224.164062 229.019531 224.183594 229 224.203125 M 229.222656 223.992188 C 229.25 223.957031 229.28125 223.929688 229.3125 223.902344 C 229.28125 223.929688 229.25 223.957031 229.222656 223.992188 M 229.382812 223.832031 C 259.542969 194.453125 306.949219 192.320312 318.707031 192.265625 C 306.945312 192.324219 259.542969 194.457031 229.382812 223.832031 M 318.769531 192.265625 C 318.792969 192.265625 318.824219 192.265625 318.847656 192.265625 C 318.824219 192.265625 318.792969 192.265625 318.769531 192.265625 M 318.914062 192.265625 C 318.933594 192.265625 318.960938 192.265625 318.984375 192.265625 C 318.960938 192.265625 318.933594 192.265625 318.914062 192.265625 " fill-opacity="1" fill-rule="nonzero"/><path fill="#14b497" d="M 198.386719 317.457031 C 197.019531 317.457031 196.277344 317.429688 196.277344 317.429688 C 196.277344 317.429688 196.246094 316.660156 196.246094 315.253906 C 196.25 304.367188 198.007812 255.203125 228.59375 224.605469 C 228.625 224.578125 228.648438 224.550781 228.683594 224.519531 C 228.683594 224.515625 228.683594 224.519531 228.6875 224.515625 C 228.738281 224.464844 228.792969 224.410156 228.847656 224.355469 C 228.855469 224.347656 228.863281 224.339844 228.871094 224.332031 C 228.898438 224.308594 228.917969 224.285156 228.9375 224.265625 C 228.957031 224.246094 228.976562 224.234375 228.992188 224.214844 C 228.996094 224.214844 228.996094 224.207031 229 224.203125 C 229.019531 224.183594 229.039062 224.164062 229.0625 224.144531 C 229.113281 224.089844 229.167969 224.039062 229.222656 223.992188 C 229.25 223.957031 229.28125 223.929688 229.3125 223.902344 L 229.316406 223.898438 C 229.335938 223.875 229.359375 223.851562 229.382812 223.832031 C 259.542969 194.457031 306.945312 192.324219 318.707031 192.265625 C 318.730469 192.265625 318.75 192.265625 318.769531 192.265625 C 318.792969 192.265625 318.824219 192.265625 318.847656 192.265625 C 318.871094 192.265625 318.894531 192.265625 318.914062 192.265625 C 318.933594 192.265625 318.960938 192.265625 318.984375 192.265625 C 319.070312 192.265625 319.15625 192.265625 319.238281 192.265625 C 320.644531 192.265625 321.414062 192.292969 321.414062 192.292969 C 321.414062 192.292969 321.417969 192.394531 321.421875 192.542969 C 301.203125 196.089844 281.882812 205.410156 265.171875 217.019531 C 245.046875 231 227.4375 247.378906 218.390625 270.605469 C 212.597656 285.480469 217.328125 302.648438 227.160156 314.414062 L 227.386719 314.667969 C 213.832031 317.160156 202.824219 317.457031 198.386719 317.457031 " fill-opacity="1" fill-rule="nonzero"/><path fill="#14b497" d="M 87.371094 247.835938 C 123.382812 283.84375 184.101562 281.511719 184.101562 281.511719 C 184.101562 281.511719 186.433594 220.792969 150.425781 184.785156 C 114.410156 148.773438 53.691406 151.105469 53.691406 151.105469 C 53.691406 151.105469 51.363281 211.824219 87.371094 247.835938 " fill-opacity="1" fill-rule="nonzero"/><path fill="#14b497" d="M 87.371094 247.835938 C 123.382812 283.84375 184.101562 281.511719 184.101562 281.511719 C 184.101562 281.511719 186.433594 220.792969 150.425781 184.785156 C 114.410156 148.773438 53.691406 151.105469 53.691406 151.105469 C 53.691406 151.105469 51.363281 211.824219 87.371094 247.835938 " fill-opacity="1" fill-rule="nonzero"/><path fill="#ffde5a" d="M 119.863281 260.4375 C 109.015625 260.4375 94.730469 248.027344 89.347656 242.648438 C 60.921875 214.21875 58.835938 168.84375 58.773438 157.542969 C 58.777344 158.34375 64.613281 161.261719 69.859375 163.753906 C 92.085938 174.332031 109.273438 190.042969 123.046875 210.40625 C 130.820312 221.894531 138.386719 243.46875 128.695312 256.140625 C 126.34375 259.207031 123.273438 260.4375 119.863281 260.4375 " fill-opacity="1" fill-rule="nonzero"/><path fill="#d3d2d2" d="M 150.425781 184.785156 C 150.304688 184.664062 150.183594 184.542969 150.0625 184.425781 C 150.183594 184.542969 150.304688 184.664062 150.425781 184.785156 M 149.960938 184.324219 C 149.953125 184.320312 149.949219 184.3125 149.941406 184.304688 C 149.949219 184.3125 149.953125 184.320312 149.960938 184.324219 M 149.8125 184.179688 C 149.765625 184.136719 149.722656 184.089844 149.671875 184.042969 C 149.722656 184.089844 149.765625 184.136719 149.8125 184.179688 M 149.671875 184.039062 C 118.285156 153.402344 68.910156 151.144531 56.558594 151.078125 C 68.90625 151.144531 118.28125 153.398438 149.671875 184.039062 M 56.546875 151.078125 C 56.378906 151.078125 56.21875 151.078125 56.0625 151.074219 C 56.21875 151.078125 56.378906 151.078125 56.546875 151.078125 " fill-opacity="1" fill-rule="nonzero"/><path fill="#14b497" d="M 181.90625 281.542969 C 177.285156 281.542969 165.808594 281.234375 151.679688 278.636719 L 151.914062 278.367188 C 162.160156 266.109375 167.09375 248.21875 161.054688 232.714844 C 151.625 208.511719 133.273438 191.445312 112.304688 176.871094 C 94.890625 164.777344 74.753906 155.058594 53.6875 151.367188 C 53.691406 151.210938 53.691406 151.105469 53.691406 151.105469 C 53.691406 151.105469 54.492188 151.074219 55.960938 151.074219 C 55.992188 151.074219 56.03125 151.074219 56.0625 151.074219 C 56.21875 151.078125 56.378906 151.078125 56.546875 151.078125 C 56.550781 151.078125 56.554688 151.078125 56.558594 151.078125 C 68.910156 151.144531 118.285156 153.402344 149.671875 184.039062 L 149.671875 184.042969 C 149.722656 184.089844 149.765625 184.136719 149.8125 184.179688 C 149.859375 184.222656 149.898438 184.261719 149.941406 184.304688 C 149.949219 184.3125 149.953125 184.320312 149.960938 184.324219 C 149.996094 184.359375 150.027344 184.390625 150.0625 184.425781 C 150.183594 184.542969 150.304688 184.664062 150.425781 184.785156 C 182.300781 216.664062 184.128906 267.902344 184.128906 279.242188 C 184.128906 280.714844 184.101562 281.511719 184.101562 281.511719 C 184.101562 281.511719 183.324219 281.542969 181.90625 281.542969 " fill-opacity="1" fill-rule="nonzero"/></svg>