<svg xmlns="http://www.w3.org/2000/svg" xmlns:xlink="http://www.w3.org/1999/xlink" width="400" zoomAndPan="magnify" viewBox="0 0 300 299.999988" height="400" preserveAspectRatio="xMidYMid meet" version="1.0"><path fill="#f3b17b" d="M 49.117188 204.269531 C 46.355469 207.3125 46.589844 212.058594 49.636719 214.816406 C 57.214844 221.675781 64.792969 228.53125 72.375 235.386719 C 75.421875 238.144531 80.175781 237.910156 82.941406 234.867188 C 85.703125 231.820312 85.46875 227.074219 82.421875 224.316406 C 74.839844 217.460938 67.261719 210.605469 59.683594 203.746094 C 56.636719 200.988281 51.878906 201.222656 49.117188 204.269531 " fill-opacity="1" fill-rule="evenodd"/><path fill="#f8bc84" d="M 41.375 203.636719 C 38.609375 206.679688 38.84375 211.429688 41.894531 214.1875 C 49.472656 221.042969 57.050781 227.898438 64.628906 234.753906 C 67.679688 237.511719 72.4375 237.277344 75.199219 234.234375 C 77.960938 231.191406 77.726562 226.441406 74.675781 223.683594 C 67.097656 216.828125 59.519531 209.972656 51.941406 203.117188 C 48.894531 200.359375 44.136719 200.589844 41.375 203.636719 " fill-opacity="1" fill-rule="evenodd"/><path fill="#fec88e" d="M 110.503906 217.925781 C 114.949219 217.664062 118.78125 220.769531 119.023438 224.828125 C 119.261719 228.886719 115.824219 232.425781 111.378906 232.6875 L 66.011719 235.367188 C 61.566406 235.628906 57.734375 232.523438 57.492188 228.464844 C 57.253906 224.40625 60.691406 220.867188 65.136719 220.605469 L 110.503906 217.925781 " fill-opacity="1" fill-rule="evenodd"/><path fill="#fec88e" d="M 109.261719 224.066406 L 146.726562 225.734375 L 148.351562 300.007812 L 111.960938 300.007812 L 109.261719 224.066406 " fill-opacity="1" fill-rule="evenodd"/><path fill="#fec88e" d="M 191.09375 224.066406 L 153.628906 225.734375 L 152.003906 300.007812 L 188.390625 300.007812 L 191.09375 224.066406 " fill-opacity="1" fill-rule="evenodd"/><path fill="#f3b17b" d="M 251.238281 204.269531 C 254 207.3125 253.765625 212.058594 250.71875 214.816406 C 243.140625 221.675781 235.5625 228.53125 227.980469 235.386719 C 224.933594 238.144531 220.175781 237.910156 217.414062 234.867188 C 214.652344 231.820312 214.886719 227.074219 217.933594 224.316406 C 225.511719 217.460938 233.09375 210.605469 240.671875 203.746094 C 243.71875 200.988281 248.476562 201.222656 251.238281 204.269531 " fill-opacity="1" fill-rule="evenodd"/><path fill="#f8bc84" d="M 258.980469 203.636719 C 261.746094 206.679688 261.507812 211.429688 258.460938 214.1875 C 250.882812 221.042969 243.304688 227.898438 235.726562 234.753906 C 232.675781 237.511719 227.921875 237.277344 225.15625 234.234375 C 222.394531 231.191406 222.628906 226.441406 225.675781 223.683594 C 233.257812 216.828125 240.835938 209.972656 248.414062 203.117188 C 251.460938 200.359375 256.21875 200.589844 258.980469 203.636719 " fill-opacity="1" fill-rule="evenodd"/><path fill="#fec88e" d="M 177.570312 229.433594 C 172.164062 230.164062 168.261719 234.578125 168.894531 239.246094 C 169.527344 243.910156 174.464844 247.132812 179.871094 246.402344 L 235.035156 238.941406 C 240.441406 238.210938 244.34375 233.792969 243.710938 229.128906 C 243.078125 224.460938 238.136719 221.242188 232.734375 221.972656 L 177.570312 229.433594 " fill-opacity="1" fill-rule="evenodd"/><path fill="#dcdef0" d="M 113.746094 125.082031 C 127.277344 129.65625 137.039062 142.652344 137.039062 157.972656 C 137.039062 177.109375 121.808594 192.621094 103.023438 192.621094 C 84.234375 192.621094 69.003906 177.109375 69.003906 157.972656 C 69.003906 142.652344 78.765625 129.65625 92.296875 125.082031 L 113.746094 125.082031 " fill-opacity="1" fill-rule="evenodd"/><path fill="#6cc2d8" d="M 136.976562 155.894531 C 137.019531 156.582031 137.039062 157.273438 137.039062 157.972656 C 137.039062 158.46875 137.027344 158.964844 137.007812 159.457031 L 69.039062 159.457031 C 69.015625 158.964844 69.003906 158.46875 69.003906 157.972656 C 69.003906 157.273438 69.027344 156.582031 69.0625 155.894531 L 136.976562 155.894531 " fill-opacity="1" fill-rule="evenodd"/><path fill="#bfbfbf" d="M 113.746094 125.082031 C 127.277344 129.65625 137.039062 142.652344 137.039062 157.972656 C 137.039062 177.109375 121.808594 192.621094 103.023438 192.621094 L 103.023438 125.082031 L 113.746094 125.082031 " fill-opacity="1" fill-rule="evenodd"/><path fill="#6cc2d8" d="M 136.976562 155.894531 C 137.019531 156.582031 137.039062 157.273438 137.039062 157.972656 C 137.039062 158.46875 137.027344 158.964844 137.007812 159.457031 L 103.023438 159.457031 L 103.023438 155.894531 L 136.976562 155.894531 " fill-opacity="1" fill-rule="evenodd"/><path fill="#ffcc00" d="M 91.96875 168.777344 C 92.59375 168.777344 93.109375 169.300781 93.109375 169.945312 L 93.109375 200.519531 L 90.824219 200.519531 L 90.824219 169.945312 C 90.824219 169.300781 91.339844 168.777344 91.96875 168.777344 " fill-opacity="1" fill-rule="evenodd"/><path fill="#edb91d" d="M 114.078125 168.777344 C 114.707031 168.777344 115.21875 169.300781 115.21875 169.945312 L 115.21875 200.519531 L 112.933594 200.519531 L 112.933594 169.945312 C 112.933594 169.300781 113.449219 168.777344 114.078125 168.777344 " fill-opacity="1" fill-rule="evenodd"/><path fill="#ffcc00" d="M 69.207031 160.769531 C 69.835938 160.769531 70.347656 161.292969 70.347656 161.933594 L 70.347656 200.519531 L 68.0625 200.519531 L 68.0625 161.933594 C 68.0625 161.292969 68.578125 160.769531 69.207031 160.769531 " fill-opacity="1" fill-rule="evenodd"/><path fill="#edb91d" d="M 135.894531 160.769531 C 136.523438 160.769531 137.039062 161.292969 137.039062 161.933594 L 137.039062 200.519531 L 134.753906 200.519531 L 134.753906 161.933594 C 134.753906 161.292969 135.269531 160.769531 135.894531 160.769531 " fill-opacity="1" fill-rule="evenodd"/><path fill="#009de2" d="M 99.042969 200.519531 C 98.726562 200.519531 98.472656 200.261719 98.472656 199.9375 L 98.472656 125.234375 C 98.472656 124.914062 98.726562 124.65625 99.042969 124.65625 C 99.359375 124.65625 99.617188 124.914062 99.617188 125.234375 L 99.617188 129.957031 L 106.429688 129.957031 L 106.429688 125.234375 C 106.429688 124.914062 106.683594 124.65625 107 124.65625 C 107.316406 124.65625 107.570312 124.914062 107.570312 125.234375 L 107.570312 199.9375 C 107.570312 200.261719 107.316406 200.519531 107 200.519531 C 104.457031 200.519531 101.609375 200.519531 99.042969 200.519531 Z M 99.617188 131.121094 L 99.617188 135.730469 L 106.429688 135.730469 L 106.429688 131.121094 Z M 99.617188 136.894531 L 99.617188 141.5 L 106.429688 141.5 L 106.429688 136.894531 Z M 99.617188 142.664062 L 99.617188 147.273438 L 106.429688 147.273438 L 106.429688 142.664062 Z M 99.617188 148.4375 L 99.617188 153.046875 L 106.429688 153.046875 L 106.429688 148.4375 Z M 99.617188 154.210938 L 99.617188 158.816406 L 106.429688 158.816406 L 106.429688 154.210938 Z M 99.617188 159.980469 L 99.617188 164.589844 L 106.429688 164.589844 L 106.429688 159.980469 Z M 99.617188 165.753906 L 99.617188 170.359375 L 106.429688 170.359375 L 106.429688 165.753906 Z M 99.617188 171.523438 L 99.617188 176.132812 L 106.429688 176.132812 L 106.429688 171.523438 Z M 99.617188 177.296875 L 99.617188 181.902344 L 106.429688 181.902344 L 106.429688 177.296875 Z M 99.617188 183.070312 L 99.617188 187.675781 L 106.429688 187.675781 L 106.429688 183.070312 Z M 99.617188 188.839844 L 99.617188 193.449219 L 106.429688 193.449219 L 106.429688 188.839844 Z M 99.617188 194.613281 L 99.617188 199.21875 L 106.429688 199.21875 L 106.429688 194.613281 L 99.617188 194.613281 " fill-opacity="1" fill-rule="nonzero"/><path fill="#009de2" d="M 103.023438 129.957031 L 106.429688 129.957031 L 106.429688 125.234375 C 106.429688 124.914062 106.683594 124.65625 107 124.65625 C 107.316406 124.65625 107.570312 124.914062 107.570312 125.234375 L 107.570312 199.9375 C 107.570312 200.261719 107.316406 200.519531 107 200.519531 L 103.023438 200.519531 L 103.023438 199.21875 L 106.429688 199.21875 L 106.429688 194.613281 L 103.023438 194.613281 L 103.023438 193.449219 L 106.429688 193.449219 L 106.429688 188.839844 L 103.023438 188.839844 L 103.023438 187.675781 L 106.429688 187.675781 L 106.429688 183.070312 L 103.023438 183.070312 L 103.023438 181.902344 L 106.429688 181.902344 L 106.429688 177.296875 L 103.023438 177.296875 L 103.023438 176.132812 L 106.429688 176.132812 L 106.429688 171.523438 L 103.023438 171.523438 L 103.023438 170.359375 L 106.429688 170.359375 L 106.429688 165.753906 L 103.023438 165.753906 L 103.023438 164.589844 L 106.429688 164.589844 L 106.429688 159.980469 L 103.023438 159.980469 L 103.023438 158.816406 L 106.429688 158.816406 L 106.429688 154.210938 L 103.023438 154.210938 L 103.023438 153.046875 L 106.429688 153.046875 L 106.429688 148.4375 L 103.023438 148.4375 L 103.023438 147.273438 L 106.429688 147.273438 L 106.429688 142.664062 L 103.023438 142.664062 L 103.023438 141.5 L 106.429688 141.5 L 106.429688 136.894531 L 103.023438 136.894531 L 103.023438 135.730469 L 106.429688 135.730469 L 106.429688 131.121094 L 103.023438 131.121094 L 103.023438 129.957031 " fill-opacity="1" fill-rule="nonzero"/><path fill="#009de2" d="M 97.804688 125.082031 L 113.425781 125.082031 C 113.515625 125.082031 113.601562 125.058594 113.675781 125.023438 L 113.6875 125.015625 C 113.871094 124.917969 114 124.722656 114 124.496094 L 114 124.480469 C 114 121.792969 114 119.070312 114 116.394531 C 114 116.070312 113.742188 115.8125 113.425781 115.8125 L 92.617188 115.8125 C 92.300781 115.8125 92.042969 116.070312 92.042969 116.394531 C 92.042969 119.070312 92.042969 121.792969 92.042969 124.480469 L 92.042969 124.496094 C 92.042969 124.722656 92.171875 124.917969 92.355469 125.015625 L 92.367188 125.023438 C 92.445312 125.058594 92.527344 125.082031 92.617188 125.082031 Z M 98.390625 123.914062 L 98.390625 116.976562 L 102.449219 116.976562 L 102.449219 123.914062 Z M 97.246094 116.976562 L 97.246094 123.914062 L 93.1875 123.914062 L 93.1875 116.976562 Z M 112.855469 116.976562 L 112.855469 123.914062 L 108.796875 123.914062 L 108.796875 116.976562 Z M 103.59375 116.976562 L 107.652344 116.976562 L 107.652344 123.914062 L 103.59375 123.914062 L 103.59375 116.976562 " fill-opacity="1" fill-rule="nonzero"/><path fill="#009de2" d="M 103.023438 125.082031 L 113.425781 125.082031 C 113.515625 125.082031 113.601562 125.058594 113.675781 125.023438 L 113.6875 125.015625 C 113.871094 124.917969 114 124.722656 114 124.496094 L 114 124.480469 C 114 121.792969 114 119.070312 114 116.394531 C 114 116.070312 113.742188 115.8125 113.425781 115.8125 L 103.023438 115.8125 Z M 112.855469 116.976562 L 112.855469 123.914062 L 108.796875 123.914062 L 108.796875 116.976562 Z M 103.59375 116.976562 L 107.652344 116.976562 L 107.652344 123.914062 L 103.59375 123.914062 L 103.59375 116.976562 " fill-opacity="1" fill-rule="nonzero"/><path fill="#78d8f0" d="M 144.5 99.921875 L 146.796875 99.921875 L 149.953125 200.519531 L 141.34375 200.519531 L 144.5 99.921875 " fill-opacity="1" fill-rule="evenodd"/><path fill="#6cc2d8" d="M 146.796875 99.921875 L 145.648438 99.921875 L 145.648438 200.519531 L 149.953125 200.519531 L 146.796875 99.921875 " fill-opacity="1" fill-rule="evenodd"/><path fill="#78d8f0" d="M 154.828125 56.566406 L 145.871094 97.617188 C 137.667969 96.144531 153.039062 55.910156 154.828125 56.566406 " fill-opacity="1" fill-rule="evenodd"/><path fill="#6cc2d8" d="M 154.828125 56.566406 L 145.871094 97.617188 C 153.914062 99.824219 156.722656 56.742188 154.828125 56.566406 " fill-opacity="1" fill-rule="evenodd"/><path fill="#6cc2d8" d="M 176.289062 126.046875 L 145.871094 97.621094 C 151.222656 91.117188 177.746094 124.796875 176.289062 126.046875 " fill-opacity="1" fill-rule="evenodd"/><path fill="#78d8f0" d="M 176.289062 126.046875 L 145.871094 97.621094 C 139.972656 103.609375 175.195312 127.628906 176.289062 126.046875 " fill-opacity="1" fill-rule="evenodd"/><path fill="#6cc2d8" d="M 106.492188 110.238281 L 145.867188 97.617188 C 148.71875 105.589844 106.824219 112.148438 106.492188 110.238281 " fill-opacity="1" fill-rule="evenodd"/><path fill="#78d8f0" d="M 106.492188 110.238281 L 145.867188 97.617188 C 143.722656 89.417969 105.691406 108.480469 106.492188 110.238281 " fill-opacity="1" fill-rule="evenodd"/><path fill="#c0c1d3" d="M 148.121094 93.34375 C 150.277344 94.609375 151.019531 97.421875 149.773438 99.617188 C 148.527344 101.816406 145.769531 102.566406 143.609375 101.296875 C 141.453125 100.03125 140.714844 97.21875 141.960938 95.023438 C 143.207031 92.824219 145.964844 92.074219 148.121094 93.34375 " fill-opacity="1" fill-rule="evenodd"/><path fill="#78d8f0" d="M 181.734375 61.027344 L 184.921875 61.027344 L 189.300781 200.519531 L 177.355469 200.519531 L 181.734375 61.027344 " fill-opacity="1" fill-rule="evenodd"/><path fill="#6cc2d8" d="M 184.921875 61.027344 L 183.328125 61.027344 L 183.328125 200.519531 L 189.300781 200.519531 L 184.921875 61.027344 " fill-opacity="1" fill-rule="evenodd"/><path fill="#78d8f0" d="M 196.058594 0.910156 L 183.636719 57.828125 C 172.261719 55.789062 193.578125 -0.00390625 196.058594 0.910156 " fill-opacity="1" fill-rule="evenodd"/><path fill="#6cc2d8" d="M 196.058594 0.910156 L 183.636719 57.828125 C 194.789062 60.890625 198.683594 1.15625 196.058594 0.910156 " fill-opacity="1" fill-rule="evenodd"/><path fill="#6cc2d8" d="M 225.816406 97.25 L 183.636719 57.835938 C 191.058594 48.820312 227.835938 95.519531 225.816406 97.25 " fill-opacity="1" fill-rule="evenodd"/><path fill="#78d8f0" d="M 225.816406 97.25 L 183.636719 57.835938 C 175.457031 66.140625 224.296875 99.445312 225.816406 97.25 " fill-opacity="1" fill-rule="evenodd"/><path fill="#6cc2d8" d="M 129.03125 75.335938 L 183.632812 57.832031 C 187.585938 68.886719 129.492188 77.980469 129.03125 75.335938 " fill-opacity="1" fill-rule="evenodd"/><path fill="#78d8f0" d="M 129.03125 75.335938 L 183.632812 57.832031 C 180.660156 46.460938 127.921875 72.894531 129.03125 75.335938 " fill-opacity="1" fill-rule="evenodd"/><path fill="#c0c1d3" d="M 186.757812 51.902344 C 189.75 53.664062 190.773438 57.558594 189.046875 60.605469 C 187.320312 63.652344 183.496094 64.695312 180.503906 62.9375 C 177.511719 61.179688 176.488281 57.28125 178.214844 54.234375 C 179.941406 51.1875 183.765625 50.144531 186.757812 51.902344 " fill-opacity="1" fill-rule="evenodd"/><path fill="#78d8f0" d="M 227.496094 99.921875 L 229.792969 99.921875 L 232.949219 200.519531 L 224.339844 200.519531 L 227.496094 99.921875 " fill-opacity="1" fill-rule="evenodd"/><path fill="#6cc2d8" d="M 229.792969 99.921875 L 228.644531 99.921875 L 228.644531 200.519531 L 232.949219 200.519531 L 229.792969 99.921875 " fill-opacity="1" fill-rule="evenodd"/><path fill="#78d8f0" d="M 237.824219 56.566406 L 228.867188 97.617188 C 220.660156 96.144531 236.035156 55.910156 237.824219 56.566406 " fill-opacity="1" fill-rule="evenodd"/><path fill="#6cc2d8" d="M 237.824219 56.566406 L 228.867188 97.617188 C 236.910156 99.824219 239.71875 56.742188 237.824219 56.566406 " fill-opacity="1" fill-rule="evenodd"/><path fill="#6cc2d8" d="M 259.285156 126.046875 L 228.867188 97.621094 C 234.21875 91.117188 260.738281 124.796875 259.285156 126.046875 " fill-opacity="1" fill-rule="evenodd"/><path fill="#78d8f0" d="M 259.285156 126.046875 L 228.867188 97.621094 C 222.96875 103.609375 258.191406 127.628906 259.285156 126.046875 " fill-opacity="1" fill-rule="evenodd"/><path fill="#6cc2d8" d="M 189.484375 110.238281 L 228.863281 97.617188 C 231.714844 105.589844 189.820312 112.148438 189.484375 110.238281 " fill-opacity="1" fill-rule="evenodd"/><path fill="#78d8f0" d="M 189.484375 110.238281 L 228.863281 97.617188 C 226.71875 89.417969 188.6875 108.480469 189.484375 110.238281 " fill-opacity="1" fill-rule="evenodd"/><path fill="#c0c1d3" d="M 231.117188 93.34375 C 233.273438 94.609375 234.011719 97.421875 232.765625 99.617188 C 231.523438 101.816406 228.765625 102.566406 226.605469 101.296875 C 224.449219 100.03125 223.710938 97.21875 224.957031 95.023438 C 226.203125 92.824219 228.960938 92.074219 231.117188 93.34375 " fill-opacity="1" fill-rule="evenodd"/><path fill="#71a538" d="M 59.675781 180.242188 L 59.703125 191.667969 L 61.730469 189.609375 C 56.925781 179.910156 72.914062 177.949219 75.417969 178.226562 C 75.695312 180.824219 73.691406 197.691406 63.6875 191.867188 L 59.710938 195.898438 L 59.722656 200.519531 L 56.773438 200.519531 L 56.761719 195.917969 L 52.765625 191.867188 C 42.761719 197.691406 40.757812 180.824219 41.035156 178.226562 C 43.539062 177.949219 59.527344 179.910156 54.722656 189.609375 L 56.75 191.667969 L 56.722656 180.226562 C 46.144531 176.96875 56.246094 163.851562 58.226562 162.234375 C 60.207031 163.855469 70.339844 177.011719 59.675781 180.242188 " fill-opacity="1" fill-rule="evenodd"/><path fill="#5c9538" d="M 59.675781 180.242188 L 59.703125 191.667969 L 61.730469 189.609375 C 56.925781 179.910156 72.914062 177.949219 75.417969 178.226562 C 75.695312 180.824219 73.691406 197.691406 63.6875 191.867188 L 59.710938 195.898438 L 59.722656 200.519531 L 58.226562 200.519531 L 58.226562 162.234375 C 60.214844 163.863281 70.339844 177.015625 59.675781 180.242188 " fill-opacity="1" fill-rule="evenodd"/><path fill="#dcdef0" d="M 175.320312 127.40625 L 174.949219 167.164062 L 200.882812 174.703125 C 200.800781 183.25 200.789062 191.730469 200.777344 200.253906 L 206.539062 200.253906 C 206.550781 192.289062 206.558594 184.332031 206.632812 176.378906 L 232.5625 183.917969 L 232.929688 144.164062 L 175.320312 127.40625 " fill-opacity="1" fill-rule="evenodd"/><path fill="#31b0e8" d="M 178.039062 130.539062 L 194.625 135.363281 L 194.46875 152.304688 L 177.882812 147.480469 L 178.039062 130.539062 " fill-opacity="1" fill-rule="evenodd"/><path fill="#31b0e8" d="M 212.398438 140.53125 L 195.808594 135.707031 L 195.652344 152.648438 L 212.242188 157.472656 L 212.398438 140.53125 " fill-opacity="1" fill-rule="evenodd"/><path fill="#31b0e8" d="M 230.167969 145.699219 L 213.582031 140.875 L 213.421875 157.816406 L 230.011719 162.640625 L 230.167969 145.699219 " fill-opacity="1" fill-rule="evenodd"/><path fill="#31b0e8" d="M 177.714844 165.628906 L 194.300781 170.453125 L 194.457031 153.511719 L 177.871094 148.6875 L 177.714844 165.628906 " fill-opacity="1" fill-rule="evenodd"/><path fill="#31b0e8" d="M 212.070312 175.621094 L 195.484375 170.796875 L 195.640625 153.855469 L 212.230469 158.679688 L 212.070312 175.621094 " fill-opacity="1" fill-rule="evenodd"/><path fill="#31b0e8" d="M 229.839844 180.789062 L 213.253906 175.964844 L 213.410156 159.023438 L 230 163.847656 L 229.839844 180.789062 " fill-opacity="1" fill-rule="evenodd"/><path fill="#009de2" d="M 194.496094 149.632812 L 194.46875 152.304688 L 191.378906 151.402344 C 192.378906 150.777344 193.417969 150.183594 194.496094 149.632812 " fill-opacity="1" fill-rule="evenodd"/><path fill="#009de2" d="M 195.6875 149.042969 L 195.652344 152.648438 L 212.242188 157.472656 L 212.359375 144.621094 C 206.292969 145.144531 200.628906 146.691406 195.6875 149.042969 " fill-opacity="1" fill-rule="evenodd"/><path fill="#009de2" d="M 213.546875 144.535156 L 213.421875 157.816406 L 230.011719 162.640625 L 230.164062 146.125 C 226.164062 145.066406 221.878906 144.472656 217.421875 144.429688 C 216.117188 144.417969 214.824219 144.453125 213.546875 144.535156 " fill-opacity="1" fill-rule="evenodd"/><path fill="#009de2" d="M 178.558594 165.871094 L 194.300781 170.453125 L 194.457031 153.511719 L 190.097656 152.242188 C 184.796875 155.867188 180.761719 160.550781 178.558594 165.871094 " fill-opacity="1" fill-rule="evenodd"/><path fill="#009de2" d="M 212.070312 175.621094 L 195.484375 170.796875 L 195.640625 153.855469 L 212.230469 158.679688 L 212.070312 175.621094 " fill-opacity="1" fill-rule="evenodd"/><path fill="#009de2" d="M 229.839844 180.789062 L 213.253906 175.964844 L 213.410156 159.023438 L 230 163.847656 L 229.839844 180.789062 " fill-opacity="1" fill-rule="evenodd"/><path fill="#dcdef0" d="M 153.800781 140.273438 L 153.566406 165.425781 L 169.972656 170.195312 C 169.878906 180.214844 169.902344 190.214844 169.898438 200.253906 L 173.546875 200.253906 L 173.609375 171.253906 L 190.015625 176.023438 L 190.246094 150.875 L 153.800781 140.273438 " fill-opacity="1" fill-rule="evenodd"/><path fill="#31b0e8" d="M 155.523438 142.253906 L 166.015625 145.308594 L 165.914062 156.023438 L 155.421875 152.972656 L 155.523438 142.253906 " fill-opacity="1" fill-rule="evenodd"/><path fill="#31b0e8" d="M 177.257812 148.578125 L 166.761719 145.523438 L 166.664062 156.242188 L 177.15625 159.292969 L 177.257812 148.578125 " fill-opacity="1" fill-rule="evenodd"/><path fill="#31b0e8" d="M 188.5 151.847656 L 178.003906 148.792969 L 177.90625 159.511719 L 188.398438 162.5625 L 188.5 151.847656 " fill-opacity="1" fill-rule="evenodd"/><path fill="#31b0e8" d="M 155.316406 164.453125 L 165.808594 167.503906 L 165.910156 156.789062 L 155.414062 153.734375 L 155.316406 164.453125 " fill-opacity="1" fill-rule="evenodd"/><path fill="#31b0e8" d="M 177.050781 170.773438 L 166.558594 167.722656 L 166.65625 157.007812 L 177.148438 160.058594 L 177.050781 170.773438 " fill-opacity="1" fill-rule="evenodd"/><path fill="#31b0e8" d="M 188.292969 174.042969 L 177.800781 170.992188 L 177.898438 160.273438 L 188.390625 163.328125 L 188.292969 174.042969 " fill-opacity="1" fill-rule="evenodd"/><path fill="#009de2" d="M 165.933594 154.332031 L 165.914062 156.023438 L 163.960938 155.453125 C 164.59375 155.058594 165.25 154.683594 165.933594 154.332031 " fill-opacity="1" fill-rule="evenodd"/><path fill="#009de2" d="M 166.683594 153.960938 L 166.664062 156.242188 L 177.15625 159.292969 L 177.234375 151.164062 C 173.394531 151.492188 169.8125 152.472656 166.683594 153.960938 " fill-opacity="1" fill-rule="evenodd"/><path fill="#009de2" d="M 177.984375 151.109375 L 177.90625 159.511719 L 188.398438 162.5625 L 188.496094 152.117188 C 185.964844 151.445312 183.257812 151.070312 180.4375 151.042969 C 179.609375 151.035156 178.789062 151.058594 177.984375 151.109375 " fill-opacity="1" fill-rule="evenodd"/><path fill="#009de2" d="M 155.851562 164.609375 L 165.808594 167.503906 L 165.910156 156.789062 L 163.148438 155.984375 C 159.796875 158.277344 157.242188 161.242188 155.851562 164.609375 " fill-opacity="1" fill-rule="evenodd"/><path fill="#009de2" d="M 177.050781 170.773438 L 166.558594 167.722656 L 166.65625 157.007812 L 177.148438 160.058594 L 177.050781 170.773438 " fill-opacity="1" fill-rule="evenodd"/><path fill="#009de2" d="M 188.292969 174.042969 L 177.800781 170.992188 L 177.898438 160.273438 L 188.390625 163.328125 L 188.292969 174.042969 " fill-opacity="1" fill-rule="evenodd"/><path fill="#71a538" d="M 233.078125 180.242188 L 233.105469 191.667969 L 235.132812 189.609375 C 230.328125 179.910156 246.320312 177.949219 248.820312 178.226562 C 249.097656 180.824219 247.09375 197.691406 237.09375 191.867188 L 233.117188 195.898438 L 233.125 200.519531 L 230.175781 200.519531 L 230.164062 195.917969 L 226.167969 191.867188 C 216.164062 197.691406 214.164062 180.824219 214.4375 178.226562 C 216.941406 177.949219 232.929688 179.910156 228.125 189.609375 L 230.15625 191.667969 L 230.128906 180.226562 C 219.546875 176.96875 229.652344 163.851562 231.628906 162.234375 C 233.613281 163.855469 243.746094 177.011719 233.078125 180.242188 " fill-opacity="1" fill-rule="evenodd"/><path fill="#5c9538" d="M 233.078125 180.242188 L 233.105469 191.667969 L 235.132812 189.609375 C 230.328125 179.910156 246.320312 177.949219 248.820312 178.226562 C 249.097656 180.824219 247.09375 197.691406 237.09375 191.867188 L 233.117188 195.898438 L 233.125 200.519531 L 231.632812 200.519531 L 231.632812 162.234375 C 233.617188 163.863281 243.742188 177.015625 233.078125 180.242188 " fill-opacity="1" fill-rule="evenodd"/><path fill="#78d8f0" d="M 73.613281 83.742188 C 73.953125 83.742188 74.28125 83.78125 74.597656 83.859375 C 74.648438 80.90625 77.015625 78.523438 79.929688 78.523438 C 80.101562 78.523438 80.277344 78.535156 80.445312 78.550781 C 80.414062 78.210938 80.398438 77.871094 80.398438 77.527344 C 80.398438 71.546875 85.15625 66.703125 91.023438 66.703125 C 95.382812 66.703125 99.128906 69.378906 100.769531 73.207031 C 101.859375 72.660156 103.082031 72.351562 104.378906 72.351562 C 108.222656 72.351562 111.445312 75.046875 112.332031 78.683594 C 112.632812 78.628906 112.9375 78.597656 113.253906 78.597656 C 116.082031 78.597656 118.375 80.933594 118.375 83.816406 C 118.375 84.417969 118.273438 84.996094 118.089844 85.53125 C 118.484375 85.367188 118.917969 85.277344 119.371094 85.277344 C 121.242188 85.277344 122.757812 86.820312 122.757812 88.726562 C 122.757812 90.628906 121.242188 92.171875 119.371094 92.171875 C 107.964844 92.171875 86.53125 92.171875 73.613281 92.171875 C 71.328125 92.171875 69.472656 90.285156 69.472656 87.957031 C 69.472656 85.628906 71.328125 83.742188 73.613281 83.742188 " fill-opacity="1" fill-rule="evenodd"/><path fill="#71a538" d="M 53.171875 218.585938 C 126.09375 232.160156 191.425781 231.144531 247.183594 218.585938 C 249.082031 218.15625 250.730469 206.007812 250.730469 204.0625 C 250.730469 202.113281 249.136719 200.519531 247.183594 200.519531 L 53.171875 200.519531 C 51.222656 200.519531 49.625 202.113281 49.625 204.0625 C 49.625 206.003906 51.257812 218.226562 53.171875 218.585938 " fill-opacity="1" fill-rule="evenodd"/><path fill="#5c9538" d="M 250.238281 202.292969 C 249.601562 201.234375 248.421875 200.519531 247.078125 200.519531 L 53.277344 200.519531 C 51.933594 200.519531 50.75 201.234375 50.117188 202.292969 C 50.75 203.347656 51.933594 204.0625 53.277344 204.0625 L 247.078125 204.0625 C 248.421875 204.0625 249.601562 203.347656 250.238281 202.292969 " fill-opacity="1" fill-rule="evenodd"/><path fill="#fec88e" d="M 105.320312 219.921875 L 104.765625 211.929688 C 104.113281 202.511719 111.089844 195.820312 120.265625 197.0625 L 128.289062 198.148438 C 137.464844 199.386719 145.503906 208.109375 146.15625 217.527344 L 146.710938 225.515625 C 147.363281 234.933594 140.386719 241.625 131.210938 240.382812 L 123.1875 239.300781 C 114.011719 238.058594 105.972656 229.339844 105.320312 219.921875 " fill-opacity="1" fill-rule="evenodd"/><path fill="#fec88e" d="M 75.175781 200.3125 C 74.640625 204.890625 77.953125 209.089844 82.542969 209.617188 L 117.726562 213.644531 C 122.316406 214.171875 126.507812 210.871094 127.046875 206.289062 C 127.582031 201.707031 124.269531 197.511719 119.675781 196.984375 L 84.496094 192.953125 C 79.90625 192.429688 75.710938 195.730469 75.175781 200.3125 " fill-opacity="1" fill-rule="evenodd"/><path fill="#fed3a3" d="M 81.234375 206.644531 C 79.445312 205.011719 78.457031 202.761719 78.769531 200.445312 C 79.085938 198.128906 80.636719 196.222656 82.796875 195.125 L 86.3125 195.597656 C 90.054688 196.105469 92.765625 199.109375 92.335938 202.277344 L 92.335938 202.28125 C 91.90625 205.449219 88.492188 207.625 84.75 207.121094 L 81.234375 206.644531 " fill-opacity="1" fill-rule="evenodd"/><path fill="#fec88e" d="M 122.789062 229.433594 C 128.191406 230.164062 132.09375 234.578125 131.460938 239.246094 C 130.828125 243.910156 125.890625 247.132812 120.484375 246.402344 L 65.320312 238.941406 C 59.914062 238.210938 56.011719 233.792969 56.644531 229.128906 C 57.277344 224.460938 62.21875 221.242188 67.621094 221.972656 L 122.789062 229.433594 " fill-opacity="1" fill-rule="evenodd"/><path fill="#fec88e" d="M 36.480469 205.421875 L 36.480469 205.425781 C 33.71875 208.46875 33.953125 213.214844 37.003906 215.972656 C 44.582031 222.828125 52.160156 229.6875 59.738281 236.542969 C 62.789062 239.300781 67.542969 239.066406 70.304688 236.023438 L 70.304688 236.019531 C 73.070312 232.976562 72.835938 228.230469 69.785156 225.472656 C 62.207031 218.617188 54.628906 211.757812 47.050781 204.902344 C 44 202.144531 39.246094 202.378906 36.480469 205.421875 " fill-opacity="1" fill-rule="evenodd"/><path fill="#fec88e" d="M 195.035156 219.921875 L 195.589844 211.929688 C 196.242188 202.511719 189.265625 195.820312 180.089844 197.0625 L 172.066406 198.148438 C 162.890625 199.386719 154.851562 208.109375 154.199219 217.527344 L 153.644531 225.515625 C 152.992188 234.933594 159.96875 241.625 169.144531 240.382812 L 177.164062 239.300781 C 186.34375 238.058594 194.382812 229.339844 195.035156 219.921875 " fill-opacity="1" fill-rule="evenodd"/><path fill="#fec88e" d="M 263.875 205.421875 L 263.875 205.425781 C 266.636719 208.46875 266.402344 213.214844 263.355469 215.972656 C 255.777344 222.828125 248.195312 229.6875 240.617188 236.542969 C 237.566406 239.300781 232.8125 239.066406 230.050781 236.023438 L 230.050781 236.019531 C 227.289062 232.976562 227.519531 228.230469 230.570312 225.472656 C 238.148438 218.617188 245.726562 211.757812 253.304688 204.902344 C 256.355469 202.144531 261.113281 202.378906 263.875 205.421875 " fill-opacity="1" fill-rule="evenodd"/><path fill="#fec88e" d="M 189.851562 217.925781 C 185.40625 217.664062 181.574219 220.769531 181.332031 224.828125 C 181.09375 228.886719 184.53125 232.425781 188.976562 232.6875 L 234.34375 235.367188 C 238.789062 235.628906 242.621094 232.523438 242.863281 228.464844 C 243.101562 224.40625 239.664062 220.867188 235.21875 220.605469 L 189.851562 217.925781 " fill-opacity="1" fill-rule="evenodd"/><path fill="#fec88e" d="M 225.179688 200.3125 C 225.714844 204.890625 222.402344 209.089844 217.8125 209.617188 L 182.628906 213.644531 C 178.039062 214.171875 173.847656 210.871094 173.308594 206.289062 C 172.773438 201.707031 176.089844 197.511719 180.679688 196.984375 L 215.859375 192.953125 C 220.449219 192.429688 224.640625 195.730469 225.179688 200.3125 " fill-opacity="1" fill-rule="evenodd"/><path fill="#fed3a3" d="M 219.121094 206.644531 C 220.914062 205.011719 221.898438 202.761719 221.585938 200.445312 C 221.269531 198.128906 219.71875 196.222656 217.558594 195.125 L 214.042969 195.597656 C 210.300781 196.105469 207.589844 199.109375 208.019531 202.277344 L 208.019531 202.28125 C 208.449219 205.449219 211.863281 207.625 215.605469 207.121094 L 219.121094 206.644531 " fill-opacity="1" fill-rule="evenodd"/></svg>