<svg xmlns="http://www.w3.org/2000/svg" xmlns:xlink="http://www.w3.org/1999/xlink" width="500" zoomAndPan="magnify" viewBox="0 0 375 374.999991" height="500" preserveAspectRatio="xMidYMid meet" version="1.0"><path fill="#e9f1dc" d="M 12.636719 296.628906 C 22.960938 321.832031 47.121094 333.738281 62.566406 341.351562 C 123.433594 371.351562 215.9375 367.765625 282.5625 312.929688 C 298.15625 300.097656 375.003906 232.867188 357.1875 141.917969 C 341.4375 61.515625 261.953125 14.917969 194.996094 8.765625 C 139.523438 3.664062 67.058594 24.007812 41.417969 73.078125 C 25.296875 103.9375 44.632812 113.722656 31.417969 183.625 C 19.976562 244.132812 0.0078125 265.804688 12.636719 296.628906 " fill-opacity="1" fill-rule="nonzero"/><path fill="#1d5f31" d="M 224.113281 323.207031 L 11.011719 295.722656 C 9.34375 295.507812 8.40625 294.113281 8.425781 292.714844 C 8.441406 291.753906 8.519531 284.972656 8.519531 284.972656 L 121.195312 220.554688 C 126.839844 217.332031 134.144531 216.085938 140.59375 216.910156 L 351.003906 244.054688 C 352.273438 244.21875 353.355469 245.039062 353.859375 246.214844 L 354.199219 247.003906 C 354.199219 247.003906 354.015625 252.664062 354.089844 253.984375 C 354.148438 255.015625 353.683594 256.082031 352.601562 256.703125 L 242.75 319.507812 C 237.105469 322.734375 230.5625 324.03125 224.113281 323.207031 " fill-opacity="1" fill-rule="nonzero"/><path fill="#ffffff" d="M 37.222656 291.515625 L 11.777344 288.226562 C 8.957031 287.867188 8.214844 284.128906 10.683594 282.71875 L 119.941406 220.316406 C 125.585938 217.089844 132.128906 215.792969 138.578125 216.621094 L 350.917969 244.050781 C 353.734375 244.410156 354.476562 248.148438 352.011719 249.558594 L 242.75 311.960938 C 237.105469 315.1875 230.566406 316.484375 224.113281 315.65625 L 37.222656 291.515625 " fill-opacity="1" fill-rule="nonzero"/><path fill="#95c251" d="M 265.6875 281.015625 L 81.5625 257.058594 C 79.015625 256.730469 78.347656 253.355469 80.578125 252.082031 L 123.871094 227.605469 C 128.96875 224.695312 134.878906 223.523438 140.703125 224.269531 L 324.828125 248.226562 C 327.375 248.550781 328.042969 251.929688 325.816406 253.203125 L 282.519531 277.679688 C 277.421875 280.589844 271.515625 281.765625 265.6875 281.015625 " fill-opacity="1" fill-rule="nonzero"/><path fill="#000000" d="M 227.867188 316.53125 C 226.585938 316.53125 225.304688 316.449219 224.035156 316.289062 L 100.335938 300.15625 C 99.988281 300.113281 99.742188 299.792969 99.789062 299.441406 C 99.832031 299.09375 100.152344 298.847656 100.5 298.894531 L 224.195312 315.023438 C 230.464844 315.828125 236.945312 314.542969 242.433594 311.40625 C 242.742188 311.234375 243.128906 311.339844 243.304688 311.644531 C 243.476562 311.949219 243.371094 312.339844 243.066406 312.515625 C 238.453125 315.148438 233.167969 316.53125 227.867188 316.53125 " fill-opacity="1" fill-rule="nonzero"/><path fill="#000000" d="M 306.777344 275.960938 C 306.554688 275.960938 306.339844 275.84375 306.222656 275.636719 C 306.046875 275.335938 306.152344 274.945312 306.460938 274.769531 L 351.695312 249.003906 C 352.765625 248.394531 352.980469 247.328125 352.820312 246.535156 C 352.664062 245.742188 352.058594 244.839844 350.835938 244.679688 L 297.238281 237.757812 C 296.890625 237.710938 296.644531 237.394531 296.691406 237.042969 C 296.734375 236.695312 297.054688 236.449219 297.402344 236.492188 L 351 243.417969 C 352.558594 243.617188 353.765625 244.746094 354.070312 246.285156 C 354.378906 247.828125 353.691406 249.332031 352.328125 250.113281 L 307.089844 275.878906 C 306.992188 275.933594 306.882812 275.960938 306.777344 275.960938 " fill-opacity="1" fill-rule="nonzero"/><path fill="#000000" d="M 92.777344 236.472656 C 92.554688 236.472656 92.339844 236.355469 92.222656 236.152344 C 92.046875 235.847656 92.15625 235.457031 92.460938 235.28125 L 119.625 219.761719 C 125.355469 216.488281 132.113281 215.148438 138.660156 215.988281 L 244.863281 229.683594 C 245.214844 229.726562 245.460938 230.046875 245.414062 230.394531 C 245.371094 230.746094 245.046875 230.992188 244.703125 230.949219 L 138.496094 217.25 C 132.226562 216.445312 125.75 217.730469 120.257812 220.867188 L 93.09375 236.390625 C 92.992188 236.445312 92.882812 236.472656 92.777344 236.472656 " fill-opacity="1" fill-rule="nonzero"/><path fill="#1d5f31" d="M 351.339844 237.429688 L 143.515625 208.527344 C 138.296875 207.863281 134.386719 203.421875 134.386719 198.160156 L 131.539062 53.207031 C 131.539062 53.207031 136.273438 49.789062 138.960938 48.480469 C 140.328125 47.8125 141.898438 47.523438 143.535156 47.730469 L 350.738281 74.15625 C 355.957031 74.824219 359.867188 79.261719 359.867188 84.523438 L 359.867188 226.898438 C 359.867188 229.445312 358.703125 231.691406 356.902344 233.171875 C 355.246094 234.535156 351.339844 237.429688 351.339844 237.429688 " fill-opacity="1" fill-rule="nonzero"/><path fill="#95c251" d="M 344.996094 239.355469 L 137.792969 212.929688 C 132.574219 212.265625 128.664062 207.824219 128.664062 202.566406 L 128.664062 60.1875 C 128.664062 55.296875 132.960938 51.515625 137.8125 52.132812 L 345.015625 78.558594 C 350.234375 79.222656 354.144531 83.664062 354.144531 88.921875 L 354.144531 231.300781 C 354.144531 236.191406 349.847656 239.976562 344.996094 239.355469 " fill-opacity="1" fill-rule="nonzero"/><path fill="#ffffff" d="M 340.589844 233.488281 L 142.746094 208.253906 C 138.949219 207.773438 136.105469 204.542969 136.105469 200.71875 L 136.105469 63.382812 C 136.105469 60.117188 138.972656 57.589844 142.214844 58.003906 L 340.0625 83.234375 C 343.859375 83.71875 346.703125 86.949219 346.703125 90.773438 L 346.703125 228.109375 C 346.703125 231.375 343.832031 233.902344 340.589844 233.488281 " fill-opacity="1" fill-rule="nonzero"/><path fill="#e9f1dc" d="M 346.535156 99.457031 L 346.535156 90.773438 C 346.535156 86.945312 343.773438 83.714844 339.980469 83.234375 L 142.164062 58.003906 C 138.921875 57.589844 136.085938 60.113281 136.085938 63.378906 L 136.085938 73.214844 L 346.535156 99.457031 " fill-opacity="1" fill-rule="nonzero"/><path fill="#95c251" d="M 149.980469 66.558594 C 149.851562 68.382812 148.335938 69.761719 146.59375 69.640625 C 144.851562 69.519531 143.539062 67.945312 143.667969 66.121094 C 143.792969 64.300781 145.308594 62.921875 147.050781 63.042969 C 148.792969 63.164062 150.105469 64.738281 149.980469 66.558594 " fill-opacity="1" fill-rule="nonzero"/><path fill="#95c251" d="M 159.515625 68.230469 C 159.386719 70.050781 157.875 71.429688 156.128906 71.308594 C 154.386719 71.1875 153.074219 69.613281 153.203125 67.792969 C 153.328125 65.96875 154.84375 64.59375 156.585938 64.714844 C 158.332031 64.832031 159.640625 66.40625 159.515625 68.230469 " fill-opacity="1" fill-rule="nonzero"/><path fill="#95c251" d="M 169.042969 70.042969 C 168.914062 71.867188 167.398438 73.246094 165.65625 73.125 C 163.914062 73.003906 162.601562 71.429688 162.730469 69.605469 C 162.855469 67.785156 164.371094 66.40625 166.113281 66.527344 C 167.855469 66.648438 169.164062 68.222656 169.042969 70.042969 " fill-opacity="1" fill-rule="nonzero"/><path fill="#e9f1dc" d="M 140.734375 197.796875 L 140.960938 84.855469 C 140.96875 81.484375 143.929688 78.886719 147.273438 79.316406 L 334.503906 103.371094 C 336.449219 103.617188 337.902344 105.273438 337.898438 107.234375 L 337.628906 222.15625 C 337.625 224.496094 335.566406 226.300781 333.246094 226.003906 L 144.125 201.707031 C 142.167969 201.457031 140.707031 199.773438 140.734375 197.796875 " fill-opacity="1" fill-rule="nonzero"/><path fill="#ffffff" d="M 341.039062 200.738281 L 247.714844 189.496094 C 244.484375 189.105469 241.878906 186.128906 241.894531 182.847656 L 242.609375 26.101562 C 242.621094 22.820312 245.253906 20.476562 248.484375 20.863281 L 341.808594 32.105469 C 345.039062 32.496094 347.644531 35.472656 347.628906 38.753906 L 346.914062 195.5 C 346.898438 198.78125 344.269531 201.125 341.039062 200.738281 " fill-opacity="1" fill-rule="nonzero"/><path fill="#e9f1dc" d="M 339.949219 53.542969 L 262.601562 44.226562 L 262.628906 38.410156 L 339.976562 47.726562 L 339.949219 53.542969 " fill-opacity="1" fill-rule="nonzero"/><path fill="#e9f1dc" d="M 319.695312 62.558594 L 262.550781 55.675781 L 262.578125 49.859375 L 319.722656 56.742188 L 319.695312 62.558594 " fill-opacity="1" fill-rule="nonzero"/><path fill="#1d5f31" d="M 339.804688 84.523438 L 262.460938 75.203125 L 262.488281 69.386719 L 339.832031 78.707031 L 339.804688 84.523438 " fill-opacity="1" fill-rule="nonzero"/><path fill="#1d5f31" d="M 319.550781 93.539062 L 262.40625 86.652344 L 262.433594 80.835938 L 319.578125 87.722656 L 319.550781 93.539062 " fill-opacity="1" fill-rule="nonzero"/><path fill="#e9f1dc" d="M 339.667969 115.5 L 262.320312 106.183594 L 262.347656 100.367188 L 339.691406 109.683594 L 339.667969 115.5 " fill-opacity="1" fill-rule="nonzero"/><path fill="#e9f1dc" d="M 319.414062 124.515625 L 262.269531 117.632812 L 262.296875 111.816406 L 319.4375 118.699219 L 319.414062 124.515625 " fill-opacity="1" fill-rule="nonzero"/><path fill="#e9f1dc" d="M 339.523438 146.476562 L 262.179688 137.164062 L 262.207031 131.347656 L 339.550781 140.664062 L 339.523438 146.476562 " fill-opacity="1" fill-rule="nonzero"/><path fill="#e9f1dc" d="M 319.269531 155.496094 L 262.128906 148.613281 L 262.152344 142.796875 L 319.296875 149.679688 L 319.269531 155.496094 " fill-opacity="1" fill-rule="nonzero"/><path fill="#e9f1dc" d="M 339.523438 173.511719 L 262.179688 164.195312 L 262.207031 158.378906 L 339.550781 167.695312 L 339.523438 173.511719 " fill-opacity="1" fill-rule="nonzero"/><path fill="#95c251" d="M 319.269531 182.527344 L 262.128906 175.640625 L 262.15625 169.828125 L 319.296875 176.710938 L 319.269531 182.527344 " fill-opacity="1" fill-rule="nonzero"/><path fill="#e9f1dc" d="M 257.695312 46.460938 L 249.34375 45.457031 L 249.382812 36.96875 L 257.734375 37.976562 L 257.695312 46.460938 " fill-opacity="1" fill-rule="nonzero"/><path fill="#1d5f31" d="M 257.136719 76.964844 L 248.789062 75.957031 L 248.828125 67.472656 L 257.179688 68.476562 L 257.136719 76.964844 " fill-opacity="1" fill-rule="nonzero"/><path fill="#e9f1dc" d="M 257.414062 107.851562 L 249.0625 106.84375 L 249.101562 98.355469 L 257.453125 99.363281 L 257.414062 107.851562 " fill-opacity="1" fill-rule="nonzero"/><path fill="#e9f1dc" d="M 257.480469 139.066406 L 249.128906 138.058594 L 249.167969 129.574219 L 257.519531 130.578125 L 257.480469 139.066406 " fill-opacity="1" fill-rule="nonzero"/><path fill="#e9f1dc" d="M 257.148438 166.199219 L 248.796875 165.191406 L 248.835938 156.703125 L 257.1875 157.710938 L 257.148438 166.199219 " fill-opacity="1" fill-rule="nonzero"/><path fill="#000000" d="M 346.691406 221.1875 L 346.6875 221.1875 C 346.335938 221.183594 346.050781 220.898438 346.054688 220.542969 L 346.992188 38.75 C 347.003906 35.789062 344.648438 33.09375 341.734375 32.742188 L 248.40625 21.496094 C 247.039062 21.332031 245.75 21.714844 244.78125 22.566406 C 243.796875 23.4375 243.25 24.691406 243.246094 26.105469 L 242.449219 136.058594 C 242.445312 136.40625 242.164062 136.6875 241.8125 136.6875 C 241.8125 136.6875 241.808594 136.6875 241.808594 136.6875 C 241.457031 136.6875 241.171875 136.398438 241.175781 136.046875 L 241.972656 26.097656 C 241.980469 24.316406 242.675781 22.726562 243.9375 21.613281 C 245.183594 20.511719 246.824219 20.023438 248.558594 20.230469 L 341.886719 31.476562 C 345.421875 31.902344 348.285156 35.167969 348.265625 38.753906 L 347.328125 220.554688 C 347.324219 220.902344 347.039062 221.1875 346.691406 221.1875 " fill-opacity="1" fill-rule="nonzero"/><path fill="#1d5f31" d="M 296.636719 317.320312 C 296.636719 317.320312 301.964844 324.390625 301.582031 329.039062 L 301.691406 330.839844 L 312.816406 320.714844 L 311.257812 320.085938 C 308.800781 318.402344 306.199219 317.402344 304.769531 314.785156 L 296.636719 317.320312 " fill-opacity="1" fill-rule="nonzero"/><path fill="#ffffff" d="M 299.675781 326.71875 L 299.847656 328.910156 C 300.191406 333.25 299.46875 337.609375 297.75 341.609375 L 296.433594 344.683594 C 296.304688 344.976562 296.335938 345.3125 296.503906 345.582031 L 296.59375 345.71875 C 297.5625 347.234375 301.835938 348.542969 307.234375 344.878906 C 310.578125 342.613281 317.359375 336.320312 321.996094 325.328125 C 322.289062 324.632812 322.097656 323.828125 321.523438 323.34375 C 319.414062 321.578125 314.222656 317.546875 310.167969 317.09375 C 309.71875 317.042969 309.316406 317.382812 309.3125 317.835938 L 309.273438 322.199219 C 309.257812 324.15625 307.648438 325.726562 305.691406 325.703125 L 300.691406 325.636719 C 300.101562 325.625 299.628906 326.128906 299.675781 326.71875 " fill-opacity="1" fill-rule="nonzero"/><path fill="#000000" d="M 300.308594 326.667969 L 300.480469 328.859375 C 300.828125 333.285156 300.085938 337.78125 298.335938 341.863281 L 297.015625 344.9375 C 296.972656 345.035156 296.980469 345.148438 297.039062 345.238281 L 297.125 345.375 C 297.371094 345.757812 298.03125 346.246094 299.167969 346.476562 C 300.480469 346.75 303.222656 346.832031 306.878906 344.355469 C 308.375 343.339844 316.113281 337.640625 321.410156 325.078125 C 321.59375 324.636719 321.472656 324.136719 321.109375 323.832031 C 319.09375 322.140625 313.984375 318.160156 310.09375 317.726562 C 310.035156 317.71875 310 317.746094 309.984375 317.757812 C 309.949219 317.789062 309.949219 317.828125 309.949219 317.839844 L 309.910156 322.207031 C 309.898438 323.324219 309.453125 324.367188 308.652344 325.148438 C 307.855469 325.933594 306.816406 326.359375 305.683594 326.339844 L 300.679688 326.273438 C 300.539062 326.269531 300.449219 326.34375 300.40625 326.386719 C 300.363281 326.433594 300.296875 326.527344 300.308594 326.667969 Z M 300.511719 347.882812 C 299.863281 347.882812 299.328125 347.8125 298.910156 347.726562 C 297.597656 347.457031 296.554688 346.847656 296.054688 346.0625 L 295.964844 345.925781 C 295.683594 345.476562 295.636719 344.921875 295.84375 344.433594 L 297.164062 341.359375 C 298.835938 337.46875 299.542969 333.179688 299.210938 328.960938 L 299.039062 326.769531 C 299.003906 326.308594 299.164062 325.855469 299.476562 325.515625 C 299.785156 325.1875 300.222656 324.996094 300.675781 324.996094 C 300.683594 324.996094 300.691406 324.996094 300.699219 324.996094 L 305.699219 325.066406 C 306.488281 325.074219 307.207031 324.78125 307.765625 324.238281 C 308.320312 323.695312 308.628906 322.96875 308.632812 322.195312 L 308.671875 317.828125 C 308.675781 317.4375 308.847656 317.066406 309.140625 316.804688 C 309.4375 316.542969 309.839844 316.417969 310.234375 316.460938 C 314.472656 316.933594 319.824219 321.089844 321.929688 322.855469 C 322.726562 323.523438 322.988281 324.613281 322.582031 325.574219 C 317.144531 338.460938 309.140625 344.359375 307.59375 345.40625 C 304.664062 347.394531 302.210938 347.882812 300.511719 347.882812 " fill-opacity="1" fill-rule="nonzero"/><path fill="#000000" d="M 296.992188 344.207031 C 296.742188 344.207031 296.511719 344.0625 296.40625 343.820312 C 296.265625 343.5 296.414062 343.125 296.738281 342.984375 L 297.429688 342.683594 C 300.898438 341.175781 303.640625 338.273438 304.945312 334.722656 L 305.40625 333.464844 C 305.609375 332.914062 306.101562 332.546875 306.691406 332.511719 C 307.28125 332.476562 307.808594 332.78125 308.078125 333.308594 L 308.675781 334.480469 C 308.738281 334.609375 308.851562 334.644531 308.910156 334.652344 C 308.972656 334.660156 309.089844 334.664062 309.1875 334.5625 C 312.414062 331.28125 314.878906 327.4375 316.515625 323.136719 L 317.457031 320.648438 C 317.582031 320.316406 317.953125 320.152344 318.277344 320.277344 C 318.605469 320.402344 318.773438 320.769531 318.648438 321.097656 L 317.703125 323.585938 C 316.007812 328.054688 313.449219 332.046875 310.097656 335.453125 C 309.738281 335.820312 309.21875 335.988281 308.714844 335.910156 C 308.210938 335.832031 307.769531 335.515625 307.542969 335.058594 L 306.941406 333.886719 C 306.894531 333.792969 306.820312 333.78125 306.765625 333.78125 C 306.710938 333.785156 306.636719 333.808594 306.601562 333.90625 L 306.140625 335.160156 C 304.714844 339.039062 301.722656 342.207031 297.933594 343.855469 L 297.242188 344.152344 C 297.160156 344.1875 297.074219 344.207031 296.992188 344.207031 " fill-opacity="1" fill-rule="nonzero"/><path fill="#1d5f31" d="M 256.105469 337.171875 C 256.105469 337.171875 256.71875 344.132812 253.832031 347.433594 L 252.9375 348.851562 L 266.464844 348.136719 L 265.8125 346.652344 C 264.648438 344.019531 263.753906 339.777344 263.980469 337.007812 L 256.105469 337.171875 " fill-opacity="1" fill-rule="nonzero"/><path fill="#ffffff" d="M 254.253906 342.933594 L 252.890625 344.332031 C 250.203125 347.105469 246.878906 349.179688 243.207031 350.378906 L 240.386719 351.296875 C 240.121094 351.386719 239.910156 351.601562 239.832031 351.871094 L 239.792969 352.011719 C 239.347656 353.546875 240.980469 357.160156 246.585938 358.609375 C 249.957031 359.484375 257.769531 360.292969 267.429688 357.253906 C 268.570312 356.894531 269.324219 355.796875 269.269531 354.597656 C 269.140625 351.828125 268.652344 346.890625 266.789062 344.253906 C 266.5625 343.933594 266.117188 343.886719 265.816406 344.148438 C 265.152344 344.71875 263.96875 345.742188 262.882812 346.679688 C 261.570312 347.8125 259.585938 347.664062 258.457031 346.34375 L 255.570312 342.976562 C 255.226562 342.578125 254.617188 342.558594 254.253906 342.933594 " fill-opacity="1" fill-rule="nonzero"/><path fill="#000000" d="M 254.25 342.933594 L 254.253906 342.933594 Z M 254.890625 343.300781 C 254.84375 343.300781 254.773438 343.3125 254.707031 343.378906 L 253.347656 344.777344 C 250.59375 347.609375 247.15625 349.757812 243.402344 350.984375 L 240.582031 351.902344 C 240.511719 351.925781 240.460938 351.980469 240.445312 352.050781 L 240.402344 352.1875 C 240.292969 352.558594 240.355469 353.265625 240.855469 354.140625 C 241.4375 355.160156 242.976562 357.019531 246.746094 357.996094 C 248.226562 358.378906 256.191406 360.121094 267.238281 356.644531 C 268.097656 356.375 268.671875 355.546875 268.628906 354.628906 C 268.511719 351.96875 268.042969 347.136719 266.265625 344.625 L 263.300781 347.164062 C 262.535156 347.824219 261.566406 348.144531 260.550781 348.070312 C 259.546875 347.992188 258.625 347.527344 257.96875 346.757812 L 255.082031 343.390625 C 255.019531 343.316406 254.941406 343.304688 254.898438 343.300781 C 254.894531 343.300781 254.890625 343.300781 254.890625 343.300781 Z M 253.9375 360.039062 C 249.917969 360.042969 247.238281 359.4375 246.421875 359.226562 C 242.203125 358.132812 240.429688 355.964844 239.75 354.769531 C 239.152344 353.71875 238.941406 352.652344 239.179688 351.835938 L 239.214844 351.699219 C 239.355469 351.222656 239.714844 350.847656 240.1875 350.695312 L 243.007812 349.773438 C 246.5625 348.609375 249.824219 346.574219 252.433594 343.890625 L 253.792969 342.492188 C 254.09375 342.183594 254.511719 342.019531 254.9375 342.027344 C 255.367188 342.042969 255.769531 342.234375 256.050781 342.5625 L 258.9375 345.929688 C 259.371094 346.441406 259.980469 346.75 260.644531 346.796875 C 261.3125 346.851562 261.960938 346.632812 262.464844 346.195312 L 265.398438 343.667969 C 265.679688 343.421875 266.054688 343.308594 266.414062 343.351562 C 266.773438 343.394531 267.097656 343.589844 267.308594 343.886719 C 269.273438 346.664062 269.777344 351.773438 269.902344 354.570312 C 269.96875 356.0625 269.03125 357.417969 267.621094 357.859375 C 262.238281 359.554688 257.546875 360.039062 253.9375 360.039062 " fill-opacity="1" fill-rule="nonzero"/><path fill="#000000" d="M 256.257812 355.113281 C 255.683594 355.113281 255.109375 355.097656 254.535156 355.066406 C 254.058594 355.039062 253.621094 354.78125 253.363281 354.382812 C 253.105469 353.980469 253.058594 353.476562 253.234375 353.03125 L 253.667969 351.945312 C 253.675781 351.929688 253.691406 351.890625 253.648438 351.847656 C 253.605469 351.804688 253.566406 351.820312 253.546875 351.824219 L 252.441406 352.253906 C 249.003906 353.585938 245.121094 353.445312 241.789062 351.878906 L 241.183594 351.59375 C 240.867188 351.445312 240.730469 351.066406 240.878906 350.746094 C 241.027344 350.429688 241.40625 350.292969 241.726562 350.441406 L 242.332031 350.726562 C 245.351562 352.144531 248.871094 352.273438 251.980469 351.066406 L 253.085938 350.636719 C 253.605469 350.4375 254.167969 350.558594 254.550781 350.949219 C 254.941406 351.34375 255.054688 351.90625 254.851562 352.417969 L 254.421875 353.503906 C 254.382812 353.589844 254.414062 353.660156 254.4375 353.695312 C 254.460938 353.730469 254.511719 353.789062 254.605469 353.796875 C 258.671875 354.023438 262.664062 353.410156 266.476562 351.984375 L 268.6875 351.15625 C 269.019531 351.03125 269.382812 351.199219 269.503906 351.527344 C 269.628906 351.855469 269.460938 352.222656 269.132812 352.347656 L 266.921875 353.175781 C 263.484375 354.464844 259.902344 355.113281 256.257812 355.113281 " fill-opacity="1" fill-rule="nonzero"/><path fill="#000000" d="M 280.414062 223.285156 C 280.414062 223.285156 285.875 241.355469 276.566406 254.179688 C 264.015625 271.457031 271.1875 311.328125 264.90625 338.136719 C 264.789062 338.648438 264.324219 339.007812 263.796875 339 L 256.191406 338.917969 C 255.683594 338.910156 255.242188 338.574219 255.113281 338.082031 C 253.324219 331.398438 241.3125 286.152344 241.699219 277.132812 C 241.785156 275.074219 242.046875 272.675781 242.40625 270.15625 C 244.164062 257.933594 247.855469 246.070312 253.21875 234.949219 L 261.582031 217.597656 L 280.414062 223.285156 " fill-opacity="1" fill-rule="nonzero"/><path fill="#000000" d="M 286.304688 221.242188 C 286.304688 221.242188 293.171875 234.007812 290.132812 247.441406 C 287.09375 260.875 291.664062 272.011719 294.886719 277.257812 C 298.070312 282.441406 303.90625 295.511719 305.957031 314.941406 C 306.007812 315.414062 305.835938 315.882812 305.492188 316.210938 C 304.421875 317.238281 301.761719 319.316406 297.753906 319.488281 C 297.289062 319.507812 296.839844 319.316406 296.53125 318.96875 C 293.367188 315.375 275.171875 294.289062 268.707031 277.515625 C 261.613281 259.117188 260.285156 228.542969 260.285156 228.542969 C 260.285156 228.542969 277.9375 230.410156 286.304688 221.242188 " fill-opacity="1" fill-rule="nonzero"/><path fill="#e9f1dc" d="M 269.585938 283.152344 C 269.570312 283.152344 269.554688 283.152344 269.539062 283.152344 C 269.1875 283.125 268.925781 282.820312 268.949219 282.46875 C 269.734375 271.574219 271.144531 260.5625 276.046875 253.804688 C 279.488281 249.0625 281.277344 243.054688 281.363281 235.933594 C 281.367188 235.585938 281.652344 235.308594 282 235.308594 C 282.003906 235.308594 282.007812 235.308594 282.007812 235.308594 C 282.359375 235.3125 282.640625 235.601562 282.636719 235.949219 C 282.550781 243.335938 280.675781 249.59375 277.078125 254.554688 C 272.363281 261.050781 270.992188 271.855469 270.222656 282.5625 C 270.195312 282.898438 269.914062 283.152344 269.585938 283.152344 " fill-opacity="1" fill-rule="nonzero"/><path fill="#ffffff" d="M 221.621094 141.558594 C 221.621094 141.558594 221.019531 138.839844 221.96875 137.058594 C 222.84375 135.414062 224.785156 131.546875 223.785156 128.480469 C 222.496094 124.5 218.75 121.695312 217.933594 122.355469 C 217.203125 122.949219 220.484375 129.324219 218.753906 132.34375 C 218.386719 132.984375 217.566406 133.214844 216.910156 132.890625 C 216.113281 132.492188 214.980469 131.636719 213.941406 129.789062 C 213.675781 129.324219 212.996094 129.296875 212.71875 129.757812 C 212.335938 130.390625 212 131.453125 212.210938 133.140625 C 212.484375 135.296875 213.636719 137.308594 214.617188 138.265625 C 215.683594 139.308594 216.109375 142.582031 216.109375 142.582031 L 221.621094 141.558594 " fill-opacity="1" fill-rule="nonzero"/><path fill="#000000" d="M 213.3125 130.0625 C 213.277344 130.0625 213.265625 130.078125 213.265625 130.085938 C 212.964844 130.582031 212.648438 131.503906 212.84375 133.0625 C 213.089844 134.996094 214.144531 136.914062 215.0625 137.808594 C 215.96875 138.695312 216.445312 140.753906 216.636719 141.835938 L 220.890625 141.046875 C 220.761719 140.066406 220.648438 138.179688 221.40625 136.761719 C 223.21875 133.351562 223.816406 130.632812 223.183594 128.675781 C 222.136719 125.457031 219.460938 123.226562 218.476562 122.929688 C 218.539062 123.359375 218.753906 124.128906 218.929688 124.773438 C 219.605469 127.207031 220.527344 130.535156 219.308594 132.660156 C 218.773438 133.589844 217.597656 133.941406 216.625 133.460938 C 215.769531 133.035156 214.515625 132.105469 213.386719 130.105469 C 213.367188 130.070312 213.335938 130.0625 213.3125 130.0625 Z M 215.566406 143.332031 L 215.476562 142.664062 C 215.324219 141.480469 214.832031 139.367188 214.171875 138.71875 C 213.128906 137.703125 211.875 135.550781 211.582031 133.222656 C 211.386719 131.679688 211.585938 130.402344 212.171875 129.429688 C 212.417969 129.023438 212.855469 128.777344 213.332031 128.789062 C 213.8125 128.796875 214.257812 129.058594 214.496094 129.476562 C 215.46875 131.199219 216.496094 131.972656 217.191406 132.320312 C 217.554688 132.496094 218.007812 132.367188 218.203125 132.027344 C 219.15625 130.363281 218.28125 127.203125 217.703125 125.113281 C 217.191406 123.269531 216.9375 122.34375 217.53125 121.863281 C 217.75 121.683594 218.144531 121.515625 218.796875 121.707031 C 220.359375 122.167969 223.253906 124.777344 224.394531 128.28125 C 225.519531 131.746094 223.269531 135.96875 222.53125 137.359375 C 221.84375 138.648438 222.089844 140.726562 222.246094 141.417969 L 222.386719 142.0625 L 215.566406 143.332031 " fill-opacity="1" fill-rule="nonzero"/><path fill="#1d5f31" d="M 289.335938 203.324219 C 289.15625 190.027344 286.25 181.238281 281.503906 175.523438 C 277.882812 171.167969 272.691406 168.398438 267.085938 167.570312 C 261.691406 166.773438 252.5 165.78125 249.238281 167.648438 C 246.945312 168.960938 248.332031 169.601562 247.679688 171.523438 C 245.84375 176.152344 245.953125 180.355469 246.679688 183.652344 C 247.390625 186.882812 249.007812 189.835938 251.199219 192.316406 C 254.3125 195.847656 253.289062 204.699219 248.304688 223.453125 C 248.304688 223.453125 269.984375 234.640625 291.765625 227.753906 C 291.765625 227.753906 289.523438 217.199219 289.335938 203.324219 " fill-opacity="1" fill-rule="nonzero"/><path fill="#000000" d="M 249.054688 223.109375 C 252.253906 224.628906 271.660156 233.167969 291.027344 227.316406 C 290.566406 224.925781 288.859375 215.304688 288.699219 203.332031 C 288.53125 190.921875 286.019531 181.957031 281.011719 175.933594 C 277.5625 171.773438 272.582031 169.027344 266.992188 168.203125 C 258.183594 166.898438 251.828125 166.898438 249.554688 168.199219 C 248.433594 168.84375 248.449219 169.105469 248.492188 169.808594 C 248.523438 170.277344 248.558594 170.914062 248.28125 171.726562 C 246.753906 175.59375 246.425781 179.550781 247.300781 183.515625 C 247.960938 186.503906 249.472656 189.402344 251.675781 191.894531 C 254.867188 195.515625 254.1875 203.707031 249.054688 223.109375 Z M 276.785156 230.613281 C 261.019531 230.613281 248.175781 224.105469 248.007812 224.019531 C 247.742188 223.882812 247.609375 223.578125 247.6875 223.289062 C 252.75 204.25 253.574219 195.972656 250.71875 192.738281 C 248.375 190.082031 246.761719 186.984375 246.058594 183.789062 C 245.125 179.570312 245.472656 175.367188 247.089844 171.285156 C 247.273438 170.738281 247.246094 170.304688 247.222656 169.882812 C 247.160156 168.859375 247.246094 168.054688 248.921875 167.097656 C 252.191406 165.222656 260.65625 165.976562 267.175781 166.941406 C 273.078125 167.8125 278.339844 170.71875 281.996094 175.117188 C 287.191406 181.378906 289.800781 190.601562 289.96875 203.316406 C 290.15625 216.972656 292.363281 227.519531 292.386719 227.621094 C 292.453125 227.945312 292.269531 228.265625 291.957031 228.363281 C 286.8125 229.988281 281.65625 230.613281 276.785156 230.613281 " fill-opacity="1" fill-rule="nonzero"/><path fill="#1d5f31" d="M 256.433594 166.585938 C 243.582031 167.335938 236.171875 160.734375 230.585938 154.058594 C 227.519531 150.394531 225.644531 147.65625 223.707031 142.113281 C 223.398438 141.234375 222.5 140.695312 221.574219 140.839844 L 215.847656 141.734375 C 214.847656 141.890625 214.136719 142.789062 214.210938 143.796875 C 214.789062 151.582031 219.136719 182.214844 251.800781 186.476562 C 251.800781 186.476562 262.386719 172.710938 256.433594 166.585938 " fill-opacity="1" fill-rule="nonzero"/><path fill="#000000" d="M 250.449219 186.917969 C 250.414062 186.917969 250.382812 186.914062 250.351562 186.910156 C 236.773438 184.785156 226.628906 177.878906 220.199219 166.382812 C 215.050781 157.171875 213.851562 147.550781 213.578125 143.84375 C 213.476562 142.511719 214.433594 141.308594 215.753906 141.101562 L 221.476562 140.210938 C 222.710938 140.019531 223.898438 140.730469 224.308594 141.902344 C 226.179688 147.242188 227.980469 149.945312 231.074219 153.648438 C 236.507812 160.144531 243.765625 166.691406 256.398438 165.949219 C 256.753906 165.925781 257.050781 166.195312 257.070312 166.546875 C 257.089844 166.898438 256.824219 167.199219 256.472656 167.222656 C 243.277344 167.992188 235.734375 161.207031 230.097656 154.464844 C 226.902344 150.644531 225.039062 147.851562 223.105469 142.324219 C 222.898438 141.730469 222.296875 141.371094 221.675781 141.46875 L 215.949219 142.359375 C 215.269531 142.464844 214.796875 143.0625 214.847656 143.75 C 215.488281 152.367188 219.953125 180.867188 250.546875 185.648438 C 250.894531 185.703125 251.132812 186.03125 251.078125 186.378906 C 251.027344 186.691406 250.757812 186.917969 250.449219 186.917969 " fill-opacity="1" fill-rule="nonzero"/><path fill="#ffffff" d="M 213.011719 110.183594 L 176.96875 106.574219 C 174.789062 106.355469 173.023438 107.878906 173.023438 109.980469 L 173.023438 167.316406 C 173.023438 169.902344 175.199219 172.214844 177.878906 172.480469 L 214.570312 176.15625 C 217.417969 176.441406 219.726562 174.445312 219.726562 171.699219 L 219.726562 118.597656 L 213.011719 110.183594 " fill-opacity="1" fill-rule="nonzero"/><path fill="#1d5f31" d="M 176.550781 107.1875 C 175.785156 107.1875 175.085938 107.445312 174.550781 107.929688 C 173.976562 108.445312 173.664062 109.175781 173.664062 109.980469 L 173.664062 167.3125 C 173.664062 169.578125 175.582031 171.609375 177.941406 171.847656 L 214.632812 175.519531 C 215.871094 175.648438 217.015625 175.292969 217.863281 174.527344 C 218.652344 173.8125 219.089844 172.804688 219.089844 171.699219 L 219.089844 118.820312 L 212.679688 110.789062 L 176.902344 107.207031 C 176.785156 107.195312 176.667969 107.1875 176.550781 107.1875 Z M 215.117188 176.820312 C 214.914062 176.820312 214.710938 176.8125 214.507812 176.789062 L 177.8125 173.113281 C 174.824219 172.816406 172.390625 170.214844 172.390625 167.3125 L 172.390625 109.980469 C 172.390625 108.8125 172.851562 107.746094 173.695312 106.984375 C 174.582031 106.183594 175.765625 105.8125 177.03125 105.941406 L 213.339844 109.574219 L 220.363281 118.375 L 220.363281 171.699219 C 220.363281 173.171875 219.777344 174.511719 218.71875 175.472656 C 217.746094 176.351562 216.484375 176.820312 215.117188 176.820312 " fill-opacity="1" fill-rule="nonzero"/><path fill="#1d5f31" d="M 213.011719 110.183594 L 212.921875 116.800781 C 212.910156 117.496094 213.429688 118.132812 214.097656 118.246094 L 219.519531 118.761719 C 219.742188 118.78125 219.855469 118.519531 219.707031 118.332031 L 213.011719 110.183594 " fill-opacity="1" fill-rule="nonzero"/><path fill="#1d5f31" d="M 212.90625 158.078125 C 212.886719 158.078125 212.863281 158.078125 212.84375 158.074219 L 179.207031 154.707031 C 178.855469 154.671875 178.597656 154.359375 178.632812 154.011719 C 178.671875 153.660156 178.980469 153.40625 179.332031 153.441406 L 212.96875 156.808594 C 213.320312 156.84375 213.574219 157.15625 213.539062 157.503906 C 213.507812 157.832031 213.230469 158.078125 212.90625 158.078125 " fill-opacity="1" fill-rule="nonzero"/><path fill="#1d5f31" d="M 212.90625 149.433594 C 212.886719 149.433594 212.863281 149.433594 212.84375 149.429688 L 179.207031 146.0625 C 178.855469 146.027344 178.597656 145.714844 178.632812 145.363281 C 178.671875 145.015625 178.980469 144.761719 179.332031 144.792969 L 212.96875 148.164062 C 213.320312 148.199219 213.574219 148.511719 213.539062 148.863281 C 213.507812 149.1875 213.230469 149.433594 212.90625 149.433594 " fill-opacity="1" fill-rule="nonzero"/><path fill="#1d5f31" d="M 213.601562 141.21875 C 213.578125 141.21875 213.558594 141.21875 213.535156 141.21875 L 198.277344 139.6875 C 197.929688 139.652344 197.671875 139.34375 197.707031 138.992188 C 197.742188 138.644531 198.050781 138.386719 198.402344 138.421875 L 213.664062 139.953125 C 214.011719 139.984375 214.269531 140.296875 214.234375 140.648438 C 214.199219 140.976562 213.921875 141.21875 213.601562 141.21875 " fill-opacity="1" fill-rule="nonzero"/><path fill="#1d5f31" d="M 213.601562 133.296875 C 213.578125 133.296875 213.558594 133.296875 213.535156 133.296875 L 198.277344 131.765625 C 197.929688 131.730469 197.671875 131.417969 197.707031 131.070312 C 197.742188 130.71875 198.050781 130.460938 198.402344 130.5 L 213.664062 132.027344 C 214.011719 132.0625 214.269531 132.375 214.234375 132.722656 C 214.199219 133.054688 213.921875 133.296875 213.601562 133.296875 " fill-opacity="1" fill-rule="nonzero"/><path fill="#1d5f31" d="M 180.671875 136.976562 L 192.128906 138.125 L 192.128906 130.417969 L 180.671875 129.269531 Z M 192.765625 139.464844 C 192.746094 139.464844 192.726562 139.464844 192.703125 139.460938 L 179.972656 138.1875 C 179.648438 138.152344 179.398438 137.882812 179.398438 137.554688 L 179.398438 128.5625 C 179.398438 128.382812 179.476562 128.210938 179.609375 128.089844 C 179.742188 127.96875 179.921875 127.914062 180.101562 127.929688 L 192.832031 129.203125 C 193.15625 129.238281 193.40625 129.511719 193.40625 129.839844 L 193.40625 138.828125 C 193.40625 139.007812 193.328125 139.179688 193.195312 139.300781 C 193.078125 139.40625 192.925781 139.464844 192.765625 139.464844 " fill-opacity="1" fill-rule="nonzero"/><path fill="#ffffff" d="M 210.8125 170.890625 L 209.714844 167.238281 C 209.386719 165.609375 212.695312 162.097656 210.53125 161.117188 C 208.957031 160.40625 209.121094 162.882812 206.886719 163.289062 C 205.71875 163.503906 204.4375 161.242188 204.234375 160.1875 C 203.539062 156.519531 201.957031 155.171875 200.558594 155.667969 C 199.15625 156.164062 197.324219 161.851562 199.820312 165.859375 C 202.320312 169.867188 207.351562 173.230469 207.351562 173.230469 L 210.8125 170.890625 " fill-opacity="1" fill-rule="nonzero"/><path fill="#000000" d="M 201.121094 156.207031 C 201.003906 156.207031 200.890625 156.226562 200.769531 156.269531 C 200.609375 156.324219 200.152344 156.808594 199.753906 157.945312 C 199.074219 159.898438 198.820312 163.054688 200.359375 165.523438 C 202.382812 168.761719 206.1875 171.625 207.355469 172.457031 L 210.070312 170.625 L 209.105469 167.421875 C 209.101562 167.402344 209.09375 167.382812 209.089844 167.363281 C 208.921875 166.523438 209.386719 165.519531 209.875 164.457031 C 210.277344 163.585938 210.78125 162.503906 210.59375 161.996094 C 210.5625 161.914062 210.496094 161.800781 210.265625 161.699219 C 209.96875 161.5625 209.929688 161.546875 209.4375 162.203125 C 208.972656 162.824219 208.335938 163.671875 207 163.914062 C 205.304688 164.226562 203.835938 161.488281 203.609375 160.304688 C 203.222656 158.285156 202.523438 156.851562 201.679688 156.367188 C 201.492188 156.261719 201.304688 156.207031 201.121094 156.207031 Z M 207.351562 173.867188 C 207.226562 173.867188 207.101562 173.832031 206.996094 173.761719 C 206.785156 173.621094 201.820312 170.273438 199.28125 166.195312 C 197.503906 163.347656 197.777344 159.746094 198.554688 157.527344 C 198.824219 156.75 199.417969 155.394531 200.34375 155.070312 C 201.003906 154.832031 201.683594 154.902344 202.3125 155.261719 C 203.511719 155.953125 204.394531 157.613281 204.859375 160.066406 C 205.050781 161.070312 206.203125 162.765625 206.773438 162.664062 C 207.617188 162.511719 208.007812 161.988281 208.417969 161.441406 C 208.859375 160.851562 209.523438 159.960938 210.792969 160.539062 C 211.285156 160.761719 211.621094 161.101562 211.785156 161.554688 C 212.160156 162.554688 211.585938 163.792969 211.03125 164.992188 C 210.671875 165.769531 210.265625 166.648438 210.335938 167.089844 L 211.421875 170.707031 C 211.5 170.972656 211.398438 171.261719 211.171875 171.417969 L 207.707031 173.757812 C 207.601562 173.832031 207.476562 173.867188 207.351562 173.867188 " fill-opacity="1" fill-rule="nonzero"/><path fill="#1d5f31" d="M 210.523438 168.730469 L 205.519531 171.746094 C 204.835938 172.160156 204.492188 172.96875 204.679688 173.75 C 206.136719 179.792969 218.996094 199.390625 260.722656 199.117188 C 268.386719 199.066406 271.460938 188.988281 268.511719 181.914062 C 266.890625 178.023438 262.777344 175.816406 258.628906 176.5625 C 248.855469 178.316406 225.308594 184.070312 212.90625 169.148438 C 212.320312 168.441406 211.3125 168.253906 210.523438 168.730469 " fill-opacity="1" fill-rule="nonzero"/><path fill="#000000" d="M 259.84375 199.757812 C 242.175781 199.757812 227.851562 196.253906 217.253906 189.335938 C 208.382812 183.550781 204.785156 176.910156 204.058594 173.902344 C 203.808594 172.847656 204.261719 171.761719 205.191406 171.199219 L 210.195312 168.183594 C 211.253906 167.546875 212.597656 167.78125 213.394531 168.742188 C 224.695312 182.335938 245.238281 178.445312 256.277344 176.355469 C 257.082031 176.199219 257.832031 176.058594 258.515625 175.933594 C 260.152344 175.640625 261.84375 175.773438 263.402344 176.316406 C 263.738281 176.433594 263.914062 176.796875 263.796875 177.128906 C 263.683594 177.457031 263.320312 177.636719 262.988281 177.519531 C 261.632812 177.046875 260.160156 176.933594 258.738281 177.1875 C 258.0625 177.308594 257.316406 177.453125 256.511719 177.605469 C 246.023438 179.59375 224.199219 183.726562 212.417969 169.554688 C 212.023438 169.082031 211.371094 168.964844 210.851562 169.273438 L 205.851562 172.289062 C 205.394531 172.5625 205.175781 173.089844 205.296875 173.601562 C 206.867188 180.09375 220.261719 198.484375 259.875 198.484375 C 260.15625 198.484375 260.4375 198.484375 260.71875 198.480469 C 261.535156 198.476562 262.324219 198.34375 263.054688 198.09375 C 263.382812 197.980469 263.75 198.15625 263.863281 198.488281 C 263.976562 198.824219 263.800781 199.183594 263.46875 199.296875 C 262.605469 199.59375 261.683594 199.75 260.726562 199.753906 C 260.433594 199.757812 260.136719 199.757812 259.84375 199.757812 " fill-opacity="1" fill-rule="nonzero"/><path fill="#000000" d="M 253.789062 146.226562 C 253.339844 144.757812 253.121094 143.226562 253.25 141.695312 C 253.511719 138.480469 254.964844 133.855469 260.660156 131.054688 C 270.125 126.390625 278.332031 137.648438 281.941406 139.300781 C 286.53125 141.394531 295.472656 138.8125 298.570312 139.765625 C 301.429688 140.648438 312.59375 142.292969 312.996094 156.550781 C 313.039062 158.125 312.898438 159.695312 312.683594 161.253906 C 312.40625 163.230469 310.875 168.589844 316.902344 174.214844 C 324.953125 181.730469 330.964844 201.40625 316.042969 209.660156 C 312.472656 211.636719 309.441406 210.59375 306.066406 208.984375 C 305.457031 208.691406 304.8125 208.347656 304.152344 207.945312 C 302.238281 206.78125 300.378906 203.75 297.875 203.839844 C 290.53125 204.117188 268.566406 210.230469 273.980469 184.707031 C 275.503906 177.535156 271.660156 169.1875 268.960938 167.550781 C 266.761719 166.222656 253.765625 167.4375 252.886719 166.621094 C 247.53125 161.652344 250.160156 155.394531 252.664062 151.910156 C 254.511719 149.335938 254.179688 147.515625 253.789062 146.226562 " fill-opacity="1" fill-rule="nonzero"/><path fill="#ffffff" d="M 271.359375 149.867188 C 271.019531 149.945312 270.6875 149.710938 270.65625 149.363281 C 270.507812 147.71875 269.402344 144.914062 267.574219 143.855469 C 265.230469 142.503906 262.089844 142.386719 260.867188 144.105469 C 259.796875 145.609375 260.023438 146.78125 257.515625 148.382812 C 257.273438 148.535156 257.324219 148.914062 257.492188 149.144531 L 258.351562 150.472656 C 258.539062 150.730469 258.558594 151.414062 258.492188 151.726562 C 258.296875 152.695312 257.867188 154.691406 258.046875 155.089844 C 258.570312 156.25 262.003906 157.167969 262.003906 157.167969 L 261.65625 166.085938 C 261.550781 167.292969 261.015625 167.503906 261.015625 167.503906 L 258.984375 169.351562 C 258.984375 169.351562 258.910156 171.535156 266.824219 172.796875 C 272.765625 173.742188 272.394531 172.691406 272.394531 172.691406 C 272.394531 172.691406 267.351562 167.402344 269.496094 155.886719 C 269.542969 155.632812 269.722656 155.425781 269.964844 155.335938 C 270.898438 155.007812 273.449219 153.976562 273.609375 152.179688 C 273.785156 150.273438 272.519531 149.585938 271.359375 149.867188 " fill-opacity="1" fill-rule="nonzero"/><path fill="#000000" d="M 271.359375 149.863281 L 271.363281 149.863281 Z M 260.777344 166.914062 Z M 260.777344 166.917969 Z M 259.621094 169.3125 Z M 259.730469 169.535156 C 260.082031 170.039062 261.476562 171.300781 266.921875 172.164062 C 269.59375 172.59375 270.859375 172.589844 271.4375 172.523438 C 270.171875 170.796875 267.074219 165.414062 268.867188 155.769531 C 268.957031 155.296875 269.296875 154.902344 269.75 154.738281 C 270.476562 154.480469 272.847656 153.53125 272.980469 152.121094 C 273.035156 151.464844 272.898438 150.972656 272.578125 150.695312 C 272.308594 150.460938 271.917969 150.382812 271.503906 150.484375 C 271.160156 150.566406 270.800781 150.496094 270.519531 150.292969 C 270.234375 150.089844 270.054688 149.773438 270.023438 149.425781 C 269.886719 147.910156 268.847656 145.324219 267.257812 144.410156 C 265.019531 143.117188 262.332031 143.148438 261.382812 144.476562 C 261.085938 144.898438 260.898438 145.289062 260.699219 145.707031 C 260.242188 146.664062 259.769531 147.65625 258.027344 148.808594 L 258.886719 150.121094 C 259.222656 150.585938 259.1875 151.507812 259.117188 151.851562 L 259.078125 152.058594 C 258.957031 152.652344 258.589844 154.429688 258.644531 154.859375 C 258.933594 155.386719 260.679688 156.152344 262.167969 156.550781 C 262.457031 156.625 262.652344 156.894531 262.640625 157.191406 L 262.292969 166.113281 C 262.179688 167.371094 261.664062 167.855469 261.390625 168.027344 Z M 270.714844 173.824219 C 269.820312 173.824219 268.546875 173.714844 266.722656 173.425781 C 258.660156 172.140625 258.332031 169.789062 258.347656 169.332031 C 258.355469 169.15625 258.429688 168.996094 258.558594 168.878906 L 260.589844 167.035156 C 260.628906 166.996094 260.675781 166.964844 260.722656 166.941406 C 260.761719 166.90625 260.964844 166.699219 261.019531 166.03125 L 261.347656 157.640625 C 260.25 157.304688 257.980469 156.492188 257.46875 155.351562 C 257.269531 154.917969 257.351562 154.121094 257.828125 151.800781 L 257.871094 151.597656 C 257.914062 151.390625 257.886719 150.953125 257.824219 150.824219 L 256.957031 149.492188 C 256.757812 149.222656 256.667969 148.84375 256.734375 148.507812 C 256.785156 148.226562 256.941406 147.988281 257.171875 147.84375 C 258.75 146.839844 259.121094 146.0625 259.550781 145.160156 C 259.761719 144.710938 259.984375 144.25 260.347656 143.738281 C 261.839844 141.640625 265.425781 141.882812 267.890625 143.304688 C 269.9375 144.488281 271.09375 147.449219 271.285156 149.226562 C 272.074219 149.0625 272.84375 149.242188 273.410156 149.730469 C 274.046875 150.28125 274.34375 151.171875 274.25 152.238281 C 274.0625 154.269531 271.617188 155.425781 270.179688 155.941406 C 270.148438 155.949219 270.125 155.972656 270.121094 156.003906 C 268.070312 167.015625 272.808594 172.203125 272.855469 172.253906 C 272.917969 172.316406 272.964844 172.398438 272.996094 172.480469 C 273.066406 172.679688 273.058594 172.996094 272.835938 173.269531 C 272.597656 173.550781 272.117188 173.824219 270.714844 173.824219 " fill-opacity="1" fill-rule="nonzero"/><path fill="#1d5f31" d="M 169.621094 86.417969 L 132.191406 83.085938 C 129.929688 82.882812 128.09375 84.421875 128.09375 86.523438 L 128.09375 143.859375 C 128.09375 146.445312 130.351562 148.738281 133.132812 148.988281 L 171.242188 152.378906 C 174.195312 152.644531 176.59375 150.628906 176.59375 147.882812 L 176.59375 94.78125 L 169.621094 86.417969 " fill-opacity="1" fill-rule="nonzero"/><path fill="#ffffff" d="M 131.800781 83.707031 C 130.964844 83.707031 130.179688 83.988281 129.613281 84.507812 C 129.046875 85.027344 128.730469 85.742188 128.730469 86.523438 L 128.730469 143.859375 C 128.730469 146.121094 130.730469 148.132812 133.191406 148.351562 L 171.296875 151.742188 C 172.605469 151.859375 173.863281 151.46875 174.742188 150.664062 C 175.527344 149.945312 175.957031 148.957031 175.957031 147.882812 L 175.957031 95.011719 L 169.300781 87.027344 L 132.132812 83.71875 C 132.023438 83.710938 131.910156 83.707031 131.800781 83.707031 Z M 171.746094 153.039062 C 171.558594 153.039062 171.371094 153.03125 171.1875 153.011719 L 133.078125 149.621094 C 129.980469 149.347656 127.457031 146.761719 127.457031 143.859375 L 127.457031 86.523438 C 127.457031 85.382812 127.917969 84.332031 128.753906 83.570312 C 129.65625 82.742188 130.929688 82.335938 132.246094 82.453125 L 169.941406 85.808594 L 177.230469 94.550781 L 177.230469 147.882812 C 177.230469 149.320312 176.652344 150.640625 175.601562 151.605469 C 174.589844 152.53125 173.207031 153.039062 171.746094 153.039062 " fill-opacity="1" fill-rule="nonzero"/><path fill="#ffffff" d="M 169.621094 86.414062 L 169.527344 93.035156 C 169.519531 93.734375 170.054688 94.363281 170.75 94.46875 L 176.378906 94.945312 C 176.613281 94.964844 176.730469 94.699219 176.574219 94.515625 L 169.621094 86.414062 " fill-opacity="1" fill-rule="nonzero"/><path fill="#ffffff" d="M 150.847656 104.292969 C 146.929688 104.292969 143.300781 105.726562 140.585938 108.363281 C 137.753906 111.105469 136.191406 114.894531 136.191406 119.027344 C 136.191406 127.972656 143.46875 135.894531 152.414062 136.691406 C 156.734375 137.074219 160.789062 135.753906 163.832031 132.96875 C 166.71875 130.328125 168.367188 126.667969 168.511719 122.605469 L 151.882812 121.203125 C 151.554688 121.179688 151.304688 120.90625 151.300781 120.578125 L 151.078125 104.296875 C 151.003906 104.292969 150.925781 104.292969 150.847656 104.292969 Z M 153.878906 138.03125 C 153.355469 138.03125 152.832031 138.007812 152.300781 137.960938 C 142.71875 137.109375 134.917969 128.613281 134.917969 119.027344 C 134.917969 114.546875 136.617188 110.433594 139.695312 107.445312 C 142.777344 104.460938 146.933594 102.894531 151.386719 103.027344 C 151.480469 103.03125 151.566406 103.054688 151.644531 103.09375 C 151.644531 103.09375 151.648438 103.09375 151.648438 103.09375 C 151.84375 103.128906 152.167969 103.1875 152.308594 103.539062 C 152.339844 103.621094 152.351562 103.710938 152.347656 103.800781 L 152.5625 119.984375 L 169.214844 121.382812 C 169.542969 121.410156 169.796875 121.6875 169.796875 122.019531 C 169.796875 126.675781 167.984375 130.898438 164.691406 133.910156 C 161.757812 136.59375 157.964844 138.03125 153.878906 138.03125 " fill-opacity="1" fill-rule="nonzero"/><path fill="#ffffff" d="M 155.433594 117.316406 L 170.050781 118.722656 C 169.351562 111.101562 162.867188 104.257812 155.125 102.957031 Z M 170.738281 120.066406 C 170.71875 120.066406 170.699219 120.0625 170.675781 120.0625 L 154.746094 118.53125 C 154.425781 118.5 154.175781 118.234375 154.171875 117.910156 L 153.835938 102.230469 C 153.828125 102.046875 153.90625 101.871094 154.042969 101.746094 C 154.179688 101.621094 154.363281 101.566406 154.550781 101.585938 C 163.453125 102.667969 171.003906 110.660156 171.371094 119.398438 C 171.382812 119.585938 171.308594 119.761719 171.175781 119.890625 C 171.054688 120.003906 170.902344 120.066406 170.738281 120.066406 " fill-opacity="1" fill-rule="nonzero"/><path fill="#ffffff" d="M 164.179688 133.355469 C 164.015625 133.355469 163.855469 133.296875 163.730469 133.171875 L 151.488281 121.023438 C 151.238281 120.773438 151.238281 120.371094 151.484375 120.121094 C 151.730469 119.871094 152.136719 119.871094 152.386719 120.117188 L 164.628906 132.269531 C 164.875 132.515625 164.878906 132.917969 164.632812 133.167969 C 164.507812 133.292969 164.34375 133.355469 164.179688 133.355469 " fill-opacity="1" fill-rule="nonzero"/><path fill="#ffffff" d="M 124.929688 60.011719 L 89.105469 55.847656 C 86.945312 55.59375 85.132812 57.09375 85.132812 59.195312 L 85.132812 116.527344 C 85.132812 119.113281 87.4375 121.460938 90.097656 121.769531 L 126.402344 126.011719 C 129.230469 126.339844 131.414062 124.378906 131.414062 121.632812 L 131.414062 68.53125 L 124.929688 60.011719 " fill-opacity="1" fill-rule="nonzero"/><path fill="#1d5f31" d="M 125.109375 60.011719 L 125.019531 66.628906 C 125.011719 67.328125 125.527344 67.96875 126.191406 68.09375 L 131.570312 68.691406 C 131.789062 68.71875 131.90625 68.453125 131.753906 68.265625 L 125.109375 60.011719 " fill-opacity="1" fill-rule="nonzero"/><path fill="#1d5f31" d="M 92.953125 110.039062 L 124.199219 113.679688 L 124.199219 73.804688 L 92.953125 70.167969 Z M 124.835938 115.03125 C 124.808594 115.03125 124.785156 115.03125 124.761719 115.023438 L 92.242188 111.238281 C 91.921875 111.203125 91.679688 110.929688 91.679688 110.605469 L 91.679688 69.449219 C 91.679688 69.269531 91.757812 69.09375 91.890625 68.976562 C 92.027344 68.851562 92.207031 68.796875 92.390625 68.816406 L 124.90625 72.605469 C 125.230469 72.640625 125.472656 72.914062 125.472656 73.238281 L 125.472656 114.394531 C 125.472656 114.574219 125.394531 114.746094 125.257812 114.871094 C 125.140625 114.972656 124.988281 115.03125 124.835938 115.03125 " fill-opacity="1" fill-rule="nonzero"/><path fill="#1d5f31" d="M 124.519531 88.082031 C 124.496094 88.082031 124.472656 88.082031 124.449219 88.078125 L 92.308594 84.601562 C 91.960938 84.5625 91.707031 84.246094 91.746094 83.898438 C 91.785156 83.550781 92.09375 83.296875 92.449219 83.332031 L 124.589844 86.8125 C 124.9375 86.851562 125.191406 87.164062 125.152344 87.515625 C 125.117188 87.84375 124.839844 88.082031 124.519531 88.082031 " fill-opacity="1" fill-rule="nonzero"/><path fill="#1d5f31" d="M 124.664062 100.664062 C 124.636719 100.664062 124.613281 100.664062 124.589844 100.660156 L 92.242188 96.894531 C 91.894531 96.855469 91.640625 96.535156 91.683594 96.1875 C 91.722656 95.839844 92.042969 95.589844 92.390625 95.628906 L 124.734375 99.394531 C 125.085938 99.4375 125.335938 99.753906 125.292969 100.101562 C 125.257812 100.425781 124.980469 100.664062 124.664062 100.664062 " fill-opacity="1" fill-rule="nonzero"/><path fill="#1d5f31" d="M 103.179688 112.484375 C 102.828125 112.484375 102.542969 112.199219 102.542969 111.851562 L 102.542969 70.664062 C 102.542969 70.3125 102.828125 70.027344 103.179688 70.027344 C 103.53125 70.027344 103.816406 70.3125 103.816406 70.664062 L 103.816406 111.851562 C 103.816406 112.199219 103.53125 112.484375 103.179688 112.484375 " fill-opacity="1" fill-rule="nonzero"/><path fill="#1d5f31" d="M 114.3125 113.40625 C 113.960938 113.40625 113.675781 113.125 113.671875 112.773438 L 113.421875 72.117188 C 113.421875 71.765625 113.703125 71.476562 114.054688 71.476562 C 114.398438 71.46875 114.695312 71.753906 114.695312 72.109375 L 114.949219 112.765625 C 114.949219 113.117188 114.667969 113.40625 114.316406 113.40625 C 114.3125 113.40625 114.3125 113.40625 114.3125 113.40625 " fill-opacity="1" fill-rule="nonzero"/><path fill="#95c251" d="M 83.828125 20.546875 L 48.148438 17.628906 C 46 17.453125 44.160156 18.972656 44.160156 21.023438 L 44.160156 77.035156 C 44.160156 79.558594 46.410156 81.78125 49.054688 82 L 85.316406 84.96875 C 88.125 85.199219 90.441406 83.210938 90.441406 80.527344 L 90.441406 28.65625 L 83.828125 20.546875 " fill-opacity="1" fill-rule="nonzero"/><path fill="#1d5f31" d="M 83.847656 20.546875 L 83.757812 27.015625 C 83.746094 27.695312 84.257812 28.304688 84.921875 28.40625 L 90.269531 28.816406 C 90.492188 28.835938 90.605469 28.574219 90.457031 28.398438 L 83.847656 20.546875 " fill-opacity="1" fill-rule="nonzero"/><path fill="#ffffff" d="M 65.6875 36.089844 C 62.148438 36.089844 58.847656 37.355469 56.285156 39.714844 C 53.320312 42.445312 51.691406 46.292969 51.691406 50.5625 C 51.691406 59.257812 58.570312 66.894531 67.023438 67.589844 C 71.027344 67.917969 74.804688 66.648438 77.664062 64.015625 C 80.625 61.285156 82.257812 57.433594 82.257812 53.171875 C 82.257812 44.472656 75.378906 36.832031 66.921875 36.140625 C 66.507812 36.105469 66.09375 36.089844 65.6875 36.089844 Z M 68.261719 68.914062 C 67.816406 68.914062 67.371094 68.898438 66.921875 68.859375 C 57.820312 68.113281 50.417969 59.90625 50.417969 50.5625 C 50.417969 45.9375 52.191406 41.75 55.421875 38.777344 C 58.542969 35.902344 62.664062 34.511719 67.023438 34.871094 C 76.125 35.617188 83.53125 43.824219 83.53125 53.171875 C 83.53125 57.796875 81.753906 61.976562 78.527344 64.953125 C 75.726562 67.53125 72.121094 68.914062 68.261719 68.914062 " fill-opacity="1" fill-rule="nonzero"/><path fill="#ffffff" d="M 63.167969 45.445312 L 63.515625 58.796875 C 63.535156 59.550781 64.347656 60.054688 64.960938 59.695312 L 74.652344 53.980469 C 75.214844 53.648438 75.21875 52.800781 74.65625 52.378906 L 64.617188 44.738281 C 63.984375 44.257812 63.148438 44.667969 63.167969 45.445312 " fill-opacity="1" fill-rule="nonzero"/><path fill="#1d5f31" d="M 35.085938 157.898438 C 23.175781 161.25 7.84375 174.144531 7.84375 197.539062 C 7.84375 214.390625 32.667969 228.664062 32.667969 228.664062 L 36.761719 218.613281 C 36.761719 218.613281 23.078125 208.480469 23.734375 196.652344 C 24.257812 187.167969 39.554688 184.222656 39.554688 184.222656 L 35.085938 157.898438 " fill-opacity="1" fill-rule="nonzero"/><path fill="#1d5f31" d="M 40.109375 350.144531 L 48.671875 350.144531 L 48.671875 340.09375 L 40.109375 340.09375 L 40.109375 350.144531 " fill-opacity="1" fill-rule="nonzero"/><path fill="#1d5f31" d="M 62.890625 348.28125 L 71.222656 350.246094 L 73.53125 340.464844 L 65.199219 338.5 L 62.890625 348.28125 " fill-opacity="1" fill-rule="nonzero"/><path fill="#000000" d="M 33.039062 215.40625 C 33.039062 215.40625 30.484375 235.617188 32.445312 243.464844 C 34.40625 251.3125 38.996094 323.824219 38.996094 343.441406 L 50.53125 343.441406 L 55.742188 250.765625 L 71.84375 284.390625 C 73.011719 287.121094 73.3125 290.140625 72.695312 293.046875 L 63.1875 343.441406 L 73.980469 344.1875 L 92.027344 288.851562 C 92.832031 286.105469 92.894531 283.195312 92.199219 280.421875 L 77.566406 221.882812 L 33.039062 215.40625 " fill-opacity="1" fill-rule="nonzero"/><path fill="#e9f1dc" d="M 55.183594 249.355469 C 55 249.355469 54.8125 249.273438 54.6875 249.117188 L 48.730469 241.671875 C 48.511719 241.398438 48.558594 240.996094 48.832031 240.777344 C 49.105469 240.558594 49.507812 240.601562 49.726562 240.875 L 55.683594 248.320312 C 55.902344 248.59375 55.859375 248.996094 55.582031 249.214844 C 55.464844 249.308594 55.324219 249.355469 55.183594 249.355469 " fill-opacity="1" fill-rule="nonzero"/><path fill="#ffffff" d="M 39.554688 347.910156 L 49.601562 347.910156 L 51.09375 355.496094 C 51.378906 356.960938 50.324219 358.332031 48.90625 358.332031 L 40.246094 358.332031 C 38.832031 358.332031 37.773438 356.960938 38.0625 355.496094 L 39.554688 347.910156 " fill-opacity="1" fill-rule="nonzero"/><path fill="#000000" d="M 40.078125 348.546875 L 38.6875 355.617188 C 38.582031 356.15625 38.714844 356.703125 39.054688 357.117188 C 39.363281 357.488281 39.785156 357.695312 40.246094 357.695312 L 48.90625 357.695312 C 49.371094 357.695312 49.792969 357.488281 50.097656 357.117188 C 50.4375 356.703125 50.574219 356.15625 50.46875 355.617188 L 49.078125 348.546875 Z M 48.90625 358.96875 L 40.246094 358.96875 C 39.410156 358.96875 38.617188 358.585938 38.070312 357.925781 C 37.488281 357.21875 37.257812 356.285156 37.4375 355.371094 L 38.925781 347.785156 C 38.984375 347.488281 39.25 347.273438 39.554688 347.273438 L 49.601562 347.273438 C 49.90625 347.273438 50.167969 347.488281 50.226562 347.785156 L 51.71875 355.371094 C 51.898438 356.285156 51.664062 357.21875 51.082031 357.925781 C 50.539062 358.585938 49.746094 358.96875 48.90625 358.96875 " fill-opacity="1" fill-rule="nonzero"/><path fill="#000000" d="M 49.972656 356.546875 L 39.554688 356.546875 C 39.199219 356.546875 38.914062 356.261719 38.914062 355.910156 C 38.914062 355.5625 39.199219 355.277344 39.554688 355.277344 L 49.972656 355.277344 C 50.328125 355.277344 50.609375 355.5625 50.609375 355.910156 C 50.609375 356.261719 50.328125 356.546875 49.972656 356.546875 " fill-opacity="1" fill-rule="nonzero"/><path fill="#ffffff" d="M 62.628906 345.675781 L 59.878906 354.808594 C 59.398438 356.398438 60.367188 358.078125 61.789062 358.128906 L 80.695312 358.765625 C 81.863281 358.808594 82.332031 356.996094 81.34375 356.25 C 78.269531 353.941406 74.175781 350.730469 73.050781 349.207031 C 70.445312 345.675781 67.839844 348.765625 67.839844 348.765625 C 67.839844 348.765625 65.980469 345.675781 62.628906 345.675781 " fill-opacity="1" fill-rule="nonzero"/><path fill="#000000" d="M 63.09375 346.335938 L 60.488281 354.992188 C 60.292969 355.640625 60.402344 356.367188 60.773438 356.886719 C 61.042969 357.261719 61.414062 357.476562 61.8125 357.488281 L 80.71875 358.132812 C 81.007812 358.136719 81.144531 357.851562 81.1875 357.726562 C 81.292969 357.421875 81.269531 356.992188 80.960938 356.761719 C 76.304688 353.261719 73.46875 350.847656 72.539062 349.585938 C 71.855469 348.660156 71.136719 348.179688 70.402344 348.152344 C 69.253906 348.113281 68.335938 349.167969 68.324219 349.175781 C 68.191406 349.332031 67.988281 349.417969 67.789062 349.398438 C 67.585938 349.378906 67.398438 349.269531 67.292969 349.09375 C 67.277344 349.070312 65.746094 346.601562 63.09375 346.335938 Z M 80.730469 359.40625 C 80.710938 359.40625 80.691406 359.40625 80.675781 359.40625 L 61.769531 358.761719 C 60.976562 358.734375 60.238281 358.320312 59.738281 357.628906 C 59.132812 356.78125 58.957031 355.660156 59.265625 354.625 L 62.019531 345.492188 C 62.101562 345.222656 62.347656 345.039062 62.628906 345.039062 C 65.339844 345.039062 67.144531 346.820312 67.933594 347.804688 C 68.476562 347.371094 69.363281 346.84375 70.433594 346.878906 C 71.582031 346.914062 72.636719 347.570312 73.5625 348.828125 C 74.398438 349.957031 77.296875 352.414062 81.726562 355.742188 C 82.441406 356.277344 82.707031 357.246094 82.386719 358.148438 C 82.117188 358.917969 81.46875 359.40625 80.730469 359.40625 " fill-opacity="1" fill-rule="nonzero"/><path fill="#ffffff" d="M 78.632812 355.910156 L 61.511719 355.167969 L 78.632812 355.910156 " fill-opacity="1" fill-rule="nonzero"/><path fill="#000000" d="M 78.632812 356.546875 C 78.625 356.546875 78.617188 356.546875 78.605469 356.546875 L 61.484375 355.804688 C 61.132812 355.789062 60.859375 355.492188 60.875 355.136719 C 60.890625 354.789062 61.191406 354.515625 61.539062 354.53125 L 78.660156 355.277344 C 79.011719 355.292969 79.285156 355.585938 79.269531 355.941406 C 79.253906 356.28125 78.972656 356.546875 78.632812 356.546875 " fill-opacity="1" fill-rule="nonzero"/><path fill="#ffffff" d="M 52.578125 152.691406 L 43.273438 159.015625 L 68.898438 157.789062 L 61.511719 153.0625 L 60.519531 148.480469 C 61.828125 148.289062 63.632812 148.15625 64.203125 147.441406 C 65.21875 146.179688 64.761719 141.8125 64.761719 141.8125 L 65.871094 140.941406 C 65.988281 140.882812 66.074219 140.773438 66.109375 140.644531 C 66.148438 140.519531 66.128906 140.382812 66.058594 140.269531 C 65.113281 138.769531 64.222656 138.285156 63.808594 136.75 C 63.394531 135.242188 63.578125 135.472656 61.953125 132.21875 L 52.207031 132.203125 L 52.152344 139.507812 C 52.152344 139.507812 50.65625 138.542969 49.710938 139.847656 C 49.019531 140.796875 50.546875 143.96875 51.78125 143.96875 L 52.578125 152.691406 " fill-opacity="1" fill-rule="nonzero"/><path fill="#000000" d="M 51.019531 139.796875 C 50.75 139.796875 50.460938 139.898438 50.226562 140.222656 C 50.113281 140.375 50.152344 141.117188 50.625 142.042969 C 51.089844 142.957031 51.609375 143.332031 51.785156 143.332031 C 52.113281 143.332031 52.386719 143.585938 52.417969 143.914062 L 53.214844 152.632812 C 53.234375 152.863281 53.128906 153.085938 52.9375 153.214844 L 45.5 158.273438 L 66.871094 157.25 L 61.167969 153.597656 C 61.027344 153.507812 60.925781 153.363281 60.890625 153.195312 L 59.894531 148.617188 C 59.859375 148.445312 59.894531 148.265625 59.996094 148.121094 C 60.09375 147.976562 60.25 147.878906 60.425781 147.851562 C 60.621094 147.824219 60.828125 147.796875 61.039062 147.769531 C 61.96875 147.644531 63.378906 147.453125 63.707031 147.042969 C 64.292969 146.3125 64.304688 143.585938 64.125 141.878906 C 64.105469 141.660156 64.195312 141.449219 64.367188 141.3125 L 65.429688 140.476562 C 65.132812 140.019531 64.84375 139.664062 64.5625 139.320312 C 64.011719 138.648438 63.492188 138.015625 63.191406 136.917969 C 63.136719 136.710938 63.089844 136.535156 63.050781 136.378906 C 62.820312 135.492188 62.761719 135.273438 61.558594 132.855469 L 52.839844 132.84375 L 52.789062 139.511719 C 52.789062 139.746094 52.660156 139.957031 52.457031 140.070312 C 52.25 140.179688 52.003906 140.167969 51.808594 140.042969 C 51.710938 139.984375 51.386719 139.796875 51.019531 139.796875 Z M 43.273438 159.652344 C 43.003906 159.652344 42.757812 159.480469 42.671875 159.21875 C 42.578125 158.945312 42.679688 158.652344 42.917969 158.492188 L 51.910156 152.375 L 51.191406 144.480469 C 50.308594 144.105469 49.6875 143.007812 49.492188 142.621094 C 48.976562 141.613281 48.628906 140.253906 49.195312 139.476562 C 49.867188 138.546875 50.78125 138.425781 51.523438 138.578125 L 51.570312 132.203125 C 51.574219 131.851562 51.859375 131.566406 52.207031 131.566406 L 61.953125 131.582031 C 62.195312 131.582031 62.414062 131.71875 62.523438 131.933594 C 63.914062 134.71875 64.007812 135.003906 64.285156 136.058594 C 64.324219 136.214844 64.367188 136.382812 64.421875 136.585938 C 64.648438 137.417969 65.023438 137.875 65.546875 138.511719 C 65.867188 138.902344 66.226562 139.34375 66.597656 139.933594 C 66.761719 140.195312 66.808594 140.519531 66.726562 140.816406 C 66.648438 141.09375 66.46875 141.328125 66.222656 141.472656 L 65.425781 142.097656 C 65.53125 143.335938 65.703125 146.59375 64.703125 147.839844 C 64.066406 148.636719 62.660156 148.835938 61.285156 149.019531 L 62.078125 152.667969 L 69.242188 157.253906 C 69.472656 157.402344 69.582031 157.6875 69.511719 157.957031 C 69.441406 158.222656 69.203125 158.414062 68.925781 158.425781 L 43.304688 159.652344 C 43.292969 159.652344 43.285156 159.652344 43.273438 159.652344 " fill-opacity="1" fill-rule="nonzero"/><path fill="#000000" d="M 51.304688 147.238281 C 53.269531 147.890625 55.207031 146.355469 55.554688 146.078125 C 56.917969 144.996094 58.035156 143.066406 57.484375 142.214844 C 57.183594 141.746094 56.648438 142.003906 55.941406 141.445312 C 54.902344 140.621094 54.605469 138.835938 55.167969 138.355469 C 55.628906 137.960938 56.347656 138.714844 57.097656 138.355469 C 58.015625 137.914062 57.546875 136.503906 58.257812 135.265625 C 59.417969 133.234375 62.125 134.460938 64.203125 132.300781 C 65.5625 130.890625 66.152344 128.542969 65.375 127.21875 C 65.148438 126.828125 64.800781 126.488281 64.308594 126.214844 C 61.035156 124.414062 60.546875 126.878906 57.359375 126.90625 C 50.804688 126.964844 47.589844 128.273438 46.402344 130.992188 C 45.597656 132.835938 46.582031 135.773438 47.058594 137.195312 C 47.21875 137.671875 47.550781 138.566406 47.832031 139.898438 C 48.136719 141.355469 48.042969 141.730469 48.214844 142.601562 C 48.339844 143.210938 48.992188 146.464844 51.304688 147.238281 " fill-opacity="1" fill-rule="nonzero"/><path fill="#1d5f31" d="M 78.632812 156.410156 C 78.632812 156.410156 56.300781 150.085938 35.085938 157.898438 C 33.453125 167.304688 32.332031 175.429688 31.550781 181.859375 C 30.175781 193.183594 31.03125 189.566406 29.316406 206.097656 C 28.253906 216.375 27.96875 217.316406 28.945312 219.128906 C 33.867188 228.253906 53.703125 227.761719 61.324219 225.828125 C 61.867188 225.691406 64.105469 225.101562 67.769531 224.175781 C 71.960938 223.117188 75.402344 222.285156 77.703125 221.734375 C 78.945312 221.167969 80.625 220.171875 81.796875 218.382812 C 84.421875 214.375 82.667969 209.191406 81.796875 205.726562 C 79.5625 196.835938 82.5 196.640625 81.796875 180.417969 C 81.550781 174.746094 80.835938 166.507812 78.632812 156.410156 " fill-opacity="1" fill-rule="nonzero"/><path fill="#ffffff" d="M 128.421875 148.625 L 131 137.476562 L 138.1875 131.101562 C 138.1875 131.101562 142.273438 131.167969 135.582031 138.171875 C 135.582031 138.171875 138.777344 144.433594 136.710938 146.917969 C 136.109375 147.640625 132.664062 152.117188 132.664062 152.117188 L 128.421875 148.625 " fill-opacity="1" fill-rule="nonzero"/><path fill="#000000" d="M 129.132812 148.382812 L 132.5625 151.207031 C 133.492188 150 135.738281 147.09375 136.222656 146.511719 C 137.695312 144.742188 135.847656 140.101562 135.011719 138.460938 C 134.890625 138.222656 134.933594 137.929688 135.121094 137.734375 C 139.078125 133.589844 138.832031 132.273438 138.742188 132.054688 C 138.679688 131.894531 138.519531 131.816406 138.386719 131.777344 L 131.574219 137.820312 Z M 132.664062 152.753906 C 132.519531 152.753906 132.375 152.703125 132.261719 152.609375 L 128.019531 149.117188 C 127.832031 148.960938 127.75 148.71875 127.800781 148.480469 L 130.378906 137.335938 C 130.410156 137.207031 130.480469 137.089844 130.578125 137.003906 L 137.761719 130.625 C 137.882812 130.519531 138.035156 130.460938 138.195312 130.464844 C 138.671875 130.472656 139.5625 130.710938 139.917969 131.558594 C 140.484375 132.914062 139.316406 135.121094 136.347656 138.289062 C 137.085938 139.847656 139.222656 144.898438 137.203125 147.324219 C 136.613281 148.03125 133.203125 152.460938 133.171875 152.503906 C 133.066406 152.640625 132.910156 152.730469 132.738281 152.75 C 132.714844 152.753906 132.6875 152.753906 132.664062 152.753906 " fill-opacity="1" fill-rule="nonzero"/><path fill="#1d5f31" d="M 135.207031 151.574219 L 127.390625 146.363281 C 127.390625 146.363281 119.203125 164.601562 106.546875 166.460938 C 93.894531 168.324219 87.9375 156.039062 71.5625 154.921875 L 71.191406 177.625 C 71.191406 177.625 87.195312 191.769531 101.335938 191.027344 C 115.480469 190.28125 130.371094 165.71875 135.207031 151.574219 " fill-opacity="1" fill-rule="nonzero"/><path fill="#000000" d="M 37.785156 225.972656 C 37.753906 225.972656 37.722656 225.96875 37.691406 225.960938 C 37.578125 225.949219 26.425781 224.203125 27.875 213.828125 C 27.921875 213.480469 28.246094 213.238281 28.59375 213.285156 C 28.941406 213.335938 29.183594 213.65625 29.136719 214.003906 C 27.863281 223.121094 37.464844 224.644531 37.875 224.703125 C 38.222656 224.753906 38.464844 225.078125 38.414062 225.425781 C 38.367188 225.742188 38.09375 225.972656 37.785156 225.972656 " fill-opacity="1" fill-rule="nonzero"/><path fill="#000000" d="M 63.648438 217.285156 C 63.484375 217.285156 63.320312 217.222656 63.195312 217.097656 C 62.945312 216.847656 62.949219 216.441406 63.199219 216.195312 C 71.765625 207.753906 73.59375 194.523438 73.609375 194.390625 C 73.65625 194.042969 73.976562 193.796875 74.324219 193.839844 C 74.671875 193.886719 74.917969 194.207031 74.871094 194.554688 C 74.796875 195.117188 72.96875 208.355469 64.09375 217.101562 C 63.972656 217.226562 63.808594 217.285156 63.648438 217.285156 " fill-opacity="1" fill-rule="nonzero"/><path fill="#000000" d="M 23.734375 196.652344 L 23.738281 196.652344 Z M 30.183594 188.523438 C 26.5 190.789062 24.542969 193.53125 24.371094 196.6875 C 24.15625 200.558594 25.503906 204.652344 28.386719 208.875 C 28.476562 208.019531 28.574219 207.074219 28.683594 206.035156 C 29.535156 197.8125 29.75 194.597656 29.921875 192.015625 C 30 190.855469 30.070312 189.824219 30.183594 188.523438 Z M 28.839844 211.238281 C 28.644531 211.238281 28.457031 211.148438 28.332031 210.988281 C 24.605469 206.039062 22.84375 201.203125 23.097656 196.621094 C 23.316406 192.703125 25.847656 189.398438 30.628906 186.796875 C 30.835938 186.683594 31.089844 186.691406 31.285156 186.824219 C 31.480469 186.957031 31.589844 187.183594 31.566406 187.417969 C 31.378906 189.324219 31.292969 190.609375 31.195312 192.097656 C 31.019531 194.691406 30.804688 197.921875 29.949219 206.164062 C 29.808594 207.550781 29.679688 208.761719 29.5625 209.828125 L 29.476562 210.667969 C 29.449219 210.933594 29.261719 211.148438 29.011719 211.214844 C 28.957031 211.230469 28.898438 211.238281 28.839844 211.238281 Z M 58.625 154.644531 C 51.628906 154.644531 43.363281 155.527344 35.304688 158.5 C 35.289062 158.503906 35.273438 158.507812 35.257812 158.515625 C 22.363281 162.140625 8.480469 175.898438 8.480469 197.539062 C 8.480469 212.34375 28.527344 225.378906 32.359375 227.734375 L 33.851562 224.0625 C 33.917969 223.90625 34.042969 223.777344 34.203125 223.714844 C 34.363281 223.648438 34.542969 223.652344 34.703125 223.722656 C 36.1875 224.382812 37.476562 224.632812 37.796875 224.691406 C 37.855469 224.691406 37.910156 224.703125 37.964844 224.71875 C 45.792969 227.128906 56.246094 226.457031 61.167969 225.210938 C 61.308594 225.171875 61.566406 225.109375 61.933594 225.011719 C 62.972656 224.742188 64.902344 224.242188 67.613281 223.558594 C 70.914062 222.726562 74.238281 221.90625 77.496094 221.128906 C 79.152344 220.367188 80.417969 219.324219 81.265625 218.035156 C 83.480469 214.652344 82.308594 210.1875 81.449219 206.929688 C 81.355469 206.566406 81.265625 206.21875 81.179688 205.882812 C 79.96875 201.0625 80.242188 198.71875 80.65625 195.175781 C 80.929688 192.796875 81.273438 189.84375 81.269531 185.160156 C 81.269531 184.933594 81.390625 184.722656 81.585938 184.609375 C 81.785156 184.492188 82.027344 184.492188 82.222656 184.609375 C 89.402344 188.730469 95.816406 190.679688 101.304688 190.390625 C 114.257812 189.707031 129.003906 167.328125 134.445312 151.828125 L 133.453125 151.167969 C 133.304688 151.070312 133.207031 150.914062 133.179688 150.742188 C 133.148438 150.566406 133.195312 150.390625 133.304688 150.25 C 134.945312 148.125 135.925781 146.867188 136.222656 146.511719 C 137.699219 144.738281 135.851562 140.101562 135.011719 138.464844 C 134.890625 138.222656 134.933594 137.929688 135.121094 137.734375 C 139.078125 133.589844 138.832031 132.273438 138.742188 132.054688 C 138.679688 131.894531 138.519531 131.816406 138.386719 131.777344 L 131.574219 137.820312 L 129.359375 147.402344 C 129.3125 147.605469 129.167969 147.773438 128.972656 147.851562 C 128.777344 147.925781 128.558594 147.90625 128.386719 147.789062 L 127.652344 147.300781 C 126 150.707031 118.238281 165.386719 106.640625 167.09375 C 99.949219 168.074219 95.007812 165.199219 89.777344 162.152344 C 84.957031 159.347656 79.5 156.167969 71.789062 155.578125 C 71.6875 155.617188 71.574219 155.632812 71.464844 155.613281 C 68.28125 155.128906 63.800781 154.644531 58.625 154.644531 Z M 32.667969 229.300781 C 32.554688 229.300781 32.445312 229.269531 32.351562 229.214844 C 31.324219 228.625 7.207031 214.5625 7.207031 197.539062 C 7.207031 186.898438 10.421875 177.304688 16.503906 169.800781 C 21.390625 163.769531 28.09375 159.214844 34.890625 157.292969 C 48.996094 152.105469 63.695312 153.167969 71.378906 154.3125 C 71.453125 154.289062 71.527344 154.28125 71.605469 154.285156 C 79.753906 154.84375 85.417969 158.140625 90.417969 161.054688 C 95.667969 164.109375 100.203125 166.75 106.457031 165.832031 C 118.617188 164.042969 126.730469 146.28125 126.8125 146.101562 C 126.886719 145.929688 127.035156 145.800781 127.214844 145.75 C 127.398438 145.699219 127.589844 145.730469 127.746094 145.832031 L 128.324219 146.21875 L 130.378906 137.335938 C 130.410156 137.207031 130.480469 137.089844 130.578125 137.003906 L 137.761719 130.625 C 137.882812 130.519531 138.035156 130.460938 138.195312 130.464844 C 138.671875 130.472656 139.5625 130.710938 139.917969 131.558594 C 140.484375 132.914062 139.316406 135.121094 136.347656 138.289062 C 137.085938 139.847656 139.222656 144.898438 137.203125 147.324219 C 136.945312 147.636719 136.09375 148.722656 134.726562 150.488281 L 135.5625 151.042969 C 135.800781 151.203125 135.90625 151.507812 135.8125 151.78125 C 131.1875 165.296875 116.335938 190.875 101.371094 191.660156 C 95.886719 191.949219 89.554688 190.128906 82.539062 186.246094 C 82.496094 190.382812 82.179688 193.101562 81.917969 195.320312 C 81.511719 198.847656 81.261719 200.980469 82.414062 205.574219 C 82.5 205.902344 82.589844 206.25 82.683594 206.605469 C 83.601562 210.09375 84.859375 214.875 82.332031 218.730469 C 81.339844 220.242188 79.871094 221.445312 77.964844 222.3125 C 77.929688 222.328125 77.890625 222.34375 77.851562 222.351562 C 74.582031 223.136719 71.242188 223.957031 67.921875 224.792969 C 65.21875 225.476562 63.292969 225.976562 62.253906 226.246094 C 61.882812 226.34375 61.625 226.40625 61.484375 226.445312 C 56.433594 227.726562 45.726562 228.417969 37.671875 225.960938 C 37.507812 225.9375 36.308594 225.738281 34.789062 225.140625 L 33.257812 228.902344 C 33.1875 229.074219 33.046875 229.207031 32.875 229.265625 C 32.804688 229.289062 32.734375 229.300781 32.667969 229.300781 " fill-opacity="1" fill-rule="nonzero"/><path fill="#000000" d="M 43.351562 96.238281 C 43.089844 96.238281 42.847656 96.078125 42.75 95.820312 L 41.855469 93.359375 C 41.734375 93.03125 41.902344 92.664062 42.234375 92.542969 C 42.5625 92.421875 42.929688 92.59375 43.050781 92.925781 L 43.949219 95.382812 C 44.070312 95.714844 43.898438 96.078125 43.570312 96.199219 C 43.496094 96.226562 43.421875 96.238281 43.351562 96.238281 " fill-opacity="1" fill-rule="nonzero"/><path fill="#000000" d="M 46.492188 104.84375 C 46.234375 104.84375 45.988281 104.6875 45.894531 104.429688 L 44.996094 101.96875 C 44.875 101.636719 45.046875 101.273438 45.375 101.152344 C 45.707031 101.03125 46.074219 101.199219 46.191406 101.53125 L 47.089844 103.988281 C 47.210938 104.320312 47.042969 104.6875 46.710938 104.808594 C 46.640625 104.832031 46.566406 104.84375 46.492188 104.84375 " fill-opacity="1" fill-rule="nonzero"/><path fill="#000000" d="M 38.941406 101.339844 C 38.683594 101.339844 38.4375 101.179688 38.34375 100.921875 C 38.222656 100.589844 38.394531 100.222656 38.722656 100.105469 L 41.179688 99.203125 C 41.511719 99.082031 41.878906 99.253906 42 99.582031 C 42.121094 99.910156 41.949219 100.277344 41.621094 100.398438 L 39.164062 101.300781 C 39.089844 101.324219 39.015625 101.339844 38.941406 101.339844 " fill-opacity="1" fill-rule="nonzero"/><path fill="#000000" d="M 47.546875 98.1875 C 47.285156 98.1875 47.042969 98.027344 46.945312 97.769531 C 46.824219 97.4375 46.996094 97.074219 47.324219 96.953125 L 49.785156 96.050781 C 50.113281 95.929688 50.480469 96.101562 50.601562 96.429688 C 50.722656 96.761719 50.550781 97.125 50.222656 97.246094 L 47.765625 98.148438 C 47.691406 98.175781 47.617188 98.1875 47.546875 98.1875 " fill-opacity="1" fill-rule="nonzero"/><path fill="#000000" d="M 150.847656 351.050781 C 150.277344 351.050781 149.738281 351.257812 149.300781 351.632812 C 148.824219 352.046875 148.539062 352.625 148.492188 353.253906 C 148.449219 353.882812 148.652344 354.492188 149.066406 354.96875 C 149.480469 355.445312 150.058594 355.734375 150.6875 355.777344 C 151.320312 355.824219 151.929688 355.617188 152.40625 355.203125 C 152.882812 354.789062 153.167969 354.214844 153.210938 353.585938 C 153.304688 352.28125 152.320312 351.152344 151.019531 351.058594 C 150.960938 351.054688 150.90625 351.050781 150.847656 351.050781 Z M 150.855469 357.058594 C 150.769531 357.058594 150.6875 357.054688 150.597656 357.050781 C 149.628906 356.980469 148.746094 356.539062 148.105469 355.804688 C 147.46875 355.070312 147.15625 354.132812 147.222656 353.164062 C 147.363281 351.160156 149.105469 349.648438 151.105469 349.789062 C 153.109375 349.929688 154.625 351.671875 154.484375 353.671875 C 154.347656 355.589844 152.746094 357.058594 150.855469 357.058594 " fill-opacity="1" fill-rule="nonzero"/><path fill="#000000" d="M 159.257812 353.492188 C 158.914062 353.492188 158.628906 353.214844 158.621094 352.867188 C 158.613281 352.515625 158.894531 352.226562 159.246094 352.21875 C 173.214844 351.960938 186.636719 348.675781 199.132812 342.457031 C 199.449219 342.300781 199.832031 342.429688 199.988281 342.742188 C 200.144531 343.058594 200.015625 343.441406 199.699219 343.597656 C 187.035156 349.902344 173.429688 353.230469 159.269531 353.492188 C 159.265625 353.492188 159.261719 353.492188 159.257812 353.492188 " fill-opacity="1" fill-rule="nonzero"/><path fill="#000000" d="M 144.332031 347.414062 C 131.40625 347.414062 122.101562 345.972656 121.90625 345.941406 C 121.558594 345.886719 121.320312 345.558594 121.378906 345.214844 C 121.433594 344.867188 121.757812 344.628906 122.105469 344.6875 C 122.511719 344.75 162.917969 350.988281 192.429688 337.152344 C 192.75 337.003906 193.128906 337.140625 193.277344 337.460938 C 193.425781 337.777344 193.289062 338.15625 192.972656 338.308594 C 177.292969 345.65625 158.605469 347.414062 144.332031 347.414062 " fill-opacity="1" fill-rule="nonzero"/><path fill="#000000" d="M 228.625 33.019531 C 228.554688 33.019531 228.488281 33.007812 228.421875 32.984375 C 222.382812 30.957031 216.074219 29.273438 209.675781 27.984375 C 184.804688 22.96875 158.917969 23.886719 134.8125 30.640625 C 134.476562 30.738281 134.125 30.539062 134.027344 30.199219 C 133.933594 29.863281 134.132812 29.511719 134.46875 29.417969 C 158.765625 22.605469 184.859375 21.679688 209.925781 26.734375 C 216.378906 28.039062 222.738281 29.734375 228.824219 31.78125 C 229.160156 31.890625 229.335938 32.253906 229.226562 32.585938 C 229.136719 32.851562 228.890625 33.019531 228.625 33.019531 " fill-opacity="1" fill-rule="nonzero"/><path fill="#000000" d="M 118.695312 24.851562 C 118.425781 24.851562 118.171875 24.679688 118.085938 24.410156 C 117.980469 24.074219 118.164062 23.714844 118.5 23.609375 C 149.660156 13.664062 184.753906 12.542969 217.324219 20.449219 C 217.667969 20.53125 217.878906 20.875 217.796875 21.21875 C 217.710938 21.558594 217.367188 21.769531 217.023438 21.6875 C 184.679688 13.835938 149.828125 14.949219 118.886719 24.820312 C 118.824219 24.84375 118.757812 24.851562 118.695312 24.851562 " fill-opacity="1" fill-rule="nonzero"/></svg>