<svg xmlns="http://www.w3.org/2000/svg" xmlns:xlink="http://www.w3.org/1999/xlink" width="500" zoomAndPan="magnify" viewBox="0 0 375 374.999991" height="500" preserveAspectRatio="xMidYMid meet" version="1.0"><defs><clipPath id="c223c731ed"><path d="M 6.328125 13 L 365 13 L 365 372 L 6.328125 372 Z M 6.328125 13 " clip-rule="nonzero"/></clipPath><clipPath id="66ad91c53e"><path d="M 76.382812 200.558594 L 174.890625 200.558594 L 174.890625 321.242188 L 76.382812 321.242188 Z M 76.382812 200.558594 " clip-rule="nonzero"/></clipPath><clipPath id="b43ac47ba4"><path d="M 236.550781 371.328125 L 130.25 371.328125 C 101.007812 371.328125 74.15625 361.089844 53.078125 344.007812 C 51.539062 342.757812 50.027344 341.472656 48.550781 340.152344 C 41.878906 334.1875 22.5 349.976562 17.261719 342.695312 C 2.78125 322.5625 7.613281 275.382812 7.613281 248.691406 L 7.613281 96.921875 L 359.183594 96.921875 L 359.183594 248.691406 C 359.183594 316.421875 304.277344 371.328125 236.550781 371.328125 Z M 236.550781 371.328125 " clip-rule="nonzero"/></clipPath><clipPath id="388d6a257b"><path d="M 100.714844 184.859375 L 121.910156 184.859375 L 121.910156 211.15625 L 100.714844 211.15625 Z M 100.714844 184.859375 " clip-rule="nonzero"/></clipPath><clipPath id="e4b9bd441c"><path d="M 236.550781 371.328125 L 130.25 371.328125 C 101.007812 371.328125 74.15625 361.089844 53.078125 344.007812 C 51.539062 342.757812 50.027344 341.472656 48.550781 340.152344 C 41.878906 334.1875 22.5 349.976562 17.261719 342.695312 C 2.78125 322.5625 7.613281 275.382812 7.613281 248.691406 L 7.613281 96.921875 L 359.183594 96.921875 L 359.183594 248.691406 C 359.183594 316.421875 304.277344 371.328125 236.550781 371.328125 Z M 236.550781 371.328125 " clip-rule="nonzero"/></clipPath><clipPath id="a362fb8b00"><path d="M 44.398438 263.550781 L 87.175781 263.550781 L 87.175781 336.746094 L 44.398438 336.746094 Z M 44.398438 263.550781 " clip-rule="nonzero"/></clipPath><clipPath id="f595a834cf"><path d="M 236.550781 371.328125 L 130.25 371.328125 C 101.007812 371.328125 74.15625 361.089844 53.078125 344.007812 C 51.539062 342.757812 50.027344 341.472656 48.550781 340.152344 C 41.878906 334.1875 22.5 349.976562 17.261719 342.695312 C 2.78125 322.5625 7.613281 275.382812 7.613281 248.691406 L 7.613281 96.921875 L 359.183594 96.921875 L 359.183594 248.691406 C 359.183594 316.421875 304.277344 371.328125 236.550781 371.328125 Z M 236.550781 371.328125 " clip-rule="nonzero"/></clipPath><clipPath id="bc50cd66d7"><path d="M 43.808594 263 L 87.960938 263 L 87.960938 337.332031 L 43.808594 337.332031 Z M 43.808594 263 " clip-rule="nonzero"/></clipPath><clipPath id="178a2f95e3"><path d="M 236.550781 371.328125 L 130.25 371.328125 C 101.007812 371.328125 74.15625 361.089844 53.078125 344.007812 C 51.539062 342.757812 50.027344 341.472656 48.550781 340.152344 C 41.878906 334.1875 22.5 349.976562 17.261719 342.695312 C 2.78125 322.5625 7.613281 275.382812 7.613281 248.691406 L 7.613281 96.921875 L 359.183594 96.921875 L 359.183594 248.691406 C 359.183594 316.421875 304.277344 371.328125 236.550781 371.328125 Z M 236.550781 371.328125 " clip-rule="nonzero"/></clipPath><clipPath id="c6b82fbecd"><path d="M 54.796875 257.464844 L 140.160156 257.464844 L 140.160156 371.476562 L 54.796875 371.476562 Z M 54.796875 257.464844 " clip-rule="nonzero"/></clipPath><clipPath id="f4b23d239e"><path d="M 236.550781 371.328125 L 130.25 371.328125 C 101.007812 371.328125 74.15625 361.089844 53.078125 344.007812 C 51.539062 342.757812 50.027344 341.472656 48.550781 340.152344 C 41.878906 334.1875 22.5 349.976562 17.261719 342.695312 C 2.78125 322.5625 7.613281 275.382812 7.613281 248.691406 L 7.613281 96.921875 L 359.183594 96.921875 L 359.183594 248.691406 C 359.183594 316.421875 304.277344 371.328125 236.550781 371.328125 Z M 236.550781 371.328125 " clip-rule="nonzero"/></clipPath><clipPath id="4a41c7fc0a"><path d="M 81.679688 260.410156 L 152.523438 260.410156 L 152.523438 349.5 L 81.679688 349.5 Z M 81.679688 260.410156 " clip-rule="nonzero"/></clipPath><clipPath id="5bdba948ea"><path d="M 236.550781 371.328125 L 130.25 371.328125 C 101.007812 371.328125 74.15625 361.089844 53.078125 344.007812 C 51.539062 342.757812 50.027344 341.472656 48.550781 340.152344 C 41.878906 334.1875 22.5 349.976562 17.261719 342.695312 C 2.78125 322.5625 7.613281 275.382812 7.613281 248.691406 L 7.613281 96.921875 L 359.183594 96.921875 L 359.183594 248.691406 C 359.183594 316.421875 304.277344 371.328125 236.550781 371.328125 Z M 236.550781 371.328125 " clip-rule="nonzero"/></clipPath><clipPath id="4596220a88"><path d="M 81 259.820312 L 153.109375 259.820312 L 153.109375 350.089844 L 81 350.089844 Z M 81 259.820312 " clip-rule="nonzero"/></clipPath><clipPath id="6aed9c6bd3"><path d="M 236.550781 371.328125 L 130.25 371.328125 C 101.007812 371.328125 74.15625 361.089844 53.078125 344.007812 C 51.539062 342.757812 50.027344 341.472656 48.550781 340.152344 C 41.878906 334.1875 22.5 349.976562 17.261719 342.695312 C 2.78125 322.5625 7.613281 275.382812 7.613281 248.691406 L 7.613281 96.921875 L 359.183594 96.921875 L 359.183594 248.691406 C 359.183594 316.421875 304.277344 371.328125 236.550781 371.328125 Z M 236.550781 371.328125 " clip-rule="nonzero"/></clipPath><clipPath id="95dfdef49a"><path d="M 14.765625 290.828125 L 95.222656 290.828125 L 95.222656 337.921875 L 14.765625 337.921875 Z M 14.765625 290.828125 " clip-rule="nonzero"/></clipPath><clipPath id="095d30c143"><path d="M 236.550781 371.328125 L 130.25 371.328125 C 101.007812 371.328125 74.15625 361.089844 53.078125 344.007812 C 51.539062 342.757812 50.027344 341.472656 48.550781 340.152344 C 41.878906 334.1875 22.5 349.976562 17.261719 342.695312 C 2.78125 322.5625 7.613281 275.382812 7.613281 248.691406 L 7.613281 96.921875 L 359.183594 96.921875 L 359.183594 248.691406 C 359.183594 316.421875 304.277344 371.328125 236.550781 371.328125 Z M 236.550781 371.328125 " clip-rule="nonzero"/></clipPath><clipPath id="db839f9690"><path d="M 13.589844 290.238281 L 95.808594 290.238281 L 95.808594 338.511719 L 13.589844 338.511719 Z M 13.589844 290.238281 " clip-rule="nonzero"/></clipPath><clipPath id="1e9f7ee279"><path d="M 236.550781 371.328125 L 130.25 371.328125 C 101.007812 371.328125 74.15625 361.089844 53.078125 344.007812 C 51.539062 342.757812 50.027344 341.472656 48.550781 340.152344 C 41.878906 334.1875 22.5 349.976562 17.261719 342.695312 C 2.78125 322.5625 7.613281 275.382812 7.613281 248.691406 L 7.613281 96.921875 L 359.183594 96.921875 L 359.183594 248.691406 C 359.183594 316.421875 304.277344 371.328125 236.550781 371.328125 Z M 236.550781 371.328125 " clip-rule="nonzero"/></clipPath><clipPath id="6d8e06c524"><path d="M 9.664062 290.828125 L 93.457031 290.828125 L 93.457031 337.921875 L 9.664062 337.921875 Z M 9.664062 290.828125 " clip-rule="nonzero"/></clipPath><clipPath id="4c726feb07"><path d="M 236.550781 371.328125 L 130.25 371.328125 C 101.007812 371.328125 74.15625 361.089844 53.078125 344.007812 C 51.539062 342.757812 50.027344 341.472656 48.550781 340.152344 C 41.878906 334.1875 22.5 349.976562 17.261719 342.695312 C 2.78125 322.5625 7.613281 275.382812 7.613281 248.691406 L 7.613281 96.921875 L 359.183594 96.921875 L 359.183594 248.691406 C 359.183594 316.421875 304.277344 371.328125 236.550781 371.328125 Z M 236.550781 371.328125 " clip-rule="nonzero"/></clipPath><clipPath id="ea96934782"><path d="M 9 290.238281 L 94 290.238281 L 94 338.511719 L 9 338.511719 Z M 9 290.238281 " clip-rule="nonzero"/></clipPath><clipPath id="60be834038"><path d="M 236.550781 371.328125 L 130.25 371.328125 C 101.007812 371.328125 74.15625 361.089844 53.078125 344.007812 C 51.539062 342.757812 50.027344 341.472656 48.550781 340.152344 C 41.878906 334.1875 22.5 349.976562 17.261719 342.695312 C 2.78125 322.5625 7.613281 275.382812 7.613281 248.691406 L 7.613281 96.921875 L 359.183594 96.921875 L 359.183594 248.691406 C 359.183594 316.421875 304.277344 371.328125 236.550781 371.328125 Z M 236.550781 371.328125 " clip-rule="nonzero"/></clipPath><clipPath id="9c65adeccd"><path d="M 26.539062 309.859375 L 37.726562 309.859375 L 37.726562 335.761719 L 26.539062 335.761719 Z M 26.539062 309.859375 " clip-rule="nonzero"/></clipPath><clipPath id="94411e49ac"><path d="M 236.550781 371.328125 L 130.25 371.328125 C 101.007812 371.328125 74.15625 361.089844 53.078125 344.007812 C 51.539062 342.757812 50.027344 341.472656 48.550781 340.152344 C 41.878906 334.1875 22.5 349.976562 17.261719 342.695312 C 2.78125 322.5625 7.613281 275.382812 7.613281 248.691406 L 7.613281 96.921875 L 359.183594 96.921875 L 359.183594 248.691406 C 359.183594 316.421875 304.277344 371.328125 236.550781 371.328125 Z M 236.550781 371.328125 " clip-rule="nonzero"/></clipPath><clipPath id="d1e3e74f2b"><path d="M 26 309.273438 L 38.3125 309.273438 L 38.3125 336.546875 L 26 336.546875 Z M 26 309.273438 " clip-rule="nonzero"/></clipPath><clipPath id="18d9d8aaaf"><path d="M 236.550781 371.328125 L 130.25 371.328125 C 101.007812 371.328125 74.15625 361.089844 53.078125 344.007812 C 51.539062 342.757812 50.027344 341.472656 48.550781 340.152344 C 41.878906 334.1875 22.5 349.976562 17.261719 342.695312 C 2.78125 322.5625 7.613281 275.382812 7.613281 248.691406 L 7.613281 96.921875 L 359.183594 96.921875 L 359.183594 248.691406 C 359.183594 316.421875 304.277344 371.328125 236.550781 371.328125 Z M 236.550781 371.328125 " clip-rule="nonzero"/></clipPath><clipPath id="e2a41cb868"><path d="M 82.664062 217.828125 L 125.832031 217.828125 L 125.832031 281.996094 L 82.664062 281.996094 Z M 82.664062 217.828125 " clip-rule="nonzero"/></clipPath><clipPath id="56cf8034fa"><path d="M 236.550781 371.328125 L 130.25 371.328125 C 101.007812 371.328125 74.15625 361.089844 53.078125 344.007812 C 51.539062 342.757812 50.027344 341.472656 48.550781 340.152344 C 41.878906 334.1875 22.5 349.976562 17.261719 342.695312 C 2.78125 322.5625 7.613281 275.382812 7.613281 248.691406 L 7.613281 96.921875 L 359.183594 96.921875 L 359.183594 248.691406 C 359.183594 316.421875 304.277344 371.328125 236.550781 371.328125 Z M 236.550781 371.328125 " clip-rule="nonzero"/></clipPath><clipPath id="280c31138a"><path d="M 97.183594 235.292969 L 104.445312 235.292969 L 104.445312 245.691406 L 97.183594 245.691406 Z M 97.183594 235.292969 " clip-rule="nonzero"/></clipPath><clipPath id="a15f0582f3"><path d="M 236.550781 371.328125 L 130.25 371.328125 C 101.007812 371.328125 74.15625 361.089844 53.078125 344.007812 C 51.539062 342.757812 50.027344 341.472656 48.550781 340.152344 C 41.878906 334.1875 22.5 349.976562 17.261719 342.695312 C 2.78125 322.5625 7.613281 275.382812 7.613281 248.691406 L 7.613281 96.921875 L 359.183594 96.921875 L 359.183594 248.691406 C 359.183594 316.421875 304.277344 371.328125 236.550781 371.328125 Z M 236.550781 371.328125 " clip-rule="nonzero"/></clipPath><clipPath id="0e6025ece4"><path d="M 152.523438 170.535156 L 335.804688 170.535156 L 335.804688 371.476562 L 152.523438 371.476562 Z M 152.523438 170.535156 " clip-rule="nonzero"/></clipPath><clipPath id="42fea79152"><path d="M 236.550781 371.328125 L 130.25 371.328125 C 101.007812 371.328125 74.15625 361.089844 53.078125 344.007812 C 51.539062 342.757812 50.027344 341.472656 48.550781 340.152344 C 41.878906 334.1875 22.5 349.976562 17.261719 342.695312 C 2.78125 322.5625 7.613281 275.382812 7.613281 248.691406 L 7.613281 96.921875 L 359.183594 96.921875 L 359.183594 248.691406 C 359.183594 316.421875 304.277344 371.328125 236.550781 371.328125 Z M 236.550781 371.328125 " clip-rule="nonzero"/></clipPath><clipPath id="630773b3af"><path d="M 211.195312 238.433594 L 214.335938 238.433594 L 214.335938 252.167969 L 211.195312 252.167969 Z M 211.195312 238.433594 " clip-rule="nonzero"/></clipPath><clipPath id="387d857a60"><path d="M 236.550781 371.328125 L 130.25 371.328125 C 101.007812 371.328125 74.15625 361.089844 53.078125 344.007812 C 51.539062 342.757812 50.027344 341.472656 48.550781 340.152344 C 41.878906 334.1875 22.5 349.976562 17.261719 342.695312 C 2.78125 322.5625 7.613281 275.382812 7.613281 248.691406 L 7.613281 96.921875 L 359.183594 96.921875 L 359.183594 248.691406 C 359.183594 316.421875 304.277344 371.328125 236.550781 371.328125 Z M 236.550781 371.328125 " clip-rule="nonzero"/></clipPath><clipPath id="b20b3c434b"><path d="M 217.277344 235.683594 L 220.222656 235.683594 L 220.222656 238.824219 L 217.277344 238.824219 Z M 217.277344 235.683594 " clip-rule="nonzero"/></clipPath><clipPath id="8d77fd8400"><path d="M 236.550781 371.328125 L 130.25 371.328125 C 101.007812 371.328125 74.15625 361.089844 53.078125 344.007812 C 51.539062 342.757812 50.027344 341.472656 48.550781 340.152344 C 41.878906 334.1875 22.5 349.976562 17.261719 342.695312 C 2.78125 322.5625 7.613281 275.382812 7.613281 248.691406 L 7.613281 96.921875 L 359.183594 96.921875 L 359.183594 248.691406 C 359.183594 316.421875 304.277344 371.328125 236.550781 371.328125 Z M 236.550781 371.328125 " clip-rule="nonzero"/></clipPath><clipPath id="aa385d5e0c"><path d="M 324.617188 144.4375 L 357.191406 144.4375 L 357.191406 179.953125 L 324.617188 179.953125 Z M 324.617188 144.4375 " clip-rule="nonzero"/></clipPath><clipPath id="6f8d588e97"><path d="M 236.550781 371.328125 L 130.25 371.328125 C 101.007812 371.328125 74.15625 361.089844 53.078125 344.007812 C 51.539062 342.757812 50.027344 341.472656 48.550781 340.152344 C 41.878906 334.1875 22.5 349.976562 17.261719 342.695312 C 2.78125 322.5625 7.613281 275.382812 7.613281 248.691406 L 7.613281 96.921875 L 359.183594 96.921875 L 359.183594 248.691406 C 359.183594 316.421875 304.277344 371.328125 236.550781 371.328125 Z M 236.550781 371.328125 " clip-rule="nonzero"/></clipPath><clipPath id="e0b5ef2c4c"><path d="M 324.027344 143.847656 L 357.78125 143.847656 L 357.78125 180.542969 L 324.027344 180.542969 Z M 324.027344 143.847656 " clip-rule="nonzero"/></clipPath><clipPath id="d98cbf1b89"><path d="M 236.550781 371.328125 L 130.25 371.328125 C 101.007812 371.328125 74.15625 361.089844 53.078125 344.007812 C 51.539062 342.757812 50.027344 341.472656 48.550781 340.152344 C 41.878906 334.1875 22.5 349.976562 17.261719 342.695312 C 2.78125 322.5625 7.613281 275.382812 7.613281 248.691406 L 7.613281 96.921875 L 359.183594 96.921875 L 359.183594 248.691406 C 359.183594 316.421875 304.277344 371.328125 236.550781 371.328125 Z M 236.550781 371.328125 " clip-rule="nonzero"/></clipPath><clipPath id="cb9130a47e"><path d="M 179.40625 269.632812 L 224.539062 269.632812 L 224.539062 323.988281 L 179.40625 323.988281 Z M 179.40625 269.632812 " clip-rule="nonzero"/></clipPath><clipPath id="243892297c"><path d="M 236.550781 371.328125 L 130.25 371.328125 C 101.007812 371.328125 74.15625 361.089844 53.078125 344.007812 C 51.539062 342.757812 50.027344 341.472656 48.550781 340.152344 C 41.878906 334.1875 22.5 349.976562 17.261719 342.695312 C 2.78125 322.5625 7.613281 275.382812 7.613281 248.691406 L 7.613281 96.921875 L 359.183594 96.921875 L 359.183594 248.691406 C 359.183594 316.421875 304.277344 371.328125 236.550781 371.328125 Z M 236.550781 371.328125 " clip-rule="nonzero"/></clipPath><clipPath id="03b490b76a"><path d="M 192.75 310.449219 L 198.832031 310.449219 L 198.832031 316.335938 L 192.75 316.335938 Z M 192.75 310.449219 " clip-rule="nonzero"/></clipPath><clipPath id="7ccc61ed39"><path d="M 236.550781 371.328125 L 130.25 371.328125 C 101.007812 371.328125 74.15625 361.089844 53.078125 344.007812 C 51.539062 342.757812 50.027344 341.472656 48.550781 340.152344 C 41.878906 334.1875 22.5 349.976562 17.261719 342.695312 C 2.78125 322.5625 7.613281 275.382812 7.613281 248.691406 L 7.613281 96.921875 L 359.183594 96.921875 L 359.183594 248.691406 C 359.183594 316.421875 304.277344 371.328125 236.550781 371.328125 Z M 236.550781 371.328125 " clip-rule="nonzero"/></clipPath><clipPath id="8741b7633a"><path d="M 199.617188 301.421875 L 206.683594 301.421875 L 206.683594 315 L 199.617188 315 Z M 199.617188 301.421875 " clip-rule="nonzero"/></clipPath><clipPath id="bcc4230ff6"><path d="M 236.550781 371.328125 L 130.25 371.328125 C 101.007812 371.328125 74.15625 361.089844 53.078125 344.007812 C 51.539062 342.757812 50.027344 341.472656 48.550781 340.152344 C 41.878906 334.1875 22.5 349.976562 17.261719 342.695312 C 2.78125 322.5625 7.613281 275.382812 7.613281 248.691406 L 7.613281 96.921875 L 359.183594 96.921875 L 359.183594 248.691406 C 359.183594 316.421875 304.277344 371.328125 236.550781 371.328125 Z M 236.550781 371.328125 " clip-rule="nonzero"/></clipPath><clipPath id="2a74cf9d42"><path d="M 204.71875 280.035156 L 214.726562 280.035156 L 214.726562 313.980469 L 204.71875 313.980469 Z M 204.71875 280.035156 " clip-rule="nonzero"/></clipPath><clipPath id="9ac09c4ae0"><path d="M 236.550781 371.328125 L 130.25 371.328125 C 101.007812 371.328125 74.15625 361.089844 53.078125 344.007812 C 51.539062 342.757812 50.027344 341.472656 48.550781 340.152344 C 41.878906 334.1875 22.5 349.976562 17.261719 342.695312 C 2.78125 322.5625 7.613281 275.382812 7.613281 248.691406 L 7.613281 96.921875 L 359.183594 96.921875 L 359.183594 248.691406 C 359.183594 316.421875 304.277344 371.328125 236.550781 371.328125 Z M 236.550781 371.328125 " clip-rule="nonzero"/></clipPath><clipPath id="154576d9f5"><path d="M 169.59375 282.585938 L 198.636719 282.585938 L 198.636719 308.683594 L 169.59375 308.683594 Z M 169.59375 282.585938 " clip-rule="nonzero"/></clipPath><clipPath id="34c3f0eb41"><path d="M 236.550781 371.328125 L 130.25 371.328125 C 101.007812 371.328125 74.15625 361.089844 53.078125 344.007812 C 51.539062 342.757812 50.027344 341.472656 48.550781 340.152344 C 41.878906 334.1875 22.5 349.976562 17.261719 342.695312 C 2.78125 322.5625 7.613281 275.382812 7.613281 248.691406 L 7.613281 96.921875 L 359.183594 96.921875 L 359.183594 248.691406 C 359.183594 316.421875 304.277344 371.328125 236.550781 371.328125 Z M 236.550781 371.328125 " clip-rule="nonzero"/></clipPath><clipPath id="67e97593a8"><path d="M 168.808594 281.800781 L 199.226562 281.800781 L 199.226562 309.273438 L 168.808594 309.273438 Z M 168.808594 281.800781 " clip-rule="nonzero"/></clipPath><clipPath id="1a350d2f55"><path d="M 236.550781 371.328125 L 130.25 371.328125 C 101.007812 371.328125 74.15625 361.089844 53.078125 344.007812 C 51.539062 342.757812 50.027344 341.472656 48.550781 340.152344 C 41.878906 334.1875 22.5 349.976562 17.261719 342.695312 C 2.78125 322.5625 7.613281 275.382812 7.613281 248.691406 L 7.613281 96.921875 L 359.183594 96.921875 L 359.183594 248.691406 C 359.183594 316.421875 304.277344 371.328125 236.550781 371.328125 Z M 236.550781 371.328125 " clip-rule="nonzero"/></clipPath><clipPath id="4808426c8f"><path d="M 217.671875 253.148438 L 223.949219 253.148438 L 223.949219 263.550781 L 217.671875 263.550781 Z M 217.671875 253.148438 " clip-rule="nonzero"/></clipPath><clipPath id="6a8f557b56"><path d="M 236.550781 371.328125 L 130.25 371.328125 C 101.007812 371.328125 74.15625 361.089844 53.078125 344.007812 C 51.539062 342.757812 50.027344 341.472656 48.550781 340.152344 C 41.878906 334.1875 22.5 349.976562 17.261719 342.695312 C 2.78125 322.5625 7.613281 275.382812 7.613281 248.691406 L 7.613281 96.921875 L 359.183594 96.921875 L 359.183594 248.691406 C 359.183594 316.421875 304.277344 371.328125 236.550781 371.328125 Z M 236.550781 371.328125 " clip-rule="nonzero"/></clipPath><clipPath id="5f3f5657f6"><path d="M 220.808594 254.71875 L 239.648438 254.71875 L 239.648438 267.867188 L 220.808594 267.867188 Z M 220.808594 254.71875 " clip-rule="nonzero"/></clipPath><clipPath id="b54ee0b2a1"><path d="M 236.550781 371.328125 L 130.25 371.328125 C 101.007812 371.328125 74.15625 361.089844 53.078125 344.007812 C 51.539062 342.757812 50.027344 341.472656 48.550781 340.152344 C 41.878906 334.1875 22.5 349.976562 17.261719 342.695312 C 2.78125 322.5625 7.613281 275.382812 7.613281 248.691406 L 7.613281 96.921875 L 359.183594 96.921875 L 359.183594 248.691406 C 359.183594 316.421875 304.277344 371.328125 236.550781 371.328125 Z M 236.550781 371.328125 " clip-rule="nonzero"/></clipPath><clipPath id="69be692017"><path d="M 202.757812 204.679688 L 224.144531 204.679688 L 224.144531 240 L 202.757812 240 Z M 202.757812 204.679688 " clip-rule="nonzero"/></clipPath><clipPath id="00e5205be8"><path d="M 236.550781 371.328125 L 130.25 371.328125 C 101.007812 371.328125 74.15625 361.089844 53.078125 344.007812 C 51.539062 342.757812 50.027344 341.472656 48.550781 340.152344 C 41.878906 334.1875 22.5 349.976562 17.261719 342.695312 C 2.78125 322.5625 7.613281 275.382812 7.613281 248.691406 L 7.613281 96.921875 L 359.183594 96.921875 L 359.183594 248.691406 C 359.183594 316.421875 304.277344 371.328125 236.550781 371.328125 Z M 236.550781 371.328125 " clip-rule="nonzero"/></clipPath><clipPath id="1484dbefc6"><path d="M 202 204 L 224.929688 204 L 224.929688 240.589844 L 202 240.589844 Z M 202 204 " clip-rule="nonzero"/></clipPath><clipPath id="3f706c71f1"><path d="M 236.550781 371.328125 L 130.25 371.328125 C 101.007812 371.328125 74.15625 361.089844 53.078125 344.007812 C 51.539062 342.757812 50.027344 341.472656 48.550781 340.152344 C 41.878906 334.1875 22.5 349.976562 17.261719 342.695312 C 2.78125 322.5625 7.613281 275.382812 7.613281 248.691406 L 7.613281 96.921875 L 359.183594 96.921875 L 359.183594 248.691406 C 359.183594 316.421875 304.277344 371.328125 236.550781 371.328125 Z M 236.550781 371.328125 " clip-rule="nonzero"/></clipPath><clipPath id="7c607ce9b5"><path d="M 200.792969 181.523438 L 228.265625 181.523438 L 228.265625 214.6875 L 200.792969 214.6875 Z M 200.792969 181.523438 " clip-rule="nonzero"/></clipPath><clipPath id="034f11ef3c"><path d="M 236.550781 371.328125 L 130.25 371.328125 C 101.007812 371.328125 74.15625 361.089844 53.078125 344.007812 C 51.539062 342.757812 50.027344 341.472656 48.550781 340.152344 C 41.878906 334.1875 22.5 349.976562 17.261719 342.695312 C 2.78125 322.5625 7.613281 275.382812 7.613281 248.691406 L 7.613281 96.921875 L 359.183594 96.921875 L 359.183594 248.691406 C 359.183594 316.421875 304.277344 371.328125 236.550781 371.328125 Z M 236.550781 371.328125 " clip-rule="nonzero"/></clipPath><clipPath id="30c46726c0"><path d="M 200.207031 180.9375 L 228.855469 180.9375 L 228.855469 215.472656 L 200.207031 215.472656 Z M 200.207031 180.9375 " clip-rule="nonzero"/></clipPath><clipPath id="366cd46e16"><path d="M 236.550781 371.328125 L 130.25 371.328125 C 101.007812 371.328125 74.15625 361.089844 53.078125 344.007812 C 51.539062 342.757812 50.027344 341.472656 48.550781 340.152344 C 41.878906 334.1875 22.5 349.976562 17.261719 342.695312 C 2.78125 322.5625 7.613281 275.382812 7.613281 248.691406 L 7.613281 96.921875 L 359.183594 96.921875 L 359.183594 248.691406 C 359.183594 316.421875 304.277344 371.328125 236.550781 371.328125 Z M 236.550781 371.328125 " clip-rule="nonzero"/></clipPath><clipPath id="ff151f229c"><path d="M 195.691406 171 L 227.089844 171 L 227.089844 207.625 L 195.691406 207.625 Z M 195.691406 171 " clip-rule="nonzero"/></clipPath><clipPath id="ace5c409b5"><path d="M 236.550781 371.328125 L 130.25 371.328125 C 101.007812 371.328125 74.15625 361.089844 53.078125 344.007812 C 51.539062 342.757812 50.027344 341.472656 48.550781 340.152344 C 41.878906 334.1875 22.5 349.976562 17.261719 342.695312 C 2.78125 322.5625 7.613281 275.382812 7.613281 248.691406 L 7.613281 96.921875 L 359.183594 96.921875 L 359.183594 248.691406 C 359.183594 316.421875 304.277344 371.328125 236.550781 371.328125 Z M 236.550781 371.328125 " clip-rule="nonzero"/></clipPath><clipPath id="5a5cf714e2"><path d="M 199.027344 195.261719 L 204.523438 195.261719 L 204.523438 203.699219 L 199.027344 203.699219 Z M 199.027344 195.261719 " clip-rule="nonzero"/></clipPath><clipPath id="ecc75b4ebe"><path d="M 236.550781 371.328125 L 130.25 371.328125 C 101.007812 371.328125 74.15625 361.089844 53.078125 344.007812 C 51.539062 342.757812 50.027344 341.472656 48.550781 340.152344 C 41.878906 334.1875 22.5 349.976562 17.261719 342.695312 C 2.78125 322.5625 7.613281 275.382812 7.613281 248.691406 L 7.613281 96.921875 L 359.183594 96.921875 L 359.183594 248.691406 C 359.183594 316.421875 304.277344 371.328125 236.550781 371.328125 Z M 236.550781 371.328125 " clip-rule="nonzero"/></clipPath></defs><g clip-path="url(#c223c731ed)"><path fill="#e9f1dc" d="M 133.394531 32.304688 C 113.261719 39.980469 38.582031 62.277344 17.480469 141.261719 C 7.707031 177.84375 6.324219 218.734375 6.980469 258.570312 C 7.574219 294.921875 26.34375 371.328125 150.523438 371.621094 C 216.902344 371.78125 272.710938 374.949219 313.46875 348.945312 C 347.148438 327.457031 368.664062 301.660156 364.257812 266.171875 C 360.082031 232.5 313.632812 222.3125 315.78125 182.648438 C 317.878906 143.941406 367.261719 124.972656 362.085938 78.910156 C 361.761719 76.019531 360.71875 67.351562 356.3125 58.6875 C 331.289062 9.476562 217.960938 0.0507812 133.394531 32.304688 " fill-opacity="1" fill-rule="nonzero"/></g><path fill="#000000" d="M 42.003906 48.667969 L 183.976562 48.667969 C 188.457031 48.667969 192.695312 52.425781 193.445312 57.058594 L 225.671875 255.96875 C 226.421875 260.601562 223.398438 264.363281 218.921875 264.363281 L 76.949219 264.363281 C 72.46875 264.363281 68.230469 260.601562 67.480469 255.96875 L 35.257812 57.058594 C 34.503906 52.425781 37.527344 48.667969 42.003906 48.667969 " fill-opacity="1" fill-rule="nonzero"/><path fill="#000000" d="M 42.003906 49.316406 C 40.105469 49.316406 38.425781 50.058594 37.277344 51.40625 C 36.042969 52.859375 35.550781 54.832031 35.894531 56.957031 L 68.117188 255.867188 C 68.820312 260.195312 72.78125 263.714844 76.949219 263.714844 L 218.921875 263.714844 C 220.820312 263.714844 222.5 262.972656 223.644531 261.625 C 224.882812 260.171875 225.375 258.199219 225.03125 256.074219 L 192.804688 57.164062 C 192.105469 52.835938 188.144531 49.316406 183.980469 49.316406 Z M 218.921875 265.011719 L 76.949219 265.011719 C 72.171875 265.011719 67.636719 261 66.839844 256.074219 L 34.617188 57.164062 C 34.210938 54.65625 34.804688 52.3125 36.292969 50.566406 C 37.6875 48.925781 39.71875 48.019531 42.003906 48.019531 L 183.980469 48.019531 C 188.753906 48.019531 193.289062 52.03125 194.085938 56.957031 L 226.308594 255.867188 C 226.714844 258.375 226.121094 260.71875 224.632812 262.464844 C 223.238281 264.105469 221.207031 265.011719 218.921875 265.011719 " fill-opacity="1" fill-rule="nonzero"/><path fill="#ffffff" d="M 46.566406 48.667969 L 188.539062 48.667969 C 193.015625 48.667969 197.257812 52.425781 198.007812 57.058594 L 230.230469 255.96875 C 230.980469 260.601562 227.960938 264.363281 223.480469 264.363281 L 81.507812 264.363281 C 77.03125 264.363281 72.789062 260.601562 72.039062 255.96875 L 39.816406 57.058594 C 39.066406 52.425781 42.085938 48.667969 46.566406 48.667969 " fill-opacity="1" fill-rule="nonzero"/><path fill="#000000" d="M 46.566406 49.316406 C 44.664062 49.316406 42.984375 50.058594 41.835938 51.40625 C 40.601562 52.859375 40.109375 54.832031 40.453125 56.957031 L 72.679688 255.867188 C 73.378906 260.195312 77.339844 263.714844 81.507812 263.714844 L 223.476562 263.714844 C 225.382812 263.714844 227.0625 262.972656 228.207031 261.625 C 229.441406 260.171875 229.933594 258.199219 229.589844 256.074219 L 197.367188 57.164062 C 196.667969 52.835938 192.703125 49.316406 188.539062 49.316406 Z M 223.476562 265.011719 L 81.507812 265.011719 C 76.730469 265.011719 72.195312 261 71.398438 256.074219 L 39.175781 57.164062 C 38.769531 54.65625 39.363281 52.3125 40.851562 50.566406 C 42.25 48.925781 44.277344 48.019531 46.566406 48.019531 L 188.539062 48.019531 C 193.3125 48.019531 197.847656 52.03125 198.648438 56.957031 L 230.871094 255.867188 C 231.277344 258.375 230.679688 260.71875 229.191406 262.464844 C 227.796875 264.105469 225.765625 265.011719 223.476562 265.011719 " fill-opacity="1" fill-rule="nonzero"/><path fill="#ffffff" d="M 87.019531 242.835938 L 210.996094 242.835938 L 181.695312 61.984375 L 57.722656 61.984375 L 87.019531 242.835938 " fill-opacity="1" fill-rule="nonzero"/><path fill="#000000" d="M 87.570312 242.1875 L 210.230469 242.1875 L 181.144531 62.636719 L 58.484375 62.636719 Z M 210.992188 243.484375 L 87.019531 243.484375 C 86.703125 243.484375 86.429688 243.253906 86.378906 242.941406 L 57.082031 62.089844 C 57.050781 61.902344 57.105469 61.710938 57.230469 61.566406 C 57.351562 61.421875 57.53125 61.339844 57.722656 61.339844 L 181.695312 61.339844 C 182.011719 61.339844 182.28125 61.570312 182.335938 61.886719 L 211.632812 242.734375 C 211.660156 242.921875 211.609375 243.113281 211.484375 243.257812 C 211.363281 243.402344 211.183594 243.484375 210.992188 243.484375 " fill-opacity="1" fill-rule="nonzero"/><path fill="#e9f1dc" d="M 78.089844 95.285156 L 172.117188 95.285156 L 171.207031 89.675781 L 77.179688 89.675781 L 78.089844 95.285156 " fill-opacity="1" fill-rule="nonzero"/><path fill="#e9f1dc" d="M 104.4375 106.324219 L 173.90625 106.324219 L 172.996094 100.714844 L 103.527344 100.714844 L 104.4375 106.324219 " fill-opacity="1" fill-rule="nonzero"/><path fill="#e9f1dc" d="M 82.929688 125.152344 L 176.957031 125.152344 L 176.046875 119.542969 L 82.019531 119.542969 L 82.929688 125.152344 " fill-opacity="1" fill-rule="nonzero"/><path fill="#e9f1dc" d="M 109.273438 136.191406 L 178.742188 136.191406 L 177.835938 130.585938 L 108.367188 130.585938 L 109.273438 136.191406 " fill-opacity="1" fill-rule="nonzero"/><path fill="#e9f1dc" d="M 87.765625 155.023438 L 181.792969 155.023438 L 180.886719 149.414062 L 86.859375 149.414062 L 87.765625 155.023438 " fill-opacity="1" fill-rule="nonzero"/><path fill="#e9f1dc" d="M 114.113281 166.058594 L 183.582031 166.058594 L 182.675781 160.453125 L 113.207031 160.453125 L 114.113281 166.058594 " fill-opacity="1" fill-rule="nonzero"/><path fill="#e9f1dc" d="M 92.605469 184.890625 L 186.632812 184.890625 L 185.722656 179.28125 L 91.695312 179.28125 L 92.605469 184.890625 " fill-opacity="1" fill-rule="nonzero"/><path fill="#e9f1dc" d="M 118.953125 195.929688 L 188.421875 195.929688 L 187.515625 190.320312 L 118.042969 190.320312 L 118.953125 195.929688 " fill-opacity="1" fill-rule="nonzero"/><path fill="#000000" d="M 79.132812 72.503906 L 159.6875 72.503906 C 162.972656 72.503906 165.1875 69.746094 164.640625 66.347656 L 163.191406 57.429688 C 161.9375 49.6875 154.859375 43.410156 147.378906 43.410156 L 82.015625 43.410156 C 74.535156 43.410156 69.488281 49.6875 70.742188 57.429688 L 72.1875 66.347656 C 72.738281 69.746094 75.847656 72.503906 79.132812 72.503906 " fill-opacity="1" fill-rule="nonzero"/><path fill="#000000" d="M 82.015625 44.058594 C 78.710938 44.058594 75.789062 45.351562 73.789062 47.703125 C 71.640625 50.226562 70.785156 53.644531 71.382812 57.324219 L 72.828125 66.242188 C 73.328125 69.335938 76.15625 71.851562 79.132812 71.851562 L 159.6875 71.851562 C 161.03125 71.851562 162.214844 71.328125 163.023438 70.382812 C 163.898438 69.355469 164.242188 67.957031 164 66.449219 L 162.554688 57.53125 C 161.351562 50.101562 154.542969 44.058594 147.378906 44.058594 Z M 159.6875 73.148438 L 79.132812 73.148438 C 75.546875 73.148438 72.148438 70.144531 71.546875 66.449219 L 70.101562 57.53125 C 69.445312 53.472656 70.402344 49.679688 72.804688 46.863281 C 75.054688 44.21875 78.328125 42.761719 82.015625 42.761719 L 147.378906 42.761719 C 155.152344 42.761719 162.53125 49.292969 163.832031 57.324219 L 165.277344 66.242188 C 165.585938 68.132812 165.132812 69.898438 164.011719 71.21875 C 162.953125 72.464844 161.417969 73.148438 159.6875 73.148438 " fill-opacity="1" fill-rule="nonzero"/><path fill="#95c251" d="M 81.132812 72.503906 L 161.691406 72.503906 C 164.972656 72.503906 167.191406 69.746094 166.640625 66.347656 L 165.195312 57.429688 C 163.941406 49.6875 156.859375 43.410156 149.378906 43.410156 L 84.019531 43.410156 C 76.539062 43.410156 71.492188 49.6875 72.746094 57.429688 L 74.1875 66.347656 C 74.742188 69.746094 77.847656 72.503906 81.132812 72.503906 " fill-opacity="1" fill-rule="nonzero"/><path fill="#000000" d="M 84.019531 44.058594 C 80.714844 44.058594 77.792969 45.351562 75.792969 47.703125 C 73.644531 50.226562 72.789062 53.644531 73.382812 57.324219 L 74.828125 66.242188 C 75.332031 69.335938 78.160156 71.851562 81.132812 71.851562 L 161.691406 71.851562 C 163.035156 71.851562 164.21875 71.328125 165.027344 70.382812 C 165.898438 69.355469 166.246094 67.957031 166 66.449219 L 164.558594 57.53125 C 163.355469 50.101562 156.546875 44.058594 149.378906 44.058594 Z M 161.691406 73.148438 L 81.132812 73.148438 C 77.550781 73.148438 74.148438 70.144531 73.550781 66.449219 L 72.105469 57.53125 C 71.449219 53.472656 72.40625 49.679688 74.804688 46.863281 C 77.054688 44.21875 80.328125 42.761719 84.019531 42.761719 L 149.378906 42.761719 C 157.152344 42.761719 164.535156 49.292969 165.835938 57.324219 L 167.28125 66.242188 C 167.585938 68.132812 167.136719 69.898438 166.011719 71.21875 C 164.957031 72.464844 163.421875 73.148438 161.691406 73.148438 " fill-opacity="1" fill-rule="nonzero"/><path fill="#000000" d="M 107.652344 27.765625 C 107.214844 25.054688 108.980469 22.859375 111.597656 22.859375 C 114.21875 22.859375 116.695312 25.054688 117.136719 27.765625 C 117.574219 30.476562 115.808594 32.671875 113.1875 32.671875 C 110.570312 32.671875 108.09375 30.476562 107.652344 27.765625 Z M 97.722656 31.269531 L 101.707031 55.863281 C 102.15625 58.636719 104.695312 60.882812 107.375 60.882812 L 128.148438 60.882812 C 130.828125 60.882812 132.632812 58.636719 132.183594 55.863281 L 128.199219 31.269531 C 126.789062 22.558594 118.824219 15.496094 110.40625 15.496094 C 101.992188 15.496094 96.3125 22.558594 97.722656 31.269531 " fill-opacity="1" fill-rule="nonzero"/><path fill="#000000" d="M 108.292969 27.660156 C 108.683594 30.066406 110.878906 32.019531 113.191406 32.019531 C 114.222656 32.019531 115.128906 31.621094 115.75 30.894531 C 116.417969 30.105469 116.683594 29.03125 116.496094 27.867188 C 116.105469 25.460938 113.910156 23.503906 111.601562 23.503906 C 110.566406 23.503906 109.660156 23.902344 109.042969 24.632812 C 108.371094 25.417969 108.105469 26.496094 108.292969 27.660156 Z M 113.191406 33.320312 C 110.273438 33.320312 107.5 30.875 107.015625 27.867188 C 106.761719 26.320312 107.132812 24.875 108.054688 23.792969 C 108.921875 22.769531 110.183594 22.207031 111.601562 22.207031 C 114.519531 22.207031 117.289062 24.652344 117.773438 27.660156 C 118.027344 29.207031 117.65625 30.652344 116.734375 31.734375 C 115.867188 32.753906 114.605469 33.320312 113.191406 33.320312 Z M 98.363281 31.164062 L 102.347656 55.757812 C 102.746094 58.226562 105 60.238281 107.375 60.238281 L 128.148438 60.238281 C 129.207031 60.238281 130.140625 59.824219 130.777344 59.078125 C 131.46875 58.265625 131.738281 57.164062 131.546875 55.964844 L 127.5625 31.371094 C 126.203125 22.976562 118.507812 16.144531 110.40625 16.144531 C 106.664062 16.144531 103.355469 17.613281 101.089844 20.273438 C 98.65625 23.132812 97.6875 27 98.363281 31.164062 Z M 128.148438 61.53125 L 107.375 61.53125 C 104.394531 61.53125 101.566406 59.035156 101.066406 55.964844 L 97.082031 31.371094 C 96.347656 26.824219 97.421875 22.585938 100.105469 19.433594 C 102.621094 16.476562 106.28125 14.847656 110.40625 14.847656 C 119.113281 14.847656 127.382812 22.167969 128.839844 31.164062 L 132.824219 55.757812 C 133.082031 57.335938 132.703125 58.8125 131.765625 59.917969 C 130.878906 60.957031 129.59375 61.53125 128.148438 61.53125 " fill-opacity="1" fill-rule="nonzero"/><path fill="#95c251" d="M 108.949219 27.765625 C 108.511719 25.054688 110.277344 22.859375 112.894531 22.859375 C 115.511719 22.859375 117.992188 25.054688 118.429688 27.765625 C 118.871094 30.476562 117.101562 32.671875 114.484375 32.671875 C 111.867188 32.671875 109.386719 30.476562 108.949219 27.765625 Z M 99.019531 31.269531 L 103.003906 55.863281 C 103.453125 58.636719 105.988281 60.882812 108.667969 60.882812 L 129.441406 60.882812 C 132.121094 60.882812 133.929688 58.636719 133.480469 55.863281 L 129.496094 31.269531 C 128.085938 22.558594 120.121094 15.496094 111.703125 15.496094 C 103.285156 15.496094 97.609375 22.558594 99.019531 31.269531 " fill-opacity="1" fill-rule="nonzero"/><path fill="#000000" d="M 109.589844 27.660156 C 109.980469 30.066406 112.175781 32.019531 114.484375 32.019531 C 115.515625 32.019531 116.425781 31.621094 117.042969 30.894531 C 117.714844 30.105469 117.980469 29.03125 117.792969 27.867188 C 117.402344 25.460938 115.207031 23.503906 112.894531 23.503906 C 111.863281 23.503906 110.957031 23.902344 110.335938 24.632812 C 109.667969 25.417969 109.398438 26.496094 109.589844 27.660156 Z M 114.484375 33.320312 C 111.566406 33.320312 108.796875 30.875 108.308594 27.867188 C 108.058594 26.320312 108.429688 24.875 109.351562 23.792969 C 110.21875 22.769531 111.476562 22.207031 112.894531 22.207031 C 115.8125 22.207031 118.582031 24.652344 119.070312 27.660156 C 119.320312 29.207031 118.953125 30.652344 118.03125 31.734375 C 117.160156 32.753906 115.902344 33.320312 114.484375 33.320312 Z M 111.703125 16.144531 C 107.960938 16.144531 104.652344 17.613281 102.386719 20.273438 C 99.953125 23.132812 98.984375 27 99.660156 31.164062 L 103.644531 55.757812 C 104.042969 58.226562 106.296875 60.238281 108.667969 60.238281 L 129.441406 60.238281 C 130.503906 60.238281 131.4375 59.824219 132.074219 59.078125 C 132.761719 58.265625 133.035156 57.164062 132.839844 55.964844 L 128.859375 31.371094 C 127.496094 22.976562 119.800781 16.144531 111.703125 16.144531 Z M 129.441406 61.53125 L 108.667969 61.53125 C 105.6875 61.53125 102.859375 59.035156 102.363281 55.964844 L 98.378906 31.371094 C 97.644531 26.824219 98.714844 22.585938 101.398438 19.433594 C 103.914062 16.476562 107.574219 14.847656 111.703125 14.847656 C 120.410156 14.847656 128.679688 22.167969 130.136719 31.164062 L 134.121094 55.757812 C 134.375 57.335938 134 58.8125 133.058594 59.914062 C 132.175781 60.957031 130.890625 61.53125 129.441406 61.53125 " fill-opacity="1" fill-rule="nonzero"/><path fill="#1d5f31" d="M 359.515625 47.871094 L 293.363281 69.574219 C 290.132812 70.632812 289.148438 74.738281 291.550781 77.15625 L 302.71875 88.410156 L 266.324219 124.925781 C 262.511719 128.75 256.332031 128.746094 252.527344 124.921875 L 236.285156 108.621094 C 221.328125 93.601562 197.074219 93.601562 182.117188 108.609375 L 61.332031 230.726562 C 60.582031 238.851562 60.617188 247.664062 61.679688 257.1875 C 62.332031 263.027344 63.160156 268.527344 64.152344 273.710938 L 202.339844 133.902344 C 206.136719 130.089844 212.296875 130.082031 216.109375 133.882812 L 232.515625 150.234375 C 247.488281 165.160156 271.664062 165.128906 286.582031 150.15625 L 325.375 111.234375 L 337.152344 123.09375 C 339.566406 125.53125 343.699219 124.523438 344.734375 121.25 L 365.9375 54.261719 C 367.1875 50.300781 363.449219 46.582031 359.515625 47.871094 " fill-opacity="1" fill-rule="nonzero"/><path fill="#ffffff" d="M 325.191406 206.050781 L 42.320312 206.050781 L 73.957031 343.429688 C 76.246094 353.371094 85.097656 360.417969 95.300781 360.417969 L 272.210938 360.417969 C 282.414062 360.417969 291.265625 353.371094 293.554688 343.429688 L 325.191406 206.050781 " fill-opacity="1" fill-rule="nonzero"/><path fill="#000000" d="M 43.132812 206.699219 L 74.585938 343.285156 C 76.820312 352.992188 85.339844 359.769531 95.300781 359.769531 L 272.207031 359.769531 C 282.167969 359.769531 290.683594 352.992188 292.921875 343.285156 L 324.375 206.699219 Z M 272.207031 361.066406 L 95.300781 361.066406 C 84.730469 361.066406 75.695312 353.871094 73.324219 343.574219 L 41.6875 206.199219 C 41.640625 206.003906 41.6875 205.804688 41.8125 205.648438 C 41.933594 205.492188 42.121094 205.40625 42.320312 205.40625 L 325.1875 205.40625 C 325.386719 205.40625 325.574219 205.492188 325.695312 205.648438 C 325.820312 205.804688 325.867188 206.003906 325.820312 206.199219 L 294.183594 343.574219 C 291.8125 353.871094 282.777344 361.066406 272.207031 361.066406 " fill-opacity="1" fill-rule="nonzero"/><path fill="#ffffff" d="M 333.554688 211.449219 L 33.953125 211.449219 C 32.113281 211.449219 30.625 209.960938 30.625 208.117188 L 30.625 193.375 C 30.625 191.535156 32.113281 190.042969 33.953125 190.042969 L 333.554688 190.042969 C 335.394531 190.042969 336.886719 191.535156 336.886719 193.375 L 336.886719 208.117188 C 336.886719 209.960938 335.394531 211.449219 333.554688 211.449219 " fill-opacity="1" fill-rule="nonzero"/><path fill="#000000" d="M 39.792969 190.6875 C 35.09375 190.6875 31.273438 194.515625 31.273438 199.210938 L 31.273438 202.277344 C 31.273438 206.976562 35.09375 210.800781 39.792969 210.800781 L 327.71875 210.800781 C 332.414062 210.800781 336.238281 206.976562 336.238281 202.277344 L 336.238281 199.210938 C 336.238281 194.515625 332.414062 190.6875 327.71875 190.6875 Z M 327.71875 212.097656 L 39.792969 212.097656 C 34.378906 212.097656 29.976562 207.691406 29.976562 202.277344 L 29.976562 199.210938 C 29.976562 193.800781 34.378906 189.394531 39.792969 189.394531 L 327.71875 189.394531 C 333.128906 189.394531 337.535156 193.800781 337.535156 199.210938 L 337.535156 202.277344 C 337.535156 207.691406 333.128906 212.097656 327.71875 212.097656 " fill-opacity="1" fill-rule="nonzero"/><path fill="#95c251" d="M 67.316406 204.984375 C 65.789062 204.984375 64.253906 204.421875 63.050781 203.289062 C 60.550781 200.9375 60.429688 196.996094 62.785156 194.492188 L 168.558594 82.125 C 170.910156 79.621094 174.851562 79.5 177.355469 81.859375 C 179.859375 84.214844 179.980469 88.15625 177.625 90.660156 L 71.851562 203.027344 C 70.628906 204.328125 68.976562 204.984375 67.316406 204.984375 " fill-opacity="1" fill-rule="nonzero"/><path fill="#000000" d="M 173.09375 80.8125 C 173.035156 80.8125 172.980469 80.816406 172.917969 80.816406 C 171.433594 80.863281 170.046875 81.484375 169.027344 82.566406 L 63.257812 194.933594 C 62.238281 196.019531 61.699219 197.4375 61.746094 198.925781 C 61.789062 200.414062 62.410156 201.796875 63.496094 202.820312 C 64.535156 203.796875 65.890625 204.335938 67.316406 204.335938 C 68.871094 204.335938 70.316406 203.710938 71.378906 202.582031 L 177.152344 90.214844 C 178.171875 89.128906 178.710938 87.710938 178.664062 86.222656 C 178.617188 84.734375 177.996094 83.351562 176.914062 82.332031 C 175.871094 81.347656 174.519531 80.8125 173.09375 80.8125 Z M 67.316406 205.632812 C 65.5625 205.632812 63.890625 204.96875 62.609375 203.761719 C 61.269531 202.507812 60.503906 200.800781 60.449219 198.964844 C 60.394531 197.128906 61.054688 195.386719 62.316406 194.050781 L 168.085938 81.679688 C 169.34375 80.34375 171.046875 79.578125 172.878906 79.519531 C 174.71875 79.464844 176.464844 80.128906 177.800781 81.386719 C 179.136719 82.644531 179.902344 84.347656 179.960938 86.183594 C 180.015625 88.019531 179.351562 89.765625 178.09375 91.101562 L 72.324219 203.46875 C 71.03125 204.84375 69.207031 205.632812 67.316406 205.632812 " fill-opacity="1" fill-rule="nonzero"/><path fill="#95c251" d="M 300.191406 204.984375 C 301.722656 204.984375 303.253906 204.421875 304.457031 203.292969 C 306.960938 200.9375 307.082031 196.992188 304.722656 194.492188 L 198.953125 82.125 C 196.597656 79.621094 192.660156 79.503906 190.152344 81.859375 C 187.648438 84.214844 187.53125 88.15625 189.886719 90.660156 L 295.65625 203.027344 C 296.882812 204.328125 298.535156 204.984375 300.191406 204.984375 " fill-opacity="1" fill-rule="nonzero"/><path fill="#000000" d="M 194.417969 80.8125 C 192.988281 80.8125 191.640625 81.347656 190.597656 82.332031 C 188.359375 84.4375 188.25 87.976562 190.359375 90.214844 L 296.128906 202.582031 C 297.195312 203.710938 298.636719 204.335938 300.191406 204.335938 C 301.617188 204.335938 302.972656 203.796875 304.015625 202.820312 C 305.097656 201.800781 305.722656 200.414062 305.765625 198.925781 C 305.8125 197.441406 305.273438 196.019531 304.25 194.933594 L 198.480469 82.570312 C 197.460938 81.484375 196.078125 80.863281 194.589844 80.816406 C 194.53125 80.816406 194.476562 80.8125 194.417969 80.8125 Z M 300.191406 205.632812 C 298.300781 205.632812 296.480469 204.84375 295.1875 203.46875 L 189.414062 91.101562 C 186.820312 88.34375 186.949219 83.984375 189.710938 81.386719 C 191.046875 80.128906 192.796875 79.464844 194.628906 79.519531 C 196.460938 79.578125 198.167969 80.34375 199.425781 81.679688 L 305.195312 194.050781 C 306.453125 195.382812 307.117188 197.128906 307.058594 198.964844 C 307.007812 200.800781 306.238281 202.503906 304.902344 203.765625 C 303.621094 204.96875 301.949219 205.632812 300.191406 205.632812 " fill-opacity="1" fill-rule="nonzero"/><path fill="#1d5f31" d="M 359.515625 47.871094 L 293.363281 69.574219 C 290.132812 70.632812 289.148438 74.738281 291.550781 77.15625 L 302.71875 88.410156 L 266.324219 124.925781 C 262.511719 128.75 256.332031 128.746094 252.527344 124.921875 L 236.285156 108.621094 C 221.328125 93.601562 197.074219 93.601562 182.117188 108.609375 L 157.3125 133.6875 C 157.839844 134.449219 158.355469 135.21875 158.867188 135.988281 C 164.457031 144.460938 169.195312 153.457031 174.40625 162.164062 L 202.339844 133.902344 C 206.136719 130.089844 212.296875 130.082031 216.109375 133.882812 L 232.515625 150.234375 C 247.488281 165.160156 271.664062 165.128906 286.582031 150.15625 L 325.375 111.234375 L 337.152344 123.09375 C 339.566406 125.53125 343.699219 124.523438 344.734375 121.25 L 365.9375 54.261719 C 367.1875 50.300781 363.449219 46.582031 359.515625 47.871094 " fill-opacity="1" fill-rule="nonzero"/><g clip-path="url(#66ad91c53e)"><g clip-path="url(#b43ac47ba4)"><path fill="#000000" d="M 82.570312 208.164062 C 89.230469 200.957031 99.128906 199.441406 106.570312 201.472656 C 115.988281 204.042969 120.738281 212.191406 124.085938 217.9375 C 130.007812 228.09375 127.148438 231.773438 131.800781 237.675781 C 140.042969 248.125 152.960938 241.59375 163.003906 249.226562 C 178.324219 260.871094 180.40625 300.390625 159.675781 315.4375 C 145.851562 325.472656 127.042969 319.667969 121.925781 318.089844 C 106.398438 313.296875 87.078125 299.921875 84.304688 281.792969 C 82.011719 266.800781 91.890625 254.328125 83.625 241.761719 C 81.515625 238.558594 79.773438 237.691406 78.210938 233.6875 C 75.671875 227.191406 75.097656 216.246094 82.570312 208.164062 " fill-opacity="1" fill-rule="nonzero"/></g></g><g clip-path="url(#388d6a257b)"><g clip-path="url(#e4b9bd441c)"><path fill="#000000" d="M 102.652344 209.941406 C 99.113281 207.070312 101.351562 198.605469 103.617188 194.039062 C 104.464844 192.328125 108.261719 184.671875 113.257812 184.964844 C 118.386719 185.273438 123.296875 193.882812 121.46875 200.703125 C 119.179688 209.234375 106.796875 213.304688 102.652344 209.941406 " fill-opacity="1" fill-rule="nonzero"/></g></g><g clip-path="url(#a362fb8b00)"><g clip-path="url(#f595a834cf)"><path fill="#ffffff" d="M 44.488281 328.855469 C 44.488281 328.855469 80.066406 266.832031 84.964844 263.855469 C 89.863281 260.878906 84.964844 292.269531 84.964844 292.269531 L 58.398438 336.621094 L 44.488281 328.855469 " fill-opacity="1" fill-rule="nonzero"/></g></g><g clip-path="url(#bc50cd66d7)"><g clip-path="url(#178a2f95e3)"><path fill="#000000" d="M 45.375 328.609375 L 58.164062 335.753906 L 84.34375 292.046875 C 86.324219 279.296875 87.347656 265.476562 85.628906 264.324219 C 85.570312 264.285156 85.460938 264.3125 85.300781 264.410156 C 81.441406 266.757812 55.492188 310.992188 45.375 328.609375 Z M 58.394531 337.273438 C 58.289062 337.273438 58.179688 337.246094 58.082031 337.191406 L 44.171875 329.417969 C 44.019531 329.335938 43.910156 329.195312 43.863281 329.027344 C 43.816406 328.859375 43.839844 328.679688 43.925781 328.53125 C 45.382812 325.992188 79.644531 266.332031 84.628906 263.300781 C 85.453125 262.800781 86.058594 263.054688 86.347656 263.246094 C 86.964844 263.660156 88.605469 264.757812 87.285156 278.867188 C 86.644531 285.667969 85.617188 292.300781 85.605469 292.367188 C 85.59375 292.453125 85.566406 292.53125 85.519531 292.601562 L 58.953125 336.957031 C 58.832031 337.160156 58.617188 337.273438 58.394531 337.273438 " fill-opacity="1" fill-rule="nonzero"/></g></g><g clip-path="url(#c6b82fbecd)"><g clip-path="url(#f4b23d239e)"><path fill="#1d5f31" d="M 137.496094 262.601562 C 137.496094 262.601562 113.085938 250.628906 84.964844 263.855469 C 84.964844 263.855469 60.875 345.105469 59.171875 353.554688 C 57.472656 362.007812 44.488281 393.296875 74.890625 386.15625 C 85.605469 383.640625 118.363281 380.089844 129.542969 386.238281 C 140.71875 392.386719 140.726562 355.390625 139.46875 345.359375 C 138.210938 335.320312 137.496094 262.601562 137.496094 262.601562 " fill-opacity="1" fill-rule="nonzero"/></g></g><g clip-path="url(#4a41c7fc0a)"><g clip-path="url(#5bdba948ea)"><path fill="#ffffff" d="M 135.472656 327.84375 L 100.632812 307.070312 L 81.707031 313.410156 C 81.707031 313.410156 83.367188 315.230469 86.058594 314.34375 C 88.75 313.460938 92.542969 313.703125 95.234375 315.90625 C 97.929688 318.105469 101.589844 315.90625 101.589844 315.90625 C 101.589844 315.90625 123.738281 348.710938 143.261719 349.390625 C 159.132812 349.9375 150.457031 294.191406 146.65625 273.316406 C 145.78125 268.511719 142.457031 264.519531 137.898438 262.78125 L 132.054688 260.554688 L 135.472656 327.84375 " fill-opacity="1" fill-rule="nonzero"/></g></g><g clip-path="url(#4596220a88)"><g clip-path="url(#6aed9c6bd3)"><path fill="#000000" d="M 101.589844 315.257812 C 101.796875 315.257812 102 315.359375 102.125 315.542969 C 102.347656 315.867188 124.3125 348.085938 143.285156 348.742188 C 144.972656 348.800781 146.375 348.160156 147.5625 346.789062 C 156.371094 336.597656 149.417969 292.09375 146.019531 273.429688 C 145.191406 268.886719 141.992188 265.035156 137.667969 263.390625 L 132.753906 261.515625 L 136.121094 327.808594 C 136.132812 328.050781 136.011719 328.273438 135.808594 328.398438 C 135.601562 328.523438 135.347656 328.523438 135.144531 328.402344 L 100.554688 307.78125 L 83.128906 313.613281 C 83.761719 313.90625 84.691406 314.109375 85.855469 313.730469 C 88.605469 312.824219 92.699219 312.996094 95.644531 315.402344 C 97.949219 317.28125 101.222656 315.367188 101.253906 315.347656 C 101.359375 315.285156 101.476562 315.257812 101.589844 315.257812 Z M 143.492188 350.042969 C 143.40625 350.042969 143.324219 350.039062 143.238281 350.039062 C 124.671875 349.394531 104.300781 320.964844 101.378906 316.742188 C 100.171875 317.308594 97.214844 318.359375 94.824219 316.40625 C 92.257812 314.308594 88.675781 314.167969 86.261719 314.960938 C 83.207031 315.964844 81.304688 313.933594 81.226562 313.84375 C 81.078125 313.683594 81.023438 313.457031 81.078125 313.246094 C 81.132812 313.035156 81.292969 312.863281 81.5 312.792969 L 100.425781 306.457031 C 100.605469 306.398438 100.800781 306.417969 100.960938 306.515625 L 134.765625 326.667969 L 131.410156 260.585938 C 131.398438 260.367188 131.5 260.160156 131.675781 260.027344 C 131.851562 259.902344 132.082031 259.871094 132.289062 259.949219 L 138.128906 262.179688 C 142.875 263.988281 146.386719 268.210938 147.292969 273.199219 C 150.726562 292.042969 157.714844 337.023438 148.542969 347.636719 C 147.164062 349.234375 145.464844 350.042969 143.492188 350.042969 " fill-opacity="1" fill-rule="nonzero"/></g></g><g clip-path="url(#95dfdef49a)"><g clip-path="url(#095d30c143)"><path fill="#000000" d="M 42.066406 335.707031 L 92.925781 337.761719 C 94.644531 337.761719 95.699219 335.875 94.800781 334.40625 L 69.144531 292.636719 C 68.515625 291.609375 67.398438 290.988281 66.195312 290.988281 L 14.78125 292.160156 L 42.066406 335.707031 " fill-opacity="1" fill-rule="nonzero"/></g></g><g clip-path="url(#db839f9690)"><g clip-path="url(#1e9f7ee279)"><path fill="#000000" d="M 42.433594 335.074219 L 92.949219 337.113281 C 93.496094 337.113281 94.003906 336.816406 94.28125 336.320312 C 94.558594 335.820312 94.546875 335.234375 94.25 334.746094 L 68.59375 292.976562 C 68.085938 292.148438 67.164062 291.636719 66.195312 291.636719 L 15.9375 292.78125 Z M 92.925781 338.410156 L 41.699219 336.339844 L 13.628906 291.539062 L 66.179688 290.339844 C 67.613281 290.339844 68.953125 291.089844 69.695312 292.296875 L 95.351562 334.066406 C 95.898438 334.960938 95.921875 336.039062 95.410156 336.949219 C 94.898438 337.863281 93.972656 338.410156 92.925781 338.410156 " fill-opacity="1" fill-rule="nonzero"/></g></g><g clip-path="url(#6d8e06c524)"><g clip-path="url(#4c726feb07)"><path fill="#95c251" d="M 38.402344 337.761719 L 93.300781 337.761719 L 64.574219 290.988281 L 9.675781 290.988281 L 38.402344 337.761719 " fill-opacity="1" fill-rule="nonzero"/></g></g><g clip-path="url(#ea96934782)"><g clip-path="url(#60be834038)"><path fill="#000000" d="M 38.765625 337.113281 L 92.144531 337.113281 L 64.210938 291.636719 L 10.832031 291.636719 Z M 93.300781 338.410156 L 38.402344 338.410156 C 38.175781 338.410156 37.96875 338.289062 37.851562 338.101562 L 9.121094 291.328125 C 9 291.125 8.992188 290.875 9.109375 290.671875 C 9.222656 290.464844 9.441406 290.339844 9.675781 290.339844 L 64.574219 290.339844 C 64.796875 290.339844 65.007812 290.457031 65.125 290.648438 L 93.855469 337.421875 C 93.976562 337.621094 93.980469 337.875 93.867188 338.078125 C 93.753906 338.28125 93.535156 338.410156 93.300781 338.410156 " fill-opacity="1" fill-rule="nonzero"/></g></g><g clip-path="url(#9c65adeccd)"><g clip-path="url(#94411e49ac)"><path fill="#ffffff" d="M 37.140625 335.707031 C 37.140625 335.707031 38.171875 330.300781 37.140625 326.695312 C 36.109375 323.085938 29.710938 312.359375 27.882812 310.117188 C 26.054688 307.871094 24.507812 331.839844 37.140625 335.707031 " fill-opacity="1" fill-rule="nonzero"/></g></g><g clip-path="url(#d1e3e74f2b)"><g clip-path="url(#18d9d8aaaf)"><path fill="#000000" d="M 27.714844 310.960938 C 27.183594 312.707031 26.898438 318.664062 28.613281 324.527344 C 29.714844 328.292969 31.996094 333.050781 36.625 334.839844 C 36.855469 333.265625 37.273438 329.519531 36.519531 326.871094 C 35.589844 323.632812 29.882812 313.90625 27.714844 310.960938 Z M 37.140625 336.355469 C 37.078125 336.355469 37.011719 336.34375 36.949219 336.324219 C 29.269531 333.972656 26.273438 324.382812 26.03125 316.191406 C 25.984375 314.722656 25.953125 309.894531 27.34375 309.375 C 27.714844 309.238281 28.105469 309.359375 28.386719 309.707031 C 30.324219 312.082031 36.726562 322.886719 37.765625 326.515625 C 38.824219 330.226562 37.820312 335.601562 37.777344 335.828125 C 37.742188 336.007812 37.632812 336.167969 37.476562 336.261719 C 37.375 336.324219 37.257812 336.355469 37.140625 336.355469 " fill-opacity="1" fill-rule="nonzero"/></g></g><g clip-path="url(#e2a41cb868)"><g clip-path="url(#56cf8034fa)"><path fill="#ffffff" d="M 96.496094 244.988281 C 94.90625 245.785156 92.984375 245.476562 91.730469 244.222656 C 90.289062 242.777344 89.128906 241.242188 88.183594 239.691406 L 86.367188 239.730469 C 85.789062 239.742188 85.304688 239.289062 85.277344 238.707031 L 84.964844 231.617188 C 80.789062 224.804688 84.078125 221.152344 84.078125 221.152344 C 84.386719 217.660156 93.207031 215.578125 98.148438 222.308594 C 101.5 226.878906 106.320312 222.308594 106.320312 222.308594 C 106.320312 222.308594 108.847656 215.503906 111.800781 219.691406 C 114.753906 223.878906 108.898438 231.242188 108.898438 231.242188 L 113.269531 249.875 C 114.28125 254.175781 117.355469 257.695312 121.476562 259.277344 L 125.679688 260.886719 C 125.679688 260.886719 119.117188 282.390625 100.527344 281.988281 C 86.339844 281.6875 92.457031 262.511719 92.457031 262.511719 L 94.320312 261.691406 C 99.195312 259.539062 101.867188 254.234375 100.6875 249.03125 L 99.441406 243.511719 L 96.496094 244.988281 " fill-opacity="1" fill-rule="nonzero"/></g></g><g clip-path="url(#280c31138a)"><g clip-path="url(#a15f0582f3)"><path fill="#000000" d="M 97.953125 245.550781 C 97.710938 245.550781 97.480469 245.414062 97.371094 245.183594 C 97.214844 244.863281 97.347656 244.472656 97.667969 244.316406 C 102.507812 241.964844 103.007812 236 103.011719 235.941406 C 103.039062 235.582031 103.34375 235.3125 103.703125 235.339844 C 104.0625 235.367188 104.328125 235.675781 104.304688 236.035156 C 104.285156 236.308594 103.753906 242.800781 98.234375 245.484375 C 98.144531 245.527344 98.046875 245.550781 97.953125 245.550781 " fill-opacity="1" fill-rule="nonzero"/></g></g><g clip-path="url(#0e6025ece4)"><g clip-path="url(#42fea79152)"><path fill="#1d5f31" d="M 334.527344 179.511719 L 325.539062 171.464844 C 324.109375 170.179688 321.898438 170.371094 320.691406 171.859375 C 290.839844 208.558594 248.792969 218.988281 235.480469 221.460938 C 232.839844 221.953125 230.113281 221.628906 227.65625 220.546875 L 223.085938 218.53125 L 205.257812 220.8125 L 202.097656 223.988281 C 198.226562 227.878906 193.464844 230.765625 188.222656 232.398438 L 185.242188 233.328125 C 185.242188 233.328125 172.25 238.992188 164.578125 247.167969 C 157.945312 254.242188 145.050781 292.660156 158.4375 316.152344 C 161.160156 320.929688 166.671875 323.390625 172.035156 322.183594 C 177.9375 320.855469 182.445312 319.59375 186.988281 314.539062 C 187.46875 314 178.425781 381.488281 178.425781 381.488281 C 210.429688 399.488281 277.566406 387.207031 277.566406 387.207031 C 270.136719 355.652344 259.488281 292.183594 259.664062 276.90625 C 259.800781 265.097656 266.488281 254.308594 277.042969 248.980469 C 316.222656 229.214844 331.984375 192.433594 335.429688 183.164062 C 335.910156 181.878906 335.550781 180.433594 334.527344 179.511719 " fill-opacity="1" fill-rule="nonzero"/></g></g><g clip-path="url(#630773b3af)"><g clip-path="url(#387d857a60)"><path fill="#000000" d="M 211.863281 252.109375 C 211.832031 252.109375 211.800781 252.105469 211.769531 252.101562 C 211.417969 252.050781 211.171875 251.722656 211.222656 251.367188 L 213.011719 239.121094 C 213.0625 238.769531 213.390625 238.523438 213.746094 238.574219 C 214.097656 238.625 214.34375 238.953125 214.292969 239.308594 L 212.503906 251.554688 C 212.460938 251.875 212.183594 252.109375 211.863281 252.109375 " fill-opacity="1" fill-rule="nonzero"/></g></g><g clip-path="url(#b20b3c434b)"><g clip-path="url(#8d77fd8400)"><path fill="#000000" d="M 217.324219 237.101562 C 217.4375 236.304688 218.175781 235.753906 218.972656 235.871094 C 219.769531 235.984375 220.320312 236.722656 220.207031 237.515625 C 220.089844 238.308594 219.351562 238.859375 218.558594 238.746094 C 217.761719 238.628906 217.210938 237.894531 217.324219 237.101562 " fill-opacity="1" fill-rule="nonzero"/></g></g><g clip-path="url(#aa385d5e0c)"><g clip-path="url(#6f8d588e97)"><path fill="#ffffff" d="M 324.894531 173.410156 C 324.617188 172.671875 324.734375 171.847656 325.222656 171.230469 C 325.875 170.417969 326.964844 169.035156 328.542969 166.992188 C 331.324219 163.394531 334.375 156.710938 337.695312 154.230469 C 341.011719 151.753906 353.277344 143.964844 355.617188 144.648438 C 357.953125 145.332031 357.390625 148.03125 354.660156 150.074219 C 351.929688 152.113281 348.296875 154.371094 348.296875 154.371094 C 348.296875 154.371094 350.464844 153.8125 352.582031 156.03125 C 354.699219 158.25 352.65625 159.710938 353.847656 160.78125 C 355.378906 162.152344 355.382812 164.089844 354.582031 165.097656 C 352.757812 167.394531 349.375 164.222656 348.140625 168.429688 C 347.285156 171.355469 344.371094 173.71875 338.019531 176.273438 C 336.3125 176.960938 334.757812 177.96875 333.417969 179.226562 C 332.863281 179.742188 332.070312 179.933594 331.347656 179.691406 C 329.597656 179.113281 326.449219 177.53125 324.894531 173.410156 " fill-opacity="1" fill-rule="nonzero"/></g></g><g clip-path="url(#e0b5ef2c4c)"><g clip-path="url(#d98cbf1b89)"><path fill="#000000" d="M 325.5 173.179688 C 326.960938 177.050781 329.917969 178.535156 331.554688 179.078125 C 332.042969 179.238281 332.589844 179.113281 332.976562 178.753906 C 334.40625 177.414062 336.019531 176.375 337.777344 175.675781 C 343.792969 173.253906 346.703125 171.035156 347.523438 168.25 C 348.371094 165.363281 350.296875 165.382812 351.699219 165.398438 C 352.816406 165.414062 353.523438 165.386719 354.078125 164.695312 C 354.710938 163.898438 354.636719 162.359375 353.417969 161.265625 C 352.648438 160.574219 352.773438 159.742188 352.875 159.074219 C 352.996094 158.277344 353.109375 157.519531 352.113281 156.476562 C 350.308594 154.585938 348.523438 154.980469 348.453125 154.996094 C 348.144531 155.070312 347.824219 154.910156 347.699219 154.617188 C 347.578125 154.324219 347.683594 153.988281 347.953125 153.816406 C 347.992188 153.796875 351.597656 151.550781 354.273438 149.550781 C 355.949219 148.304688 356.554688 146.960938 356.417969 146.179688 C 356.335938 145.742188 356.007812 145.4375 355.433594 145.269531 C 353.671875 144.753906 342.574219 151.394531 338.082031 154.75 C 336.074219 156.253906 334.121094 159.449219 332.234375 162.539062 C 331.128906 164.347656 330.085938 166.054688 329.054688 167.386719 C 327.464844 169.445312 326.371094 170.832031 325.730469 171.636719 C 325.386719 172.066406 325.300781 172.648438 325.5 173.179688 Z M 331.988281 180.441406 C 331.703125 180.441406 331.421875 180.398438 331.144531 180.304688 C 329.292969 179.695312 325.9375 178.011719 324.289062 173.636719 C 323.929688 172.6875 324.09375 171.609375 324.71875 170.828125 C 325.355469 170.027344 326.449219 168.648438 328.03125 166.59375 C 329.019531 165.320312 330.042969 163.640625 331.128906 161.863281 C 333.078125 158.667969 335.09375 155.367188 337.308594 153.714844 C 338.722656 152.65625 352.75 143.128906 355.796875 144.023438 C 356.851562 144.332031 357.523438 145.019531 357.691406 145.953125 C 357.949219 147.402344 356.941406 149.179688 355.050781 150.59375 C 353.488281 151.757812 351.625 153 350.304688 153.855469 C 351.132812 154.089844 352.097656 154.585938 353.050781 155.582031 C 354.484375 157.085938 354.289062 158.398438 354.15625 159.269531 C 354.058594 159.910156 354.058594 160.097656 354.28125 160.296875 C 356.066406 161.898438 356.089844 164.246094 355.089844 165.5 C 354.113281 166.726562 352.765625 166.710938 351.683594 166.699219 C 350.269531 166.679688 349.335938 166.667969 348.765625 168.613281 C 347.824219 171.820312 344.679688 174.292969 338.261719 176.875 C 336.65625 177.519531 335.175781 178.472656 333.863281 179.699219 C 333.34375 180.1875 332.671875 180.441406 331.988281 180.441406 " fill-opacity="1" fill-rule="nonzero"/></g></g><g clip-path="url(#cb9130a47e)"><g clip-path="url(#243892297c)"><path fill="#ffffff" d="M 222.3125 319.003906 L 189.019531 323.878906 C 187.625 324.082031 186.332031 323.121094 186.125 321.730469 L 179.613281 277.503906 C 179.40625 276.113281 180.371094 274.820312 181.765625 274.617188 L 215.058594 269.742188 C 216.449219 269.539062 217.746094 270.5 217.949219 271.890625 L 224.460938 316.117188 C 224.667969 317.507812 223.703125 318.800781 222.3125 319.003906 " fill-opacity="1" fill-rule="nonzero"/></g></g><g clip-path="url(#03b490b76a)"><g clip-path="url(#7ccc61ed39)"><path fill="#1d5f31" d="M 197.914062 315.738281 L 194.46875 316.242188 C 193.964844 316.316406 193.496094 315.96875 193.421875 315.464844 L 192.933594 312.175781 C 192.863281 311.671875 193.210938 311.203125 193.714844 311.128906 L 197.160156 310.625 C 197.664062 310.550781 198.132812 310.898438 198.207031 311.402344 L 198.691406 314.695312 C 198.765625 315.195312 198.417969 315.664062 197.914062 315.738281 " fill-opacity="1" fill-rule="nonzero"/></g></g><g clip-path="url(#8741b7633a)"><g clip-path="url(#bcc4230ff6)"><path fill="#1d5f31" d="M 205.890625 314.464844 L 202.441406 314.96875 C 201.9375 315.042969 201.46875 314.695312 201.394531 314.191406 L 199.769531 303.152344 C 199.695312 302.652344 200.042969 302.183594 200.546875 302.109375 L 203.992188 301.605469 C 204.496094 301.53125 204.96875 301.878906 205.042969 302.382812 L 206.667969 313.417969 C 206.742188 313.921875 206.390625 314.390625 205.890625 314.464844 " fill-opacity="1" fill-rule="nonzero"/></g></g><g clip-path="url(#2a74cf9d42)"><g clip-path="url(#9ac09c4ae0)"><path fill="#1d5f31" d="M 213.882812 313.320312 L 210.433594 313.824219 C 209.929688 313.894531 209.464844 313.546875 209.390625 313.046875 L 204.769531 281.671875 C 204.695312 281.167969 205.042969 280.699219 205.546875 280.625 L 208.996094 280.121094 C 209.496094 280.050781 209.964844 280.398438 210.042969 280.902344 L 214.660156 312.273438 C 214.734375 312.777344 214.386719 313.242188 213.882812 313.320312 " fill-opacity="1" fill-rule="nonzero"/></g></g><g clip-path="url(#154576d9f5)"><g clip-path="url(#34c3f0eb41)"><path fill="#ffffff" d="M 177.121094 286.355469 C 179.199219 284.550781 180.574219 284.496094 180.574219 284.496094 L 181.195312 288.261719 C 181.195312 288.261719 193.714844 277.414062 198.074219 285.800781 C 200.789062 291.019531 188.042969 298.183594 184.058594 302.886719 C 181.828125 305.523438 178.453125 309.375 174.253906 308.4375 C 171.304688 307.777344 170.121094 306.570312 169.675781 304.125 C 169.09375 300.914062 172.417969 298.425781 172.824219 294.429688 C 173.3125 289.671875 174.539062 288.601562 177.121094 286.355469 " fill-opacity="1" fill-rule="nonzero"/></g></g><g clip-path="url(#67e97593a8)"><g clip-path="url(#1a350d2f55)"><path fill="#000000" d="M 177.546875 286.84375 C 174.988281 289.066406 173.929688 289.988281 173.46875 294.496094 C 173.265625 296.476562 172.394531 298.109375 171.625 299.550781 C 170.777344 301.140625 170.042969 302.511719 170.3125 304.007812 C 170.722656 306.257812 171.75 307.214844 174.394531 307.804688 C 178.304688 308.679688 181.597656 304.792969 183.566406 302.46875 C 184.820312 300.984375 186.882812 299.296875 189.066406 297.507812 C 193.789062 293.640625 199.140625 289.257812 197.5 286.097656 C 196.695312 284.546875 195.570312 283.652344 194.070312 283.367188 C 189.019531 282.398438 181.695312 288.683594 181.621094 288.75 C 181.445312 288.902344 181.199219 288.949219 180.976562 288.867188 C 180.757812 288.789062 180.597656 288.59375 180.558594 288.367188 L 180.046875 285.285156 C 179.519531 285.46875 178.644531 285.890625 177.546875 286.84375 Z M 175.5625 309.234375 C 175.089844 309.234375 174.605469 309.183594 174.109375 309.070312 C 170.964844 308.367188 169.539062 307.011719 169.039062 304.242188 C 168.6875 302.300781 169.558594 300.667969 170.484375 298.941406 C 171.230469 297.542969 172.003906 296.09375 172.179688 294.363281 C 172.691406 289.347656 174.113281 288.109375 176.695312 285.867188 C 178.882812 283.964844 180.382812 283.855469 180.550781 283.851562 C 180.882812 283.835938 181.160156 284.070312 181.210938 284.390625 L 181.65625 287.050781 C 183.859375 285.328125 189.710938 281.214844 194.3125 282.089844 C 196.203125 282.453125 197.664062 283.601562 198.648438 285.5 C 200.777344 289.59375 194.992188 294.332031 189.886719 298.511719 C 187.753906 300.261719 185.734375 301.914062 184.554688 303.308594 C 182.628906 305.582031 179.539062 309.234375 175.5625 309.234375 " fill-opacity="1" fill-rule="nonzero"/></g></g><g clip-path="url(#4808426c8f)"><g clip-path="url(#6a8f557b56)"><path fill="#ffffff" d="M 218.324219 263.445312 C 218.214844 263.445312 218.109375 263.417969 218.011719 263.363281 C 217.699219 263.191406 217.582031 262.796875 217.753906 262.480469 L 222.691406 253.496094 C 222.863281 253.183594 223.257812 253.070312 223.574219 253.242188 C 223.886719 253.414062 224 253.808594 223.828125 254.125 L 218.890625 263.105469 C 218.773438 263.324219 218.550781 263.445312 218.324219 263.445312 " fill-opacity="1" fill-rule="nonzero"/></g></g><g clip-path="url(#5f3f5657f6)"><g clip-path="url(#b54ee0b2a1)"><path fill="#ffffff" d="M 221.632812 267.859375 C 221.425781 267.859375 221.222656 267.761719 221.097656 267.578125 C 220.894531 267.28125 220.972656 266.878906 221.265625 266.675781 L 238.441406 254.910156 C 238.738281 254.707031 239.140625 254.785156 239.339844 255.078125 C 239.542969 255.375 239.46875 255.777344 239.171875 255.980469 L 221.996094 267.746094 C 221.886719 267.820312 221.757812 267.859375 221.632812 267.859375 " fill-opacity="1" fill-rule="nonzero"/></g></g><g clip-path="url(#69be692017)"><g clip-path="url(#00e5205be8)"><path fill="#ffffff" d="M 217.671875 231.523438 L 214.726562 232.015625 C 214.296875 232.089844 213.863281 239.816406 213.441406 239.820312 C 210.09375 239.824219 199.773438 238.394531 203.886719 229.066406 C 205.070312 226.386719 205.425781 223.40625 204.9375 220.515625 L 202.785156 207.753906 L 220.996094 204.703125 L 224.015625 222.625 C 224.726562 226.832031 221.886719 230.816406 217.671875 231.523438 " fill-opacity="1" fill-rule="nonzero"/></g></g><g clip-path="url(#1484dbefc6)"><g clip-path="url(#3f706c71f1)"><path fill="#000000" d="M 203.53125 208.285156 L 205.578125 220.40625 C 206.089844 223.453125 205.710938 226.539062 204.480469 229.332031 C 203.339844 231.921875 203.285156 234.042969 204.332031 235.644531 C 206.058594 238.289062 210.40625 239.089844 213.011719 239.164062 C 213.144531 238.5 213.3125 237.011719 213.4375 235.875 C 213.867188 231.992188 213.945312 231.492188 214.617188 231.378906 L 217.566406 230.886719 C 219.433594 230.570312 221.066406 229.550781 222.164062 228.011719 C 223.261719 226.46875 223.695312 224.59375 223.378906 222.730469 L 220.464844 205.449219 Z M 213.425781 240.46875 C 212.585938 240.46875 205.851562 240.339844 203.246094 236.351562 C 201.945312 234.363281 201.960938 231.824219 203.292969 228.808594 C 204.421875 226.25 204.769531 223.417969 204.300781 220.621094 L 202.148438 207.863281 C 202.117188 207.691406 202.160156 207.519531 202.257812 207.378906 C 202.355469 207.238281 202.507812 207.144531 202.679688 207.117188 L 220.886719 204.0625 C 221.238281 204 221.574219 204.242188 221.632812 204.59375 L 224.65625 222.515625 C 225.027344 224.722656 224.515625 226.941406 223.21875 228.765625 C 221.917969 230.585938 219.988281 231.792969 217.777344 232.164062 L 215.171875 232.601562 C 215.03125 233.226562 214.855469 234.8125 214.722656 236.015625 C 214.296875 239.871094 214.234375 240.464844 213.441406 240.46875 C 213.4375 240.46875 213.433594 240.46875 213.425781 240.46875 " fill-opacity="1" fill-rule="nonzero"/></g></g><g clip-path="url(#7c607ce9b5)"><g clip-path="url(#034f11ef3c)"><path fill="#ffffff" d="M 223.519531 211.363281 L 203.972656 214.644531 L 201.105469 197.644531 C 199.941406 190.742188 204.601562 184.210938 211.507812 183.054688 L 219.828125 181.65625 C 222.144531 181.269531 224.335938 182.828125 224.726562 185.140625 L 228.074219 204.976562 C 228.582031 208 226.542969 210.859375 223.519531 211.363281 " fill-opacity="1" fill-rule="nonzero"/></g></g><g clip-path="url(#30c46726c0)"><g clip-path="url(#366cd46e16)"><path fill="#000000" d="M 203.972656 215.289062 C 203.660156 215.289062 203.386719 215.066406 203.335938 214.75 L 200.464844 197.75 C 199.875 194.242188 200.6875 190.714844 202.753906 187.820312 C 204.816406 184.921875 207.890625 183.003906 211.402344 182.414062 L 219.722656 181.019531 C 222.382812 180.570312 224.917969 182.371094 225.363281 185.03125 L 228.710938 204.871094 C 228.984375 206.503906 228.609375 208.140625 227.648438 209.488281 C 226.6875 210.835938 225.261719 211.730469 223.628906 212.003906 L 216.558594 213.1875 C 214.164062 213.589844 211.753906 213.484375 209.402344 212.871094 C 209.054688 212.78125 208.847656 212.425781 208.9375 212.082031 C 209.027344 211.734375 209.382812 211.523438 209.730469 211.617188 C 211.902344 212.183594 214.128906 212.28125 216.34375 211.910156 L 223.414062 210.722656 C 224.703125 210.507812 225.835938 209.800781 226.59375 208.738281 C 227.351562 207.671875 227.652344 206.375 227.433594 205.085938 L 224.085938 185.246094 C 223.757812 183.289062 221.894531 181.96875 219.9375 182.296875 L 211.617188 183.691406 C 208.445312 184.222656 205.671875 185.957031 203.808594 188.570312 C 201.945312 191.183594 201.210938 194.371094 201.746094 197.535156 L 204.613281 214.535156 C 204.671875 214.886719 204.433594 215.222656 204.082031 215.28125 C 204.042969 215.285156 204.007812 215.289062 203.972656 215.289062 " fill-opacity="1" fill-rule="nonzero"/></g></g><g clip-path="url(#ff151f229c)"><g clip-path="url(#ace5c409b5)"><path fill="#000000" d="M 202.933594 207.59375 L 198.980469 202.605469 C 197.664062 200.945312 196.742188 198.996094 196.308594 196.921875 C 196.304688 196.886719 196.296875 196.855469 196.289062 196.820312 C 195.65625 193.734375 195.550781 190.546875 196.167969 187.453125 C 198.125 177.644531 205.480469 174.738281 212.261719 175.847656 C 212.277344 175.855469 212.296875 175.855469 212.316406 175.859375 C 214.765625 176.261719 217.261719 175.460938 219.027344 173.71875 L 220.9375 171.839844 C 222.261719 170.535156 224.476562 170.777344 225.445312 172.371094 C 226.679688 174.402344 227.722656 177.382812 226.417969 180.710938 L 224.933594 183.5625 L 208.898438 185.988281 C 207.539062 186.199219 206.53125 187.355469 206.507812 188.726562 L 206.394531 195.738281 C 206.386719 196.113281 206.113281 196.433594 205.742188 196.5 L 204.125 196.792969 L 201.28125 196.015625 L 202.933594 207.59375 " fill-opacity="1" fill-rule="nonzero"/></g></g><g clip-path="url(#5a5cf714e2)"><g clip-path="url(#ecc75b4ebe)"><path fill="#ffffff" d="M 204.125 196.792969 L 202.875 195.808594 C 201.847656 195 200.351562 195.191406 199.566406 196.234375 C 199.023438 196.960938 198.949219 197.933594 199.378906 198.734375 L 200.136719 200.140625 C 200.773438 201.328125 201.753906 202.292969 202.941406 202.917969 L 204.371094 203.664062 L 204.125 196.792969 " fill-opacity="1" fill-rule="nonzero"/></g></g><path fill="#000000" d="M 313.359375 324.800781 C 313.191406 324.800781 313.027344 324.738281 312.902344 324.613281 C 312.644531 324.359375 312.644531 323.949219 312.902344 323.695312 L 321.988281 314.609375 C 322.242188 314.355469 322.652344 314.355469 322.90625 314.609375 C 323.15625 314.859375 323.15625 315.269531 322.90625 315.523438 L 313.816406 324.613281 C 313.691406 324.738281 313.523438 324.800781 313.359375 324.800781 " fill-opacity="1" fill-rule="nonzero"/><path fill="#000000" d="M 270.292969 65.289062 C 270.128906 65.289062 269.960938 65.226562 269.835938 65.097656 C 269.582031 64.847656 269.582031 64.4375 269.835938 64.183594 L 301.019531 33 C 304.695312 29.324219 310.679688 29.324219 314.355469 33 C 315.894531 34.539062 317.933594 35.386719 320.109375 35.386719 C 322.28125 35.386719 324.324219 34.539062 325.863281 33 L 336.253906 22.609375 C 336.503906 22.359375 336.914062 22.359375 337.167969 22.609375 C 337.421875 22.867188 337.421875 23.273438 337.167969 23.527344 L 326.777344 33.917969 C 324.996094 35.699219 322.625 36.679688 320.109375 36.679688 C 317.589844 36.679688 315.222656 35.699219 313.441406 33.917969 C 310.269531 30.746094 305.105469 30.746094 301.9375 33.917969 L 270.753906 65.097656 C 270.628906 65.226562 270.460938 65.289062 270.292969 65.289062 " fill-opacity="1" fill-rule="nonzero"/><path fill="#ffffff" d="M 313.359375 304.210938 C 313.191406 304.210938 313.027344 304.148438 312.898438 304.019531 C 312.648438 303.769531 312.648438 303.359375 312.898438 303.105469 L 357.878906 258.128906 C 358.132812 257.875 358.542969 257.875 358.796875 258.128906 C 359.046875 258.382812 359.046875 258.792969 358.796875 259.042969 L 313.816406 304.019531 C 313.691406 304.148438 313.527344 304.210938 313.359375 304.210938 " fill-opacity="1" fill-rule="nonzero"/><path fill="#ffffff" d="M 223.550781 93.488281 C 223.382812 93.488281 223.21875 93.425781 223.089844 93.300781 C 222.835938 93.046875 222.835938 92.636719 223.089844 92.382812 L 279.496094 35.984375 C 279.746094 35.726562 280.15625 35.726562 280.410156 35.984375 C 280.664062 36.234375 280.664062 36.644531 280.410156 36.898438 L 224.007812 93.300781 C 223.882812 93.425781 223.714844 93.488281 223.550781 93.488281 " fill-opacity="1" fill-rule="nonzero"/><path fill="#000000" d="M 30.625 268.472656 C 30.457031 268.472656 30.292969 268.410156 30.164062 268.285156 C 29.910156 268.03125 29.910156 267.621094 30.164062 267.367188 L 69.660156 227.875 C 69.910156 227.621094 70.320312 227.621094 70.574219 227.875 C 70.828125 228.125 70.828125 228.535156 70.574219 228.789062 L 31.082031 268.285156 C 30.957031 268.410156 30.789062 268.472656 30.625 268.472656 " fill-opacity="1" fill-rule="nonzero"/><path fill="#000000" d="M 20.507812 269.394531 C 20.34375 269.394531 20.175781 269.332031 20.050781 269.207031 C 19.796875 268.953125 19.796875 268.542969 20.050781 268.289062 L 40.28125 248.058594 C 40.535156 247.804688 40.945312 247.804688 41.195312 248.058594 C 41.449219 248.3125 41.449219 248.722656 41.195312 248.976562 L 20.964844 269.207031 C 20.839844 269.332031 20.675781 269.394531 20.507812 269.394531 " fill-opacity="1" fill-rule="nonzero"/><path fill="#ffffff" d="M 206.449219 58.605469 C 206.097656 58.605469 205.808594 58.324219 205.804688 57.96875 C 205.765625 55.96875 206.273438 54.550781 207.304688 53.75 C 208.0625 53.164062 208.785156 53.148438 209.421875 53.136719 C 209.90625 53.128906 210.328125 53.117188 210.78125 52.867188 C 211.640625 52.386719 211.808594 51.433594 212.007812 50.328125 C 212.210938 49.179688 212.445312 47.878906 213.546875 46.992188 C 214.894531 45.914062 216.460938 46.304688 217.84375 46.652344 C 219.070312 46.960938 220.230469 47.253906 221.226562 46.625 C 222.367188 45.910156 222.5625 44.441406 222.769531 42.886719 C 222.996094 41.179688 223.25 39.25 224.929688 38.222656 C 226.332031 37.363281 227.804688 37.683594 229.109375 37.96875 C 230.210938 38.207031 231.167969 38.414062 231.863281 37.882812 C 232.878906 37.109375 233.089844 35.058594 232.480469 31.949219 C 232.40625 31.597656 232.636719 31.257812 232.988281 31.1875 C 233.339844 31.121094 233.679688 31.347656 233.75 31.699219 C 234.484375 35.429688 234.125 37.789062 232.648438 38.914062 C 231.476562 39.808594 230.070312 39.503906 228.832031 39.234375 C 227.664062 38.980469 226.5625 38.738281 225.605469 39.328125 C 224.457031 40.03125 224.261719 41.5 224.054688 43.058594 C 223.824219 44.757812 223.570312 46.683594 221.917969 47.722656 C 220.453125 48.640625 218.898438 48.253906 217.527344 47.910156 C 216.28125 47.597656 215.203125 47.324219 214.355469 48.003906 C 213.632812 48.585938 213.464844 49.542969 213.28125 50.554688 C 213.058594 51.804688 212.808594 53.21875 211.40625 54 C 210.675781 54.40625 209.996094 54.421875 209.449219 54.433594 C 208.910156 54.445312 208.519531 54.453125 208.101562 54.773438 C 207.40625 55.3125 207.070312 56.375 207.097656 57.945312 C 207.105469 58.304688 206.820312 58.597656 206.464844 58.605469 C 206.460938 58.605469 206.457031 58.605469 206.449219 58.605469 " fill-opacity="1" fill-rule="nonzero"/><path fill="#ffffff" d="M 240.230469 25.578125 C 239.332031 25.578125 238.542969 26.238281 238.40625 27.15625 C 238.335938 27.640625 238.453125 28.128906 238.75 28.523438 C 239.042969 28.917969 239.472656 29.179688 239.960938 29.25 C 240.449219 29.324219 240.933594 29.199219 241.332031 28.910156 C 241.726562 28.613281 241.984375 28.1875 242.054688 27.695312 C 242.128906 27.207031 242.007812 26.722656 241.714844 26.328125 C 241.421875 25.929688 240.992188 25.671875 240.503906 25.597656 C 240.410156 25.585938 240.320312 25.578125 240.230469 25.578125 Z M 240.238281 30.566406 C 240.082031 30.566406 239.925781 30.554688 239.769531 30.535156 C 238.941406 30.410156 238.207031 29.96875 237.707031 29.292969 C 237.207031 28.621094 237 27.792969 237.125 26.960938 C 237.378906 25.25 238.980469 24.0625 240.695312 24.316406 C 241.523438 24.441406 242.257812 24.878906 242.753906 25.554688 C 243.253906 26.230469 243.464844 27.058594 243.339844 27.886719 C 243.214844 28.71875 242.777344 29.449219 242.101562 29.949219 C 241.554688 30.355469 240.90625 30.566406 240.238281 30.566406 " fill-opacity="1" fill-rule="nonzero"/><path fill="#000000" d="M 17.117188 195.800781 C 16.765625 195.800781 16.476562 195.519531 16.46875 195.164062 C 16.433594 193.164062 16.9375 191.742188 17.972656 190.945312 C 18.726562 190.359375 19.449219 190.34375 20.085938 190.332031 C 20.574219 190.320312 20.992188 190.3125 21.445312 190.0625 C 22.304688 189.582031 22.476562 188.628906 22.671875 187.519531 C 22.875 186.375 23.105469 185.074219 24.210938 184.1875 C 25.558594 183.105469 27.125 183.5 28.507812 183.847656 C 29.734375 184.152344 30.894531 184.445312 31.890625 183.820312 C 33.03125 183.105469 33.226562 181.636719 33.433594 180.082031 C 33.660156 178.378906 33.917969 176.441406 35.59375 175.417969 C 36.996094 174.558594 38.46875 174.878906 39.769531 175.164062 C 40.875 175.402344 41.832031 175.613281 42.527344 175.078125 C 43.542969 174.304688 43.753906 172.253906 43.140625 169.144531 C 43.074219 168.792969 43.300781 168.453125 43.652344 168.382812 C 44.003906 168.3125 44.34375 168.542969 44.414062 168.894531 C 45.148438 172.625 44.789062 174.984375 43.316406 176.109375 C 42.140625 177.003906 40.734375 176.699219 39.496094 176.429688 C 38.328125 176.175781 37.226562 175.9375 36.269531 176.523438 C 35.121094 177.226562 34.925781 178.695312 34.71875 180.253906 C 34.492188 181.953125 34.234375 183.878906 32.582031 184.917969 C 31.117188 185.839844 29.5625 185.445312 28.191406 185.105469 C 26.945312 184.792969 25.867188 184.519531 25.023438 185.199219 C 24.296875 185.78125 24.128906 186.738281 23.945312 187.75 C 23.726562 189 23.472656 190.414062 22.074219 191.195312 C 21.339844 191.601562 20.660156 191.617188 20.113281 191.628906 C 19.574219 191.640625 19.183594 191.648438 18.765625 191.96875 C 18.070312 192.507812 17.734375 193.574219 17.765625 195.140625 C 17.769531 195.5 17.484375 195.792969 17.128906 195.800781 C 17.125 195.800781 17.121094 195.800781 17.117188 195.800781 " fill-opacity="1" fill-rule="nonzero"/><path fill="#000000" d="M 332.167969 256.550781 C 331.816406 256.550781 331.527344 256.265625 331.519531 255.914062 C 331.484375 253.914062 331.988281 252.496094 333.023438 251.695312 C 333.78125 251.109375 334.503906 251.097656 335.140625 251.082031 C 335.625 251.074219 336.042969 251.0625 336.496094 250.8125 C 337.359375 250.332031 337.527344 249.378906 337.722656 248.273438 C 337.925781 247.125 338.160156 245.824219 339.265625 244.9375 C 340.613281 243.855469 342.179688 244.25 343.558594 244.597656 C 344.789062 244.90625 345.949219 245.195312 346.945312 244.570312 C 348.082031 243.851562 348.277344 242.386719 348.484375 240.832031 C 348.710938 239.125 348.972656 237.195312 350.644531 236.167969 C 352.046875 235.308594 353.523438 235.628906 354.820312 235.910156 C 355.929688 236.152344 356.882812 236.359375 357.582031 235.828125 C 358.59375 235.054688 358.804688 233.003906 358.195312 229.894531 C 358.125 229.542969 358.355469 229.203125 358.707031 229.132812 C 359.058594 229.0625 359.394531 229.292969 359.464844 229.644531 C 360.199219 233.375 359.839844 235.734375 358.367188 236.859375 C 357.191406 237.753906 355.789062 237.449219 354.546875 237.179688 C 353.382812 236.925781 352.28125 236.683594 351.320312 237.273438 C 350.175781 237.976562 349.976562 239.445312 349.769531 241.003906 C 349.542969 242.703125 349.289062 244.625 347.636719 245.667969 C 346.171875 246.585938 344.617188 246.199219 343.246094 245.851562 C 342 245.539062 340.921875 245.269531 340.074219 245.949219 C 339.351562 246.53125 339.179688 247.484375 339 248.5 C 338.777344 249.746094 338.527344 251.167969 337.125 251.945312 C 336.390625 252.351562 335.710938 252.367188 335.167969 252.378906 C 334.625 252.390625 334.234375 252.398438 333.816406 252.722656 C 333.125 253.253906 332.789062 254.324219 332.8125 255.890625 C 332.824219 256.246094 332.539062 256.542969 332.179688 256.550781 C 332.175781 256.550781 332.171875 256.550781 332.167969 256.550781 " fill-opacity="1" fill-rule="nonzero"/><path fill="#000000" d="M 353.605469 129 C 353.246094 129 352.957031 128.710938 352.957031 128.355469 L 352.957031 125.003906 C 352.957031 124.644531 353.246094 124.355469 353.605469 124.355469 C 353.960938 124.355469 354.253906 124.644531 354.253906 125.003906 L 354.253906 128.355469 C 354.253906 128.710938 353.960938 129 353.605469 129 " fill-opacity="1" fill-rule="nonzero"/><path fill="#000000" d="M 353.605469 136.808594 C 353.246094 136.808594 352.957031 136.519531 352.957031 136.160156 L 352.957031 132.808594 C 352.957031 132.453125 353.246094 132.164062 353.605469 132.164062 C 353.960938 132.164062 354.253906 132.453125 354.253906 132.808594 L 354.253906 136.160156 C 354.253906 136.519531 353.960938 136.808594 353.605469 136.808594 " fill-opacity="1" fill-rule="nonzero"/><path fill="#000000" d="M 351.375 131.230469 L 348.027344 131.230469 C 347.664062 131.230469 347.375 130.941406 347.375 130.582031 C 347.375 130.226562 347.664062 129.9375 348.027344 129.9375 L 351.375 129.9375 C 351.734375 129.9375 352.023438 130.226562 352.023438 130.582031 C 352.023438 130.941406 351.734375 131.230469 351.375 131.230469 " fill-opacity="1" fill-rule="nonzero"/><path fill="#000000" d="M 359.183594 131.230469 L 355.832031 131.230469 C 355.476562 131.230469 355.183594 130.941406 355.183594 130.582031 C 355.183594 130.226562 355.476562 129.9375 355.832031 129.9375 L 359.183594 129.9375 C 359.542969 129.9375 359.832031 130.226562 359.832031 130.582031 C 359.832031 130.941406 359.542969 131.230469 359.183594 131.230469 " fill-opacity="1" fill-rule="nonzero"/><path fill="#ffffff" d="M 35.140625 158.875 C 34.785156 158.875 34.492188 158.582031 34.492188 158.222656 L 34.492188 154.875 C 34.492188 154.515625 34.785156 154.222656 35.140625 154.222656 C 35.5 154.222656 35.789062 154.515625 35.789062 154.875 L 35.789062 158.222656 C 35.789062 158.582031 35.5 158.875 35.140625 158.875 " fill-opacity="1" fill-rule="nonzero"/><path fill="#ffffff" d="M 35.140625 166.679688 C 34.785156 166.679688 34.492188 166.390625 34.492188 166.03125 L 34.492188 162.679688 C 34.492188 162.324219 34.785156 162.035156 35.140625 162.035156 C 35.5 162.035156 35.789062 162.324219 35.789062 162.679688 L 35.789062 166.03125 C 35.789062 166.390625 35.5 166.679688 35.140625 166.679688 " fill-opacity="1" fill-rule="nonzero"/><path fill="#ffffff" d="M 32.914062 161.101562 L 29.5625 161.101562 C 29.203125 161.101562 28.914062 160.8125 28.914062 160.453125 C 28.914062 160.09375 29.203125 159.804688 29.5625 159.804688 L 32.914062 159.804688 C 33.269531 159.804688 33.5625 160.09375 33.5625 160.453125 C 33.5625 160.8125 33.269531 161.101562 32.914062 161.101562 " fill-opacity="1" fill-rule="nonzero"/><path fill="#ffffff" d="M 40.722656 161.101562 L 37.367188 161.101562 C 37.011719 161.101562 36.722656 160.8125 36.722656 160.453125 C 36.722656 160.09375 37.011719 159.804688 37.367188 159.804688 L 40.722656 159.804688 C 41.078125 159.804688 41.367188 160.09375 41.367188 160.453125 C 41.367188 160.8125 41.078125 161.101562 40.722656 161.101562 " fill-opacity="1" fill-rule="nonzero"/></svg>