<svg xmlns="http://www.w3.org/2000/svg" xmlns:xlink="http://www.w3.org/1999/xlink" width="500" zoomAndPan="magnify" viewBox="0 0 375 374.999991" height="500" preserveAspectRatio="xMidYMid meet" version="1.0"><path fill="#e9f1dc" d="M 90.625 26.53125 C 2.152344 81.433594 13.175781 188.183594 12.917969 192.769531 C 10.105469 242.925781 28.304688 316.8125 87.964844 348.5 C 116.238281 363.515625 161.800781 373.273438 195.972656 353.238281 C 227.878906 334.523438 216.105469 309.613281 252.460938 270.484375 C 294.324219 225.421875 325.210938 233.855469 353.886719 193.992188 C 372.820312 167.664062 367.292969 133.96875 365.707031 124.304688 C 354.078125 53.453125 271.929688 23.300781 262.445312 20.925781 C 185.800781 1.738281 118.28125 9.371094 90.625 26.53125 " fill-opacity="1" fill-rule="nonzero"/><path fill="#ffffff" d="M 344.917969 48.972656 L 71.480469 48.972656 C 65.445312 48.972656 60.550781 53.867188 60.550781 59.902344 L 60.550781 247.375 C 60.550781 253.410156 65.445312 258.300781 71.480469 258.300781 L 344.917969 258.300781 C 350.953125 258.300781 355.84375 253.410156 355.84375 247.375 L 355.84375 59.902344 C 355.84375 53.867188 350.953125 48.972656 344.917969 48.972656 " fill-opacity="1" fill-rule="nonzero"/><path fill="#000000" d="M 134.914062 49.9375 C 134.558594 49.9375 134.269531 49.652344 134.269531 49.296875 C 134.269531 48.9375 134.554688 48.652344 134.910156 48.648438 L 161.0625 48.550781 C 161.410156 48.546875 161.707031 48.835938 161.710938 49.191406 C 161.710938 49.546875 161.425781 49.835938 161.070312 49.835938 L 134.914062 49.9375 " fill-opacity="1" fill-rule="nonzero"/><path fill="#000000" d="M 243.632812 49.617188 L 233.773438 49.617188 C 233.421875 49.617188 233.132812 49.328125 233.132812 48.972656 C 233.132812 48.617188 233.421875 48.332031 233.773438 48.332031 L 243.632812 48.332031 C 243.988281 48.332031 244.273438 48.617188 244.273438 48.972656 C 244.273438 49.328125 243.988281 49.617188 243.632812 49.617188 " fill-opacity="1" fill-rule="nonzero"/><path fill="#000000" d="M 320.890625 49.617188 L 292.617188 49.617188 C 292.265625 49.617188 291.976562 49.328125 291.976562 48.972656 C 291.976562 48.617188 292.265625 48.332031 292.617188 48.332031 L 320.890625 48.332031 C 321.246094 48.332031 321.535156 48.617188 321.535156 48.972656 C 321.535156 49.328125 321.246094 49.617188 320.890625 49.617188 " fill-opacity="1" fill-rule="nonzero"/><path fill="#000000" d="M 355.84375 69.476562 C 355.488281 69.476562 355.199219 69.1875 355.199219 68.835938 L 355.199219 59.902344 C 355.199219 54.230469 350.589844 49.617188 344.917969 49.617188 L 336.84375 49.617188 C 336.492188 49.617188 336.203125 49.328125 336.203125 48.972656 C 336.203125 48.621094 336.492188 48.332031 336.84375 48.332031 L 344.917969 48.332031 C 351.296875 48.332031 356.488281 53.523438 356.488281 59.902344 L 356.488281 68.835938 C 356.488281 69.1875 356.199219 69.476562 355.84375 69.476562 " fill-opacity="1" fill-rule="nonzero"/><path fill="#000000" d="M 355.84375 107.183594 C 355.488281 107.183594 355.199219 106.898438 355.199219 106.542969 L 355.199219 77.75 C 355.199219 77.394531 355.488281 77.109375 355.84375 77.109375 C 356.199219 77.109375 356.488281 77.394531 356.488281 77.75 L 356.488281 106.542969 C 356.488281 106.898438 356.199219 107.183594 355.84375 107.183594 " fill-opacity="1" fill-rule="nonzero"/><path fill="#000000" d="M 355.28125 215.855469 C 354.925781 215.855469 354.640625 215.570312 354.640625 215.214844 L 354.640625 130.75 C 354.640625 130.398438 354.925781 130.109375 355.28125 130.109375 C 355.636719 130.109375 355.921875 130.398438 355.921875 130.75 L 355.921875 215.214844 C 355.921875 215.570312 355.636719 215.855469 355.28125 215.855469 " fill-opacity="1" fill-rule="nonzero"/><path fill="#e9f1dc" d="M 340.542969 77.753906 L 75.851562 77.753906 L 75.851562 64.636719 L 340.542969 64.636719 L 340.542969 77.753906 " fill-opacity="1" fill-rule="nonzero"/><path fill="#e9f1dc" d="M 340.542969 174.589844 L 75.851562 174.589844 L 75.851562 87.335938 L 340.542969 87.335938 L 340.542969 174.589844 " fill-opacity="1" fill-rule="nonzero"/><path fill="#e9f1dc" d="M 159.015625 245.039062 L 75.851562 245.039062 L 75.851562 181.433594 L 159.015625 181.433594 L 159.015625 245.039062 " fill-opacity="1" fill-rule="nonzero"/><path fill="#e9f1dc" d="M 249.78125 245.039062 L 166.613281 245.039062 L 166.613281 181.433594 L 249.78125 181.433594 L 249.78125 245.039062 " fill-opacity="1" fill-rule="nonzero"/><path fill="#e9f1dc" d="M 340.542969 245.039062 L 257.378906 245.039062 L 257.378906 181.433594 L 340.542969 181.433594 L 340.542969 245.039062 " fill-opacity="1" fill-rule="nonzero"/><path fill="#000000" d="M 171.785156 259.585938 C 171.78125 259.585938 171.78125 259.585938 171.777344 259.585938 L 96.601562 258.890625 C 96.246094 258.886719 95.960938 258.597656 95.964844 258.242188 C 95.96875 257.890625 96.253906 257.605469 96.605469 257.605469 C 96.609375 257.605469 96.609375 257.605469 96.613281 257.605469 L 171.789062 258.300781 C 172.144531 258.304688 172.429688 258.59375 172.425781 258.949219 C 172.421875 259.304688 172.136719 259.585938 171.785156 259.585938 " fill-opacity="1" fill-rule="nonzero"/><path fill="#95c251" d="M 320.988281 55.832031 L 164.578125 55.832031 C 160.617188 55.832031 157.410156 59.039062 157.410156 63.003906 L 157.410156 132.316406 C 157.410156 136.277344 160.617188 139.488281 164.578125 139.488281 L 320.988281 139.488281 C 324.949219 139.488281 328.160156 136.277344 328.160156 132.316406 L 328.160156 63.003906 C 328.160156 59.039062 324.949219 55.832031 320.988281 55.832031 " fill-opacity="1" fill-rule="nonzero"/><path fill="#e9f1dc" d="M 228.40625 117 L 318.164062 117 C 319.707031 117 320.957031 115.453125 320.957031 113.539062 C 320.957031 111.625 319.707031 110.074219 318.164062 110.074219 L 228.40625 110.074219 C 226.859375 110.074219 225.609375 111.625 225.609375 113.539062 C 225.609375 115.453125 226.859375 117 228.40625 117 " fill-opacity="1" fill-rule="nonzero"/><path fill="#e9f1dc" d="M 228.40625 100.164062 L 318.164062 100.164062 C 319.707031 100.164062 320.957031 98.613281 320.957031 96.699219 C 320.957031 94.789062 319.707031 93.238281 318.164062 93.238281 L 228.40625 93.238281 C 226.859375 93.238281 225.609375 94.789062 225.609375 96.699219 C 225.609375 98.613281 226.859375 100.164062 228.40625 100.164062 " fill-opacity="1" fill-rule="nonzero"/><path fill="#e9f1dc" d="M 317.515625 76.25 L 280.164062 76.25 C 278.324219 76.25 276.835938 77.789062 276.835938 79.691406 C 276.835938 81.589844 278.324219 83.128906 280.164062 83.128906 L 317.605469 83.128906 C 319.519531 83.128906 321.058594 81.496094 320.953125 79.496094 C 320.855469 77.65625 319.304688 76.25 317.515625 76.25 " fill-opacity="1" fill-rule="nonzero"/><path fill="#e9f1dc" d="M 167.121094 119.984375 L 210.050781 119.984375 C 211.234375 119.984375 212.1875 119.308594 212.1875 118.484375 L 212.183594 75.96875 C 212.152344 74.847656 211.382812 74.207031 210.050781 74.207031 L 167.121094 74.207031 C 166.058594 74.207031 165.152344 74.753906 164.984375 75.488281 L 164.980469 118.484375 C 164.980469 119.308594 165.941406 119.984375 167.121094 119.984375 " fill-opacity="1" fill-rule="nonzero"/><path fill="#95c251" d="M 198.792969 90.988281 C 198.792969 96.78125 194.09375 101.480469 188.296875 101.480469 C 182.503906 101.480469 177.808594 96.78125 177.808594 90.988281 C 177.808594 85.191406 182.503906 80.492188 188.296875 80.492188 C 194.09375 80.492188 198.792969 85.191406 198.792969 90.988281 " fill-opacity="1" fill-rule="nonzero"/><path fill="#95c251" d="M 166.050781 119.503906 C 176.847656 101.164062 201.3125 100.753906 210.050781 119.984375 L 166.050781 119.503906 " fill-opacity="1" fill-rule="nonzero"/><path fill="#ffffff" d="M 165.625 75.582031 L 165.625 118.484375 C 165.625 118.886719 166.265625 119.339844 167.121094 119.339844 L 210.050781 119.339844 C 210.90625 119.339844 211.542969 118.886719 211.542969 118.484375 L 211.539062 75.972656 C 211.535156 75.710938 211.511719 74.851562 210.050781 74.851562 L 167.121094 74.851562 C 166.339844 74.851562 165.757812 75.21875 165.625 75.582031 Z M 210.050781 120.625 L 167.121094 120.625 C 165.558594 120.625 164.339844 119.683594 164.339844 118.484375 L 164.339844 75.492188 C 164.339844 75.441406 164.34375 75.394531 164.355469 75.347656 C 164.59375 74.316406 165.757812 73.566406 167.121094 73.566406 L 210.050781 73.566406 C 211.722656 73.566406 212.789062 74.480469 212.828125 75.953125 L 212.832031 118.484375 C 212.832031 119.683594 211.613281 120.625 210.050781 120.625 " fill-opacity="1" fill-rule="nonzero"/><path fill="#1d5f31" d="M 286.941406 113.011719 L 130.53125 113.011719 C 126.570312 113.011719 123.359375 116.226562 123.359375 120.183594 L 123.359375 189.503906 C 123.359375 193.460938 126.570312 196.675781 130.53125 196.675781 L 286.941406 196.675781 C 290.902344 196.675781 294.113281 193.460938 294.113281 189.503906 L 294.113281 120.183594 C 294.113281 116.226562 290.902344 113.011719 286.941406 113.011719 " fill-opacity="1" fill-rule="nonzero"/><path fill="#000000" d="M 130.53125 113.65625 C 126.933594 113.65625 124.003906 116.585938 124.003906 120.183594 L 124.003906 189.503906 C 124.003906 193.101562 126.933594 196.027344 130.53125 196.027344 L 286.941406 196.027344 C 290.539062 196.027344 293.46875 193.101562 293.46875 189.503906 L 293.46875 120.183594 C 293.46875 116.585938 290.539062 113.65625 286.941406 113.65625 Z M 286.941406 197.316406 L 130.53125 197.316406 C 126.222656 197.316406 122.71875 193.8125 122.71875 189.503906 L 122.71875 120.183594 C 122.71875 115.878906 126.222656 112.371094 130.53125 112.371094 L 286.941406 112.371094 C 291.25 112.371094 294.753906 115.878906 294.753906 120.183594 L 294.753906 189.503906 C 294.753906 193.8125 291.25 197.316406 286.941406 197.316406 " fill-opacity="1" fill-rule="nonzero"/><path fill="#e9f1dc" d="M 211.074219 174.183594 L 284.113281 174.183594 C 285.65625 174.183594 286.910156 172.632812 286.910156 170.722656 C 286.910156 168.808594 285.65625 167.257812 284.113281 167.257812 L 211.074219 167.257812 C 209.53125 167.257812 208.28125 168.808594 208.28125 170.722656 C 208.28125 172.632812 209.53125 174.183594 211.074219 174.183594 " fill-opacity="1" fill-rule="nonzero"/><path fill="#e9f1dc" d="M 211.074219 157.347656 L 284.113281 157.347656 C 285.65625 157.347656 286.910156 155.796875 286.910156 153.882812 C 286.910156 151.972656 285.65625 150.421875 284.113281 150.421875 L 211.074219 150.421875 C 209.53125 150.421875 208.28125 151.972656 208.28125 153.882812 C 208.28125 155.796875 209.53125 157.347656 211.074219 157.347656 " fill-opacity="1" fill-rule="nonzero"/><path fill="#e9f1dc" d="M 283.46875 133.433594 L 246.117188 133.433594 C 244.277344 133.433594 242.785156 134.976562 242.785156 136.875 C 242.785156 138.773438 244.277344 140.3125 246.117188 140.3125 L 283.554688 140.3125 C 285.472656 140.3125 287.011719 138.683594 286.902344 136.679688 C 286.804688 134.839844 285.253906 133.433594 283.46875 133.433594 " fill-opacity="1" fill-rule="nonzero"/><path fill="#ffffff" d="M 133.070312 177.167969 L 176 177.167969 C 177.179688 177.167969 178.136719 176.496094 178.136719 175.667969 L 178.136719 133.15625 C 178.105469 132.035156 177.335938 131.394531 176 131.394531 L 133.070312 131.394531 C 132.007812 131.394531 131.101562 131.9375 130.933594 132.675781 L 130.933594 175.667969 C 130.933594 176.496094 131.890625 177.167969 133.070312 177.167969 " fill-opacity="1" fill-rule="nonzero"/><path fill="#1d5f31" d="M 164.378906 146.796875 C 164.378906 152.390625 159.84375 156.925781 154.25 156.925781 C 148.65625 156.925781 144.121094 152.390625 144.121094 146.796875 C 144.121094 141.199219 148.65625 136.664062 154.25 136.664062 C 159.84375 136.664062 164.378906 141.199219 164.378906 146.796875 " fill-opacity="1" fill-rule="nonzero"/><path fill="#1d5f31" d="M 132 176.691406 C 142.796875 158.351562 167.261719 157.941406 176 177.167969 L 132 176.691406 " fill-opacity="1" fill-rule="nonzero"/><path fill="#ffffff" d="M 131.578125 132.761719 L 131.574219 175.667969 C 131.574219 176.074219 132.214844 176.523438 133.070312 176.523438 L 176 176.523438 C 176.855469 176.523438 177.496094 176.074219 177.496094 175.667969 L 177.492188 133.15625 C 177.484375 132.894531 177.460938 132.039062 176 132.039062 L 133.070312 132.039062 C 132.289062 132.039062 131.707031 132.402344 131.578125 132.761719 Z M 176 177.808594 L 133.070312 177.808594 C 131.511719 177.808594 130.289062 176.867188 130.289062 175.667969 L 130.289062 132.675781 C 130.289062 132.628906 130.296875 132.578125 130.308594 132.53125 C 130.542969 131.5 131.707031 130.75 133.070312 130.75 L 176 130.75 C 177.675781 130.75 178.738281 131.667969 178.777344 133.136719 L 178.78125 175.667969 C 178.78125 176.867188 177.558594 177.808594 176 177.808594 " fill-opacity="1" fill-rule="nonzero"/><path fill="#ffffff" d="M 71.628906 164.125 L 71.777344 173.183594 C 71.914062 174.308594 72.726562 175.238281 73.824219 175.523438 L 74.285156 175.785156 C 75.03125 175.976562 75.421875 176.136719 75.886719 177.847656 C 70.132812 179.652344 64.605469 179.265625 59.375 175.929688 C 59.148438 175.4375 59.222656 174.867188 59.949219 174.808594 L 60.738281 174.621094 C 61.824219 174.378906 62.65625 173.503906 62.855469 172.410156 L 63.851562 160.839844 L 71.628906 164.125 " fill-opacity="1" fill-rule="nonzero"/><path fill="#000000" d="M 59.910156 175.507812 C 64.539062 178.390625 69.511719 179.019531 75.085938 177.417969 C 74.804688 176.582031 74.585938 176.527344 74.125 176.410156 C 74.070312 176.394531 74.015625 176.375 73.964844 176.347656 L 73.574219 176.121094 C 72.257812 175.742188 71.304688 174.628906 71.140625 173.257812 C 71.136719 173.238281 71.136719 173.214844 71.136719 173.191406 L 70.992188 164.554688 L 64.417969 161.777344 L 63.496094 172.464844 C 63.492188 172.484375 63.488281 172.503906 63.484375 172.527344 C 63.242188 173.878906 62.21875 174.945312 60.878906 175.246094 L 60.101562 175.433594 C 60.070312 175.441406 60.039062 175.445312 60.003906 175.449219 C 59.957031 175.453125 59.925781 175.460938 59.90625 175.464844 C 59.90625 175.476562 59.90625 175.492188 59.910156 175.507812 Z M 69.355469 179.546875 C 65.695312 179.546875 62.238281 178.519531 59.027344 176.472656 C 58.921875 176.402344 58.839844 176.308594 58.789062 176.195312 C 58.5625 175.699219 58.5625 175.191406 58.789062 174.800781 C 58.910156 174.59375 59.207031 174.242188 59.84375 174.171875 L 60.585938 173.996094 C 61.421875 173.808594 62.054688 173.15625 62.214844 172.324219 L 63.210938 160.785156 C 63.230469 160.578125 63.34375 160.394531 63.523438 160.289062 C 63.699219 160.183594 63.914062 160.167969 64.105469 160.246094 L 71.878906 163.535156 C 72.113281 163.632812 72.265625 163.859375 72.269531 164.117188 L 72.421875 173.136719 C 72.535156 173.992188 73.148438 174.683594 73.984375 174.902344 C 74.039062 174.917969 74.09375 174.9375 74.144531 174.964844 L 74.527344 175.1875 C 75.519531 175.457031 76.023438 175.890625 76.507812 177.679688 C 76.597656 178.011719 76.410156 178.355469 76.078125 178.460938 C 73.773438 179.1875 71.527344 179.546875 69.355469 179.546875 " fill-opacity="1" fill-rule="nonzero"/><path fill="#000000" d="M 76.144531 146.625 C 73.894531 146.378906 75.664062 149.066406 67.726562 146.152344 C 64.472656 144.960938 65.933594 148.964844 65.085938 148.671875 C 61.945312 147.589844 60.726562 148.589844 59.957031 149.101562 C 59.074219 149.695312 58.148438 151.175781 58.269531 152.597656 C 58.429688 154.472656 60.875 155.164062 62.039062 159.167969 C 62.859375 161.980469 62.535156 163.648438 63.628906 164.113281 C 64.734375 164.578125 65.644531 163.117188 66.890625 163.535156 C 68.5 164.074219 68.03125 166.875 69.566406 168.125 C 70.53125 168.914062 72.847656 169.375 76.683594 167.757812 C 77.308594 167.492188 77.652344 166.824219 77.507812 166.164062 C 77.320312 165.320312 77.078125 164.253906 76.761719 163.257812 C 75.253906 158.496094 73.636719 157.355469 74.304688 156.179688 C 75.328125 154.371094 78.796875 155.617188 79.457031 154.125 C 80.144531 152.574219 79.226562 146.960938 76.144531 146.625 " fill-opacity="1" fill-rule="nonzero"/><path fill="#ffffff" d="M 68.203125 157.128906 C 68.476562 157.710938 68.710938 158.308594 68.90625 158.921875 C 69.265625 160.074219 69.898438 162.042969 70.339844 163.117188 C 70.886719 164.453125 74.769531 163.421875 75.976562 163.066406 C 76.171875 163.007812 76.277344 162.796875 76.207031 162.605469 L 75.851562 161.460938 L 76.800781 161.273438 C 76.914062 161.234375 77.019531 161.167969 77.101562 161.078125 C 77.296875 160.851562 77.3125 160.539062 77.167969 160.296875 C 76.414062 159.054688 75.0625 157.003906 74.46875 154.523438 C 74.40625 154.269531 74.207031 154.074219 73.949219 154.027344 C 73.070312 153.863281 70.976562 153.671875 68.863281 154.953125 C 68.117188 155.40625 67.828125 156.339844 68.203125 157.128906 " fill-opacity="1" fill-rule="nonzero"/><path fill="#000000" d="M 75.59375 162.800781 C 75.597656 162.8125 75.601562 162.820312 75.605469 162.832031 Z M 68.78125 156.851562 C 69.070312 157.457031 69.316406 158.089844 69.519531 158.730469 C 69.859375 159.820312 70.5 161.8125 70.933594 162.875 C 71.085938 163.238281 72.75 163.308594 75.511719 162.53125 L 75.027344 160.96875 L 76.617188 160.628906 L 76.40625 160.285156 C 75.609375 158.992188 74.40625 157.03125 73.84375 154.671875 C 73.085938 154.519531 71.140625 154.320312 69.195312 155.503906 C 68.730469 155.785156 68.550781 156.367188 68.78125 156.851562 Z M 72.054688 164.433594 C 70.808594 164.433594 70.035156 164.074219 69.746094 163.359375 C 69.292969 162.253906 68.640625 160.226562 68.292969 159.117188 C 68.109375 158.53125 67.882812 157.957031 67.621094 157.402344 C 67.105469 156.320312 67.496094 155.027344 68.527344 154.402344 C 70.855469 152.992188 73.175781 153.226562 74.066406 153.394531 C 74.574219 153.488281 74.976562 153.871094 75.09375 154.375 C 75.609375 156.535156 76.75 158.386719 77.5 159.613281 L 77.71875 159.964844 C 78.011719 160.449219 77.960938 161.066406 77.585938 161.5 C 77.441406 161.667969 77.242188 161.800781 77.011719 161.878906 L 76.925781 161.902344 L 76.675781 161.949219 L 76.820312 162.417969 C 76.90625 162.640625 76.890625 162.929688 76.765625 163.175781 C 76.644531 163.421875 76.421875 163.605469 76.160156 163.683594 C 74.464844 164.183594 73.09375 164.433594 72.054688 164.433594 " fill-opacity="1" fill-rule="nonzero"/><path fill="#ffffff" d="M 67.484375 161.386719 C 65.125 162.210938 64.324219 160.007812 64.847656 158.703125 C 65.066406 158.148438 65.828125 158.09375 66.144531 158.597656 L 67.632812 160.976562 C 67.730469 161.128906 67.65625 161.328125 67.484375 161.386719 " fill-opacity="1" fill-rule="nonzero"/><path fill="#ffffff" d="M 43.617188 337.332031 L 44.128906 346.757812 L 50.429688 347.820312 L 50.992188 336.703125 L 43.617188 337.332031 " fill-opacity="1" fill-rule="nonzero"/><path fill="#000000" d="M 44.742188 346.207031 L 49.824219 347.066406 L 50.3125 337.40625 L 44.292969 337.921875 Z M 50.429688 348.464844 C 50.394531 348.464844 50.359375 348.460938 50.324219 348.453125 L 44.023438 347.390625 C 43.726562 347.339844 43.503906 347.09375 43.484375 346.792969 L 42.976562 337.367188 C 42.957031 337.019531 43.214844 336.71875 43.5625 336.691406 L 50.9375 336.0625 C 51.121094 336.046875 51.304688 336.109375 51.4375 336.242188 C 51.570312 336.367188 51.644531 336.550781 51.632812 336.734375 L 51.074219 347.851562 C 51.0625 348.035156 50.976562 348.207031 50.832031 348.320312 C 50.71875 348.414062 50.574219 348.464844 50.429688 348.464844 " fill-opacity="1" fill-rule="nonzero"/><path fill="#1d5f31" d="M 50.605469 364.191406 C 47.945312 364.429688 43.597656 364.539062 38.546875 363.578125 C 36.890625 363.265625 35.867188 361.589844 36.351562 359.976562 C 37.703125 355.480469 40.066406 346.945312 43.578125 343.109375 L 44.292969 345.324219 L 45.53125 343.335938 C 45.703125 343.066406 45.992188 342.890625 46.3125 342.863281 L 48.816406 342.675781 C 49.339844 342.636719 49.804688 343.003906 49.886719 343.523438 L 50.1875 345.425781 L 51.179688 343 L 53.167969 361.140625 C 53.292969 362.6875 52.152344 364.050781 50.605469 364.191406 " fill-opacity="1" fill-rule="nonzero"/><path fill="#000000" d="M 43.328125 344.425781 C 40.53125 348.179688 38.507812 354.992188 37.257812 359.191406 L 36.96875 360.160156 C 36.789062 360.761719 36.867188 361.390625 37.195312 361.925781 C 37.515625 362.457031 38.054688 362.828125 38.667969 362.945312 C 43.597656 363.882812 47.847656 363.792969 50.546875 363.550781 C 51.734375 363.445312 52.625 362.386719 52.527344 361.191406 L 50.816406 345.585938 L 50.78125 345.667969 C 50.671875 345.9375 50.402344 346.097656 50.113281 346.0625 C 49.828125 346.03125 49.597656 345.8125 49.550781 345.527344 L 49.25 343.625 C 49.222656 343.4375 49.054688 343.304688 48.863281 343.316406 L 46.359375 343.507812 C 46.246094 343.515625 46.140625 343.578125 46.078125 343.679688 L 44.839844 345.664062 C 44.707031 345.875 44.460938 345.992188 44.214844 345.960938 C 43.964844 345.929688 43.757812 345.757812 43.679688 345.519531 Z M 50.605469 364.191406 L 50.609375 364.191406 Z M 46.839844 365 C 44.445312 365 41.570312 364.808594 38.425781 364.210938 C 37.457031 364.023438 36.605469 363.4375 36.09375 362.59375 C 35.585938 361.753906 35.453125 360.730469 35.734375 359.792969 L 36.023438 358.824219 C 37.410156 354.164062 39.730469 346.359375 43.105469 342.675781 C 43.261719 342.507812 43.492188 342.433594 43.714844 342.480469 C 43.941406 342.53125 44.121094 342.695312 44.191406 342.914062 L 44.480469 343.808594 L 44.984375 342.996094 C 45.261719 342.550781 45.742188 342.265625 46.261719 342.222656 L 48.765625 342.035156 C 49.507812 341.980469 50.1875 342.433594 50.4375 343.109375 L 50.585938 342.753906 C 50.695312 342.480469 50.976562 342.320312 51.269531 342.363281 C 51.5625 342.402344 51.785156 342.636719 51.820312 342.929688 L 53.804688 361.070312 C 53.960938 362.980469 52.550781 364.660156 50.664062 364.832031 C 49.605469 364.929688 48.3125 365 46.839844 365 " fill-opacity="1" fill-rule="nonzero"/><path fill="#000000" d="M 44.875 361.894531 C 42.769531 361.894531 40.363281 361.683594 37.984375 361.011719 C 37.644531 360.917969 37.445312 360.5625 37.542969 360.21875 C 37.636719 359.878906 37.992188 359.679688 38.335938 359.773438 C 44.410156 361.484375 50.929688 360.007812 50.996094 359.992188 C 51.339844 359.914062 51.6875 360.128906 51.769531 360.472656 C 51.847656 360.820312 51.632812 361.164062 51.285156 361.246094 C 51.113281 361.285156 48.429688 361.894531 44.875 361.894531 " fill-opacity="1" fill-rule="nonzero"/><path fill="#000000" d="M 48.183594 354.914062 C 48.179688 354.914062 48.175781 354.914062 48.171875 354.914062 L 42.21875 354.808594 C 41.867188 354.804688 41.582031 354.511719 41.589844 354.15625 C 41.59375 353.800781 41.894531 353.511719 42.242188 353.523438 L 48.195312 353.628906 C 48.550781 353.632812 48.832031 353.925781 48.828125 354.28125 C 48.820312 354.632812 48.535156 354.914062 48.183594 354.914062 " fill-opacity="1" fill-rule="nonzero"/><path fill="#ffffff" d="M 73.5625 333.835938 L 73.820312 347.566406 L 81.449219 347.949219 L 82.492188 334.289062 L 73.5625 333.835938 " fill-opacity="1" fill-rule="nonzero"/><path fill="#000000" d="M 74.453125 346.953125 L 80.855469 347.277344 L 81.800781 334.894531 L 74.21875 334.511719 Z M 81.449219 348.59375 C 81.4375 348.59375 81.429688 348.59375 81.417969 348.59375 L 73.789062 348.210938 C 73.453125 348.191406 73.183594 347.914062 73.179688 347.578125 L 72.917969 333.847656 C 72.914062 333.671875 72.984375 333.5 73.113281 333.375 C 73.242188 333.25 73.410156 333.183594 73.59375 333.195312 L 82.527344 333.644531 C 82.699219 333.652344 82.863281 333.734375 82.976562 333.863281 C 83.089844 333.992188 83.148438 334.164062 83.136719 334.335938 L 82.089844 348 C 82.066406 348.335938 81.785156 348.59375 81.449219 348.59375 " fill-opacity="1" fill-rule="nonzero"/><path fill="#1d5f31" d="M 71.4375 355.191406 C 71.355469 356.484375 72.179688 357.664062 73.425781 358.019531 C 77.761719 359.261719 87.523438 362.035156 90.320312 362.59375 C 93.953125 363.324219 98.503906 362.429688 100.542969 360.390625 C 102.582031 358.347656 96.582031 352.925781 93.703125 350.914062 C 89.429688 347.933594 85.464844 342.261719 83.699219 341.925781 C 81.9375 341.589844 78.355469 346.582031 78.355469 346.582031 L 73.046875 344.03125 C 73.046875 344.03125 71.867188 348.628906 71.4375 355.191406 " fill-opacity="1" fill-rule="nonzero"/><path fill="#000000" d="M 71.4375 355.191406 L 71.445312 355.191406 Z M 73.492188 344.957031 C 73.148438 346.523438 72.402344 350.34375 72.082031 355.234375 C 72.015625 356.21875 72.65625 357.132812 73.605469 357.402344 C 77.738281 358.585938 87.65625 361.402344 90.449219 361.964844 C 93.941406 362.667969 98.269531 361.757812 100.089844 359.933594 C 100.199219 359.824219 100.34375 359.625 100.308594 359.222656 C 100.128906 357.199219 96.144531 353.402344 93.335938 351.445312 C 91.152344 349.917969 89.109375 347.777344 87.3125 345.886719 C 85.8125 344.316406 84.261719 342.6875 83.582031 342.558594 C 82.769531 342.40625 80.492188 344.707031 78.878906 346.957031 C 78.699219 347.210938 78.359375 347.296875 78.078125 347.160156 Z M 92.941406 363.488281 C 92.011719 363.488281 91.082031 363.402344 90.195312 363.226562 C 87.359375 362.65625 77.398438 359.828125 73.25 358.640625 C 71.726562 358.203125 70.695312 356.734375 70.796875 355.148438 C 71.226562 348.605469 72.375 344.058594 72.425781 343.871094 C 72.472656 343.683594 72.601562 343.527344 72.777344 343.445312 C 72.949219 343.367188 73.152344 343.367188 73.328125 343.449219 L 78.152344 345.769531 C 79.316406 344.214844 82 340.949219 83.820312 341.296875 C 84.859375 341.492188 86.113281 342.765625 88.242188 345 C 90 346.84375 91.992188 348.9375 94.074219 350.386719 C 95.9375 351.691406 101.324219 356.085938 101.589844 359.109375 C 101.652344 359.796875 101.445312 360.394531 101 360.84375 C 99.355469 362.488281 96.136719 363.488281 92.941406 363.488281 " fill-opacity="1" fill-rule="nonzero"/><path fill="#000000" d="M 93.28125 360.972656 C 85.160156 360.972656 73.800781 355.703125 73.183594 355.414062 C 72.859375 355.265625 72.722656 354.882812 72.871094 354.558594 C 73.023438 354.238281 73.40625 354.097656 73.726562 354.25 C 73.917969 354.339844 92.679688 363.042969 98.488281 358.308594 C 98.761719 358.085938 99.167969 358.125 99.390625 358.402344 C 99.617188 358.675781 99.574219 359.082031 99.300781 359.304688 C 97.828125 360.507812 95.695312 360.972656 93.28125 360.972656 " fill-opacity="1" fill-rule="nonzero"/><path fill="#000000" d="M 84.242188 352.242188 C 84.054688 352.242188 83.871094 352.164062 83.742188 352.007812 C 83.519531 351.730469 83.5625 351.328125 83.835938 351.101562 L 87.890625 347.796875 C 88.167969 347.574219 88.574219 347.613281 88.796875 347.890625 C 89.019531 348.167969 88.980469 348.570312 88.703125 348.796875 L 84.648438 352.097656 C 84.527344 352.195312 84.386719 352.242188 84.242188 352.242188 " fill-opacity="1" fill-rule="nonzero"/><path fill="#1d5f31" d="M 48.707031 242.457031 C 48.707031 242.457031 41.683594 285.6875 39.703125 300.390625 C 37.71875 315.09375 40.652344 339.035156 40.652344 339.035156 L 52.457031 339.011719 C 52.457031 339.011719 54.722656 310.195312 56 302.226562 C 56 302.226562 61.519531 291.613281 63.484375 282 C 65.445312 272.382812 71.238281 257.332031 71.238281 257.332031 C 71.238281 257.332031 71.464844 333.921875 71.554688 339.941406 C 71.554688 339.941406 80.765625 340.820312 84.183594 338.90625 C 84.183594 338.90625 91.453125 311.347656 91.375 296.152344 C 91.296875 280.957031 91.128906 242.925781 91.128906 242.925781 L 48.707031 242.457031 " fill-opacity="1" fill-rule="nonzero"/><path fill="#000000" d="M 72.191406 339.351562 C 74.175781 339.496094 80.761719 339.855469 83.632812 338.46875 C 84.386719 335.550781 90.804688 310.289062 90.730469 296.15625 C 90.660156 282.113281 90.511719 248.582031 90.492188 243.5625 L 49.253906 243.105469 C 48.433594 248.171875 42.175781 286.847656 40.339844 300.476562 C 38.558594 313.683594 40.800781 334.6875 41.226562 338.390625 L 51.863281 338.367188 C 52.195312 334.210938 54.199219 309.394531 55.363281 302.121094 C 55.375 302.054688 55.398438 301.988281 55.429688 301.929688 C 55.484375 301.824219 60.929688 291.28125 62.851562 281.867188 C 64.804688 272.3125 70.582031 257.253906 70.640625 257.101562 C 70.75 256.8125 71.050781 256.644531 71.355469 256.699219 C 71.660156 256.753906 71.882812 257.023438 71.882812 257.332031 C 71.882812 258.078125 72.097656 330.191406 72.191406 339.351562 Z M 76.199219 340.789062 C 73.710938 340.789062 71.671875 340.601562 71.496094 340.582031 C 71.167969 340.550781 70.917969 340.28125 70.910156 339.953125 C 70.832031 334.746094 70.652344 276.039062 70.605469 260.882812 C 68.796875 265.859375 65.488281 275.390625 64.113281 282.125 C 62.253906 291.238281 57.171875 301.34375 56.617188 302.425781 C 55.355469 310.417969 53.121094 338.773438 53.097656 339.0625 C 53.074219 339.394531 52.792969 339.652344 52.460938 339.652344 L 40.652344 339.679688 C 40.328125 339.679688 40.054688 339.4375 40.015625 339.113281 C 39.984375 338.875 37.09375 314.921875 39.0625 300.304688 C 41.023438 285.761719 48 242.785156 48.070312 242.355469 C 48.121094 242.042969 48.390625 241.8125 48.707031 241.8125 C 48.707031 241.8125 48.710938 241.8125 48.714844 241.8125 L 91.136719 242.28125 C 91.488281 242.285156 91.773438 242.570312 91.773438 242.921875 C 91.773438 242.921875 91.941406 280.953125 92.019531 296.148438 C 92.09375 311.257812 84.878906 338.792969 84.804688 339.070312 C 84.757812 339.238281 84.648438 339.378906 84.496094 339.464844 C 82.589844 340.535156 79.089844 340.789062 76.199219 340.789062 " fill-opacity="1" fill-rule="nonzero"/><path fill="#ffffff" d="M 53.832031 302.757812 C 53.820312 302.757812 53.808594 302.757812 53.796875 302.753906 L 50.199219 302.574219 C 49.84375 302.558594 49.570312 302.253906 49.589844 301.898438 C 49.609375 301.542969 49.914062 301.269531 50.265625 301.289062 L 53.863281 301.472656 C 54.21875 301.488281 54.492188 301.789062 54.472656 302.144531 C 54.457031 302.488281 54.171875 302.757812 53.832031 302.757812 " fill-opacity="1" fill-rule="nonzero"/><path fill="#ffffff" d="M 78.347656 326.265625 C 78.335938 326.265625 78.320312 326.265625 78.304688 326.261719 C 77.949219 326.238281 77.683594 325.929688 77.707031 325.578125 C 78.199219 318.449219 86.628906 306.117188 86.984375 305.59375 C 87.1875 305.304688 87.589844 305.226562 87.882812 305.429688 C 88.171875 305.632812 88.246094 306.03125 88.046875 306.324219 C 87.960938 306.449219 79.457031 318.886719 78.992188 325.664062 C 78.96875 326.003906 78.683594 326.265625 78.347656 326.265625 " fill-opacity="1" fill-rule="nonzero"/><path fill="#000000" d="M 83.320312 179.628906 C 96.511719 204.335938 92.917969 216.609375 110.472656 192.851562 C 110.992188 192.152344 112.09375 192.363281 112.316406 193.207031 L 114.058594 199.835938 C 114.058594 199.835938 77.769531 255.28125 84.199219 201.472656 L 83.320312 179.628906 " fill-opacity="1" fill-rule="nonzero"/><path fill="#000000" d="M 48.90625 244.289062 C 53.960938 246.011719 58.980469 248.828125 67.171875 247.367188 L 71.246094 243.082031 L 74.890625 246.9375 C 80.339844 249.058594 86.507812 249.019531 93.109375 247.367188 L 87.628906 200.617188 L 85.75 186.34375 C 84.320312 178.199219 80.777344 175.675781 73.347656 175.023438 C 71.554688 174.863281 70.441406 182.179688 68.316406 182.058594 C 66.058594 181.925781 62.769531 174.359375 60.171875 174.300781 C 56.714844 174.21875 52.96875 174.214844 48.976562 174.320312 C 43.636719 174.46875 38.867188 176.082031 35.125 179.898438 C 29.921875 185.191406 46.136719 205.976562 46.136719 205.976562 C 46.136719 205.976562 49.878906 226.285156 48.90625 244.289062 " fill-opacity="1" fill-rule="nonzero"/><path fill="#ffffff" d="M 59.171875 176.800781 C 60.9375 185.808594 63.785156 194.824219 67.601562 203.851562 C 71.1875 195.519531 73.800781 187.191406 75.074219 178.871094 C 75.363281 176.980469 73.980469 175.242188 72.070312 175.121094 C 68.753906 178.589844 65.105469 177.828125 61.253906 174.429688 C 59.949219 174.347656 58.921875 175.519531 59.171875 176.800781 " fill-opacity="1" fill-rule="nonzero"/><path fill="#000000" d="M 59.804688 176.675781 C 61.429688 184.972656 64.050781 193.550781 67.605469 202.191406 C 71.058594 193.921875 73.296875 186.246094 74.4375 178.773438 C 74.550781 178.035156 74.355469 177.308594 73.890625 176.726562 C 73.484375 176.226562 72.929688 175.898438 72.308594 175.796875 C 69.074219 178.988281 65.277344 178.746094 61.011719 175.074219 C 60.667969 175.101562 60.347656 175.261719 60.113281 175.527344 C 59.835938 175.84375 59.722656 176.265625 59.804688 176.675781 Z M 67.601562 204.496094 C 67.601562 204.496094 67.597656 204.496094 67.597656 204.496094 C 67.339844 204.492188 67.109375 204.339844 67.007812 204.101562 C 63.121094 194.902344 60.273438 185.757812 58.542969 176.925781 C 58.382812 176.117188 58.601562 175.300781 59.148438 174.679688 C 59.691406 174.0625 60.472656 173.738281 61.292969 173.789062 C 61.4375 173.800781 61.570312 173.855469 61.679688 173.949219 C 65.609375 177.414062 68.761719 177.648438 71.605469 174.675781 C 71.734375 174.539062 71.921875 174.46875 72.109375 174.480469 C 73.195312 174.546875 74.210938 175.074219 74.890625 175.921875 C 75.578125 176.773438 75.875 177.882812 75.710938 178.96875 C 74.488281 186.96875 72.027344 195.195312 68.191406 204.105469 C 68.089844 204.339844 67.859375 204.496094 67.601562 204.496094 " fill-opacity="1" fill-rule="nonzero"/><path fill="#1d5f31" d="M 69.4375 185.273438 L 71.136719 193.132812 L 68.136719 203.925781 L 65.027344 195.386719 L 66.851562 185.328125 L 64.503906 180.730469 L 67.191406 177.621094 L 69.15625 177.570312 L 71.523438 180.863281 L 69.4375 185.273438 " fill-opacity="1" fill-rule="nonzero"/><path fill="#ffffff" d="M 61.109375 185.066406 C 59.246094 181.765625 57.71875 177.5 59.785156 174.8125 L 62.609375 171.761719 C 62.609375 171.761719 64.144531 176.390625 67.878906 177.589844 L 61.109375 185.066406 " fill-opacity="1" fill-rule="nonzero"/><path fill="#000000" d="M 60.277344 175.226562 C 58.492188 177.589844 59.933594 181.441406 61.242188 183.960938 L 66.785156 177.839844 C 64.402344 176.675781 63.019531 174.285156 62.398438 172.9375 Z M 61.109375 185.707031 C 61.085938 185.707031 61.0625 185.707031 61.039062 185.703125 C 60.832031 185.683594 60.652344 185.5625 60.550781 185.382812 C 58.675781 182.0625 56.933594 177.46875 59.273438 174.421875 C 59.285156 174.40625 59.296875 174.390625 59.3125 174.375 L 62.136719 171.324219 C 62.292969 171.15625 62.523438 171.082031 62.746094 171.132812 C 62.96875 171.179688 63.148438 171.339844 63.21875 171.558594 C 63.234375 171.597656 64.703125 175.894531 68.074219 176.980469 C 68.285156 177.046875 68.445312 177.214844 68.5 177.425781 C 68.554688 177.632812 68.5 177.859375 68.355469 178.023438 L 61.585938 185.496094 C 61.464844 185.632812 61.289062 185.707031 61.109375 185.707031 " fill-opacity="1" fill-rule="nonzero"/><path fill="#ffffff" d="M 68.554688 177.523438 C 71.109375 176.203125 71.554688 172.09375 71.554688 172.09375 C 71.554688 172.09375 74.503906 174.289062 75.148438 177.527344 C 76.097656 182.285156 74.171875 185.488281 74.171875 185.488281 L 68.554688 177.523438 " fill-opacity="1" fill-rule="nonzero"/><path fill="#000000" d="M 69.46875 177.707031 L 74.050781 184.199219 C 74.515625 182.96875 75.109375 180.621094 74.519531 177.652344 C 74.136719 175.730469 72.839844 174.179688 71.980469 173.328125 C 71.675781 174.589844 70.976562 176.570312 69.46875 177.707031 Z M 74.171875 186.128906 C 73.960938 186.128906 73.765625 186.03125 73.644531 185.859375 L 68.03125 177.894531 C 67.921875 177.742188 67.886719 177.554688 67.929688 177.375 C 67.972656 177.191406 68.09375 177.039062 68.257812 176.953125 C 70.472656 175.808594 70.910156 172.0625 70.917969 172.023438 C 70.941406 171.796875 71.085938 171.597656 71.296875 171.503906 C 71.507812 171.414062 71.753906 171.441406 71.9375 171.578125 C 72.066406 171.671875 75.09375 173.960938 75.78125 177.398438 C 76.765625 182.347656 74.804688 185.679688 74.722656 185.820312 C 74.609375 186.007812 74.414062 186.121094 74.195312 186.128906 C 74.1875 186.128906 74.179688 186.128906 74.171875 186.128906 " fill-opacity="1" fill-rule="nonzero"/><path fill="#1d5f31" d="M 30.765625 255.351562 L 32.699219 257.785156 C 34.675781 260.195312 38.769531 257.65625 44.371094 252.9375 L 124.183594 185.703125 L 118.941406 175.664062 L 37.203125 244.210938 C 31.601562 248.925781 28.785156 252.9375 30.765625 255.351562 " fill-opacity="1" fill-rule="nonzero"/><path fill="#000000" d="M 118.742188 176.671875 L 37.613281 244.703125 C 33.636719 248.054688 29.300781 252.550781 31.261719 254.941406 C 31.265625 254.945312 31.269531 254.945312 31.269531 254.949219 L 33.203125 257.386719 C 33.535156 257.792969 33.9375 258.011719 34.460938 258.058594 C 36.722656 258.265625 40.726562 255.167969 43.957031 252.445312 L 123.375 185.546875 Z M 34.695312 259.355469 C 34.574219 259.355469 34.460938 259.347656 34.34375 259.339844 C 33.480469 259.257812 32.757812 258.875 32.199219 258.195312 L 30.265625 255.753906 C 28.164062 253.183594 30.355469 249.132812 36.785156 243.71875 L 118.527344 175.171875 C 118.675781 175.046875 118.875 174.996094 119.066406 175.035156 C 119.257812 175.074219 119.417969 175.195312 119.511719 175.367188 L 124.753906 185.410156 C 124.894531 185.671875 124.828125 186.003906 124.597656 186.195312 L 44.785156 253.429688 C 39.835938 257.597656 36.859375 259.355469 34.695312 259.355469 " fill-opacity="1" fill-rule="nonzero"/><path fill="#1d5f31" d="M 117.972656 145.273438 C 123.117188 124.269531 144.15625 111.378906 164.960938 116.476562 C 185.765625 121.574219 198.457031 142.734375 193.3125 163.734375 C 188.164062 184.734375 167.128906 197.625 146.324219 192.527344 C 125.519531 187.429688 112.824219 166.273438 117.972656 145.273438 Z M 112.253906 143.871094 C 106.324219 168.0625 120.945312 192.429688 144.90625 198.300781 C 168.871094 204.175781 193.101562 189.324219 199.027344 165.132812 C 204.957031 140.945312 190.335938 116.574219 166.375 110.703125 C 142.410156 104.832031 118.179688 119.679688 112.253906 143.871094 " fill-opacity="1" fill-rule="nonzero"/><path fill="#000000" d="M 117.96875 145.273438 L 118.59375 145.425781 C 113.542969 166.050781 126.050781 186.898438 146.476562 191.90625 C 156.371094 194.332031 166.625 192.71875 175.351562 187.371094 C 184.082031 182.023438 190.238281 173.574219 192.6875 163.582031 C 197.742188 142.957031 185.230469 122.105469 164.804688 117.101562 C 154.914062 114.675781 144.65625 116.285156 135.929688 121.632812 C 127.199219 126.984375 121.042969 135.433594 118.59375 145.425781 Z M 155.542969 194.292969 C 152.421875 194.292969 149.277344 193.917969 146.167969 193.152344 C 125.054688 187.980469 112.125 166.433594 117.347656 145.117188 C 119.875 134.796875 126.238281 126.066406 135.257812 120.539062 C 144.28125 115.007812 154.882812 113.34375 165.113281 115.851562 C 186.226562 121.023438 199.15625 142.574219 193.9375 163.886719 C 191.40625 174.210938 185.046875 182.9375 176.023438 188.46875 C 169.746094 192.316406 162.695312 194.292969 155.542969 194.292969 Z M 112.878906 144.023438 C 107.042969 167.832031 121.480469 191.898438 145.058594 197.675781 C 156.484375 200.476562 168.320312 198.617188 178.394531 192.441406 C 188.472656 186.269531 195.578125 176.515625 198.402344 164.984375 C 201.230469 153.449219 199.4375 141.515625 193.359375 131.378906 C 187.28125 121.25 177.640625 114.128906 166.222656 111.328125 C 154.800781 108.527344 142.960938 110.386719 132.886719 116.5625 C 122.808594 122.738281 115.703125 132.492188 112.878906 144.023438 Z M 155.527344 200.234375 C 151.9375 200.234375 148.328125 199.804688 144.757812 198.925781 C 120.484375 192.980469 105.625 168.214844 111.628906 143.714844 L 112.253906 143.871094 L 111.628906 143.714844 C 114.535156 131.855469 121.847656 121.820312 132.214844 115.464844 C 142.582031 109.109375 154.769531 107.199219 166.527344 110.078125 C 178.285156 112.960938 188.203125 120.289062 194.460938 130.71875 C 200.71875 141.144531 202.5625 153.425781 199.652344 165.289062 C 196.746094 177.152344 189.433594 187.1875 179.070312 193.539062 C 171.847656 197.964844 163.75 200.234375 155.527344 200.234375 " fill-opacity="1" fill-rule="nonzero"/><path fill="#000000" d="M 35.660156 179.414062 L 46.308594 206.496094 C 41.757812 217.964844 43.609375 228.34375 53.558594 241.902344 L 49.378906 249.511719 C 9.398438 235.578125 17.476562 199.851562 35.660156 179.414062 " fill-opacity="1" fill-rule="nonzero"/><path fill="#ffffff" d="M 57.992188 244.324219 C 55.269531 242.96875 53.007812 241.238281 51.125 239.269531 C 48.761719 241.671875 46.652344 244.277344 44.75 247.042969 C 50.898438 250.109375 56.535156 250.976562 58.601562 250.40625 C 64.542969 248.773438 71.640625 249.09375 71.640625 249.09375 C 68.128906 243.070312 57.992188 244.324219 57.992188 244.324219 " fill-opacity="1" fill-rule="nonzero"/><path fill="#000000" d="M 45.707031 246.792969 C 51.605469 249.597656 56.746094 250.253906 58.433594 249.789062 C 62.953125 248.542969 68.050781 248.410156 70.382812 248.421875 C 66.628906 243.964844 58.160156 244.953125 58.070312 244.964844 C 57.945312 244.980469 57.820312 244.957031 57.707031 244.902344 C 55.265625 243.6875 53.054688 242.101562 51.128906 240.1875 C 49.210938 242.191406 47.390625 244.40625 45.707031 246.792969 Z M 57.058594 251.214844 C 54.183594 251.214844 49.441406 250.101562 44.464844 247.617188 C 44.296875 247.53125 44.175781 247.382812 44.128906 247.203125 C 44.082031 247.023438 44.117188 246.828125 44.222656 246.675781 C 46.195312 243.804688 48.363281 241.160156 50.664062 238.816406 C 50.789062 238.695312 50.941406 238.625 51.128906 238.625 C 51.304688 238.625 51.46875 238.699219 51.589844 238.824219 C 53.476562 240.800781 55.671875 242.429688 58.109375 243.664062 C 59.617188 243.515625 68.75 242.859375 72.195312 248.769531 C 72.316406 248.972656 72.3125 249.226562 72.191406 249.425781 C 72.070312 249.625 71.84375 249.746094 71.613281 249.734375 C 71.542969 249.730469 64.542969 249.441406 58.773438 251.027344 C 58.324219 251.152344 57.746094 251.214844 57.058594 251.214844 " fill-opacity="1" fill-rule="nonzero"/><path fill="#ffffff" d="M 111.566406 200.207031 C 115.167969 199.71875 121.765625 197.777344 118.03125 190.046875 C 117.671875 189.304688 116.769531 189.003906 116.03125 189.363281 C 113.75 190.472656 110.191406 194.292969 109.480469 198.019531 C 109.246094 199.261719 110.3125 200.375 111.566406 200.207031 " fill-opacity="1" fill-rule="nonzero"/><path fill="#000000" d="M 116.6875 189.855469 C 116.558594 189.855469 116.429688 189.882812 116.3125 189.941406 C 114.179688 190.980469 110.789062 194.601562 110.113281 198.140625 C 110.039062 198.523438 110.15625 198.90625 110.425781 199.195312 C 110.703125 199.488281 111.085938 199.621094 111.480469 199.570312 C 113.386719 199.3125 116.769531 198.535156 118.007812 196.234375 C 118.808594 194.738281 118.625 192.753906 117.453125 190.328125 C 117.355469 190.128906 117.1875 189.976562 116.972656 189.90625 C 116.878906 189.871094 116.785156 189.855469 116.6875 189.855469 Z M 111.566406 200.207031 L 111.570312 200.207031 Z M 111.320312 200.867188 C 110.632812 200.867188 109.96875 200.582031 109.492188 200.078125 C 108.933594 199.488281 108.699219 198.695312 108.847656 197.898438 C 109.628906 193.8125 113.421875 189.914062 115.746094 188.785156 C 116.265625 188.535156 116.851562 188.5 117.394531 188.6875 C 117.933594 188.875 118.363281 189.257812 118.609375 189.769531 C 119.96875 192.582031 120.148438 194.964844 119.140625 196.84375 C 117.707031 199.503906 114.277344 200.488281 111.652344 200.84375 C 111.539062 200.859375 111.429688 200.867188 111.320312 200.867188 " fill-opacity="1" fill-rule="nonzero"/><path fill="#95c251" d="M 110.605469 22.117188 C 117.03125 20.609375 123.460938 24.59375 124.96875 31.019531 C 126.476562 37.441406 122.492188 43.871094 116.070312 45.382812 C 109.648438 46.890625 103.214844 42.90625 101.707031 36.480469 C 100.199219 30.058594 104.183594 23.628906 110.605469 22.117188 Z M 89.433594 36.980469 L 90.496094 41.5 L 95.5625 41.453125 C 95.996094 42.457031 96.507812 43.410156 97.089844 44.308594 L 94.253906 48.5 L 97.429688 51.882812 L 101.800781 49.308594 C 102.667969 49.949219 103.582031 50.519531 104.542969 51.007812 L 104.183594 56.066406 L 108.628906 57.40625 L 111.121094 53 C 112.183594 53.121094 113.261719 53.152344 114.351562 53.09375 L 116.570312 57.652344 L 121.089844 56.59375 L 121.042969 51.523438 C 122.046875 51.089844 123 50.582031 123.894531 50 L 128.089844 52.835938 L 131.472656 49.660156 L 128.898438 45.289062 C 129.539062 44.421875 130.109375 43.503906 130.597656 42.542969 L 135.65625 42.90625 L 136.996094 38.460938 L 132.589844 35.96875 C 132.710938 34.90625 132.742188 33.824219 132.683594 32.734375 L 137.242188 30.519531 L 136.183594 26 L 131.113281 26.046875 C 130.679688 25.042969 130.171875 24.089844 129.589844 23.195312 L 132.425781 19 L 129.246094 15.617188 L 124.878906 18.191406 C 124.011719 17.550781 123.09375 16.980469 122.132812 16.492188 L 122.492188 11.433594 L 118.050781 10.09375 L 115.554688 14.5 C 114.496094 14.378906 113.414062 14.347656 112.324219 14.402344 L 110.109375 9.847656 L 105.589844 10.90625 L 105.632812 15.976562 C 104.632812 16.410156 103.679688 16.917969 102.78125 17.5 L 98.589844 14.664062 L 95.207031 17.84375 L 97.78125 22.210938 C 97.136719 23.078125 96.570312 23.996094 96.078125 24.957031 L 91.019531 24.59375 L 89.679688 29.039062 L 94.085938 31.53125 C 93.964844 32.59375 93.933594 33.675781 93.992188 34.765625 L 89.433594 36.980469 " fill-opacity="1" fill-rule="nonzero"/><path fill="#000000" d="M 112.695312 23.949219 C 109.753906 24.640625 107.257812 26.433594 105.667969 29 C 104.078125 31.566406 103.582031 34.601562 104.273438 37.539062 C 104.964844 40.480469 106.757812 42.976562 109.324219 44.5625 C 111.890625 46.15625 114.925781 46.652344 117.863281 45.960938 C 120.804688 45.269531 123.296875 43.472656 124.886719 40.90625 C 126.476562 38.339844 126.972656 35.308594 126.285156 32.371094 C 125.59375 29.429688 123.800781 26.9375 121.234375 25.34375 C 118.667969 23.753906 115.632812 23.257812 112.695312 23.949219 Z M 115.253906 47.550781 C 112.941406 47.550781 110.664062 46.90625 108.648438 45.65625 C 105.789062 43.886719 103.789062 41.109375 103.023438 37.832031 C 102.253906 34.558594 102.804688 31.179688 104.574219 28.324219 C 106.347656 25.464844 109.125 23.464844 112.398438 22.699219 C 115.671875 21.929688 119.050781 22.480469 121.910156 24.253906 C 124.769531 26.023438 126.765625 28.800781 127.535156 32.074219 C 128.304688 35.347656 127.753906 38.726562 125.980469 41.585938 C 124.210938 44.445312 121.433594 46.441406 118.15625 47.210938 C 117.195312 47.441406 116.222656 47.550781 115.253906 47.550781 Z M 116.292969 53.65625 C 116.539062 53.65625 116.761719 53.796875 116.871094 54.019531 L 118.863281 58.117188 L 122.378906 57.289062 L 122.339844 52.734375 C 122.335938 52.476562 122.492188 52.242188 122.726562 52.136719 C 123.695312 51.71875 124.625 51.222656 125.484375 50.664062 C 125.703125 50.523438 125.980469 50.527344 126.195312 50.671875 L 129.960938 53.21875 L 132.597656 50.746094 L 130.28125 46.820312 C 130.152344 46.597656 130.167969 46.320312 130.320312 46.109375 C 130.941406 45.273438 131.492188 44.378906 131.964844 43.457031 C 132.082031 43.226562 132.332031 43.089844 132.582031 43.105469 L 137.128906 43.429688 L 138.171875 39.972656 L 134.210938 37.734375 C 133.988281 37.605469 133.859375 37.355469 133.890625 37.101562 C 134.007812 36.082031 134.039062 35.03125 133.980469 33.976562 C 133.96875 33.71875 134.109375 33.476562 134.34375 33.363281 L 138.441406 31.367188 L 137.613281 27.851562 L 133.058594 27.894531 C 132.804688 27.890625 132.566406 27.746094 132.460938 27.503906 C 132.042969 26.535156 131.546875 25.605469 130.988281 24.75 C 130.847656 24.535156 130.851562 24.253906 130.996094 24.039062 L 133.542969 20.269531 L 131.070312 17.636719 L 127.144531 19.949219 C 126.921875 20.082031 126.644531 20.066406 126.433594 19.914062 C 125.601562 19.292969 124.707031 18.742188 123.78125 18.265625 C 123.550781 18.152344 123.414062 17.90625 123.429688 17.648438 L 123.753906 13.105469 L 120.296875 12.0625 L 118.054688 16.023438 C 117.929688 16.246094 117.679688 16.371094 117.421875 16.34375 C 116.40625 16.226562 115.355469 16.195312 114.300781 16.25 C 114.042969 16.265625 113.800781 16.121094 113.6875 15.890625 L 111.695312 11.792969 L 108.175781 12.621094 L 108.21875 17.175781 C 108.21875 17.433594 108.066406 17.667969 107.828125 17.769531 C 106.859375 18.191406 105.933594 18.6875 105.074219 19.242188 C 104.855469 19.382812 104.578125 19.382812 104.363281 19.238281 L 100.59375 16.6875 L 97.960938 19.164062 L 100.273438 23.089844 C 100.40625 23.308594 100.390625 23.589844 100.238281 23.796875 C 99.617188 24.632812 99.066406 25.527344 98.59375 26.453125 C 98.476562 26.683594 98.230469 26.820312 97.972656 26.800781 L 93.429688 26.476562 L 92.386719 29.9375 L 96.34375 32.175781 C 96.570312 32.304688 96.699219 32.554688 96.667969 32.8125 C 96.550781 33.828125 96.519531 34.882812 96.574219 35.933594 C 96.589844 36.195312 96.445312 36.433594 96.214844 36.546875 L 92.117188 38.539062 L 92.945312 42.054688 L 97.5 42.015625 C 97.757812 42.011719 97.992188 42.167969 98.09375 42.402344 C 98.515625 43.375 99.007812 44.300781 99.566406 45.160156 C 99.707031 45.375 99.707031 45.65625 99.5625 45.871094 L 97.011719 49.636719 L 99.488281 52.273438 L 103.414062 49.960938 C 103.632812 49.828125 103.914062 49.839844 104.121094 49.996094 C 104.957031 50.617188 105.851562 51.167969 106.777344 51.640625 C 107.007812 51.761719 107.144531 52 107.125 52.257812 L 106.804688 56.804688 L 110.261719 57.847656 L 112.5 53.886719 C 112.628906 53.664062 112.878906 53.535156 113.136719 53.566406 C 114.152344 53.683594 115.203125 53.714844 116.257812 53.65625 C 116.269531 53.65625 116.28125 53.65625 116.292969 53.65625 Z M 118.507812 59.5 C 118.269531 59.5 118.039062 59.363281 117.929688 59.140625 L 115.898438 54.960938 C 115.0625 54.988281 114.230469 54.960938 113.414062 54.886719 L 111.128906 58.929688 C 110.980469 59.191406 110.671875 59.3125 110.382812 59.230469 L 105.9375 57.886719 C 105.652344 57.800781 105.460938 57.527344 105.484375 57.226562 L 105.8125 52.589844 C 105.085938 52.199219 104.378906 51.761719 103.703125 51.28125 L 99.695312 53.640625 C 99.4375 53.792969 99.109375 53.746094 98.902344 53.527344 L 95.722656 50.144531 C 95.519531 49.925781 95.492188 49.59375 95.660156 49.34375 L 98.261719 45.5 C 97.828125 44.804688 97.4375 44.066406 97.089844 43.304688 L 92.441406 43.347656 C 92.140625 43.34375 91.878906 43.140625 91.808594 42.851562 L 90.75 38.332031 C 90.679688 38.039062 90.824219 37.738281 91.09375 37.605469 L 95.273438 35.574219 C 95.246094 34.738281 95.269531 33.90625 95.34375 33.089844 L 91.304688 30.804688 C 91.042969 30.65625 90.917969 30.347656 91.007812 30.058594 L 92.347656 25.613281 C 92.433594 25.328125 92.707031 25.136719 93.007812 25.160156 L 97.644531 25.488281 C 98.035156 24.761719 98.476562 24.054688 98.953125 23.378906 L 96.59375 19.375 C 96.4375 19.113281 96.488281 18.785156 96.707031 18.578125 L 100.089844 15.398438 C 100.308594 15.191406 100.640625 15.167969 100.886719 15.335938 L 104.734375 17.933594 C 105.429688 17.503906 106.167969 17.113281 106.925781 16.765625 L 106.886719 12.117188 C 106.882812 11.816406 107.089844 11.554688 107.382812 11.484375 L 111.902344 10.425781 C 112.191406 10.355469 112.496094 10.5 112.625 10.769531 L 114.660156 14.949219 C 115.496094 14.921875 116.328125 14.945312 117.144531 15.019531 L 119.429688 10.980469 C 119.578125 10.71875 119.886719 10.59375 120.175781 10.683594 L 124.617188 12.019531 C 124.90625 12.109375 125.097656 12.382812 125.074219 12.683594 L 124.742188 17.320312 C 125.472656 17.714844 126.179688 18.152344 126.855469 18.628906 L 130.859375 16.269531 C 131.121094 16.113281 131.449219 16.164062 131.65625 16.382812 L 134.832031 19.761719 C 135.039062 19.984375 135.066406 20.316406 134.898438 20.566406 L 132.296875 24.410156 C 132.726562 25.109375 133.121094 25.839844 133.46875 26.605469 L 138.117188 26.5625 C 138.40625 26.550781 138.679688 26.765625 138.75 27.058594 L 139.808594 31.578125 C 139.878906 31.867188 139.734375 32.167969 139.464844 32.300781 L 135.285156 34.335938 C 135.3125 35.171875 135.289062 36.003906 135.210938 36.820312 L 139.253906 39.105469 C 139.515625 39.25 139.636719 39.5625 139.550781 39.847656 L 138.210938 44.292969 C 138.125 44.582031 137.851562 44.773438 137.550781 44.75 L 132.914062 44.417969 C 132.519531 45.148438 132.082031 45.855469 131.605469 46.53125 L 133.964844 50.535156 C 134.117188 50.792969 134.070312 51.125 133.851562 51.332031 L 130.46875 54.507812 C 130.25 54.714844 129.917969 54.742188 129.667969 54.574219 L 125.824219 51.972656 C 125.125 52.402344 124.390625 52.796875 123.628906 53.144531 L 123.671875 57.792969 C 123.675781 58.09375 123.46875 58.355469 123.175781 58.421875 L 118.65625 59.484375 C 118.609375 59.496094 118.558594 59.5 118.507812 59.5 " fill-opacity="1" fill-rule="nonzero"/><path fill="#95c251" d="M 48.421875 54.320312 C 59.414062 51.738281 70.417969 58.558594 73 69.550781 C 75.582031 80.542969 68.761719 91.542969 57.769531 94.125 C 46.777344 96.707031 35.773438 89.890625 33.191406 78.898438 C 30.609375 67.90625 37.429688 56.902344 48.421875 54.320312 Z M 12.191406 79.75 L 14.007812 87.484375 L 22.679688 87.40625 C 23.421875 89.121094 24.292969 90.753906 25.289062 92.289062 L 20.433594 99.464844 L 25.875 105.25 L 33.347656 100.847656 C 34.832031 101.945312 36.402344 102.917969 38.046875 103.757812 L 37.429688 112.410156 L 45.035156 114.707031 L 49.300781 107.164062 C 51.117188 107.375 52.964844 107.425781 54.832031 107.328125 L 58.625 115.128906 L 66.355469 113.3125 L 66.277344 104.636719 C 67.992188 103.898438 69.625 103.027344 71.160156 102.03125 L 78.335938 106.882812 L 84.125 101.445312 L 79.71875 93.96875 C 80.816406 92.488281 81.789062 90.917969 82.628906 89.273438 L 91.285156 89.886719 L 93.578125 82.285156 L 86.035156 78.019531 C 86.246094 76.203125 86.300781 74.351562 86.199219 72.488281 L 94 68.695312 L 92.183594 60.964844 L 83.511719 61.039062 C 82.769531 59.324219 81.898438 57.691406 80.902344 56.160156 L 85.753906 48.980469 L 80.316406 43.195312 L 72.839844 47.597656 C 71.359375 46.503906 69.789062 45.527344 68.144531 44.6875 L 68.757812 36.035156 L 61.15625 33.742188 L 56.890625 41.28125 C 55.074219 41.074219 53.226562 41.019531 51.359375 41.117188 L 47.566406 33.320312 L 39.835938 35.136719 L 39.914062 43.808594 C 38.195312 44.550781 36.566406 45.421875 35.03125 46.417969 L 27.855469 41.5625 L 22.066406 47 L 26.472656 54.476562 C 25.371094 55.960938 24.398438 57.53125 23.5625 59.175781 L 14.90625 58.558594 L 12.613281 66.164062 L 20.15625 70.425781 C 19.945312 72.246094 19.890625 74.09375 19.992188 75.960938 L 12.191406 79.75 " fill-opacity="1" fill-rule="nonzero"/><path fill="#000000" d="M 56.453125 56.472656 C 54.933594 56.472656 53.40625 56.644531 51.890625 57.003906 C 41.257812 59.5 34.644531 70.175781 37.140625 80.808594 C 39.636719 91.4375 50.316406 98.054688 60.945312 95.558594 C 66.09375 94.347656 70.464844 91.203125 73.25 86.707031 C 76.035156 82.214844 76.902344 76.898438 75.695312 71.75 C 74.484375 66.601562 71.34375 62.230469 66.847656 59.445312 C 63.675781 57.480469 60.09375 56.472656 56.453125 56.472656 Z M 56.417969 97.371094 C 46.851562 97.371094 38.167969 90.808594 35.886719 81.101562 C 33.230469 69.78125 40.273438 58.410156 51.59375 55.75 C 57.078125 54.464844 62.734375 55.386719 67.523438 58.351562 C 72.3125 61.320312 75.660156 65.972656 76.945312 71.457031 C 78.234375 76.941406 77.308594 82.597656 74.34375 87.386719 C 71.375 92.175781 66.722656 95.519531 61.238281 96.808594 C 59.625 97.1875 58.007812 97.371094 56.417969 97.371094 Z M 58.152344 108.738281 C 58.398438 108.738281 58.625 108.878906 58.730469 109.101562 L 62.300781 116.441406 L 69.03125 114.859375 L 68.957031 106.699219 C 68.957031 106.441406 69.109375 106.207031 69.347656 106.101562 C 71.027344 105.378906 72.636719 104.515625 74.128906 103.546875 C 74.347656 103.40625 74.625 103.410156 74.839844 103.554688 L 81.59375 108.117188 L 86.628906 103.382812 L 82.488281 96.351562 C 82.355469 96.128906 82.371094 95.851562 82.523438 95.644531 C 83.597656 94.191406 84.558594 92.644531 85.378906 91.039062 C 85.496094 90.808594 85.746094 90.667969 85.996094 90.6875 L 94.140625 91.265625 L 96.136719 84.644531 L 89.042969 80.632812 C 88.816406 80.507812 88.691406 80.257812 88.71875 80.003906 C 88.921875 78.234375 88.976562 76.40625 88.878906 74.578125 C 88.863281 74.320312 89.007812 74.078125 89.238281 73.964844 L 96.578125 70.398438 L 94.996094 63.667969 L 86.835938 63.738281 C 86.5625 63.738281 86.34375 63.585938 86.242188 63.351562 C 85.515625 61.667969 84.652344 60.058594 83.683594 58.566406 C 83.542969 58.347656 83.546875 58.070312 83.691406 57.855469 L 88.257812 51.105469 L 83.523438 46.066406 L 76.488281 50.210938 C 76.269531 50.339844 75.988281 50.324219 75.78125 50.171875 C 74.332031 49.097656 72.78125 48.136719 71.171875 47.316406 C 70.945312 47.199219 70.804688 46.957031 70.824219 46.699219 L 71.402344 38.558594 L 64.785156 36.5625 L 60.773438 43.65625 C 60.644531 43.878906 60.394531 44.007812 60.140625 43.980469 C 58.371094 43.773438 56.546875 43.71875 54.714844 43.820312 C 54.460938 43.832031 54.214844 43.691406 54.101562 43.457031 L 50.535156 36.117188 L 43.804688 37.699219 L 43.875 45.859375 C 43.878906 46.117188 43.726562 46.351562 43.488281 46.453125 C 41.804688 47.183594 40.195312 48.042969 38.703125 49.011719 C 38.488281 49.152344 38.207031 49.148438 37.992188 49.007812 L 31.242188 44.441406 L 26.203125 49.175781 L 30.347656 56.207031 C 30.480469 56.429688 30.464844 56.710938 30.308594 56.914062 C 29.238281 58.367188 28.277344 59.914062 27.457031 61.523438 C 27.339844 61.753906 27.09375 61.890625 26.835938 61.871094 L 18.695312 61.292969 L 16.699219 67.910156 L 23.792969 71.925781 C 24.015625 72.050781 24.144531 72.300781 24.117188 72.558594 C 23.910156 74.328125 23.859375 76.152344 23.957031 77.980469 C 23.96875 78.238281 23.828125 78.480469 23.59375 78.59375 L 16.257812 82.164062 L 17.835938 88.894531 L 25.996094 88.820312 C 26.257812 88.816406 26.492188 88.972656 26.59375 89.207031 C 27.320312 90.890625 28.179688 92.5 29.148438 93.992188 C 29.289062 94.210938 29.289062 94.492188 29.144531 94.703125 L 24.578125 101.453125 L 29.3125 106.492188 L 36.34375 102.347656 C 36.566406 102.21875 36.847656 102.234375 37.054688 102.386719 C 38.503906 103.460938 40.054688 104.421875 41.660156 105.238281 C 41.890625 105.359375 42.027344 105.601562 42.007812 105.859375 L 41.429688 114 L 48.050781 115.996094 L 52.0625 108.90625 C 52.1875 108.679688 52.441406 108.554688 52.695312 108.582031 C 54.464844 108.785156 56.289062 108.839844 58.117188 108.742188 C 58.128906 108.738281 58.140625 108.738281 58.152344 108.738281 Z M 61.945312 117.828125 C 61.703125 117.828125 61.476562 117.691406 61.367188 117.464844 L 57.761719 110.042969 C 56.148438 110.113281 54.542969 110.066406 52.972656 109.90625 L 48.917969 117.078125 C 48.769531 117.339844 48.460938 117.464844 48.171875 117.375 L 40.566406 115.085938 C 40.277344 114.996094 40.089844 114.722656 40.113281 114.421875 L 40.695312 106.191406 C 39.289062 105.449219 37.925781 104.605469 36.632812 103.671875 L 29.523438 107.863281 C 29.265625 108.015625 28.933594 107.96875 28.726562 107.746094 L 23.289062 101.960938 C 23.082031 101.742188 23.054688 101.40625 23.222656 101.160156 L 27.839844 94.332031 C 27 93 26.242188 91.582031 25.585938 90.109375 L 17.335938 90.183594 C 17.023438 90.171875 16.769531 89.980469 16.703125 89.6875 L 14.886719 81.953125 C 14.816406 81.664062 14.960938 81.363281 15.230469 81.230469 L 22.652344 77.621094 C 22.585938 76.007812 22.632812 74.402344 22.792969 72.835938 L 15.617188 68.78125 C 15.355469 68.632812 15.230469 68.320312 15.320312 68.03125 L 17.613281 60.429688 C 17.699219 60.140625 17.972656 59.953125 18.273438 59.972656 L 26.507812 60.558594 C 27.25 59.148438 28.09375 57.785156 29.023438 56.496094 L 24.835938 49.382812 C 24.683594 49.125 24.730469 48.796875 24.949219 48.589844 L 30.738281 43.152344 C 30.957031 42.945312 31.289062 42.917969 31.539062 43.085938 L 38.363281 47.703125 C 39.695312 46.863281 41.113281 46.105469 42.585938 45.445312 L 42.515625 37.199219 C 42.511719 36.898438 42.71875 36.636719 43.011719 36.5625 L 50.742188 34.746094 C 51.035156 34.679688 51.335938 34.824219 51.464844 35.09375 L 55.074219 42.511719 C 56.6875 42.445312 58.292969 42.496094 59.863281 42.65625 L 63.917969 35.480469 C 64.066406 35.21875 64.375 35.09375 64.664062 35.183594 L 72.269531 37.472656 C 72.554688 37.5625 72.742188 37.835938 72.722656 38.136719 L 72.136719 46.367188 C 73.546875 47.109375 74.910156 47.957031 76.203125 48.886719 L 83.3125 44.695312 C 83.570312 44.546875 83.902344 44.59375 84.109375 44.808594 L 89.546875 50.597656 C 89.75 50.816406 89.777344 51.148438 89.609375 51.398438 L 84.992188 58.222656 C 85.835938 59.558594 86.59375 60.976562 87.25 62.449219 L 95.5 62.378906 C 95.503906 62.378906 95.503906 62.378906 95.507812 62.378906 C 95.804688 62.378906 96.0625 62.582031 96.132812 62.871094 L 97.949219 70.601562 C 98.015625 70.898438 97.875 71.199219 97.601562 71.328125 L 90.183594 74.9375 C 90.25 76.550781 90.203125 78.15625 90.042969 79.722656 L 97.214844 83.78125 C 97.476562 83.929688 97.601562 84.238281 97.515625 84.523438 L 95.222656 92.128906 C 95.136719 92.417969 94.863281 92.605469 94.558594 92.585938 L 86.328125 92 C 85.585938 93.410156 84.742188 94.773438 83.808594 96.066406 L 88 103.175781 C 88.152344 103.433594 88.105469 103.761719 87.886719 103.96875 L 82.097656 109.410156 C 81.878906 109.613281 81.546875 109.640625 81.296875 109.472656 L 74.472656 104.855469 C 73.136719 105.695312 71.722656 106.453125 70.246094 107.113281 L 70.320312 115.363281 C 70.324219 115.664062 70.117188 115.925781 69.824219 115.992188 L 62.09375 117.808594 C 62.042969 117.824219 61.996094 117.828125 61.945312 117.828125 " fill-opacity="1" fill-rule="nonzero"/><path fill="#000000" d="M 148.613281 74.941406 C 148.445312 74.941406 148.285156 74.875 148.15625 74.75 C 147.90625 74.5 147.90625 74.09375 148.15625 73.839844 L 183.367188 38.632812 C 186.542969 35.457031 191.710938 35.457031 194.886719 38.632812 C 196.183594 39.925781 197.90625 40.644531 199.738281 40.644531 C 201.570312 40.644531 203.292969 39.925781 204.589844 38.632812 L 216.648438 26.574219 C 216.902344 26.324219 217.304688 26.324219 217.558594 26.574219 C 217.808594 26.824219 217.808594 27.230469 217.558594 27.484375 L 205.5 39.539062 C 203.960938 41.082031 201.914062 41.929688 199.738281 41.929688 C 197.5625 41.929688 195.515625 41.082031 193.980469 39.539062 C 191.304688 36.867188 186.953125 36.867188 184.277344 39.539062 L 149.066406 74.75 C 148.941406 74.875 148.777344 74.941406 148.613281 74.941406 " fill-opacity="1" fill-rule="nonzero"/><path fill="#000000" d="M 196.886719 64.601562 C 196.722656 64.601562 196.558594 64.539062 196.429688 64.414062 C 196.179688 64.164062 196.179688 63.757812 196.429688 63.503906 L 208.007812 51.929688 C 208.257812 51.679688 208.664062 51.679688 208.917969 51.929688 C 209.167969 52.179688 209.167969 52.589844 208.917969 52.839844 L 197.339844 64.414062 C 197.214844 64.539062 197.050781 64.601562 196.886719 64.601562 " fill-opacity="1" fill-rule="nonzero"/><path fill="#000000" d="M 182.03125 67.210938 C 179.417969 67.210938 177.296875 65.089844 177.296875 62.480469 C 177.296875 59.875 179.417969 57.753906 182.03125 57.753906 C 182.382812 57.753906 182.671875 58.042969 182.671875 58.398438 C 182.671875 58.753906 182.382812 59.039062 182.03125 59.039062 C 180.128906 59.039062 178.578125 60.582031 178.578125 62.480469 C 178.578125 64.378906 180.128906 65.925781 182.03125 65.925781 C 183.929688 65.925781 185.480469 64.378906 185.480469 62.480469 C 185.480469 62.128906 185.765625 61.839844 186.121094 61.839844 C 186.472656 61.839844 186.765625 62.128906 186.765625 62.480469 C 186.765625 65.089844 184.636719 67.210938 182.03125 67.210938 " fill-opacity="1" fill-rule="nonzero"/><path fill="#000000" d="M 221.9375 19.175781 C 220.839844 19.667969 220.339844 20.988281 220.824219 22.113281 C 221.0625 22.660156 221.492188 23.082031 222.039062 23.292969 C 222.570312 23.5 223.148438 23.484375 223.671875 23.25 C 224.769531 22.753906 225.269531 21.441406 224.785156 20.3125 C 224.546875 19.765625 224.117188 19.34375 223.570312 19.132812 C 223.039062 18.925781 222.457031 18.941406 221.9375 19.175781 Z M 222.808594 24.722656 C 222.390625 24.722656 221.972656 24.648438 221.574219 24.492188 C 220.703125 24.15625 220.019531 23.488281 219.648438 22.621094 C 218.886719 20.855469 219.675781 18.78125 221.410156 18 C 222.25 17.628906 223.179688 17.601562 224.035156 17.933594 C 224.90625 18.273438 225.589844 18.933594 225.960938 19.804688 C 226.722656 21.570312 225.933594 23.644531 224.199219 24.421875 C 223.75 24.621094 223.28125 24.722656 222.808594 24.722656 " fill-opacity="1" fill-rule="nonzero"/><path fill="#000000" d="M 112.15625 350.019531 C 111.992188 350.019531 111.828125 349.957031 111.703125 349.832031 C 111.449219 349.578125 111.449219 349.175781 111.703125 348.921875 L 167.675781 292.949219 C 167.929688 292.699219 168.335938 292.699219 168.585938 292.949219 C 168.835938 293.199219 168.835938 293.605469 168.585938 293.855469 L 112.613281 349.832031 C 112.484375 349.957031 112.320312 350.019531 112.15625 350.019531 " fill-opacity="1" fill-rule="nonzero"/><path fill="#000000" d="M 132.679688 309.820312 C 132.515625 309.820312 132.347656 309.753906 132.222656 309.628906 C 131.972656 309.378906 131.972656 308.972656 132.222656 308.722656 L 171.417969 269.527344 C 171.667969 269.273438 172.078125 269.273438 172.328125 269.527344 C 172.578125 269.777344 172.578125 270.1875 172.328125 270.4375 L 133.132812 309.628906 C 133.007812 309.753906 132.84375 309.820312 132.679688 309.820312 " fill-opacity="1" fill-rule="nonzero"/><path fill="#000000" d="M 22.582031 163.550781 C 22.421875 163.550781 22.261719 163.492188 22.136719 163.371094 C 21.882812 163.125 21.875 162.714844 22.121094 162.460938 L 52.523438 130.9375 C 52.769531 130.683594 53.175781 130.675781 53.429688 130.921875 C 53.6875 131.167969 53.695312 131.578125 53.449219 131.832031 L 23.046875 163.351562 C 22.921875 163.484375 22.75 163.550781 22.582031 163.550781 " fill-opacity="1" fill-rule="nonzero"/><path fill="#95c251" d="M 335.753906 363.683594 L 187.050781 363.683594 C 178.121094 363.683594 171.445312 355.492188 173.242188 346.746094 L 195.804688 237.078125 C 197.703125 227.855469 205.820312 221.234375 215.234375 221.234375 L 342.789062 221.234375 L 335.753906 363.683594 " fill-opacity="1" fill-rule="nonzero"/><path fill="#000000" d="M 215.234375 221.878906 C 206.167969 221.878906 198.257812 228.328125 196.433594 237.207031 L 173.871094 346.878906 C 173.054688 350.855469 174.054688 354.941406 176.621094 358.089844 C 179.1875 361.234375 182.988281 363.039062 187.046875 363.039062 L 335.140625 363.039062 L 342.113281 221.878906 Z M 335.753906 364.324219 L 187.046875 364.324219 C 182.601562 364.324219 178.4375 362.351562 175.625 358.898438 C 172.816406 355.453125 171.714844 350.976562 172.613281 346.617188 L 195.171875 236.949219 C 197.121094 227.472656 205.558594 220.59375 215.234375 220.59375 L 342.789062 220.59375 C 342.964844 220.59375 343.128906 220.667969 343.25 220.792969 C 343.375 220.921875 343.4375 221.09375 343.429688 221.269531 L 336.394531 363.714844 C 336.378906 364.058594 336.09375 364.324219 335.753906 364.324219 " fill-opacity="1" fill-rule="nonzero"/><path fill="#1d5f31" d="M 354.792969 363.683594 L 325.933594 363.683594 C 317.007812 363.683594 310.328125 355.492188 312.128906 346.746094 L 336.976562 225.953125 C 337.542969 223.207031 339.960938 221.238281 342.761719 221.238281 L 350.1875 221.238281 C 353.257812 221.238281 355.824219 223.597656 356.074219 226.664062 L 366.238281 351.265625 C 366.785156 357.953125 361.503906 363.683594 354.792969 363.683594 " fill-opacity="1" fill-rule="nonzero"/><path fill="#000000" d="M 342.765625 221.878906 C 340.277344 221.878906 338.109375 223.648438 337.609375 226.082031 L 312.761719 346.875 C 311.941406 350.851562 312.941406 354.941406 315.507812 358.089844 C 318.074219 361.234375 321.878906 363.039062 325.933594 363.039062 L 354.792969 363.039062 C 357.855469 363.039062 360.6875 361.800781 362.765625 359.546875 C 364.839844 357.292969 365.847656 354.371094 365.597656 351.320312 L 355.433594 226.714844 C 355.214844 224.003906 352.90625 221.878906 350.1875 221.878906 Z M 354.792969 364.324219 L 325.933594 364.324219 C 321.488281 364.324219 317.324219 362.351562 314.511719 358.898438 C 311.703125 355.453125 310.605469 350.976562 311.5 346.617188 L 336.347656 225.824219 C 336.972656 222.792969 339.671875 220.59375 342.765625 220.59375 L 350.1875 220.59375 C 353.570312 220.59375 356.441406 223.234375 356.714844 226.613281 L 366.878906 351.214844 C 367.152344 354.578125 366 357.933594 363.707031 360.417969 C 361.421875 362.902344 358.171875 364.324219 354.792969 364.324219 " fill-opacity="1" fill-rule="nonzero"/><path fill="#000000" d="M 345.597656 360.039062 L 325.933594 360.039062 C 322.777344 360.039062 319.828125 358.636719 317.832031 356.191406 C 315.839844 353.746094 315.058594 350.570312 315.699219 347.480469 L 323.855469 307.828125 C 323.925781 307.484375 324.265625 307.257812 324.613281 307.328125 C 324.960938 307.402344 325.183594 307.742188 325.113281 308.089844 L 316.957031 347.742188 C 316.402344 350.453125 317.082031 353.234375 318.828125 355.378906 C 320.578125 357.523438 323.164062 358.753906 325.933594 358.753906 L 345.597656 358.753906 C 345.949219 358.753906 346.238281 359.042969 346.238281 359.398438 C 346.238281 359.75 345.949219 360.039062 345.597656 360.039062 " fill-opacity="1" fill-rule="nonzero"/><path fill="#000000" d="M 354.792969 360.039062 C 354.433594 360.039062 354.148438 359.75 354.148438 359.398438 C 354.148438 359.042969 354.433594 358.753906 354.792969 358.753906 C 356.644531 358.753906 358.355469 358.003906 359.609375 356.644531 C 360.867188 355.28125 361.472656 353.511719 361.324219 351.667969 L 359.003906 323.269531 C 358.976562 322.917969 359.242188 322.605469 359.59375 322.578125 C 359.949219 322.550781 360.257812 322.8125 360.289062 323.167969 L 362.605469 351.5625 C 362.785156 353.769531 362.058594 355.886719 360.554688 357.515625 C 359.054688 359.144531 357.003906 360.039062 354.792969 360.039062 " fill-opacity="1" fill-rule="nonzero"/><path fill="#000000" d="M 353.203125 244.839844 C 352.871094 244.839844 352.589844 244.585938 352.558594 244.246094 L 352.078125 238.328125 C 352.050781 237.976562 352.3125 237.664062 352.667969 237.636719 C 353.023438 237.605469 353.332031 237.871094 353.359375 238.226562 L 353.84375 244.140625 C 353.871094 244.496094 353.609375 244.808594 353.257812 244.835938 C 353.238281 244.835938 353.21875 244.839844 353.203125 244.839844 " fill-opacity="1" fill-rule="nonzero"/><path fill="#000000" d="M 334.363281 260.585938 C 334.320312 260.585938 334.277344 260.582031 334.230469 260.574219 C 333.882812 260.503906 333.660156 260.164062 333.730469 259.8125 L 340.546875 226.6875 C 340.761719 225.640625 341.691406 224.878906 342.761719 224.878906 L 350.183594 224.878906 C 351.355469 224.878906 352.347656 225.792969 352.441406 226.960938 L 352.757812 230.835938 C 352.785156 231.191406 352.523438 231.5 352.167969 231.53125 C 351.808594 231.558594 351.503906 231.292969 351.472656 230.941406 L 351.15625 227.066406 C 351.117188 226.5625 350.6875 226.167969 350.183594 226.167969 L 342.761719 226.167969 C 342.300781 226.167969 341.898438 226.496094 341.808594 226.949219 L 334.992188 260.074219 C 334.929688 260.378906 334.660156 260.585938 334.363281 260.585938 " fill-opacity="1" fill-rule="nonzero"/><path fill="#000000" d="M 315.492188 279.445312 L 199.0625 279.445312 C 198.707031 279.445312 198.417969 279.160156 198.417969 278.804688 C 198.417969 278.449219 198.707031 278.160156 199.0625 278.160156 L 315.492188 278.160156 C 318.660156 278.160156 321.382812 276.007812 322.113281 272.925781 L 332.375 229.601562 C 332.457031 229.253906 332.804688 229.042969 333.148438 229.121094 C 333.496094 229.203125 333.710938 229.550781 333.625 229.898438 L 323.363281 273.222656 C 322.496094 276.886719 319.261719 279.445312 315.492188 279.445312 " fill-opacity="1" fill-rule="nonzero"/><path fill="#ffffff" d="M 270.554688 278.804688 L 267.292969 291.960938 C 266.769531 294.183594 264.78125 295.757812 262.492188 295.757812 L 239.433594 295.757812 C 236.921875 295.757812 235.101562 293.363281 235.777344 290.945312 L 239.152344 278.804688 L 270.554688 278.804688 " fill-opacity="1" fill-rule="nonzero"/><path fill="#000000" d="M 239.640625 279.445312 L 236.394531 291.117188 C 236.128906 292.074219 236.320312 293.078125 236.921875 293.871094 C 237.523438 294.660156 238.4375 295.117188 239.433594 295.117188 L 262.492188 295.117188 C 264.492188 295.117188 266.207031 293.757812 266.667969 291.8125 L 269.734375 279.445312 Z M 262.492188 296.402344 L 239.433594 296.402344 C 238.03125 296.402344 236.742188 295.761719 235.898438 294.648438 C 235.050781 293.535156 234.78125 292.121094 235.15625 290.773438 L 238.535156 278.632812 C 238.609375 278.355469 238.863281 278.164062 239.152344 278.164062 L 270.554688 278.164062 C 270.753906 278.164062 270.9375 278.253906 271.0625 278.410156 C 271.183594 278.5625 271.226562 278.769531 271.179688 278.960938 L 267.917969 292.117188 C 267.320312 294.636719 265.089844 296.402344 262.492188 296.402344 " fill-opacity="1" fill-rule="nonzero"/><path fill="#000000" d="M 304.867188 353.308594 L 181.175781 353.308594 C 180.820312 353.308594 180.53125 353.019531 180.53125 352.664062 C 180.53125 352.3125 180.820312 352.019531 181.175781 352.019531 L 304.867188 352.019531 C 305.222656 352.019531 305.511719 352.3125 305.511719 352.664062 C 305.511719 353.019531 305.222656 353.308594 304.867188 353.308594 " fill-opacity="1" fill-rule="nonzero"/><path fill="#1d5f31" d="M 244.617188 216.257812 L 234.960938 216.257812 C 232.351562 216.257812 230.238281 218.375 230.238281 220.984375 L 249.339844 220.984375 C 249.339844 218.375 247.222656 216.257812 244.617188 216.257812 " fill-opacity="1" fill-rule="nonzero"/><path fill="#000000" d="M 230.933594 220.339844 L 248.644531 220.339844 C 248.335938 218.394531 246.648438 216.902344 244.617188 216.902344 L 234.960938 216.902344 C 232.929688 216.902344 231.242188 218.394531 230.933594 220.339844 Z M 249.339844 221.625 L 230.238281 221.625 C 229.882812 221.625 229.59375 221.339844 229.59375 220.984375 C 229.59375 218.023438 232 215.613281 234.960938 215.613281 L 244.617188 215.613281 C 247.574219 215.613281 249.980469 218.023438 249.980469 220.984375 C 249.980469 221.339844 249.695312 221.625 249.339844 221.625 " fill-opacity="1" fill-rule="nonzero"/><path fill="#1d5f31" d="M 321.996094 216.257812 L 312.34375 216.257812 C 309.734375 216.257812 307.621094 218.371094 307.621094 220.980469 L 326.71875 220.980469 C 326.71875 218.371094 324.605469 216.257812 321.996094 216.257812 " fill-opacity="1" fill-rule="nonzero"/><path fill="#000000" d="M 308.3125 220.339844 L 326.027344 220.339844 C 325.714844 218.394531 324.027344 216.902344 321.996094 216.902344 L 312.339844 216.902344 C 310.308594 216.902344 308.621094 218.394531 308.3125 220.339844 Z M 326.71875 221.625 L 307.617188 221.625 C 307.261719 221.625 306.976562 221.339844 306.976562 220.984375 C 306.976562 218.023438 309.382812 215.617188 312.339844 215.617188 L 321.996094 215.617188 C 324.953125 215.617188 327.363281 218.023438 327.363281 220.984375 C 327.363281 221.339844 327.074219 221.625 326.71875 221.625 " fill-opacity="1" fill-rule="nonzero"/><path fill="#ffffff" d="M 319.476562 216.003906 L 321.03125 206.761719 C 322.132812 200.207031 317.714844 194.894531 311.164062 194.894531 L 253.265625 194.894531 C 246.710938 194.894531 240.503906 200.207031 239.398438 206.761719 L 237.84375 216.003906 L 242.277344 216.003906 L 243.488281 208.8125 C 244.34375 203.710938 249.175781 199.574219 254.277344 199.574219 L 308.574219 199.574219 C 313.675781 199.574219 317.113281 203.710938 316.257812 208.8125 L 315.042969 216.003906 L 319.476562 216.003906 " fill-opacity="1" fill-rule="nonzero"/><path fill="#000000" d="M 315.804688 215.359375 L 318.929688 215.359375 L 320.398438 206.65625 C 320.902344 203.644531 320.207031 200.828125 318.425781 198.726562 C 316.6875 196.671875 314.109375 195.539062 311.164062 195.539062 L 253.265625 195.539062 C 247.019531 195.539062 241.085938 200.621094 240.035156 206.871094 L 238.605469 215.359375 L 241.730469 215.359375 L 242.851562 208.707031 C 243.761719 203.316406 248.882812 198.933594 254.277344 198.933594 L 308.574219 198.933594 C 311.207031 198.933594 313.527344 199.957031 315.105469 201.820312 C 316.707031 203.714844 317.339844 206.238281 316.890625 208.917969 Z M 319.472656 216.648438 L 315.042969 216.648438 C 314.855469 216.648438 314.675781 216.5625 314.554688 216.421875 C 314.433594 216.273438 314.378906 216.085938 314.410156 215.898438 L 315.621094 208.707031 C 316.007812 206.402344 315.476562 204.253906 314.121094 202.652344 C 312.796875 201.082031 310.824219 200.21875 308.574219 200.21875 L 254.277344 200.21875 C 249.484375 200.21875 244.929688 204.121094 244.121094 208.917969 L 242.910156 216.113281 C 242.859375 216.421875 242.589844 216.648438 242.273438 216.648438 L 237.84375 216.648438 C 237.65625 216.648438 237.476562 216.5625 237.355469 216.421875 C 237.230469 216.273438 237.179688 216.085938 237.207031 215.898438 L 238.765625 206.65625 C 239.917969 199.816406 246.421875 194.253906 253.265625 194.253906 L 311.164062 194.253906 C 314.492188 194.253906 317.421875 195.546875 319.410156 197.898438 C 321.433594 200.292969 322.234375 203.480469 321.664062 206.871094 L 320.109375 216.113281 C 320.058594 216.421875 319.789062 216.648438 319.472656 216.648438 " fill-opacity="1" fill-rule="nonzero"/><path fill="#95c251" d="M 308.285156 191.070312 L 257.429688 191.070312 C 255.378906 191.070312 253.4375 192.730469 253.09375 194.78125 L 252.347656 199.222656 C 252 201.273438 253.382812 202.933594 255.429688 202.933594 L 306.289062 202.933594 C 308.335938 202.933594 310.277344 201.273438 310.625 199.222656 L 311.375 194.78125 C 311.71875 192.730469 310.335938 191.070312 308.285156 191.070312 " fill-opacity="1" fill-rule="nonzero"/><path fill="#000000" d="M 257.429688 191.714844 C 255.683594 191.714844 254.023438 193.136719 253.726562 194.886719 L 252.980469 199.328125 C 252.84375 200.140625 253.027344 200.894531 253.5 201.453125 C 253.957031 201.992188 254.644531 202.289062 255.433594 202.289062 L 306.289062 202.289062 C 308.035156 202.289062 309.699219 200.867188 309.992188 199.113281 L 310.742188 194.675781 C 310.875 193.863281 310.691406 193.109375 310.222656 192.554688 C 309.765625 192.007812 309.078125 191.714844 308.289062 191.714844 Z M 306.289062 203.578125 L 255.433594 203.578125 C 254.257812 203.578125 253.222656 203.117188 252.515625 202.28125 C 251.796875 201.429688 251.511719 200.308594 251.710938 199.113281 L 252.460938 194.675781 C 252.855469 192.332031 255.085938 190.425781 257.429688 190.425781 L 308.289062 190.425781 C 309.460938 190.425781 310.496094 190.886719 311.203125 191.722656 C 311.921875 192.574219 312.207031 193.699219 312.007812 194.886719 L 311.261719 199.328125 C 310.867188 201.671875 308.636719 203.578125 306.289062 203.578125 " fill-opacity="1" fill-rule="nonzero"/><path fill="#95c251" d="M 325.660156 353.308594 C 325.4375 353.308594 325.21875 353.191406 325.101562 352.984375 C 324.925781 352.675781 325.035156 352.28125 325.34375 352.109375 L 344.953125 340.933594 L 344.953125 229.75 C 344.953125 229.394531 345.238281 229.105469 345.597656 229.105469 C 345.949219 229.105469 346.238281 229.394531 346.238281 229.75 L 346.238281 341.308594 C 346.238281 341.539062 346.113281 341.753906 345.914062 341.867188 L 325.980469 353.222656 C 325.878906 353.28125 325.769531 353.308594 325.660156 353.308594 " fill-opacity="1" fill-rule="nonzero"/></svg>