<svg xmlns="http://www.w3.org/2000/svg" xmlns:xlink="http://www.w3.org/1999/xlink" width="500" zoomAndPan="magnify" viewBox="0 0 375 374.999991" height="500" preserveAspectRatio="xMidYMid meet" version="1.0"><path fill="#e9f1dc" d="M 220.152344 9.078125 C 137.8125 -6.210938 75.085938 50.960938 70.4375 55.339844 C 63.066406 62.277344 9.722656 108.585938 11.304688 190.410156 C 13.867188 323.046875 64.046875 343.714844 100.074219 353.617188 C 126.628906 360.914062 350.035156 401.152344 366.40625 215.140625 C 374.988281 117.660156 308.675781 25.519531 220.152344 9.078125 " fill-opacity="1" fill-rule="nonzero"/><path fill="#1d5f31" d="M 367.253906 304.152344 L 358.164062 308.738281 L 46.792969 249.691406 L 44.964844 27.53125 L 54.054688 22.769531 L 367.253906 80.710938 L 367.253906 304.152344 " fill-opacity="1" fill-rule="nonzero"/><path fill="#95c251" d="M 358.164062 308.738281 L 44.964844 250.800781 L 44.964844 27.535156 L 358.164062 85.476562 L 358.164062 308.738281 " fill-opacity="1" fill-rule="nonzero"/><path fill="#e9f1dc" d="M 359.652344 85.300781 C 359.417969 85.300781 359.195312 85.175781 359.078125 84.957031 C 358.914062 84.640625 359.039062 84.25 359.351562 84.085938 L 364.492188 81.398438 C 364.808594 81.234375 365.199219 81.355469 365.363281 81.671875 C 365.527344 81.988281 365.40625 82.378906 365.089844 82.542969 L 359.949219 85.230469 C 359.851562 85.277344 359.753906 85.300781 359.652344 85.300781 " fill-opacity="1" fill-rule="nonzero"/><path fill="#ffffff" d="M 221.734375 149.949219 L 34.335938 115.167969 C 33.519531 115.015625 32.929688 114.308594 32.929688 113.476562 L 32.929688 11.277344 C 32.929688 10.203125 33.90625 9.390625 34.960938 9.589844 L 222.359375 44.363281 C 223.175781 44.515625 223.765625 45.230469 223.765625 46.054688 L 223.765625 148.257812 C 223.765625 149.332031 222.792969 150.144531 221.734375 149.949219 " fill-opacity="1" fill-rule="nonzero"/><path fill="#000000" d="M 34.648438 10.203125 C 34.398438 10.203125 34.15625 10.289062 33.960938 10.449219 C 33.714844 10.65625 33.574219 10.957031 33.574219 11.277344 L 33.574219 113.476562 C 33.574219 113.996094 33.941406 114.441406 34.453125 114.535156 L 221.851562 149.316406 C 222.167969 149.371094 222.488281 149.289062 222.734375 149.082031 C 222.980469 148.878906 223.121094 148.574219 223.121094 148.253906 L 223.121094 46.054688 C 223.121094 45.539062 222.753906 45.09375 222.246094 45 L 34.84375 10.21875 C 34.777344 10.207031 34.710938 10.203125 34.648438 10.203125 Z M 222.050781 150.625 C 221.90625 150.625 221.761719 150.605469 221.617188 150.582031 L 34.214844 115.800781 C 33.097656 115.59375 32.285156 114.617188 32.285156 113.476562 L 32.285156 11.277344 C 32.285156 10.574219 32.59375 9.910156 33.136719 9.460938 C 33.679688 9.007812 34.386719 8.824219 35.078125 8.953125 L 222.480469 43.734375 C 223.597656 43.941406 224.414062 44.917969 224.414062 46.054688 L 224.414062 148.253906 C 224.414062 148.960938 224.101562 149.625 223.558594 150.074219 C 223.128906 150.429688 222.597656 150.625 222.050781 150.625 " fill-opacity="1" fill-rule="nonzero"/><path fill="#e9f1dc" d="M 209.71875 136.5625 L 200.113281 134.808594 C 199.136719 134.632812 198.425781 133.78125 198.425781 132.789062 L 198.425781 78.089844 C 198.425781 76.808594 199.589844 75.839844 200.851562 76.070312 L 210.457031 77.824219 C 211.433594 78.003906 212.140625 78.851562 212.140625 79.84375 L 212.140625 134.542969 C 212.140625 135.824219 210.980469 136.792969 209.71875 136.5625 " fill-opacity="1" fill-rule="nonzero"/><path fill="#e9f1dc" d="M 191.070312 132.871094 L 181.460938 131.121094 C 180.488281 130.941406 179.777344 130.089844 179.777344 129.097656 L 179.777344 89.59375 C 179.777344 88.3125 180.9375 87.34375 182.199219 87.574219 L 191.808594 89.328125 C 192.78125 89.503906 193.492188 90.355469 193.492188 91.347656 L 193.492188 130.851562 C 193.492188 132.132812 192.332031 133.101562 191.070312 132.871094 " fill-opacity="1" fill-rule="nonzero"/><path fill="#e9f1dc" d="M 172.421875 129.179688 L 162.8125 127.425781 C 161.839844 127.25 161.128906 126.398438 161.128906 125.40625 L 161.128906 107.390625 C 161.128906 106.109375 162.289062 105.140625 163.550781 105.371094 L 173.15625 107.125 C 174.132812 107.300781 174.84375 108.152344 174.84375 109.144531 L 174.84375 127.160156 C 174.84375 128.441406 173.679688 129.410156 172.421875 129.179688 " fill-opacity="1" fill-rule="nonzero"/><path fill="#e9f1dc" d="M 153.769531 125.488281 L 144.164062 123.734375 C 143.1875 123.558594 142.476562 122.707031 142.476562 121.714844 L 142.476562 110.183594 C 142.476562 108.898438 143.640625 107.929688 144.898438 108.160156 L 154.507812 109.914062 C 155.480469 110.089844 156.191406 110.945312 156.191406 111.933594 L 156.191406 123.46875 C 156.191406 124.75 155.03125 125.71875 153.769531 125.488281 " fill-opacity="1" fill-rule="nonzero"/><path fill="#e9f1dc" d="M 135.121094 121.796875 L 125.511719 120.046875 C 124.535156 119.867188 123.828125 119.015625 123.828125 118.023438 L 123.828125 94.226562 C 123.828125 92.945312 124.988281 91.976562 126.25 92.207031 L 135.855469 93.960938 C 136.832031 94.136719 137.542969 94.988281 137.542969 95.980469 L 137.542969 119.777344 C 137.542969 121.0625 136.378906 122.03125 135.121094 121.796875 " fill-opacity="1" fill-rule="nonzero"/><path fill="#e9f1dc" d="M 116.46875 118.109375 L 106.863281 116.355469 C 105.886719 116.175781 105.175781 115.328125 105.175781 114.332031 L 105.175781 108.332031 C 105.175781 107.050781 106.339844 106.082031 107.601562 106.3125 L 117.207031 108.066406 C 118.183594 108.246094 118.890625 109.09375 118.890625 110.085938 L 118.890625 116.089844 C 118.890625 117.367188 117.730469 118.339844 116.46875 118.109375 " fill-opacity="1" fill-rule="nonzero"/><path fill="#e9f1dc" d="M 97.820312 114.417969 L 88.210938 112.664062 C 87.238281 112.484375 86.527344 111.636719 86.527344 110.644531 L 86.527344 104.378906 C 86.527344 103.097656 87.6875 102.128906 88.949219 102.359375 L 98.558594 104.113281 C 99.53125 104.292969 100.242188 105.140625 100.242188 106.132812 L 100.242188 112.394531 C 100.242188 113.679688 99.078125 114.644531 97.820312 114.417969 " fill-opacity="1" fill-rule="nonzero"/><path fill="#e9f1dc" d="M 79.167969 110.726562 L 69.5625 108.972656 C 68.585938 108.796875 67.878906 107.945312 67.878906 106.953125 L 67.878906 98.636719 C 67.878906 97.355469 69.039062 96.386719 70.300781 96.617188 L 79.90625 98.371094 C 80.882812 98.550781 81.589844 99.398438 81.589844 100.390625 L 81.589844 108.707031 C 81.589844 109.988281 80.429688 110.957031 79.167969 110.726562 " fill-opacity="1" fill-rule="nonzero"/><path fill="#e9f1dc" d="M 101.433594 47.71875 L 49.234375 37.992188 C 46.722656 37.53125 44.898438 35.34375 44.898438 32.789062 C 44.898438 29.480469 47.894531 26.988281 51.144531 27.582031 L 103.34375 37.304688 C 105.855469 37.765625 107.679688 39.957031 107.679688 42.511719 C 107.679688 45.816406 104.6875 48.3125 101.433594 47.71875 " fill-opacity="1" fill-rule="nonzero"/><path fill="#000000" d="M 47.71875 97.203125 C 47.503906 97.203125 47.296875 97.09375 47.171875 96.898438 C 46.984375 96.597656 47.078125 96.199219 47.378906 96.011719 L 87.253906 71.128906 C 87.507812 70.972656 87.839844 71.007812 88.050781 71.222656 L 105.023438 88.070312 L 136.285156 68.542969 C 136.542969 68.382812 136.875 68.421875 137.085938 68.636719 L 155.53125 87.5 L 207.445312 55.175781 C 207.746094 54.988281 208.140625 55.078125 208.332031 55.382812 C 208.519531 55.683594 208.429688 56.082031 208.125 56.269531 L 155.769531 88.867188 C 155.515625 89.027344 155.179688 88.988281 154.96875 88.773438 L 136.527344 69.910156 L 105.273438 89.433594 C 105.019531 89.59375 104.6875 89.554688 104.476562 89.34375 L 87.503906 72.496094 L 48.0625 97.105469 C 47.953125 97.171875 47.835938 97.203125 47.71875 97.203125 " fill-opacity="1" fill-rule="nonzero"/><path fill="#95c251" d="M 92.878906 71.828125 C 92.878906 74.714844 90.539062 77.050781 87.65625 77.050781 C 84.769531 77.050781 82.433594 74.714844 82.433594 71.828125 C 82.433594 68.949219 84.769531 66.609375 87.65625 66.609375 C 90.539062 66.609375 92.878906 68.949219 92.878906 71.828125 " fill-opacity="1" fill-rule="nonzero"/><path fill="#000000" d="M 87.65625 67.25 C 85.132812 67.25 83.078125 69.304688 83.078125 71.828125 C 83.078125 74.351562 85.132812 76.40625 87.65625 76.40625 C 90.179688 76.40625 92.234375 74.351562 92.234375 71.828125 C 92.234375 69.304688 90.179688 67.25 87.65625 67.25 Z M 87.65625 77.695312 C 84.421875 77.695312 81.789062 75.0625 81.789062 71.828125 C 81.789062 68.59375 84.421875 65.960938 87.65625 65.960938 C 90.890625 65.960938 93.523438 68.59375 93.523438 71.828125 C 93.523438 75.0625 90.890625 77.695312 87.65625 77.695312 " fill-opacity="1" fill-rule="nonzero"/><path fill="#95c251" d="M 141.789062 69.03125 C 141.789062 71.910156 139.449219 74.25 136.566406 74.25 C 133.683594 74.25 131.34375 71.910156 131.34375 69.03125 C 131.34375 66.144531 133.683594 63.808594 136.566406 63.808594 C 139.449219 63.808594 141.789062 66.144531 141.789062 69.03125 " fill-opacity="1" fill-rule="nonzero"/><path fill="#000000" d="M 136.566406 64.453125 C 134.042969 64.453125 131.988281 66.507812 131.988281 69.03125 C 131.988281 71.554688 134.042969 73.609375 136.566406 73.609375 C 139.089844 73.609375 141.144531 71.554688 141.144531 69.03125 C 141.144531 66.507812 139.089844 64.453125 136.566406 64.453125 Z M 136.566406 74.898438 C 133.332031 74.898438 130.699219 72.265625 130.699219 69.03125 C 130.699219 65.796875 133.332031 63.164062 136.566406 63.164062 C 139.800781 63.164062 142.433594 65.796875 142.433594 69.03125 C 142.433594 72.265625 139.800781 74.898438 136.566406 74.898438 " fill-opacity="1" fill-rule="nonzero"/><path fill="#e9f1dc" d="M 110.621094 88.660156 C 110.621094 91.542969 108.285156 93.882812 105.398438 93.882812 C 102.515625 93.882812 100.175781 91.542969 100.175781 88.660156 C 100.175781 85.773438 102.515625 83.4375 105.398438 83.4375 C 108.285156 83.4375 110.621094 85.773438 110.621094 88.660156 " fill-opacity="1" fill-rule="nonzero"/><path fill="#000000" d="M 105.398438 84.082031 C 102.875 84.082031 100.820312 86.136719 100.820312 88.660156 C 100.820312 91.183594 102.875 93.238281 105.398438 93.238281 C 107.921875 93.238281 109.976562 91.183594 109.976562 88.660156 C 109.976562 86.136719 107.921875 84.082031 105.398438 84.082031 Z M 105.398438 94.527344 C 102.164062 94.527344 99.53125 91.894531 99.53125 88.660156 C 99.53125 85.425781 102.164062 82.792969 105.398438 82.792969 C 108.632812 82.792969 111.265625 85.425781 111.265625 88.660156 C 111.265625 91.894531 108.632812 94.527344 105.398438 94.527344 " fill-opacity="1" fill-rule="nonzero"/><path fill="#e9f1dc" d="M 53.089844 96.664062 C 53.089844 99.546875 50.75 101.886719 47.867188 101.886719 C 44.984375 101.886719 42.644531 99.546875 42.644531 96.664062 C 42.644531 93.78125 44.984375 91.441406 47.867188 91.441406 C 50.75 91.441406 53.089844 93.78125 53.089844 96.664062 " fill-opacity="1" fill-rule="nonzero"/><path fill="#000000" d="M 47.867188 92.082031 C 45.34375 92.082031 43.289062 94.136719 43.289062 96.660156 C 43.289062 99.1875 45.34375 101.238281 47.867188 101.238281 C 50.390625 101.238281 52.445312 99.1875 52.445312 96.660156 C 52.445312 94.136719 50.390625 92.082031 47.867188 92.082031 Z M 47.867188 102.53125 C 44.632812 102.53125 42 99.894531 42 96.660156 C 42 93.425781 44.632812 90.792969 47.867188 90.792969 C 51.101562 90.792969 53.734375 93.425781 53.734375 96.660156 C 53.734375 99.894531 51.101562 102.53125 47.867188 102.53125 " fill-opacity="1" fill-rule="nonzero"/><path fill="#e9f1dc" d="M 160.734375 87.917969 C 160.734375 90.800781 158.394531 93.140625 155.511719 93.140625 C 152.625 93.140625 150.289062 90.800781 150.289062 87.917969 C 150.289062 85.035156 152.625 82.695312 155.511719 82.695312 C 158.394531 82.695312 160.734375 85.035156 160.734375 87.917969 " fill-opacity="1" fill-rule="nonzero"/><path fill="#000000" d="M 155.507812 83.339844 C 152.984375 83.339844 150.933594 85.394531 150.933594 87.921875 C 150.933594 90.441406 152.984375 92.496094 155.507812 92.496094 C 158.035156 92.496094 160.085938 90.441406 160.085938 87.921875 C 160.085938 85.394531 158.035156 83.339844 155.507812 83.339844 Z M 155.507812 93.785156 C 152.273438 93.785156 149.640625 91.152344 149.640625 87.921875 C 149.640625 84.683594 152.273438 82.050781 155.507812 82.050781 C 158.746094 82.050781 161.375 84.683594 161.375 87.921875 C 161.375 91.152344 158.746094 93.785156 155.507812 93.785156 " fill-opacity="1" fill-rule="nonzero"/><path fill="#e9f1dc" d="M 213.003906 55.722656 C 213.003906 58.609375 210.667969 60.945312 207.785156 60.945312 C 204.898438 60.945312 202.5625 58.609375 202.5625 55.722656 C 202.5625 52.839844 204.898438 50.5 207.785156 50.5 C 210.667969 50.5 213.003906 52.839844 213.003906 55.722656 " fill-opacity="1" fill-rule="nonzero"/><path fill="#000000" d="M 207.78125 51.148438 C 205.257812 51.148438 203.203125 53.199219 203.203125 55.726562 C 203.203125 58.25 205.257812 60.300781 207.78125 60.300781 C 210.308594 60.300781 212.359375 58.25 212.359375 55.726562 C 212.359375 53.199219 210.308594 51.148438 207.78125 51.148438 Z M 207.78125 61.59375 C 204.546875 61.59375 201.914062 58.960938 201.914062 55.726562 C 201.914062 52.492188 204.546875 49.859375 207.78125 49.859375 C 211.015625 49.859375 213.648438 52.492188 213.648438 55.726562 C 213.648438 58.960938 211.015625 61.59375 207.78125 61.59375 " fill-opacity="1" fill-rule="nonzero"/><path fill="#ffffff" d="M 344.101562 172.921875 L 236.261719 153.242188 C 235.445312 153.09375 234.855469 152.382812 234.855469 151.550781 L 234.855469 48.90625 C 234.855469 47.832031 235.824219 47.019531 236.882812 47.214844 L 344.71875 66.890625 C 345.53125 67.042969 346.128906 67.753906 346.128906 68.585938 L 346.128906 171.230469 C 346.128906 172.304688 345.15625 173.117188 344.101562 172.921875 " fill-opacity="1" fill-rule="nonzero"/><path fill="#000000" d="M 236.570312 47.832031 C 236.320312 47.832031 236.078125 47.917969 235.882812 48.082031 C 235.636719 48.285156 235.496094 48.585938 235.496094 48.90625 L 235.496094 151.550781 C 235.496094 152.070312 235.867188 152.515625 236.378906 152.609375 L 344.214844 172.289062 C 344.527344 172.347656 344.847656 172.261719 345.09375 172.058594 C 345.34375 171.855469 345.480469 171.550781 345.480469 171.230469 L 345.480469 68.585938 C 345.480469 68.066406 345.109375 67.621094 344.601562 67.53125 L 236.765625 47.851562 C 236.699219 47.835938 236.636719 47.832031 236.570312 47.832031 Z M 344.410156 173.597656 C 344.265625 173.597656 344.125 173.585938 343.984375 173.558594 L 236.148438 153.875 C 235.023438 153.675781 234.207031 152.695312 234.207031 151.550781 L 234.207031 48.90625 C 234.207031 48.203125 234.515625 47.542969 235.058594 47.089844 C 235.597656 46.640625 236.304688 46.453125 236.996094 46.582031 L 344.832031 66.261719 C 345.957031 66.464844 346.773438 67.445312 346.773438 68.585938 L 346.773438 171.230469 C 346.773438 171.933594 346.460938 172.59375 345.921875 173.046875 C 345.492188 173.40625 344.957031 173.597656 344.410156 173.597656 " fill-opacity="1" fill-rule="nonzero"/><path fill="#e9f1dc" d="M 294.234375 92.246094 L 284.625 90.492188 C 283.652344 90.316406 282.941406 89.464844 282.941406 88.476562 L 282.941406 79.570312 C 282.941406 78.285156 284.101562 77.316406 285.363281 77.546875 L 294.96875 79.300781 C 295.945312 79.480469 296.65625 80.328125 296.65625 81.320312 L 296.65625 90.226562 C 296.65625 91.507812 295.492188 92.480469 294.234375 92.246094 " fill-opacity="1" fill-rule="nonzero"/><path fill="#e9f1dc" d="M 311.941406 95.484375 L 302.335938 93.730469 C 301.363281 93.550781 300.652344 92.703125 300.652344 91.710938 L 300.652344 82.804688 C 300.652344 81.523438 301.816406 80.550781 303.074219 80.785156 L 312.679688 82.535156 C 313.65625 82.714844 314.367188 83.5625 314.367188 84.554688 L 314.367188 93.464844 C 314.367188 94.746094 313.207031 95.710938 311.941406 95.484375 " fill-opacity="1" fill-rule="nonzero"/><path fill="#95c251" d="M 329.648438 98.71875 L 320.042969 96.96875 C 319.066406 96.789062 318.359375 95.9375 318.359375 94.949219 L 318.359375 86.039062 C 318.359375 84.761719 319.519531 83.789062 320.78125 84.023438 L 330.386719 85.773438 C 331.363281 85.953125 332.074219 86.804688 332.074219 87.792969 L 332.074219 96.703125 C 332.074219 97.980469 330.910156 98.949219 329.648438 98.71875 " fill-opacity="1" fill-rule="nonzero"/><path fill="#95c251" d="M 258.820312 103.328125 L 249.210938 101.574219 C 248.234375 101.398438 247.527344 100.546875 247.527344 99.554688 L 247.527344 90.648438 C 247.527344 89.367188 248.6875 88.398438 249.953125 88.628906 L 259.558594 90.382812 C 260.535156 90.5625 261.242188 91.410156 261.242188 92.402344 L 261.242188 101.308594 C 261.242188 102.589844 260.082031 103.558594 258.820312 103.328125 " fill-opacity="1" fill-rule="nonzero"/><path fill="#e9f1dc" d="M 276.527344 106.566406 L 266.921875 104.8125 C 265.945312 104.636719 265.234375 103.785156 265.234375 102.792969 L 265.234375 93.886719 C 265.234375 92.605469 266.398438 91.636719 267.65625 91.867188 L 277.265625 93.621094 C 278.238281 93.800781 278.949219 94.648438 278.949219 95.640625 L 278.949219 104.546875 C 278.949219 105.828125 277.785156 106.796875 276.527344 106.566406 " fill-opacity="1" fill-rule="nonzero"/><path fill="#95c251" d="M 294.234375 109.804688 L 284.625 108.050781 C 283.652344 107.875 282.941406 107.023438 282.941406 106.03125 L 282.941406 97.125 C 282.941406 95.84375 284.101562 94.875 285.363281 95.105469 L 294.96875 96.859375 C 295.945312 97.035156 296.65625 97.886719 296.65625 98.878906 L 296.65625 107.785156 C 296.65625 109.066406 295.492188 110.035156 294.234375 109.804688 " fill-opacity="1" fill-rule="nonzero"/><path fill="#000000" d="M 284.996094 95.714844 C 284.667969 95.714844 284.347656 95.832031 284.089844 96.042969 C 283.773438 96.3125 283.585938 96.707031 283.585938 97.125 L 283.585938 106.03125 C 283.585938 106.710938 284.070312 107.296875 284.742188 107.417969 L 294.347656 109.171875 C 294.761719 109.246094 295.183594 109.136719 295.503906 108.867188 C 295.824219 108.597656 296.011719 108.203125 296.011719 107.785156 L 296.011719 98.878906 C 296.011719 98.199219 295.523438 97.617188 294.855469 97.492188 L 285.246094 95.738281 C 285.164062 95.726562 285.078125 95.714844 284.996094 95.714844 Z M 294.605469 110.484375 C 294.441406 110.484375 294.28125 110.46875 294.117188 110.441406 L 284.511719 108.6875 C 283.226562 108.453125 282.296875 107.335938 282.296875 106.03125 L 282.296875 97.125 C 282.296875 96.324219 282.648438 95.566406 283.265625 95.054688 C 283.882812 94.539062 284.691406 94.328125 285.480469 94.46875 L 295.085938 96.222656 C 296.367188 96.460938 297.300781 97.574219 297.300781 98.878906 L 297.300781 107.785156 C 297.300781 108.589844 296.945312 109.34375 296.328125 109.859375 C 295.839844 110.265625 295.230469 110.484375 294.605469 110.484375 " fill-opacity="1" fill-rule="nonzero"/><path fill="#e9f1dc" d="M 311.941406 113.039062 L 302.335938 111.289062 C 301.363281 111.109375 300.652344 110.257812 300.652344 109.269531 L 300.652344 100.363281 C 300.652344 99.078125 301.816406 98.109375 303.074219 98.339844 L 312.679688 100.09375 C 313.65625 100.269531 314.367188 101.121094 314.367188 102.113281 L 314.367188 111.019531 C 314.367188 112.300781 313.207031 113.273438 311.941406 113.039062 " fill-opacity="1" fill-rule="nonzero"/><path fill="#95c251" d="M 329.648438 116.277344 L 320.042969 114.523438 C 319.066406 114.347656 318.359375 113.496094 318.359375 112.503906 L 318.359375 103.597656 C 318.359375 102.316406 319.519531 101.347656 320.78125 101.578125 L 330.386719 103.332031 C 331.363281 103.507812 332.074219 104.359375 332.074219 105.351562 L 332.074219 114.257812 C 332.074219 115.539062 330.910156 116.507812 329.648438 116.277344 " fill-opacity="1" fill-rule="nonzero"/><path fill="#e9f1dc" d="M 258.820312 120.886719 L 249.210938 119.132812 C 248.234375 118.953125 247.527344 118.105469 247.527344 117.113281 L 247.527344 108.207031 C 247.527344 106.925781 248.6875 105.957031 249.949219 106.1875 L 259.558594 107.941406 C 260.535156 108.117188 261.242188 108.96875 261.242188 109.960938 L 261.242188 118.867188 C 261.242188 120.148438 260.082031 121.117188 258.820312 120.886719 " fill-opacity="1" fill-rule="nonzero"/><path fill="#e9f1dc" d="M 276.527344 124.125 L 266.921875 122.375 C 265.941406 122.195312 265.234375 121.34375 265.234375 120.351562 L 265.234375 111.445312 C 265.234375 110.164062 266.394531 109.195312 267.65625 109.425781 L 277.265625 111.179688 C 278.238281 111.355469 278.945312 112.207031 278.945312 113.199219 L 278.945312 122.105469 C 278.945312 123.386719 277.785156 124.355469 276.527344 124.125 " fill-opacity="1" fill-rule="nonzero"/><path fill="#e9f1dc" d="M 294.234375 127.363281 L 284.625 125.609375 C 283.652344 125.433594 282.941406 124.582031 282.941406 123.589844 L 282.941406 114.683594 C 282.941406 113.398438 284.101562 112.433594 285.363281 112.660156 L 294.96875 114.417969 C 295.945312 114.59375 296.65625 115.445312 296.65625 116.4375 L 296.65625 125.34375 C 296.65625 126.625 295.492188 127.59375 294.234375 127.363281 " fill-opacity="1" fill-rule="nonzero"/><path fill="#e9f1dc" d="M 311.941406 130.597656 L 302.335938 128.84375 C 301.363281 128.667969 300.652344 127.816406 300.652344 126.824219 L 300.652344 117.917969 C 300.652344 116.636719 301.816406 115.667969 303.074219 115.898438 L 312.679688 117.652344 C 313.65625 117.828125 314.367188 118.679688 314.367188 119.671875 L 314.367188 128.578125 C 314.367188 129.859375 313.207031 130.828125 311.941406 130.597656 " fill-opacity="1" fill-rule="nonzero"/><path fill="#1d5f31" d="M 329.648438 133.835938 L 320.042969 132.082031 C 319.066406 131.902344 318.359375 131.054688 318.359375 130.0625 L 318.359375 121.15625 C 318.359375 119.875 319.519531 118.90625 320.78125 119.136719 L 330.386719 120.886719 C 331.363281 121.066406 332.074219 121.917969 332.074219 122.910156 L 332.074219 131.816406 C 332.074219 133.097656 330.910156 134.066406 329.648438 133.835938 " fill-opacity="1" fill-rule="nonzero"/><path fill="#000000" d="M 329.769531 133.199219 C 330.179688 133.277344 330.597656 133.164062 330.921875 132.898438 C 331.242188 132.628906 331.429688 132.234375 331.429688 131.816406 L 331.429688 122.910156 C 331.429688 122.226562 330.941406 121.644531 330.273438 121.523438 L 320.667969 119.769531 C 320.253906 119.695312 319.832031 119.804688 319.511719 120.074219 C 319.191406 120.339844 319.003906 120.738281 319.003906 121.15625 L 319.003906 130.0625 C 319.003906 130.742188 319.488281 131.324219 320.160156 131.445312 Z M 330.023438 134.511719 C 329.859375 134.511719 329.699219 134.5 329.539062 134.46875 L 319.929688 132.714844 C 318.648438 132.480469 317.714844 131.367188 317.714844 130.0625 L 317.714844 121.15625 C 317.714844 120.351562 318.070312 119.597656 318.6875 119.082031 C 319.300781 118.570312 320.105469 118.355469 320.898438 118.5 L 330.503906 120.253906 C 331.789062 120.488281 332.71875 121.605469 332.71875 122.910156 L 332.71875 131.816406 C 332.71875 132.617188 332.363281 133.375 331.75 133.886719 C 331.257812 134.292969 330.648438 134.511719 330.023438 134.511719 " fill-opacity="1" fill-rule="nonzero"/><path fill="#e9f1dc" d="M 258.816406 138.445312 L 249.210938 136.691406 C 248.234375 136.511719 247.527344 135.664062 247.527344 134.671875 L 247.527344 125.765625 C 247.527344 124.484375 248.6875 123.515625 249.949219 123.746094 L 259.558594 125.5 C 260.53125 125.675781 261.242188 126.527344 261.242188 127.519531 L 261.242188 136.425781 C 261.242188 137.707031 260.082031 138.675781 258.816406 138.445312 " fill-opacity="1" fill-rule="nonzero"/><path fill="#e9f1dc" d="M 276.527344 141.683594 L 266.921875 139.929688 C 265.941406 139.75 265.234375 138.902344 265.234375 137.910156 L 265.234375 129.003906 C 265.234375 127.722656 266.394531 126.753906 267.65625 126.984375 L 277.265625 128.738281 C 278.238281 128.914062 278.945312 129.765625 278.945312 130.757812 L 278.945312 139.664062 C 278.945312 140.945312 277.785156 141.910156 276.527344 141.683594 " fill-opacity="1" fill-rule="nonzero"/><path fill="#95c251" d="M 294.234375 144.921875 L 284.625 143.164062 C 283.652344 142.988281 282.941406 142.136719 282.941406 141.144531 L 282.941406 132.242188 C 282.941406 130.957031 284.101562 129.988281 285.363281 130.21875 L 294.96875 131.972656 C 295.945312 132.148438 296.65625 133 296.65625 133.992188 L 296.65625 142.902344 C 296.65625 144.179688 295.492188 145.148438 294.234375 144.921875 " fill-opacity="1" fill-rule="nonzero"/><path fill="#e9f1dc" d="M 311.941406 148.15625 L 302.335938 146.402344 C 301.363281 146.222656 300.652344 145.375 300.652344 144.382812 L 300.652344 135.476562 C 300.652344 134.195312 301.816406 133.226562 303.074219 133.453125 L 312.679688 135.210938 C 313.65625 135.386719 314.367188 136.238281 314.367188 137.230469 L 314.367188 146.136719 C 314.367188 147.417969 313.207031 148.386719 311.941406 148.15625 " fill-opacity="1" fill-rule="nonzero"/><path fill="#ffffff" d="M 343.667969 290.355469 L 288.363281 279.761719 C 287.554688 279.605469 286.96875 278.894531 286.96875 278.066406 L 287.316406 176.796875 C 287.320312 175.730469 288.285156 174.925781 289.335938 175.109375 L 344.289062 184.792969 C 345.113281 184.941406 345.710938 185.65625 345.710938 186.488281 L 345.710938 288.664062 C 345.710938 289.742188 344.726562 290.554688 343.667969 290.355469 " fill-opacity="1" fill-rule="nonzero"/><path fill="#000000" d="M 343.785156 289.71875 C 344.101562 289.78125 344.425781 289.695312 344.675781 289.492188 C 344.921875 289.289062 345.0625 288.984375 345.0625 288.664062 L 345.0625 186.488281 C 345.0625 185.96875 344.6875 185.523438 344.175781 185.433594 L 289.222656 175.746094 C 288.910156 175.691406 288.589844 175.777344 288.347656 175.980469 C 288.101562 176.183594 287.960938 176.484375 287.960938 176.800781 L 287.613281 278.066406 C 287.609375 278.585938 287.980469 279.03125 288.488281 279.128906 Z M 343.992188 291.027344 C 343.84375 291.027344 343.695312 291.015625 343.542969 290.984375 L 288.242188 280.394531 C 287.128906 280.179688 286.320312 279.203125 286.324219 278.0625 L 286.671875 176.796875 C 286.675781 176.097656 286.984375 175.4375 287.519531 174.992188 C 288.054688 174.542969 288.753906 174.355469 289.445312 174.480469 L 344.402344 184.164062 C 345.53125 184.359375 346.355469 185.339844 346.355469 186.488281 L 346.355469 288.664062 C 346.355469 289.371094 346.042969 290.035156 345.496094 290.488281 C 345.066406 290.839844 344.535156 291.027344 343.992188 291.027344 " fill-opacity="1" fill-rule="nonzero"/><path fill="#e9f1dc" d="M 333.042969 258.308594 L 297.082031 251.71875 C 294.570312 251.261719 292.742188 249.070312 292.742188 246.515625 C 292.742188 243.210938 295.738281 240.714844 298.988281 241.308594 L 334.949219 247.898438 C 337.464844 248.359375 339.289062 250.546875 339.289062 253.101562 C 339.289062 256.40625 336.292969 258.902344 333.042969 258.308594 " fill-opacity="1" fill-rule="nonzero"/><path fill="#e9f1dc" d="M 332.339844 275.703125 L 296.378906 269.113281 C 293.867188 268.65625 292.039062 266.464844 292.039062 263.910156 C 292.039062 260.605469 295.035156 258.109375 298.285156 258.703125 L 334.246094 265.292969 C 336.757812 265.753906 338.585938 267.941406 338.585938 270.496094 C 338.585938 273.800781 335.589844 276.296875 332.339844 275.703125 " fill-opacity="1" fill-rule="nonzero"/><path fill="#ffffff" d="M 297.105469 216.121094 C 297.105469 205.183594 305.964844 196.320312 316.890625 196.320312 C 327.820312 196.320312 336.675781 205.183594 336.675781 216.121094 C 336.675781 227.058594 327.820312 235.921875 316.890625 235.921875 C 305.964844 235.921875 297.105469 227.058594 297.105469 216.121094 " fill-opacity="1" fill-rule="nonzero"/><path fill="#000000" d="M 316.890625 236.570312 C 305.625 236.570312 296.460938 227.394531 296.460938 216.121094 C 296.460938 213.710938 296.878906 211.351562 297.699219 209.105469 C 297.816406 208.773438 298.191406 208.597656 298.523438 208.722656 C 298.859375 208.84375 299.03125 209.214844 298.910156 209.546875 C 298.140625 211.652344 297.75 213.859375 297.75 216.121094 C 297.75 226.683594 306.339844 235.28125 316.890625 235.28125 C 327.449219 235.28125 336.035156 226.683594 336.035156 216.121094 C 336.035156 205.558594 327.449219 196.964844 316.890625 196.964844 C 311.148438 196.964844 305.757812 199.511719 302.105469 203.957031 C 301.878906 204.230469 301.472656 204.273438 301.195312 204.046875 C 300.917969 203.820312 300.878906 203.414062 301.105469 203.140625 C 305.003906 198.394531 310.757812 195.675781 316.890625 195.675781 C 328.15625 195.675781 337.324219 204.847656 337.324219 216.121094 C 337.324219 227.394531 328.15625 236.570312 316.890625 236.570312 " fill-opacity="1" fill-rule="nonzero"/><path fill="#95c251" d="M 303.320312 230.523438 C 306.863281 233.871094 311.636719 235.925781 316.890625 235.925781 C 322.144531 235.925781 326.921875 233.871094 330.464844 230.523438 C 326.367188 229.253906 321.761719 228.539062 316.890625 228.539062 C 312.023438 228.539062 307.417969 229.253906 303.320312 230.523438 " fill-opacity="1" fill-rule="nonzero"/><path fill="#ffffff" d="M 317.007812 231.886719 C 315.285156 231.886719 313.882812 230.484375 313.882812 228.757812 L 313.882812 212.824219 L 320.128906 212.824219 L 320.128906 228.757812 C 320.128906 230.484375 318.734375 231.886719 317.007812 231.886719 " fill-opacity="1" fill-rule="nonzero"/><path fill="#000000" d="M 329.101562 218.636719 C 328.710938 213.6875 330.890625 210.59375 326 205.003906 C 320.9375 199.210938 316.589844 203.09375 316.589844 203.09375 C 316.589844 203.09375 312.96875 200.082031 308.214844 206.375 C 304.023438 211.929688 309.394531 216.90625 307.585938 220.363281 C 305.78125 223.824219 299.660156 225.707031 299.660156 225.707031 C 299.660156 225.707031 301.621094 229.636719 304.054688 231.367188 L 329.886719 231.367188 C 329.886719 231.367188 335.226562 225.550781 335.226562 223.902344 C 335.226562 223.902344 329.496094 223.585938 329.101562 218.636719 " fill-opacity="1" fill-rule="nonzero"/><path fill="#95c251" d="M 303.320312 230.523438 C 306.863281 233.871094 311.636719 235.925781 316.890625 235.925781 C 322.144531 235.925781 326.921875 233.871094 330.464844 230.523438 C 326.367188 229.253906 321.761719 228.539062 316.890625 228.539062 C 312.023438 228.539062 307.417969 229.253906 303.320312 230.523438 " fill-opacity="1" fill-rule="nonzero"/><path fill="#000000" d="M 304.613281 230.8125 C 308.054688 233.703125 312.371094 235.28125 316.890625 235.28125 C 321.410156 235.28125 325.726562 233.703125 329.167969 230.8125 C 325.296875 229.730469 321.171875 229.183594 316.890625 229.183594 C 312.605469 229.183594 308.484375 229.730469 304.613281 230.8125 Z M 316.890625 236.570312 C 311.660156 236.570312 306.683594 234.589844 302.875 230.992188 L 302.070312 230.234375 L 303.125 229.90625 C 307.4375 228.570312 312.066406 227.894531 316.890625 227.894531 C 321.710938 227.894531 326.34375 228.570312 330.65625 229.90625 L 331.707031 230.234375 L 330.90625 230.992188 C 327.097656 234.589844 322.121094 236.570312 316.890625 236.570312 " fill-opacity="1" fill-rule="nonzero"/><path fill="#ffffff" d="M 317.3125 207.636719 L 317.097656 207.636719 L 310.742188 214.027344 L 310.742188 217.535156 C 310.742188 219.878906 312.003906 221.917969 313.886719 223.023438 L 313.886719 228.757812 C 313.886719 230.484375 315.285156 231.882812 317.011719 231.882812 C 318.734375 231.882812 320.132812 230.484375 320.132812 228.757812 L 320.132812 223.132812 C 322.117188 222.054688 323.460938 219.953125 323.460938 217.535156 L 323.460938 213.789062 C 323.460938 210.390625 320.707031 207.636719 317.3125 207.636719 " fill-opacity="1" fill-rule="nonzero"/><path fill="#000000" d="M 317.007812 232.53125 C 314.929688 232.53125 313.242188 230.839844 313.242188 228.757812 L 313.242188 223.199219 C 313.242188 222.84375 313.527344 222.554688 313.886719 222.554688 C 314.242188 222.554688 314.53125 222.84375 314.53125 223.199219 L 314.53125 228.757812 C 314.53125 230.128906 315.644531 231.238281 317.007812 231.238281 C 318.375 231.238281 319.488281 230.128906 319.488281 228.757812 L 319.488281 223.296875 C 319.488281 222.941406 319.773438 222.652344 320.128906 222.652344 C 320.484375 222.652344 320.777344 222.941406 320.777344 223.296875 L 320.777344 228.757812 C 320.777344 230.839844 319.085938 232.53125 317.007812 232.53125 " fill-opacity="1" fill-rule="nonzero"/><path fill="#000000" d="M 317.097656 224.546875 C 316.746094 224.546875 316.453125 224.257812 316.453125 223.902344 C 316.453125 223.546875 316.746094 223.257812 317.097656 223.257812 C 320.25 223.257812 322.8125 220.691406 322.8125 217.535156 L 322.8125 213.789062 C 322.8125 210.839844 320.511719 208.421875 317.570312 208.289062 L 311.382812 214.40625 L 311.382812 217.535156 C 311.382812 219.773438 312.699219 221.820312 314.734375 222.746094 C 315.058594 222.894531 315.199219 223.277344 315.054688 223.601562 C 314.902344 223.925781 314.523438 224.070312 314.199219 223.921875 C 311.707031 222.785156 310.09375 220.277344 310.09375 217.535156 L 310.09375 214.140625 C 310.09375 213.964844 310.164062 213.800781 310.285156 213.679688 L 316.859375 207.175781 C 316.980469 207.058594 317.144531 206.992188 317.3125 206.992188 C 317.414062 206.992188 317.511719 206.996094 317.613281 207 C 321.25 207.15625 324.105469 210.140625 324.105469 213.789062 L 324.105469 217.535156 C 324.105469 221.402344 320.964844 224.546875 317.097656 224.546875 " fill-opacity="1" fill-rule="nonzero"/><path fill="#ffffff" d="M 138.035156 226.75 L 138.035156 148.738281 C 138.035156 147.664062 139.011719 146.851562 140.070312 147.046875 L 272.613281 171.480469 C 273.429688 171.636719 274.023438 172.347656 274.023438 173.175781 L 274.023438 275.375 C 274.023438 276.449219 273.050781 277.261719 271.992188 277.066406 L 139.445312 252.628906 C 138.628906 252.480469 138.035156 251.769531 138.035156 250.9375 L 138.035156 226.75 " fill-opacity="1" fill-rule="nonzero"/><path fill="#1d5f31" d="M 225.332031 229.96875 L 148.417969 215.933594 L 148.417969 202.871094 L 225.332031 216.90625 L 225.332031 229.96875 " fill-opacity="1" fill-rule="nonzero"/><path fill="#000000" d="M 260.445312 237.269531 C 260.300781 237.269531 260.15625 237.253906 260.007812 237.230469 L 203.023438 226.578125 C 202.675781 226.511719 202.445312 226.171875 202.511719 225.824219 C 202.574219 225.476562 202.914062 225.246094 203.261719 225.308594 L 260.246094 235.960938 C 260.5625 236.019531 260.882812 235.9375 261.132812 235.730469 C 261.378906 235.527344 261.515625 235.226562 261.515625 234.90625 L 261.515625 225.34375 C 261.515625 224.824219 261.148438 224.378906 260.640625 224.285156 L 202.179688 213.46875 C 201.832031 213.40625 201.601562 213.070312 201.664062 212.71875 C 201.730469 212.371094 202.066406 212.140625 202.417969 212.203125 L 260.875 223.015625 C 261.992188 223.226562 262.808594 224.203125 262.808594 225.34375 L 262.808594 234.90625 C 262.808594 235.609375 262.5 236.273438 261.953125 236.722656 C 261.523438 237.082031 260.992188 237.269531 260.445312 237.269531 " fill-opacity="1" fill-rule="nonzero"/><path fill="#000000" d="M 192.308594 224.707031 C 192.273438 224.707031 192.234375 224.703125 192.191406 224.699219 L 149.707031 216.828125 C 148.585938 216.621094 147.773438 215.640625 147.773438 214.503906 L 147.773438 204.9375 C 147.773438 204.234375 148.085938 203.570312 148.625 203.121094 C 149.167969 202.667969 149.878906 202.484375 150.566406 202.613281 L 195.429688 210.910156 C 195.78125 210.976562 196.011719 211.3125 195.945312 211.664062 C 195.882812 212.011719 195.542969 212.246094 195.195312 212.179688 L 150.335938 203.878906 C 150.015625 203.820312 149.695312 203.90625 149.453125 204.109375 C 149.203125 204.316406 149.0625 204.617188 149.0625 204.9375 L 149.0625 214.503906 C 149.0625 215.023438 149.433594 215.464844 149.945312 215.5625 L 192.425781 223.429688 C 192.777344 223.496094 193.007812 223.832031 192.945312 224.179688 C 192.886719 224.492188 192.617188 224.707031 192.308594 224.707031 " fill-opacity="1" fill-rule="nonzero"/><path fill="#e9f1dc" d="M 255.546875 202.496094 L 203.347656 192.773438 C 200.835938 192.316406 199.007812 190.125 199.007812 187.570312 C 199.007812 184.261719 202.003906 181.769531 205.253906 182.363281 L 257.453125 192.085938 C 259.964844 192.546875 261.792969 194.738281 261.792969 197.292969 C 261.792969 200.597656 258.796875 203.09375 255.546875 202.496094 " fill-opacity="1" fill-rule="nonzero"/><path fill="#1d5f31" d="M 148.625 191.382812 L 148.625 185.625 L 158.710938 175.546875 C 159.664062 174.59375 161.214844 174.59375 162.171875 175.546875 L 169.078125 182.457031 C 169.996094 183.371094 171.472656 183.414062 172.441406 182.546875 L 173.070312 181.988281 C 174.042969 181.121094 175.523438 181.164062 176.4375 182.089844 L 190.5625 196.328125 L 190.617188 198.195312 C 190.683594 200.578125 188.519531 202.402344 186.183594 201.9375 L 151.605469 195.015625 C 149.871094 194.671875 148.625 193.152344 148.625 191.382812 " fill-opacity="1" fill-rule="nonzero"/><path fill="#000000" d="M 186.558594 201.171875 C 187.429688 201.347656 188.324219 201.121094 189.015625 200.558594 C 189.703125 199.992188 190.101562 199.15625 190.101562 198.265625 L 190.101562 171.257812 C 190.101562 169.820312 189.074219 168.59375 187.660156 168.339844 L 152.890625 162.125 C 152.03125 161.972656 151.152344 162.203125 150.480469 162.761719 C 149.808594 163.320312 149.414062 164.136719 149.40625 165.007812 L 149.125 191.226562 C 149.109375 192.648438 150.109375 193.882812 151.507812 194.164062 Z M 187.140625 202.519531 C 186.863281 202.519531 186.585938 202.492188 186.304688 202.433594 L 151.253906 195.425781 C 149.25 195.027344 147.8125 193.253906 147.835938 191.214844 L 148.117188 164.996094 C 148.128906 163.746094 148.691406 162.566406 149.65625 161.765625 C 150.621094 160.96875 151.878906 160.636719 153.117188 160.855469 L 187.882812 167.070312 C 189.917969 167.433594 191.390625 169.191406 191.390625 171.257812 L 191.390625 198.265625 C 191.390625 199.542969 190.820312 200.742188 189.832031 201.554688 C 189.0625 202.183594 188.117188 202.519531 187.140625 202.519531 " fill-opacity="1" fill-rule="nonzero"/><path fill="#95c251" d="M 185.59375 176.265625 C 185.59375 178.40625 183.855469 180.144531 181.714844 180.144531 C 179.574219 180.144531 177.835938 178.40625 177.835938 176.265625 C 177.835938 174.125 179.574219 172.390625 181.714844 172.390625 C 183.855469 172.390625 185.59375 174.125 185.59375 176.265625 " fill-opacity="1" fill-rule="nonzero"/><path fill="#000000" d="M 274.023438 268.566406 C 273.667969 268.566406 273.378906 268.273438 273.378906 267.917969 L 273.378906 173.882812 C 273.378906 172.953125 272.714844 172.15625 271.800781 171.988281 L 140.957031 147.867188 C 140.390625 147.761719 139.816406 147.914062 139.378906 148.277344 C 138.933594 148.644531 138.683594 149.1875 138.683594 149.761719 L 138.683594 226.75 C 138.683594 227.109375 138.394531 227.394531 138.039062 227.394531 C 137.683594 227.394531 137.394531 227.109375 137.394531 226.75 L 137.394531 149.761719 C 137.394531 148.800781 137.816406 147.902344 138.550781 147.289062 C 139.289062 146.675781 140.25 146.425781 141.191406 146.597656 L 272.035156 170.71875 C 273.558594 171.003906 274.667969 172.332031 274.667969 173.882812 L 274.667969 267.917969 C 274.667969 268.273438 274.378906 268.566406 274.023438 268.566406 " fill-opacity="1" fill-rule="nonzero"/><path fill="#ffffff" d="M 125.785156 251.058594 L 32.929688 232.472656 L 32.929688 126.777344 L 125.785156 145.359375 L 125.785156 251.058594 " fill-opacity="1" fill-rule="nonzero"/><path fill="#000000" d="M 125.785156 224.691406 C 125.429688 224.691406 125.140625 224.402344 125.140625 224.046875 L 125.140625 146.769531 C 125.140625 146.261719 124.777344 145.816406 124.277344 145.714844 L 34.859375 127.820312 C 34.542969 127.757812 34.214844 127.835938 33.964844 128.042969 C 33.714844 128.246094 33.574219 128.550781 33.574219 128.871094 L 33.574219 140.457031 C 33.574219 140.8125 33.285156 141.101562 32.929688 141.101562 C 32.574219 141.101562 32.285156 140.8125 32.285156 140.457031 L 32.285156 128.871094 C 32.285156 128.160156 32.601562 127.496094 33.148438 127.046875 C 33.699219 126.59375 34.414062 126.417969 35.113281 126.554688 L 124.53125 144.453125 C 125.632812 144.671875 126.429688 145.644531 126.429688 146.769531 L 126.429688 224.046875 C 126.429688 224.402344 126.140625 224.691406 125.785156 224.691406 " fill-opacity="1" fill-rule="nonzero"/><path fill="#000000" d="M 32.929688 222.125 C 32.574219 222.125 32.285156 221.835938 32.285156 221.480469 L 32.285156 190.769531 C 32.285156 190.414062 32.574219 190.125 32.929688 190.125 C 33.285156 190.125 33.574219 190.414062 33.574219 190.769531 L 33.574219 221.480469 C 33.574219 221.835938 33.285156 222.125 32.929688 222.125 " fill-opacity="1" fill-rule="nonzero"/><path fill="#e9f1dc" d="M 114.488281 202.511719 C 114.488281 206.210938 111.488281 209.207031 107.789062 209.207031 C 104.09375 209.207031 101.09375 206.210938 101.09375 202.511719 C 101.09375 198.8125 104.09375 195.816406 107.789062 195.816406 C 111.488281 195.816406 114.488281 198.8125 114.488281 202.511719 " fill-opacity="1" fill-rule="nonzero"/><path fill="#ffffff" d="M 247.082031 358.550781 L 217.050781 352.863281 C 216.113281 352.6875 215.570312 351.953125 215.484375 351.167969 C 215.429688 350.640625 215.449219 342.273438 215.46875 337.417969 C 215.480469 335.3125 216.648438 333.390625 218.515625 332.414062 C 228.453125 327.234375 259.859375 310.875 268.003906 306.800781 C 269.214844 306.191406 270.605469 306.042969 271.925781 306.375 L 303.324219 314.308594 C 303.378906 314.292969 303.433594 314.328125 303.433594 314.386719 C 303.429688 315.785156 303.371094 330.28125 303.421875 331.0625 C 303.460938 331.777344 303.121094 332.523438 302.34375 332.90625 L 251.871094 357.894531 C 250.390625 358.628906 248.710938 358.859375 247.082031 358.550781 " fill-opacity="1" fill-rule="nonzero"/><path fill="#000000" d="M 302.785156 314.386719 C 302.785156 314.386719 302.785156 314.386719 302.785156 314.390625 C 302.785156 314.386719 302.785156 314.386719 302.785156 314.386719 Z M 247.203125 357.917969 C 248.679688 358.195312 250.238281 357.984375 251.585938 357.316406 L 302.058594 332.328125 C 302.539062 332.089844 302.808594 331.632812 302.777344 331.101562 C 302.730469 330.359375 302.773438 318.285156 302.785156 314.835938 L 271.769531 307 C 270.601562 306.703125 269.363281 306.839844 268.289062 307.375 C 260.15625 311.445312 228.363281 328.007812 218.8125 332.988281 C 217.15625 333.851562 216.121094 335.550781 216.113281 337.421875 C 216.082031 345.578125 216.085938 350.691406 216.125 351.101562 C 216.171875 351.558594 216.476562 352.097656 217.167969 352.230469 Z M 248.484375 359.328125 C 247.976562 359.328125 247.464844 359.277344 246.964844 359.183594 L 216.929688 353.496094 C 215.785156 353.28125 214.96875 352.394531 214.839844 351.238281 C 214.785156 350.703125 214.800781 343.425781 214.824219 337.414062 C 214.835938 335.066406 216.136719 332.929688 218.21875 331.84375 C 227.769531 326.863281 259.570312 310.296875 267.714844 306.222656 C 269.066406 305.546875 270.617188 305.378906 272.082031 305.75 L 303.402344 313.664062 C 303.542969 313.671875 303.683594 313.722656 303.796875 313.8125 C 303.976562 313.953125 304.078125 314.164062 304.078125 314.394531 C 304.054688 320.277344 304.027344 330.410156 304.0625 331.023438 C 304.125 332.074219 303.578125 333.015625 302.632812 333.484375 L 252.160156 358.472656 C 251.019531 359.035156 249.753906 359.328125 248.484375 359.328125 " fill-opacity="1" fill-rule="nonzero"/><path fill="#ffffff" d="M 247.175781 341.210938 L 217.046875 335.507812 C 215.222656 335.164062 214.882812 332.695312 216.550781 331.871094 L 268.722656 306.039062 C 269.101562 305.851562 269.527344 305.792969 269.941406 305.871094 L 301.847656 311.914062 C 303.667969 312.261719 304.007812 314.726562 302.34375 315.550781 L 251.789062 340.582031 C 250.359375 341.285156 248.742188 341.511719 247.175781 341.210938 " fill-opacity="1" fill-rule="nonzero"/><path fill="#000000" d="M 247.296875 340.578125 C 248.714844 340.847656 250.207031 340.644531 251.5 340.003906 L 302.058594 314.972656 C 302.671875 314.667969 302.824219 314.085938 302.765625 313.640625 C 302.703125 313.195312 302.398438 312.675781 301.726562 312.546875 L 269.824219 306.507812 C 269.550781 306.457031 269.257812 306.496094 269.007812 306.617188 L 216.835938 332.449219 C 216.222656 332.753906 216.070312 333.335938 216.128906 333.78125 C 216.1875 334.226562 216.496094 334.746094 217.167969 334.875 Z M 248.527344 341.984375 C 248.035156 341.984375 247.542969 341.9375 247.054688 341.84375 L 216.929688 336.140625 C 215.820312 335.929688 215.003906 335.074219 214.851562 333.957031 C 214.699219 332.839844 215.25 331.792969 216.261719 331.292969 L 268.4375 305.460938 C 268.9375 305.214844 269.515625 305.136719 270.0625 305.238281 L 301.964844 311.28125 C 303.074219 311.492188 303.890625 312.347656 304.039062 313.464844 C 304.195312 314.582031 303.640625 315.625 302.628906 316.128906 L 252.074219 341.15625 C 250.972656 341.703125 249.753906 341.984375 248.527344 341.984375 " fill-opacity="1" fill-rule="nonzero"/><path fill="#000000" d="M 249.777344 358.871094 C 249.421875 358.871094 249.132812 358.582031 249.132812 358.226562 L 249.132812 341.566406 C 249.132812 341.210938 249.421875 340.925781 249.777344 340.925781 C 250.132812 340.925781 250.421875 341.210938 250.421875 341.566406 L 250.421875 358.226562 C 250.421875 358.582031 250.132812 358.871094 249.777344 358.871094 " fill-opacity="1" fill-rule="nonzero"/><path fill="#ffffff" d="M 244.828125 328.46875 C 243.785156 327.121094 243.042969 325.289062 243.867188 323.125 C 244.109375 322.476562 244.496094 321.894531 244.949219 321.371094 L 245.234375 321.015625 C 245.488281 320.707031 245.582031 320.296875 245.496094 319.90625 L 244.929688 317.296875 C 244.792969 316.664062 245.132812 316.023438 245.734375 315.785156 L 247.332031 315.160156 C 247.910156 314.929688 248.253906 314.332031 248.152344 313.71875 L 247.898438 312.164062 C 247.789062 311.511719 248.179688 310.882812 248.808594 310.6875 L 254.78125 308.84375 C 255.039062 308.761719 255.261719 308.605469 255.429688 308.394531 L 265.894531 295.058594 L 269.890625 296.792969 L 263.753906 313.597656 C 263.632812 313.9375 263.652344 314.316406 263.8125 314.640625 L 264.921875 316.855469 C 265.226562 317.460938 265.023438 318.199219 264.453125 318.5625 L 262.675781 319.695312 C 262.140625 320.035156 261.925781 320.707031 262.15625 321.292969 L 262.804688 322.929688 C 263.050781 323.554688 262.789062 324.265625 262.195312 324.582031 L 259.398438 326.066406 C 259.101562 326.226562 258.882812 326.492188 258.769531 326.808594 C 257.433594 330.5 254.722656 331.785156 251.8125 331.773438 C 249.066406 331.757812 246.503906 330.636719 244.828125 328.46875 " fill-opacity="1" fill-rule="nonzero"/><path fill="#000000" d="M 245.335938 328.070312 C 246.828125 330 249.191406 331.113281 251.816406 331.125 C 251.828125 331.125 251.84375 331.125 251.859375 331.125 C 254.953125 331.125 257.070312 329.601562 258.164062 326.589844 C 258.335938 326.113281 258.664062 325.726562 259.09375 325.5 L 261.894531 324.011719 C 262.195312 323.851562 262.328125 323.484375 262.207031 323.164062 L 261.558594 321.53125 C 261.210938 320.65625 261.539062 319.65625 262.328125 319.152344 L 264.105469 318.019531 C 264.398438 317.832031 264.5 317.457031 264.347656 317.148438 L 263.238281 314.929688 C 262.996094 314.445312 262.960938 313.882812 263.148438 313.375 L 269.074219 297.140625 L 266.09375 295.851562 L 255.933594 308.792969 C 255.6875 309.109375 255.351562 309.335938 254.972656 309.457031 L 249 311.304688 C 248.679688 311.402344 248.476562 311.726562 248.53125 312.058594 L 248.785156 313.613281 C 248.933594 314.519531 248.421875 315.421875 247.566406 315.757812 L 245.972656 316.386719 C 245.660156 316.507812 245.488281 316.835938 245.558594 317.160156 L 246.128906 319.769531 C 246.253906 320.355469 246.113281 320.957031 245.734375 321.421875 L 245.449219 321.777344 C 244.984375 322.320312 244.667969 322.828125 244.46875 323.351562 C 243.859375 324.953125 244.152344 326.542969 245.335938 328.070312 Z M 251.859375 332.414062 C 251.839844 332.414062 251.824219 332.414062 251.808594 332.414062 C 248.785156 332.402344 246.054688 331.105469 244.316406 328.859375 C 242.859375 326.980469 242.492188 324.917969 243.261719 322.894531 C 243.515625 322.230469 243.90625 321.59375 244.457031 320.953125 L 244.734375 320.609375 C 244.863281 320.453125 244.914062 320.246094 244.867188 320.042969 L 244.300781 317.433594 C 244.089844 316.488281 244.597656 315.539062 245.5 315.1875 L 247.09375 314.558594 C 247.390625 314.441406 247.566406 314.132812 247.511719 313.820312 L 247.261719 312.265625 C 247.101562 311.304688 247.6875 310.359375 248.617188 310.074219 L 254.589844 308.226562 C 254.722656 308.183594 254.835938 308.105469 254.921875 307.996094 L 265.691406 294.273438 L 270.707031 296.441406 L 264.363281 313.820312 C 264.296875 313.992188 264.308594 314.1875 264.390625 314.351562 L 265.503906 316.570312 C 265.953125 317.472656 265.648438 318.5625 264.800781 319.105469 L 263.023438 320.238281 C 262.75 320.414062 262.640625 320.757812 262.757812 321.054688 L 263.402344 322.691406 C 263.773438 323.621094 263.386719 324.679688 262.5 325.148438 L 259.699219 326.636719 C 259.554688 326.714844 259.4375 326.851562 259.375 327.027344 C 257.765625 331.472656 254.410156 332.414062 251.859375 332.414062 " fill-opacity="1" fill-rule="nonzero"/><path fill="#1d5f31" d="M 277.605469 296.769531 C 275.222656 301.246094 269.667969 302.945312 265.191406 300.5625 C 260.71875 298.183594 259.019531 292.628906 261.398438 288.152344 C 263.78125 283.675781 269.335938 281.980469 273.8125 284.359375 C 278.285156 286.738281 279.984375 292.296875 277.605469 296.769531 " fill-opacity="1" fill-rule="nonzero"/><path fill="#000000" d="M 269.511719 283.925781 C 268.675781 283.925781 267.832031 284.050781 267.007812 284.304688 C 264.828125 284.96875 263.039062 286.445312 261.96875 288.457031 C 260.898438 290.46875 260.679688 292.773438 261.34375 294.953125 C 262.007812 297.132812 263.484375 298.921875 265.496094 299.996094 C 267.507812 301.0625 269.816406 301.285156 271.996094 300.621094 C 274.175781 299.953125 275.964844 298.480469 277.035156 296.46875 C 278.105469 294.457031 278.328125 292.148438 277.664062 289.96875 C 276.996094 287.789062 275.523438 286 273.507812 284.929688 C 272.257812 284.265625 270.890625 283.925781 269.511719 283.925781 Z M 269.488281 302.285156 C 267.902344 302.285156 266.332031 301.898438 264.890625 301.132812 C 262.574219 299.902344 260.875 297.839844 260.109375 295.332031 C 259.34375 292.824219 259.597656 290.164062 260.832031 287.847656 C 262.066406 285.535156 264.125 283.835938 266.632812 283.070312 C 269.140625 282.304688 271.796875 282.558594 274.117188 283.789062 C 276.429688 285.023438 278.128906 287.082031 278.894531 289.589844 C 279.664062 292.101562 279.40625 294.757812 278.171875 297.074219 C 276.941406 299.390625 274.882812 301.089844 272.375 301.851562 C 271.425781 302.144531 270.453125 302.285156 269.488281 302.285156 " fill-opacity="1" fill-rule="nonzero"/><path fill="#000000" d="M 255.375 327.6875 C 254.597656 327.6875 253.804688 327.597656 253.019531 327.40625 C 250.601562 326.828125 248.5 325.375 247.257812 323.425781 C 247.066406 323.125 247.152344 322.726562 247.457031 322.535156 C 247.753906 322.34375 248.152344 322.429688 248.34375 322.730469 C 249.410156 324.402344 251.222656 325.652344 253.320312 326.152344 C 255.351562 326.640625 257.40625 326.402344 259.101562 325.476562 C 259.414062 325.304688 259.808594 325.417969 259.976562 325.730469 C 260.148438 326.046875 260.03125 326.4375 259.71875 326.605469 C 258.40625 327.324219 256.914062 327.6875 255.375 327.6875 " fill-opacity="1" fill-rule="nonzero"/><path fill="#000000" d="M 256.613281 321.988281 C 256.066406 321.988281 255.535156 321.933594 255.039062 321.816406 C 253.035156 321.335938 251.238281 320.253906 249.976562 318.773438 C 249.742188 318.503906 249.777344 318.09375 250.050781 317.863281 C 250.320312 317.632812 250.726562 317.664062 250.957031 317.933594 C 252.046875 319.210938 253.601562 320.144531 255.339844 320.5625 C 257.417969 321.058594 260.589844 320.0625 262.183594 319.195312 C 262.496094 319.023438 262.886719 319.136719 263.058594 319.453125 C 263.230469 319.765625 263.113281 320.15625 262.800781 320.328125 C 261.417969 321.082031 258.882812 321.988281 256.613281 321.988281 " fill-opacity="1" fill-rule="nonzero"/><path fill="#000000" d="M 258.9375 316.199219 C 258.3125 316.199219 257.691406 316.125 257.070312 315.976562 C 255.5 315.601562 254.433594 315.027344 253.5 314.054688 C 253.25 313.800781 253.257812 313.390625 253.515625 313.144531 C 253.769531 312.898438 254.179688 312.902344 254.425781 313.160156 C 255.1875 313.953125 256.042969 314.402344 257.371094 314.722656 C 259.179688 315.15625 260.941406 314.855469 262.921875 313.773438 C 263.234375 313.605469 263.625 313.71875 263.796875 314.03125 C 263.96875 314.34375 263.851562 314.738281 263.539062 314.90625 C 261.953125 315.769531 260.4375 316.199219 258.9375 316.199219 " fill-opacity="1" fill-rule="nonzero"/><path fill="#ffffff" d="M 277.289062 274.273438 C 274.734375 272.964844 270.957031 271.414062 264.289062 272.429688 C 256.941406 273.550781 255.300781 278.976562 243.773438 281.40625 C 223.964844 285.582031 233.71875 297.179688 233.71875 297.179688 L 249.128906 290.203125 C 250.128906 289.753906 251.230469 289.574219 252.324219 289.695312 C 255.683594 290.066406 263.726562 290.664062 271.050781 289.011719 C 276.53125 287.773438 283.753906 292.320312 287.640625 288.898438 C 289.902344 286.90625 282.730469 277.070312 277.289062 274.273438 " fill-opacity="1" fill-rule="nonzero"/><path fill="#000000" d="M 268.375 272.746094 C 267.171875 272.746094 265.851562 272.84375 264.386719 273.066406 C 261.148438 273.5625 259.046875 274.9375 256.617188 276.53125 C 253.636719 278.484375 250.253906 280.699219 243.910156 282.035156 C 237.308594 283.425781 233.394531 285.761719 232.285156 288.976562 C 231.199219 292.113281 233.15625 295.300781 233.921875 296.378906 L 248.863281 289.617188 C 249.96875 289.117188 251.191406 288.921875 252.394531 289.054688 C 255.53125 289.402344 263.621094 290.027344 270.910156 288.382812 C 273.378906 287.824219 276.105469 288.363281 278.746094 288.886719 C 282.078125 289.542969 285.226562 290.167969 287.214844 288.414062 C 287.445312 288.210938 287.445312 287.773438 287.402344 287.441406 C 287.011719 284.3125 281.460938 277.144531 276.992188 274.847656 C 274.890625 273.769531 272.265625 272.746094 268.375 272.746094 Z M 233.71875 297.824219 C 233.53125 297.824219 233.351562 297.746094 233.222656 297.59375 C 233.074219 297.414062 229.503906 293.09375 231.0625 288.5625 C 232.328125 284.886719 236.5625 282.265625 243.640625 280.773438 C 249.753906 279.488281 253.023438 277.34375 255.910156 275.449219 C 258.363281 273.84375 260.675781 272.328125 264.191406 271.792969 C 270.761719 270.792969 274.644531 272.195312 277.582031 273.703125 C 282.183594 276.0625 288.199219 283.425781 288.683594 287.28125 C 288.828125 288.441406 288.429688 289.0625 288.066406 289.378906 C 285.597656 291.554688 281.988281 290.84375 278.496094 290.152344 C 275.988281 289.65625 273.398438 289.140625 271.191406 289.640625 C 263.714844 291.332031 255.457031 290.691406 252.25 290.335938 C 251.277344 290.230469 250.289062 290.386719 249.394531 290.789062 L 233.984375 297.769531 C 233.898438 297.808594 233.808594 297.824219 233.71875 297.824219 " fill-opacity="1" fill-rule="nonzero"/><path fill="#1d5f31" d="M 42.710938 240.667969 C 40.457031 234.78125 45.414062 221.355469 51.804688 221.011719 C 79.429688 219.542969 124.449219 218.207031 185.871094 243.238281 C 188.191406 244.183594 189.957031 246.351562 190.703125 249.144531 L 191.140625 250.785156 C 191.839844 253.410156 191.367188 257.527344 190.148438 260.898438 C 188.941406 264.222656 186.148438 266.804688 182.628906 267.492188 C 181.757812 267.660156 180.84375 267.71875 179.949219 267.574219 C 166.15625 265.351562 124.09375 255.949219 93.683594 275.660156 C 66.988281 292.964844 49.78125 259.152344 42.710938 240.667969 " fill-opacity="1" fill-rule="nonzero"/><path fill="#1d5f31" d="M 242.066406 282.3125 C 239.808594 280.199219 236.503906 279.597656 233.613281 280.738281 C 219.660156 286.257812 174.144531 303.335938 165.894531 294.875 C 161.1875 290.042969 150.140625 275.519531 138.257812 262.429688 C 130.566406 253.953125 122.527344 246.078125 115.632812 241.824219 C 95.085938 229.136719 41.574219 235.242188 41.574219 235.242188 C 41.574219 235.242188 91.34375 334.324219 133.539062 344.121094 C 140.800781 345.804688 147.082031 346.722656 152.636719 347.039062 C 173.558594 348.234375 184.136719 340.960938 197.597656 334.53125 C 217.695312 324.933594 248.257812 301.878906 247.917969 294.1875 C 247.675781 288.757812 244.734375 284.804688 242.066406 282.3125 " fill-opacity="1" fill-rule="nonzero"/><path fill="#1d5f31" d="M 100.074219 353.617188 C 108.292969 355.875 135.363281 361.285156 169.3125 362.171875 C 140.988281 346.773438 133.355469 318.234375 133.355469 318.234375 C 157.246094 315.371094 133.203125 270.238281 123.863281 253.539062 C 118.683594 244.28125 104.558594 236.628906 94.988281 231.828125 C 74.160156 221.375 38.3125 214.242188 24.527344 228.882812 C 18.496094 235.285156 17.339844 241.035156 17.335938 251.097656 C 17.332031 252.929688 17.527344 254.761719 17.894531 256.5625 C 33.097656 330.777344 71.148438 345.667969 100.074219 353.617188 " fill-opacity="1" fill-rule="nonzero"/><path fill="#e9f1dc" d="M 145.238281 270.023438 C 145.058594 270.023438 144.878906 269.949219 144.75 269.800781 C 135.015625 258.515625 124.945312 249.746094 114.820312 243.738281 C 109.175781 240.386719 102.105469 237.726562 94.914062 236.25 C 94.5625 236.179688 94.339844 235.839844 94.410156 235.488281 C 94.484375 235.140625 94.824219 234.914062 95.171875 234.988281 C 102.5 236.492188 109.710938 239.207031 115.476562 242.625 C 125.722656 248.710938 135.898438 257.570312 145.726562 268.957031 C 145.957031 269.226562 145.929688 269.636719 145.660156 269.867188 C 145.535156 269.972656 145.386719 270.023438 145.238281 270.023438 " fill-opacity="1" fill-rule="nonzero"/><path fill="#e9f1dc" d="M 161.988281 349.632812 C 161.972656 349.632812 161.957031 349.628906 161.945312 349.628906 C 155.335938 349.191406 149.675781 348.253906 143.023438 346.488281 C 124.472656 341.570312 95.074219 310.851562 80.296875 286.359375 C 80.113281 286.054688 80.210938 285.660156 80.515625 285.472656 C 80.820312 285.292969 81.214844 285.390625 81.398438 285.695312 C 96.054688 309.976562 125.101562 340.402344 143.351562 345.242188 C 149.921875 346.984375 155.507812 347.910156 162.027344 348.34375 C 162.382812 348.367188 162.652344 348.671875 162.628906 349.027344 C 162.605469 349.367188 162.324219 349.632812 161.988281 349.632812 " fill-opacity="1" fill-rule="nonzero"/><path fill="#ffffff" d="M 218.617188 268.324219 C 219.953125 268.441406 221.546875 268.539062 224.015625 267.90625 L 243.121094 262.632812 C 244.78125 262.207031 245.757812 260.507812 245.28125 258.878906 C 245.28125 258.878906 244.601562 256.242188 241.652344 256.796875 C 240.472656 257.019531 233.78125 259.058594 232.988281 259.0625 C 231.714844 259.066406 231.074219 258.164062 231.46875 256.964844 C 231.671875 256.355469 231.835938 255.789062 231.96875 255.300781 C 232.28125 254.128906 233.214844 253.21875 234.398438 252.898438 C 236.800781 252.253906 243.992188 250.777344 245.007812 250.304688 C 246.511719 249.605469 248.746094 248.816406 249.46875 247.257812 L 249.652344 246.847656 C 250.390625 245.222656 249.089844 243.417969 247.296875 243.570312 L 229.910156 245.179688 C 227.683594 245.367188 225.589844 246.316406 223.980469 247.855469 L 215.675781 255.828125 C 213.800781 257.625 211.050781 258.195312 208.605469 257.292969 L 187.480469 248.132812 C 181.21875 245.785156 177.703125 257.601562 177.703125 257.601562 C 177.128906 261.214844 179.753906 264.605469 183.257812 265.109375 L 218.617188 268.324219 " fill-opacity="1" fill-rule="nonzero"/><path fill="#000000" d="M 218.675781 267.679688 C 220.101562 267.804688 221.566406 267.867188 223.855469 267.28125 L 242.949219 262.011719 C 243.597656 261.84375 244.128906 261.441406 244.449219 260.875 C 244.765625 260.320312 244.839844 259.671875 244.660156 259.0625 C 244.601562 258.835938 244.039062 257.003906 241.769531 257.433594 C 241.3125 257.519531 239.863281 257.925781 238.335938 258.355469 C 234.957031 259.304688 233.464844 259.703125 232.992188 259.707031 C 232.988281 259.707031 232.984375 259.707031 232.980469 259.707031 C 232.160156 259.707031 231.488281 259.402344 231.085938 258.847656 C 230.679688 258.289062 230.597656 257.546875 230.859375 256.765625 C 231.035156 256.222656 231.199219 255.671875 231.34375 255.132812 C 231.71875 253.75 232.824219 252.65625 234.234375 252.277344 C 235.1875 252.019531 236.855469 251.640625 238.625 251.238281 C 241.101562 250.675781 244.179688 249.980469 244.734375 249.71875 C 244.949219 249.621094 245.175781 249.519531 245.410156 249.414062 C 246.726562 248.835938 248.363281 248.109375 248.882812 246.984375 L 249.066406 246.582031 C 249.3125 246.035156 249.253906 245.417969 248.90625 244.929688 C 248.554688 244.425781 247.976562 244.160156 247.351562 244.214844 L 229.972656 245.820312 C 227.890625 245.996094 225.921875 246.886719 224.425781 248.320312 L 216.121094 256.292969 C 214.078125 258.25 211.042969 258.878906 208.382812 257.898438 L 187.226562 248.726562 C 186.179688 248.332031 185.160156 248.382812 184.140625 248.886719 C 180.605469 250.648438 178.511719 257.171875 178.332031 257.746094 C 178.101562 259.269531 178.492188 260.8125 179.433594 262.09375 C 180.386719 263.382812 181.816406 264.25 183.351562 264.472656 Z M 220.285156 269.054688 C 219.667969 269.054688 219.101562 269.011719 218.5625 268.964844 C 218.558594 268.964844 218.558594 268.964844 218.558594 268.964844 L 183.199219 265.753906 C 181.292969 265.476562 179.550781 264.425781 178.394531 262.855469 C 177.238281 261.289062 176.765625 259.382812 177.066406 257.5 C 177.070312 257.472656 177.074219 257.445312 177.085938 257.417969 C 177.175781 257.109375 179.390625 249.8125 183.570312 247.734375 C 184.90625 247.070312 186.296875 247 187.710938 247.53125 L 208.863281 256.703125 C 211.03125 257.5 213.539062 256.980469 215.226562 255.363281 L 223.535156 247.390625 C 225.242188 245.75 227.488281 244.738281 229.855469 244.535156 L 247.238281 242.929688 C 248.324219 242.835938 249.339844 243.304688 249.960938 244.1875 C 250.574219 245.054688 250.679688 246.148438 250.242188 247.113281 L 250.054688 247.523438 C 249.328125 249.089844 247.445312 249.925781 245.933594 250.59375 C 245.703125 250.695312 245.484375 250.792969 245.277344 250.890625 C 244.644531 251.183594 242.347656 251.71875 238.910156 252.496094 C 237.15625 252.894531 235.496094 253.273438 234.566406 253.519531 C 233.601562 253.78125 232.84375 254.527344 232.589844 255.46875 C 232.4375 256.03125 232.269531 256.601562 232.082031 257.167969 C 231.957031 257.546875 231.972656 257.875 232.128906 258.089844 C 232.28125 258.300781 232.585938 258.417969 232.980469 258.417969 C 232.984375 258.417969 232.984375 258.417969 232.988281 258.417969 C 233.414062 258.402344 236.164062 257.625 237.984375 257.113281 C 239.613281 256.65625 241.015625 256.261719 241.53125 256.164062 C 244.335938 255.636719 245.617188 257.605469 245.902344 258.722656 C 246.175781 259.648438 246.0625 260.648438 245.570312 261.511719 C 245.074219 262.386719 244.261719 263.003906 243.285156 263.257812 L 224.1875 268.527344 C 222.605469 268.933594 221.359375 269.054688 220.285156 269.054688 " fill-opacity="1" fill-rule="nonzero"/><path fill="#ffffff" d="M 196.167969 266.0625 C 193.429688 261.09375 197.027344 255.277344 198.980469 252.699219 C 199.523438 251.984375 199.273438 250.964844 198.460938 250.578125 L 194.320312 248.617188 C 193.753906 248.347656 193.078125 248.476562 192.652344 248.933594 C 190.152344 251.609375 182.574219 260.78125 189.464844 267.324219 C 189.695312 267.535156 189.996094 267.664062 190.308594 267.695312 L 194.773438 268.128906 C 195.90625 268.238281 196.714844 267.050781 196.167969 266.0625 " fill-opacity="1" fill-rule="nonzero"/><path fill="#000000" d="M 193.703125 249.121094 C 193.488281 249.121094 193.277344 249.210938 193.121094 249.375 C 190.734375 251.925781 183.453125 260.726562 189.910156 266.855469 C 190.027344 266.964844 190.191406 267.039062 190.371094 267.054688 L 194.832031 267.488281 C 195.136719 267.515625 195.410156 267.386719 195.574219 267.136719 C 195.644531 267.023438 195.796875 266.722656 195.605469 266.375 C 192.644531 261 196.621094 254.75 198.46875 252.308594 C 198.609375 252.125 198.65625 251.890625 198.601562 251.671875 C 198.546875 251.445312 198.398438 251.265625 198.1875 251.164062 L 194.042969 249.199219 C 193.933594 249.148438 193.816406 249.121094 193.703125 249.121094 Z M 194.914062 268.78125 C 194.847656 268.78125 194.777344 268.777344 194.710938 268.769531 L 190.246094 268.339844 C 189.785156 268.292969 189.347656 268.097656 189.023438 267.789062 C 181.703125 260.847656 189.585938 251.265625 192.179688 248.496094 C 192.800781 247.828125 193.773438 247.640625 194.59375 248.035156 L 198.738281 249.996094 C 199.300781 250.265625 199.707031 250.761719 199.855469 251.363281 C 200.003906 251.964844 199.871094 252.59375 199.496094 253.089844 C 197.800781 255.328125 194.136719 261.039062 196.734375 265.75 C 197.101562 266.421875 197.070312 267.203125 196.648438 267.847656 C 196.261719 268.433594 195.613281 268.78125 194.914062 268.78125 " fill-opacity="1" fill-rule="nonzero"/><path fill="#e9f1dc" d="M 198.109375 256.132812 C 198.109375 259.101562 195.667969 261.503906 192.652344 261.503906 C 189.636719 261.503906 187.191406 259.101562 187.191406 256.132812 C 187.191406 253.167969 189.636719 250.765625 192.652344 250.765625 C 195.667969 250.765625 198.109375 253.167969 198.109375 256.132812 " fill-opacity="1" fill-rule="nonzero"/><path fill="#000000" d="M 192.652344 251.410156 C 189.996094 251.410156 187.835938 253.53125 187.835938 256.132812 C 187.835938 258.738281 189.996094 260.859375 192.652344 260.859375 C 195.304688 260.859375 197.464844 258.738281 197.464844 256.132812 C 197.464844 253.53125 195.304688 251.410156 192.652344 251.410156 Z M 192.652344 262.148438 C 189.285156 262.148438 186.546875 259.449219 186.546875 256.132812 C 186.546875 252.820312 189.285156 250.121094 192.652344 250.121094 C 196.015625 250.121094 198.753906 252.820312 198.753906 256.132812 C 198.753906 259.449219 196.015625 262.148438 192.652344 262.148438 " fill-opacity="1" fill-rule="nonzero"/><path fill="#ffffff" d="M 48.871094 236.355469 L 46.410156 189.585938 L 78.128906 207.933594 L 80.046875 233.742188 C 80.328125 239.503906 75.671875 243.128906 75.671875 243.128906 C 69.945312 248.089844 61.304688 248.007812 54.699219 244.25 L 53.167969 243.382812 C 50.609375 241.925781 48.984375 239.273438 48.871094 236.355469 " fill-opacity="1" fill-rule="nonzero"/><path fill="#000000" d="M 47.117188 190.738281 L 49.515625 236.324219 C 49.515625 236.324219 49.515625 236.324219 49.515625 236.332031 C 49.621094 239.039062 51.109375 241.464844 53.488281 242.820312 L 55.019531 243.691406 C 61.78125 247.535156 70.097656 247.101562 75.25 242.640625 C 75.320312 242.585938 79.664062 239.121094 79.402344 233.773438 L 77.511719 208.324219 Z M 64.824219 247.644531 C 61.339844 247.644531 57.71875 246.707031 54.378906 244.8125 L 52.851562 243.941406 C 50.082031 242.367188 48.351562 239.542969 48.226562 236.382812 L 45.765625 189.621094 C 45.753906 189.386719 45.871094 189.160156 46.074219 189.039062 C 46.277344 188.914062 46.53125 188.910156 46.734375 189.03125 L 78.453125 207.375 C 78.636719 207.484375 78.753906 207.675781 78.773438 207.886719 L 80.691406 233.691406 C 80.984375 239.742188 76.269531 243.480469 76.070312 243.636719 C 73.003906 246.292969 69.011719 247.640625 64.824219 247.644531 " fill-opacity="1" fill-rule="nonzero"/><path fill="#000000" d="M 92.265625 147.589844 C 84.390625 145.976562 93.203125 155.457031 65.0625 142.75 C 53.859375 137.6875 57.820312 151.953125 54.910156 150.648438 C 44.160156 145.828125 41.214844 144.621094 35.535156 145.234375 C 31.773438 145.636719 23.074219 151.554688 23.574219 156.53125 C 25.203125 172.769531 32.894531 169.660156 35.710938 184.03125 C 37.691406 194.121094 40.007812 197.445312 43.722656 199.417969 C 47.480469 201.414062 51.167969 196.621094 55.433594 198.496094 C 60.957031 200.921875 58.390625 210.535156 63.402344 215.410156 C 66.558594 218.484375 74.601562 220.875 88.691406 216.507812 C 90.976562 215.800781 92.421875 213.582031 92.117188 211.230469 C 91.730469 208.222656 91.222656 204.421875 90.429688 200.832031 C 86.640625 183.722656 81.296875 179.195312 84.039062 175.308594 C 88.242188 169.351562 100.105469 174.855469 102.929688 169.867188 C 105.863281 164.691406 103.046875 149.792969 92.265625 147.589844 " fill-opacity="1" fill-rule="nonzero"/><path fill="#ffffff" d="M 60.476562 171.453125 L 62.117188 175.886719 C 62.90625 178.019531 63.550781 180.199219 64.035156 182.417969 C 64.9375 186.546875 66.769531 193.59375 67.753906 197.566406 C 70.910156 210.320312 87.914062 199.300781 87.914062 199.300781 L 89.449219 196.140625 L 91.59375 195.628906 C 91.984375 195.53125 92.359375 195.367188 92.660156 195.101562 C 93.476562 194.375 93.65625 193.253906 93.210938 192.351562 C 91.078125 188.035156 86.960938 178.972656 85.40625 170.542969 C 85.035156 168.53125 83.425781 166.949219 81.382812 166.558594 C 76.820312 165.6875 68.550781 165.359375 60.476562 171.453125 " fill-opacity="1" fill-rule="nonzero"/><path fill="#000000" d="M 61.25 171.683594 L 62.722656 175.664062 C 63.53125 177.847656 64.183594 180.074219 64.667969 182.277344 C 65.316406 185.265625 66.480469 189.875 67.414062 193.574219 C 67.777344 195.003906 68.109375 196.324219 68.378906 197.410156 C 69.03125 200.050781 70.367188 201.789062 72.347656 202.570312 C 77.683594 204.679688 86.1875 199.613281 87.417969 198.851562 L 88.867188 195.859375 C 88.953125 195.6875 89.109375 195.558594 89.296875 195.515625 L 91.445312 195 C 91.769531 194.921875 92.035156 194.792969 92.230469 194.621094 C 92.804688 194.113281 92.96875 193.3125 92.632812 192.636719 C 90.363281 188.039062 86.324219 179.070312 84.773438 170.660156 C 84.453125 168.925781 83.042969 167.53125 81.261719 167.191406 C 77.140625 166.402344 69.109375 165.960938 61.25 171.683594 Z M 75.296875 204.367188 C 74.101562 204.367188 72.9375 204.191406 71.871094 203.769531 C 69.484375 202.824219 67.886719 200.789062 67.128906 197.722656 C 66.859375 196.632812 66.527344 195.316406 66.164062 193.890625 C 65.230469 190.179688 64.0625 185.5625 63.40625 182.554688 C 62.9375 180.40625 62.300781 178.238281 61.511719 176.109375 L 59.871094 171.679688 C 59.773438 171.410156 59.859375 171.113281 60.089844 170.941406 C 68.46875 164.617188 77.101562 165.082031 81.507812 165.925781 C 83.804688 166.363281 85.625 168.175781 86.042969 170.425781 C 87.5625 178.6875 91.546875 187.527344 93.789062 192.066406 C 94.382812 193.269531 94.101562 194.683594 93.085938 195.585938 C 92.730469 195.898438 92.28125 196.125 91.746094 196.253906 L 89.894531 196.695312 L 88.496094 199.582031 C 88.445312 199.6875 88.367188 199.777344 88.265625 199.839844 C 87.925781 200.0625 81.199219 204.367188 75.296875 204.367188 " fill-opacity="1" fill-rule="nonzero"/><path fill="#ffffff" d="M 61.5625 186.457031 C 61.5625 186.457031 57.578125 175.644531 52.984375 178.457031 C 48.390625 181.269531 53.085938 193.070312 61.5625 186.457031 " fill-opacity="1" fill-rule="nonzero"/><path fill="#000000" d="M 83.324219 178.535156 C 83.097656 178.535156 82.875 178.5625 82.65625 178.621094 C 82.136719 178.753906 81.707031 179.042969 81.507812 179.390625 C 79.324219 183.203125 79.425781 186.589844 80.25 188.492188 C 80.589844 189.273438 81.007812 189.6875 81.273438 189.75 C 82.300781 189.992188 83.132812 189.867188 83.824219 189.367188 C 85.0625 188.472656 85.828125 186.410156 86.101562 183.230469 C 86.390625 179.878906 85.332031 179.234375 84.984375 179.027344 C 84.449219 178.699219 83.875 178.535156 83.324219 178.535156 Z M 82.226562 191.160156 C 81.828125 191.160156 81.410156 191.105469 80.976562 191.003906 C 80.238281 190.828125 79.542969 190.101562 79.066406 189.003906 C 78.117188 186.816406 77.96875 182.972656 80.390625 178.75 C 80.765625 178.097656 81.472656 177.59375 82.335938 177.371094 C 83.421875 177.089844 84.597656 177.285156 85.652344 177.921875 C 87.058594 178.773438 87.625 180.546875 87.386719 183.339844 C 87.078125 186.910156 86.132812 189.289062 84.578125 190.414062 C 83.894531 190.910156 83.105469 191.160156 82.226562 191.160156 " fill-opacity="1" fill-rule="nonzero"/><path fill="#000000" d="M 83.15625 178.476562 C 83.152344 178.476562 83.144531 178.476562 83.140625 178.476562 L 57.863281 177.945312 C 57.507812 177.9375 57.222656 177.644531 57.230469 177.289062 C 57.238281 176.933594 57.535156 176.628906 57.890625 176.65625 L 83.167969 177.1875 C 83.523438 177.195312 83.808594 177.492188 83.800781 177.847656 C 83.792969 178.199219 83.503906 178.476562 83.15625 178.476562 " fill-opacity="1" fill-rule="nonzero"/><path fill="#000000" d="M 92.8125 190.160156 C 92.535156 190.160156 92.277344 189.976562 92.195312 189.695312 C 92.09375 189.351562 92.292969 188.996094 92.632812 188.894531 C 93.308594 188.554688 95.808594 183.914062 94.261719 180.132812 C 94.019531 179.542969 93.640625 179.167969 93.109375 178.984375 C 91.679688 178.488281 89.449219 179.46875 88.710938 179.882812 C 88.402344 180.0625 88.007812 179.953125 87.832031 179.644531 C 87.65625 179.332031 87.765625 178.941406 88.074219 178.761719 C 88.203125 178.691406 91.261719 176.980469 93.53125 177.765625 C 94.421875 178.074219 95.070312 178.707031 95.453125 179.644531 C 96.890625 183.152344 95.355469 186.84375 94.851562 187.890625 C 94.496094 188.628906 93.78125 189.90625 92.996094 190.132812 C 92.933594 190.152344 92.875 190.160156 92.8125 190.160156 " fill-opacity="1" fill-rule="nonzero"/><path fill="#000000" d="M 297.382812 33.328125 C 297.238281 33.328125 297.101562 33.285156 296.984375 33.195312 C 296.703125 32.972656 296.652344 32.570312 296.875 32.289062 L 299.101562 29.4375 C 299.320312 29.160156 299.730469 29.109375 300.011719 29.328125 C 300.289062 29.550781 300.335938 29.953125 300.117188 30.234375 L 297.890625 33.082031 C 297.761719 33.246094 297.570312 33.328125 297.382812 33.328125 " fill-opacity="1" fill-rule="nonzero"/><path fill="#000000" d="M 305.1875 23.363281 C 305.046875 23.363281 304.90625 23.316406 304.789062 23.222656 C 304.507812 23.003906 304.460938 22.597656 304.679688 22.320312 L 306.910156 19.472656 C 307.128906 19.191406 307.535156 19.140625 307.816406 19.363281 C 308.09375 19.578125 308.144531 19.984375 307.925781 20.265625 L 305.695312 23.113281 C 305.570312 23.277344 305.378906 23.363281 305.1875 23.363281 " fill-opacity="1" fill-rule="nonzero"/><path fill="#000000" d="M 308.835938 31.902344 C 308.699219 31.902344 308.5625 31.859375 308.445312 31.769531 L 305.585938 29.550781 C 305.300781 29.335938 305.25 28.929688 305.46875 28.648438 C 305.683594 28.367188 306.089844 28.3125 306.371094 28.53125 L 309.234375 30.746094 C 309.515625 30.964844 309.566406 31.371094 309.347656 31.648438 C 309.222656 31.8125 309.03125 31.902344 308.835938 31.902344 " fill-opacity="1" fill-rule="nonzero"/><path fill="#000000" d="M 298.820312 24.15625 C 298.683594 24.15625 298.546875 24.109375 298.429688 24.019531 L 295.566406 21.804688 C 295.285156 21.585938 295.230469 21.183594 295.449219 20.902344 C 295.667969 20.617188 296.074219 20.566406 296.355469 20.785156 L 299.214844 23 C 299.5 23.21875 299.550781 23.621094 299.332031 23.902344 C 299.207031 24.066406 299.015625 24.15625 298.820312 24.15625 " fill-opacity="1" fill-rule="nonzero"/><path fill="#000000" d="M 328.390625 28.996094 C 326.046875 28.996094 324.140625 30.902344 324.140625 33.246094 C 324.140625 35.589844 326.046875 37.496094 328.390625 37.496094 C 330.734375 37.496094 332.636719 35.589844 332.636719 33.246094 C 332.636719 30.902344 330.734375 28.996094 328.390625 28.996094 Z M 328.390625 38.78125 C 325.335938 38.78125 322.851562 36.296875 322.851562 33.246094 C 322.851562 30.191406 325.335938 27.707031 328.390625 27.707031 C 331.441406 27.707031 333.929688 30.191406 333.929688 33.246094 C 333.929688 36.296875 331.441406 38.78125 328.390625 38.78125 " fill-opacity="1" fill-rule="nonzero"/><path fill="#000000" d="M 345.144531 45.328125 C 343.617188 45.328125 342.378906 46.566406 342.378906 48.089844 C 342.378906 49.613281 343.617188 50.851562 345.144531 50.851562 C 346.664062 50.851562 347.902344 49.613281 347.902344 48.089844 C 347.902344 46.566406 346.664062 45.328125 345.144531 45.328125 Z M 345.144531 52.140625 C 342.90625 52.140625 341.09375 50.324219 341.09375 48.089844 C 341.09375 45.855469 342.90625 44.039062 345.144531 44.039062 C 347.375 44.039062 349.191406 45.855469 349.191406 48.089844 C 349.191406 50.324219 347.375 52.140625 345.144531 52.140625 " fill-opacity="1" fill-rule="nonzero"/><path fill="#000000" d="M 202.136719 243.515625 C 201.949219 243.515625 201.765625 243.433594 201.636719 243.277344 C 201.414062 243 201.453125 242.59375 201.730469 242.371094 L 215.011719 231.582031 C 215.285156 231.359375 215.691406 231.398438 215.917969 231.675781 C 216.140625 231.953125 216.097656 232.359375 215.824219 232.585938 L 202.542969 243.371094 C 202.421875 243.464844 202.28125 243.515625 202.136719 243.515625 " fill-opacity="1" fill-rule="nonzero"/><path fill="#000000" d="M 189.460938 242.265625 C 189.273438 242.265625 189.085938 242.183594 188.960938 242.03125 L 175.5 225.707031 C 175.273438 225.433594 175.3125 225.027344 175.589844 224.800781 C 175.863281 224.574219 176.269531 224.613281 176.496094 224.886719 L 189.953125 241.210938 C 190.183594 241.484375 190.144531 241.890625 189.867188 242.117188 C 189.75 242.214844 189.601562 242.265625 189.460938 242.265625 " fill-opacity="1" fill-rule="nonzero"/><path fill="#000000" d="M 196.167969 239.152344 C 196.144531 239.152344 196.125 239.152344 196.101562 239.152344 C 195.75 239.113281 195.488281 238.800781 195.523438 238.445312 L 197.808594 215.71875 C 197.839844 215.363281 198.160156 215.109375 198.511719 215.144531 C 198.867188 215.179688 199.125 215.496094 199.089844 215.847656 L 196.808594 238.574219 C 196.773438 238.90625 196.496094 239.152344 196.167969 239.152344 " fill-opacity="1" fill-rule="nonzero"/><path fill="#000000" d="M 252.953125 274.199219 C 252.914062 274.199219 252.875 274.199219 252.835938 274.191406 L 232.824219 270.5 C 232.472656 270.4375 232.238281 270.101562 232.304688 269.75 C 232.371094 269.398438 232.707031 269.167969 233.054688 269.234375 L 253.066406 272.921875 C 253.417969 272.984375 253.648438 273.324219 253.585938 273.675781 C 253.527344 273.984375 253.257812 274.199219 252.953125 274.199219 " fill-opacity="1" fill-rule="nonzero"/></svg>