<svg xmlns="http://www.w3.org/2000/svg" xmlns:xlink="http://www.w3.org/1999/xlink" width="500" zoomAndPan="magnify" viewBox="0 0 375 374.999991" height="500" preserveAspectRatio="xMidYMid meet" version="1.0"><defs><clipPath id="79b004ce68"><path d="M 0 50 L 349 50 L 349 365.109375 L 0 365.109375 Z M 0 50 " clip-rule="nonzero"/></clipPath><clipPath id="9eb7a0827c"><path d="M 217 9.609375 L 375 9.609375 L 375 167 L 217 167 Z M 217 9.609375 " clip-rule="nonzero"/></clipPath></defs><g clip-path="url(#79b004ce68)"><path fill="#14b497" d="M 341.90625 169.9375 C 338.371094 169.9375 335.472656 172.832031 335.472656 176.371094 C 335.472656 187.113281 328.140625 196.121094 318.230469 198.886719 C 317.265625 184.28125 313.472656 170.066406 306.84375 156.617188 C 306.84375 156.617188 306.78125 156.554688 306.78125 156.554688 C 306.652344 156.296875 306.394531 156.105469 306.265625 155.847656 C 304.980469 153.980469 302.855469 152.886719 300.605469 153.015625 C 300.605469 153.015625 300.539062 153.015625 300.539062 153.015625 C 298.996094 153.144531 297.515625 153.207031 295.972656 153.207031 C 282.523438 153.207031 269.59375 149.15625 258.65625 141.5 C 258.207031 141.175781 257.753906 140.792969 257.304688 140.46875 C 255.503906 138.863281 253.574219 137.253906 251.578125 135.773438 C 251.128906 135.386719 250.679688 134.9375 250.226562 134.550781 C 239.289062 123.742188 232.472656 109.460938 231.054688 94.40625 C 231.054688 94.148438 230.863281 93.953125 230.863281 93.699219 C 230.734375 93.117188 230.605469 92.539062 230.347656 92.023438 C 230.21875 91.832031 230.027344 91.636719 229.898438 91.445312 C 229.574219 90.929688 229.191406 90.480469 228.738281 90.03125 C 228.609375 89.902344 228.417969 89.835938 228.289062 89.773438 C 227.773438 89.449219 227.324219 89.066406 226.746094 88.871094 C 210.148438 83.210938 192.648438 80.378906 174.632812 80.378906 C 155.460938 80.378906 137.125 83.660156 119.945312 89.902344 L 67.640625 51.363281 C 65.453125 49.753906 62.492188 49.691406 60.179688 51.234375 C 57.925781 52.777344 56.898438 55.546875 57.605469 58.183594 L 73.175781 117.179688 C 55.480469 132.554688 42.808594 151.472656 36.179688 172.382812 L 7.359375 172.382812 C 5.425781 172.382812 3.5625 173.28125 2.339844 174.761719 C 1.117188 176.304688 0.667969 178.234375 1.050781 180.164062 L 13.019531 235.042969 C 13.664062 238.003906 16.300781 240.128906 19.324219 240.128906 L 36.117188 240.128906 C 45.703125 270.238281 68.15625 296.421875 98.585938 313.019531 L 98.585938 359.34375 C 98.585938 362.882812 101.480469 365.777344 105.019531 365.777344 L 131.398438 365.777344 C 134.164062 365.777344 136.675781 363.976562 137.511719 361.335938 L 147.738281 329.941406 C 156.488281 331.421875 165.496094 332.191406 174.632812 332.191406 C 183.769531 332.191406 192.777344 331.421875 201.523438 329.941406 L 211.753906 361.335938 C 212.589844 363.976562 215.101562 365.777344 217.867188 365.777344 L 244.246094 365.777344 C 247.785156 365.777344 250.679688 362.882812 250.679688 359.34375 L 250.679688 313.019531 C 290.632812 291.273438 315.980469 253.316406 318.230469 212.140625 C 335.28125 209.179688 348.339844 194.320312 348.339844 176.433594 C 348.339844 172.832031 345.511719 169.9375 341.90625 169.9375 Z M 341.90625 169.9375 " fill-opacity="1" fill-rule="nonzero"/></g><g clip-path="url(#9eb7a0827c)"><path fill="#ffde5a" d="M 295.972656 9.867188 C 252.929688 9.867188 217.867188 44.929688 217.867188 87.972656 C 217.867188 131.011719 252.929688 166.074219 295.972656 166.074219 C 339.011719 166.074219 374.074219 131.011719 374.074219 87.972656 C 374.074219 44.929688 339.011719 9.867188 295.972656 9.867188 Z M 295.972656 9.867188 " fill-opacity="1" fill-rule="nonzero"/></g><path fill="#046b58" d="M 94.339844 148.449219 C 84.820312 148.449219 77.035156 156.230469 77.035156 165.753906 C 77.035156 175.277344 84.820312 183.0625 94.339844 183.0625 C 103.863281 183.0625 111.648438 175.277344 111.648438 165.753906 C 111.648438 156.230469 103.863281 148.449219 94.339844 148.449219 Z M 94.339844 148.449219 " fill-opacity="1" fill-rule="nonzero"/><path fill="#046b58" d="M 188.144531 110.875 C 184.667969 110.554688 181.453125 113.125 181.128906 116.664062 C 180.808594 120.203125 183.382812 123.355469 186.921875 123.679688 C 233.050781 128.246094 270.109375 159.128906 275.191406 197.152344 C 275.640625 200.367188 278.40625 202.746094 281.558594 202.746094 C 281.816406 202.746094 282.140625 202.746094 282.394531 202.683594 C 285.933594 202.234375 288.378906 198.953125 287.929688 195.476562 C 282.074219 151.601562 240.128906 116.023438 188.144531 110.875 Z M 188.144531 110.875 " fill-opacity="1" fill-rule="nonzero"/><path fill="#046b58" d="M 328.011719 108.558594 C 324.988281 106.691406 321.0625 107.59375 319.132812 110.617188 C 314.949219 117.308594 309.097656 121.167969 303.175781 121.167969 C 295.070312 121.167969 287.929688 114.09375 284.132812 103.925781 L 310.769531 103.925781 C 314.308594 103.925781 317.203125 101.03125 317.203125 97.492188 C 317.203125 93.953125 314.308594 91.058594 310.769531 91.058594 L 281.429688 91.058594 C 281.367188 90.03125 281.238281 89.066406 281.238281 87.972656 C 281.238281 86.878906 281.367188 85.914062 281.429688 84.882812 L 310.769531 84.882812 C 314.308594 84.882812 317.203125 81.988281 317.203125 78.449219 C 317.203125 74.910156 314.308594 72.015625 310.769531 72.015625 L 284.132812 72.015625 C 287.929688 61.851562 295.070312 54.773438 303.175781 54.773438 C 309.097656 54.773438 314.949219 58.632812 319.132812 65.324219 C 321 68.347656 324.988281 69.25 328.011719 67.382812 C 331.035156 65.519531 331.9375 61.527344 330.070312 58.503906 C 323.441406 47.953125 313.664062 41.90625 303.242188 41.90625 C 288.25 41.90625 275.511719 54.453125 270.621094 72.015625 L 254.601562 72.015625 C 251.066406 72.015625 248.167969 74.910156 248.167969 78.449219 C 248.167969 81.988281 251.066406 84.882812 254.601562 84.882812 L 268.5625 84.882812 C 268.5 85.914062 268.433594 86.941406 268.433594 87.972656 C 268.433594 89 268.5 90.03125 268.5625 91.058594 L 254.601562 91.058594 C 251.066406 91.058594 248.167969 93.953125 248.167969 97.492188 C 248.167969 101.03125 251.066406 103.925781 254.601562 103.925781 L 270.621094 103.925781 C 275.511719 121.492188 288.316406 134.035156 303.242188 134.035156 C 313.726562 134.035156 323.507812 127.988281 330.070312 117.4375 C 331.9375 114.414062 331.035156 110.425781 328.011719 108.558594 Z M 328.011719 108.558594 " fill-opacity="1" fill-rule="nonzero"/></svg>